<?xml version="1.0" standalone="no"?>
<!DOCTYPE svg PUBLIC "-//W3C//DTD SVG 20010904//EN"
 "http://www.w3.org/TR/2001/REC-SVG-20010904/DTD/svg10.dtd">
<svg version="1.0" xmlns="http://www.w3.org/2000/svg"
 width="564.000000pt" height="846.000000pt" viewBox="0 0 564.000000 846.000000"
 preserveAspectRatio="xMidYMid meet">

<g transform="translate(0.000000,846.000000) scale(0.100000,-0.100000)"
fill="#000000" stroke="none">
<path d="M4392 8429 c4 -24 -1 -35 -24 -54 -36 -30 -29 -45 19 -45 l37 0 -22
-20 c-12 -12 -22 -30 -22 -41 0 -12 -13 -38 -30 -59 -24 -30 -27 -40 -17 -48
24 -20 20 -77 -8 -110 -26 -31 -35 -95 -15 -107 6 -3 10 -15 10 -26 0 -25 4
-24 35 7 23 23 54 26 74 8 10 -9 -20 -27 -55 -33 -41 -7 -56 -28 -27 -37 10
-3 27 -10 37 -16 37 -20 72 -26 87 -14 21 15 29 52 39 181 6 73 16 130 31 170
28 72 29 149 5 223 l-18 52 -70 0 -70 0 4 -31z"/>
<path d="M3964 8386 c-6 -15 31 -82 38 -69 3 4 3 2 2 -5 -6 -23 32 -77 52 -74
26 5 26 5 9 38 -9 17 -11 30 -5 32 19 7 10 23 -20 33 -20 7 -30 18 -31 32 -1
17 -2 18 -6 5 -5 -20 -18 -23 -28 -8 -3 6 -1 10 4 10 6 0 11 5 11 10 0 15 -20
12 -26 -4z"/>
<path d="M2687 8333 c-7 -10 31 -26 119 -49 90 -23 192 -82 266 -153 37 -36
64 -69 61 -75 -4 -5 0 -7 9 -3 11 4 20 -3 28 -23 6 -16 21 -37 32 -47 46 -42
112 -226 125 -349 9 -88 -3 -181 -27 -211 -29 -34 -60 -82 -60 -91 0 -5 -8
-20 -19 -33 -10 -13 -26 -47 -35 -74 -23 -71 -96 -196 -153 -262 -85 -101
-234 -193 -358 -224 -71 -17 -133 -49 -114 -59 30 -16 150 -41 243 -49 160
-16 298 5 458 67 63 24 68 29 74 62 4 19 15 55 24 80 10 25 23 81 30 125 26
174 63 371 110 591 28 128 50 241 50 252 0 28 -10 32 -53 25 -34 -5 -35 -7
-47 -69 -7 -35 -15 -66 -19 -68 -3 -2 -18 -2 -32 1 -27 5 -31 15 -62 151 -16
74 -11 85 54 102 36 10 42 9 87 -22 26 -18 62 -35 80 -38 18 -3 33 -9 34 -15
0 -5 7 -14 14 -20 16 -11 15 -15 -35 -280 -68 -359 -158 -741 -181 -770 -4 -5
-15 -48 -24 -95 -10 -47 -38 -177 -63 -290 -37 -168 -46 -227 -48 -325 -2 -83
0 -111 6 -90 5 17 54 248 109 515 112 539 173 832 195 930 17 77 72 347 77
374 3 20 53 32 63 15 4 -5 2 -9 -4 -9 -6 0 -13 -17 -16 -37 -4 -21 -15 -76
-26 -123 -11 -47 -24 -109 -29 -138 -11 -72 -56 -279 -92 -427 -16 -66 -35
-151 -43 -190 -8 -38 -19 -88 -24 -110 -5 -22 -28 -125 -50 -230 -22 -104 -49
-232 -61 -284 -11 -51 -25 -121 -31 -155 -5 -33 -13 -77 -16 -96 -8 -47 -29
-77 -57 -82 -43 -9 -56 12 -56 91 0 49 -4 71 -12 72 -7 1 -40 3 -74 4 l-61 2
-11 -71 c-10 -70 -29 -154 -52 -229 -6 -20 -8 -42 -5 -47 4 -6 3 -10 -2 -9
-18 5 -102 -14 -98 -21 3 -5 49 -7 103 -5 77 2 91 1 67 -8 -16 -5 -32 -13 -35
-17 -9 -13 -49 -30 -70 -30 -12 0 -19 -4 -16 -8 3 -5 -8 -22 -25 -38 -17 -16
-40 -46 -50 -66 -11 -21 -23 -38 -27 -39 -66 -8 -115 -2 -232 27 -177 45 -171
43 -137 60 15 8 27 20 27 27 0 8 -3 8 -9 -2 -8 -12 -25 -12 -126 5 -5 1 -21 3
-35 4 -23 1 -24 2 -5 10 14 6 1 8 -37 5 -32 -3 -58 -1 -58 3 0 11 -188 13
-195 2 -11 -18 -63 -10 -160 25 -52 19 -95 32 -95 29 0 -3 -16 3 -35 15 -19
11 -37 16 -39 12 -5 -7 33 -30 59 -37 6 -1 44 -14 85 -29 41 -14 83 -29 93
-32 21 -7 22 -26 2 -43 -9 -7 -14 -15 -11 -17 2 -2 -5 -32 -15 -65 -10 -34
-16 -65 -13 -69 2 -4 0 -10 -6 -14 -5 -3 -10 -18 -10 -33 0 -15 -11 -37 -23
-49 -22 -20 -26 -21 -53 -7 -16 8 -34 22 -41 31 -7 9 -22 21 -35 27 -12 6 -29
29 -37 51 -8 22 -18 42 -22 45 -3 3 -15 22 -26 43 l-20 37 -6 -27 c-6 -30 9
-900 17 -973 3 -25 8 -90 11 -145 3 -55 8 -134 11 -176 4 -69 3 -77 -14 -81
-27 -7 -32 -64 -33 -408 0 -162 -3 -289 -6 -282 -13 34 -21 0 -27 -125 -6
-133 3 -344 23 -543 17 -162 81 -293 194 -396 50 -46 162 -103 175 -89 3 3 -8
19 -24 36 -22 23 -25 32 -16 38 10 6 -3 25 -47 69 -60 59 -80 100 -43 89 9 -3
64 -22 121 -42 128 -44 324 -84 451 -92 100 -6 378 12 445 28 80 20 81 20 53
4 -21 -11 -32 -30 -44 -73 -9 -31 -25 -72 -35 -90 -11 -19 -17 -38 -14 -43 4
-5 32 -9 63 -9 143 -1 -96 -59 -291 -70 -210 -13 -342 7 -589 88 -70 23 -85
26 -80 13 3 -9 17 -25 31 -36 44 -36 162 -115 172 -115 5 0 17 -4 27 -9 9 -5
25 -12 35 -15 9 -3 17 -14 17 -25 0 -12 7 -20 18 -20 54 -1 155 -31 167 -50 3
-6 15 -11 26 -11 10 0 19 -5 19 -10 0 -6 6 -10 13 -9 6 2 28 -1 47 -6 19 -5
43 -8 52 -6 9 1 27 -5 40 -13 13 -8 39 -17 58 -18 19 -2 40 -10 47 -18 9 -12
14 -11 31 10 15 18 23 22 33 14 8 -6 32 -12 54 -13 71 -3 89 -7 93 -19 5 -15
72 -16 72 -1 0 7 8 9 23 4 20 -7 65 -12 159 -18 20 -1 40 -5 43 -9 4 -4 16 -3
27 3 16 9 25 6 44 -12 13 -12 24 -28 24 -36 0 -7 4 -13 10 -13 8 0 30 61 30
87 0 6 10 13 22 15 15 2 25 13 32 36 5 18 24 45 41 61 18 16 36 43 40 60 4 17
11 31 16 31 5 0 -5 14 -23 30 -26 25 -31 37 -30 72 1 23 4 50 7 59 3 9 -1 19
-8 22 -8 3 -17 18 -21 34 -15 60 -23 113 -17 113 4 0 7 18 7 40 1 37 0 39 -15
27 -23 -21 -61 -31 -61 -17 0 6 14 24 30 39 30 27 60 94 75 167 5 21 10 46 13
54 3 8 7 128 8 265 2 138 4 286 6 330 4 130 -12 2102 -18 2313 -5 154 -9 191
-19 182 -23 -19 -27 20 -4 51 11 16 16 29 10 29 -6 0 -16 -9 -23 -20 -7 -11
-17 -20 -21 -20 -5 0 8 19 27 42 26 30 36 51 36 75 0 41 -22 86 -52 107 -20
15 -21 19 -10 73 9 46 103 496 128 613 3 14 29 45 57 70 82 70 163 167 232
276 79 126 138 191 206 228 29 15 75 50 103 77 28 27 61 52 74 55 12 4 22 10
22 14 0 4 14 17 31 28 17 10 30 22 30 27 -1 4 23 8 52 8 30 1 62 8 71 16 15
13 13 16 -29 38 -26 12 -53 23 -61 23 -25 0 -92 44 -103 67 -5 12 -15 50 -21
85 -35 205 -55 272 -77 264 -8 -4 -16 -6 -19 -6 -2 0 -10 -15 -17 -32 -11 -25
-24 -36 -56 -46 -23 -7 -46 -10 -52 -7 -5 4 -9 0 -9 -8 0 -25 -29 -28 -41 -4
-7 12 -25 35 -40 51 l-28 31 14 -55 c17 -64 19 -104 5 -95 -5 3 -10 19 -10 34
0 31 -31 102 -37 84 -2 -6 3 -30 11 -54 22 -64 3 -71 -33 -14 -17 27 -33 57
-37 67 -3 10 -9 16 -14 13 -4 -3 -11 7 -15 23 -3 15 -15 37 -26 48 -14 15 -17
24 -10 29 16 10 3 25 -15 18 -13 -5 -15 -1 -10 18 3 13 3 18 0 12 -9 -19 -34
-16 -34 5 0 14 -2 15 -10 2 -8 -12 -10 -11 -10 6 0 11 -20 41 -45 67 -44 46
-73 61 -62 33 3 -8 1 -16 -5 -18 -6 -2 -2 -19 11 -41 12 -21 21 -47 21 -59 0
-18 -4 -20 -32 -13 -41 9 -85 7 -107 -4 -9 -5 -37 -7 -62 -4 l-46 5 -14 -51
-14 -51 -85 65 c-147 112 -203 149 -260 168 -64 21 -204 34 -213 20z m1253
-510 c0 -23 -5 -64 -11 -92 -18 -83 -8 -91 106 -87 64 2 95 -1 95 -8 0 -6 -25
-39 -56 -73 -36 -41 -60 -60 -70 -56 -11 4 -14 13 -10 29 5 19 2 24 -13 24
-19 0 -28 -26 -35 -97 -4 -42 -48 -98 -98 -124 -22 -11 -42 -18 -45 -15 -3 3
6 47 21 98 14 51 26 102 26 113 0 12 7 47 15 79 9 35 12 64 6 73 -11 21 -2 53
15 53 17 0 19 67 3 123 -14 52 -1 67 28 31 16 -20 23 -42 23 -71z m-544 -1766
c7 -50 -2 -59 -29 -29 -21 23 -12 112 9 90 8 -7 17 -35 20 -61z m-246 -33 c0
-14 -3 -14 -15 -4 -8 7 -15 14 -15 16 0 2 7 4 15 4 8 0 15 -7 15 -16z m230
-68 c0 -2 -8 -10 -17 -17 -16 -13 -17 -12 -4 4 13 16 21 21 21 13z m-170 -47
c0 -11 5 -30 11 -42 9 -16 9 -19 0 -11 -16 14 -32 74 -20 74 5 0 9 -9 9 -21z
m120 -15 c0 -7 -71 -36 -76 -31 -3 2 10 12 28 20 35 17 48 21 48 11z m40 -24
c0 -5 -9 -19 -20 -30 -12 -12 -18 -25 -15 -29 2 -5 -2 -11 -10 -14 -9 -4 -12
-1 -8 9 9 24 -14 16 -37 -13 -16 -20 -31 -28 -57 -29 l-35 -1 26 14 c44 23 29
22 -40 -4 -37 -13 -72 -22 -78 -20 -6 2 14 12 44 21 30 10 64 24 75 31 11 6
33 15 48 19 16 4 41 18 55 31 28 26 52 33 52 15z m-300 -80 c-8 -5 -28 -9 -45
-9 l-30 1 30 8 c17 4 37 8 45 9 13 1 13 0 0 -9z m278 -222 c2 -9 -6 -37 -17
-62 -12 -25 -21 -50 -21 -55 0 -6 -4 -11 -10 -11 -5 0 -10 -5 -10 -11 0 -12
-52 -79 -61 -79 -4 0 -24 -8 -45 -17 -44 -19 -129 -29 -120 -14 4 5 -1 16 -9
25 -10 9 -17 39 -19 75 -4 52 -1 63 19 85 13 15 29 26 36 26 6 0 9 6 6 14 -4
9 7 17 32 25 50 14 51 14 51 -8 0 -10 7 -22 16 -25 8 -3 12 -2 9 4 -3 6 -1 10
4 10 6 0 11 9 11 19 0 18 7 20 62 18 50 -2 63 -5 66 -19z m-403 -628 c-3 -5
-10 -10 -16 -10 -5 0 -9 5 -9 10 0 6 7 10 16 10 8 0 12 -4 9 -10z m40 0 c-3
-5 -10 -10 -16 -10 -5 0 -9 5 -9 10 0 6 7 10 16 10 8 0 12 -4 9 -10z m99 -13
c-1 -9 -2 -24 -3 -32 0 -8 -10 -15 -21 -15 -13 0 -20 -7 -20 -19 0 -21 -39
-74 -40 -53 0 24 -19 11 -25 -19 -4 -17 -9 -28 -12 -25 -3 3 -19 -4 -35 -15
-16 -12 -35 -22 -42 -23 -8 -1 -22 -8 -31 -16 -11 -9 -40 -14 -81 -14 -35 0
-64 -3 -64 -8 0 -5 -17 -8 -37 -6 -35 3 -38 5 -36 33 l2 30 -11 -27 c-12 -28
-28 -38 -28 -16 0 6 -7 4 -18 -5 -10 -10 -31 -17 -46 -17 -37 0 -103 46 -115
80 -5 16 -20 34 -32 40 -22 12 -22 12 8 25 17 7 34 22 37 33 7 20 56 49 56 32
0 -6 9 -10 20 -10 11 0 20 -6 20 -12 0 -10 2 -10 8 -1 12 18 95 21 109 3 6 -8
15 -12 19 -8 4 4 1 14 -6 23 -15 18 -13 20 17 29 18 6 22 4 17 -7 -3 -8 -1
-18 5 -22 7 -4 11 3 11 16 0 22 0 22 14 3 14 -18 17 -18 43 -3 15 9 27 20 26
25 -1 5 12 10 28 11 33 2 52 -23 28 -37 -7 -5 -10 -12 -6 -16 11 -11 39 18 32
34 -4 12 2 13 32 7 87 -17 145 -16 142 3 -3 18 2 23 19 20 9 -2 16 -11 16 -21z
m-324 -18 c0 -5 -4 -9 -10 -9 -5 0 -10 7 -10 16 0 8 5 12 10 9 6 -3 10 -10 10
-16z m-895 -665 c13 -8 21 -22 19 -29 -3 -7 2 -28 12 -47 40 -76 25 -151 -39
-199 -28 -20 -32 -21 -56 -6 -14 8 -39 39 -55 67 -27 48 -28 54 -16 91 7 21
19 39 25 39 7 0 15 15 19 33 6 29 39 66 59 67 4 0 19 -7 32 -16z m1536 -1510
c9 -11 9 -17 -1 -30 -16 -18 -162 -90 -205 -100 -16 -4 -48 -15 -70 -25 -22
-10 -58 -19 -80 -19 -67 0 -42 12 191 96 22 8 57 32 77 52 40 41 69 49 88 26z
m-161 -144 c0 -18 -51 -114 -74 -138 l-21 -24 39 8 39 7 -7 -33 c-3 -19 -13
-41 -21 -50 -25 -28 -151 -84 -172 -76 -16 7 -14 10 16 35 32 27 33 29 15 40
-19 11 -19 11 1 27 11 8 32 18 48 21 15 3 30 10 33 15 4 6 -2 7 -15 3 -27 -8
-27 9 -1 53 11 18 20 40 20 48 0 22 58 74 81 74 10 0 19 -5 19 -10z"/>
<path d="M3295 5570 c-3 -5 1 -10 9 -10 9 0 16 5 16 10 0 6 -4 10 -9 10 -6 0
-13 -4 -16 -10z"/>
<path d="M3248 5553 c6 -2 18 -2 25 0 6 3 1 5 -13 5 -14 0 -19 -2 -12 -5z"/>
<path d="M3125 5350 c-3 -5 3 -10 14 -10 12 0 21 5 21 10 0 6 -6 10 -14 10 -8
0 -18 -4 -21 -10z"/>
<path d="M2895 4870 c-3 -5 1 -10 9 -10 9 0 16 5 16 10 0 6 -4 10 -9 10 -6 0
-13 -4 -16 -10z"/>
<path d="M2937 4873 c-4 -3 -7 -11 -7 -17 0 -6 5 -5 12 2 6 6 9 14 7 17 -3 3
-9 2 -12 -2z"/>
<path d="M2610 4849 c0 -11 5 -17 10 -14 6 3 10 -1 10 -9 0 -9 -7 -16 -15 -16
-12 0 -13 -4 -3 -25 12 -27 27 -33 29 -12 6 69 5 83 -5 89 -19 13 -26 9 -26
-13z"/>
<path d="M2253 8233 c9 -2 25 -2 35 0 9 3 1 5 -18 5 -19 0 -27 -2 -17 -5z"/>
<path d="M2388 8233 c6 -2 18 -2 25 0 6 3 1 5 -13 5 -14 0 -19 -2 -12 -5z"/>
<path d="M2509 8206 l24 -13 -28 -7 c-15 -4 -25 -9 -23 -12 3 -2 20 1 38 7 31
11 32 13 15 26 -11 7 -26 13 -34 13 -11 -1 -8 -5 8 -14z"/>
<path d="M2340 8106 c-145 -107 -214 -255 -219 -467 -4 -150 57 -315 136 -369
38 -26 57 -55 29 -44 -17 7 -106 -71 -106 -92 0 -7 -10 -20 -22 -29 -19 -13
-21 -18 -11 -34 10 -16 9 -18 -6 -14 -28 7 -35 -14 -9 -28 13 -7 30 -19 38
-28 30 -32 76 -55 140 -68 35 -8 69 -19 75 -25 10 -10 -16 -8 -95 7 -14 2 -7
-2 15 -9 22 -8 52 -15 68 -15 15 -1 27 -5 27 -9 0 -14 -108 6 -174 32 -67 26
-116 37 -116 26 0 -4 12 -13 28 -20 16 -8 22 -14 14 -17 -18 -7 -86 41 -150
105 -56 57 -113 136 -156 217 -14 27 -27 43 -28 35 0 -8 -2 -22 -2 -30 -1 -8
3 -18 8 -22 5 -3 11 -14 12 -24 12 -83 170 -261 298 -337 43 -26 80 -47 82
-47 2 0 29 -12 61 -26 54 -25 63 -26 182 -22 95 3 134 9 160 22 18 10 48 18
67 19 19 1 34 5 34 8 0 3 20 16 45 28 48 24 65 41 41 41 -8 0 -17 -4 -20 -9
-8 -12 -56 -20 -56 -10 0 5 5 9 10 9 6 0 31 11 58 24 157 78 188 101 239 176
52 79 76 161 59 201 -4 10 -3 20 3 24 6 3 10 16 10 28 -1 17 -2 18 -6 4 -2 -9
-8 -15 -13 -12 -5 3 -11 1 -15 -5 -3 -5 -2 -10 3 -10 10 0 4 -83 -8 -114 -7
-17 -9 -18 -9 -3 -1 20 -5 21 -31 7 -16 -8 -18 -8 -14 5 14 35 -7 10 -40 -48
-37 -68 -115 -153 -176 -193 -28 -19 -48 -24 -76 -22 l-39 3 25 23 c13 12 34
22 46 22 28 0 74 20 74 32 0 4 6 8 13 8 6 0 20 12 30 25 l18 25 -31 -6 c-38
-8 -39 1 0 21 35 18 43 19 34 3 -3 -7 12 5 33 27 51 51 60 69 89 174 75 270
-15 553 -231 726 -58 47 -181 112 -191 102 -3 -2 -7 -17 -10 -33 -7 -36 -12
-44 -30 -44 -20 0 -33 40 -23 68 7 19 5 24 -17 32 -14 6 -49 10 -77 10 -43 0
-60 -6 -97 -34z m183 -1183 c-7 -2 -21 -2 -30 0 -10 3 -4 5 12 5 17 0 24 -2
18 -5z m191 -93 c-12 -12 -164 -34 -191 -28 -10 3 9 8 42 12 33 4 76 11 95 16
51 12 66 12 54 0z m-269 -20 c18 -8 17 -9 -7 -9 -15 -1 -30 4 -33 9 -7 12 12
12 40 0z"/>
<path d="M2068 8099 c-21 -22 -18 -23 16 -8 14 7 23 16 20 20 -8 13 -17 10
-36 -12z"/>
<path d="M3291 7484 c0 -11 3 -14 6 -6 3 7 2 16 -1 19 -3 4 -6 -2 -5 -13z"/>
<path d="M3031 7249 c-6 -18 -9 -35 -6 -37 3 -3 5 0 5 6 0 6 7 18 16 27 11 11
13 20 7 26 -7 7 -14 0 -22 -22z"/>
<path d="M1948 7125 c6 -11 21 -29 34 -40 22 -19 22 -19 -2 10 -40 48 -43 51
-32 30z"/>
<path d="M2838 6873 c6 -2 12 -9 12 -14 0 -6 -4 -7 -10 -4 -5 3 -10 2 -10 -3
0 -17 13 -22 27 -11 10 9 10 15 2 25 -6 8 -17 14 -23 13 -7 0 -6 -2 2 -6z"/>
<path d="M1205 6694 c-33 -14 -93 -34 -134 -45 -40 -10 -94 -32 -120 -49 -71
-46 -143 -80 -173 -80 -14 0 -48 -9 -74 -20 -37 -16 -57 -19 -93 -13 -25 4
-49 6 -52 5 -8 -1 -159 -23 -177 -24 -6 -1 -10 -4 -7 -6 3 -3 -5 -10 -18 -16
-57 -29 -38 -223 29 -294 37 -39 61 -84 70 -130 5 -25 2 -31 -17 -38 -13 -4
-38 -6 -55 -5 -26 1 -33 -3 -38 -23 -7 -27 1 -56 15 -56 4 0 11 -16 15 -36 5
-27 3 -38 -11 -48 -13 -9 -16 -20 -11 -37 4 -13 9 -37 12 -54 3 -16 14 -49 25
-71 22 -49 50 -377 48 -565 0 -63 4 -168 9 -234 10 -118 9 -281 -2 -333 -3
-15 -8 -43 -11 -62 -3 -19 -13 -41 -23 -48 -20 -15 -107 -42 -138 -42 -29 0
-54 -10 -54 -22 0 -19 128 -67 225 -84 195 -35 584 -15 661 33 127 79 269 216
279 269 6 34 -9 984 -20 1209 -3 61 -7 198 -10 305 -8 291 -25 592 -35 618
-12 29 -39 28 -115 -4z"/>
<path d="M2375 6643 c31 -64 45 -115 50 -175 1 -14 9 -38 19 -52 17 -26 36
-35 36 -16 0 6 -4 10 -10 10 -15 0 -42 58 -29 65 12 8 4 54 -17 93 -13 25 -3
58 15 47 4 -2 5 9 3 26 -2 16 1 35 7 43 9 11 5 15 -20 20 -17 3 -44 6 -59 6
l-28 0 33 -67z"/>
<path d="M2470 6672 c0 -28 11 -34 32 -15 22 19 25 41 3 23 -10 -9 -15 -9 -15
-1 0 6 -4 11 -10 11 -5 0 -10 -8 -10 -18z"/>
<path d="M2460 6589 c0 -5 5 -7 10 -4 6 3 10 8 10 11 0 2 -4 4 -10 4 -5 0 -10
-5 -10 -11z"/>
<path d="M2486 6491 c-6 -49 -5 -65 5 -72 19 -11 20 -4 11 71 l-8 65 -8 -64z"/>
<path d="M2474 6236 c-3 -9 -3 -27 0 -41 7 -27 -12 -112 -29 -135 -7 -8 -18
-31 -25 -50 -21 -55 -42 -77 -82 -91 -21 -7 -61 -32 -89 -56 -28 -23 -56 -43
-63 -43 -7 0 -21 -9 -32 -21 -32 -36 -47 -39 -108 -23 -32 8 -61 13 -64 10 -3
-3 1 -6 8 -6 7 0 42 -14 76 -31 85 -41 291 -70 317 -45 7 7 19 15 27 19 9 3 6
6 -10 6 -24 1 -25 4 -23 53 1 29 2 63 2 76 1 13 14 35 30 50 16 15 36 50 45
78 9 28 30 73 47 99 17 26 30 55 30 64 -2 82 -6 96 -29 99 -13 2 -25 -3 -28
-12z"/>
<path d="M2410 6170 c0 -5 7 -10 16 -10 8 0 12 5 9 10 -3 6 -10 10 -16 10 -5
0 -9 -4 -9 -10z"/>
<path d="M1602 6110 c-28 -45 -37 -92 -23 -119 14 -25 61 -61 126 -95 l50 -26
8 22 c9 25 107 158 132 178 9 7 20 21 25 30 8 16 5 16 -36 9 -80 -15 -119 -28
-139 -46 -18 -16 -80 -43 -98 -43 -4 0 -5 11 -1 25 8 34 -12 32 -24 -2 l-10
-28 -1 33 c-1 18 4 42 10 53 19 37 2 45 -19 9z"/>
<path d="M1629 5857 c11 -14 11 -18 -3 -23 -11 -4 -15 -13 -10 -27 4 -11 7
-52 7 -91 0 -39 2 -59 4 -43 5 33 20 36 26 5 4 -21 11 62 8 89 -1 7 8 17 20
24 18 9 24 8 31 -5 5 -9 17 -16 26 -16 14 1 12 4 -7 21 -15 12 -31 17 -44 13
-21 -7 -43 16 -26 27 6 3 -2 14 -18 24 -24 16 -26 16 -14 2z"/>
<path d="M2455 5719 c-13 -6 -4 -7 30 -3 28 4 52 8 54 10 9 8 -65 2 -84 -7z"/>
<path d="M1730 5600 c0 -5 5 -10 10 -10 6 0 10 5 10 10 0 6 -4 10 -10 10 -5 0
-10 -4 -10 -10z"/>
<path d="M4470 5090 c0 -49 26 -96 45 -80 7 6 20 8 29 4 10 -4 16 -1 16 8 0
20 -47 86 -70 98 -18 10 -20 7 -20 -30z"/>
<path d="M5030 5109 c-9 -15 -9 -28 0 -49 16 -39 41 -46 62 -20 24 30 23 56
-4 74 -30 21 -45 20 -58 -5z"/>
<path d="M5375 5111 c-3 -5 1 -27 10 -48 8 -21 14 -51 12 -68 -2 -27 1 -30 28
-30 29 0 30 2 33 52 3 45 -1 56 -22 78 -26 26 -50 32 -61 16z"/>
<path d="M5620 5051 c0 -6 5 -13 10 -16 6 -3 10 1 10 9 0 9 -4 16 -10 16 -5 0
-10 -4 -10 -9z"/>
<path d="M5445 4878 c-203 -13 -301 -14 -355 -4 -44 7 -46 6 -67 -27 l-22 -35
52 -14 c38 -9 118 -12 302 -10 138 1 258 5 268 8 13 4 17 16 17 50 0 39 -2 44
-22 42 -13 -1 -90 -6 -173 -10z"/>
<path d="M5235 4616 c-5 -3 -22 -7 -37 -10 -21 -5 -30 -15 -39 -46 -14 -45
-17 -46 -61 -24 -17 9 -66 20 -107 24 -42 5 -87 11 -101 15 -21 5 -36 -4 -99
-65 -55 -54 -82 -73 -109 -77 -20 -4 -56 -20 -79 -37 -38 -26 -47 -29 -64 -18
-44 28 -73 -18 -85 -138 -3 -36 -12 -87 -20 -114 -26 -93 -16 -146 31 -146 31
-1 57 -24 43 -38 -7 -7 -17 -12 -24 -12 -21 0 -21 -22 -2 -61 10 -21 18 -44
18 -52 0 -23 32 -45 70 -49 29 -2 36 -7 38 -29 2 -14 -4 -31 -12 -39 -21 -17
-20 -33 2 -54 11 -9 25 -35 32 -59 19 -58 53 -110 86 -132 16 -10 37 -26 47
-36 31 -29 113 -67 169 -78 74 -16 115 -42 123 -81 10 -44 40 -53 185 -54 150
-1 190 6 233 43 17 16 50 34 72 41 22 6 52 17 68 23 l27 12 0 527 c0 509 -1
528 -19 528 -10 0 -29 9 -43 19 -25 20 -100 23 -159 7 -23 -7 -29 -3 -49 28
-12 20 -25 36 -30 36 -13 0 -20 30 -11 48 29 57 34 73 25 82 -10 9 -102 22
-119 16z m-509 -391 c-4 -14 -16 -35 -27 -46 -17 -17 -23 -19 -30 -8 -15 24
-10 45 17 74 30 32 50 22 40 -20z m-34 -165 c-6 -40 -23 -53 -56 -40 -18 6
-26 17 -26 33 0 32 7 37 50 37 35 0 36 -1 32 -30z m794 -175 c3 -8 -5 -34 -18
-57 -21 -38 -28 -43 -57 -41 -34 1 -81 29 -89 51 -5 16 87 61 126 62 20 0 35
-6 38 -15z"/>
<path d="M90 4350 c0 -4 12 -15 26 -25 20 -13 28 -14 40 -4 13 11 13 14 -3 23
-23 13 -63 17 -63 6z"/>
<path d="M3828 4272 c-51 -29 -65 -62 -26 -62 28 0 105 45 118 70 9 18 7 20
-17 20 -15 0 -49 -13 -75 -28z"/>
<path d="M4176 4181 c-54 -8 -86 -36 -86 -77 0 -29 16 -36 123 -54 97 -16 106
-10 83 56 -9 26 -16 56 -16 66 0 20 -15 21 -104 9z"/>
<path d="M1135 4124 c-88 -31 -221 -71 -295 -90 -174 -44 -173 -43 -130 -59
76 -29 577 -11 669 24 67 24 67 50 -3 124 -31 31 -61 57 -68 57 -7 0 -85 -25
-173 -56z"/>
<path d="M655 3485 c-16 -8 -39 -14 -51 -15 -11 0 -28 -6 -38 -13 -17 -13 -15
-17 28 -66 28 -32 46 -61 46 -77 0 -17 8 -27 25 -34 26 -10 75 -94 75 -130 0
-12 6 -33 14 -48 8 -15 31 -79 52 -142 23 -71 46 -123 61 -137 27 -26 31 -92
8 -133 -8 -14 -14 -52 -15 -87 0 -115 -33 -158 -156 -204 -87 -33 -131 -67
-120 -94 14 -38 104 -60 341 -81 77 -7 79 -7 50 -20 -16 -7 -64 -14 -105 -14
-54 -1 -69 -4 -55 -11 15 -6 7 -8 -30 -6 -40 2 -50 -1 -53 -15 -2 -12 8 -22
35 -33 25 -10 43 -26 51 -45 8 -17 21 -30 32 -30 9 0 35 -16 56 -35 21 -19 43
-35 48 -35 6 -1 20 -20 32 -43 17 -36 24 -42 48 -39 24 3 26 1 21 -21 -7 -26
9 -45 20 -26 7 10 48 -25 51 -43 1 -5 2 -11 3 -15 0 -3 9 1 20 11 18 16 51 13
51 -5 0 -5 6 -9 14 -9 16 0 17 -51 1 -62 -5 -4 -80 -8 -165 -8 -150 0 -180 -5
-180 -32 0 -11 217 -10 224 0 3 5 27 7 53 5 26 -2 116 -5 200 -8 84 -2 162 -6
173 -10 12 -4 27 -1 35 5 10 9 19 9 28 2 14 -11 102 -7 153 7 20 5 42 7 50 4
8 -3 35 -2 61 2 88 13 23 23 -165 24 -101 1 -188 4 -193 7 -14 9 13 53 35 56
13 2 23 12 26 28 3 14 18 49 33 79 29 56 29 74 2 51 -14 -12 -16 -10 -10 16 4
16 8 34 10 41 2 6 -3 19 -10 30 -8 10 -15 23 -15 30 0 6 -19 41 -42 77 -30 48
-53 71 -82 86 -23 11 -56 33 -74 49 l-32 30 -73 -34 c-87 -41 -187 -52 -187
-20 0 8 -6 15 -12 16 -7 1 -31 3 -53 5 -22 3 -61 6 -87 7 -65 3 -80 21 -85 98
-3 55 -1 60 15 54 34 -14 53 -14 58 -1 3 8 18 16 35 20 16 3 29 11 29 17 0 7
8 21 17 31 16 18 16 22 -1 66 -10 26 -26 75 -36 110 -10 35 -25 71 -34 81 -19
21 -23 117 -4 105 6 -4 8 -3 5 4 -4 5 -4 18 -1 27 6 15 9 14 20 -6 12 -22 13
-22 14 -4 0 11 6 28 13 37 24 30 -3 235 -49 375 -31 95 -33 98 -71 126 -17 12
-46 34 -64 48 -43 34 -85 42 -124 24z m415 -1274 c0 -6 -5 -13 -10 -16 -15 -9
-43 3 -35 15 8 13 45 13 45 1z m310 -443 c0 -3 -13 -9 -29 -13 -17 -4 -28 -11
-25 -18 3 -8 -11 -13 -41 -15 -46 -3 -56 6 -30 28 12 10 18 10 30 0 13 -10 15
-9 15 9 0 19 5 21 40 19 22 -2 40 -6 40 -10z"/>
<path d="M961 2884 c0 -11 3 -14 6 -6 3 7 2 16 -1 19 -3 4 -6 -2 -5 -13z"/>
<path d="M975 2830 c3 -5 13 -10 21 -10 8 0 12 5 9 10 -3 6 -13 10 -21 10 -8
0 -12 -4 -9 -10z"/>
<path d="M3568 2366 c-25 -18 -22 -43 7 -72 14 -14 25 -29 25 -34 0 -4 6 -10
13 -13 7 -3 -9 -24 -40 -54 -29 -27 -53 -54 -53 -60 0 -13 33 -55 69 -87 13
-11 35 -31 48 -43 14 -12 50 -27 80 -34 46 -11 61 -10 96 3 35 12 44 22 55 54
8 21 11 54 8 72 -2 17 -1 32 3 32 4 0 21 11 36 25 26 21 27 25 11 31 -13 5
-16 13 -11 33 4 19 3 22 -4 11 -6 -8 -13 -12 -16 -9 -6 7 25 70 40 81 6 5 6 8
-1 8 -7 0 -15 11 -18 25 -9 34 -57 45 -206 45 -88 -1 -130 -5 -142 -14z"/>
<path d="M4086 2321 c-3 -5 -15 -7 -26 -4 -32 9 -88 -6 -113 -30 -20 -19 -22
-25 -12 -45 13 -23 47 -62 107 -118 10 -11 32 -31 47 -46 40 -39 75 -49 135
-42 79 10 116 28 116 58 0 14 -4 27 -10 31 -6 4 -6 15 0 31 27 71 0 144 -54
144 -14 0 -28 5 -31 10 -4 6 -34 10 -69 9 -35 -1 -68 1 -74 5 -6 3 -13 2 -16
-3z"/>
<path d="M1640 1929 c0 -5 5 -7 10 -4 6 3 10 8 10 11 0 2 -4 4 -10 4 -5 0 -10
-5 -10 -11z"/>
<path d="M3285 1791 c-3 -5 -1 -12 5 -16 5 -3 10 1 10 9 0 18 -6 21 -15 7z"/>
<path d="M3265 1755 c-6 -9 -32 -18 -62 -22 -29 -3 -53 -9 -53 -12 0 -3 33 -7
74 -9 71 -3 102 8 73 25 -8 4 -16 14 -18 21 -3 9 -7 8 -14 -3z"/>
<path d="M556 1729 c4 -7 -8 -10 -37 -9 -79 5 -81 3 -74 -30 5 -24 3 -30 -10
-30 -14 0 -16 -6 -12 -29 4 -19 2 -31 -6 -35 -7 -2 -3 -5 8 -5 16 -1 21 5 20
26 0 19 8 31 27 42 15 9 29 13 32 10 3 -3 2 -28 -3 -57 -8 -53 -2 -71 37 -111
12 -13 12 -17 -4 -28 -10 -7 -21 -13 -26 -13 -19 0 -5 -18 26 -33 61 -29 195
-47 426 -57 124 -5 236 -13 249 -16 13 -4 60 -2 105 5 55 8 404 15 1076 21
777 7 1021 12 1115 24 66 8 146 15 178 15 81 1 194 -32 231 -68 17 -16 40 -33
51 -39 39 -20 170 -41 214 -35 40 5 42 7 26 20 -11 7 -27 13 -36 13 -15 0 -16
5 -8 35 11 38 6 55 -16 55 -8 0 -16 4 -19 8 -3 5 23 6 57 4 182 -13 356 -13
432 1 l80 15 -130 3 c-71 1 -227 3 -345 4 -170 1 -225 5 -264 18 -46 15 -51
15 -80 -1 -27 -15 -62 -17 -261 -16 -126 0 -247 4 -267 8 -40 9 -52 26 -18 26
26 0 26 16 0 30 -11 6 -18 15 -15 21 4 5 -9 9 -29 9 -19 0 -38 -4 -41 -10 -3
-5 2 -10 13 -10 10 0 24 -11 30 -25 10 -22 9 -25 -14 -31 -33 -8 -43 3 -13 15
23 9 22 10 -8 10 -23 1 -33 -4 -33 -14 0 -15 -76 -22 -195 -17 -27 1 -141 3
-253 5 -167 2 -205 5 -213 17 -9 13 -10 12 -5 -2 7 -22 -19 -25 -27 -4 -4 11
-14 12 -41 6 -40 -9 -55 2 -36 25 10 12 10 15 -2 15 -7 0 -19 -14 -25 -31 -11
-27 -15 -30 -28 -19 -14 12 -14 15 0 30 21 23 19 28 -12 24 -16 -2 -43 -5 -61
-6 -20 -1 -28 -4 -20 -9 19 -12 6 -19 -57 -34 -54 -12 -58 -12 -62 6 -3 10
-10 19 -15 19 -6 0 -7 11 -4 25 4 14 2 25 -4 25 -5 0 -10 -4 -10 -10 0 -5 -9
-10 -20 -10 -13 0 -20 -7 -20 -20 0 -10 -9 -24 -21 -30 -17 -10 -21 -8 -26 9
-3 12 -9 21 -14 21 -5 0 -6 -7 -3 -15 4 -8 1 -15 -4 -15 -6 0 -14 9 -17 20 -6
17 -14 20 -60 17 -30 -2 -57 -6 -61 -9 -3 -4 -12 -4 -20 -1 -17 6 -18 -9 -2
-25 21 -21 0 -26 -102 -27 -85 -1 -100 2 -100 15 0 9 5 21 11 27 6 6 8 16 4
23 -11 17 -45 -18 -42 -44 2 -20 -3 -21 -78 -22 -44 -1 -85 3 -92 8 -7 5 -14
5 -18 -2 -3 -5 -29 -10 -57 -10 -40 0 -49 3 -44 15 3 8 1 15 -4 15 -6 0 -10
-7 -10 -15 0 -12 -32 -13 -212 -10 -235 4 -267 7 -280 27 -8 10 -11 10 -15 1
-7 -19 -33 -15 -33 5 0 15 -12 17 -113 18 l-112 0 -3 29 c-2 15 2 31 9 36 8 5
13 24 12 48 -1 22 2 43 7 46 16 10 110 14 105 5 -3 -5 -1 -11 5 -15 5 -3 10 1
10 9 0 9 8 17 18 17 9 1 32 3 50 5 40 3 50 10 34 26 -8 8 -15 8 -26 -1 -10 -8
-16 -9 -21 -1 -3 6 -12 7 -18 3 -14 -9 -48 -5 -63 8 -6 5 -18 7 -27 3 -8 -3
-24 -1 -35 5 -15 8 -23 7 -32 -4 -16 -19 -30 -19 -30 -1 0 8 -7 17 -16 20 -9
4 -13 2 -8 -5z m0 -176 c-10 -10 -19 5 -10 18 6 11 8 11 12 0 2 -7 1 -15 -2
-18z"/>
<path d="M3335 1730 c-3 -5 3 -10 14 -10 12 0 21 5 21 10 0 6 -6 10 -14 10 -8
0 -18 -4 -21 -10z"/>
<path d="M2596 1722 c-2 -1 -44 -3 -94 -3 -51 -1 -92 -6 -92 -10 0 -5 39 -9
88 -9 48 0 93 -4 101 -9 10 -6 24 -5 42 4 14 8 29 12 32 9 5 -5 75 -5 259 -1
43 1 82 7 89 14 8 8 -46 10 -206 9 -119 0 -218 -2 -219 -4z"/>
<path d="M3045 1720 c3 -5 17 -10 31 -10 13 0 24 5 24 10 0 6 -14 10 -31 10
-17 0 -28 -4 -24 -10z"/>
<path d="M1920 1710 l-25 -8 28 -2 c29 -2 112 -3 149 -1 12 1 19 4 16 7 -10
10 -142 13 -168 4z"/>
<path d="M2115 1710 c-3 -5 3 -10 14 -10 11 0 23 5 26 10 3 6 -3 10 -14 10
-11 0 -23 -4 -26 -10z"/>
<path d="M2175 1710 c-3 -5 -1 -10 4 -10 6 0 11 5 11 10 0 6 -2 10 -4 10 -3 0
-8 -4 -11 -10z"/>
<path d="M2230 1708 c0 -9 3 -9 99 -11 42 -1 66 2 68 10 3 9 -19 11 -81 10
-47 0 -86 -5 -86 -9z"/>
<path d="M2480 1614 c0 -8 5 -12 10 -9 6 4 8 11 5 16 -9 14 -15 11 -15 -7z"/>
<path d="M881 1568 l-22 -22 22 -8 c24 -9 39 -3 39 18 0 8 5 14 10 14 6 0 10
-6 10 -13 0 -7 9 -18 19 -24 16 -10 20 -9 25 3 3 8 10 12 16 9 5 -3 10 -2 10
4 0 9 -30 23 -60 26 -8 2 -22 6 -31 9 -11 5 -24 -1 -38 -16z"/>
<path d="M1175 1530 c-3 -5 -1 -10 4 -10 6 0 11 5 11 10 0 6 -2 10 -4 10 -3 0
-8 -4 -11 -10z"/>
<path d="M1030 1520 c0 -5 5 -10 11 -10 5 0 7 5 4 10 -3 6 -8 10 -11 10 -2 0
-4 -4 -4 -10z"/>
<path d="M2554 1515 c-19 -14 -18 -14 4 -15 13 0 22 6 22 15 0 19 -1 19 -26 0z"/>
<path d="M2660 1496 c0 -11 9 -16 26 -16 31 0 28 23 -4 28 -15 2 -22 -2 -22
-12z"/>
<path d="M1160 1480 c0 -5 5 -10 10 -10 6 0 10 5 10 10 0 6 -4 10 -10 10 -5 0
-10 -4 -10 -10z"/>
<path d="M1756 1481 c-3 -5 4 -11 16 -14 25 -7 33 -3 23 12 -8 13 -32 14 -39
2z"/>
<path d="M2746 1480 c7 -7 19 -7 35 -1 23 9 22 10 -10 10 -24 1 -32 -2 -25 -9z"/>
<path d="M4975 1440 c-27 -5 -92 -9 -144 -9 -104 -1 -120 -9 -26 -12 33 -1 93
-10 134 -20 40 -10 77 -16 82 -13 5 3 9 -11 9 -31 0 -26 7 -43 27 -61 26 -24
34 -26 110 -22 50 2 87 8 95 16 20 20 13 101 -10 124 -31 32 -165 45 -277 28z"/>
<path d="M4625 1324 c-5 -1 -22 -5 -37 -8 -18 -4 -35 -20 -50 -46 -19 -33 -28
-40 -54 -40 -51 0 -78 -29 -76 -80 l2 -44 -27 27 c-68 64 -180 86 -227 45 -41
-37 -43 -70 -7 -111 74 -84 291 -119 291 -46 0 18 4 20 33 14 17 -4 48 -14 67
-22 44 -18 175 -29 183 -16 4 6 -5 22 -20 37 -20 21 -22 26 -9 26 9 0 35 9 57
21 l40 20 34 -29 c66 -59 243 -103 277 -69 12 12 23 14 54 7 49 -12 115 -12
132 -1 18 11 6 72 -22 113 -31 46 -65 67 -118 74 -44 6 -50 4 -77 -25 l-29
-31 -51 33 c-27 18 -75 42 -105 52 -50 17 -56 17 -87 2 -35 -17 -49 -10 -49
24 0 34 -84 83 -125 73z m-142 -149 c-13 -10 -21 -10 -35 -1 -17 10 -17 11 4
17 35 9 52 -1 31 -16z m47 -6 c0 -5 -4 -9 -10 -9 -5 0 -10 7 -10 16 0 8 5 12
10 9 6 -3 10 -10 10 -16z m303 -26 c-7 -17 5 -17 23 2 17 17 34 20 34 6 0 -5
-7 -14 -15 -21 -17 -14 -51 -8 -80 14 -17 13 -18 17 -6 25 18 12 51 -8 44 -26z
m-638 -3 c-1 -22 -15 -41 -15 -21 0 7 -4 9 -10 6 -5 -3 -10 0 -10 9 0 13 12
23 31 25 3 1 5 -8 4 -19z m920 0 c-3 -5 -10 -10 -16 -10 -5 0 -9 5 -9 10 0 6
7 10 16 10 8 0 12 -4 9 -10z m-895 -34 c0 -2 -7 -7 -16 -10 -8 -3 -12 -2 -9 4
6 10 25 14 25 6z m210 -37 c0 -6 -4 -7 -10 -4 -5 3 -10 11 -10 16 0 6 5 7 10
4 6 -3 10 -11 10 -16z"/>
<path d="M3332 1260 c-86 -50 -90 -104 -11 -157 74 -50 103 -63 146 -63 49 0
78 11 117 43 22 19 27 29 21 47 -6 18 -9 20 -16 9 -7 -12 -9 -12 -9 0 0 7 -6
11 -12 8 -10 -3 -12 7 -10 37 3 36 -1 44 -30 67 -22 17 -51 28 -88 33 -49 6
-60 3 -108 -24z"/>
<path d="M3605 950 c-4 -6 -20 -8 -41 -4 -50 9 -88 -11 -136 -73 l-42 -55 31
-27 c72 -61 75 -63 135 -59 42 3 67 12 98 33 41 28 58 50 47 61 -10 10 -62 11
-74 2 -17 -14 -16 -3 3 33 8 17 14 44 12 61 -3 32 -21 47 -33 28z m-55 -40 c0
-5 -5 -10 -11 -10 -5 0 -7 5 -4 10 3 6 8 10 11 10 2 0 4 -4 4 -10z"/>
<path d="M4672 650 c-70 -43 -64 -99 17 -172 70 -62 121 -82 194 -73 80 9 99
19 95 53 -2 19 -14 33 -40 47 -33 18 -37 24 -40 65 -3 43 -6 46 -53 72 -62 34
-126 37 -173 8z m19 -101 c19 -16 20 -19 6 -15 -10 3 -25 6 -32 6 -7 0 -15 7
-19 15 -8 22 18 19 45 -6z"/>
<path d="M1522 609 c2 -7 10 -15 17 -17 8 -3 12 1 9 9 -2 7 -10 15 -17 17 -8
3 -12 -1 -9 -9z"/>
<path d="M3020 454 c-70 -23 -109 -49 -116 -76 -5 -25 0 -36 27 -65 71 -74
162 -93 254 -53 55 24 58 50 7 65 -26 7 -32 14 -28 30 3 11 8 32 11 46 6 23 2
29 -26 43 -30 15 -96 20 -129 10z"/>
<path d="M2573 427 c-41 -15 -65 -37 -40 -37 18 0 22 -17 8 -39 -5 -8 -18 -12
-30 -8 -26 7 -27 -8 -1 -50 28 -46 82 -61 163 -44 73 15 117 36 117 56 0 8 -4
15 -10 15 -5 0 -10 12 -10 28 0 30 -24 64 -57 81 -28 14 -98 13 -140 -2z"/>
</g>
</svg>
