<?xml version="1.0" standalone="yes"?>
<svg width="323" height="484">
<path style="fill:#403f3b; stroke:none;" d="M0 0L0 39L21 36L17 0L0 0z"/>
<path style="fill:#60697a; stroke:none;" d="M17 0L19 18L20 18L19 0L17 0z"/>
<path style="fill:#bfd0ec; stroke:none;" d="M19 0L25 35L26 35L22 0L19 0z"/>
<path style="fill:#e0e6fc; stroke:none;" d="M22 0L26 35L20 37L46 33L46 27L40 26C40.4014 20.3703 43.4499 4.27676 37.4275 0.858032C33.5164 -1.36215 26.3763 0 22 0z"/>
<path style="fill:#c7d5f2; stroke:none;" d="M38 0L40 26L46 27L46 32L53 32L46.0123 23.8673L43 0L38 0z"/>
<path style="fill:#92a2c6; stroke:none;" d="M43 0C43.02 7.25375 41.7916 24.5085 50 27L50 26C44.6802 20.729 49.9401 7.23959 50 0L43 0z"/>
<path style="fill:#67738b; stroke:none;" d="M50 0C49.7994 9.71957 42.1528 26.7625 55 31L55 30L53 6L55 6L56 11L57 11L56 0L50 0z"/>
<path style="fill:#59535f; stroke:none;" d="M56 0L57 11L56 11L55 6L53 6L53 30C58.8719 27.8632 63.7265 25.295 70 24.2469C72.4624 23.8355 77.2655 23.9229 79.1096 22.0062C81.6283 19.3881 76.4922 18.239 75 18L75 17L80 13L63 16L63 11C58.921 8.50455 59.0374 4.45453 59 0L56 0z"/>
<path style="fill:#8d818f; stroke:none;" d="M59 0C59.0029 4.25531 58.19 9.59299 63 11L63 16C72.2483 15.9673 74.377 8.60452 73 0L59 0z"/>
<path style="fill:#706875; stroke:none;" d="M73 0L72 13L80 13L88 0L73 0z"/>
<path style="fill:#795a57; stroke:none;" d="M88 0L80 14C93.2965 6.89563 100.965 12.6123 114.91 11.7778C119.642 11.4946 124.193 8.11053 129 7.32483C142.214 5.16504 154.965 3.57956 168 1L143 0L88 0z"/>
<path style="fill:#925948; stroke:none;" d="M102 10L103 16L96 18L96 19L123 21.625L187 16L187 14L176 14L176 12L188 5L178 0C169.58 0.000915527 163.812 2.99503 155.961 4.70142C146.923 6.66559 137.126 5.83307 128 7.32483C118.074 8.94733 112.475 12.4952 102 10z"/>
<path style="fill:#3d3437; stroke:none;" d="M178 0C179.286 4.39624 184.055 3.99106 188 5L176 12L176 14C188.872 14 200.495 11.027 213 10.0903C244.139 7.75766 275.241 11.1187 305.285 18.544C311.49 20.0773 316.828 19.5871 323 22L323 4C311.361 6.74405 280.682 17.114 273 3L281 4L282 0L178 0z"/>
<path style="fill:#362921; stroke:none;" d="M282 0L281 4L273 3C274.696 8.1767 281.009 9.33151 286 9.82947C297.761 11.0028 311.898 8.00046 323 4L323 0L282 0z"/>
<path style="fill:#6e4533; stroke:none;" d="M75 17L75 18C80.885 19.6174 79.3517 22.6306 74 23L79.0193 26.2639L91 21.5988L106 20L106 19L96 19L96 18L103 16C100.339 -0.346222 82.2044 14.5023 75 17z"/>
<path style="fill:#4a4c59; stroke:none;" d="M184 16L184 17L222 11.0934L271 13.4283L323 24C319.211 17.6463 313.302 19.8428 307.09 18.7407C299.588 17.41 292.727 14.3618 285 13.9614C251.543 12.2276 216.857 4.26459 184 16z"/>
<path style="fill:#4f5c6d; stroke:none;" d="M215 11L215 12C221.924 12.0191 228.166 14.4315 235 14.9105C265.172 17.0253 293.601 21.3543 323 28L323 24C286.82 16.9797 252.018 11 215 11z"/>
<path style="fill:#717f9a; stroke:none;" d="M164 19L164 20C174.069 19.9167 184.306 17.197 193 24L217 14.0903L246.004 22.152L294 28.8187L309 35C309.253 42.6929 315.879 45.9157 323 46L323 28C296.129 18.4439 265.347 16.213 237 14.9606C229.473 14.6281 222.643 11.518 215.001 12.0903C208.731 12.5598 204.033 17.1268 197.961 17.8704C185.717 19.3696 176.285 14.4959 164 19z"/>
<path style="fill:#8694ae; stroke:none;" d="M193 24C190.604 21.257 185.556 21.5082 182 21.1698C171.177 20.1398 157.391 20.9286 147 24L147 25L153 28L151 24L180 24.2639L211 34L211 37L256 45L256 48L263 48C265.441 55.5577 273.042 52.8753 279 52C279.278 68.1559 301.025 64.6914 311.181 59.5625C315.517 57.3728 318.02 54.0843 323 53L323 46C316.359 45.7847 309.539 42.0652 309 35C293.558 27.0002 279.443 30.1409 263 26.1528C247.675 22.4358 231.15 12.3405 215 14.1744C206.788 15.1069 200.91 21.8643 193 24z"/>
<path style="fill:#94a3c4; stroke:none;" d="M20 19L21 36C27.8878 33.2221 23.4626 23.3458 20 19z"/>
<path style="fill:#966f68; stroke:none;" d="M115 21L115 22L126 26C129.866 19.382 156.214 20.2251 164 20L150 19.9606L115 21z"/>
<path style="fill:#877e91; stroke:none;" d="M126 25L139 24L138 27L151 28L151 27L147 25L147 24C159.802 20.9522 173.982 20.3549 187 22C184.109 18.2024 178.422 18.787 174 19.0895C162.517 19.8752 151.528 22 140 22C135.269 22 129.012 20.737 126 25z"/>
<path style="fill:#bf855f; stroke:none;" d="M90 21L90 22L112 21L90 21z"/>
<path style="fill:#e8bb92; stroke:none;" d="M80 26L80 27L105 24L104 26L116 26C114.383 16.3084 86.312 22.1125 80 26z"/>
<path style="fill:#d6c6b7; stroke:none;" d="M116 23C113.385 27.0329 108.386 26 104 26C105.852 34.4855 120.032 32.6836 116 23z"/>
<path style="fill:#9297ab; stroke:none;" d="M117 23C116.81 29.3478 114.149 32.3986 108 34C110.704 38.1677 114.667 36.2948 119 36.1042C129.609 35.6376 134.299 34.762 139 24C131.078 24.0218 124.275 26.982 117 23z"/>
<path style="fill:#967667; stroke:none;" d="M68 24L68 25L74 25L68 24z"/>
<path style="fill:#feeedf; stroke:none;" d="M0 39L0 65C6.18771 62.0118 14.8776 57.2126 16 50L44 50L43 53L71 52L73 46L71 47L71 46C73.5432 39.7725 79.8585 40.2799 83 46C95.7877 45.9986 98.2289 42.3901 104 32L104 31L105 24L87 24.7253L73.9606 30.2963L0 39z"/>
<path style="fill:#e7e9b7; stroke:none;" d="M130 34L132 36L132 37C128.765 41.821 131.143 46.1234 133 51L134 51L133 36L135 36L139 39L136 37C136.68 34.2818 136.381 29.4955 140 31L146 31L147 26C138.635 22.6254 136.571 31.9336 130 34z"/>
<path style="fill:#93a2b9; stroke:none;" d="M151 24L164 39L167 38L169.183 67.8712L164 75L170 74L169 80C175.762 74.9142 185.928 62.0844 196 67C199.322 63.035 203.59 59.4734 209 61C217.324 54.8755 222.985 62.0995 232 60L248 70L251 69L254 77C265.211 83.3913 256.361 87.9565 255 96L240 95.6435L231.09 91.8549L222 92L223 88L220 89C219.015 84.0739 206.161 91.3576 208 84L193 90C195.553 98.4913 202.988 106.576 212 106.961C216.634 107.158 222.609 104.974 226.981 106.607C236.221 110.059 226.671 125.73 240.09 127.643C244.993 128.341 250.761 123.208 255 121.164C268.957 114.431 285.117 99.3822 301 99L302 103C308.142 100.175 312.904 94.6795 320 96L323 94L323 79L307 75L307 74L323 71L323 53C317.441 53.6991 315.105 57.2473 310.381 59.5625C299.902 64.6987 280.516 67.4531 279 52C272.659 52.5487 266.631 54.7662 263 48L256 48L256 45L211 37L211 34L181.996 24.4745L151 24z"/>
<path style="fill:#cdad94; stroke:none;" d="M55 31C62.681 30.9364 73.4844 32.0164 80 28C73.0614 23.4207 59.5529 22.9782 55 31z"/>
<path style="fill:#626c85; stroke:none;" d="M21 27L21 35L22 35L21 27z"/>
<path style="fill:#c1c4d7; stroke:none;" d="M102 27L104 31L104 32C97.0028 40.8783 96.0783 45.9914 83 46C80.6399 38.8603 71.8651 39.3523 71 47L73 46L71 52L43 53L44 50L16 50C12.8214 61.2293 0.0104061 60.533 0 74C10.5955 73.9708 25.2327 68.9429 33 78L34 75L74.9606 67.6906L89.9853 62.3542L104 66L104 65L100 64L100 58L131 47L132 36C125.703 36.6659 112.501 38.5431 108 34L114 33L114 32L102 27z"/>
<path style="fill:#bece6b; stroke:none;" d="M145 27L146 31L138 29L138 34L145 36L146 33L147 33L149 37L150 33L149 27L145 27z"/>
<path style="fill:#bfc9b1; stroke:none;" d="M149 28L149 29L157 30L149 28z"/>
<path style="fill:#d7e18a; stroke:none;" d="M137 29L136 37L139 41L132 38L131 52C131.799 56.1174 132.904 58.5205 129 61L135 66L135 63L141 65C141.005 59 141.144 54.0032 147 51L149 60L150 60L153 58L153 57L151 56L151 55L156 47L149 56L148 56C149.042 48.2115 153.749 46.1132 161 47L161 33L150 31C151.954 33.9537 153.752 34.2853 157 33L156 36L159 38L149 44L148 44C148.784 38.9697 151.339 38.6196 156 39C153.728 35.4989 150.774 36.114 147 37L147 33L146 33L145 36C142.935 33.1414 141.337 33.0973 138 34L137 29z"/>
<path style="fill:#838e32; stroke:none;" d="M149 29L155 32L149 29z"/>
<path style="fill:#e7e8bc; stroke:none;" d="M156 30L156 31L161 33L156 30z"/>
<path style="fill:#828f33; stroke:none;" d="M148 36L149 36L154 35C151.513 32.8257 148.793 32.299 148 36z"/>
<path style="fill:#c1cd69; stroke:none;" d="M155 33L149 34L156 39L150 38C151.034 42.8653 157.068 41.7733 159 38L156 36L157 33L155 33z"/>
<path style="fill:#e6ec94; stroke:none;" d="M161 33L161 47C153.55 44.9983 148.531 48.0966 148 56L149 56L156 47C154.687 49.5819 149.948 55.3042 153 57L153 58L150 60L149 60L146 54C141.323 63.7325 147.716 74.2115 152 83L153 83L155 77L153 78L167 62L170 63L167 38L164 39L161 33z"/>
<path style="fill:#7d8146; stroke:none;" d="M160 34L161 38L162 38L160 34z"/>
<path style="fill:#97a15a; stroke:none;" d="M133 36L133 38L135 38L135 36L133 36z"/>
<path style="fill:#beaa87; stroke:none;" d="M8 37L8 38L13 38L8 37z"/>
<path style="fill:#819035; stroke:none;" d="M140.667 38.3333L141.333 38.6667L140.667 38.3333z"/>
<path style="fill:#5a620f; stroke:none;" d="M137 39L137 41L139 41L137 39z"/>
<path style="fill:#748328; stroke:none;" d="M148 39L148 44L149 44L150 39L148 39z"/>
<path style="fill:#7e872e; stroke:none;" d="M140 46L140 47L143 47L140 46z"/>
<path style="fill:#f3e0da; stroke:none;" d="M100 58L100 64C108.711 67.0919 120.09 67.6758 128.556 62.6057C131.829 60.6461 135.469 49.7125 130.677 47.8318C122.835 44.7531 108.531 57.4341 100 58z"/>
<path style="fill:#7d8c4b; stroke:none;" d="M145 65L147 51C140.532 52.9967 140.11 60.8386 145 65z"/>
<path style="fill:#e8f0a7; stroke:none;" d="M212 58L212 59L216 59L217 65L226 63C223.316 58.1068 217.216 56.5033 212 58z"/>
<path style="fill:#b1c06b; stroke:none;" d="M141 59L141 64L142 64L141 59z"/>
<path style="fill:#647411; stroke:none;" d="M142 59C141.096 68.3264 139.48 73.4294 144 82C152.041 77.5663 144.907 65.2368 142 59z"/>
<path style="fill:#e0eea3; stroke:none;" d="M196 67C190.405 63.2539 175.872 69.7725 174 76C179.013 76 174.584 82.2272 174 85L198.425 66.0579L209 62L209 61L208 59C202.96 60.6288 198.707 62.254 196 67z"/>
<path style="fill:#cadaa9; stroke:none;" d="M209 61L212 59L209 61z"/>
<path style="fill:#b3c466; stroke:none;" d="M212 59L211 64L214 59L212 59z"/>
<path style="fill:#d4e18f; stroke:none;" d="M214 59C213.279 61.4893 212.559 63.7916 210 62L209 66L216 66L214 70C219.525 69.7627 224.734 67.6443 229 72L222 75L222 72L221 72L218 77C227.783 77 238.101 73.0661 247 78L248 78L249 76L256 76L251 69L229 75L234 70L234 63L233 63L230 69L232 64L229 67L223 67L223 66L228 65L228 61L220 64L217 68L216 59L214 59z"/>
<path style="fill:#fcfdb9; stroke:none;" d="M228 63L232 60L228 63z"/>
<path style="fill:#74752f; stroke:none;" d="M151 65L158 61L151 65z"/>
<path style="fill:#5f7020; stroke:none;" d="M208 63L211 61L208 63z"/>
<path style="fill:#a0abbd; stroke:none;" d="M79 67L91.4244 65.5447L106 71C99.395 64.8048 86.2742 56.3805 79 67z"/>
<path style="fill:#c9ad97; stroke:none;" d="M129 62C120.961 66.2953 110.862 66.6984 102 66C105.594 75.159 114.24 67.7241 120.91 69.1636C126.208 70.3069 128.127 74.5952 134 73L129 67L129 62z"/>
<path style="fill:#aeb363; stroke:none;" d="M158 62L160 65L158 62z"/>
<path style="fill:#a8b371; stroke:none;" d="M167.667 62.3333L168.333 62.6667L167.667 62.3333z"/>
<path style="fill:#828770; stroke:none;" d="M207 62L205 66L208 65L208 66L204 68L203 72L206 73L206 68C209.02 66.1765 209.333 64.6535 207 62z"/>
<path style="fill:#676b38; stroke:none;" d="M229 63L229 64L233 62L229 63z"/>
<path style="fill:#7c8d2d; stroke:none;" d="M135 63L135 66L130 65L130 66L141 78L141 65L135 63z"/>
<path style="fill:#697217; stroke:none;" d="M162 69L169 70L169 63L162 69z"/>
<path style="fill:#9ea94d; stroke:none;" d="M228 63L223 66L223 67L229 67L228 63z"/>
<path style="fill:#ebf8a9; stroke:none;" d="M234 63L233 69C237.012 69.1448 238.958 67.391 241 64L234 63z"/>
<path style="fill:#9794a5; stroke:none;" d="M43 77L43 79L48 80L58 75.8889L93 66L79.0394 66.7508L43 77z"/>
<path style="fill:#b3c08a; stroke:none;" d="M199 64L200 68L194 72L203 64L199 64z"/>
<path style="fill:#3d4900; stroke:none;" d="M232 64L230 69L232 64z"/>
<path style="fill:#b6b354; stroke:none;" d="M150 67L153 65L150 67z"/>
<path style="fill:#b2b759; stroke:none;" d="M154 67L157 65L154 67z"/>
<path style="fill:#6c7465; stroke:none;" d="M198 65L192 78L200 70L194 72C196.199 69.6111 199.993 68.3227 198 65z"/>
<path style="fill:#5e6f4d; stroke:none;" d="M200 70L208 66C204.065 64.5119 201.879 66.6173 200 70z"/>
<path style="fill:#67742f; stroke:none;" d="M206 68C206.386 71.3764 207.477 76.4363 212 76.5C214.894 76.5408 221.206 68.843 222 75L229 72C225.8 67.0645 219.028 69.6031 214 70L216 66L206 68z"/>
<path style="fill:#5e6b0f; stroke:none;" d="M217 68L221 65L217 68z"/>
<path style="fill:#9ca85c; stroke:none;" d="M235 73L245 66C239.71 65.0549 236.391 67.9129 235 73z"/>
<path style="fill:#dbedaf; stroke:none;" d="M244 65L237 72L245 68L248 70L244 65z"/>
<path style="fill:#645f5c; stroke:none;" d="M82 68L82 69L122 75L120 68L82 68z"/>
<path style="fill:#dfdc99; stroke:none;" d="M129 66L129 67L133 74L144 84L143 89L147 86C145.304 81.9287 143.541 78.7783 139 78C138.144 72.352 134.557 67.5927 129 66z"/>
<path style="fill:#929b30; stroke:none;" d="M156 71L159 69L160 69L169 71L169 70L162 69L163 66L156 71z"/>
<path style="fill:#8ea147; stroke:none;" d="M245 68L242 72L245 72L245 68z"/>
<path style="fill:#c8d482; stroke:none;" d="M77 69L77 72L72 72L72 73L81 77L92 76C91.2708 72.5972 89.1942 73.0135 86 73C84.7689 68.7914 80.8984 69.0476 77 69z"/>
<path style="fill:#dcea95; stroke:none;" d="M86 73L92 76C87.7023 74.8282 84.6683 74.1506 81 77C75.7801 70.8341 69.9125 74.5497 64 78L81 79.51L103 95L82 88L84 91L68 90L68 91L121 104.099L141 109L148 110L150 106L137 94C142.612 78.0974 113.861 73 103 73L103 75L116 78L116 80L106 78L114 82L114 83L99 79L103 84L92 78L102 77C99.2424 71.9677 89.0374 63.9082 86 73z"/>
<path style="fill:#a5968f; stroke:none;" d="M120 69L120 75L120 76L128 74L128 72L120 69z"/>
<path style="fill:#c4c164; stroke:none;" d="M159 69L153 78L154 78L161 70L159 69z"/>
<path style="fill:#d2d8aa; stroke:none;" d="M200 74L205 70C201.526 69.6591 199.935 70.3786 200 74z"/>
<path style="fill:#777276; stroke:none;" d="M47 78L47 79L62 80L60 76L77 72L77 70L47 78z"/>
<path style="fill:#fcfeb3; stroke:none;" d="M153 85L167 70C157.616 70.8879 154.125 75.7752 153 85z"/>
<path style="fill:#535f13; stroke:none;" d="M230 74L236 72C233.005 69.8317 231.155 70.5245 230 74z"/>
<path style="fill:#4a5801; stroke:none;" d="M237 72L237 73L242 70L237 72z"/>
<path style="fill:#4e6316; stroke:none;" d="M245 72L248 70L245 72z"/>
<path style="fill:#afabac; stroke:none;" d="M34 75L34 78L45 80L45 79L43 77L59 72L34 75z"/>
<path style="fill:#6f7e93; stroke:none;" d="M307 74L307 75L323 79L323 71L307 74z"/>
<path style="fill:#95a34b; stroke:none;" d="M176 75L179 72L176 75z"/>
<path style="fill:#9fa859; stroke:none;" d="M190 75L192 72L190 75z"/>
<path style="fill:#9bb39d; stroke:none;" d="M195 75L198 72L195 75z"/>
<path style="fill:#56531e; stroke:none;" d="M199 76L205 72L199 76z"/>
<path style="fill:#fff2d0; stroke:none;" d="M186 91L176 97L187 94L187 95L182 100L189 98C189.485 88.6987 202.862 84.7105 211 84L211 83L201 81L201 77L208 76L207 72C199.537 75.4685 188.453 82.8173 186 91z"/>
<path style="fill:#5b6818; stroke:none;" d="M218 72L212 78L215 79L212 82C219.653 82.0008 224.93 82.7737 230 89L231 89L231 85L242 85L242 84L232 83L232 82L238 82L238 81L234 80L234 79L240 79L247 78L247 77L218 77L218 72z"/>
<path style="fill:#fcfcf0; stroke:none;" d="M0 74L0 107L42 100.406L57 96L58 96L62 100L62 99L62 94L54.4174 85.0278L33 84L27 74L0 74z"/>
<path style="fill:#edd9c1; stroke:none;" d="M22 73L22 74L27 74L33 84C42.0026 84 50.4459 82.5608 58 88L64 81L73 74L51 81.963L36.1883 80.0625L22 73z"/>
<path style="fill:#bece6b; stroke:none;" d="M100 73L102 77L95 78L95 79L105 80L116 80L116 78L100 73z"/>
<path style="fill:#617725; stroke:none;" d="M191 75L187 77L190 76L192 78L193 73L191 75z"/>
<path style="fill:#929a8d; stroke:none;" d="M199 73L191 78L192 81L183 88L191 86L199 73z"/>
<path style="fill:#9aa853; stroke:none;" d="M229 73L229 75L231 75L229 73z"/>
<path style="fill:#788830; stroke:none;" d="M246.333 73.6667L246.667 74.3333L246.333 73.6667z"/>
<path style="fill:#a8b65e; stroke:none;" d="M93 74L96 76L93 74z"/>
<path style="fill:#f6f7bb; stroke:none;" d="M125 78L136 85L133 81L133 80L141 83C139.181 76.8909 128.227 68.8226 125 78z"/>
<path style="fill:#7b887f; stroke:none;" d="M162 76L163 80L169 80L170 74L162 76z"/>
<path style="fill:#aac159; stroke:none;" d="M183 78L188 74L183 78z"/>
<path style="fill:#5c584f; stroke:none;" d="M60 78L65 76L60 78z"/>
<path style="fill:#969d59; stroke:none;" d="M175 75L174 78L176 80L177 80L175 75z"/>
<path style="fill:#b0b267; stroke:none;" d="M208 75L209 77L208 77L203 77L203 78L206 80L210 79L208 75z"/>
<path style="fill:#8fa042; stroke:none;" d="M85 76L85 77L88 77L85 76z"/>
<path style="fill:#a3a53a; stroke:none;" d="M148 76L145 82L145 83L151 87L148 76z"/>
<path style="fill:#eef1b8; stroke:none;" d="M173 76L170 80L174 81L173 76z"/>
<path style="fill:#77925f; stroke:none;" d="M189 76L181 87L192 81L189 76z"/>
<path style="fill:#484816; stroke:none;" d="M207.667 76.3333L208.333 76.6667L207.667 76.3333z"/>
<path style="fill:#dfe399; stroke:none;" d="M210 76L210 81L215 80L215 79L211 79L212 76L210 76z"/>
<path style="fill:#c2d770; stroke:none;" d="M249 76L232 82L232 83C237.47 83.9516 251.047 88.5185 255 84L259 85L253 83L250 80L249 76z"/>
<path style="fill:#5b6a0f; stroke:none;" d="M85 77L85 78L91 79L85 77z"/>
<path style="fill:#657934; stroke:none;" d="M176 84L179 82L180 82L170 98C176.881 96.4815 186.055 84.0102 187 77L176 84z"/>
<path style="fill:#cec698; stroke:none;" d="M201 77L201 81L206 79L201 77z"/>
<path style="fill:#a0a457; stroke:none;" d="M211 77L214 79L214 78L211 77z"/>
<path style="fill:#a4b04e; stroke:none;" d="M238 77L237 81C239.831 80.6575 240.357 78.7507 238 77z"/>
<path style="fill:#788540; stroke:none;" d="M252 77L252 78L256 79L252 77z"/>
<path style="fill:#d2c1ad; stroke:none;" d="M34 78C37.6725 83.6657 49.8992 82 56 82L34 78z"/>
<path style="fill:#586516; stroke:none;" d="M92 78L103 84L92 78z"/>
<path style="fill:#616d21; stroke:none;" d="M101 78L101 79L114 83L101 78z"/>
<path style="fill:#616566; stroke:none;" d="M162 86L161 79L162 79L164 85L167 85L168 80L167 79L163 80C159.551 76.5432 155.872 83.9331 162 86z"/>
<path style="fill:#616528; stroke:none;" d="M175 78L173 83L175 78z"/>
<path style="fill:#c9d58d; stroke:none;" d="M231.667 78.3333L232.333 78.6667L231.667 78.3333z"/>
<path style="fill:#d4e386; stroke:none;" d="M234 79L234 80L239 78L234 79z"/>
<path style="fill:#4c5506; stroke:none;" d="M250 80L255 79L250 80z"/>
<path style="fill:#cddb9d; stroke:none;" d="M253 83L260 86L255 86L255 87L261 88L258 78L253 83z"/>
<path style="fill:#67730d; stroke:none;" d="M63 79L63 80L67 81L67 80L63 79z"/>
<path style="fill:#a7b458; stroke:none;" d="M72.6667 79.3333L73.3333 79.6667L72.6667 79.3333z"/>
<path style="fill:#4d5a0b; stroke:none;" d="M72 80L72 81L80 80L72 80z"/>
<path style="fill:#7f902a; stroke:none;" d="M79 82L83 80L79 82z"/>
<path style="fill:#3c4e3e; stroke:none;" d="M161 79L162 86L158 83L156 83L152 104L152 105L161 100C160.124 92.3633 166.674 85.5786 161 79z"/>
<path style="fill:#5b5d2c; stroke:none;" d="M206 82L210 79L206 82z"/>
<path style="fill:#86924a; stroke:none;" d="M227 79L227 82L229 79L227 79z"/>
<path style="fill:#effaab; stroke:none;" d="M242 80L242 81L249 80L242 80z"/>
<path style="fill:#889043; stroke:none;" d="M252.667 79.3333L253.333 79.6667L252.667 79.3333z"/>
<path style="fill:#b0a390; stroke:none;" d="M48 80L48 81L59 82L48 80z"/>
<path style="fill:#d3de7e; stroke:none;" d="M58 88L72 83C64.9874 80.2488 61.5041 81.0298 58 88z"/>
<path style="fill:#abb85e; stroke:none;" d="M67 80L70 82L70 81L67 80z"/>
<path style="fill:#828f35; stroke:none;" d="M70 81L70 82L74 82L70 81z"/>
<path style="fill:#e4f1a1; stroke:none;" d="M71 82L81 88C80.3456 84.946 78.9934 85.0642 76 85L79 80L71 82z"/>
<path style="fill:#475300; stroke:none;" d="M82.6667 80.3333L83.3333 80.6667L82.6667 80.3333z"/>
<path style="fill:#7e9125; stroke:none;" d="M94 80L94 81L97 81L94 80z"/>
<path style="fill:#b8a968; stroke:none;" d="M133 80L133 81L136 85L137 85L138 81L133 80z"/>
<path style="fill:#adb86a; stroke:none;" d="M150 80L151 87C148.184 85.911 146.881 85.5164 145 88L148 87L149 91L155 86L155 85L150 80z"/>
<path style="fill:#b8c78e; stroke:none;" d="M168 80L168 94L173 81L168 80z"/>
<path style="fill:#a19f52; stroke:none;" d="M203 80L203 81L206 82L203 80z"/>
<path style="fill:#bfb26c; stroke:none;" d="M208 81L211 83L211 84L207 85L207 86L212 86C211.741 82.7227 211.436 81.1767 208 81z"/>
<path style="fill:#cbd86e; stroke:none;" d="M76 85L81 85L81 89L100 94L92 91L92 90L95 88L86 87L88 84C83.6173 81.3491 79.0557 80.006 76 85z"/>
<path style="fill:#6e7726; stroke:none;" d="M84 81L87 83L84 81z"/>
<path style="fill:#9eac54; stroke:none;" d="M117 82L117 83L122 83L117 82z"/>
<path style="fill:#404b29; stroke:none;" d="M193 81L190 85L193 81z"/>
<path style="fill:#7b7f35; stroke:none;" d="M240 82L240 83L246 83L240 82z"/>
<path style="fill:#5b6600; stroke:none;" d="M245 81L245 82L250 82L245 81z"/>
<path style="fill:#424b12; stroke:none;" d="M137 82L140 92L150 105C153.954 103.407 153.744 100.949 154 97L152 90L149 91L148 87L143 89L137 82z"/>
<path style="fill:#bab267; stroke:none;" d="M138 82L141 84L138 82z"/>
<path style="fill:#57541f; stroke:none;" d="M167 82C166.082 83.8248 164.563 85.3871 163.763 87.2562C160.984 93.7507 170.82 91.1024 167 82z"/>
<path style="fill:#74882f; stroke:none;" d="M168 82L168 86L169 86L168 82z"/>
<path style="fill:#9da55c; stroke:none;" d="M172 82L174 85L172 82z"/>
<path style="fill:#ded5d0; stroke:none;" d="M179 82L175 88C178.148 86.8444 180.13 85.4874 179 82z"/>
<path style="fill:#59532f; stroke:none;" d="M196 82L197 83L196 82z"/>
<path style="fill:#4b5320; stroke:none;" d="M212 82L212 84L220 83L218 85L218 86L220 89L223 88L222 92L253 94C245.693 87.8894 240.47 90.0059 232.464 88.7053C229.609 88.2415 227.491 84.9175 224.961 83.6072C220.966 81.5386 216.353 82 212 82z"/>
<path style="fill:#69721f; stroke:none;" d="M87 83L88 84L87 83z"/>
<path style="fill:#98a24b; stroke:none;" d="M88 83L87 86L91 86L91 85L88 83z"/>
<path style="fill:#919f48; stroke:none;" d="M114 83L117 85L114 83z"/>
<path style="fill:#91a043; stroke:none;" d="M122 83L122 84L125 84L122 83z"/>
<path style="fill:#828540; stroke:none;" d="M217 86L214 85L214 86L220 87L220 86L218 85L220 83L217 86z"/>
<path style="fill:#82922f; stroke:none;" d="M56 89L56 90L68 88L84 91C75.1349 82.0405 66.2117 84.846 56 89z"/>
<path style="fill:#6f7d26; stroke:none;" d="M103 84L104 85L103 84z"/>
<path style="fill:#c6bf79; stroke:none;" d="M141 84L142 88L143 88L144 84L141 84z"/>
<path style="fill:#6b7842; stroke:none;" d="M172 84L168 98L169 98C171.405 93.7902 175.179 88.4374 172 84z"/>
<path style="fill:#b7c27e; stroke:none;" d="M175 84L171 95C174.391 92.6774 175.91 87.9878 175 84z"/>
<path style="fill:#cfce96; stroke:none;" d="M212 86L217 86C215.231 83.9661 213.769 83.966 212 86z"/>
<path style="fill:#9caa38; stroke:none;" d="M255 84L260 86L260 85L255 84z"/>
<path style="fill:#6a797e; stroke:none;" d="M156 85L154 90C157.414 89.4088 158.355 88.4671 158 85L156 85z"/>
<path style="fill:#617037; stroke:none;" d="M182 87L179 94L189 85L182 87z"/>
<path style="fill:#716a34; stroke:none;" d="M210 85L210 88L213 87L213 86L210 85z"/>
<path style="fill:#adb967; stroke:none;" d="M231 85L232 90L250 89L249 92L252 91C247.555 84.7649 237.675 86.3209 231 85z"/>
<path style="fill:#444f0a; stroke:none;" d="M240 85L240 86L251 90L258 89L240 85z"/>
<path style="fill:#cad77b; stroke:none;" d="M67 86L56 91L80 90L80 89C75.4911 87.1634 72.5637 85.6755 68 88L67 86z"/>
<path style="fill:#697418; stroke:none;" d="M86 86L86 87L93 88L86 86z"/>
<path style="fill:#c3d46e; stroke:none;" d="M97 86L97 87L104 91L104 89L110 91L110 90L106 86L97 86z"/>
<path style="fill:#77852d; stroke:none;" d="M112 86L112 87L116 87L112 86z"/>
<path style="fill:#869b3e; stroke:none;" d="M129 86L129 87L135 89L135 88L129 86z"/>
<path style="fill:#3b3d15; stroke:none;" d="M211 89L215 86L211 89z"/>
<path style="fill:#63711c; stroke:none;" d="M249 86L249 87L256 88L249 86z"/>
<path style="fill:#8a9a38; stroke:none;" d="M105 87L105 88L112 92L105 87z"/>
<path style="fill:#88973c; stroke:none;" d="M116 87L116 88L121 89L116 87z"/>
<path style="fill:#cede7c; stroke:none;" d="M180 87L177 95L178 95L182 87L180 87z"/>
<path style="fill:#b9c265; stroke:none;" d="M139 88L137 94L142 94L139 88z"/>
<path style="fill:#999959; stroke:none;" d="M192 92L193 92L196 89L192 92z"/>
<path style="fill:#848043; stroke:none;" d="M253 89L253 90L261 89L253 89z"/>
<path style="fill:#6c7f16; stroke:none;" d="M92 90L92 91L103 95C99.9444 91.4125 96.7753 89.4882 92 90z"/>
<path style="fill:#c5cbbf; stroke:none;" d="M183 91L186 89L183 91z"/>
<path style="fill:#e0ee8d; stroke:none;" d="M246 89L246 90L250 90L246 89z"/>
<path style="fill:#f9cb99; stroke:none;" d="M191 90L192 96L180 99L178 105L184 102L183 106L185 106C182.104 109.5 179.476 110.212 175 110L176 113L185 109L211.816 115.421L221.211 123.173L227 119L227 125L228 125C230.479 121.406 233.197 114.566 231.505 110.102C230.444 107.304 227.405 107.335 227 110L206.133 108.276L191 90z"/>
<path style="fill:#f1f0ad; stroke:none;" d="M250 92L256 90L250 92z"/>
<path style="fill:#7b7d3c; stroke:none;" d="M58 91L58 93L61 93L61 91L58 91z"/>
<path style="fill:#646311; stroke:none;" d="M61 91C62.5598 95.6998 66.6544 94.9966 71 95L71 97L62 99C65.6199 98.3639 69.9031 97.7044 71 102L75 99L98 100L98 101L76 102L76 103C88.0216 107.414 108.558 112.669 121 109L136 111C136.36 108.307 137.44 108.62 140 109C136.404 103.944 127.646 105.795 122 104.099C102.213 98.1553 81.9143 91.1731 61 91z"/>
<path style="fill:#b7c06f; stroke:none;" d="M68 91L68 92L72 92L68 91z"/>
<path style="fill:#d4ceb4; stroke:none;" d="M151 91L151 96L155 96L151 91z"/>
<path style="fill:#f9dfbe; stroke:none;" d="M161 91L160 97L164 95L163 91L161 91z"/>
<path style="fill:#869262; stroke:none;" d="M236.667 91.3333L237.333 91.6667L236.667 91.3333z"/>
<path style="fill:#8d9447; stroke:none;" d="M74 92L74 93L78 93L74 92z"/>
<path style="fill:#869739; stroke:none;" d="M142 92L140 94L140 95L146 99L142 92z"/>
<path style="fill:#cfbd7d; stroke:none;" d="M163 92L167 94L163 92z"/>
<path style="fill:#c5cdc0; stroke:none;" d="M254 92L253 96L254 92z"/>
<path style="fill:#9aaa48; stroke:none;" d="M106 93L106 94L125 102C119.814 95.5892 114.104 93.0233 106 93z"/>
<path style="fill:#9caa53; stroke:none;" d="M123 93L123 94L129 98L123 93z"/>
<path style="fill:#ebf5c3; stroke:none;" d="M167 93L164 95L164 99L165 99L167 93z"/>
<path style="fill:#9b8458; stroke:none;" d="M189.667 93.3333L190.333 93.6667L189.667 93.3333z"/>
<path style="fill:#798675; stroke:none;" d="M244 95L249 94L244 95z"/>
<path style="fill:#d3e380; stroke:none;" d="M111 94L115 96L115 95L111 94z"/>
<path style="fill:#edd9a6; stroke:none;" d="M182 96L185 94L182 96z"/>
<path style="fill:#6e552c; stroke:none;" d="M185.667 94.3333L186.333 94.6667L185.667 94.3333z"/>
<path style="fill:#aa9266; stroke:none;" d="M188.333 94.6667L188.667 95.3333L188.333 94.6667z"/>
<path style="fill:#705633; stroke:none;" d="M189 94L189 97L191 94L189 94z"/>
<path style="fill:#a98e59; stroke:none;" d="M191.333 94.6667L191.667 95.3333L191.333 94.6667z"/>
<path style="fill:#546060; stroke:none;" d="M235 94L235 95L244 96L244 95L235 94z"/>
<path style="fill:#c29b94; stroke:none;" d="M320 96C311.968 93.8147 305.622 101.007 299.679 105.566C290.511 112.598 278.361 118.814 268 124C271.61 131.078 281.242 129 288 129L285 136L288 144L291 147L292 147L293 145L297.981 168.004L298 198L302 197L302 208L294 203C293.165 207.069 289.658 215.462 293.028 219.168C296.448 222.929 315.761 221.957 321 222L321 221L302 219L302 213L311 205L314 202L323 200L323 94L320 96z"/>
<path style="fill:#d9d598; stroke:none;" d="M60 99L71 97L71 95C66.4755 95.0005 61.6539 94.017 60 99z"/>
<path style="fill:#acb769; stroke:none;" d="M92.6667 95.3333L93.3333 95.6667L92.6667 95.3333z"/>
<path style="fill:#d4c781; stroke:none;" d="M162 95L162 102L164 102L165 96L162 95z"/>
<path style="fill:#a5b15d; stroke:none;" d="M167 95L165 104L170 97L167 95z"/>
<path style="fill:#c8d295; stroke:none;" d="M170.333 95.6667L170.667 96.3333L170.333 95.6667z"/>
<path style="fill:#796331; stroke:none;" d="M184 95L185 96L184 95z"/>
<path style="fill:#fdecda; stroke:none;" d="M57 96L41 100.406L0 107L0 110L24 109L24 111L0 115L0 204L24 202C22.0479 214.347 9.18393 212.295 0 214L0 243L19 235L19 234L2 234L6 226L11 227C11.2404 206.706 43.5774 219.604 55 219.05C61.6476 218.728 68.3529 214.29 75 213L75 214L66 221C74.9209 218.655 96.8748 212.185 101 204L102 204L102 208L103 208L104 203L105 203L105 207L108 206C106.481 201.881 106.525 199.921 110 197L110 203L122 209L119 205L121 200L118 200L121 184L113 181L113 176L112 176L112 181L111 181L104 176L104 162L102 162L101 169L98 168C95.5436 176.119 84.1064 182.219 76 182C75.949 168.798 85.9883 161.617 94.5062 153.216C97.6568 150.109 98.9564 146.162 103 144L103 150L104 150C107.076 141.201 108.061 134.309 118 132C113.375 138.451 105.581 145.765 105 154C112.092 147.739 114.367 135.641 125 134L127 126L129 128L130 128L130 124C135.073 122.358 135.897 116.766 137 112L91 107.482L71 103L72 100L57 96z"/>
<path style="fill:#828661; stroke:none;" d="M152.667 96.3333L153.333 96.6667L152.667 96.3333z"/>
<path style="fill:#8a7653; stroke:none;" d="M181 96L182 98L183 98L184 96L181 96z"/>
<path style="fill:#b7bc6a; stroke:none;" d="M100.667 97.3333L101.333 97.6667L100.667 97.3333z"/>
<path style="fill:#635d0f; stroke:none;" d="M169 104L170 104L175 97C170.669 97.9032 169.338 99.6251 169 104z"/>
<path style="fill:#e1dca5; stroke:none;" d="M172 102L176 99L179 98C175.193 97.6739 173.722 98.6102 172 102z"/>
<path style="fill:#484613; stroke:none;" d="M173 105L173 107L177 111L180 108C180.649 111.808 184.073 107.946 185 106L181 105L182 102L178 105L182 97L173 105z"/>
<path style="fill:#9aa44b; stroke:none;" d="M103.667 98.3333L104.333 98.6667L103.667 98.3333z"/>
<path style="fill:#aab650; stroke:none;" d="M142 98L148 106L149 100L142 98z"/>
<path style="fill:#c7c1b3; stroke:none;" d="M197 98L200 100L197 98z"/>
<path style="fill:#877f41; stroke:none;" d="M75 99L71 102L71 103L76 103L77 99L75 99z"/>
<path style="fill:#c1d272; stroke:none;" d="M76 100L76 102L98 101L76 100z"/>
<path style="fill:#817d4e; stroke:none;" d="M175 99L173 103L177 102L175 99z"/>
<path style="fill:#dfccc5; stroke:none;" d="M235 138L235 140L237 141L238 141C254.831 123.284 286.892 121.44 303 103L301 99C281.371 99.1776 261.499 118.77 244.001 126.587C239.138 128.759 232.117 120.068 228.887 123.767C224.387 128.92 249.657 129.955 235 138z"/>
<path style="fill:#f3e9ac; stroke:none;" d="M158 100L162 113L167 112L165 102L158 100z"/>
<path style="fill:#d5e58d; stroke:none;" d="M98 101L98 102L101 102L98 101z"/>
<path style="fill:#d9d193; stroke:none;" d="M168 101L166 111L171 109L168 107L168 106L172 102L170 104L168 101z"/>
<path style="fill:#8d6833; stroke:none;" d="M157 102C153.57 104.37 151.873 104.52 148 103L157 108L157 102z"/>
<path style="fill:#443a09; stroke:none;" d="M172 102L173 103L172 102z"/>
<path style="fill:#fff3c5; stroke:none;" d="M168 106C171.649 107.977 174.028 105.273 177 103L168 106z"/>
<path style="fill:#aea36b; stroke:none;" d="M183 102L181 105L183 102z"/>
<path style="fill:#db9852; stroke:none;" d="M158 104L155 108L159 115L149 114L149 116L154 116L152 121C151.897 127.183 146.626 128.097 142 131L141 128L140 128L139 133C135.345 130.865 135.098 128.051 135 124L134 124L135 149L140 149C142.37 156.169 152.064 155.096 158 154L158 160L161 160C161.143 143.973 168.03 118.453 158 104z"/>
<path style="fill:#c6be90; stroke:none;" d="M86 106L86 107L91 108L86 106z"/>
<path style="fill:#949a44; stroke:none;" d="M130 106L130 107L133 107L130 106z"/>
<path style="fill:#888d3b; stroke:none;" d="M137.667 106.333L138.333 106.667L137.667 106.333z"/>
<path style="fill:#fff5ae; stroke:none;" d="M150 106L148 110L142 107C143.261 114.549 149.717 109.43 155 110L150 106z"/>
<path style="fill:#c19556; stroke:none;" d="M151 106L151 107L155 107L151 106z"/>
<path style="fill:#fdf2dc; stroke:none;" d="M203 106C207.874 112.619 219.815 109.574 227 110L229 106L203 106z"/>
<path style="fill:#58491e; stroke:none;" d="M169 107L170 108L169 107z"/>
<path style="fill:#42330a; stroke:none;" d="M171 107L171 110L173 107L171 107z"/>
<path style="fill:#ec9f59; stroke:none;" d="M173 107L171 118L174 117L174 120L175 120L183 118L183 122L186 121C186.102 125.79 195.028 131.183 195 127L200 128L204 128C204.781 125.658 204.654 125.98 206 128L208 126L209 126C211.54 129.019 215.344 128.713 219 128C216.793 122.496 202.594 108.171 199 119C192.038 115.486 189.404 112.999 181 115L181 112L176 113L175 107L173 107z"/>
<path style="fill:#83692e; stroke:none;" d="M135 109L135 112L150 114L150 113L141 108L135 109z"/>
<path style="fill:#d8ae9e; stroke:none;" d="M160 108C160.438 115.909 159.575 137.603 164.857 143.401C170.441 149.529 180.135 147.2 187 147L187 143L184 143L184 132C180.122 131.875 177.928 131.498 176 128L169 125C171.273 130.58 174.219 132.653 180 134C178.574 136.767 177.222 138.684 174 138L173 138L168 140L164 121L168 123L167 114L165 116L164 116L160 108z"/>
<path style="fill:#8e8566; stroke:none;" d="M178 108L178 111L179 111L180 108L178 108z"/>
<path style="fill:#dac8b2; stroke:none;" d="M0 110L0 115L24 111L24 109L0 110z"/>
<path style="fill:#d7cc9f; stroke:none;" d="M108 109L108 110L112 110L108 109z"/>
<path style="fill:#c3b27c; stroke:none;" d="M120 109L114 110L114 111L120 109z"/>
<path style="fill:#606018; stroke:none;" d="M147 112L147 113L154 109L147 112z"/>
<path style="fill:#9a9764; stroke:none;" d="M167 111L167 113L173 115L171 109L167 111z"/>
<path style="fill:#f2b370; stroke:none;" d="M185 109L181 115C189.691 113.386 191.59 116.719 199 119C203.683 110.514 213.418 121.693 220 123C212.805 112.499 196.83 111.57 185 109z"/>
<path style="fill:#876e1c; stroke:none;" d="M150 112L150 113L159 115C157.543 109.851 154.418 110.66 150 112z"/>
<path style="fill:#e3d69f; stroke:none;" d="M124 111L124 112L135 112L124 111z"/>
<path style="fill:#b1a865; stroke:none;" d="M147.667 111.333L148.333 111.667L147.667 111.333z"/>
<path style="fill:#5b4804; stroke:none;" d="M162 113L164 116L165 116L168 114C168.692 117.228 170.101 117.02 173 116L162 113z"/>
<path style="fill:#f4c087; stroke:none;" d="M133 128L134 128L134 124L135 124C135.037 128.037 134.782 131.517 139 133L140 128L141 128L142 131C147.024 128.793 152.824 127.31 152 121L154 116C141.345 115.081 133.803 110.42 133 128z"/>
<path style="fill:#db9648; stroke:none;" d="M167 114C167.056 120.724 168.428 126.9 176 128C177.379 132.156 180.385 131.485 183.83 133.494C194.203 139.542 212.703 140.212 222 132L222 131L222 130L206 128L205 126L204 128L200 128L195 127C195 130.945 186.118 125.479 186 121L183 122L183 118L174 120L174 117L173 117L167 114z"/>
<path style="fill:#de9e85; stroke:none;" d="M226 119L217 123L222 130L222 131L222 132C212.934 137.45 193.673 142.086 185 133L184 133L184 143L187 143L187 147C179.489 147.083 168.396 148.99 164 141L163 141L161 160L158 160L158 154C151.529 154.669 143.693 155.723 140 149L135 149L139 182L136 182L136 187L133 183L130 184L128 190C127.861 185.735 127.292 183.303 123 182L123 186L126 184L119 205L123 210L138.015 200.282L156 199L156 205L153 206C155.102 210.164 157.517 210.923 162 210L162 215C169.283 212.313 175.739 205.743 173 198L191 199L191 198L175 195L175 193C203.679 185.561 230.468 170.463 243 142L238 141L239 144C233.596 142.123 231.449 137.913 229 133L228 133L229 137C222.958 133.083 228.385 124.737 226 119z"/>
<path style="fill:#d1a29a; stroke:none;" d="M238 141L243 142L236.607 154.086L242 167L237 163L236 168C243.92 172.726 231.203 178.77 229 183L239 189L243 169L245 169C248.756 175.09 256.096 173.706 262.09 176.573C272.124 181.373 282.878 189.757 287.824 200C290.539 205.623 285.879 212.68 287 219L288 219L288 209L291 211L292 211L294 203L302 208L302 197L298 198L297.833 163.167L292 147L291 147L288 144L285 136C288.716 135.204 288 132.363 288 129C280.665 129 272.919 130.464 268 124L275 121C271.327 119.958 268.115 122.691 265 124.588C257.731 129.013 242.197 133.728 238 141z"/>
<path style="fill:#d1cad2; stroke:none;" d="M164 121L168 140L173 138L174 138C176.929 140.531 179.145 136.775 180 134L164 121z"/>
<path style="fill:#d6d1d8; stroke:none;" d="M130 124L130 128L126 132C132.916 141.107 130.006 147.904 129 158L128 158L127 144L126 144C124.181 157.134 119.707 166.271 124 180L128 178L129 181L136 178L139 182L134.698 162L133 124L130 124z"/>
<path style="fill:#ffdab0; stroke:none;" d="M127 126L125 134C111.616 135.009 109.568 151.483 103 160L104 176L107.969 167.17L118 144L123 144L123 152L125 152L126 144L127 144L128 158L129 158L131 150L130 142L130 141L130 140L126 132L129 126L127 126z"/>
<path style="fill:#ece3d4; stroke:none;" d="M226 126C226 129.884 224.419 136.018 229 137L228 133L229 133C230.836 138.273 233.24 142.807 239 144L235 140L235 138C248.182 133.193 231.193 127.667 226 126z"/>
<path style="fill:#f6ddbe; stroke:none;" d="M104 152L105 152L118 132C107.521 133.55 105.241 142.399 104 152z"/>
<path style="fill:#e6c18d; stroke:none;" d="M128 142L129 150C132.635 148.087 132.611 145.837 132 142L128 142z"/>
<path style="fill:#fefefe; stroke:none;" d="M100 144C93.6386 157.475 73.8995 164.778 76 182C84.0108 182.579 96.5362 176.697 98 168L101 169L103 144L100 144z"/>
<path style="fill:#f3cb8d; stroke:none;" d="M118 144L106 176L118 175L119 175L123 144L118 144z"/>
<path style="fill:#cc875d; stroke:none;" d="M229 146L217 151L212 166C222.493 163.437 228.438 155.418 236 148L228 151L229 146z"/>
<path style="fill:#ca876a; stroke:none;" d="M194 152L195 166L207 169L207 163L204 163C203.542 157.239 198.629 154.787 194 152z"/>
<path style="fill:#ddc6b8; stroke:none;" d="M121 155L119 175L118 175L108 176L111 181L112 181L112 176L113 176L113 181L121 184L118 200L122 201L126 184L123 186L123 182C126.7 183.865 127.692 185.911 128 190L133 183L136 187L136 178C133.268 179.171 128.474 181.674 128 178L124 180L121 155z"/>
<path style="fill:#df8a63; stroke:none;" d="M175 193L175 195C186.191 198.662 199.952 201.421 210.895 195.526C215.672 192.953 216.247 185.185 222.093 184.333C226.595 183.677 231.505 187.324 236 188L236 187L229 183C231.528 179.738 245.448 171.177 236 168L237 163L242 167C241.896 163.845 239.455 155.215 234.91 155.921C229.917 156.696 223.436 169.021 218.996 172.275C204.875 182.625 191.293 187.439 175 193z"/>
<path style="fill:#a47970; stroke:none;" d="M243 169L243 184L248 184L246 177L259 175L259 174C253.04 173.995 249.162 173.594 245 169L243 169z"/>
<path style="fill:#602c05; stroke:none;" d="M240 191L220 194L215 203L190 204L191 200L183 201L184 205L160 215C156.518 205.185 147.831 211.159 140.999 209.682C137.658 208.96 134.723 205.597 131.113 206.917C124.832 209.213 129.374 217.281 134.019 218.37C137.295 219.139 140.694 219.154 144 220L144 221L137 226L139 226L138 229C142.998 228.996 149.034 229.483 151 224L160 224L160 229L184 226L184 227L182 227L182 228C188.892 227.642 215.711 212.369 213 230C224.024 234.659 242.52 229.951 246 217C244.499 215.188 244.842 214.978 247 214L245 193L253 191C254.608 183.79 268.295 188.982 273 190C271.073 184.446 260.27 172.886 253.279 176.212C250.173 177.69 250.215 182.236 247.697 184.415C244.596 187.099 241.429 186.716 240 191z"/>
<path style="fill:#a64b48; stroke:none;" d="M255 175L255 176L264 179L255 175z"/>
<path style="fill:#98927c; stroke:none;" d="M101 176L98 200C109.727 198.464 109.189 181.786 101 176z"/>
<path style="fill:#6b4e50; stroke:none;" d="M246 177L246 180L250 182L252 176L246 177z"/>
<path style="fill:#ce706e; stroke:none;" d="M263 177L269 181L269 180L263 177z"/>
<path style="fill:#c2b9aa; stroke:none;" d="M97 180L91 203L100 202C96.5348 192.986 98.0669 189.12 99 180L97 180z"/>
<path style="fill:#d2b1ac; stroke:none;" d="M152 185L154 196C162.04 198.371 169.471 195.082 168 186C172.6 185.402 176.157 185.055 177 180L152 185z"/>
<path style="fill:#9a4c36; stroke:none;" d="M248 181L241 188C244.339 186.545 250.509 185.445 248 181z"/>
<path style="fill:#b92b1d; stroke:none;" d="M266 181C270.342 186.46 272.083 188.866 272 196L275 192L279 201L285 202L280 213L281 213L288 206C287.957 193.928 277.604 183.423 266 181z"/>
<path style="fill:#ba544f; stroke:none;" d="M269 181L272 183L269 181z"/>
<path style="fill:#c47054; stroke:none;" d="M194 200C196.608 207.418 208.286 201.738 214 201L220 194L240 191L241 187L239 189C233.635 187.477 225.892 182.533 220.329 184.515C216.285 185.955 215.443 190.925 212.61 193.687C208.254 197.933 199.872 199.935 194 200z"/>
<path style="fill:#d3c4c9; stroke:none;" d="M164 194L165 187C156.292 185.999 155.872 193.354 164 194z"/>
<path style="fill:#882b02; stroke:none;" d="M253 191L245 193L245 197C249.033 199.615 248 204.614 248 209L249 209L249 206L252 207L260 204L260 200L270 199C276.604 185.264 254.427 183.958 253 191z"/>
<path style="fill:#722918; stroke:none;" d="M275 192L275 199L276 199L275 192z"/>
<path style="fill:#97422d; stroke:none;" d="M276 194L274 198C275.364 204.366 283.716 197.571 276 194z"/>
<path style="fill:#ba4243; stroke:none;" d="M271 196L269 218L269 219L273 221C271.458 214.29 272.969 203.31 281 202L281 201L274 201L274 196L271 196z"/>
<path style="fill:#d0859a; stroke:none;" d="M108 206L105 211L106 211L106 208L111 208L111 207L110 197C105.892 199.29 106.563 201.927 108 206z"/>
<path style="fill:#9c4a3e; stroke:none;" d="M246 197L245 215L251 216L248 197L246 197z"/>
<path style="fill:#b03e24; stroke:none;" d="M260 200L260 204C256.104 203.4 253.998 203.41 252 207L249 206L249 209L250 209L271 202L271 200C266.476 196.862 264.744 197.989 260 200z"/>
<path style="fill:#d56b41; stroke:none;" d="M173 198C174.565 203.097 176.878 203.939 182 204L184 200L173 198z"/>
<path style="fill:#b45e43; stroke:none;" d="M190 199L190 200L193 202L194 202L202 200L190 199z"/>
<path style="fill:#d07e58; stroke:none;" d="M132 206L144 209L144 208L139 207L139 205L151 201L149 206L154 209L153 206L156 205L156 199C147.357 199.006 136.532 197.475 132 206z"/>
<path style="fill:#9f5339; stroke:none;" d="M213 199L210 201L210 202L215 203L213 199z"/>
<path style="fill:#ffa8ba; stroke:none;" d="M107 200L107 202L109 202L109 200L107 200z"/>
<path style="fill:#954627; stroke:none;" d="M182 200L182 204C174.734 204.081 169.18 207.287 166 214L184 205L183 201L189 201L182 200z"/>
<path style="fill:#904830; stroke:none;" d="M191 200L190 204L200 205L200 204L191 200z"/>
<path style="fill:#d45648; stroke:none;" d="M288 200L288 206C282.353 207.986 283.731 214.638 286 219L287 219L288 200z"/>
<path style="fill:#c7adb6; stroke:none;" d="M314 202L311 205L302 213L302 219L323 222L323 200L314 202z"/>
<path style="fill:#b04823; stroke:none;" d="M147 202L147 204L151 205L151 201L147 202z"/>
<path style="fill:#fefcf0; stroke:none;" d="M0 204L0 214C9.10955 212.849 23.0327 214.479 24 202L0 204z"/>
<path style="fill:#953b44; stroke:none;" d="M106.333 202.667L106.667 203.333L106.333 202.667z"/>
<path style="fill:#b01d0b; stroke:none;" d="M112 202C111.364 205.993 109.993 207.364 106 208C107.038 215.743 113.967 219.241 121 221C118.862 215.913 115.56 213.074 122 210L122 209L112 202z"/>
<path style="fill:#903a1f; stroke:none;" d="M202 203L202 204L210 203L202 203z"/>
<path style="fill:#862907; stroke:none;" d="M270 202C252.407 207.278 247.162 221.878 247 240L250 236L257 235L257 233L253 227L258 228L257 221C261.603 222.238 272.135 217.537 265 216L270 202z"/>
<path style="fill:#d65446; stroke:none;" d="M275 207L282 209L285 202C280.081 202.004 276.205 201.48 275 207z"/>
<path style="fill:#fffef7; stroke:none;" d="M104 203L68.2577 266.985L48 302L79.0394 289L91 281L63 288L70 284L70 283L65 283L72 270L75 265L78 267L85 256L85 255L80 255C84.2482 248.9 86.9065 237.625 95 237L95 236L91 236L98 226L98 225L96 223C99.1372 223.494 99.9996 223.036 101 220L105 218L104 214L104 203z"/>
<path style="fill:#ffdaf9; stroke:none;" d="M109 203L109 207L111 207L111 203L109 203z"/>
<path style="fill:#b66882; stroke:none;" d="M111 203L111 207L112 207L111 203z"/>
<path style="fill:#eab6a1; stroke:none;" d="M101 204C96.1345 210.391 84.4859 213.434 77.0895 216.52C59.7443 223.758 42.435 231.421 25 238.546C18.9407 241.023 4.84564 243.206 1.02778 248.638C-0.964919 251.473 0 256.725 0 260L0 286C8.02927 286.41 13.1761 288.595 12 278C24.2615 276.506 35.8642 271.387 48 269.17C53.365 268.189 59.0933 266.719 61 273C49.7952 271.763 42.07 280.24 32.8302 284.844C21.9711 290.256 11.9026 290.901 0 291L0 390C7.14502 386.489 11.9263 382.137 12 374L20 372C25.5741 362.459 40.6477 374.525 41 360L45 360L48 331L47 331C46.1714 336.351 43.3174 338.599 38 339L43.2708 323.715L45.2593 303L83.7917 242L97.3395 216.91L101 204z"/>
<path style="fill:#e1977e; stroke:none;" d="M139 205L139 207L151 207C147.322 203.827 143.552 203.658 139 205z"/>
<path style="fill:#9b4234; stroke:none;" d="M270 205C266.188 209.052 267.339 213.807 268 219L271 218L270 205z"/>
<path style="fill:#ac583e; stroke:none;" d="M136 207C140.777 211.878 146.215 209.289 152 208L152 207L136 207z"/>
<path style="fill:#e8685d; stroke:none;" d="M275 223L274 211L279 207C271.763 207.833 269.166 218.559 275 223z"/>
<path style="fill:#f5856d; stroke:none;" d="M279 207L274 211L274 221C278.068 217.46 280.422 212.352 281 207L279 207z"/>
<path style="fill:#e1d8d3; stroke:none;" d="M104 208L104 214L105 218L101 220L96 223L98 225L98 226L91 236L95 236L95 237L92 237L90 243L96 242L96 243L90 245L90 246L96 245L99 247L99 248L91 252C94.2938 254.535 89.3451 257.932 88 261C92.8319 260.628 94.8707 258.694 96 254L98 256L106 255L106 254C99.4776 250.758 108.985 247.684 112 246L110 249L120 244L127 244L126 239L115 238L115 237L122 238C122.5 235.087 123.123 233.683 120 233L121 229L124 230C124.991 222.425 116.105 222.178 111.274 218.197C108.121 215.599 106.51 211.202 104 208z"/>
<path style="fill:#914315; stroke:none;" d="M225 208C221.437 214.477 221.19 221.604 230 223L225 211L229 212L225 208z"/>
<path style="fill:#fa7468; stroke:none;" d="M250 214L251 214L254 208C250.033 208.663 249.345 210.107 250 214z"/>
<path style="fill:#ae573b; stroke:none;" d="M262 208L261 212L264 208L262 208z"/>
<path style="fill:#b2715b; stroke:none;" d="M119 210L119 211L124 211L119 210z"/>
<path style="fill:#7a2d00; stroke:none;" d="M122 211L125 219L122 222L127 221C130.997 242.11 170.413 235.067 184 227L184 226L160 229L160 224L151 224C148.128 228.822 143.185 228.982 138 229L139 226L137 226L144 221L144 220C136.972 217.625 128.485 218.651 128 209L122 211z"/>
<path style="fill:#a14b34; stroke:none;" d="M283 209C283 212.646 282.255 220.941 277 217L275 222L281 224L280 222L282 225L286 217L283 209z"/>
<path style="fill:#ecd7ac; stroke:none;" d="M288 209L288 221C293.378 219.215 292.097 213.606 291 209L288 209z"/>
<path style="fill:#83524b; stroke:none;" d="M157 211L157 212L162 215L162 210L157 211z"/>
<path style="fill:#92240d; stroke:none;" d="M282 210L278 219C282.088 217.195 283.758 214.316 282 210z"/>
<path style="fill:#ea9e87; stroke:none;" d="M118 211L122 215L122 211L118 211z"/>
<path style="fill:#be5134; stroke:none;" d="M251 211L251 214L252 214L253 211L251 211z"/>
<path style="fill:#8b261c; stroke:none;" d="M117 212L121 221L114 218C116.818 223.42 122.548 224.256 128 226L127 221L122 222L125 219L123 213L117 212z"/>
<path style="fill:#ba775a; stroke:none;" d="M266 212L265 216L268 212L266 212z"/>
<path style="fill:#fffcf4; stroke:none;" d="M0 248C26.5784 240.417 51.247 227.386 75 214C69.3141 212.256 63.2509 216.257 57.9961 218.175C43.5882 223.436 27.9693 229.198 14.2855 236.156C8.52573 239.085 0.563542 240.746 0 248z"/>
<path style="fill:#e7a889; stroke:none;" d="M244 214L247 217L244 214z"/>
<path style="fill:#da9b7a; stroke:none;" d="M237 216L237 217L243 216L237 216z"/>
<path style="fill:#e0d0b9; stroke:none;" d="M11 227L6 226L2 234C19.8898 236.249 36.9641 228.172 53 221L53 219C42.2081 214.24 11.0586 210.465 11 227z"/>
<path style="fill:#e2b3bd; stroke:none;" d="M109 216L113 219L112 216L109 216z"/>
<path style="fill:#ad351c; stroke:none;" d="M247 216L244 223C247.883 221.903 248.725 219.902 249 216L247 216z"/>
<path style="fill:#f27758; stroke:none;" d="M249 216L240 230C232.77 230.006 225.693 231.991 224 240L240.687 232.361L244.435 226.897L247 228C251.098 225.424 253.528 219.24 249 216z"/>
<path style="fill:#ab6e4f; stroke:none;" d="M235 219L238 217L235 219z"/>
<path style="fill:#a88987; stroke:none;" d="M113.333 218.667L113.667 219.333L113.333 218.667z"/>
<path style="fill:#bd6446; stroke:none;" d="M208.667 218.333L209.333 218.667L208.667 218.333z"/>
<path style="fill:#ffa083; stroke:none;" d="M208 219L208 221L210 219L208 219z"/>
<path style="fill:#e4a481; stroke:none;" d="M234 219L234 222L236 219L234 219z"/>
<path style="fill:#c17150; stroke:none;" d="M263 224L267 225L271 219L263 224z"/>
<path style="fill:#cb945c; stroke:none;" d="M285 219L285 224L288 223L287 219L285 219z"/>
<path style="fill:#e2bf7f; stroke:none;" d="M287 219L286 223L286 224L291 227C291.775 222.931 290.267 221.306 287 219z"/>
<path style="fill:#a18186; stroke:none;" d="M291 223L292 223L314 222C310.212 219.817 292.099 217.775 291 223z"/>
<path style="fill:#b0aa9e; stroke:none;" d="M22 226L30 225C28.2264 219.66 22.8994 220.82 22 226z"/>
<path style="fill:#e0a995; stroke:none;" d="M165 233L165 234L169 234C167.917 240.869 154.316 250.317 148 253L150 255L150 256L147 259L147 260L152 260L152 261L144 263L140 271L157 263C169.427 255.325 181.159 247.789 194 240.833C196.937 239.243 205.452 232.738 207 236L208 236L207 223L203 224C200.328 219.93 196.7 222.054 193 224.004C184.534 228.465 174.694 232.557 165 233z"/>
<path style="fill:#bd4425; stroke:none;" d="M202 221L203 224L207 223L202 221z"/>
<path style="fill:#93522c; stroke:none;" d="M257 221L258 228L259 228L262 226L260 229L264 230L268 224C264.953 224.508 263.353 224.587 264 222L257 221z"/>
<path style="fill:#70341a; stroke:none;" d="M268 222L268 226L264 230L260 229L262 234C271.092 231.798 271.138 229.809 273 221L268 222z"/>
<path style="fill:#9b331a; stroke:none;" d="M276 221L271 224L272 230C275.252 229.205 284.552 226.134 280 222L281 224L280 224L276 221z"/>
<path style="fill:#90696e; stroke:none;" d="M292 221L292 225C302.072 222.602 312.969 224.11 323 226L323 222L292 221z"/>
<path style="fill:#d98f60; stroke:none;" d="M207 223L208 236L207 236L207 233C190.16 241.202 171.048 250.391 157 263L156 260L143.943 270.313L83 300L83 301L89 303C93.1048 299.092 99.0343 298.023 103.985 295.392C120.444 286.645 139.643 280.904 155.255 270.701C167.24 262.869 181.635 248.534 197 249C199.638 243.109 207.22 238.54 213 236L216 242L223 235L221 233L215 238L214 238L211 222L207 223z"/>
<path style="fill:#a73b1e; stroke:none;" d="M211 222L212 232L217 232L217 231L213 230L213 222L211 222z"/>
<path style="fill:#c4381f; stroke:none;" d="M241 223L231 229L231 230L240 230L243 223L241 223z"/>
<path style="fill:#e18171; stroke:none;" d="M283 224L283 230L291 229L291 234L292 234L292 226L284 227L285 224L283 224z"/>
<path style="fill:#ffbdaa; stroke:none;" d="M284 227L290 227L290 224L284 227z"/>
<path style="fill:#5a382e; stroke:none;" d="M293 255L294 268L295 268L300 265L294 277L295 277L296 275L304 275L304 269L323 280L323 243C323 238.666 324.393 231.376 322.397 227.434C320.006 222.713 296.174 221.63 293.028 225.603C290.363 228.969 293.244 233.588 293.722 237.09C294.205 240.622 294.278 252.188 293 255z"/>
<path style="fill:#b18fa0; stroke:none;" d="M124 225L128 228L124 225z"/>
<path style="fill:#932a0c; stroke:none;" d="M244 225L245 230L246 225L244 225z"/>
<path style="fill:#ba6b44; stroke:none;" d="M246 225L244 228L243 228L242 232L243 238L246 241L247 241L250 226L249 226L246 225z"/>
<path style="fill:#f24a3d; stroke:none;" d="M282 225L275 228L275 229L278 229L278 235L281 236L282 236L282 225z"/>
<path style="fill:#d37454; stroke:none;" d="M259 226C257.507 229.599 256.503 232.516 260 235L262 226L259 226z"/>
<path style="fill:#a55031; stroke:none;" d="M253 227L257 233L258 228L253 227z"/>
<path style="fill:#5b444a; stroke:none;" d="M296 227C291.762 238.181 297.763 241.901 308 240C307.071 232.603 302.781 229.285 296 227z"/>
<path style="fill:#c2c2ce; stroke:none;" d="M124 230L121 229L120 233L122 238L115 237L115 238L126 239C128.578 258.237 147.152 252.651 158.17 245.623C163.326 242.334 168.482 240.728 169 234C157.388 234 146.998 236.251 136 231.821C132.501 230.412 126.975 226.78 124 230z"/>
<path style="fill:#9f6452; stroke:none;" d="M181 228L181 229L185 229L181 228z"/>
<path style="fill:#ff6a55; stroke:none;" d="M274 235L278 235L278 229C274.679 230.099 274.263 231.59 274 235z"/>
<path style="fill:#eebf95; stroke:none;" d="M278 246L288 241L280 248L282 254C272.561 254.636 274.687 260.709 275 268L290 264L289 252L292 253L290 244C296.45 242.618 291.291 233.25 291 229C281.771 229.429 278.03 237.438 278 246z"/>
<path style="fill:#b82f1d; stroke:none;" d="M230 230L218 232L218 233L223 235L222 239L230 230z"/>
<path style="fill:#b35031; stroke:none;" d="M259 230L260 235L258 233L257 233L254 236L260 237L259 241L260 241L261 238L266 240L267 240L269 233L262 234L259 230z"/>
<path style="fill:#d3372b; stroke:none;" d="M268 234L273 243L281 234L274 235L274 230L268 234z"/>
<path style="fill:#ca5438; stroke:none;" d="M212 232L214 238L215 238L219 234L219 233L215 234L212 232z"/>
<path style="fill:#f68064; stroke:none;" d="M215 234L218 232L215 234z"/>
<path style="fill:#9a3113; stroke:none;" d="M236 238L244 232C240.03 232.865 237.285 233.996 236 238z"/>
<path style="fill:#ad7872; stroke:none;" d="M160 233L160 234L165 234L160 233z"/>
<path style="fill:#d0432f; stroke:none;" d="M232 235C232.701 244.459 242.499 249.426 245 238L243 238L244 235L236 238L238 233L232 235z"/>
<path style="fill:#764340; stroke:none;" d="M141 234L141 235L155 235L141 234z"/>
<path style="fill:#965736; stroke:none;" d="M293 234L293 243L294 243L293 234z"/>
<path style="fill:#f76955; stroke:none;" d="M267 235L266 243L270 235L267 235z"/>
<path style="fill:#d0937e; stroke:none;" d="M197 249C187.543 247.599 177.559 255.02 169.985 259.924C155.551 269.271 140.245 279.631 124 285.795C114.551 289.38 94.9084 294.757 89 303L83 301L83 300L120.91 281.622L142 272L142 271L140 269L144 263L152 261L152 260L147 260L147 259L150 256L150 255L148 253L156 249L156 248C146.485 250.176 138.374 256.495 130 261.216C117.862 268.058 105.323 274.467 93.4861 281.745C88.0079 285.114 77.2752 286.456 75 293C64.1698 294.552 60.7546 302.555 59 312L69 310L65 313L58 320L60 328L91.9992 308.965L132.758 288.653L155 276C170.927 272.866 184.1 257.575 199.039 250.955C206.449 247.672 213.689 248.725 215 239L213 236C207.092 237.603 198.682 242.878 197 249z"/>
<path style="fill:#a57e47; stroke:none;" d="M224 240L221 238L214 244L214 245C220.569 244.846 228.524 241.861 232 236L224 240z"/>
<path style="fill:#d13421; stroke:none;" d="M250 236L247 247L244 250L240 250L241 260L244 260L242 266L250 290L272 279L276 247L271 253L273 256L259 261L273 243L265 248L268 244L268 243L266 238L261 238L256 241C255.344 237.179 253.677 236.522 250 236z"/>
<path style="fill:#f3e4df; stroke:none;" d="M89 237L80 255L85 255L85 256C80.3976 258.279 79.484 262.373 78 267L75 265L72 270L65 283L70 283L70 284L63 288L81.0394 283.035L93.561 282.015L140 256C137.07 248.986 127.116 244.447 120 244L110 249L112 246L102 252L108 252L108 255L96 254C94.3708 258.156 92.4847 260.293 88 261C89.6964 258.143 96.6902 253.226 91 252L99 248L99 247L96 245L90 246L90 245L96 243L96 242L90 243L92 237L89 237z"/>
<path style="fill:#ff7d64; stroke:none;" d="M256 241L260 237L256 241z"/>
<path style="fill:#dfb18f; stroke:none;" d="M156 284C164.87 283.412 170.707 277.86 178 273.616C189.406 266.977 201.531 261.917 213 255.515C220.077 251.565 227.223 245.081 235 243L235 241L232 238C224.286 240.862 218.171 246.242 210.996 250.015C198.242 256.723 185.138 261.591 173 269.749C167.793 273.249 157.909 277.893 156 284z"/>
<path style="fill:#b3270e; stroke:none;" d="M269 238L265 248L273 243L272 238L269 238z"/>
<path style="fill:#c6bbbf; stroke:none;" d="M107 244C111.603 243.505 115.517 244.488 118 240C113.063 239.299 109.896 239.722 107 244z"/>
<path style="fill:#ceab69; stroke:none;" d="M220 239L217 242L214 241C216.154 244.235 220.411 243.026 220 239z"/>
<path style="fill:#ff876f; stroke:none;" d="M244 240L241 249L247 247L246 240L244 240z"/>
<path style="fill:#f75f47; stroke:none;" d="M259 261L273 256L271 253L276 247L276 255L277 255L278 240C272.3 242.763 260.034 254.885 259 261z"/>
<path style="fill:#e06256; stroke:none;" d="M284 241L282 246L288 241L284 241z"/>
<path style="fill:#a27b42; stroke:none;" d="M222 249L222 250L238 246C232.077 239.986 227.963 246.935 222 249z"/>
<path style="fill:#f88f72; stroke:none;" d="M277 254L282 254L283 248L284 243C278.834 245.259 277.45 248.556 277 254z"/>
<path style="fill:#c77452; stroke:none;" d="M290 244L290 247L292 247L292 244L290 244z"/>
<path style="fill:#84672f; stroke:none;" d="M157 279C171.444 277.431 185.386 260.983 199 255.289C205.243 252.679 213.535 251.313 217 245C201.319 246.734 183.592 257.984 171.005 267.111C166.495 270.381 159.78 274.159 157 279z"/>
<path style="fill:#e5a383; stroke:none;" d="M158 289L184.259 275.135L203.83 267.613L239 249L239 246C228.282 246.252 217.97 254.15 209 259.492C198.282 265.874 186.634 270.602 176 277.228C170.53 280.637 161.697 283.733 158 289z"/>
<path style="fill:#de644d; stroke:none;" d="M239 246C234.951 252.822 220.854 251.005 221 260C227.207 257.23 234.069 252.709 241 254L240 250L244 247L243 247L241 249L241 246L239 246z"/>
<path style="fill:#edae6b; stroke:none;" d="M291 247L292 253L289 252L290 262L294 261L293 255C295.624 252.393 293.155 249.316 291 247z"/>
<path style="fill:#d4c6c3; stroke:none;" d="M117 254L126 250C121.989 250.476 119.107 250.261 117 254z"/>
<path style="fill:#7a4e29; stroke:none;" d="M158 285L158 286C166.369 285.143 172.954 279.539 180 275.425C193.318 267.649 213.92 261.767 224 250L207 258.113L158 285z"/>
<path style="fill:#b5a5a6; stroke:none;" d="M103 252L108 255C107.346 251.946 105.993 252.064 103 252z"/>
<path style="fill:#f0a98d; stroke:none;" d="M204 269L204 273L198 276L198 277C209.995 275.35 219.238 266.189 229.285 260.117C233.288 257.697 237.478 257.153 240 253C226.557 253.697 216.183 264.565 204 269z"/>
<path style="fill:#e2704e; stroke:none;" d="M239 254L215 268L215 269L241 260L239 254z"/>
<path style="fill:#bf3727; stroke:none;" d="M155 291L155 290L157 290L157 289L153 290L153 285L152 285C150.343 287.739 147.777 291.076 152 292C147.207 297.28 139.005 303.392 132 305C131.285 310.245 120.572 312.164 116.128 314.358C104.852 319.927 94.442 328.031 83 333.47C78.1383 335.781 70.7385 336.496 69 342L64 342L63 346C71.3246 344.679 79.557 338.442 87 334.535C101.193 327.086 114.92 319.505 129 311.822C136.851 307.537 143.559 299.434 153 300C153.193 291.612 164.798 290.517 171 287.525C182.495 281.98 193.546 275.21 205 269.478C210.232 266.86 217.75 263.977 221 259L155 291z"/>
<path style="fill:#eb9681; stroke:none;" d="M155 305L155 306C178.43 299.25 203.215 284.654 223.914 272.01C230.245 268.143 242.575 268.728 244 260C232.956 260.099 222.548 267.629 213 272.706C193.298 283.183 174.032 293.31 155 305z"/>
<path style="fill:#d99c5d; stroke:none;" d="M291 261L275 268L276 272C280.838 271.853 283.349 270.702 285 266L292 270L293 270L293 261L291 261z"/>
<path style="fill:#5e5260; stroke:none;" d="M293 261L293 278L294 278L300 265L295 268L294 268L293 261z"/>
<path style="fill:#d26143; stroke:none;" d="M274 262L276 272L274 262z"/>
<path style="fill:#d4664b; stroke:none;" d="M220 275L245 267C238.603 263.561 224.438 269.882 220 275z"/>
<path style="fill:#842400; stroke:none;" d="M260 270L256 266C247.619 270.621 256.993 280.383 260 270z"/>
<path style="fill:#9a934f; stroke:none;" d="M285 266L281 273C284.904 271.658 286.851 269.999 288 266L285 266z"/>
<path style="fill:#f5a17d; stroke:none;" d="M206 287C215.788 286.545 239.74 275.541 245 267C234.159 268.926 212.156 277.61 206 287z"/>
<path style="fill:#c9b091; stroke:none;" d="M291 267C284.401 270.739 280.59 272.016 273 272L270 291C278.449 288.81 291.257 282.787 292 273L273 283L291 267z"/>
<path style="fill:#f2c5b2; stroke:none;" d="M12 278C12.655 287.781 7.80496 286.177 0 286L0 291C11.2338 290.969 20.5402 290.673 30.9606 286.119C41.8291 281.369 48.5244 273.905 61 273C59.8686 266.221 53.288 268.161 48 269.015C35.8079 270.983 24.0932 275.517 12 278z"/>
<path style="fill:#bd4e43; stroke:none;" d="M192 283L221 269C214.868 267.137 195.453 277.768 192 283z"/>
<path style="fill:#e28b5e; stroke:none;" d="M228 279L245 272L245 277L246 277L245 269L228 279z"/>
<path style="fill:#562a05; stroke:none;" d="M304 269L304 275L295 275C292.909 280.033 295.159 285.22 293.061 289.985C290.155 296.584 274.611 305.105 268 307L262 315L261 306L248.856 320.816L200.001 355.495L175.286 380.71L160.17 389.759L144 403L138 411C149.973 409.252 161.428 398.354 174 395.529C183.162 393.47 190.908 399.676 200 397.447C230.614 389.941 253.832 372.809 280 356.894C290.635 350.426 299.181 343.225 308.758 335.379C312.966 331.931 319.748 328.019 322.062 322.957C326.966 312.226 323 291.777 323 280L304 269z"/>
<path style="fill:#f0967b; stroke:none;" d="M203 270C188.799 276.759 173.881 283.697 161.985 293.985C158.657 296.864 154.396 298.296 152 302C159.795 305.077 167.935 292.871 174 289.333C179.242 286.276 186.257 285.111 191.667 282.5C193.76 281.49 201.093 278.345 198 277L203 270z"/>
<path style="fill:#d9ca9f; stroke:none;" d="M273 283C278.61 281.224 290.067 275.841 292 270C285.442 270.931 275.254 276.582 273 283z"/>
<path style="fill:#b27f64; stroke:none;" d="M292 270L287 283L293 282L292 270z"/>
<path style="fill:#e59c79; stroke:none;" d="M73 368L72 365L110 344L110 343C91.225 346.62 74.6619 363.472 58 372C58.7241 362.428 72.6394 360.38 79.5748 355.289C89.8063 347.78 101.13 342.885 111.999 336.374C126.713 327.56 140.84 317.068 156 309L156 308C144.302 309.488 136.105 316.998 126 322.37C101.653 335.312 78.2708 350.183 54 363L58 354L51 352L50 352L49 358L54 356L51 366C55.5996 370.258 52.0661 374.363 52 380L59 380L63 380L73 373L77 376L78 376L79 376L82 374L82 375C77.4738 376.796 71.1373 378.286 72 384L65 388L78 384L78 388L74 387L74 392C78.4588 391.031 81.6413 389.529 83 385L85 387C99.9563 381.442 114.312 369.413 128 361.103C133.269 357.904 140.153 355.278 142 349C150.136 349.85 160.004 340.617 167 336.721C186.591 325.809 206.408 315.312 226 304.35C232.966 300.452 246.466 296.128 249 288C234.175 292.693 218.67 302.336 205 309.78C182.127 322.236 158.893 334.749 137.41 349.71C127.551 356.575 116.798 362.186 107 368.978C99.452 374.21 89.2675 381.672 80 383L80 378C90.4411 377.306 100.189 368.452 108.985 363.411C132.733 349.802 158.186 336.308 180.285 320.152C187.655 314.764 205.423 310.908 208 302L185.91 311.445L104 359C117.509 344.261 140.111 336.237 157 325.938C164.055 321.637 172.259 317.957 178.791 312.946C182.923 309.776 184.922 305.974 190 304L190 305L187 308L196 304L195 299C207.304 303.278 215.22 290.508 227 289C221.615 293.847 214.166 294.08 212 302C219.977 299.948 243.525 293.021 246.967 284.812C248.908 280.182 245.65 276.465 245 272L213 287.191L151 321.772L73 368z"/>
<path style="fill:#c76148; stroke:none;" d="M272 273L272 280L273 280L272 273z"/>
<path style="fill:#d9b7ad; stroke:none;" d="M97 279L106 274L97 279z"/>
<path style="fill:#8f863b; stroke:none;" d="M151 274L151 275L154 275L154 279L152 281L159 280L157 277L160 277L160 275L155 276L151 274z"/>
<path style="fill:#aa7958; stroke:none;" d="M174 276L177 274L174 276z"/>
<path style="fill:#df665b; stroke:none;" d="M171 285L190 275C184.364 272.705 173.526 279.897 171 285z"/>
<path style="fill:#6f7827; stroke:none;" d="M63 331L87 316L138 291L154 279L154 275C147.309 276.986 143.986 284.92 137.741 287.765C119.019 296.295 99.4803 304.122 81.7292 315.6C75.6163 319.553 65.1651 323.64 63 331z"/>
<path style="fill:#c2412e; stroke:none;" d="M86 349L86 350L92 349C94.6517 351.522 98.1806 348.822 101 347.269C108.84 342.951 116.254 337.918 124 333.434C138.534 325.021 151.559 314.136 166 305.746C184.572 294.957 204.498 286.901 223 276C214.101 272.53 193.855 287.798 185.985 292.016C180.868 294.759 175.025 295.85 169.961 298.492C153.026 307.325 136.838 319.98 120.285 329.981C109.392 336.562 98.3384 345.387 86 349z"/>
<path style="fill:#d3633d; stroke:none;" d="M109 342L110 344L72 365L73 368C126.845 343.327 172.102 300.625 228 280C220.391 277.368 201.55 290.051 194.54 293.911C174.569 304.909 155.415 316.895 135.91 328.602C127.21 333.824 117.685 336.496 109 342z"/>
<path style="fill:#982000; stroke:none;" d="M249 292L269 284L267 287L270 296L271 296L272 279C263.655 280.736 253.708 284.449 249 292z"/>
<path style="fill:#b79454; stroke:none;" d="M152 283L156 283C154.42 280.854 153.538 280.83 152 283z"/>
<path style="fill:#d4aa82; stroke:none;" d="M151 282L105 306.309L60 334L61 339C68.9172 336.531 76.6919 328.37 84 324.031C100.108 314.468 117.285 307.518 134 299.37C140.401 296.25 153.008 290.824 151 282z"/>
<path style="fill:#e4927d; stroke:none;" d="M278 286L278 287L281 288C275.298 290.698 270.332 293.239 273 300C280.909 297.931 292.794 290.504 293 282L278 286z"/>
<path style="fill:#924b39; stroke:none;" d="M293 282L292 290L293 282z"/>
<path style="fill:#9d5a2d; stroke:none;" d="M151 286L153 285L153 286L153 290L161 287L161 286L158 286L158 285L160 285C156.58 283.185 153.286 282.515 151 286z"/>
<path style="fill:#b93c2a; stroke:none;" d="M149 307L149 308L156 308L156 307L153 306L192 284C187.16 282.022 182.181 285.473 178.039 287.965C168.111 293.938 158.837 300.928 149 307z"/>
<path style="fill:#bc3718; stroke:none;" d="M250 292L251 296C257.017 293.66 266.411 290.213 269 284L250 292z"/>
<path style="fill:#f48c69; stroke:none;" d="M157 314L157 315L151 319L208 288L208 287L207 285L166 305.111L157 314z"/>
<path style="fill:#b69659; stroke:none;" d="M134 287L134 288L140 286L134 287z"/>
<path style="fill:#d28f4b; stroke:none;" d="M212 302L227 289C214.698 289.819 207.784 301.701 195 299L196 304L187 308L190 305L190 304L170 317.475L122.961 345.249L104 359C114.041 356.108 123.137 348.497 132 343.061C155.023 328.94 181.397 308.323 208 302C205.699 306.789 201.991 308.621 197 310L197 311L199 312L196 313L196 314L235 295.564L249 290C250.269 284.754 243.235 288.393 241.001 289.477C231.445 294.111 221.762 297.955 212 302z"/>
<path style="fill:#da6f4f; stroke:none;" d="M157 288L155 290L155 291L164 288L157 288z"/>
<path style="fill:#a68d77; stroke:none;" d="M271 292L281 288C276.94 286.611 273.821 289.168 271 292z"/>
<path style="fill:#db6557; stroke:none;" d="M170 293L176 288L170 293z"/>
<path style="fill:#672c00; stroke:none;" d="M259 299C267.286 298.638 270.012 296.233 269 288C262.598 289.407 257.896 291.859 259 299z"/>
<path style="fill:#cd8258; stroke:none;" d="M146 291L148 293L148 294L129 304L129 307L132 308L132 305C138.782 304.112 148.312 297.724 152 292L149 290L146 291z"/>
<path style="fill:#d64e3e; stroke:none;" d="M152 299C158.089 298.156 162.628 295.147 166 290C160.072 291.359 153.846 292.527 152 299z"/>
<path style="fill:#7f3218; stroke:none;" d="M260 305L262 315C266.266 313.501 267.659 311.479 268 307C275.642 305.793 289.633 296.604 294 290L270.675 303.272L260 305z"/>
<path style="fill:#6e5b3a; stroke:none;" d="M142 349C140.514 354.133 135.316 355.923 131 358.5C120.504 364.769 108.802 370.815 99 378.167C94.0717 381.863 88.9019 386.897 83 385L73 397L106 378.126L160.09 344.284L217 311.641L250 292C241.818 292.006 231.194 300.924 224 304.909C205.013 315.425 186.102 325.876 167 336.16C159.499 340.198 150.595 348.558 142 349z"/>
<path style="fill:#9d3009; stroke:none;" d="M256 305L240 326C252.462 321.31 255.923 302.514 270 305L265 302L266 298L259 299L261 292C253.418 290.442 247.275 302.113 256 305z"/>
<path style="fill:#b25037; stroke:none;" d="M280 297L290 292C285.819 290.643 282.135 293.484 280 297z"/>
<path style="fill:#e6c2b4; stroke:none;" d="M48 317L50 313L51 313L51 321L53 321C53.9521 316.185 56.0693 313.691 61 313L61 312C56.6125 303.117 67.3393 294.929 75 293C61.4172 287.86 47.436 305.089 48 317z"/>
<path style="fill:#7d5225; stroke:none;" d="M64 339C84.5993 332.17 104.159 316.169 124 306.781C131.876 303.054 143.823 300.467 148 292C127.011 298.058 106.474 312.037 87 321.921C79.3832 325.786 67.9697 331.165 64 339z"/>
<path style="fill:#af5636; stroke:none;" d="M248 293L248 294L253 305L251 293L248 293z"/>
<path style="fill:#c5a79f; stroke:none;" d="M79 397C93.3729 395.528 109.939 382.212 122 374.684C151.352 356.366 180.311 337.664 210.086 320.151C219.439 314.65 228.474 308.726 238 303.536C242.48 301.096 248.39 299.118 250 294C234.839 296.736 217.031 311.442 204 319.575C176.503 336.736 147.806 352.615 120 369.399C110.19 375.32 100.79 381.745 91 387.645C86.624 390.282 80.6163 391.866 79 397z"/>
<path style="fill:#fcd7cf; stroke:none;" d="M49 295L42.2091 312L42.6474 324.576L38 339C43.7378 338.814 46.5528 336.912 47 331L48 331C48 336.973 39.8147 358.032 49 360L45 373L50 373L48 388L51 388L49 396L53 396L53 390C56.5819 394.529 51.724 400.736 51 406L55 404L54 408L61 400L56 400L60 390C55.9469 386.066 56.5662 382.364 50 382L55 368L48 370L54 356L49 358L48.3318 345.996L54 328L48 328L51 302L48 302L48 301L49 295z"/>
<path style="fill:#c53c1a; stroke:none;" d="M265 302L274 302C271.817 295.81 267.478 296.262 265 302z"/>
<path style="fill:#a07c62; stroke:none;" d="M249 297L219 315C226.286 315.441 236.324 306.64 242.999 303.248C245.788 301.83 249.838 300.572 249 297z"/>
<path style="fill:#d25d49; stroke:none;" d="M136 313L147 311L151 309L151 308L149 307L155 304L155 303L153 300C143.614 298.535 138.114 304.564 136 313z"/>
<path style="fill:#cc9a8f; stroke:none;" d="M127 374L129 377C140.452 373.03 151.062 364.334 161 357.502C179.26 344.947 196.71 332.284 216 321.281C225.064 316.111 245.782 308.768 251 300C238.755 302.183 228.54 311.389 218.004 317.335C197.891 328.685 178.38 340.317 159 352.937C148.447 359.809 138.271 368.387 127 374z"/>
<path style="fill:#a93d23; stroke:none;" d="M143 303C142.172 306.034 142.131 307.499 145 309L145 303L143 303z"/>
<path style="fill:#96846c; stroke:none;" d="M236 309L236 310C240.533 310.618 248.618 307.746 250 303L236 309z"/>
<path style="fill:#e4715e; stroke:none;" d="M153 306C156.489 308.06 159.079 307.65 161 304L153 306z"/>
<path style="fill:#df9d7d; stroke:none;" d="M72 335L72 336L89.1698 328.07L131 306C125.286 303.793 118.987 308.903 114 311.398C99.6049 318.6 86.1917 327.686 72 335z"/>
<path style="fill:#d04328; stroke:none;" d="M250 305L248 313L256 305L250 305z"/>
<path style="fill:#e5a88c; stroke:none;" d="M235 314C240.94 312.269 248.755 313.552 250 306C244.697 306.942 237.843 309.223 235 314z"/>
<path style="fill:#d45741; stroke:none;" d="M125 309L125 310L132 308L125 309z"/>
<path style="fill:#e78f7b; stroke:none;" d="M136 307C121.778 316.381 106.413 325.158 91 332.29C81.6412 336.62 68.8835 341.192 63 350C73.0671 349.992 79.648 344.564 88.0139 339.683C98.7475 333.421 109.88 327.222 121 321.727C126.15 319.182 138.717 314.187 136 307z"/>
<path style="fill:#ffcb95; stroke:none;" d="M61 310L53 321L51 321L51 313L50 313L48 328L54 331L57 327L58 327L56 331L56 332L62 328L58 320C62.1205 318.762 64.289 317.368 65 313L69 310L61 310z"/>
<path style="fill:#c93028; stroke:none;" d="M69 352C87.3021 350.685 107.62 331.784 124 323.836C130.337 320.761 141.127 315.913 145 310L122 320.713L83.412 342.236L69 352z"/>
<path style="fill:#745842; stroke:none;" d="M121 385L192 337.52L237 311C229.846 308.673 215.124 320.984 209 324.86C187.65 338.372 167.474 353.58 146 366.936C138.917 371.341 123.454 376.706 121 385z"/>
<path style="fill:#c4783e; stroke:none;" d="M100 372C116.302 366.262 129.814 355.053 144.17 345.731C162.154 334.052 180.947 323.589 199 312C191.136 309.024 179.282 319.879 173.421 324.44C166.116 330.123 157.294 333.34 149.285 337.876C139.095 343.648 129.854 351.052 120.004 357.385C113.065 361.846 103.144 363.508 100 372z"/>
<path style="fill:#d5655a; stroke:none;" d="M235 312L234 312L220 323L248 314L243 320C248.032 318.221 250.671 316.262 248 311L235 312z"/>
<path style="fill:#ee784a; stroke:none;" d="M124 333L124 334L152 320L151 317L157 315C149.194 312.324 130.767 328.453 124 333z"/>
<path style="fill:#e09576; stroke:none;" d="M117 397C129.741 393.979 142.35 381.422 153 374.039C174.372 359.224 197.893 347.644 218.435 331.88C221.794 329.303 224.958 325.793 228.845 324.073C235.915 320.945 243.868 321.895 248 314C231.358 317.418 219.953 325.936 206 335.05C187.765 346.962 169.596 358.302 152 371.244C141.343 379.082 124.997 386.638 117 397z"/>
<path style="fill:#625b49; stroke:none;" d="M67 407C107.319 395.363 143.303 363.021 178.17 340.85C186.271 335.699 194.365 330.341 203 326.109C208.529 323.399 216.671 320.34 220 315C208.333 316.84 192.998 328.161 183 334.471C158.242 350.098 134.604 367.971 109 382.218C97.3747 388.687 74.2907 395.672 67 407z"/>
<path style="fill:#93ac44; stroke:none;" d="M59 334L64 333C63.7463 324.973 72.6739 323.513 77 318C69.2465 321.118 61.6501 325.706 59 334z"/>
<path style="fill:#a33d38; stroke:none;" d="M122 390L122 391C135.759 387.881 147.754 374.594 159 366.598C181.9 350.315 205.731 335.826 229 320C221.354 317.352 208.275 330.966 202 334.714C174.886 350.907 145.391 368.717 122 390z"/>
<path style="fill:#cf5a50; stroke:none;" d="M190 348L190 349C201.893 349.885 214.585 337.866 224.424 331.959C227.827 329.917 235.592 325.027 239 327L240 327L243 321C222.553 317.396 209.254 345.432 190 348z"/>
<path style="fill:#d39983; stroke:none;" d="M109 396C114.542 395.872 119.154 392.181 121 387L125 388C132.468 378.309 147.821 371.341 158 364.617C178.803 350.873 199.189 336.709 220 323C212.867 321.106 196.021 333.994 190 338.208C163.208 356.962 132.996 373.97 109 396z"/>
<path style="fill:#be8d88; stroke:none;" d="M322 323L306.895 339.674L293 353L323 342L322 323z"/>
<path style="fill:#d96558; stroke:none;" d="M113 326L116 325L113 326z"/>
<path style="fill:#d18d78; stroke:none;" d="M102 411L102 412L105 412L98 416L99 418L95 419L96 422L86 424L87 428C101.809 423.481 112.92 408.657 125.089 399.622C141.495 387.44 160.209 374.631 178 364.569C191.401 356.989 204.86 351.899 216.259 341.665C222.899 335.705 234.904 333.011 239 325C225.434 327.221 210.602 339.838 199 346.939C166.089 367.083 135.399 391.971 102 411z"/>
<path style="fill:#d5e1a1; stroke:none;" d="M57 327C54.0825 332.577 43.6115 346.417 50 352L57 327z"/>
<path style="fill:#df7162; stroke:none;" d="M78 336L93 327C87.689 327.589 80.5739 331.271 78 336z"/>
<path style="fill:#963c22; stroke:none;" d="M204 353C213.908 349.659 234.407 335.819 240 327C228.982 331.169 210.616 343.249 204 353z"/>
<path style="fill:#ba865e; stroke:none;" d="M72 334L72 335L78 331L72 334z"/>
<path style="fill:#c6d26e; stroke:none;" d="M53 344C67.0803 337.201 53.0511 326.202 53 344z"/>
<path style="fill:#a66755; stroke:none;" d="M310 333L294 349C301.224 345.406 308.671 340.547 312 333L310 333z"/>
<path style="fill:#be674c; stroke:none;" d="M214 344L228 334L214 344z"/>
<path style="fill:#ff7d7e; stroke:none;" d="M51 348L51 355L58 354L54 363L62 351L69 352L69 350L63 350L66 346L63 345L64 342L69 342C71.0617 338.071 73.6837 337.236 78 337C67.0651 332.103 60.5317 345.417 51 348z"/>
<path style="fill:#90782e; stroke:none;" d="M56 345L65 340C60.6694 338.316 57.8434 341.239 56 345z"/>
<path style="fill:#b7a249; stroke:none;" d="M52 348L57 342L52 348z"/>
<path style="fill:#b68173; stroke:none;" d="M293 353L295 349C280.293 351.258 266.503 367.486 254 375.123C237.342 385.299 217.129 388.646 201 399L202 401L200 404L195 404L193 411L196 413L176 416L176 422C170.492 421.958 156.858 419.685 157 428C152.145 428.218 137.331 431.449 136 436L119 439C115.696 441.516 111.377 441.264 107.59 443.019C96.1849 448.307 86.0238 453.731 73 454C74.2727 461.626 81.6567 457.995 87.1698 457.963C92.3221 457.933 97.6068 459.869 102.715 458.54C111.969 456.132 120.663 448.607 130 448C132.953 441.397 137.179 439.867 144 439L152 434L150 438L151 439L153 439L160 433L176 432L177 426L190 427L191 427L207.985 421.106L249.09 394.43L265 384L266 390L272 388L272 383L297 373L304 369L307 362L312 363L313 353L323 349L323 342L293 353z"/>
<path style="fill:#dbbe78; stroke:none;" d="M51 345L49 351L53 345L51 345z"/>
<path style="fill:#ec3934; stroke:none;" d="M71 359L70 363L93 352L92 349L71 359z"/>
<path style="fill:#b95146; stroke:none;" d="M189 349C185.035 355.733 174.426 359.181 168 363.427C151.825 374.116 135.141 390.022 117 397L123 391C114.629 390.989 107.762 398.806 102 404L103 401C94.0654 407.519 82.5135 416.592 71 417L67 423L101 408L101 409C97.3357 410.975 94.6711 414.166 90.9853 416.12C83.5957 420.036 73.7499 421.353 69 429C98.8618 421.472 125.73 394.817 151 378.228C164.203 369.562 183.82 360.995 194 349L189 349z"/>
<path style="fill:#8f787e; stroke:none;" d="M313 353L312 363L307 362L304 369C300.28 368.416 298.656 369.658 297 373L272 383L272 388L266 392L262 391L262 395L257 400L256 400L256 397L241 410L241 414L236 413L236 412L240 409L234 410C235.563 418.495 221.585 425.503 214 426L216 428L216 429L208 431L205 439C202.007 439.064 200.654 438.946 200 442L195 440L187 447L187 448L217 437L217 434C223.819 433.527 227.503 428.216 233.001 424.764C247.491 415.665 263.441 399.576 280 395L280 391C288.034 388.654 293.373 382.004 300.039 377.439C302.988 375.42 307.394 373.945 306 370C317.227 365.483 323 361.348 323 349L313 353z"/>
<path style="fill:#f75956; stroke:none;" d="M62 351L58 360L71 353L62 351z"/>
<path style="fill:#dbc4bc; stroke:none;" d="M45 352L45 360L41 360C40.189 374.761 23.5963 361.772 20 372L12 374C11.7598 383.934 1.3454 384.487 0.133488 393.093C-3.95794 422.15 0 454.627 0 484L18 475L18 474L12 474L12 436L53 436L53 456C63.6214 453.939 60.774 444.639 61 436L57 437L60 432L57 431L57 425L62 424L62 423L56 423L55 412L55 404L51 406C52.0406 401.165 57.8591 393.56 53 390L53 396L49 396L51 388L48 388L50 373L45 373L49 360L45 352z"/>
<path style="fill:#b45340; stroke:none;" d="M152 382C156.432 383.516 160.457 379.854 164 377C170.941 371.409 178.411 367.199 186 362.667C189.224 360.741 195.798 355.598 199 358L204 353C198.825 351.21 192.854 356.102 188.424 358.59C175.96 365.588 162.848 372.541 152 382z"/>
<path style="fill:#d67d5d; stroke:none;" d="M197 356L142 390.656L120 408C141.571 402.117 161.754 383.612 180.715 372.073C185.753 369.007 198.604 363.367 197 356z"/>
<path style="fill:#fa5b60; stroke:none;" d="M58 372L72 361C65.0641 361.226 58.2377 364.7 58 372z"/>
<path style="fill:#98828e; stroke:none;" d="M322 360L306 370L308 372L280 391L280 395C265.943 397.435 250.464 412.453 239 420.512C234.269 423.837 228.839 425.702 226 431L232 428C236.355 432.707 251.677 421.556 255.83 418.431C273.486 405.145 292.436 393.173 308.91 378.435C314.011 373.872 325.267 367.871 322 360z"/>
<path style="fill:#ecb0a6; stroke:none;" d="M52 361L48 370L54 368L54 367L51 366L52 361z"/>
<path style="fill:#8f2903; stroke:none;" d="M170 384C177.585 380.905 185.227 373.558 190 367C181.965 369.708 170.846 374.76 170 384z"/>
<path style="fill:#adabc0; stroke:none;" d="M322 367C311.986 373.358 304.109 382.577 294.714 389.791C267.897 410.38 238.311 433.511 208 448.879C191.528 457.23 169.734 458.408 152 460.626C147.418 461.199 144.224 464.435 139.961 465.571C131.9 467.719 120.391 466.994 112 467L112 470C102.839 470.617 104.874 477.218 102 484L182 484L182 480C192.351 478.297 200.658 465.704 209.001 459.924C212.941 457.195 217.979 455.959 221.687 452.954C228.527 447.409 234.163 439.208 241.455 433.549C246.38 429.726 253.23 427.767 258.424 423.987C268.591 416.589 276.765 409.166 289 405C289.154 399.75 293.848 399.215 297.625 396.674C306.698 390.571 327.703 380.59 322 367z"/>
<path style="fill:#dd9855; stroke:none;" d="M80 378L80 383C86.8316 382.508 100.891 376.184 104 370L100 372L101 369L80 378z"/>
<path style="fill:#efb877; stroke:none;" d="M73 373L63 380L59 380L52 380L52 376L51 376L50 382L58 382L58 387L61 387L62 396C68.128 394.541 75.6741 395.666 74 387L78 388L78 384L65 388L72 384C72.2502 378.506 77.7323 377.373 82 375L82 374L79 376L78 376L73 373z"/>
<path style="fill:#a3573d; stroke:none;" d="M248 377L248 378L257 374L248 377z"/>
<path style="fill:#c0aeaa; stroke:none;" d="M73 404L73 405L76 405L76 406L73 408C87.419 404.909 102.562 393.729 115 386.089C120.042 382.991 126.197 380.412 129 375L108 385.988L73 404z"/>
<path style="fill:#c68775; stroke:none;" d="M321 378C314.928 385.351 305.178 390.549 297.625 396.12C293.667 399.039 288.787 399.237 289 405C275.632 408.175 267.652 417.375 256.729 424.59C251.8 427.845 245.159 429.929 240.71 433.549C233.713 439.241 227.767 447.897 220.853 452.954C216.248 456.321 210.605 457.815 206.043 461.379C198.615 467.182 191.227 477.271 182 480L182 484C194.559 483.956 211.947 467.032 221.464 458.913C243.261 440.316 269.266 422.618 293.001 406.425C302.426 399.995 322.596 390.612 323 378L321 378z"/>
<path style="fill:#b34c2d; stroke:none;" d="M90 431L90 432C97.7282 432.993 104.025 423.712 110.004 419.593C123.036 410.616 136.679 402.59 149.87 393.87C155.783 389.961 162.724 383.966 170 384L171 379C162.844 379.451 155.549 387.324 149 391.784C140.1 397.846 129.111 401.943 120.706 408.481C112.168 415.123 100.476 428.303 90 431z"/>
<path style="fill:#f8e2a8; stroke:none;" d="M55 382L55 383L60 390L56 400L63 400L66 396L66 395L62 396L61 387L58 387L58 382L55 382z"/>
<path style="fill:#a93f25; stroke:none;" d="M109 415L134 396.519L153 382C147.82 383.539 144.352 386.913 140 389.957C130.524 396.584 112.8 403.173 109 415z"/>
<path style="fill:#6b645c; stroke:none;" d="M73 410C85.7436 407.807 97.1574 399.533 108 393C112.577 390.242 118.328 387.744 121 383L88 400.759L73 410z"/>
<path style="fill:#d7825d; stroke:none;" d="M62 447L63 444L59 443L62 450L63 450C70.6501 445.022 79.7013 443.077 87.7145 438.965C108.034 428.537 127.064 414.975 144.999 401.134C152.003 395.729 163.721 390.82 168 383L143.83 397.291L94.8156 431.444L62 447z"/>
<path style="fill:#a38386; stroke:none;" d="M264 384C260.839 391.643 254.952 389.871 249.09 393.742C234.793 403.182 222.561 413.539 206.996 421.106C202.011 423.529 194.269 422.467 191 427L190 427C186.667 422.375 181.878 426.149 177 426L176 432L160 433L153 439L151 439L150 438L152 434C148.342 434.551 145.099 435.226 144 439C137.193 439.538 131.974 440.781 130 448L99.9606 458.856L76.1443 458.392L65 452L65 453L68 453C67.9042 456.962 64.2266 462.275 64.9059 465.682C66.1375 471.859 74.9999 464.286 77 463L80 466L80 462L95.0147 463.942L127 462.715L169 454C175.403 444.119 189.199 452.303 195 440L200 442L205 439L208 431L216 429L216 428L214 426C221.785 425.769 236.449 418.993 234 410L240 409L236 412L236 413L241 414L241 410C245.694 408.464 252.273 395.486 256 400L257 400L262 395L262 391L266 392L264 384z"/>
<path style="fill:#8a5d48; stroke:none;" d="M322 384L320 387L322 384z"/>
<path style="fill:#a76147; stroke:none;" d="M229 387L229 388L235 386L229 387z"/>
<path style="fill:#cfaaa1; stroke:none;" d="M62 423C66.2399 422.38 68.9471 420.794 71 417C80.7588 418.204 93.5764 408.683 101.155 403.151C104.518 400.697 108.247 399.324 109 395L120 386C110.962 388.88 103.162 395.812 95 400.535C84.1923 406.79 67.0013 410.618 62 423z"/>
<path style="fill:#543719; stroke:none;" d="M192 483L192 484L323 484L323 386C310.345 389.758 296.377 405.082 285.83 413.279C267.557 427.482 248.124 440.18 230 454.376C221.173 461.289 211.994 467.216 203.005 473.805C199.089 476.675 196.309 480.867 192 483z"/>
<path style="fill:#c86663; stroke:none;" d="M121 387L120 391L125 389L121 387z"/>
<path style="fill:#94543b; stroke:none;" d="M220 390L220 391L224 391L220 390z"/>
<path style="fill:#a74c1f; stroke:none;" d="M136 410L144 403C149.922 402.061 154.555 396.637 158 392C150.463 395.253 139.567 402.508 136 410z"/>
<path style="fill:#7b5234; stroke:none;" d="M301 402L312 393L301 402z"/>
<path style="fill:#729650; stroke:none;" d="M64 396L66 401L73 395L64 396z"/>
<path style="fill:#bdc69b; stroke:none;" d="M66 401L64 397L63 397C63.1609 410.578 73.9348 401.093 81 398L79 395L66 401z"/>
<path style="fill:#b5715c; stroke:none;" d="M77 451L78 449L72 454C85.316 453.963 96.0258 449.211 107.59 443.423C111.187 441.623 116.414 441.975 119 439L136 436C138.808 431.41 151.566 428.708 157 428L156 425L176 422L176 416L196 413L193 411L195 404L200 404L202 401L201 399L208 396C203.486 394.518 198.83 398.156 194 397.931C186.558 397.584 180.893 393.755 173 395.529C135.632 403.926 113.706 443.428 77 451z"/>
<path style="fill:#b3d4b9; stroke:none;" d="M61 399C58.2688 404.616 54.0898 412.536 64 411L62 417L66 416C66.2115 411.395 72.1303 408.153 76 406L76 405L63 408L65 406L65 405L61 399z"/>
<path style="fill:#dd7d71; stroke:none;" d="M102 404L105 401L102 404z"/>
<path style="fill:#926047; stroke:none;" d="M270 424L301 403C293.619 401.794 273.871 417.964 270 424z"/>
<path style="fill:#994c32; stroke:none;" d="M143 409L143 410L154 404L143 409z"/>
<path style="fill:#7eb08d; stroke:none;" d="M63 408L68 408L67 405L63 408z"/>
<path style="fill:#dde9dd; stroke:none;" d="M56 406L55 412L56 423C61.1691 422.829 63.6606 421.09 65 416L62 417L64 411C59.269 411.244 58.1433 409.986 56 406z"/>
<path style="fill:#da927a; stroke:none;" d="M81 417L81 418C89.5013 419.777 94.8464 413.841 101 409L81 417z"/>
<path style="fill:#d86a51; stroke:none;" d="M109 415L109 413L106 414L108 416L108 417L96 427C102.806 424.304 117.639 414.981 120 408L109 415z"/>
<path style="fill:#90300a; stroke:none;" d="M102 434L98 441L140 413L140 408L102 434z"/>
<path style="fill:#99b9a4; stroke:none;" d="M65 415L78 409C72.9653 409.655 66.811 409.486 65 415z"/>
<path style="fill:#dfa597; stroke:none;" d="M69 429L83 420L83 418C73.838 419.312 65.5335 424.714 59 431L61 424L57 425L57 431L60 432L57 437L61 436L61 440L96 422L95 419L99 418L98 416L105 412L69 429z"/>
<path style="fill:#ba462d; stroke:none;" d="M87 426C79.4328 428.935 65.529 431.875 64 441C76.0466 435.12 102.523 428.801 108 415C103.115 417.142 91.863 429.32 87 426z"/>
<path style="fill:#a84621; stroke:none;" d="M89 439C97.0608 436.454 102.63 430.34 110 426.553C116.882 423.017 125.343 422.652 129 415C117.511 418.66 95.6349 428.577 89 439z"/>
<path style="fill:#a84f2f; stroke:none;" d="M114 432C120.943 430.092 130.705 421.599 135 416C128.073 418.914 117.428 425.117 114 432z"/>
<path style="fill:#cd7766; stroke:none;" d="M71 421L71 422L78 420L71 421z"/>
<path style="fill:#d07282; stroke:none;" d="M59 431L68 423C61.9819 422.532 60.4724 425.753 59 431z"/>
<path style="fill:#9c6547; stroke:none;" d="M248 441C255.968 437.265 264.707 431.065 270 424C262.865 427.064 252.03 434.301 248 441z"/>
<path style="fill:#e07b51; stroke:none;" d="M65 451L65 452C75.284 451.605 84.1348 446.447 93 441.573C97.0733 439.333 101.123 439.066 102 434C106.489 432.744 111.406 429.514 113 425L90 439.965L65 451z"/>
<path style="fill:#a597a6; stroke:none;" d="M232 428L217 434L217 437C207.47 437.662 199.782 445.634 190.914 447.732C183.396 449.511 172.833 445.313 169 454C155.839 451.42 139.26 461.128 126 462.715C116.602 463.839 105.439 464.708 96.0039 463.942C89.8746 463.445 86.5241 460.789 80 462L80 466L77 463L68 468C67.1734 475.958 71.4541 477.92 75 484C81.6631 484 96.0502 486.73 101.682 482.972C107.648 478.991 101.952 471.348 112 470L112 467C120.795 466.999 131.338 467.354 139.961 465.772C144.268 464.982 147.513 461.673 152 461C170.448 458.234 190.504 456.94 208 449.352C221.124 443.66 231.518 431.715 245 427L232 428z"/>
<path style="fill:#d37248; stroke:none;" d="M61 444L62 447L92 434L90 432L90 431L96 427C84.0794 430.499 69.504 434.412 61 444z"/>
<path style="fill:#fff7f4; stroke:none;" d="M12 436L12 474L18 474L18 475L1 484L21 482C26.7283 470.947 42.6369 474 53 474C53.0015 460.261 61.6722 462.796 67 453L65 451L64 451L63 451L53 456L53 436L12 436z"/>
<path style="fill:#7b4426; stroke:none;" d="M245 445L256 438C251.506 437.349 247.174 441.304 245 445z"/>
<path style="fill:#ab6a66; stroke:none;" d="M63 438L60 444L63 438z"/>
<path style="fill:#d5663b; stroke:none;" d="M61 453L93 439C84.6794 437.099 64.771 445.625 61 453z"/>
<path style="fill:#f9d9cc; stroke:none;" d="M27 439L27 440L36 440L27 439z"/>
<path style="fill:#ae421b; stroke:none;" d="M77 451C87.9119 449.531 92.9666 446.323 102 441L102 440L98 441L99 439C92.5576 440.548 80.8137 445.539 77 451z"/>
<path style="fill:#d49083; stroke:none;" d="M18 451L19 451C27.2896 436.708 35.4959 444.02 46 450C41.4234 436.651 20.943 436.414 18 451z"/>
<path style="fill:#9b654b; stroke:none;" d="M230 454L248 442C242.916 441.164 232.677 449.797 230 454z"/>
<path style="fill:#c0d3bf; stroke:none;" d="M26 445L26 446L36 445L26 445z"/>
<path style="fill:#f1c8c2; stroke:none;" d="M20 448L24 455L25 455L25 452L28 453L20 448z"/>
<path style="fill:#cdb2b7; stroke:none;" d="M30 448L30 452L27 451L28 455L33 455L35 451L34 454L39 454L38 449L30 448z"/>
<path style="fill:#927f83; stroke:none;" d="M39 449L39 453L40 453L39 449z"/>
<path style="fill:#ffccb1; stroke:none;" d="M44 450C44 453.995 44.0306 457.758 41 457L41 460L44 461L44 450z"/>
<path style="fill:#c3604d; stroke:none;" d="M45 450L43 463C46.9534 459.347 46.9858 455.144 47 450L45 450z"/>
<path style="fill:#ccb9b5; stroke:none;" d="M17 451L18 460L19 460L17 451z"/>
<path style="fill:#927f81; stroke:none;" d="M32 451L32 454L33 454L32 451z"/>
<path style="fill:#7c766a; stroke:none;" d="M22 452L25 456L22 452z"/>
<path style="fill:#725f59; stroke:none;" d="M25 452L25 455L26 455L25 452z"/>
<path style="fill:#bec5d8; stroke:none;" d="M67 453C59.5176 462.107 53 460.323 53 474C43.682 474 24.6066 470.438 21 482L14 483L14 484L75 484L68 468L67 453z"/>
<path style="fill:#ac6f52; stroke:none;" d="M218 463L230 454C224.76 455.514 220.45 457.996 218 463z"/>
<path style="fill:#b89997; stroke:none;" d="M34 455L34 459L33 459L33 457L32 457L31 460L28 458L28 462L37 461L38 461L36 455L34 455z"/>
<path style="fill:#cdb7b9; stroke:none;" d="M38 456L40 461L40 457L43 458L38 456z"/>
<path style="fill:#765955; stroke:none;" d="M40.3333 457.667L40.6667 458.333L40.3333 457.667z"/>
<path style="fill:#7c6d68; stroke:none;" d="M30.3333 458.667L30.6667 459.333L30.3333 458.667z"/>
<path style="fill:#b4a19d; stroke:none;" d="M21 461L24 461L22 459L21 461z"/>
<path style="fill:#4f3536; stroke:none;" d="M24 459L25 464L26 464L24 459z"/>
<path style="fill:#522e32; stroke:none;" d="M22 460C22.0642 462.993 21.9461 464.346 25 465L25 464L22 460z"/>
<path style="fill:#e9c6ca; stroke:none;" d="M23 461L23 464L25 464L25 461L23 461z"/>
<path style="fill:#c67b75; stroke:none;" d="M42 462C36.4843 466.655 32.1284 468.304 25 467C29.8112 472.506 40.4202 467.713 44 463L42 462z"/>
<path style="fill:#a96945; stroke:none;" d="M191 482C199.055 479.131 213.522 470.232 218 463C209.88 466.123 195.075 474.104 191 482z"/>
<path style="fill:#ffd3c3; stroke:none;" d="M27 469L27 470L36 470L27 469z"/>
<path style="fill:#7f4c2f; stroke:none;" d="M190 484L197 480L190 484z"/>
</svg>
