<?xml version="1.0" standalone="yes"?>
<svg width="417" height="626">
<path style="fill:#e6e6e8; stroke:none;" d="M0 0L0 3L44 3.10419L64 8L64 7L58 5L72 5L72 8L83 8L80 10L81.6867 20.9252L78 40L85 40L85 48L90 48L90 56L93 56L93 64L98 64L98 80L102 80L102 64L104 64L106 104L109 104L109 112L104 112L104 120L109 120L109 128L112 128L112 120L114 120L114 144L118 144L120 128L122 128L120 160L125 160L125 200L122 200L122 208L117 208L117 216L120 216L122 240C106.558 239.477 112 260.333 112 272L100 272L100 280L96 280L95 294L100 294C101.194 299.101 102.475 302.237 97 305L98 300L80 302L80 303L88 303C89.6291 307.94 95.2465 308.86 100 309L99 315L100 315L100 312C104.436 311.997 108.57 312.207 111 308L103 306L104 296L124.961 297.765L170 300L168 291L176 291L176 296L199 290L196 284L192 284L192 275L200 275L200 280L202 280L202 264L205 264L205 256L207 256L207 264L208 264L208 220L216 220L214 208L210 208L210 216L204 216L204 208L197 205L197 203L204 200L204 192L213 192L213 184L216 184L216 180L208 180L208.039 155L209.603 145.603L224 144L224 131L207 133.942L176 134L176 136L184 136L184 137L176 137L176 150L168 150L171 147L171 144L168 144L168 136L174 136L174 128L171 128L171 120L163 120L163 112L176 112L176 96L180 96L180 80L176 80L176 72L180 72L180 70L174 68L174 72L170 72L170 68L168 68L168 72L164 72L164 48L160 48L160 28L168 28L168 8L172 8C168.394 1.46106 151.034 3.01941 144 3L144 0L0 0z"/>
<path style="fill:#e3e3e3; stroke:none;" d="M144 0L144 3C151.872 3.06519 166.765 1.71466 172 8L168 8L168 28L160 28L160 48L164 48L164 72L168 72L168 68L170 68L170 72L174 72L174 68L180 70L180 72L176 72L176 80L180 80L180 96L176 96L176 112L163 112L163 120L171 120L171 128L174 128L174 136L168 136C168 139.511 167.013 143.146 171 144L171 147L168 150L176 150L176 137L184 137L184 136L176 136L176 134L208 133.942L224 131L224 144L209.603 145.028L208.004 154L208 180L216 180L216 184L213 184L213 192L204 192L204 200L197 203L197 205L204 208L204 216L210 216L210 208L214 208L216 220L208 220L208 264L207 264L207 256L205 256L205 264L202 264L202 280L200 280L200 275L192 275L192 284L200 286L208 282L224 286L232 282L232 289L242 289L241 279L240 279L240 288L236 288L236 280L232 280L232 276L244 274L244 278L252 280L252 286C256.083 285.407 258.194 283.685 260 280L256 280L256 263L258 263L258 272L262 272L262 261L262 260L262 259L264 250C269.553 253.106 271.923 255.531 272 262L280 256L277 248L272 248C272 240.598 270.605 232.644 280 232C275.959 225.337 272.007 224.733 272 216L268 216L268 208L264 208L263.816 176L260 152L264 152L264 144L260 144L260 128L264 128L264 127L248 128L248 120L240 120L240 118L248 118L248 114L240 114L240 112L244 112L244 96L248 96C244.431 90.1164 238.559 88.0225 232 88L232 80L224 80L224 88L216 88L216 80L220 80L219.005 64.3002L220 55L226 54L227 53L227 51L224 50L226 40C231.71 39.8314 238.18 37.8979 240 32L234 32L234 24L231 24L231 8L232 8L232 13L240 13L240 4L252 2L252 0L144 0z"/>
<path style="fill:#dfdedc; stroke:none;" d="M240 4L240 13L232 13L232 8L231 8L231 24L234 24L234 32L240 32C237.319 37.2291 231.712 39.6287 226 40L224 50L227 51L227 53L226 54L220 55L218.853 64.0394L220 80L216 80L216 88L224 88L224 80L232 80L232 88C238.691 88.0748 243.508 91.0939 248 96L244 96L244 112L240 112L240 114L248 114L248 118L240 118L240 120L248 120L248 128L264 127L264 128L260 128L260 144L264 144L264 152L260 152L263.816 177L264 208L268 208L268 216L272 216C272.001 224.706 274.44 225.927 280 232C270.212 232.297 272 240.315 272 248L277 248C277 251.511 276.013 255.146 280 256L272 262C271.977 255.413 270.36 252.42 264 250L262 259L262 260L262 261L262 272L258 272L258 263L256 263L256 280L260 280L252 286L252 280L244 278L244 274L232 276L232 280L236 280L236 288L240 288L240 279L241 279L242 289L232 289L232 282L224 286L208 282L200 286L196 284L199 290L176 296L176 291L168 291L170 300L157 301L157 302L171 306L163 306L163 303L153 303L151 308L150 308C149.332 294.639 137.076 299.155 128 297L129 300C123.356 299.555 114.65 296.408 112 303L123 303L110 305C109.003 296.268 104.281 299.34 103 306L111 308L108 312L128 313C132.654 305.795 143.01 311.857 149 314L148 312L149 312L162 312L177 312.199L220 309C221.158 312.294 222.668 312.638 226 312L222.039 348L217 458L241 451L241 450L237 450L237 449L243 448L242 450L243 450L247 448L248 448C249.052 451.202 252.106 453.805 255 451L268 453L266 450L271 452L270 449L274 449L274 448L272 448L272 447L276 451L277 448C283.476 452.539 290.204 453.999 298 454L298 459L301 457L302 457C307.59 462.871 327.705 456.026 336 457L336 446L356 442L356 446L358 446L358 432C364.92 431.995 367.911 431.523 368 424L376 424L376 421L368 421L368 416L371 416L371 408L368 408L368 401L360 401L360 400L384 400L384 384L353 384L352 396C346.603 394.61 341.39 389.397 340 384L336 384L335 400L333 400C333 395.595 335.151 385.104 330 384L336 375L324 373L324 371L336 369L333 352L342 352L342 360L352 360L352 358L344 358L344 354L352 354L349 352L348 336L346 336L346 344L336 346L338 336L334 336L334 328L338 328L338 304L342 304L342 312L347 308L344 307L344 296L341 296L344 286L335 285L336 280L346 280L346 272L352 272C351.994 264.438 350.814 262.966 344 260L357 256L357 248L354 248L355 230C348.108 222.699 351.975 209.054 352 200L358 200L357 184L352 184L352 192L348 192L349 168L344 168L344 165L352 165L352 144L360 144L358 120L354 120L355 96L344 96L344 93L334 96L334 80L331 80L331 72L326 72L326 64L320 64C320.055 57.3275 322.077 50.6744 321.907 44.0394C321.715 36.5635 317.918 30.3398 322 23C320.752 19.1328 322.479 17.6445 326 16L326 8L323 8C321.563 -2.71204 310.263 0 302 0C286.802 0 271.195 -1.03577 256.039 0.0540161C250.332 0.464417 245.96 3.93402 240 4z"/>
<path style="fill:#dddcda; stroke:none;" d="M320 0L323 8L326 8L326 16C322.299 17.0585 319.396 19.3121 322 23C317.414 29.5469 321.46 37.0256 321.782 44.0394C322.083 50.62 320.018 57.3562 320 64L326 64L326 72L331 72L331 80L334 80L334 96L336 93L344 93L344 96L355 96L354 120L358 120L360 144L352 144L352 165L344 165L344 168L349 168L348 192L352 192L352 184L357 184L358 200L352 200C351.934 207.996 347.429 224.54 355 230L354 248L357 248L357 256L344 260C349.928 263.654 351.973 264.457 352 272L346 272L346 280L336 280L335 285L344 286L341 288L341 296L344 296C344 300.609 342.794 305.232 347 308L342 312L342 304L338 304L338 328L334 328L334 336L338 336L336 346L346 344L346 336L348 336C348.017 342.277 347.967 348.956 352 354L344 354L344 358L352 358L352 360L342 360L342 352L333 352L336 369L324 371L324 373L336 375L330 384C334.717 387.058 333 394.926 333 400L335 400L336 384L340 384C340.836 389.74 346.26 395.164 352 396L353 384L397 384L397 360L400 360L400 348L399 348L398 352L389 350L390 347L393 348L395 343L392 340C395.464 339.636 399.194 339.76 400 336L395 337L395 336L397 328L392 328L394 312L397 312L397 304L394 304L394 296L405 296L405 272L392 270L392 266L400 266L400 269L408 269L408 256L405 256L405 248L396 248L396 232L384 232L384 231C390.389 230.982 397.732 229.888 400 223L394 224L394 223L398 221L398 219L394 217L396 200L392 200L392 191L384 191L384 200L380 200L380 184L376 184L371 168L376 168L376 176L388 176L387 160L381 157L381 155L384 152L380 152L380 136L386 135L388 152L391 152L390 133L390 132L390 131C393.041 128.286 390.825 125.005 389 122L387 122L380 128L380 120L384 120L384 104L380 104L380 96L372 96L372 88L384 87L384 84C371.715 83.8545 373 73.5239 373 64L370 64L370 56L365 56L365 40L357 40L357 16L360 16L360 7L355 6L355 5L360 2L320 0z"/>
<path style="fill:#dbdad8; stroke:none;" d="M352 0L352 2L360 2L355 5L355 6L360 7L360 16L357 16L357 40L365 40L365 56L370 56L370 64L373 64C373 74.0663 371.253 83.9548 384 84L384 87L372 88L372 96L380 96L380 104L384 104L384 120L380 120L380 128L387 122L389 122L390 131L390 132L390 133L391 152L388 152L386 135L380 136L380 152L384 152L381 155L381 157L387 160L388 176L376 176L376 168L371 168L376 184L380 184L380 200L384 200L384 191L392 191L392 200L396 200L394 217L398 219L398 221L394 223L394 224L400 223C396.7 229.032 390.522 230.941 384 231L384 232L396 232L396 248L405 248L405 256L408 256L408 269L400 269L400 266L392 266L392 270L405 272L405 296L394 296L394 304L397 304L397 312L394 312L392 328L397 328L395 336L395 337L400 336L392 340L395 343L393 348L389 350L398 352L399 348L400 348L400 360L397 360L397 384L384 384L384 400L360 400L360 401L368 401L368 408L371 408L371 416L368 416L368 421L376 421L376 424L368 424C367.771 431.036 364.473 431.977 358 432L358 446L356 446L356 442L336 446L336 457C326.425 455.25 309.793 462.595 302 457L301 457L298 459L298 454L276 451L276 448L272 447L272 448L274 448L274 449L270 449L271 452L266 450L268 453L255 451C251.621 452.523 249.685 451.08 248 448L247 448L242 450L243 448L242 448L237 449L237 450L241 450C239.712 453.865 251.263 457.816 256 459C260.337 460.084 267.829 455.738 272 454C279.856 450.727 286.259 461.091 290 464C293.302 466.568 301.048 462.81 300 467L308 465L308 468C311.829 467.696 313.173 466.795 314 463L346 466C349.872 463.053 362.718 462.945 367 465L368 465L375 464L376 464L383 459L384 459C388.424 464.062 409.998 458 417 458L417 0L352 0z"/>
<path style="fill:#eeeef0; stroke:none;" d="M0 3L0 456L58.1698 451.924L80 458L80 453L85 454L85 418L81.054 360L77 318L105 319L105 318C100.508 315.861 99.3466 313.974 100 309C95.2099 308.689 90.3859 307.37 88 303L80 303L80 302L98 300L97 305C103.017 303.173 101.739 298.87 100 294L95 294L96 280L100 280L100 272L112 272C112 260.61 106.736 239.819 122 240L120 216L117 216L117 208L122 208L122 200L125 200L125 160L120 160L122 128L120 128L118 144L114 144L114 120L112 120L112 128L109 128L109 120L104 120L104 112L109 112L109 104L106 104L104 64L102 64L102 80L98 80L98 64L93 64L93 56L90 56L90 48L85 48L85 40L78 40L81.8889 21.9167L83 8L72 8L72 5L58 5L64 7L45 3.10419L0 3z"/>
<path style="fill:#a5aa82; stroke:none;" d="M106 295L106 296L118 296L106 295z"/>
<path style="fill:#818761; stroke:none;" d="M104 296C107.972 301.37 122.569 299.724 129 300C122.312 294.731 112.047 296.102 104 296z"/>
<path style="fill:#f6f9f2; stroke:none;" d="M196 298C198.517 301.822 211.093 303.393 215 301L222 302L222 300L196 298z"/>
<path style="fill:#aab080; stroke:none;" d="M109 300L110 305L114 304L113 299L109 300z"/>
<path style="fill:#a4a792; stroke:none;" d="M204 299L204 300L207 300L204 299z"/>
<path style="fill:#7b8352; stroke:none;" d="M204 300L204 303L209 303L204 300z"/>
<path style="fill:#888983; stroke:none;" d="M103 301L103 305L104 305L103 301z"/>
<path style="fill:#b8bb9e; stroke:none;" d="M149 301L150 308L151 308L153 303L163 303L163 306L171 304L164 305L164 304L168 304L149 301z"/>
<path style="fill:#9aa273; stroke:none;" d="M202 301C202.729 304.403 204.806 303.987 208 304L208 303L202 301z"/>
<path style="fill:#868768; stroke:none;" d="M112 304L112 305L123 303L112 304z"/>
<path style="fill:#acac90; stroke:none;" d="M131 305L131 306L142 306L131 305z"/>
<path style="fill:#8c8c5a; stroke:none;" d="M133 304L133 305L140 305L133 304z"/>
<path style="fill:#8d916e; stroke:none;" d="M164 304L164 305L170 305L164 304z"/>
<path style="fill:#c5ccad; stroke:none;" d="M128 310L135 318L137 309L128 310z"/>
<path style="fill:#cacdb2; stroke:none;" d="M192 310L192 312L197 312L197 313L189 315L189 316L199 316L198 313L220 310L192 310z"/>
<path style="fill:#b5bb8d; stroke:none;" d="M137 310L135 319L149 318L145 318L146 312L137 310z"/>
<path style="fill:#b6ba9f; stroke:none;" d="M198 313L198 315L203 316L203 317L201 317L201 318C207.759 316.838 221.871 310.518 226 318L227 318L226 312L198 313z"/>
<path style="fill:#bec08f; stroke:none;" d="M100 312L100 317C104.093 317.601 108.344 319.975 111 316C115.426 315.96 118.411 314.973 120 320L127 318L131 319C129.709 307.753 108.447 312 100 312z"/>
<path style="fill:#bfc098; stroke:none;" d="M148 312L148 315L162 313L162 312L148 312z"/>
<path style="fill:#a5a67e; stroke:none;" d="M144 313L145 318L148 317L148 320L163 319L163 318L157 317L157 316L164 315L171 316L170 320C180.434 320.086 189.12 321.026 199 317L199 316L189 316L189 315L197 313L197 312L175 316C172.725 309.145 151.057 314.429 144 313z"/>
<path style="fill:#c1c2a2; stroke:none;" d="M175 312L175 316L192 313L175 312z"/>
<path style="fill:#ccca80; stroke:none;" d="M198 320L209 320L210 317L216 317L216 321L217 321C219.501 317.375 221.475 315.519 225 319C227.8 310.456 201.422 316.018 198 320z"/>
<path style="fill:#aab662; stroke:none;" d="M111 316L107 323L104 321L103 321L91 322L91 324L104 326L100 340L106 351C104.587 353.826 111.659 376.415 106 375L114 396L109 401C111.505 406.069 108.745 411.167 115 414L113.972 461L113 473L118 481L115 502L119 502L123 511L113 508L112 508C112.903 512.331 114.625 513.662 119 514L115 524L120 524L118 528L128 525C127.547 520.684 128.606 509.987 124 509L126 507L126 506L122 506L122 505L124 503L120 501L123 500C119.338 491.935 117.596 488.865 121 480L122 480L125 484L126 484L123 480L126 457L123 450C125.246 440.567 122 429.808 122 420C122 415.606 120.963 410.617 125 408L125 407L122 407L126 395L130 395L126 389C118.551 388.436 116.613 381.915 117.584 375.039C119.077 364.469 121.694 354.107 108 351L106 342L112 347L113 347L116 342L118 348L120 335L120 333L109 325L131 321L132 321L133 321C136.676 325.271 144.889 323.014 150 323C148.463 318.617 133.977 315.999 131 319L127 318L120 320C120 311.919 113.297 316.574 111 316z"/>
<path style="fill:#9e9d41; stroke:none;" d="M164 315L157 316L157 317C161.445 318.647 165.093 319.761 163 325L188 322L188 321L170 320L171 316L164 315z"/>
<path style="fill:#8f9056; stroke:none;" d="M195 318L195 319L203 317L195 318z"/>
<path style="fill:#a19f32; stroke:none;" d="M219 316L219 317L222 317L220 321L225 317L219 316z"/>
<path style="fill:#9e9e3c; stroke:none;" d="M210 317L210 318L216 317L210 317z"/>
<path style="fill:#8e9221; stroke:none;" d="M217 321L210 318L209 322C196.543 315.518 176.062 322.125 163 325L165 322L159 324L165 321L165 320C160.157 318.406 151.819 316.755 150 323L109 325C111.072 329.843 113.751 331.712 119 332L115 326C122.714 324.163 129.382 326.999 137 326.625C163.328 325.332 192.251 328.147 218 322L218 325L219 325L223 321L220 321L220 320L222 317L217 321z"/>
<path style="fill:#dee7b2; stroke:none;" d="M77 318C85.1205 353.508 83.4487 391.673 85.0394 428C86.0437 450.937 90.4127 473.059 90 496L91 496L91 494L92 494L95 501L97 488L97 487L95 486L95 485L97 485L97 484L97 483L95 483L95 481L97 466L101 452L99.6474 442.17L96 424L95 424L95 432L94 432C93.9638 418.866 86.4932 404.353 93 392L93 391L93 364L96 368L97 368C99.1227 362.102 101.987 355.692 98 350L97 350L93 353L95 359L91 359L92 341L93 341L94 346L96 345L99 347L102 326L82 322L107 323L110 320L96 319.961L77 318z"/>
<path style="fill:#b8b74b; stroke:none;" d="M201 319L201 320L209 322L208 318L201 319z"/>
<path style="fill:#c9c9a3; stroke:none;" d="M223 320L223 330L224 330L223 320z"/>
<path style="fill:#d9d885; stroke:none;" d="M82 322L96 325L96 324L91 324L91 322L103 323L103 321L82 322z"/>
<path style="fill:#d8da86; stroke:none;" d="M131 321L131 323L133 323L133 321L131 321z"/>
<path style="fill:#c4c065; stroke:none;" d="M159 324L164 322L159 324z"/>
<path style="fill:#4f5306; stroke:none;" d="M115 326L120 334L143 328.468L158 332.701L176 332L174 335L177 338L180 337L180 344C175.308 345.65 176.011 349.796 177 354L166 350L166 345L149 346L149 357L152 357L151 363L155 363L158 380L160 380L161 373L168 377C168.022 370.687 169.745 363.826 174 359L173 365C183.507 361.721 187.413 360.189 189 348L194 348L191 354L194 357L195 357L198 355C198.005 348.091 199.361 340.62 208 342C209.351 339.513 209.857 327.907 213 333L214 333L215 331L216 334C219.664 330.399 218.374 326.739 218 322L137 326.406L115 326z"/>
<path style="fill:#838442; stroke:none;" d="M218 325L216 334C215.421 332.09 215.015 330.666 214 333L213 333C212.695 331.583 211.429 328.727 209.75 331.333C205.446 338.012 209.8 349.879 210 357C210.392 370.988 202.879 384.63 204.111 399C204.364 401.952 206.808 403.379 207.667 406.028C209.102 410.455 208.458 416.426 203 416L203 445L200 445L200 457L208 458L208 467L200 467L200 468L204 468L202 473L206 472L205.941 485L206 509L203 507L202 515L209 510L205 520L206 520L211 516L212 482L215 483L215 466L217 464L220 464L220 460L216 461L223 323L218 325z"/>
<path style="fill:#d3dda0; stroke:none;" d="M102 326C98.9875 333.855 97.3932 338.345 99 347L96 345L94 346L93 341L92 341L91 359L95 359L93 353L97 350L98 350C101.558 356.398 98.6138 361.525 97 368L96 368L93 364L93 391L93 392L92 397.801L94 432L95 432L95 424L96 424L99.6111 442.083L98.1944 449.889L101 452L97 466L95 481L97 483L97 484L97 485C94.953 485.787 94.953 486.213 97 487L97 488L95 498L99 496C101.803 505.006 96.3063 505.158 94.7423 513.005C92.978 521.856 99.0275 533.286 107 537L102 527L106 526C104.817 520.955 105.086 517.478 110 515L108 513L108 512L115 496L109 485L109 484L109 483L111 481L111 467L111 466C105.33 454.218 106.218 439.72 105.907 427C105.772 421.513 103.43 416.671 103.975 411C104.546 405.05 107.512 398.735 107.481 392.83C107.43 383.312 100.358 368.768 107 360L106 351L100 340L104 326L102 326z"/>
<path style="fill:#414304; stroke:none;" d="M136 330L135 334L140 334L137 345C130.971 347.002 133.62 352.034 133 357C136.903 359.46 136.91 363.668 137 368L146 368L143 373C150.538 371.98 151.641 363.718 152 357L149 357L149 346L166 345L166 350L177 354C176.23 349.643 175.873 346.413 180 344L180 337L177 338L174 335L176 332C170.478 332.015 164.432 333.82 159 332.701C150.193 330.888 145.175 327.138 136 330z"/>
<path style="fill:#666814; stroke:none;" d="M122 334L135 336L134 344L129 344C128.146 351.34 133.681 360.048 128 366L136 370L136 388L142 392L140 384C147.005 388.052 147.823 397.457 142 403L144 408L145 408L147 406L150 425C146.941 427.824 149.906 430.063 153 431L152 444L147 443L152 452L152 453L152 454L150 454C151.868 461.077 151.211 466.039 149 473L152 473L152 472L155 474L166 471L161 463L167 461L167 460L160 460L163 458L166 448L170 450L166 447C165.954 442.909 165.857 440.022 162 438L162 437L169 435L168 430L172 430L170 426L176 426C180.872 414.841 187.761 399.585 186 387L190 387L189 384C194.359 380.66 194.248 373.678 195 368L193 365L185 368L194 348L189 348C186.17 360.489 183.504 360.549 173 365L174 359C168.922 362.814 168.005 371.071 168 377L161 373L160 380L158 380L155 363L143 373L146 368L137 368C137 363.953 137.738 358.01 133 357C134.069 352.015 131.761 347.841 137 345L140 334L135 334L137 332L137 331L136 329L122 334z"/>
<path style="fill:#647234; stroke:none;" d="M117 340C124.684 342.8 120.324 347.947 121.867 354.004C123.974 362.279 128.419 369.052 129 378L130 378L132 376L132 380L134 380L134 376L135 376L135 380L136 380L136 370L128 366L131 365L129 344L134 344L135 336L122 334L128 332C122.61 333.061 117.979 333.952 117 340z"/>
<path style="fill:#aca98a; stroke:none;" d="M222 336L222 344L223 344L222 336z"/>
<path style="fill:#8e9a52; stroke:none;" d="M118 340L118 348L115 347L116 342L113 347L112 347C111.173 343.205 109.829 342.304 106 342L108 351C129.25 357.607 110.721 374.036 118.722 386.889C119.982 388.913 125.753 390.903 128 392L130 383L127 384C126.161 377.359 127.844 370.393 126.768 364C126.081 359.917 122.744 357.053 121.916 353.015C120.791 347.53 124.947 342.726 118 340z"/>
<path style="fill:#787a27; stroke:none;" d="M198 355L195 357L194 357C192.291 349.065 186.685 365.461 185 368L193 365L195 368L189 384L190 387L186 387C186.547 400.955 179.456 413.18 176 426L170 426L172 430L168 430L169 435L162 437L162 438L166 447L170 450L166 448L160 460L172 456L161 463L166 471L155 474L152 472L152 473L154 474L149 473L152 454L152 453L152 452L147 443L152 444L153 431C150.052 429.506 148.268 428.154 150 425L147 406L145 408L144 408L142 403C148.565 398.863 147.117 386.698 140 384L142 392C137.007 392.586 133.555 392.865 131 388C138.68 387.401 135.761 381.654 135 376L134 376L134 380L132 380L132 376L130 378L129 378L127 370L126 370L127 384L130 383L130 393L131.252 410L128 428C145.193 436.727 127.224 462.712 140 472L140 473L136 473L139 478L139 479L136 479L136 480L139 480C139.013 483.194 138.597 485.271 142 486L138 490L142 500L148 500L148 501L144 501L145 513L142 512C144.101 516.533 145.297 519.6 141 523L141 524C152.124 522.725 155.59 534.64 144 537L144 538L150 538L150 539L145 543L141 541C144.324 544.787 148.991 546.667 154 547L156 541L157 541C156.688 544.081 155.533 546.242 159 547C157.599 540.21 161.527 541.069 165 537L172 539L174 535L163 533C163.001 526.136 162.998 520.894 171 520L171 516L177 523L191 520L188 536L192 533C203.371 538.247 209.003 524.948 210 515L202 524L204 514C200.997 514 202.477 509.482 203 507L206 509L206 472L202 473L204 468L200 468L200 467L208 467L208 458L200 457L200 445L203 445L203 416C208.391 416.212 208.536 411.643 207.856 407.039C206.67 399.01 203.999 393.818 205.134 385C206.389 375.25 211.515 364.006 209.741 354.17C209.219 351.275 208.604 343.842 206.4 341.952C199.522 336.052 198 351.83 198 355z"/>
<path style="fill:#c2bea3; stroke:none;" d="M221 352L221 363L222 363L221 352z"/>
<path style="fill:#bec776; stroke:none;" d="M105 360C105 371.029 106.946 382.12 107.086 392.83C107.174 399.561 103.653 406.229 103.575 413C103.516 418.14 105.911 422.977 105.776 428C105.483 438.896 104.661 456.721 111 466L111 467C108.755 469.143 108.973 478.667 111 481L109 483L109 484L109 485L111 485C110.505 489.545 110.825 493.563 115 496L112 502L117 500L118 481L113 473L114.218 460.925L115 414L109 401L114 396L106 375L108 360L105 360z"/>
<path style="fill:#b7b69a; stroke:none;" d="M220 371L220 379L221 379L220 371z"/>
<path style="fill:#4d5524; stroke:none;" d="M131 388C133.863 397.063 145.214 388.05 131 388z"/>
<path style="fill:#8e9641; stroke:none;" d="M126 395C125.72 398.856 119.118 405.733 125 407L125 408L122 408L123 450L126 457L123 480L126 484L125 484L122 480L121 480L119 486C124.361 486.174 127.218 487.82 129 493L123 490L120 495L123 500L120 501L124 503L122 505L122 506L126 506L126 507L124 509L137 503L136 498L142 486L136 480L136 479L139 479L139 478L136 473L140 473L140 472C130.435 461.485 144.701 433.182 128 428C129.376 420.25 137.188 398.442 126 395z"/>
<path style="fill:#adad91; stroke:none;" d="M217 420L217 433L218 433L217 420z"/>
<path style="fill:#342b24; stroke:none;" d="M209 432L206 443C212.778 442.472 211.999 437.656 212 432L209 432z"/>
<path style="fill:#c1c1a5; stroke:none;" d="M216 443L216 461L223 458L223 457L217 458L216 443z"/>
<path style="fill:#e6e2df; stroke:none;" d="M0 456L0 584L1 584C4.03997 575.634 9.10213 558.7 17 554L0.554012 590.089L0 624L1 624C9.3317 610.957 14.6669 595.901 21.1597 582C30.3396 562.346 41.7045 543.81 50.5648 524C57.2557 509.041 63.0742 484.316 75 473C72.8221 487.476 61.7672 503.875 55.2477 517C44.0709 539.501 33.9055 562.967 23.5648 586C18.9988 596.17 10.9913 606.717 10 618L11 618C18.9872 596.347 36.2848 577.49 48.4236 558C52.0112 552.24 57.0415 546.518 59 540L62 541L61 537L77 520L67 535C79.3612 530.616 81.8344 514.37 91 506C89.5883 513.093 82.2313 523.9 77 529L77 530L82 530L82 531C70.3844 533.76 59.4229 543.974 74 552.096C85.2796 558.38 99.4069 559 112 559L112 556L116 556L116 554L107 553L107 550L113 548L107 537C99.3605 531.852 95.1275 524.274 94.9838 515C94.8853 508.642 98.8045 505.123 93 500L93 504L92 504L88 453L80 453L80 458L57 451.76L0 456z"/>
<path style="fill:#a8a7a3; stroke:none;" d="M233 451L233 452L240 452L233 451z"/>
<path style="fill:#857c7d; stroke:none;" d="M225 455L241 453C236.529 451.124 227.844 450.613 225 455z"/>
<path style="fill:#52514f; stroke:none;" d="M231 468L232 468L233 466C235.697 468.795 237.575 468.581 241 467L241 465L232 465L229 458L232 459L235 454C221.952 448.539 228.862 462.399 231 468z"/>
<path style="fill:#333238; stroke:none;" d="M232 459L229 458L232 460L233 465L240 454L243 461L246 460L247 463L249 461C251.491 463.699 253.511 461.71 255 459L245 458L245 457L247 455C240.571 453.912 234.266 450.794 232 459z"/>
<path style="fill:#130d11; stroke:none;" d="M229 457L231 454L229 457z"/>
<path style="fill:#060608; stroke:none;" d="M233 465L241 465L241 467L232 468L231 468L229 462C221.823 462.742 219.785 466.126 221 473L234.004 476.956L252.025 474.442L260.09 476.687L281 476L282 469L271 469L271 468L274 463L270 463L261 470L262 466L258 466L258 469L254 469L254 465L253 465L250 468L251 463L248 461C243.445 464.825 241.778 457.525 240 454L233 465z"/>
<path style="fill:#878789; stroke:none;" d="M243 454L243 455L247 455L243 454z"/>
<path style="fill:#84807f; stroke:none;" d="M271 454L271 455L277 455L271 454z"/>
<path style="fill:#7f7f81; stroke:none;" d="M224 455L220 459L220 460L228 462L224 455z"/>
<path style="fill:#77787a; stroke:none;" d="M247 455L245 457L245 458L252 458L247 455z"/>
<path style="fill:#515153; stroke:none;" d="M268 459L278 458C277.704 459.297 275.36 472.228 280.081 467.338C282.4 464.936 282.324 459.994 284 457C278.388 455.1 271.573 453.176 268 459z"/>
<path style="fill:#2d3200; stroke:none;" d="M165 460L172 456L165 460z"/>
<path style="fill:#868080; stroke:none;" d="M253 458L253 459L252 464L263 462L267 460L266 464L278 459L278 458L268 459L269 456L253 458z"/>
<path style="fill:#97969b; stroke:none;" d="M284.667 457.333L285.333 457.667L284.667 457.333z"/>
<path style="fill:#282924; stroke:none;" d="M282 458L280 469L281 475L289 473L283 470L286 458L282 458z"/>
<path style="fill:#d9cfc6; stroke:none;" d="M384 459L383 459L376 464L375 464C372.176 462.116 370.522 462.853 368 465L367 465C364.358 462.292 348.637 462.967 346 466L314 463L308 468L308 465L300 467L289 463L295 469L299 466L300 471C275.283 475.253 252.517 480.225 227 477L226 493C236.03 499.932 234.657 517.841 232 529C237.174 524.478 234 505.768 234 499L237 499L238 517L239 517L239.654 490.08L240.642 481.433L256 479L296 476L298 508C284.315 508.589 262.719 511.607 264 528L265 528L268 518C281.109 513.799 292.912 509.117 307 509L307 508C299.76 505.809 298.083 495.247 303 490L309 508L344 512L341 513L341 514C353.699 520.782 363.46 528.299 378 531L376 534C391.331 532.746 393.618 518.775 378 515L378 513L381 510L389 514L389 507L394 510C395.992 500.16 390.247 495.661 386.515 486.91C384.529 482.256 384.54 476.86 383 472C389.074 477.55 390.292 486.335 392 494L405 508L394 486L396 482L401 491L405 490L416 508L417 508L417 458C408.786 458 390.309 463.755 384 459z"/>
<path style="fill:#272121; stroke:none;" d="M271 462L274 463L271 468L271 469L277 469L278 459L271 462z"/>
<path style="fill:#525355; stroke:none;" d="M286 459L283 470L292 474L288 467L292 468L286 459z"/>
<path style="fill:#a4a7ac; stroke:none;" d="M287 459L288 463L289 463L287 459z"/>
<path style="fill:#5a585b; stroke:none;" d="M219 461L220 466L221 466L226 460L219 461z"/>
<path style="fill:#72777b; stroke:none;" d="M244.667 460.333L245.333 460.667L244.667 460.333z"/>
<path style="fill:#413b3d; stroke:none;" d="M262 462L262 463L267 467L265 465L265 464L265 463L267 460L262 462z"/>
<path style="fill:#8b949b; stroke:none;" d="M243.333 461.667L243.667 462.333L243.333 461.667z"/>
<path style="fill:#d0d7dd; stroke:none;" d="M244 461L244 463L246 463L246 461L244 461z"/>
<path style="fill:#989da3; stroke:none;" d="M246 461L244 463L244 464C246.251 463.527 247.118 463.14 246 461z"/>
<path style="fill:#2f2120; stroke:none;" d="M253 464L254 469L258 469L258 466L262 466L261 470L266 468C262.584 461.474 259.479 461.383 253 464z"/>
<path style="fill:#695f68; stroke:none;" d="M265 463L269 467L271 462L265 463z"/>
<path style="fill:#5f595b; stroke:none;" d="M251 463L250 468L253 468L251 463z"/>
<path style="fill:#a6adb3; stroke:none;" d="M217 464C217.662 467.15 219.338 467.15 220 464L217 464z"/>
<path style="fill:#36391c; stroke:none;" d="M215 466L215 475L216 475L215 466z"/>
<path style="fill:#6b6e67; stroke:none;" d="M295 469L292 468C292.874 472.101 296.414 471.497 300 471L299 466L295 469z"/>
<path style="fill:#59616c; stroke:none;" d="M217 467L218 474L219 474L219 471L220 471L220 473L221 473L220 467L217 467z"/>
<path style="fill:#1e2126; stroke:none;" d="M288 467C289.752 471.002 291.538 473.027 296 472L296 471L292 471L288 467z"/>
<path style="fill:#081213; stroke:none;" d="M216 468L216 475L218 475L216 468z"/>
<path style="fill:#4a4945; stroke:none;" d="M246 474L247 469C243.686 470.101 242.899 471.948 246 474z"/>
<path style="fill:#909aa4; stroke:none;" d="M219 471L215 475L215 476L220 476L219 471z"/>
<path style="fill:#8a8a8a; stroke:none;" d="M222 472L222 475L224 472L222 472z"/>
<path style="fill:#2a2a28; stroke:none;" d="M224 472L223 475L220 473C220.854 476.987 224.489 476 228 476L224 472z"/>
<path style="fill:#ebe7e4; stroke:none;" d="M314 507L308 485L309 485L318 507L323 507C322.23 502.254 319.709 497.171 317.287 493C315.341 489.648 313.433 486.633 312 483C310.919 480.259 310.721 475.748 308.935 473.477C306.113 469.888 303.309 474.22 303.065 477.005C302.459 483.916 306.674 504.859 314 507z"/>
<path style="fill:#f3eded; stroke:none;" d="M319 472C320.156 479.709 328.447 504.84 336 507C335.602 498.282 328.598 473.66 319 472z"/>
<path style="fill:#efeae7; stroke:none;" d="M365 472C362.789 482.171 372.912 500.354 382 505L367 472L365 472z"/>
<path style="fill:#d0c3b3; stroke:none;" d="M383 472C384.098 476.805 384.403 482.335 386.129 486.91C389.452 495.725 395.092 500.161 394 510L389 507C388.913 511.885 387.742 515.97 393 518L390 512C393.561 513.227 399.743 517.868 401 512L407 512L416 528L417 528C416.999 516.587 410.084 509.852 405.028 500.015C402.488 495.074 399.369 488.098 394 486L405 508L392 494C391.073 486.992 389.487 475.971 383 472z"/>
<path style="fill:#a39892; stroke:none;" d="M73 473C69.3925 480.968 60.73 493.25 62 502C67.7054 495.088 74.2124 481.953 75 473L73 473z"/>
<path style="fill:#c1c4a7; stroke:none;" d="M89 474L90 486L91 486L89 474z"/>
<path style="fill:#3d3b40; stroke:none;" d="M248 477L257 477C254.606 473.307 250.394 473.307 248 477z"/>
<path style="fill:#868080; stroke:none;" d="M286 474L286 475L289 475L286 474z"/>
<path style="fill:#292b15; stroke:none;" d="M158 484L162 484L171 475C163.572 476.379 158.108 474.915 158 484z"/>
<path style="fill:#515031; stroke:none;" d="M171 475L159 487L172 484L171 475z"/>
<path style="fill:#e3e4e6; stroke:none;" d="M215 476C215 488.191 215.381 499.937 216.917 512C217.417 515.933 216.616 523.06 221 524L219 496L221 496L224 526L226 526L226 497L229 497L231 528L233 528C233 517.162 237.316 498.449 226 493L228 478L215 476z"/>
<path style="fill:#a5a9aa; stroke:none;" d="M221 476L221 477L225 477L221 476z"/>
<path style="fill:#6b6b69; stroke:none;" d="M225 476L225 477L230 477L225 476z"/>
<path style="fill:#524940; stroke:none;" d="M262 476L262 477L271 477L262 476z"/>
<path style="fill:#979086; stroke:none;" d="M271 476L271 477L277 477L271 476z"/>
<path style="fill:#bead99; stroke:none;" d="M251 479L251 480L266 481L264 487L266 489L266 490C263.477 491.417 264.542 492.483 267 493L267 494L260 495L263 519C273.914 513.016 285.508 508.994 298 508L296 476L251 479z"/>
<path style="fill:#837e7a; stroke:none;" d="M230 477L230 478L265 478L230 477z"/>
<path style="fill:#2e3009; stroke:none;" d="M202 479L200 490L201 490L204 479L202 479z"/>
<path style="fill:#aa9a81; stroke:none;" d="M241 534L241 535L265 536L265 538L253 538L253 539C258.454 539 263.81 538.044 268 542L269 542L268 539L282 542L282 543L280 544C296.733 555.805 318.097 564.317 339 561.816C346.973 560.862 354.256 556.992 362 556L360 559C366.64 562.395 367.156 569.439 369 576L362 568L361 568L360 573L353 567C355.929 565.727 352.806 565.195 351 565L355 577L357 577L358 574L359 574L361 580L362 580L366 577C366.309 583.021 368.952 596.477 374 600L372 574L373 574L374 577L385 578L384 575L375 554L370 554L371 551C350.505 556.578 318.371 561.517 298.17 552.735C290.453 549.38 286.584 542.934 279.995 538.329C274.721 534.642 263.059 533.965 260.072 527.891C258.205 524.095 261.915 520.57 262.698 517C264.186 510.215 263.888 500.755 260 495L267 494L267 493L264 493L264 487L266 481C259.142 480.706 248.598 476.823 242.148 479.742C237.898 481.666 238.798 490.067 239.014 494C239.633 505.278 248.994 523.448 241 534z"/>
<path style="fill:#585b3e; stroke:none;" d="M212 482L212 488L214 488L214 482L212 482z"/>
<path style="fill:#ece3dc; stroke:none;" d="M396 482C396.633 491.434 409.025 512.944 417 518L405 490L401 491L396 482z"/>
<path style="fill:#c9c4c8; stroke:none;" d="M214 483C214 495.26 217.039 513.707 213 525L224 526L221 496L219 496L221 524C211.272 517.694 218.082 492.727 214 483z"/>
<path style="fill:#5c6560; stroke:none;" d="M101 486L106 492C105.868 487.985 105.505 485.312 101 486z"/>
<path style="fill:#212200; stroke:none;" d="M187 485L186 486L186 488L191 489L187 485z"/>
<path style="fill:#384029; stroke:none;" d="M119 486C119.015 490.15 118.613 493.544 123 495L123 486L119 486z"/>
<path style="fill:#51594e; stroke:none;" d="M123 486L125 493L129 493C128.196 489.059 126.901 487.157 123 486z"/>
<path style="fill:#f0e8e5; stroke:none;" d="M344 486C344.87 492.925 352.198 504.201 358 508C357.187 500.467 350.888 489.497 344 486z"/>
<path style="fill:#666e49; stroke:none;" d="M118 488L118 494L119 494L118 488z"/>
<path style="fill:#242714; stroke:none;" d="M145.394 489.161C140.379 491.589 143.189 498.83 148.656 496.392C153.596 494.189 149.888 486.986 145.394 489.161z"/>
<path style="fill:#f6eeec; stroke:none;" d="M301 490C299.205 497.54 299.423 507.685 309 508L303 490L301 490z"/>
<path style="fill:#121206; stroke:none;" d="M164 498L170 498L171 492C165.754 490.721 164.168 492.937 164 498z"/>
<path style="fill:#818437; stroke:none;" d="M138 492L136 498L134 503C136.999 511.352 138.4 512.493 131 519L131 520L136 531L134 541L145 543L150 539L150 538C128.065 537.041 148.306 522.3 142 512L145 513L144 501L148 501L148 500L142 500L138 492z"/>
<path style="fill:#b9c1a9; stroke:none;" d="M91 494L92 504L93 504L91 494z"/>
<path style="fill:#6e7166; stroke:none;" d="M97 496L97 507C102.196 505.258 100.111 500.296 99 496L97 496z"/>
<path style="fill:#c9bcb3; stroke:none;" d="M407 496L417 514C416.843 507.323 413.964 498.172 407 496z"/>
<path style="fill:#bba492; stroke:none;" d="M226 497L226 526L219 525L219 526L235 530L235 500L236 500L236 506L237 506L237 499L234 499L234 529C226.693 521.846 229 506.393 229 497L226 497z"/>
<path style="fill:#a4ac97; stroke:none;" d="M95 498L95 502L96 502L95 498z"/>
<path style="fill:#939b84; stroke:none;" d="M100 499L100 503L101 503L100 499z"/>
<path style="fill:#4d4d27; stroke:none;" d="M211 499L212 505L213 505L213 499L211 499z"/>
<path style="fill:#e1d9d6; stroke:none;" d="M238 499L241 533L242 533C242 525.093 244.964 503.92 238 499z"/>
<path style="fill:#c5b9ab; stroke:none;" d="M246 499L247 525L248 525L248 499L246 499z"/>
<path style="fill:#9c9582; stroke:none;" d="M235 500C235 507.02 238.279 525.929 232 530L233 533L238 529L240 533L241 533L235 500z"/>
<path style="fill:#6f5d51; stroke:none;" d="M60 501L35 559C39.5422 555.046 40.7368 549.296 43.2616 544C49.3004 531.333 60.7365 515.028 62 501L60 501z"/>
<path style="fill:#747f5d; stroke:none;" d="M111 502L111 507L112 507L112 503L119 504L111 502z"/>
<path style="fill:#3c423e; stroke:none;" d="M112 503C112.422 508.411 114.983 508.941 120 509C119.215 504.077 116.725 503.154 112 503z"/>
<path style="fill:#6f7a4f; stroke:none;" d="M130.105 503.801C123.612 506.242 128.774 516.833 134.941 515.124C142.155 513.125 135.483 501.779 130.105 503.801z"/>
<path style="fill:#181609; stroke:none;" d="M178 508L185 507L185 504C180.822 503.131 178.743 503.552 178 508z"/>
<path style="fill:#b7afa4; stroke:none;" d="M241 504L241 534C245.435 530.124 244.441 508.542 241 504z"/>
<path style="fill:#bcb3ac; stroke:none;" d="M58 505L57 509L58 509L58 505z"/>
<path style="fill:#d2c5bd; stroke:none;" d="M89 506L73 532L82 531L82 530L77 530L77 529C82.6061 525.36 90.2771 512.529 91 506L89 506z"/>
<path style="fill:#1a1710; stroke:none;" d="M149 507L153 518C158.948 517.856 162.517 516.355 163 510L149 507z"/>
<path style="fill:#56572f; stroke:none;" d="M194 517L195 513L192 509L200 507C192.494 503.881 187.452 512.278 194 517z"/>
<path style="fill:#b2be7e; stroke:none;" d="M111 507L108 512L108 513L110 515L106 516L113 525L106 521L105 521C105.648 524.922 107.236 525.985 111 527L110 532L111 532L111 530L112 530L112 537L115 537L115 542L111 542L111 543L123 549L118 539L127 542L127 541L124 540L127 536L127 535C121.11 533.786 118.409 529.838 120 524L115 524L119 514C114.328 513.261 113.225 510.831 111 507z"/>
<path style="fill:#73804a; stroke:none;" d="M120 507L113 509L113 510L123 511L122 507L120 507z"/>
<path style="fill:#455240; stroke:none;" d="M130 507L130 508L131 513C135.803 511.393 134.443 507.772 130 507z"/>
<path style="fill:#181a0c; stroke:none;" d="M192 509L195 513L194 518C198.694 516.442 200.42 511.62 201 507L192 509z"/>
<path style="fill:#1f2a19; stroke:none;" d="M129 508L132 511L129 508z"/>
<path style="fill:#e6dfcd; stroke:none;" d="M213 508L205 530L206 530L207 527L225 529L225 528L213 525C215.324 520.444 214.894 512.71 213 508z"/>
<path style="fill:#c3b5a8; stroke:none;" d="M268 518L270 520L265 528L264 528L263 519C248.535 531.765 281.714 538.174 290 539L290 540L286 540C290.179 545.495 304.451 545.674 311 545.961C334.196 546.976 363.392 546.896 384 535L385 542L389 541C391.063 546.238 395.465 558.388 401 560L397 549L405 552L401 544L406 548L405 542L407 542L407 546L408 546L408 543L413 545L412 543L413 543L417 544C417 530.054 413.023 524.013 407 512L401 512C398.142 516.337 394.113 513.021 390 512L393 518L381 510L378 513L378 515C384.665 517.33 395.136 525.877 384.956 531.558C378.749 535.022 367.137 535.618 360 536.725C330.203 541.348 302.361 539.715 273 533L273 530C280.092 527.4 294.501 521.749 293 513L322.996 510.522L333 514L332 517L344 523L361 526L341 514L341 513L344 512C319.404 504.51 291.293 507.63 268 518z"/>
<path style="fill:#b4b6a9; stroke:none;" d="M212.333 509.667L212.667 510.333L212.333 509.667z"/>
<path style="fill:#545625; stroke:none;" d="M207 510L206 515L207 515L209 510L207 510z"/>
<path style="fill:#b2a570; stroke:none;" d="M293 513C293.441 521.458 282.581 524.744 276 528L276 529L298 525C301.515 521.471 307.189 518.68 312 521C325.256 516.761 331.413 521.333 344 523L332 517L333 514C318.937 510.2 307.635 509.128 293 513z"/>
<path style="fill:#b8aea5; stroke:none;" d="M55 512L54 516L55 516L55 512z"/>
<path style="fill:#95954f; stroke:none;" d="M127 512L130 534L123 534L123 535L127 535L127 536L124 536L124 540L125 542L128 547L123 547C124.285 553.025 132.502 550.076 137 550L136 531C130.626 531 138.889 520.853 131 520L131 519C133.965 516.037 129.608 513.557 127 512z"/>
<path style="fill:#312d10; stroke:none;" d="M205 512L202 524C205.933 523.157 206.726 515.14 205 512z"/>
<path style="fill:#f4f6f1; stroke:none;" d="M363 514L362 521L364 524L370 516L363 514z"/>
<path style="fill:#43441a; stroke:none;" d="M151 515L152 519L159 519L159 518L151 515z"/>
<path style="fill:#131500; stroke:none;" d="M171 516L171 520C162.482 520.468 163 525.854 163 533L172 531C166.676 526.034 171.297 523.312 177 523L171 516z"/>
<path style="fill:#555d46; stroke:none;" d="M105 517C105.596 522.226 108.066 523.803 113 525C111.57 520.562 109.662 517.986 105 517z"/>
<path style="fill:#8d7932; stroke:none;" d="M312 521C308.391 517.486 300.429 521.418 298 525C290.093 522.729 280.685 527.819 273 530L273 533C289.28 538.171 306.047 539 323 539L323 538L293 536L293 535L301 533L304 533L305 533L306 529L319 528L319 530L325 527L322 528L334 524L329 526L336 530L337 530L338 530L342 527L343 529L343 530L339 530L339 531L346 532L346 533L341 537L345 535C346.093 541.913 367.497 535.439 372 534L372 533L360 532L346 522L330.961 518.478L312 521z"/>
<path style="fill:#dfceba; stroke:none;" d="M76 520L61 539L69 536L67 534C70.4426 531.176 76.9681 524.592 76 520z"/>
<path style="fill:#64552a; stroke:none;" d="M172 531L167 534L174 535L172 539L165 537L166 545L159 547L157 541L156 541L154 547L146 545L131 550L131 551C141.16 553.391 162.532 550.58 172.17 546.101C176.593 544.045 179.547 539.974 184 538L184 545L190 544C178.895 553.422 159.717 552 146 552L146 553C163.826 553 182.532 557.014 200 553L195 540L191 541L197 536L196 539L197 539L198 535L192 533L188 536L189 532C185.896 533.064 182.486 536.131 179.059 535.574C174.869 534.893 175.832 530.74 177.618 528.171C180.732 523.691 184.638 521.294 190 521L190 525L191 525L191 520C185.803 520.003 160.542 523.168 172 531z"/>
<path style="fill:#3c3626; stroke:none;" d="M184 521L187 530L188 530C187.882 526.029 187.492 523.204 184 521z"/>
<path style="fill:#262300; stroke:none;" d="M186 521C187.818 526.891 186.609 528.745 184 534C190.167 531.139 190.744 527.331 190 521L186 521z"/>
<path style="fill:#1e1808; stroke:none;" d="M182 522C178.83 525.954 170.714 534.449 180 536L179 531L183 525L184 525L185 528L186 528L184 522L182 522z"/>
<path style="fill:#a8985c; stroke:none;" d="M346 522L360 532L378 532L378 531L346 522z"/>
<path style="fill:#1a1712; stroke:none;" d="M144.004 523.577C134.174 525.766 137.248 539.332 146.956 536.566C154.793 534.332 152.566 521.671 144.004 523.577z"/>
<path style="fill:#735f18; stroke:none;" d="M322 528L325 527L324 530L319 530L319 528L306 529L305 533L304 533C302.873 530.994 302.127 530.994 301 533L293 535L293 536L348 538L348 537L345 535L341 537L346 533L346 532L339 531L339 530L343 530L343 529L342 527L338 530L337 530L336 530L329 526L334 524C329.44 524.664 324.799 523.797 322 528z"/>
<path style="fill:#3c3a21; stroke:none;" d="M121 525C119.67 532.621 123.208 532.995 130 533L127 525L121 525z"/>
<path style="fill:#52543f; stroke:none;" d="M183 525L183 533L187 527L183 525z"/>
<path style="fill:#c7d091; stroke:none;" d="M102 530L111 539L106 538L106 539L115 542L115 537L112 537L112 530L111 530L111 532L110 532L111 527C106.981 526.079 103.537 525.629 102 530z"/>
<path style="fill:#737858; stroke:none;" d="M119 527L119 531L120 531L121 527L119 527z"/>
<path style="fill:#c6b8ad; stroke:none;" d="M207 527C202.712 532.484 193.506 542.852 205 546L204 549L217 545C221.34 538.757 225.352 536.03 233 538C233.914 532.434 230.665 531.373 227 528L207 527z"/>
<path style="fill:#9b8f7f; stroke:none;" d="M48 528L47 532L48 532L48 528z"/>
<path style="fill:#73794b; stroke:none;" d="M103 529L107 535L103 529z"/>
<path style="fill:#413e1f; stroke:none;" d="M181 529L179 531L180 536L185 535L181 529z"/>
<path style="fill:#a08568; stroke:none;" d="M237 529C236.551 534.928 242.788 540.139 236 544L237 547L235 545L234 545C228.491 550.547 220.251 551.11 213 553.139C210.306 553.893 204.584 555.538 206 551L206 550L199 548L200 553L146 553L146 554L206 556L206 557L203 557L203 558L207 558L207 562C213.076 555.718 231.293 549.416 240 549C241.973 542.191 243.745 533.739 237 529z"/>
<path style="fill:#bda694; stroke:none;" d="M93 559L93 560L87 561L90 564L91 561L92 561L93 566L87 565L86 565L83 567L85 573L91 576L95 566L96 566L94 577L100 577L101 568L102 568L101 573L100 581L106 579L104 580L104 579C105.272 574.374 105.137 567.981 101 565L101 563L111 563L111 562C106.167 560.532 101.088 559.298 98 564L94 564L94 560L99 559L99 558C91.6681 557.939 64.2274 553.681 66.7515 542.004C67.8438 536.951 74.3951 535.062 77 531C74.2539 531.761 71.7637 532.639 69.4244 534.329C49.7685 548.529 80.4539 557.906 93 559z"/>
<path style="fill:#85634a; stroke:none;" d="M234 531C236.913 542.014 232.232 544.698 223 550L223 551L234 545L235 545L237 547L236 544C243.911 541.352 238.276 534.39 234 531z"/>
<path style="fill:#5f5b36; stroke:none;" d="M121 533L121 534L130 534L121 533z"/>
<path style="fill:#bbac97; stroke:none;" d="M234 533L233 538C225.696 535.33 220.305 538.072 217 545L204 549L205 546C199.873 543.9 199.446 541.169 200 536L195 539L199 548L206 550L206 551C203.704 553.359 206.346 554.772 209.044 554.427C217.875 553.297 242.542 545.504 234 533z"/>
<path style="fill:#8f9569; stroke:none;" d="M107 534L111 539L107 534z"/>
<path style="fill:#766052; stroke:none;" d="M242 535L241 544L243 538L262 537L242 535z"/>
<path style="fill:#b5a38b; stroke:none;" d="M382 535C376.305 540.042 367.329 541.672 360 542.919C343.385 545.746 323.791 547.709 307 545.424C300.286 544.51 291.292 544.607 286 540L290 540L290 539L277 536L277 537C284.361 541.873 289.002 549.04 297.285 552.735C311.631 559.133 328.991 556.118 344 555.089C353.308 554.451 362.203 554.387 371 551L370 554L375 554C376.846 562.073 381.538 567.229 387 573L391 572C393.644 578.128 397.278 584.376 403 588L383.691 556.171L378.812 545.532L383.223 547.128L397 575C403.162 575.687 413.042 593.318 416 599L417 599L417 544L412 543L413 545L412 545C409.496 543.511 408.396 542.729 408 546L407 546L407 542L405 542L406 548L401 544L405 552L397 549L401 560L389 541L385 542L384 535L382 535z"/>
<path style="fill:#2d2609; stroke:none;" d="M191 541L197 536L191 541z"/>
<path style="fill:#4e3b2c; stroke:none;" d="M253 537L253 538L265 536L253 537z"/>
<path style="fill:#100400; stroke:none;" d="M250 537L251 543L252 543L253 537L250 537z"/>
<path style="fill:#3a3203; stroke:none;" d="M181 538L181 539C184.19 543.878 177.446 549.052 173 546L139 551L139 552C152.642 552 180.292 555.693 190 544L184 545L184 538L181 538z"/>
<path style="fill:#5f4021; stroke:none;" d="M243 538C244.295 541.886 240.223 548.556 238 548L235 554L232 551L231 558L235 557L235 558L233 560L237 560L237 554L239 554L241 565L239 563L238 563L234 565L229 571L229 572L244 566C245.36 558.756 250.646 543.351 243 538z"/>
<path style="fill:#8c785f; stroke:none;" d="M245 538L244 566C238.293 566.632 230.57 571.589 227 576C222.721 574.933 219.443 575.546 218 580L213 579L214 584C210.687 581.21 205.807 577.822 204 584L199 583L199 584C205.101 585.82 211.341 586.133 217 583L231 585L229 575L236 580L236 575L241 582L242 582L239 569L248 579L249 579L248 573L249 573L253 585C259.763 573.711 251.001 550.868 251 538L245 538z"/>
<path style="fill:#352515; stroke:none;" d="M252 538L253 565L255 565L252 538z"/>
<path style="fill:#a99b6e; stroke:none;" d="M343 538L343 539L351 539L343 538z"/>
<path style="fill:#65633c; stroke:none;" d="M118 539C118.311 543.102 119.4 544.981 123 547C122.306 543.597 118.84 542.716 122 540L118 539z"/>
<path style="fill:#3c390e; stroke:none;" d="M158 540L158 541L164 540L158 540z"/>
<path style="fill:#100c00; stroke:none;" d="M173 548C178.862 547.606 182.539 545.06 183 539C178.423 540.553 174.515 543.289 173 548z"/>
<path style="fill:#c1ab94; stroke:none;" d="M253 539L254 543L260 542L261 542L262 548L264 547L269 552L271 549L272 549L275 552C276.199 539.869 261.317 539 253 539z"/>
<path style="fill:#83654b; stroke:none;" d="M268 539L283 556L277 554L274 556C272.365 565.665 270.658 572.084 281 576L282 573L285 573L286 576L294 577L294 576L289 575L289 568L280 565L281 568L276 565L278 558L286 558L284 554L288 553C294.072 563.562 317.32 564 328 564L328 565L316 565L316 567L338 567L338 568C329.427 568.7 313.546 565.329 307 571L304 568L305 573L309 574L309 570L315 575L316 572L321 573L320 570C323.256 571.547 328.062 575.039 331 572L332 572L340 574L340 568L343 568L343 575L353 578L351 565L353 567L360 573L361 568L362 568L369 576C367.682 569.612 367.112 561.189 360 559L362 556C350.268 556 335.536 566.845 321 562C309.833 558.278 297.143 554.572 288 550C284.363 548.182 279.67 543.583 282 543L282 542L268 539z"/>
<path style="fill:#b1a27b; stroke:none;" d="M313 539L313 540L338 540L313 539z"/>
<path style="fill:#e3cdb5; stroke:none;" d="M59 540L57 547L65 553L64 556L72 560L73 560L76 558L80 562L81 561L80 558L80 565C82.9267 565 85.3987 569.111 86 564L89 565L87 561L93 560L93 559C82.8117 557.502 72.0356 554.448 64.2677 547.335C61.7623 545.041 61.8049 541.974 59 540z"/>
<path style="fill:#151307; stroke:none;" d="M158 541L158 545L166 545C164.66 540.598 162.277 540.342 158 541z"/>
<path style="fill:#bfafa0; stroke:none;" d="M41 541L39 546L40 546L41 541z"/>
<path style="fill:#41411f; stroke:none;" d="M119 541C121.205 544.573 123.601 547.68 128 547C126.345 542.635 123.5 541.465 119 541z"/>
<path style="fill:#2f2e0f; stroke:none;" d="M134 541C134.509 548.226 139.847 548.818 146 547L146 545L134 541z"/>
<path style="fill:#b09c84; stroke:none;" d="M253 542C255.943 556.265 259.249 554.001 272 554L272 549L269 552L264 547L262 548L261 542L260 542L259 544L258 544L253 542z"/>
<path style="fill:#c2ad9c; stroke:none;" d="M403 588L391 572L387 573L384 570L384 575L385 578L373 574L372 574L374 600C369.368 595.117 366.669 583.674 366 577L362 580L361 580L359 574L358 574L357 577L355 577L354 572L353 572L353 578L343 576L342 576L339 580L338 580L338 576L334 578L326 576L325 583L320 578L319 578L311 577L311 584L310 584C309.097 579.669 307.375 578.338 303 578L303 582L298 581L298 578L297 578L288 580L285 573L281 573C278.557 577.547 272.789 577.935 268 579L267 572L266 572L266 575L262 573L262 578L260 587L264 587L268 601L270 599L272 614L273 614L269 584L270 584L276 599L277 596L279 598L280 598L279 589L280 589L280 591L281 591L283 588C283.016 592.8 283.214 600.713 287 604L287 592L288 592L296 626L301 626L294 589L297 590L299 587L300 587L304 589L303 586L305 583L312 592L313 592L312 587L313 587L315 592L316 592L314 579C316.625 581.688 323.59 594.529 327 591L328 591C334.13 599.182 336.048 622.54 346 626L332 587L338 590L338 586L339 586L340 594L341 594L342 592L342 601L346 601L347 584L348 584L353 603L355 600L356 600C356.022 608.056 356.53 618.208 364 623L359.268 600.999L361 585L373 604L374 604L377 592L381 593L382 588L383 588L381 594L380 605L383 604L385 613L391 617L384 617L384 623L385 623L385 619L395 619L396 611L396 605C391.124 603.052 389.468 600.151 389 595L396 599L396 593L398 593L402 603L403 603L404 600L399 592L411 599C409.459 592.626 403.86 575.306 397 575C393.551 567.817 388.206 561.628 384.931 554.17C383.741 551.461 384.559 547.858 382.821 545.452C381.424 543.519 378.478 543.556 377.827 546.124C376.91 549.746 382.02 554.229 383.691 557.089C389.56 567.133 398.884 577.3 403 588z"/>
<path style="fill:#ccb998; stroke:none;" d="M113 544L113 548L107 550L107 553L116 554L116 556L112 556L112 559L106 559L106 560L185 559C179.385 555.164 171.452 557.719 165 556.675C147.309 553.813 128.809 552.812 113 544z"/>
<path style="fill:#b09e90; stroke:none;" d="M42 545L41 549L42 549L42 545z"/>
<path style="fill:#c4c0b5; stroke:none;" d="M55 546L33.946 579.91L22 599L40.6952 573L57 546L55 546z"/>
<path style="fill:#dfddd0; stroke:none;" d="M58 546C49.5089 555.962 43.5802 568.059 36.456 579C26.6137 594.115 14.2386 608.857 8 626L20 611.424L48 568L49 568L16 626C25.5593 625.683 26.9364 614.962 31.2091 608C36.3312 599.654 43.0914 592.195 48.3958 583.911C52.6045 577.338 56.012 569.095 62 564C58.2669 569.95 56.6696 576.911 52.5471 582.674C42.9148 596.14 28.5812 608.766 26 626L38 626C39.8041 604.09 58.6826 590.825 65 571L69 572C55.9626 584.778 45.4023 608.673 40 626L48 626C50.8651 607.645 71.4872 594.218 75 576L72 577L71 573L77 574L77 573L69 568L67 570L70 561L72 564L68 559L64 559L61 560L60 553L59 553L57 555L58 546z"/>
<path style="fill:#7c5a35; stroke:none;" d="M237 548L233 550L235 554C237.456 552.234 238.118 550.881 237 548z"/>
<path style="fill:#796453; stroke:none;" d="M254 548L254 556L255 556L254 548z"/>
<path style="fill:#937e63; stroke:none;" d="M276 549L275 552L272 551C268.936 555.727 259.595 555.283 255 553L257 586L258 586L261 585L262 578L262 573C264.26 574.952 265.35 575.091 266 572L267 572L268 579L280 577L280 575C270.173 571.99 273.174 564.348 274 556L277 554L283 556L276 549z"/>
<path style="fill:#998773; stroke:none;" d="M37 550L25 577L26 577L36 560L37 550z"/>
<path style="fill:#c6aa9c; stroke:none;" d="M57 555L59 553L60 553L61 560L64 559C65.5556 560.813 66.4444 560.813 68 559L73 562C71.0269 557.874 68.6629 555.831 64 556L65 553L61 550L57 555z"/>
<path style="fill:#8a6344; stroke:none;" d="M230 551C226.198 553.141 217.844 554.487 221 560L215 562L214 566L211 565L211 573L216 570L213 571L212 567L217 566L217 570L218 570L218 563L222 566L226 558L225 555L226 555L227 558L228 558L230 551z"/>
<path style="fill:#755431; stroke:none;" d="M231 551L229 553L228 558L227 558L226 555L225 555L226 558L222 566L218 563L218 570L217 570L217 566L212 567L213 571L216 570L211 573L211 565L214 566L215 562L221 560L220 556C215.36 556.625 209.699 557.12 208 562L195 561L192 565C194.383 569.034 193.981 573.961 199 570L199 576L196 575L195 580L201 580L201 569L202 577L203 577L204 574L205 574L205 578L212 577L214 584L213 579L218 580C220.102 576.097 222.71 575.367 227 576L232 574L229 571L234 565C236.711 565.577 237.395 565.768 238 563L239 563L241 565L239 554L237 554L237 560L233 560L235 558L235 557L231 558L231 551z"/>
<path style="fill:#8b8052; stroke:none;" d="M137 552L137 553L146 553L137 552z"/>
<path style="fill:#6e553f; stroke:none;" d="M284 554L286 558L278 558L276 565L281 568L280 565L289 568L289 575L294 576L293 571L294 571L298 576L299 576L299 573L302 574L300 567L298 569L297 569L295 564L294 564L294 567C290.496 564.817 289.314 563.133 289 559L295 559C298.706 570.743 319.261 565 328 565L328 564C315.539 563.992 297.061 562.618 288 553L284 554z"/>
<path style="fill:#c9c8c4; stroke:none;" d="M14 554L0 590L1 590L17 554L14 554z"/>
<path style="fill:#c5c0ba; stroke:none;" d="M56 555L50 566L51 566L56 555z"/>
<path style="fill:#d6c0a9; stroke:none;" d="M33 556L31 562L32 562L33 556z"/>
<path style="fill:#7b4819; stroke:none;" d="M177 562L206 557C200.59 555.06 180.717 557.404 177 562z"/>
<path style="fill:#5b4631; stroke:none;" d="M255 556L254 567L256 572L257 572L255 556z"/>
<path style="fill:#ab8c78; stroke:none;" d="M74 558L73 571L77 574L71 573L72 577L75 576L74 581L75 582L77 582L82 578L80 574L79 574L76 578L78 567L83 569L80 565L80 558L81 561L80 562L76 558L74 558z"/>
<path style="fill:#ac8051; stroke:none;" d="M177 562L167 560L167 561L174 561L174 562L138 561L138 562L159 563L159 564L150 564L150 568L151 568L151 565L182 563L182 564L180 564L180 565L207 560L207 558L177 562z"/>
<path style="fill:#bc9365; stroke:none;" d="M97 559L97 560L121 565L129 567L130 567L131 564L132 567L133 567C138.981 562.104 151.488 564.001 159 564L159 563L131 563L131 562L133 562L97 559z"/>
<path style="fill:#533e23; stroke:none;" d="M289 559C289 562.426 293.197 570.628 294 564L295 564L297 569L298 569L300 567L301 570L307 571C315.116 565.646 328.397 569.293 338 568L338 567C326.862 567 301.195 570.815 295 559L289 559z"/>
<path style="fill:#60462f; stroke:none;" d="M34 560L2 626C7.13821 624.135 9.3645 616.717 11.4244 612C16.8775 599.512 23.223 587.297 29.1049 575C31.1769 570.668 35.3313 564.852 34 560z"/>
<path style="fill:#f2d4b2; stroke:none;" d="M94 560L94 564L98 564L101 561L94 560z"/>
<path style="fill:#f9e7d9; stroke:none;" d="M67 570L69 568L75 573L73 571C73.9907 567.921 74.7967 564.477 71 564L70 561C66.343 563.381 66.1467 565.897 67 570z"/>
<path style="fill:#937962; stroke:none;" d="M91 561L86 564L87 567L93 566L91 561z"/>
<path style="fill:#7f5622; stroke:none;" d="M121 561L121 562L129 562L121 561z"/>
<path style="fill:#875c2f; stroke:none;" d="M131 562L131 563L157 563C150.814 560.404 137.518 560.502 131 562z"/>
<path style="fill:#815120; stroke:none;" d="M165 561L165 562L174 562L165 561z"/>
<path style="fill:#866449; stroke:none;" d="M184 562L184 567L183 581L179 581L181 579L181 578L178 576L177 582L186 582L186 581L184 580L188 570L191 571L189 561L184 562z"/>
<path style="fill:#5d3d24; stroke:none;" d="M188 562L191 571L188 570L184 581L193 581L192 565L195 561L188 562z"/>
<path style="fill:#82674c; stroke:none;" d="M74 563L74 564L79 565L78 562L74 563z"/>
<path style="fill:#907361; stroke:none;" d="M101 563L101 565L104 569L105 569L105 562L101 563z"/>
<path style="fill:#704e32; stroke:none;" d="M105 562L104 563L108 580L101 581C102.85 583.855 105.59 584.744 108 582L109 582L110 582C113.963 586.559 121.802 583.963 127.09 583.964C142.856 583.968 158.11 586 174 586L174 585L147 585L147 584L163 584L163 583L161 579L165 580L164 584L178 583L178 576L181 578L181 579L179 579L179 581L183 581L184 567L186 564L180 565L180 564L182 564L182 563C175.242 563.389 167.284 562.028 162 567L161 567C158.309 564.309 151.976 563.447 151 568L150 568L150 564L132.893 566.564L126 583C125.985 578.698 126.404 574.174 121 575L120 583L112 582C114.119 578.234 114.826 575.642 111 573L110 576L107 574L109 572L108 569L112 569L112 563L105 562z"/>
<path style="fill:#87715a; stroke:none;" d="M112 563L112 569L108 569L107 574L110 576L111 573C114.198 576.236 113.724 578.001 112 582L120 583L121 575L127 578L130 578L131 564L130 564L130 567L129 567C126.904 563.777 124.549 564.193 121 565L112 563z"/>
<path style="fill:#bebba8; stroke:none;" d="M60 564C47.7291 584.046 29.4882 603.627 22 626L26 626C31.4853 602.842 52.4865 585.657 62 564L60 564z"/>
<path style="fill:#edd0b0; stroke:none;" d="M131 564L131 568L132 568L131 564z"/>
<path style="fill:#522a07; stroke:none;" d="M162 564L161 567L162 564z"/>
<path style="fill:#d6d2c9; stroke:none;" d="M95 566L91 576L85 573L85 569L78 567L78 576L79 576L80 574C82.0901 581.173 80.9282 587.084 75 592L65 612L63 611L59 620L58 620L68 599L75 589L57 610L52 626C68.8497 625.987 68.4895 604.712 79 595L64 626L71.4861 614.286L92 583L68 626C75.295 625.913 77.7398 621.371 83 617C82.4271 604.633 95.3111 593.615 100 583L87 582L87 579L96 579L95 566z"/>
<path style="fill:#a6826a; stroke:none;" d="M159 567L161 572L159 567z"/>
<path style="fill:#2f1d07; stroke:none;" d="M254 567L256 581L257 581L256 567L254 567z"/>
<path style="fill:#b7b29f; stroke:none;" d="M48 568C36.6708 586.428 17.8175 605.438 11 626C17.717 625.466 18.9951 619.068 22.24 614C29.2535 603.045 37.3282 592.637 43.2438 581C45.2034 577.145 48.7294 572.379 48 568z"/>
<path style="fill:#8c6d51; stroke:none;" d="M101 568L100 577L87 579L87 582L101 583L100 579C102.47 577.26 103.413 575.191 101 573L101 568z"/>
<path style="fill:#c2aa9e; stroke:none;" d="M130 568L130 572L131 572L130 568z"/>
<path style="fill:#98745e; stroke:none;" d="M154 568L152 572L154 576L152 576L150 571L149 571L150 574L144 574L144 582L147 581L150 583L150 576L151 576L156 583L155 576L160 577L160 576L154 568z"/>
<path style="fill:#98826a; stroke:none;" d="M302 568L302 574C299.46 573.477 299.315 573.405 299 576L298 576L298 573L294 571L293 571L294 577L287 575L288 580L298 578L298 581L299 581L303 582L303 578C307.051 578.64 308.648 580.15 310 584L311 584L311 577L319 578L320 578L325 583L326 576L334 578L338 576L338 580L339 580L342 576L343 576L348 576L348 575L343 575L343 568L340 568L340 574L332 572L331 572L320 570L321 573C317.757 572.179 316.87 572.174 315 575L309 570L309 574L305 573L302 568z"/>
<path style="fill:#9d704f; stroke:none;" d="M201 569L200 579L204 579L201 569z"/>
<path style="fill:#a59178; stroke:none;" d="M239 569L242 585L243 585L243 582L244 582L250 592L246 582L249 583L249 573L248 573L249 579L239 569z"/>
<path style="fill:#674a38; stroke:none;" d="M76.3333 570.667L76.6667 571.333L76.3333 570.667z"/>
<path style="fill:#7b3c11; stroke:none;" d="M197 570L194 572C191.978 576.279 191.626 580.067 197 581L197 580L196 575L199 576L199 570L197 570z"/>
<path style="fill:#c7bfb2; stroke:none;" d="M65 571C56.3185 589.352 38.9328 604.657 38 626C44.8192 621.611 45.5781 612.813 48.7461 606.039C54.4225 593.902 61.1991 582.735 69 572L65 571z"/>
<path style="fill:#b59f88; stroke:none;" d="M117 571L119 576L120 576L120 571L117 571z"/>
<path style="fill:#624b39; stroke:none;" d="M257 572L257 581L256 581L256 578L255 578L255 584C258.696 580.572 259.161 576.534 257 572z"/>
<path style="fill:#9c8170; stroke:none;" d="M105 574L104 580L108 580L105 574z"/>
<path style="fill:#45270d; stroke:none;" d="M204 574L204 579L164 584L165 580L163 584L147 584L147 585L181 584.816L212 581L212 577L205 578L204 574z"/>
<path style="fill:#e2c9b5; stroke:none;" d="M117 575L116 579L119 575L117 575z"/>
<path style="fill:#b5a596; stroke:none;" d="M229 575L231 585L229 583L222 584C226.138 586.848 230.073 586.187 231 592L232 592L232 590L233 590L235 598L236 584L242 584L236 575L236 580L229 575z"/>
<path style="fill:#6d5440; stroke:none;" d="M76 576L76 578L79 578L79 576L76 576z"/>
<path style="fill:#a58d75; stroke:none;" d="M24 577L20 587L21 587L24 577z"/>
<path style="fill:#c0ad9f; stroke:none;" d="M126 577L126 583L129 577L126 577z"/>
<path style="fill:#fbf2e3; stroke:none;" d="M68 599L58 620L59 620C65.8098 606.76 79.6367 592.893 82 578C73.2707 581.253 74.2568 592.797 68 599z"/>
<path style="fill:#8c6a51; stroke:none;" d="M161 579L161 583L163 583L163 579L161 579z"/>
<path style="fill:#bdac9a; stroke:none;" d="M250 579L249 583L246 582L250 592L248 592L249 595L251 594L254 599L251 587L252 587L255 597L257 597L255 582L254 582L253 585L250 579z"/>
<path style="fill:#c1bdb4; stroke:none;" d="M314 579C314.268 587.579 316.758 596.026 319.69 603.995C320.817 607.06 324.522 609.902 321 612L328 626L332 626C331.361 621.2 328.328 617.585 327.05 612.985C324.026 602.101 323.68 585.991 314 579z"/>
<path style="fill:#bdb7a9; stroke:none;" d="M73 581C65.2271 593.297 49.3128 611.426 48 626C54.5974 624.881 58.1213 616.094 57 610C63.9629 608.602 74.1271 588.792 76 582L75 581L73 581z"/>
<path style="fill:#61472e; stroke:none;" d="M198 582L198 583L204 584C203.242 580.533 201.081 581.688 198 582z"/>
<path style="fill:#bcb2a6; stroke:none;" d="M108 582L100 583C94.4536 591.75 80.9024 606.019 83 617L75 626L87 618L87 617L84 617L84 614C88.1924 612.814 88.8981 606.744 91.0741 603.074C95.2357 596.055 100.158 588.311 108 585L99 600L102 596L105 598L118 588L118 590L122 588L122 586L110 582L108 582z"/>
<path style="fill:#a98f78; stroke:none;" d="M197 594L194 586L199 586L201 591L202 591C203.057 587.508 204.418 586.568 208 586C204.959 584.708 198.351 582.036 195.134 582.461C188.437 583.346 194.14 592.132 197 594z"/>
<path style="fill:#d7c7b7; stroke:none;" d="M243 582L242 585L236 584L235 598L233 590L232 590L232 592L231 592C230.619 587.11 228.724 586.155 224 586L233 610L234 610L235 608L239 626L246 626C245.743 617.118 236.215 601.559 243 594L251 626L261 626C260.892 612.905 258.434 598.468 252 587L251 587L254 599L251 594L249 595L243 582z"/>
<path style="fill:#edece7; stroke:none;" d="M90 583C82.7154 597.045 69.6484 610.047 66 626L75.8248 612.039L92 583L90 583z"/>
<path style="fill:#3e240d; stroke:none;" d="M122 584C126.677 588.775 139.286 585.981 146 586L146 584L122 584z"/>
<path style="fill:#6e4f3a; stroke:none;" d="M186 583L186 584L192 586C191.271 582.597 189.194 583.013 186 583z"/>
<path style="fill:#bbae9e; stroke:none;" d="M216 583C210.983 585.781 203.096 584.433 202 591L201 591L199 586L194 586C197.006 596.539 204.728 625.854 217 626C216.732 614.609 201.155 598.629 208 589C209.327 594.052 212.92 599.363 218 601L216 595L217 595L228 626L232 626L222 585L216 583z"/>
<path style="fill:#38220d; stroke:none;" d="M256 583L257 588L258 588L256 583z"/>
<path style="fill:#cdc0b7; stroke:none;" d="M305 583L304 589L300 587L299 587C294.134 592.824 299.693 599.992 302 606L303 606L304 604C306.54 614.542 306.223 625.99 319 626C316.456 615.208 312.299 604.776 309.714 594C308.569 589.226 311.149 584.071 305 583z"/>
<path style="fill:#bdafa4; stroke:none;" d="M79 584L76 592L77 592L81 584L79 584z"/>
<path style="fill:#997e6b; stroke:none;" d="M174 585L174 586L190 585L174 585z"/>
<path style="fill:#d4c7bf; stroke:none;" d="M258 584L263 626L296 626L288 592L287 592L287 604L283 588L281 591L280 591L280 589L279 589L280 598L279 598C277.918 595.187 277.188 596.981 276 599L270 584L269 584L273 614L272 614L270 599L268 601L264 587L258 584z"/>
<path style="fill:#d0c0b0; stroke:none;" d="M347 584L346 601L342 601C343.483 607.467 346.895 622.221 353.418 625.397C358.126 627.688 366.819 626 372 626L362 614L364 623C357.535 616.736 356.072 608.692 356 600L355 600L353 603C352.995 596.526 351.567 588.853 347 584z"/>
<path style="fill:#cac0b6; stroke:none;" d="M405 584L411 599L399 592L404 600L403 603L402 603L398 593L396 593L396 599L389 595C389.248 600.311 390.578 603.635 396 605L396 611C393.678 617.389 396.61 620.294 399 626L417 626C417 609.208 418.443 596.193 405 584z"/>
<path style="fill:#f7e9dc; stroke:none;" d="M90 609L97 613C93.6015 600.242 102.412 595.773 108 585C97.3805 587.989 92.5917 599.309 90 609z"/>
<path style="fill:#afa28f; stroke:none;" d="M120 585L120 586L122 588C110.309 593.983 93.7954 613.486 90 626C97.2286 625.781 98.7675 621.294 103.285 616.424C112.155 606.863 119.215 595.849 130 588L130 587L120 585z"/>
<path style="fill:#614b36; stroke:none;" d="M132 585L132 586L138 586L132 585z"/>
<path style="fill:#c7bab1; stroke:none;" d="M187 586L188 590L174 587L175 598L174 598L170 586L146 586L146 587C160.483 594.777 158.234 616.693 170.609 624.972C175.849 628.478 188.808 626 195 626C194.099 612.581 176.728 603.396 178 590L180 590L198 626L210 626L191 585L187 586z"/>
<path style="fill:#e0dcd9; stroke:none;" d="M222 585L232 626L239 626L234 610L233 610C232.484 601.466 229.918 589.597 222 585z"/>
<path style="fill:#dcd9d2; stroke:none;" d="M361 585C361.557 590.355 359.314 594.77 359.133 600C358.817 609.091 366.078 621.758 374 626C373.504 620.484 370.246 616.985 368.819 611.911C366.388 603.267 368.308 591.444 361 585z"/>
<path style="fill:#cfc5bc; stroke:none;" d="M130 587L132 589C120.403 595.114 105.578 614.201 100 626C112.172 625.991 116.304 614.865 126 609L112 626L150 626C149.303 621.496 147.393 619.248 143 618L143 614L128 611C132.584 607.032 137.49 609.939 143 610C145.771 619.645 154.501 625.999 164 626L155 599L154 599L153 602L152 602C149.724 597.071 148.546 588.905 143 587L147 597C141.065 592.114 138.839 584.417 130 587z"/>
<path style="fill:#5b452e; stroke:none;" d="M138 586L138 587L146 587L138 586z"/>
<path style="fill:#a89787; stroke:none;" d="M170 586L174 598L175 598L174 587L188 590C184.709 584.033 175.972 586 170 586z"/>
<path style="fill:#ccc2b6; stroke:none;" d="M338 586L341 600L342 600L342 592L341 594L340 594L338 586z"/>
<path style="fill:#d4c7b6; stroke:none;" d="M105 598L102 596C100.734 598.17 100.245 599.571 98 598C95.025 604.411 94.2372 606.48 97 613L90 609L92 601L91 601L88 612L91 611L78 626L89.3665 624.976L99.6551 611.259L118 588C110.521 587.689 109.588 593.128 105 598z"/>
<path style="fill:#ab9b8b; stroke:none;" d="M139 587L147 597L143 587L139 587z"/>
<path style="fill:#e6e0d4; stroke:none;" d="M146 587L152 602L153 602L154 599L155 599C156.047 607.594 159.839 625.662 170 626L149 587L146 587z"/>
<path style="fill:#e6dfd7; stroke:none;" d="M309 587C309.033 596.707 313.054 605.739 315.576 615C316.803 619.509 317.08 624.366 322 626C319.551 615.321 316.263 595.078 309 587z"/>
<path style="fill:#d5cec4; stroke:none;" d="M312 587C312.671 596.843 315.964 625.6 328 626L321 612L324 609L312 587z"/>
<path style="fill:#e6dfd9; stroke:none;" d="M320 587L332 626L336 626L327.545 606L320 587z"/>
<path style="fill:#d3cfc6; stroke:none;" d="M332 587L341.972 616.17L349 626L335 587L332 587z"/>
<path style="fill:#f1e5d9; stroke:none;" d="M96 626C102.295 625.078 105.1 619.132 108.824 614.536C115.977 605.71 122.945 595.972 132 589C127.128 587.471 124.07 592.738 120.743 595.656C111.632 603.648 101.371 615.137 96 626z"/>
<path style="fill:#462d19; stroke:none;" d="M258 588L261 626L262 626C262 614.762 262.917 598.231 258 588z"/>
<path style="fill:#d0c6bc; stroke:none;" d="M382 588L381 593L377 592L374 604L373 604L366 591L365 591L374 626L389 626L384 623L384 617L391 617L385 613L383 604L381 605L380 605L381 594L382 588z"/>
<path style="fill:#ded8ca; stroke:none;" d="M207 589C201.265 599.802 216.391 614.279 217 626C220.721 623.283 218.689 619.729 217.26 616.001C213.814 607.011 210.395 597.73 207 589z"/>
<path style="fill:#9a8373; stroke:none;" d="M259 589L260 601L261 601L259 589z"/>
<path style="fill:#dad6cd; stroke:none;" d="M294 589C294.066 596.997 295.688 623.151 304 626L301 608L310 626L303 606L302 606L294 589z"/>
<path style="fill:#ebe3e1; stroke:none;" d="M335 589C336.904 598.101 342.454 622.59 352 626C349.54 615.74 342.578 596.55 335 589z"/>
<path style="fill:#efe6dd; stroke:none;" d="M178 590C175.539 602.841 193.313 613.367 195 626L198 626L180 590L178 590z"/>
<path style="fill:#c1aa8b; stroke:none;" d="M17 591L16 594L17 591z"/>
<path style="fill:#cec7c1; stroke:none;" d="M327 591C321.874 601.047 331.088 625.858 343 626C340.872 617.119 334.844 595.696 327 591z"/>
<path style="fill:#ede8e2; stroke:none;" d="M208 592L219 626L223 626L210 592L208 592z"/>
<path style="fill:#cbc1b8; stroke:none;" d="M75 593L64 612L65 612C68.218 606.969 76.4458 599.184 75 593z"/>
<path style="fill:#e6e2d7; stroke:none;" d="M241 594L246 626L251 626L243 594L241 594z"/>
<path style="fill:#b1aaa0; stroke:none;" d="M77 595L61 626C68.6355 623.385 76.1997 602.442 79 595L77 595z"/>
<path style="fill:#d0c2b7; stroke:none;" d="M216 595L218 601L211 596C212.075 599.869 214.71 602.43 216.432 606C219.624 612.617 218.869 625.272 228 626C227.436 617.596 221.509 601.294 216 595z"/>
<path style="fill:#cdc5b8; stroke:none;" d="M21 599L11 618L9 616L5 626C10.9116 624.048 22.4275 605.106 21 599z"/>
<path style="fill:#675747; stroke:none;" d="M260 601L260 605L261 605L260 601z"/>
<path style="fill:#887868; stroke:none;" d="M11 604L10 609L11 609L11 604z"/>
<path style="fill:#83705f; stroke:none;" d="M261 606L261 610L262 610L261 606z"/>
<path style="fill:#c2b3a0; stroke:none;" d="M9 607L6 614L7 614L9 607z"/>
<path style="fill:#beb2a4; stroke:none;" d="M128 611L143 614L143 618L150 626L154 626L143 610C137.845 609.85 131.733 606.096 128 611z"/>
<path style="fill:#bba899; stroke:none;" d="M262 608L262 617L263 617L262 608z"/>
<path style="fill:#eee9e3; stroke:none;" d="M301 608L304 626L308 626L301 608z"/>
<path style="fill:#b9a992; stroke:none;" d="M109 626C114.31 624.475 125.089 614.519 126 609C119.517 611.631 111.526 619.496 109 626z"/>
<path style="fill:#786044; stroke:none;" d="M8 610L4 621L5 621L10 610L8 610z"/>
<path style="fill:#a3937c; stroke:none;" d="M84 617L91 611L84 617z"/>
<path style="fill:#b1a08e; stroke:none;" d="M281 614L287 618L281 614z"/>
<path style="fill:#776153; stroke:none;" d="M262 617L262 626L263 626L262 617z"/>
<path style="fill:#ac9c83; stroke:none;" d="M3 619L0 626L3 619z"/>
<path style="fill:#a69585; stroke:none;" d="M385 619L385 623L388 620L397 623C394.93 617.852 389.821 619 385 619z"/>
<path style="fill:#8a7562; stroke:none;" d="M388 620L388 624L397 624L388 620z"/>
<path style="fill:#a89889; stroke:none;" d="M401 620L406 624L406 620L401 620z"/>
<path style="fill:#b49d8b; stroke:none;" d="M389 624L389 626C392.767 626 398.054 627.413 399 623L389 624z"/>
</svg>
