<?xml version="1.0" standalone="yes"?>
<svg width="236" height="353">
<path style="fill:#eaeaea; stroke:none;" d="M0 0L0 224L12.054 217.939L31.9113 215.586L48 208L48 205L58 199L57 195L61 196L70 186L64 177L63 177L63 181L62 181C58.0877 173.934 51.3356 158.619 64 156L66 139L61 140L64 130L65 133L66 133L52 113L51 113L49 115L46 106L39 108C38.8629 105.084 38.9826 103.37 36 103C37.9826 99.0918 40.6172 96.681 45 96L44 92L48 100L50 100C52.213 92.4936 49.0791 89.7967 44 85L55 89L58 78C54.7988 76.1941 54.5974 74.5798 55 71L53 72L53 71C54.5209 65.902 54.118 60.3619 55.7238 55.2855C58.8899 45.2762 64.266 36.2178 66.2894 25.8302C67.2457 20.9205 66.3165 14.6478 62 12L64 0L0 0z"/>
<path style="fill:#d1d1d1; stroke:none;" d="M64 0L62 12C69.6186 18.8639 64.8753 29.7689 62 38L66 33L72 34L73 34C84.4165 25.549 90.6389 17.3947 106 15.0903C113.836 13.9148 121.153 17.3875 129 16C131.783 23.5117 142.486 27.6594 147.621 34.1698C153.317 41.3914 156.524 63.05 167.87 63.7168C173.159 64.0277 180.49 59.8102 186 59L184 57L184 56L189 48L192 48C193.053 41.1655 213.195 30.1541 200 28L200 24L197 24L197 20C179.026 18.5814 166.009 22.761 149 27L149 21L152 16C161.092 13.9457 181.627 11.2132 182 0L128 0C120.154 0 109.685 -1.8125 102.17 0.544739C93.286 3.33127 87.9612 11.7885 80.885 17.3256C79.0571 18.756 74.7794 22.7865 72.2438 21.6729C68.4447 20.0042 72.4334 15.3547 73.9383 13.733C79.4276 7.81763 84.9307 2.59775 93 1L64 0z"/>
<path style="fill:#b4b2b3; stroke:none;" d="M101 0C90.1097 0.0299988 83.2367 3.69803 75.5725 11.2207C73.3516 13.4006 68.3372 17.8313 71.0285 21.3781C73.1982 24.2373 77.4426 20.334 79.3495 18.9992C86.1092 14.2679 96.3704 6.53311 101 0z"/>
<path style="fill:#c5c5c5; stroke:none;" d="M182 0C181.116 11.4577 160.845 12.8603 152 16L149 21L149 27C166.141 23.759 179.037 19.2286 197 20L197 24L200 24L200 28C211.747 31.4987 192.603 40.0909 192 48L189 48L184 56L184 57L186 59L168 64L166 93L173 95C177.153 91.5598 181.202 94.2581 186 95L180 141L203 137.185L236 137L236 70C231.851 69.4756 225.297 67.4931 221.559 70.179C216.973 73.475 215.898 81.7816 208.989 82.382C198.68 83.2778 198.375 73.1053 208 71L208 67L190 68C191.361 65.5398 192.069 64.6105 189 64L189 63C193.889 61.2473 194.613 55.7031 195 51C208.825 51 216 54.2345 216 38L213 38C212.897 26.3794 221.382 31.9732 225.088 24.4707C226.314 21.988 224.176 17.7076 224 15L208 8L208 4L198 3L198 0L182 0z"/>
<path style="fill:#b5b4b9; stroke:none;" d="M198 0L198 3L208 4L208 8L224 15C224.077 17.6324 225.914 22.1589 224.553 24.4707C220.178 31.9023 212.633 26.2033 213 38L216 38C216 53.6416 208.181 51 195 51C194.348 55.7436 193.296 60.4416 189 63L189 64L192 64L190 68L208 67L208 71C196.416 72.6063 199.685 84.3707 209.961 82.5957C216.729 81.4265 217.448 73.2762 222.302 70.179C226.129 67.7379 231.828 69.6708 236 70L236 25C236 19.7475 237.594 11.4523 233.683 7.29858C224.748 -2.18976 209.642 0 198 0z"/>
<path style="fill:#87868b; stroke:none;" d="M220 0L220 1L236 9L236 0L220 0z"/>
<path style="fill:#9c9b97; stroke:none;" d="M110 14L110 15L114 15L110 14z"/>
<path style="fill:#7b5c4a; stroke:none;" d="M99 17L99 19L103 23L111 23L114 16C109.186 13.9798 103.677 15.0181 99 17z"/>
<path style="fill:#9b897d; stroke:none;" d="M114 15L111 16L111 17L115 18L114 15z"/>
<path style="fill:#aa968b; stroke:none;" d="M118.333 15.6667L118.667 16.3333L118.333 15.6667z"/>
<path style="fill:#5f3a2a; stroke:none;" d="M119 15L119 17L115 18L112 17C110.562 24.8057 106.774 22.856 101 21L95 28L99 28L98 32C99.2622 35.7043 96.5773 39.0816 93 40L95 42L94 49L93 56L94 56L96 54L101 63L106 55L101 52L108 51L110 43L111 43L110 46C118.258 45.6161 111.514 35.7229 111 31L108 33L104 31L109 29L107 25L110 27L115 19L115 27L116 27L116 21C120.161 21.4771 122.802 21.9466 125 18L122 19L119 15z"/>
<path style="fill:#8b7065; stroke:none;" d="M126 16L122 19L125 18L124 21L128 20L126 16z"/>
<path style="fill:#4a2e20; stroke:none;" d="M127 16L128 20L116 21L116 27L115 27L115 19L107 26L109 29L104 31L108 33L111 31C111.25 35.6024 117.443 45.0708 110 46L111 56L114 56L113 48C126.032 44.9291 131.875 56.1241 142.424 61.027C146.941 63.1262 150.32 60.8053 153 66C141.788 62.9461 146.256 76.5145 151 70L161 80L146 90L152 83L152 82L132 86C130.181 91.3018 126.717 94.7105 121 93L124 92L124 91L112 86L124 101L120 100L120 101L126 105C128.665 96.3648 144.738 102.568 148 92C153.079 92.0757 155.779 88.2789 158 84L159 84C155.701 96.1388 141.152 95.2466 135.032 103.581C128.282 112.775 148.675 106.909 151 106L125 120L125 121L129 121L130 121L131 127L132 127L132 122L137 130L138 130L139 119L140 119L138 126L141 129C146.024 127.618 149.182 124.18 150 119C154.213 119.222 156.268 118.298 157 114L159 114C159.359 124.179 153.491 127.631 149 136C158.186 134.594 157.399 126.212 167 132L166 126L170 122C165.317 119.097 163.584 115.141 162 110L163 103C168.393 98.4106 164.473 92.767 165.524 87.1698C166.683 80.9963 171.01 74.6571 169.088 68.0008C167.518 62.5627 161.267 61.5653 158.684 56.9421C149.18 39.9305 144.803 26.7867 127 16z"/>
<path style="fill:#91694f; stroke:none;" d="M94 26L94 27C89.9517 27.6454 86.9288 28.5421 87 33L81 36L81 37L86 40L82 38L81 44L85 46L86 46L91 41L91 45L92 45L95 43L95 42L93 40L96 41L98 32L99 28L95 28L103 21C96.4943 15.075 85.1227 20.8162 94 26z"/>
<path style="fill:#b3937e; stroke:none;" d="M101.667 18.3333L102.333 18.6667L101.667 18.3333z"/>
<path style="fill:#b78f75; stroke:none;" d="M81 29C76.6034 29.9421 79.0285 39.6141 78 44L84 48L85 43L81 44L82 38L86 40L81 37L81 36L87 33C87.9657 29.0492 90.177 28.0034 94 27L94 26L90 20C85.1643 21.5084 81.0081 23.497 81 29z"/>
<path style="fill:#311200; stroke:none;" d="M107 22L107 24L109 24L109 22L107 22z"/>
<path style="fill:#878380; stroke:none;" d="M136 23L139 25L136 23z"/>
<path style="fill:#573f33; stroke:none;" d="M130 24C130.693 29.2951 133.174 35.4107 138 38L130 24z"/>
<path style="fill:#9a7d6d; stroke:none;" d="M107.667 25.3333L108.333 25.6667L107.667 25.3333z"/>
<path style="fill:#cdaa8a; stroke:none;" d="M78 27L73 33L75 36L75 50L80 46L78 44L81 28L78 27z"/>
<path style="fill:#e0bea2; stroke:none;" d="M70 32L71 35L67 38L72 37L72 38L68 39L68 40L71 44L74 43L75 35L70 32z"/>
<path style="fill:#f4e1d2; stroke:none;" d="M66 33L55 54L55 55L55 56L58 59L59 55L64 58L66 52L67 52L67 56L70 53L74 59C68.6874 59.6115 68.0596 61.9992 68 67L63 65C61.3855 68.3552 59.861 72.2536 63 75L69 71L69 75L70 75L73 64L78 65L81 62L79 45L75 50L75 43L71 44L68 41L72 38L72 37L67 38L71 33L66 33z"/>
<path style="fill:#9d7f65; stroke:none;" d="M68.6667 40.3333L69.3333 40.6667L68.6667 40.3333z"/>
<path style="fill:#8c6554; stroke:none;" d="M107 40L107 44L108 44L109 40L107 40z"/>
<path style="fill:#80533c; stroke:none;" d="M90 41C82.286 47.2706 84.4463 52.0945 84 61L87 60L86 67L88 58L91 59L90 54L92 56L93 56L92 49L91 49L90 52L90 41z"/>
<path style="fill:#675c58; stroke:none;" d="M151 41L153 44L151 41z"/>
<path style="fill:#35170c; stroke:none;" d="M95 47L103 50L103 42L95 47z"/>
<path style="fill:#deb49c; stroke:none;" d="M89 48L94 49L95 43L89 48z"/>
<path style="fill:#845b49; stroke:none;" d="M110 43L108 51L101 52L107 56L110 43z"/>
<path style="fill:#775242; stroke:none;" d="M120 56L120 46C114.683 47.7662 116.084 53.2141 120 56z"/>
<path style="fill:#807674; stroke:none;" d="M154.333 46.6667L154.667 47.3333L154.333 46.6667z"/>
<path style="fill:#d2b3a1; stroke:none;" d="M80 47L79 56L80 56L83 47L80 47z"/>
<path style="fill:#9b7158; stroke:none;" d="M88 48L90 52L93 48L88 48z"/>
<path style="fill:#5d3722; stroke:none;" d="M115 47L114 56L111 56L110 48L109 48L108 60L104 61L106 67L108 67L112 57L114 59L115 56L116 56L118 65C113.74 68.1122 121.005 71.6699 124 72L123 66L127 72L131 72L134 81L134 82L131 84L135 86L152 82L152 83L146 90L161 80C159.839 74.2643 156.182 72.0612 151 70C145.393 74.8134 143.576 64.2661 153 66C151.236 60.2058 147.77 62.8816 143.285 60.9915C134.358 57.2291 129.58 49.6129 120 47L120 56L115 47z"/>
<path style="fill:#b38e7c; stroke:none;" d="M82 48L81 62C76.7356 62.6328 75.9284 69.7419 78 73L83 68L82 62L86 64L87 60L84 61L82 48z"/>
<path style="fill:#c2997d; stroke:none;" d="M66 52L64 61L62 64L69 59L66 52z"/>
<path style="fill:#d7b99f; stroke:none;" d="M70 53L68 56L69 59L63 64L63 65L68 67C68.1551 62.2635 69.1828 60.0045 74 59L70 53z"/>
<path style="fill:#726b65; stroke:none;" d="M157.333 53.6667L157.667 54.3333L157.333 53.6667z"/>
<path style="fill:#bf907c; stroke:none;" d="M90 54L91 59L88 58L93 62L90 54z"/>
<path style="fill:#8c5f4a; stroke:none;" d="M94 54L93 56L93 57L97 60L96 54L94 54z"/>
<path style="fill:#ab806f; stroke:none;" d="M59 55L59 58L60 58L61 55L59 55z"/>
<path style="fill:#fafcf7; stroke:none;" d="M55 56L53 72C57.4044 68.8387 59.8268 59.6751 55 56z"/>
<path style="fill:#6f3f2b; stroke:none;" d="M60 56L61 64L60 56z"/>
<path style="fill:#ae8370; stroke:none;" d="M106 56L105 57L105 58L105 59L108 56L106 56z"/>
<path style="fill:#865a3f; stroke:none;" d="M115 56L114 59L112 57L108 67L103 63L106 64L104 61L108 60L108 59C104.53 59.2482 102.039 59.4486 101 63L97 60L99 65L96 63L95 63L98 76L102 72L103 69L104 69C103.086 76.2614 102.293 87.0984 111 90L114 103L111 104L110 98L106 98L106 99L109 99L110 109L116 109L111 119L109 132L104 124L108 135L105 134L103 142L106 144L107 144L112 136L117 137L121 134L121 128L114 129L117 121L115 122L122 120L122 119C114.251 114.124 124.065 107.478 129 105L129 104L117 106C117.72 101.499 119.57 100.506 124 101L112 86L117 88L116 83L111 83L108 70L110 72L113 61L115 61L116 64L117 64L115 56z"/>
<path style="fill:#756860; stroke:none;" d="M158.333 56.6667L158.667 57.3333L158.333 56.6667z"/>
<path style="fill:#986e58; stroke:none;" d="M62 57L64 61L62 57z"/>
<path style="fill:#643521; stroke:none;" d="M93 57L92 58L92 60L99 65L95 57L93 57z"/>
<path style="fill:#d6b2a4; stroke:none;" d="M58 58C57.4764 66.2364 51.7221 73.1266 58 80L59 80L58 71L59 71L59 75L60 75L62 67L57 69L58 58z"/>
<path style="fill:#a77658; stroke:none;" d="M89 60L88 67L84 65L82 70L82 71L89 71L89 76L90 76L93 74L91 69L95 70L94 60L92 62L89 60z"/>
<path style="fill:#a79d9b; stroke:none;" d="M160 60L160 61L164 61L160 60z"/>
<path style="fill:#4d2009; stroke:none;" d="M113 61L112 65L115 61L113 61z"/>
<path style="fill:#947062; stroke:none;" d="M59 62L57 69L63 64L59 62z"/>
<path style="fill:#e1b79e; stroke:none;" d="M82 62L81 71L85 70L87 65L87 64L82 62z"/>
<path style="fill:#a57c6a; stroke:none;" d="M103 63L103 65L105 65L105 63L103 63z"/>
<path style="fill:#6d4933; stroke:none;" d="M110 72L108 70C106.367 75.5919 108.601 78.1689 111 83L116 83L115 90L124 91L124 92L121 93C127.683 96.3412 132.335 89.4592 135 84L131 84L134 82L134 81L131 72L127 72L123 66L124 72C119.128 70.7457 116.448 68.0246 118 63C111.837 64.1896 109.472 65.5348 110 72z"/>
<path style="fill:#d9b3a8; stroke:none;" d="M73 64L68 78L72 72L73 72L75 74L78 65L73 64z"/>
<path style="fill:#855c46; stroke:none;" d="M81 65L81 67L83 67L83 65L81 65z"/>
<path style="fill:#c28f72; stroke:none;" d="M97 66L97 71L99 71L97 66z"/>
<path style="fill:#562810; stroke:none;" d="M99 66L99 70L100 70L99 66z"/>
<path style="fill:#572908; stroke:none;" d="M86 68L86 70L88 70L86 68z"/>
<path style="fill:#835545; stroke:none;" d="M79 69L79 95L86 96L83 94L85 72L85 71L79 69z"/>
<path style="fill:#592607; stroke:none;" d="M91 69L93 74L94 74L94 69L91 69z"/>
<path style="fill:#ab7960; stroke:none;" d="M103 69L102 72L99 72L104 85L103 88L108 91L106 97L114 103L111 90C102.038 85.0432 105.716 76.5532 103 69z"/>
<path style="fill:#956a57; stroke:none;" d="M76 70L74 78L78 78L76 70z"/>
<path style="fill:#ccb09a; stroke:none;" d="M93 70L92 74L92 75L94 79L101 77L96 81L101 89L99 74L98 77L96 77L93 70z"/>
<path style="fill:#a5826c; stroke:none;" d="M95 70L98 77L95 70z"/>
<path style="fill:#827771; stroke:none;" d="M169.333 70.6667L169.667 71.3333L169.333 70.6667z"/>
<path style="fill:#835c4b; stroke:none;" d="M58 71L58 84L59 84L61 81L61 94L70 110L71 110L74 103L72 106L71 106L70 102C74.9556 100.933 71.2511 98.2372 68 98L68 97L74 96L71 93L66 88L70 89L69 80L68 80L70 86L67 84L66 84L62 89L61 74L58 71z"/>
<path style="fill:#cba189; stroke:none;" d="M63 75L60 79L61 79L62 76L63 76L62 89C65.9671 86.5424 68.5821 75.8988 69 71C65.8275 71.4304 63.4018 71.6728 63 75z"/>
<path style="fill:#eabca2; stroke:none;" d="M87 71L87 74L89 74L89 71L87 71z"/>
<path style="fill:#a1a0a5; stroke:none;" d="M216 71C214.264 71.2602 212.639 71.5067 210.976 72.1088C197.874 76.8517 214.418 85.6638 216 71z"/>
<path style="fill:#c9a08a; stroke:none;" d="M72 72L70 76L70 77L75 82L74 79L78 90L77 95C82.8635 90.9087 81.6404 77.3286 78 72L78 78L74 78L75 74L72 72z"/>
<path style="fill:#6c4631; stroke:none;" d="M83 72L83 92L84 92C84.0173 85.7243 84.6432 79.8245 89 75L83 72z"/>
<path style="fill:#e2c3b1; stroke:none;" d="M91 73C90.3263 77.9221 92.7676 81.5427 97 84L96 81L101 77L94 79L91 73z"/>
<path style="fill:#775237; stroke:none;" d="M56.3333 75.6667L56.6667 76.3333L56.3333 75.6667z"/>
<path style="fill:#412210; stroke:none;" d="M87 75C85.4421 81.8969 81.0748 89.6004 86 96L80 96L80 97L84 98L81 105L83 107L80 108L82 112L77 106L76 106C76.4595 116.75 80.5169 125.835 82.9537 135.741C84.5326 142.159 83.3291 148.233 90 152C88.0027 137.168 81.1589 126.432 84.1011 111C85.1139 105.688 83.8667 100.895 90 99L90 95L94 100L105 100L101 106L109 107C108.882 103.553 109.864 99.8125 106 99L106 98L108 97L99 98L93 87L98 88C95.8821 82.9966 92.211 77.0176 87 75z"/>
<path style="fill:#794e2e; stroke:none;" d="M62 76L61 79L62 76z"/>
<path style="fill:#ffe3d8; stroke:none;" d="M63 77L62 86L63 86L63 77z"/>
<path style="fill:#8a5f4c; stroke:none;" d="M67 82L70 79L73 83L73 77C70.1807 77.2027 62.6209 78.1417 67 82z"/>
<path style="fill:#9c8f86; stroke:none;" d="M168 78L168 82L169 82L168 78z"/>
<path style="fill:#c9c2bc; stroke:none;" d="M53 79L53 81L55 81L55 79L53 79z"/>
<path style="fill:#64361c; stroke:none;" d="M66 80L67 82L65 82L70 86L70 80L66 80z"/>
<path style="fill:#aa7b5d; stroke:none;" d="M74 79L75 82L71 83C71.4386 89.4641 70.4698 95.735 78 98L78 90L77 89L74 88L75 88L74 79z"/>
<path style="fill:#e9c9bc; stroke:none;" d="M56 80L55 87L56 87L56 84L57 84L58 86L58 80L56 80z"/>
<path style="fill:#c89580; stroke:none;" d="M69 80L71 83L69 80z"/>
<path style="fill:#230700; stroke:none;" d="M59 81L56 87L56 88L56 89L58 91L59 91L61 81L59 81z"/>
<path style="fill:#ce9c7b; stroke:none;" d="M100 81C99.3919 86.2667 101.601 94.1275 107 96L108 91L103 88L104 85L100 81z"/>
<path style="fill:#9c8a7e; stroke:none;" d="M44 85L50 87L51 90C53.9246 84.622 47.8686 84.6035 44 85z"/>
<path style="fill:#8c7064; stroke:none;" d="M56 84L58 87L56 84z"/>
<path style="fill:#220600; stroke:none;" d="M158 84L148 92C143.026 101.701 131.503 97.2834 125 104C135.134 102.635 143.679 100.381 151.961 94.0795C155.217 91.602 159.427 88.3755 158 84z"/>
<path style="fill:#764324; stroke:none;" d="M73 86L75 90L73 86z"/>
<path style="fill:#754831; stroke:none;" d="M93 87L96 92L100 90L99 87L93 87z"/>
<path style="fill:#633825; stroke:none;" d="M48 87L56 100L58 100L57 104L61 103L59 101L64 95L64 94L61 90L58 89L54 88L51 90L48 87z"/>
<path style="fill:#866961; stroke:none;" d="M55 87L54 91L57 91L55 87z"/>
<path style="fill:#bd9073; stroke:none;" d="M66 88L71 95L69 87L66 88z"/>
<path style="fill:#724121; stroke:none;" d="M70 88L70 93L71 93L70 88z"/>
<path style="fill:#beaca8; stroke:none;" d="M165 88L165 92L166 92L165 88z"/>
<path style="fill:#a07a63; stroke:none;" d="M100 89L101 92L98 93L99 96L104 95L100 89z"/>
<path style="fill:#c4977a; stroke:none;" d="M96 93L98 91L101 92C98.6008 90.2919 97.7196 90.6561 96 93z"/>
<path style="fill:#6a402a; stroke:none;" d="M98 91L98 93L100 93L98 91z"/>
<path style="fill:#ad917c; stroke:none;" d="M44 92L47 95L44 92z"/>
<path style="fill:#764d2f; stroke:none;" d="M176 92L175 96L182 100C181.375 104.943 181.723 110.395 177 113L177 114L181 114C179.457 116.602 178.002 117.682 176 115L175 115L173 125L168 123L166 126L167 132C158.937 125.381 150.577 133.489 151 143L148 142L146 143C144.963 150.423 138.164 155.171 131 154L135 127L133 127C132.343 135.037 129.608 138.497 122 141L118 134L117 134L117 137L112 136C110.124 141.966 106.454 141.855 109 149L114 148L112 145L117 141L121 150L120 144L126 144L127 141L128 141L127 152L126 152L126 148L124 148L124 162L129 161L118 173L125 171L122 177L127 177L131 164C137.662 167.335 138.293 165.047 144 162L144 161L138 161L148 153L145 151L145 150L149 144L153 144L149 150C155.628 148.948 164.711 137.563 166 149L168 149C168.021 143.143 169.043 137.25 176 137L175 144L182 132L186 95L176 92z"/>
<path style="fill:#1f0e07; stroke:none;" d="M167 93L163 103L162 110C163.498 116.837 166.681 121.733 173 125L182 100L175 94L167 93z"/>
<path style="fill:#92857d; stroke:none;" d="M173 93L173 94L176 94L173 93z"/>
<path style="fill:#ba9c84; stroke:none;" d="M51 94L51 98L52 98L51 94z"/>
<path style="fill:#784f3b; stroke:none;" d="M52 94L51 103L52 103L52 99L58 108L59 108L58 100L56 100C56.5563 96.3489 55.3144 95.4073 52 94z"/>
<path style="fill:#744c32; stroke:none;" d="M42 98L47 95L42 98z"/>
<path style="fill:#1b0700; stroke:none;" d="M62 95L59 101L69 110C68.343 105.389 66.6355 96.63 62 95z"/>
<path style="fill:#5b3822; stroke:none;" d="M78 98L75 96L68 97L68 98C70.6282 98.7913 72.7556 99.8872 70 102L71 106L72 106L74 103L72 108L75 111L76 111L76 106L77 106L82 112L80 108L83 107L81 105L84 98L80 97L80 96L84 96C81.2378 94.4085 78.7139 94.6685 78 98z"/>
<path style="fill:#6f4934; stroke:none;" d="M90 95L90 99L86 101L88 104L89 104L92 102L91 98L96 101L90 95z"/>
<path style="fill:#240400; stroke:none;" d="M99 98L105 97C102.45 95.3657 100.87 95.5701 99 98z"/>
<path style="fill:#cca995; stroke:none;" d="M40 96L36 103L39 108L44 107L44 106L40 104L42 96L40 96z"/>
<path style="fill:#e0bba8; stroke:none;" d="M44 98L44 101L46 99L47 99L46 105L47 105L50 102L47 97L44 98z"/>
<path style="fill:#ac7d63; stroke:none;" d="M42 98L40 104L46 108L47 108L47 99L46 99L44 101L44 98L42 98z"/>
<path style="fill:#94654b; stroke:none;" d="M91 98L92 102L89 104L88 104L88 100C84.4918 102.158 84.1795 104.05 85 108L89 106L90 112L92 112L93 103L97 100L91 98z"/>
<path style="fill:#b1836b; stroke:none;" d="M50 99L47 105L51 104L50 99z"/>
<path style="fill:#c1856b; stroke:none;" d="M52 99L55 111L53 109L52 109L50 110C52.5989 116.122 52.6687 121.935 60 124L57 116C58.441 109.945 57.7851 102.544 52 99z"/>
<path style="fill:#855f48; stroke:none;" d="M98 102L105 100L98 102z"/>
<path style="fill:#b79073; stroke:none;" d="M97 100L93 103L93 106L95 109L92 107L98 119C101.836 117.047 105.075 114.155 109 117L110 117L110 111L100 113L98 111L102 102L97 100z"/>
<path style="fill:#1d0a03; stroke:none;" d="M118 100L117 106L124 105L118 100z"/>
<path style="fill:#57280e; stroke:none;" d="M52 102L48 107L51 106L55 111L52 102z"/>
<path style="fill:#88563f; stroke:none;" d="M53 102L53 106L54 106L53 102z"/>
<path style="fill:#623c27; stroke:none;" d="M128 103C127.541 106.533 110.448 115.759 122 119L120 121L122 126L120 126L120 122L114 129L121 128L118 134L122 141C131.85 138.712 129.791 133.619 135 127L135 126L135 125L132 122L132 127L131 127L130 121L129 121L128 123L127 123L125 121L125 120L151 106C145.001 107.489 132.596 113.583 135 102L128 103z"/>
<path style="fill:#a87558; stroke:none;" d="M58 104L61 105C60.1238 110.274 61.6585 113.688 67 115L67 116L63 116L63 117L70 116L68 110L66 110L66 114C63.6265 110.004 63.3859 103.864 58 104z"/>
<path style="fill:#a1775f; stroke:none;" d="M100 104C95.2021 107.838 100.452 111.193 100 113L110 111L105 122L105 118L102 124L98 123L99 119L98 119L97 125L102 127L106 128L104 124L109 128L110 128L109 121C114.563 118.557 114.138 114.155 116 109L110 109L111 107L100 104z"/>
<path style="fill:#8d634a; stroke:none;" d="M47 105L47 109L52 107L47 105z"/>
<path style="fill:#451700; stroke:none;" d="M59 105L59 108L60 108L61 105L59 105z"/>
<path style="fill:#a49389; stroke:none;" d="M186 105L186 108L187 108L186 105z"/>
<path style="fill:#513122; stroke:none;" d="M63 106L62 107L65 114L66 114L67 108L63 106z"/>
<path style="fill:#dcbca3; stroke:none;" d="M86 106L83 120L95 113L95 112L90 112L89 106L86 106z"/>
<path style="fill:#f4c7aa; stroke:none;" d="M93 106L95 109L95 106L93 106z"/>
<path style="fill:#5c321a; stroke:none;" d="M69 107L68 114L73 111L73 110L72 108L71 110L70 110L69 107z"/>
<path style="fill:#cca78c; stroke:none;" d="M48 109L49 115L50 111L52 108L48 109z"/>
<path style="fill:#e7bb9e; stroke:none;" d="M58 108L57 116C59.3546 118.663 59.7943 120.867 58 124L58 125C64.7551 126.938 65.1977 131.78 65 138L62 138L64 130C60.4931 132.529 61.0031 135.94 61 140L66 139C66.3585 140.67 69.1444 146.215 69 142L75 142L74 139L75 139L77 145L78 145L78 141L79 141L81 150L77 152L80 152L79 155C86.8712 150.488 84.2263 143.783 78 139L78 138L81 136L77 133L72 126L73 124L73 123C69.4201 125.312 69.557 129.007 70 133C67.8578 129.986 66.7485 128.155 69 125L69 124L59 113L61 108L58 108z"/>
<path style="fill:#886547; stroke:none;" d="M72 108L73 111L69 115L74 115C74.0439 119.848 74.3584 123.633 79 126C80.2836 119.809 77.6194 111.103 72 108z"/>
<path style="fill:#7c3f22; stroke:none;" d="M53 115L56 112L53 115z"/>
<path style="fill:#c49674; stroke:none;" d="M59 113L62 118L63 118L67 116L59 113z"/>
<path style="fill:#fff0df; stroke:none;" d="M91 113L96 118L96 113L91 113z"/>
<path style="fill:#dab99a; stroke:none;" d="M96 114L96 118L91 115L93 120L90 119L89 127L90 127L90 123L97 133L103 131C102.081 127.256 100.856 125.653 97 125L96 114z"/>
<path style="fill:#5e3b28; stroke:none;" d="M157 114C155.835 117.853 153.973 118.967 150 119C148.661 123.793 145.58 127.109 141 129L138 126L140 119L139 119L138 130L137 130L135 128L131 154C138.514 155.933 145.452 150.816 146 143L148 144L152 137L152 136L149 136C154.654 128.334 160.068 124.109 159 114L157 114z"/>
<path style="fill:#95734d; stroke:none;" d="M176 114L176 118L181 114L176 114z"/>
<path style="fill:#c19e82; stroke:none;" d="M71 118L72 118L72 116L73 116L73 121L74 121L74 115L71 118z"/>
<path style="fill:#fce4ca; stroke:none;" d="M89 115L86 121L91 141C97.4219 134.705 83.1113 121.762 93 120L91 115L89 115z"/>
<path style="fill:#dcb29a; stroke:none;" d="M103 115L105 122L109 115L103 115z"/>
<path style="fill:#683925; stroke:none;" d="M63 117L67 124L69 124L71 116L63 117z"/>
<path style="fill:#ffddbd; stroke:none;" d="M72 116L67 129L73 123L72 126L75 127L72 116z"/>
<path style="fill:#7c543b; stroke:none;" d="M98 123L102 124L104 117C100.078 117.648 99.0145 119.236 98 123z"/>
<path style="fill:#936d58; stroke:none;" d="M70.3333 119.667L70.6667 120.333L70.3333 119.667z"/>
<path style="fill:#a88e75; stroke:none;" d="M83 120L84 128L85 128L83 120z"/>
<path style="fill:#482217; stroke:none;" d="M115 122L120 122L120 126L122 126C121.68 121.983 118.552 117.997 115 122z"/>
<path style="fill:#debfab; stroke:none;" d="M84 121L89 136L90 136L86 121L84 121z"/>
<path style="fill:#9b816a; stroke:none;" d="M91 121L91 123L93 123L93 121L91 121z"/>
<path style="fill:#c59881; stroke:none;" d="M109 121L110 130L112 130L109 121z"/>
<path style="fill:#e3c1b7; stroke:none;" d="M90 123C90.155 130.235 93.3736 139.837 102 138L97 133C96.651 128.03 94.2841 125.378 90 123z"/>
<path style="fill:#b78b72; stroke:none;" d="M76 124L77 133L79 135L80 135L79 126L76 124z"/>
<path style="fill:#a87d53; stroke:none;" d="M64 125L66 128L64 125z"/>
<path style="fill:#be968a; stroke:none;" d="M102 125L103 131L100 131C101.008 136.898 99.7163 137.262 97 142L103 142L105 134L108 135L102 125z"/>
<path style="fill:#b5907e; stroke:none;" d="M69 126L67 129L70 133L69 126z"/>
<path style="fill:#8c6955; stroke:none;" d="M83 126L89 149L90 149C91.2157 142.033 87.687 131.254 83 126z"/>
<path style="fill:#67452c; stroke:none;" d="M107 126L109 132L110 132L107 126z"/>
<path style="fill:#603d2a; stroke:none;" d="M78 127L83 138L78 127z"/>
<path style="fill:#c4a37a; stroke:none;" d="M75 130L71 133L70 137L71 138L75 130z"/>
<path style="fill:#5d352b; stroke:none;" d="M180 131L175 144L176 137C168.507 135.871 168.004 143.317 168 149L166 149C165.232 135.136 157.635 149.375 156 155C166.042 155.035 166.023 159.136 166 168L165 168L161 159L160 171L158 171L157 194C148.958 196.799 152.95 206.872 152.393 212.985C151.967 217.654 149.608 222.223 149 227C158.238 218.09 151.011 197.596 166 194L165 191L170 192C169.607 184.319 174.907 180.846 179.388 175.53C187.997 165.319 189.091 156.636 205 159C206.64 150.337 208.672 149.512 217 152L216 163L217 163L218 160L220 160C220.635 166.459 213.94 176.609 210.37 182.134C208.944 184.343 206.356 190.243 204 187L203 187L201 199L214 202L214 203L198 206C207.602 212.597 225.036 209.091 236 209C235.661 198.818 222.766 200 215 200L214 187L211 188L226.293 159L234 149L234 155L236 155L236 137L197 138L197 139L199 141L203 141L203 142C193.457 145.271 180.413 162.372 175.545 171.015C172.141 177.057 169.186 185.339 163 189L171 168L167 169C168.726 163.471 168.54 155.981 174 153L173 160L174 160C176.253 154.662 177.867 143.064 184 153L185 153L184 146C176.472 143.615 182.246 136.509 180 131z"/>
<path style="fill:#703e1b; stroke:none;" d="M62 132L62 138L65 138L65 132L62 132z"/>
<path style="fill:#ae8a74; stroke:none;" d="M87 132L90 144L91 144L87 132z"/>
<path style="fill:#8c5b3d; stroke:none;" d="M78 138L78 139L84 145L82 136L78 138z"/>
<path style="fill:#8e644e; stroke:none;" d="M152 136C149.306 138.449 147.463 140.615 151 143L152 136z"/>
<path style="fill:#d1b6a1; stroke:none;" d="M90 137L91 146L99 146L99 149L108 150C107.239 142.64 103.686 142.005 97 142L100 140L100 139L94 137L91 141L90 137z"/>
<path style="fill:#7d7171; stroke:none;" d="M208 137L208 138L227 138L208 137z"/>
<path style="fill:#fadaa7; stroke:none;" d="M74 139L76 147L70 144C71.0591 150.365 77.2544 150.364 80 145L74 139z"/>
<path style="fill:#3b1a15; stroke:none;" d="M184 153C179.048 141.082 175.697 154.645 174 160L173 160L174 153C168.368 154.851 168.077 163.756 167 169L172 169L176 161L178 161L179 166L180 166C185.155 158.123 194.725 146.641 203 142L203 141L199 141L200 139C190.859 139.615 189.857 147.569 184 153z"/>
<path style="fill:#69423d; stroke:none;" d="M179 140C179.43 143.741 180.186 145.339 184 146L185 152L187 152L189 147L186 142L179 140z"/>
<path style="fill:#784526; stroke:none;" d="M78 141L80 145L78 141z"/>
<path style="fill:#9c6e54; stroke:none;" d="M112 145L114 147L115 147L117 145L112.461 154.829L124 168C127.771 166.81 128.569 164.828 129 161L124 162L124 148L126 148L126 152L127 152L128 141L127 141L126 144L120 144L121 150L117 141L112 145z"/>
<path style="fill:#a48978; stroke:none;" d="M180 141L180 142L186 142L187 147L189 147L192 141L180 141z"/>
<path style="fill:#c8955c; stroke:none;" d="M69 142L69 143L76 147C74.8036 143.357 72.6074 142.795 69 142z"/>
<path style="fill:#ffeed6; stroke:none;" d="M65 144L63 166L64 166L66 151L68 151L71 160L72 160L73 158C75.1877 164.726 75.2673 175.68 83 178C83.6235 171.984 84.5918 163.606 77 163L78 154L78 149C73.6884 149.234 71.2848 148.284 70 144L65 144z"/>
<path style="fill:#6c4121; stroke:none;" d="M149 144L145 150L145 151L148 153C143.03 153.774 140.302 156.675 138 161L144 161L144 162C138.053 163.96 137.819 166.351 131 164L133 179L133 180L133 181L131 196C143.758 195.737 146.034 192.243 147 180C142.717 180.003 137.807 179.312 135 183L134 183C135.013 176.796 140.531 176.435 146 176L146 160L150 160L149 194L156 192L158 171L160 171L161 159L165 168L166 168C166.078 158.521 166.751 155.008 156 155L158 153L160 145L149 150L153 144L149 144z"/>
<path style="fill:#bf8965; stroke:none;" d="M80 145L81 149L82 149L82 145L80 145z"/>
<path style="fill:#b68867; stroke:none;" d="M115 145C113.477 147.423 109.591 150.579 109 146L108 146L108 150L99 149L99 146L90 149C96.2584 151.659 98.9849 156.73 101 163L117 169L116 175L118 175L123.279 165.053L113.136 155.636L117 145L115 145z"/>
<path style="fill:#926140; stroke:none;" d="M78 147L81 150L78 147z"/>
<path style="fill:#9d7460; stroke:none;" d="M85 148L81 152L81 153L85 156L84 151L88 152L85 148z"/>
<path style="fill:#a07155; stroke:none;" d="M90 149L96 164L115 170L115 175L116 175L117 169L101 163C99.7287 156.595 96.5967 150.722 90 149z"/>
<path style="fill:#794538; stroke:none;" d="M205 159C189.763 155.095 187.156 164.773 179.388 174.737C174.878 180.522 168.731 183.716 170 192L165 191L166 194C159.318 194.901 156.654 199.613 156 206L157 206L162 198L170 201C166.479 190.986 177.728 182.415 182.799 174.66C185.581 170.408 187.931 164.705 193.005 162.742C197.591 160.968 203.236 162.902 208 163C208 168.52 207.531 187.883 204 187L205 190L206 190L213 163L216 165L217 152C208.569 148.486 206.135 150.08 205 159z"/>
<path style="fill:#784238; stroke:none;" d="M224 163L227 162L223 179L224 179L235.697 163.91L234 149C228.683 150.674 225.88 158.032 224 163z"/>
<path style="fill:#ecbfa8; stroke:none;" d="M66 151L63 177L64 177C64.0191 170.078 64.8105 161.02 70 156L68 151L66 151z"/>
<path style="fill:#431e0c; stroke:none;" d="M84 151L89 162L90 162C89.8764 156.891 88.7931 153.35 84 151z"/>
<path style="fill:#f0d3b5; stroke:none;" d="M78 152L75 155L77 159L78 159L80 152L78 152z"/>
<path style="fill:#6d4732; stroke:none;" d="M86 152L86 153L90 162L89 162L86 154C83.0655 156.795 83.1235 159.17 84 163L87 161L88 161L87 166L84 169L91 170L92 167L95 171C97.9781 163.593 94.4237 153.289 86 152z"/>
<path style="fill:#5d2f20; stroke:none;" d="M81 153L78 161L83 153L81 153z"/>
<path style="fill:#fcfdf8; stroke:none;" d="M62 181L63 181L64 156C51.809 157.391 56.9847 174.626 62 181z"/>
<path style="fill:#f8a287; stroke:none;" d="M64 173C68.9238 169.897 68.9556 162.363 69 157L70 157L70 159C70.961 156.477 68.6825 155.906 67.4074 158.222C65.0946 162.424 64.1474 168.278 64 173z"/>
<path style="fill:#b7957a; stroke:none;" d="M78 156L78 159L79 159L78 156z"/>
<path style="fill:#9c6748; stroke:none;" d="M81 156L81 161L78 159L77 159L77 163L87 166L88 161L87 161L84 163L83 156L81 156z"/>
<path style="fill:#f4805b; stroke:none;" d="M69 157C68.7763 167.778 58.1456 182.568 76 183L76 182L66 176L73 166L69 157z"/>
<path style="fill:#c39c7d; stroke:none;" d="M75 157L75 159L77 159L77 157L75 157z"/>
<path style="fill:#f7c796; stroke:none;" d="M72 158L75 171L76 171L72 158z"/>
<path style="fill:#a5713f; stroke:none;" d="M146 160L146 176C140.322 176.244 134.529 176.367 134 183L135 183L147 180C145.509 191.796 143.557 195.461 131 196L133 181L133 180L133 179L131 169L130 169L130 178L122 177L125 171L123 174L115 175L115 171L114 171L112 174L112 175L114 178L121 178L121 181L117 181C117.36 184.382 117.808 196.394 124 191L125 191L127 192L127.537 209L130 232L133 228L141 229L140 220L148 228L152 211L149 197L157 192L149 194L150 160L146 160z"/>
<path style="fill:#986051; stroke:none;" d="M218 160L216 165L213 163L210 182L211 182C214.308 175.977 221.312 166.813 220 160L218 160z"/>
<path style="fill:#211000; stroke:none;" d="M176 161L163 189C170.466 186.319 179.826 168.498 178 161L176 161z"/>
<path style="fill:#8e4d47; stroke:none;" d="M183 176L184 176L196 170L196 166L200 166L200 169L206 167L205 184L202 181L200 188L199 188L193 179L190 192L186 192C184.694 199.008 184.083 205.598 177 209L174 233L167 241L163 238L160 249L157 249L157 253L170 250C175.614 242.151 182.476 235.661 187.046 227C189.172 222.971 188.894 218.255 190.923 214.285C195.755 204.831 202.962 198.219 203 187L206 188L208 163C196.462 162.505 185.249 161.091 183 176z"/>
<path style="fill:#ac6d5b; stroke:none;" d="M211 188L214 187L215 200L236 203L236 166L224 179L223 179L227 162C219.591 164.657 212.005 180.44 211 188z"/>
<path style="fill:#4e240b; stroke:none;" d="M95 164L95 173C98.3601 170.442 98.6036 166.345 95 164z"/>
<path style="fill:#714329; stroke:none;" d="M97 164L98 170L99 170C104.193 165.353 108.22 172.106 109 177L115 170L97 164z"/>
<path style="fill:#dbb892; stroke:none;" d="M83 165L84 172L83 165z"/>
<path style="fill:#e55d51; stroke:none;" d="M71 166L66 176L71 182L76 181L71 166z"/>
<path style="fill:#d24b38; stroke:none;" d="M72 166L74 181L74 182C79.7424 180.769 73.2787 173.076 73 169L74 169L74 171L75 171L72 166z"/>
<path style="fill:#9e6353; stroke:none;" d="M196 166L196 170C184.601 171.765 163.654 188.227 170 201L162 198L155 213L156 213L159 203L160 203C161.997 205.435 163.327 203.434 164 201L170 202L169 207L173 207L168 241L174 233L177 209C184.631 206.794 185.135 198.841 186 192L190 192L193 179L199 188L200 188L202 181L205 184L206 167L200 169L200 166L196 166z"/>
<path style="fill:#926840; stroke:none;" d="M92 167L95 173L92 167z"/>
<path style="fill:#421c00; stroke:none;" d="M99 168L99 169L108 173C106.594 168.647 103.347 167.716 99 168z"/>
<path style="fill:#a84c27; stroke:none;" d="M73 169C73.201 173.484 74.9766 178.676 79 181L73 169z"/>
<path style="fill:#a87b52; stroke:none;" d="M85 169L89 171L85 169z"/>
<path style="fill:#c29055; stroke:none;" d="M99 169L99 170L102 171C99.4707 175.853 98.4835 181.722 100 187L106 180L112 203L108 205L108 206L108 207L111 213L107 221L103 210L107 212L91 196L98 217L88 220L105 226L110 222L117 231L104 230L104 231L120 237L119 233L122 237L124 235L125 235L124 243C119.452 243.523 116.856 245.81 120 250L118 254L123 254L123 258L122 258L115 255L115 259L127 259C132.945 248.183 142.91 255.543 145 264L128 265L128 260L127 260L121 262L127 265L124 277C131.527 281.605 124.081 293.471 129 301L124 300L121 295L124 309C131.704 315.366 134.287 326.926 137 336L138 336L136 310C131.323 307.419 132.408 303.709 133 299L137 299L137 296L131 296L131 295L134 284L145 282L144 287C148.413 286.054 147 280.767 147 277C139.09 279.553 129.159 285.486 129 272L145 266L145 274L148 273L147 269C151.843 268.23 153.256 265.666 154 261L149 262L148 257C155.01 256.999 165.303 256.953 168 249L157 253L157 256L140 251L141 244L136 237L142 237L141 229L133 228L130 232C128.459 219.017 132.563 200.772 125 191L124 191C117.862 195.001 117.651 184.614 117 181L121 181L121 178L112 175L112 181L111 181L109 173L99 169z"/>
<path style="fill:#cd9b66; stroke:none;" d="M130 178L130 169C124.781 170.732 125.704 175.631 130 178z"/>
<path style="fill:#c3996f; stroke:none;" d="M85 170L84 178L85 178L85 170z"/>
<path style="fill:#f3dab2; stroke:none;" d="M85 178L84 178L84 174L83 174L81 178L83.7384 190.397L95 198L96 198L96 192L102 171C99.1009 169.98 97.6916 169.772 97 173C90.7356 170.992 85.9598 169.566 85 178z"/>
<path style="fill:#bb7456; stroke:none;" d="M75 171L77 176L78 176L75 171z"/>
<path style="fill:#facd94; stroke:none;" d="M112 176L111 181L112 181L112 176z"/>
<path style="fill:#fcba9a; stroke:none;" d="M64 177C65.777 183.256 70.0935 183.979 76 184L76 183L64 177z"/>
<path style="fill:#dc9f73; stroke:none;" d="M79 177L79 181L80 181L79 177z"/>
<path style="fill:#d4d3d8; stroke:none;" d="M80 178L61 196L57 195L58 199L48 205L48 208L30.9645 215.586L12.054 217.534L0 224L0 249L24 237L24 231C29.8111 229.326 34.2092 223.562 40.0147 222.328C47.3443 220.769 53.7087 227.127 60.3958 220.125C63.7484 216.614 60.6506 207.599 61.1744 203C62.3791 192.421 72.8514 189.351 82 188L80 178z"/>
<path style="fill:#e3ac6b; stroke:none;" d="M106 180L100 187L99 182L98 182L102 191L96 192C96.8349 203.548 101.921 203.082 107 212L103 210L107 221L111 213C106.22 205.046 115.021 183.626 106 180z"/>
<path style="fill:#966429; stroke:none;" d="M111 183L112 187L113 187L114 183L111 183z"/>
<path style="fill:#c29456; stroke:none;" d="M105 184L102 188L105 194L106 194L105 184z"/>
<path style="fill:#b8813e; stroke:none;" d="M97 186L98 192L102 191L97 186z"/>
<path style="fill:#e0ad92; stroke:none;" d="M75 189L83 196L95 198C91.9735 191.721 81.6824 187.835 75 189z"/>
<path style="fill:#f1d3d5; stroke:none;" d="M72 190L78 194L76 196L76 197L77 217C71.7915 215.144 69.5848 211.384 69 206L68 206L64 219L86 225L86 224L82 224L82 223L84 217L81 217L83 193L72 190z"/>
<path style="fill:#885513; stroke:none;" d="M103.333 190.667L103.667 191.333L103.333 190.667z"/>
<path style="fill:#e6e6e6; stroke:none;" d="M24 231L24 237C16.7095 235.318 6.77423 245.909 0 249L0 353L88 353C97.2726 353 113.305 355.452 117 344L129 344L132 339L132 344C138.329 339.528 130.844 319.006 124 318L125 312L96 311.66L80 304L80 296L83 297L85 288C77.3831 291.579 73.3448 288.322 65.9105 288.353C56.7352 288.39 47.1953 291.407 38 291.964C33.2434 292.252 26.9505 294.547 24 290L16 291L16 288L11 288L13 280L35 278L35 277L32 275C37.6853 274.054 37.9196 268.681 40 264C34.5967 260.494 37.4123 251.695 43 250L43 249L40 249L40 248L48 245L48 241L64 239L67 242L64 248L58 248L48 265L56 266L63 259L65 261C72.6734 253.756 77.415 263.465 85 265L85 264C82.0728 261.559 77.5324 258.15 75.8542 254.66C68.846 240.088 87.181 230.284 99 229L99 224L81 224.532L64 219L68 206L69 206C69.3048 211.635 71.1763 215.769 77 217L78 194C76.0637 193.192 74.0599 192.21 71.9954 191.768C54.6416 188.047 65.6845 214.785 59.6782 220.125C52.8399 226.204 46.461 220.536 39.0394 222.314C33.7163 223.589 29.0083 228.695 24 231z"/>
<path style="fill:#c05a4c; stroke:none;" d="M94 220L92 214C84.1446 209.686 88.2761 200.977 89 194C78.0893 197.054 81.7455 222.259 94 220z"/>
<path style="fill:#6c2a12; stroke:none;" d="M88 195C89.9643 200.893 91.6918 212.658 97 216C96.0496 208.48 95.4873 198.914 88 195z"/>
<path style="fill:#dd8c79; stroke:none;" d="M82 196L81 217L84 217L82 223L82 224L92 223L92 222L88 222C85.535 212.39 82.0704 206.394 84 196L82 196z"/>
<path style="fill:#8a552b; stroke:none;" d="M149 197L152 211C148.079 216.742 147.267 221.067 148 228L140 220L142 237L136 237L138 244C154.032 238.561 150.658 209.435 153 197L149 197z"/>
<path style="fill:#994a39; stroke:none;" d="M89 198C86.2589 203.237 85.0477 211.702 92 214L92 219L98 217L95 203L97 216L89 198z"/>
<path style="fill:#56271f; stroke:none;" d="M159 262L162 262L155 287L160 280C168.467 279.531 168.375 270.162 169 263L174 264C174.11 254.667 183.346 250.562 192 250L190 248L190 247L194 247L194 244L200 243C206.785 253.522 220.742 236.013 227 235L230 229L220 229L230 221L225 220C227.196 214.206 229.702 212.187 236 212L236 209C223.819 209.034 209.4 211.518 198 206L214 203C210.338 199.345 203.055 196.997 198.588 201.009C192.29 206.666 191.029 216.677 188.01 224C184.51 232.489 178.036 239.864 171.895 246.536C167.033 251.819 159.258 254.223 159 262z"/>
<path style="fill:#a8743a; stroke:none;" d="M109 200L108 205L112 201L111 200L109 200z"/>
<path style="fill:#93642e; stroke:none;" d="M120 201L121 205L118 204C118.978 207.464 120.473 208.482 124 209L124 212L120 212L120 214L126 214C125.995 207.842 125.588 204.338 120 201z"/>
<path style="fill:#b46e66; stroke:none;" d="M164 201L160 203L159 203L152 224L163 207C167.799 209.629 168.546 216.989 165.992 221.791C161.234 230.735 150.686 245.566 156 256L157 256L157 249L160 249L163 238L167 241L168 241L173 207L169 207L170 202L164 201z"/>
<path style="fill:#d59691; stroke:none;" d="M163 207L148 232L158 222L159 222L158 240C161.453 233.52 173.893 210.581 163 207z"/>
<path style="fill:#763936; stroke:none;" d="M225 220L230 221L220 229L230 229L227 235C218.777 235.65 209.655 251.732 200 243L194 244L194 247L190 247L190 248L192 250C182.761 250.273 174.035 254.231 174 264L169 263C167.978 269.952 168.277 279.067 160 280L155 287L155 283L154 283L154 289C162.244 288.257 169.896 283.729 170 275L176 272L175 264L180 262L180 261C177.42 252.3 189.708 257.078 193 258L194 253L208 253L214 250L234.972 230.522L236 212C229.402 212.074 226.775 213.58 225 220z"/>
<path style="fill:#e7b582; stroke:none;" d="M105 226L103 224L99 225L99 229L117 231L110 222L105 226z"/>
<path style="fill:#ebc3bb; stroke:none;" d="M158 222C149.736 230.852 140.284 237.661 140 251C142.892 252.294 146.366 254.939 149.684 253.392C156.448 250.237 161.199 228.048 158 222z"/>
<path style="fill:#ebaf95; stroke:none;" d="M92 248L93 248L95 230L99 230C89.8467 226.526 92 242.942 92 248z"/>
<path style="fill:#a35845; stroke:none;" d="M96 230C95.0611 237.429 95.8848 251.739 102 257L94 263L94 264L109 265L110 257L105 260L99 231L104 231L104 229L96 230z"/>
<path style="fill:#fff6ee; stroke:none;" d="M92 230L76.1782 239.495L75 256C80.1766 254.573 81.8443 251.133 82 246L85 251L89 251L92 230z"/>
<path style="fill:#c37f68; stroke:none;" d="M95 230C93.1584 235.902 89.4114 249.567 98 251L99 261L102 257L95 230z"/>
<path style="fill:#8b4a38; stroke:none;" d="M99 231L105 260L107 260C107.784 255.1 109.96 252.729 114 250L112 245C117.147 241.561 112.609 235.422 108 234C110.083 240.159 111.801 242.035 110 249C107.41 242.136 106.783 233.917 99 231z"/>
<path style="fill:#511807; stroke:none;" d="M101 231L101 232L109 241C108.501 235.326 107.034 231.689 101 231z"/>
<path style="fill:#935145; stroke:none;" d="M214 250C210.806 250.013 208.729 249.597 208 253L194 253L193 258C190.538 256.884 187.756 254.253 184.914 254.647C181.914 255.062 177.31 258.178 180 261L180 262L175 264L176 272L170 275C169.731 283.222 161.573 287.818 154 289L153 296C162.622 290.621 172.964 290.694 173 278L177 280C181.878 264.26 199.941 254.433 216 257C218 252.929 220.497 251.334 225 251L222 249L222 248L232 248L236 231C229.679 233.548 215.218 242.93 214 250z"/>
<path style="fill:#f4d1cb; stroke:none;" d="M91 233L89 251L85 251L82 246L77 258L88 265L88 264L86 262C92.9538 261.369 96.6133 258.062 97 251C89.5411 247.086 93.6912 239.413 91 233z"/>
<path style="fill:#a77747; stroke:none;" d="M107 233L107 234C112.014 235.476 116.047 240.47 112 245L114 250C109.352 252.17 107.467 254.909 107 260L108 260L109 257L113 260L112 257C116.084 256.08 118.57 255.059 122 258L123 258L123 254L118 254L120 250C117.982 245.703 119.518 243.935 124 243L125 235L124 235L122 237L119 233L120 237L107 233z"/>
<path style="fill:#64371a; stroke:none;" d="M109 237L109 249L110 249L111 237L109 237z"/>
<path style="fill:#dddddb; stroke:none;" d="M48 241L48 245L40 248L40 249L43 249L43 250C37.0178 250.436 33.7614 262.663 40 264C37.4627 268.394 37.3373 273.385 32 275L35 277L35 278L13 280L11 288L16 288L16 291L24 290C25.1835 295.523 33.7651 292.078 38 292C47.2245 291.829 56.8309 288.473 65.9722 288.361C73.2549 288.272 77.5667 293.161 85 288L83 297L80 296L80 304L95 311.66L125 312L124 318C131.05 319.843 137.077 338.553 132 344L132 339L129 344L117 344L109 353L183 353L214.715 351.914L227 337L227 336C211.464 335.333 197.517 334.042 182.004 337.174C174.986 338.592 170.04 345.246 164 338L203 326L203 325C196.651 324.705 192.745 322.67 192 316C196.043 314.69 196.634 312.023 197 308C190.287 307.446 175.382 296.909 189 295L189 294L184 294L184 293L192 293L192 292L187 292L187 291L192 290L192 289L160 295C157.462 299.168 152.759 299.865 151.059 305.005C147.585 315.505 149.971 337.487 139 343C138.758 335.353 132.945 312.717 124.853 309.643C115.059 305.922 92.5777 316.84 88 302L84 302C84.9543 283.407 107.831 282.333 122 281L118.5 276.833L114.833 268.5L83 264.667L75 258.167L63 259L56 266L48 265L58 248L64 248L67 242L64 239L48 241z"/>
<path style="fill:#a36858; stroke:none;" d="M234 240L232 248L222 248L222 249L225 251C220.33 251.152 217.412 252.32 216 257L197 258L201 260C207.435 255.125 226.411 255.26 232 261C225.25 262.824 219.024 266.419 222 274L216 275L216 274L218 274L218 273C214.517 273.75 215.102 275.722 218 277L218 278L199 277L197 280L197 284L236 274L236 240L234 240z"/>
<path style="fill:#c99887; stroke:none;" d="M154 245C151.061 250.383 150.94 253.774 144 254L144 255L156 256L154 245z"/>
<path style="fill:#dcac9e; stroke:none;" d="M97 251C96.2693 257.56 92.4096 260.982 86 262C89.2499 268.199 102.665 266.983 109 267L109 266L91 265C94.5314 260.598 99.5616 257.178 97 251z"/>
<path style="fill:#a87b44; stroke:none;" d="M128 265L145 264C144.505 261.375 144.508 256.833 142.258 255.028C133.615 248.091 127.441 257.847 128 265z"/>
<path style="fill:#ab7d4c; stroke:none;" d="M158 256L148 257L149 262L154 261C152.875 265.295 151.36 267.739 147 269L145 274L145 266L129 272C129.045 284.717 138.875 281.208 147 277C146.997 280.987 147.598 284.668 144 287L145 282L134 284L131 295L131 296L137 296L137 299L133 299C132.164 303.505 130.8 308.274 136 310C135.778 314.396 134.424 318.58 135.417 323C136.027 325.717 137.312 328.244 137.778 331C138.282 333.984 140.976 346.226 144.5 337C148.011 327.81 148.274 315.682 150.694 306C151.415 303.119 155.703 295.926 153 296L157.263 272.043L162 262L159 262L158 256z"/>
<path style="fill:#b17366; stroke:none;" d="M201 260C190.177 257.415 179.045 270.589 177 280L173 278C172.869 292.494 158.436 286.539 155 297L200 285L200 284L197 284L197 280L199 277C206.436 278.892 210.272 280.172 218 278L218 277C216.267 275.106 215.908 274.582 218 273L218 274L216 274L216 275L222 274C220.076 266.306 225.659 263.711 232 261C228.133 255 205.538 254.807 201 260z"/>
<path style="fill:#deb985; stroke:none;" d="M112 257L113 260L109 260L109 265L110 265L110 261C116.734 265.003 117.941 278.123 126 278L126 282L121 282L119 289L118 286L117 286L124 300L129 301C128.036 298.752 125.968 296.524 125.69 294.042C125.111 288.867 132.267 279.418 124 277L127 265L121 262L127 262L127 259L112 257z"/>
<path style="fill:#c68c88; stroke:none;" d="M97 258L91 265L109 266L109 265L94 264L94 263C97.0207 262.083 98.7123 261.026 97 258z"/>
<path style="fill:#fad9a3; stroke:none;" d="M110 261L109 267C115.837 269.168 117.724 275.673 122 281C116.147 280.419 116.23 285.036 119 289L121 282L126 282L126 278L110 261z"/>
<path style="fill:#c1a59a; stroke:none;" d="M232 276L236 275L232 276z"/>
<path style="fill:#cccdc8; stroke:none;" d="M187 288L187 289L192 289L192 290L187 291L187 292L192 292L192 293L184 293L184 294L189 294L189 295C174.747 296.003 189.489 307.671 197 308L192 316C192.397 323.219 196.249 324.855 203 325L203 326L164 338C166.304 342.179 170.371 342.69 174.715 340.787C192.11 333.167 208.6 335.62 227 336L227 337L214 352L214 353L236 353L236 275L187 288z"/>
<path style="fill:#f0a7a1; stroke:none;" d="M84 302L87 302C88.3042 291.901 91.8968 287.344 102 285C91.4695 281.233 84.2079 293.117 84 302z"/>
<path style="fill:#cf8b78; stroke:none;" d="M102 284L102 285L116 288C117.318 282.134 105.643 284 102 284z"/>
<path style="fill:#b4675d; stroke:none;" d="M125 304L124 304L124 307L93 305C93 290.207 98.1777 286.041 113 286C109.656 284.597 105.615 284.801 102 285.093C93.326 285.794 83.0632 297.256 91.5725 305.232C96.9594 310.282 106.28 309 113 309C118.195 309 123.954 310.27 125 304z"/>
<path style="fill:#8a382c; stroke:none;" d="M100 287L105 300L112 301L112 304C118.797 304.865 124.71 307.802 123 298L122 298L122 302L121 302L121 299L120 299L120 302L116 302C115.755 298.89 117.315 289.67 115.767 287.564C113.07 283.894 103.716 286.53 100 287z"/>
<path style="fill:#a44944; stroke:none;" d="M98 287C92.6301 292.686 93 297.433 93 305C99.7037 304.862 119.75 309.862 124 305L112 304L112 301L105 300L100 287L98 287z"/>
<path style="fill:#d7998e; stroke:none;" d="M90 289C85.7691 298.961 86.4236 308.417 99 309L99 308C85.9053 305.149 92.5452 297.603 90 289z"/>
<path style="fill:#6c211c; stroke:none;" d="M117 290L116 302L120 299L121 299L121 302L122 302L117 290z"/>
<path style="fill:#b87759; stroke:none;" d="M118.333 290.667L118.667 291.333L118.333 290.667z"/>
<path style="fill:#8d5f2b; stroke:none;" d="M137 290C137.712 294.363 139.725 295.518 144 296L144 290L137 290z"/>
<path style="fill:#d1bfa7; stroke:none;" d="M151 304L152 304L160 296C155.073 297.185 151.836 298.712 151 304z"/>
<path style="fill:#875b34; stroke:none;" d="M143 300L136 306L136 307L139 310L143 310L145 300L143 300z"/>
<path style="fill:#b29d7e; stroke:none;" d="M149 308L149 314L150 314L149 308z"/>
<path style="fill:#c69189; stroke:none;" d="M99 309L99 310L121 310L99 309z"/>
<path style="fill:#af977f; stroke:none;" d="M147 317L147 323L148 323L147 317z"/>
<path style="fill:#ae9a82; stroke:none;" d="M146 324L146 330L147 330L146 324z"/>
<path style="fill:#c4b7a4; stroke:none;" d="M145 330L145 336L146 336L145 330z"/>
<path style="fill:#c4b395; stroke:none;" d="M143 339L139 340C139.893 344.145 143.978 342.171 143 339z"/>
</svg>
