<?xml version="1.0" standalone="yes"?>
<svg width="316" height="576">
<path style="fill:#f3f1f4; stroke:none;" d="M0 0L0 576L157 576L157 575C150.608 572.145 140.04 573.609 136 567L122 566L122 571L120 568L104 566L104 558L97 557L96 552L86 552L82 537L80 535L76 536L77 532L74 532L72 522C81.857 517.536 73.7826 508.871 72.3796 501.999C71.2951 496.687 73.2526 491.353 72.9097 486C72.2376 475.506 69.6484 464.523 68.2816 454C61.8976 404.849 58.5128 355.172 53.8302 306C51.8517 285.223 43.058 267.021 43 246C104.838 260.183 168.865 255 232 255L232 253L124 253.91L70 249.714L46 245L47 232L45 232L41 239L42 230L84 236.83L158 239L158 238L106 234L106 233L160 233L160 232C147.701 232 135.296 231.5 123 230.961C118.141 230.747 112.604 230.458 110 226L106 226L102 217L90.1304 214.318L79.9105 220.401L67 221L67 220L72 219L72 218L54 217C55.853 194.496 75.714 210.499 88 201L88 200L79 197C83.4109 189.444 96.2184 191 104 191L110 180C121.501 181.974 133.649 169.709 145 168L145 167C130.46 167 117.165 175.969 103.946 180.656C98.8276 182.47 93.2917 181.363 88 183L88 187L80 187L56 203L55 203L57 185L72 181C85.9621 154.071 123.618 155.93 149 156C149 142.559 151.668 136.276 165 132L160 117L152 116L160 0L0 0z"/>
<path style="fill:#dfc3f3; stroke:none;" d="M160 0L152 116L160 117C161.162 131.107 167.173 131.033 179 131L179 151L194 151C195.673 156.721 204.156 155 209 155L209 159L210 159C209.787 152.604 206.844 151.967 201 153L201 148L180 150L181 130L172 130C174.192 124.284 175.037 117.133 182 116L190 0L160 0z"/>
<path style="fill:#edecf1; stroke:none;" d="M190 0L182 116C174.66 116.584 173.72 123.94 172 130L181 130L180 150L201 148L201 153C210.25 152.054 209.76 158.26 214 165L208 165L208 167L216 167L220 174L240 188C240.814 193.614 250.592 201.764 246.932 207.562C242.983 213.819 232.378 205.924 228 216L239 213C238.466 220.196 229.393 225.771 223 221L219 227L173 228.981L139 229L139 230L146 230L146 231L144 231L144 232L160 232L160 233L106 233L106 234L158 238L158 239L68 235L68 236C73.476 238.473 76.7949 240.701 77 247C80.1886 244.99 80.5735 242.626 80 239L91 241L94 248L93 239L107 241L107 251L110 251L110 242L123 242L124 250L126 250L126 242L161 241L160 239L185 239L185 240L183 242C194.917 243.966 206.112 238.623 216 246L215 241C226.994 244.537 244.937 240.043 257 238L257 244L259 244L259 238L263 238L263 233L208 236L208 235L232 234C235.194 228.779 241.608 230.197 247 229.961C259.838 229.398 272.089 225.009 285 225L279 244L276 235L277 245L271 246L271 248L277 248C277 266.598 269.005 282.666 267.171 301C261.726 355.42 254.789 409.916 247.424 464C245.678 476.814 245.158 490.32 242.726 503C241.782 507.92 237.686 511.775 238.207 517C238.729 522.234 244.93 536.636 249 539L240 544L240 547L232 547L232 554L223 554L224 556L216 554L215 554L214 554L211 560L216 560L216 561L208 561L209 559C194.575 560.099 179.6 562.243 165 560.83C145.879 558.98 127.737 551.901 110 546.025C92.8153 540.332 73.6498 536.472 79 514L90 516L89 503C73.9118 504.854 74 488.289 74 477L78 477L78 472L81 472L82 464L82 463L82 462L71 433L71 432C74.5719 428.83 71.3644 423.934 70.4583 420C68.6342 412.08 63.4675 399.295 69 392C65.2404 373.834 66.6428 355.022 63.1952 337C62.1077 331.315 62.7002 319.534 55 321L55 304L54 304C54 326.939 58.6678 348.292 60.8302 371C63.9317 403.568 66.4076 436.239 69.0934 469C69.5685 474.796 72.3276 480.128 72.8264 486C73.3104 491.698 71.1958 497.282 72.3796 502.996C73.9331 510.494 80.8117 516.139 72 522L74 532L77 532L76 536L80 535L82 537L86 552L96 552L97 557L104 558L104 566L122 571L122 566L136 567C137.234 571.22 142.139 571.484 146 572.662C156.967 576.009 167.604 576 179 576L316 576L316 0L190 0z"/>
<path style="fill:#d7afed; stroke:none;" d="M145 161L148 165L149 165L151 156L152 156L154 158L158 152L159 152L160 152L160 154L170 153L168 150L176 150L179 131C170.307 131.006 156.421 131.131 150.985 139.376C147.814 144.184 146.666 155.292 145 161z"/>
<path style="fill:#bea0d4; stroke:none;" d="M178 144L176 150L168 150L170 153L160 152L159 152L158 152L154 158L152 156L151 156L148 166L179 154L184 163C180.014 163.047 177.584 163.06 176 167L181 167L181 166L178 166L178 165L192 164L193 152C183.288 154.312 181.515 152.127 178 144z"/>
<path style="fill:#d7cbe1; stroke:none;" d="M180 151C182.924 154.346 189.092 153.155 193 152L192 164L178 165L178 166L181 166L181 167L168 167L168 168C178.381 168 189.195 165.553 197 174C185.928 170.442 183.485 175.284 172.961 177.698C165.92 179.312 158.21 177.661 151 179L151 189L144 188C145.742 191.847 147.892 192.623 152 193L150 196L150 197L153 201L158 199L156 215L157 215L157 211C168.094 210.968 164.213 206.564 170.358 200.302C174.179 196.409 180.902 193.677 186 192L184 202L189 202C189 211.067 189.584 221.405 200 224L199 228L195 228L195 229L219 227L223 221C229.221 226.433 238.764 220.274 239 213L236 216L228 216C231.069 211.125 234.213 209.172 240 209L240 208C232.231 208.021 224.475 209.463 219.144 215.704C217.184 218 217.388 222.371 214.683 223.878C212.151 225.289 209.812 223.567 208 222L204 224C205.489 213.009 211.131 216.34 217.597 210.232C224.565 203.652 223.887 196.202 235 193L241 210C255.657 209.188 241.696 194.589 240 188C232.054 183.964 230.16 174.329 220 174L216 167L208 167L208 165L214 165L209 155C203.66 155 197.126 156.109 194 151L180 151z"/>
<path style="fill:#b983db; stroke:none;" d="M148 166L148 161L147 161L147 167L172.896 166.853L184 163L179 154L148 166z"/>
<path style="fill:#d0c6de; stroke:none;" d="M72 181C65.2828 179.892 62.586 182.082 57 185L55 203L56 203L80 187L88 187L88 186L78 185L80 178L83 178C83.8732 172.534 87.9173 170.308 93 169L88 183L103.946 180.941L120 175L120 174L112 174C112.041 162.402 130.797 152.492 130 168L123 169C126.89 174.5 138.543 167.001 145 167L148 157C130.983 149.659 101.346 157.022 86.7145 166.52C80.9303 170.275 74.2484 173.879 72 181z"/>
<path style="fill:#bfadd3; stroke:none;" d="M112 174L125 172L123 169L130 168C131.802 156.337 120.503 158.411 114.317 164.013C111.471 166.59 112.003 170.508 112 174z"/>
<path style="fill:#8d63ab; stroke:none;" d="M145 161L147 167L147 161L145 161z"/>
<path style="fill:#e7dfea; stroke:none;" d="M138 169L138 170L147 170L132 176L132 177L139 177L139 181C131.659 181 124.673 180.519 121 188L115 185L110 197C105.782 197.128 103.218 197.69 102 202L88.1736 200.856L74 206L74 207L85 207C84.0227 213.396 96.731 216.314 102 217L106 226L110 226C111.366 229.884 114.184 229.907 118 230L117 224C102.508 220.768 108.506 214.04 110 203C116.49 205.917 115.257 211.107 117 217L118 217L126 209C126 205.596 129.276 206.926 132 207L132 206C125.969 201.862 121.556 196.894 119 190L127 190C133.291 184.672 143.473 187.603 151 189L151 179L173.91 177.698L189 171.548L197 174C192.265 166.259 183.686 167.834 176 167.985C162.908 168.241 151.067 166.304 138 169z"/>
<path style="fill:#beb3d3; stroke:none;" d="M83 178L80 178L78 185L88 186L93 169C87.5142 169.874 83.4613 172.144 83 178z"/>
<path style="fill:#cfc3db; stroke:none;" d="M110 180L104 191C96.7906 191 82.0542 189.016 79 197L102 202C103.741 198.221 105.928 197.279 110 197C113.052 188.12 116.885 182.644 126 180L126 182L139 181L139 177L132 177L132 176L147 170L110 180z"/>
<path style="fill:#bba9d1; stroke:none;" d="M115 184L121 188L126 180L115 184z"/>
<path style="fill:#bcafcd; stroke:none;" d="M127 190L119 190L122 198L129 195L128 192C137.948 186.494 139.492 193.474 149 194C149.502 198.493 151.033 200.823 155 203L155 211C150.903 211.878 150.017 220.995 150 225L144 225L145 209L130 205L130 206L132 206L132 207C129.237 206.768 126.446 205.916 126 209L118 217L117 217C115.615 211.182 116.921 204.909 110 203C107.539 213.613 102.356 222.063 117 224L118 231L146 231L146 230L139 230L139 229C156.897 224.887 180.606 227.848 199 228L200 224C190.343 220.187 189.001 211.395 189 202L183 200L186 226L155 225L160 216L175.062 211.258L178.85 202.224L186 192C180.71 193.229 173.294 196.167 169.576 200.302C164.119 206.373 167.413 210.906 157 211L157 215L156 215L158 199L153 201L150 197L150 196L152 193C144.209 191.75 134.252 180.712 127 190z"/>
<path style="fill:#a488b9; stroke:none;" d="M128 192L129 195L123 196L124 201L131 199C133.421 203.079 140.276 208.236 145 209L144 225L150 225L150 221L149 221L146 223L146 204L155 211L155 203L149 194C140.022 192.99 137.107 184.85 128 192z"/>
<path style="fill:#9a80b0; stroke:none;" d="M226 209L242 209L235 193C224.737 194.829 221.934 199.911 226 209z"/>
<path style="fill:#8a72a6; stroke:none;" d="M126 200C128.247 204.451 131.642 205.589 136 203L131 199L126 200z"/>
<path style="fill:#ae94c1; stroke:none;" d="M160 216L155 225L186 226L184 199C176.216 200.619 179.152 206.918 174.436 211.258C171.579 213.888 163.842 215.132 160 216z"/>
<path style="fill:#b4a9c9; stroke:none;" d="M222 201C220.208 203.584 219.702 207.755 217.513 209.812C210.795 216.125 204.939 212.518 204 224L208 222C214.368 230.364 221.419 211.996 229 210L229 209L222 201z"/>
<path style="fill:#d7d0e0; stroke:none;" d="M54 217L72 218L72 219L67 220L67 221C76.1798 221 85.7711 221.06 91 212C87.1577 211.707 85.1863 211.064 85 207C72.2917 207.707 54.9757 194.676 54 217z"/>
<path style="fill:#785994; stroke:none;" d="M146 204L146 223C153.785 220.436 154.819 205.467 146 204z"/>
<path style="fill:#ac9ebf; stroke:none;" d="M110 220C114.596 218.31 114.945 215.605 115 211C108.865 211.478 109.355 214.753 110 220z"/>
<path style="fill:#d0c6de; stroke:none;" d="M232 234L208 235L208 236L263 233L263 238L259 238L259 244L257 244L257 238C243.916 239.301 228.08 244.078 215 241L216 246C208.536 237.765 193.679 242.891 183 242L185 240L185 239L160 239L161 241L126 242L126 250L124 250L123 242L110 242L110 251L107 251L107 241L93 239L94 248L91 241L80 239L77 247C76.8536 234.65 52.2764 227.992 42 230L41 239L45 232L47 232L46 245C77.1042 248.182 109.169 256.458 140.96 253.945C149.22 253.292 148.073 244.035 158 244L161 251L161 244L163 244L163 250L165 250C166.428 245.298 169.461 245.054 174 245L178 250L178 243L180 243L180 253L183 253L183 248C189.036 247.955 194.196 247.043 196 254L179 254L179 255L232 253L232 255C176.863 255 121.992 257.328 67 251.829C58.6774 250.997 51.1855 247.204 43 246L55 321C62.5947 320.715 61.8173 331.17 62.9961 337C66.6524 355.08 63.8822 373.965 69 392C58.0414 401.564 77.8859 422.1 71 432L71 433L82 462L82 463L82 464L81 472L78 472L78 477L74 477L74 478C84.0287 483.348 89.3339 495.579 79 503L89 503L90 516L78 523C78.0179 528.232 78.2596 532.077 83 535L83 533L87 534C87.8913 530.256 86.8118 523.416 89.6034 520.603C94.2661 515.904 106.528 515.991 110.817 510.397C117.34 501.891 99.432 482.846 117.999 480.823C121.505 480.441 124.559 482.353 128 482C128.997 485.388 137.746 492.828 138.94 485.721C139.841 480.36 130.792 477.944 132.203 472.389C133.508 467.253 139.385 466.645 141 462L147 462L147 461L141 461L141 460L149 459L149 458L138 459L152 448L146 435L132 432L135 428C132.622 424.159 130.357 424.133 127 427L128 414L139 408L139 400L144 400L144 399L136 399L138 392L126 392L128 399L120 400L124 384L112 384L112 377L107 377C107.532 371.398 103.156 368.702 98 368L101 366L101 362L96 357C105.12 358.46 113.905 352.789 116 366L119 366L117 354C105.25 352.676 112.513 331.123 100 329L100 328L104 328L104 324L94 304L96 302L88 296L88 295L128 297L128 294L102 293C99.7095 289.266 97.2077 289.05 93 289L93 288L96 288L96 287L86 286L87 282L83 281L83 280L87 280L87 279L82 275L86 273L86 272L81 272L81 256L72 256L72 255L148 260.961L248 257L248 259L237 260L247 262L247 263L240 263L240 276L242 276L242 272L254 272L246 280L250 280L250 281L240 282L240 286L237 285L228 292L235 296L232 298L232 304L238 303L238 304L235 304L235 312L227 312L230 316L220 319L220 320L224 320L226 351L208 353L208 355L219 355L213 359L216 368L208 368L210 408L205 408L205 409L209 411L209 412L209 413C202.813 416.244 207.739 419.197 207.117 424.09C206.776 426.778 204.715 429.34 204 432L200 432L200 416L196 416L195 448L208 448L208 461L222 463L224 456L225 456C228.343 459.766 231.198 454.797 234.941 456.302C241.466 458.924 235.408 471.325 235 476L236 476L238 474L234 485L242 476L239 512L240 512L248.129 449L261.171 347L269.275 286L277 248L271 248L271 246L277 245L276 235L279 244L285 225C271.725 225 259.184 229.488 246 229.981C241.271 230.158 233.647 228.369 232 234z"/>
<path style="fill:#a795bb; stroke:none;" d="M178 243L178 250L174 245C169.345 245.016 165.872 244.775 165 250L163 250L163 244L161 244L161 251L158 244C149.634 244.006 147.101 246.875 145 255L184 254L184 253L180 253L180 243L178 243z"/>
<path style="fill:#b8aacb; stroke:none;" d="M183 248C183.583 255.481 190.03 254 196 254C194.873 246.261 189.172 247.873 183 248z"/>
<path style="fill:#c9bcd8; stroke:none;" d="M72 255L72 256L81 256L81 272L86 272L86 273L82 275L87 279L87 280L83 280L83 281L87 282L86 286L96 287L96 288L93 288L93 289L102 293L128 294L128 297L88 295L88 296L96 302L96 303L94 304L104 324L104 328L100 328L100 329C111.931 332.683 105.048 353.338 117 354L119 366L116 366C114.804 352.836 105.218 357.591 96 357L101 362L98 368C102.937 369.164 106.465 371.771 107 377L112 377L112 384L124 384L120 400L128 399L126 392L138 392L136 399L144 399L144 400L139 400L139 408L128 414L127 427C130.524 424.816 132.126 425.002 135 428L132 432C136.919 434.221 140.587 437.624 146 435L152 448L138 459L149 458L149 459L141 460L141 461L147 461L147 462L141 462L141 463C158.445 465.286 152.827 481.027 138 482C140.059 490.999 130.657 487.429 128 482L125 483C122.257 479.741 117.907 480.355 114 481L114 482C119.755 482.702 126.637 484.479 129.552 490.015C132.991 496.547 126.764 502.948 120 501.397C116.218 500.529 113.122 497.133 110 495C112.679 509.421 107.768 512.955 95 519L95 520C105.79 522.468 110.163 524.216 121 522L127 522L128 522L128 518L136 515L136 520L149.579 495.893L169 494C166.595 487.236 162.901 473.367 176 474.449C179.98 474.778 184.743 480.26 188 477L189 477L189 484L191 481L192 481L191 487L193 482L194 482L194 487L196 487L196 480L198 481L200 473L203 474C204.698 468.502 212.296 470 217 470L213 496L215 496L215 489L216 489L219.318 504.121L227 509L228 509L228 496L229 496L230 512L234 512L232 516L236 513L237 513L235 533L236 533C240.822 524.586 241.08 503.564 239 494L238 494C230.202 500.558 236.936 476.976 238 474L235 476L227 478C225.435 467.836 223.958 467.705 230 458L225 456L224 456L222 463L208 461L208 448L195 448L196 416L200 416L200 432L204 432C205.081 429.508 207.261 426.829 207.543 424.09C208.075 418.921 203.692 417.171 209 413L209 412L209 411L205 409L205 408L210 408L208 368L216 368C216.222 363.954 216.578 361.387 213 359L219 355L208 355L208 353L226 351L224 320L220 320L220 319L230 316L227 312L235 312L238 304L238 303L232 304L235 296L228 292L240 286L240 282L250 281L250 280L246 280L247 277C251.757 278.284 253.337 276.664 254 272L242 272L242 276L240 276L240 263L247 263L247 262L237 260L248 259L248 257L149 260.961L72 255z"/>
<path style="fill:#8b7aa6; stroke:none;" d="M204 275L207 272L204 275z"/>
<path style="fill:#b4a6ca; stroke:none;" d="M149 398L149 402C152.292 403.178 162.278 408.111 164.914 404.411C169.434 398.065 151.499 398 149 398z"/>
<path style="fill:#9d8eb5; stroke:none;" d="M180 419L180 424C183.952 423.699 185.822 422.882 187 419L180 419z"/>
<path style="fill:#b1adc4; stroke:none;" d="M232 455L232 456C236.558 458.099 236.947 461.282 237 466C239.164 460.84 237.82 455.928 232 455z"/>
<path style="fill:#68647b; stroke:none;" d="M227 463L233 462L233 473C242.38 466.616 233.477 448.072 227 463z"/>
<path style="fill:#555168; stroke:none;" d="M233 476L233 462C222.392 460.276 221.743 475.627 233 476z"/>
<path style="fill:#767a93; stroke:none;" d="M133 472L146 464C140.736 461.952 133.86 466.728 133 472z"/>
<path style="fill:#272942; stroke:none;" d="M142.424 464.897C131.402 469.331 131.613 485.204 144.83 480.121C155.072 476.182 152.731 460.752 142.424 464.897z"/>
<path style="fill:#9f9ab1; stroke:none;" d="M224 465L223 472L224 472L224 465z"/>
<path style="fill:#696b82; stroke:none;" d="M85 467C83.4735 472.164 85.4758 491.864 95.2577 483.972C103.174 477.586 90.3251 468.283 85 467z"/>
<path style="fill:#928da3; stroke:none;" d="M99 468C100.243 471.538 102.431 471.803 106 472L106 470L99 468z"/>
<path style="fill:#bab0d2; stroke:none;" d="M203 474L200 473L198 478L216 471C214.33 482.147 204.249 495.698 197 480L196 480L196 487L194 487L194 482L193 482L191 487L192 481L191 481L189 484L189 477L188 477C181.937 488.631 180.279 491.773 167 488L168 478C162.844 482.482 166.477 489.22 169 494L150 496C152.852 495.472 156.056 494.586 158.871 495.745C171.626 501 162.052 517.671 151.17 514.343C148.24 513.446 145.888 510.239 144 508L143 508L136 520L136 515L128 518L128 522L127 522C125.053 519.769 122.947 519.769 121 522L108 524L108 525C147.663 532.364 190.511 531.333 229 519L232 536C238.299 531.605 237 519.824 237 513L236 513L232 516L234 512L230 512L229 496L228 496L228 509L227 509L219.318 503.431L216 489L215 489L215 496L213 496L217 470C212.304 470 204.158 468.266 203 474z"/>
<path style="fill:#7a7999; stroke:none;" d="M153 471L150 476L150 477C153.231 475.93 154.241 474.264 153 471z"/>
<path style="fill:#8c85a4; stroke:none;" d="M210 471L210 472L215 475L216 475L216 471L210 471z"/>
<path style="fill:#918da6; stroke:none;" d="M131 472L131 476L132 476L131 472z"/>
<path style="fill:#605c75; stroke:none;" d="M132 472L132 476L133 476L132 472z"/>
<path style="fill:#5b5875; stroke:none;" d="M206 473L206 474L214 473L214 478L215 478L215 472L206 473z"/>
<path style="fill:#9b93ab; stroke:none;" d="M234 472L233 475L234 472z"/>
<path style="fill:#1f1e3d; stroke:none;" d="M200 486C209.609 485.919 213.918 482.818 214 473C205.003 473.193 200.032 476.849 200 486z"/>
<path style="fill:#6f6b86; stroke:none;" d="M172 474L172 475L178 475L172 474z"/>
<path style="fill:#433f5a; stroke:none;" d="M168 479C174.732 475.297 178.447 476.571 185 480C181.693 474.034 171.535 472.589 168 479z"/>
<path style="fill:#6a6583; stroke:none;" d="M201 478L204 475L201 478z"/>
<path style="fill:#9792a9; stroke:none;" d="M97 476L96 485L97 485L97 476z"/>
<path style="fill:#0b0c21; stroke:none;" d="M171.148 477.028C161.824 482.53 172.072 493.488 180.811 488.86C190.857 483.541 178.975 472.409 171.148 477.028z"/>
<path style="fill:#9b92af; stroke:none;" d="M227 478L232 477L227 478z"/>
<path style="fill:#9f99b5; stroke:none;" d="M236 484L238 494L239 494L242 476L236 484z"/>
<path style="fill:#7b7897; stroke:none;" d="M147 479L150 477L147 479z"/>
<path style="fill:#bdbbc9; stroke:none;" d="M74 478L76 498L77 498L77 478L74 478z"/>
<path style="fill:#968fae; stroke:none;" d="M198 478L198 485L199 485L200 478L198 478z"/>
<path style="fill:#7b7696; stroke:none;" d="M185 479L185 486L186 486L185 479z"/>
<path style="fill:#a4a0b7; stroke:none;" d="M76 480C76 486.682 74.1248 499.301 82 502L82 501C78.7894 496.74 79.0103 487.072 80 482L76 480z"/>
<path style="fill:#928ca8; stroke:none;" d="M136 480L136 481L144 482L144 481L136 480z"/>
<path style="fill:#635d83; stroke:none;" d="M167 480L167 488L168 488L167 480z"/>
<path style="fill:#635c7b; stroke:none;" d="M199 480L199 485L200 485L199 480z"/>
<path style="fill:#9793ac; stroke:none;" d="M108 491L109 491C110.461 485.842 113.762 483.583 119 483C112.721 480.397 108.461 484.892 108 491z"/>
<path style="fill:#8e8d9f; stroke:none;" d="M79 483L80 501C88.8593 499.522 84.0737 488.514 82 483L79 483z"/>
<path style="fill:#3b3b53; stroke:none;" d="M130 499C130 496.162 130.442 492.788 129.4 490.09C126.933 483.701 115.141 480.07 110.619 486.228C107.509 490.464 112.154 498.831 117.019 499.554C120.933 500.136 125.861 498.836 130 499z"/>
<path style="fill:#847f9d; stroke:none;" d="M210 486L213 483L210 486z"/>
<path style="fill:#847e9a; stroke:none;" d="M236 484C235.419 485.25 230.998 499.278 236.455 495.824C239.255 494.052 238 486.825 238 484L236 484z"/>
<path style="fill:#787890; stroke:none;" d="M125 485L128 487L125 485z"/>
<path style="fill:#504968; stroke:none;" d="M201 486L201 487L210 486L201 486z"/>
<path style="fill:#676082; stroke:none;" d="M183 486L183 488L185 486L183 486z"/>
<path style="fill:#87809f; stroke:none;" d="M201 487L201 488L210 487L201 487z"/>
<path style="fill:#726d8b; stroke:none;" d="M130 490L130 496L131 496L130 490z"/>
<path style="fill:#56526b; stroke:none;" d="M171 490L171 491L180 491L171 490z"/>
<path style="fill:#68667b; stroke:none;" d="M110 493L112 496L110 493z"/>
<path style="fill:#4b4466; stroke:none;" d="M152 495L152 496L162 498L152 495z"/>
<path style="fill:#51476a; stroke:none;" d="M184 495L184 496L189 496L184 495z"/>
<path style="fill:#504c65; stroke:none;" d="M144 502L150 496L144 502z"/>
<path style="fill:#110d26; stroke:none;" d="M164 511C164.42 508.739 165.077 506.32 164.812 504.002C162.794 486.295 131.808 502.746 148.044 512.486C149.863 513.577 151.89 514.02 154 513.848C157.452 513.567 160.6 511.646 164 511z"/>
<path style="fill:#5b5173; stroke:none;" d="M177 504L178 504L184 496L177 504z"/>
<path style="fill:#0d051d; stroke:none;" d="M184.015 497.032C174.441 501.767 172.886 519.812 186.995 513.061C195.506 508.989 194.016 492.086 184.015 497.032z"/>
<path style="fill:#8a86a1; stroke:none;" d="M117 501L129 501L129 499L117 501z"/>
<path style="fill:#524b6d; stroke:none;" d="M193 500L193 510L194 510L193 500z"/>
<path style="fill:#77718d; stroke:none;" d="M165 501L165 508L166 508L165 501z"/>
<path style="fill:#82789d; stroke:none;" d="M142 502L142 508L143 508L144 502L142 502z"/>
<path style="fill:#5f5474; stroke:none;" d="M175 504L175 512L176 512L177 504L175 504z"/>
<path style="fill:#8a7f9f; stroke:none;" d="M174 507L177 515L174 507z"/>
<path style="fill:#544e6a; stroke:none;" d="M160 511L160 512L163 512L160 511z"/>
<path style="fill:#82769a; stroke:none;" d="M182 515L182 516L189 512L182 515z"/>
<path style="fill:#b4adbf; stroke:none;" d="M79 514L78 523C84.227 521.929 84.0214 516.845 79 514z"/>
<path style="fill:#716686; stroke:none;" d="M149 514L149 515L156 515L149 514z"/>
<path style="fill:#5a4f6f; stroke:none;" d="M177 515L177 516L182 516L177 515z"/>
<path style="fill:#8c82a4; stroke:none;" d="M233 517L233 526L236 526L236 517L233 517z"/>
<path style="fill:#aaa2b7; stroke:none;" d="M87 534L83 533L88 538C91.8709 527.298 85.6687 520.584 100 522C88.697 512.748 88.4324 526.284 87 534z"/>
<path style="fill:#a38eb5; stroke:none;" d="M225 520C228.82 527.43 217.897 533.304 216 524L205 525L205 526L209 526C204.06 535.676 191.769 544.908 188 529L170 529C169.475 541.314 157.829 538.077 156 528L141 529L142 540L120 539L120 540L124 540L126 544L122 544L122 545L127 545L127 546L124 546L124 547C151.784 547.23 177.314 549.523 205 544.31C212.039 542.985 226.558 542.907 230.954 536.312C233.088 533.11 229.479 522.966 229 519L225 520z"/>
<path style="fill:#5f5669; stroke:none;" d="M91 539L90 536L96 522C87.0013 515.925 87.05 536.243 91 539z"/>
<path style="fill:#2d2851; stroke:none;" d="M215 525L215 527C221.776 531.71 224.31 527.529 227 521L215 525z"/>
<path style="fill:#4a405b; stroke:none;" d="M93 522L90 536C91.5444 539.936 93.9383 540.628 98 541L96 538L106 536C106 525.953 103.727 522.229 93 522z"/>
<path style="fill:#817790; stroke:none;" d="M99 522L99 523L102 523L99 522z"/>
<path style="fill:#7e7799; stroke:none;" d="M218 522L218 523L221 523L218 522z"/>
<path style="fill:#d6d6e0; stroke:none;" d="M239 522C238.304 537.005 222.304 541.782 210 544.873C180.285 552.339 151.147 551.83 121 548C125.344 555.066 133.878 553.629 141 555.809C163.151 562.591 186.472 561.832 209 559L208 561L216 561L216 560L211 560L214 554L215 554L216 554L224 556L223 554L232 554L232 547L240 547L240 544C244.237 543.615 246.773 542.72 249 539L241 522L239 522z"/>
<path style="fill:#857b94; stroke:none;" d="M102.667 523.333L103.333 523.667L102.667 523.333z"/>
<path style="fill:#6f6588; stroke:none;" d="M216.667 523.333L217.333 523.667L216.667 523.333z"/>
<path style="fill:#6d6189; stroke:none;" d="M225 523L224 528L227 523L225 523z"/>
<path style="fill:#b19ebe; stroke:none;" d="M104 524L104 525L107 525L107 536L96 538L98 541L94 541L94 542L127 546L127 545L122 545L122 544L126 544L124 540L120 538L115 540L117 526L104 524z"/>
<path style="fill:#625974; stroke:none;" d="M106 525L106 536L107 536L106 525z"/>
<path style="fill:#8d799e; stroke:none;" d="M117 526L115 540L142 540L142 530L141 530C137.226 544.434 124.315 531.541 118 528L118 527L136 528L117 526z"/>
<path style="fill:#625478; stroke:none;" d="M197 526L197 527L203 527L197 526z"/>
<path style="fill:#392b4f; stroke:none;" d="M203 526L203 527L209 528L203 526z"/>
<path style="fill:#4f4260; stroke:none;" d="M118 527L118 528L123 528L118 527z"/>
<path style="fill:#726785; stroke:none;" d="M123 527L123 528L128 528L123 527z"/>
<path style="fill:#110624; stroke:none;" d="M208 527C203.378 527 195.312 525.62 191.618 529.089C187.187 533.252 193.527 538.52 197.899 537.847C202.216 537.183 206.014 530.535 208 527z"/>
<path style="fill:#211732; stroke:none;" d="M121 528C122.568 537.329 138.71 541.215 140 530L121 528z"/>
<path style="fill:#66567a; stroke:none;" d="M132 528L132 529L140 530L140 534L141 534L141 529L132 528z"/>
<path style="fill:#6a5b84; stroke:none;" d="M188 528L188 533L189 533L192 529L188 528z"/>
<path style="fill:#7f7695; stroke:none;" d="M156 529L156 530L170 530L156 529z"/>
<path style="fill:#3b2c55; stroke:none;" d="M189 529L190 536L191 536L189 529z"/>
<path style="fill:#695980; stroke:none;" d="M202 536L203 536L208 529L202 536z"/>
<path style="fill:#180d2b; stroke:none;" d="M156 530C158.625 538.623 168.444 538.999 171 530L156 530z"/>
<path style="fill:#332848; stroke:none;" d="M161 537L161 538L166 538L161 537z"/>
<path style="fill:#6c5e81; stroke:none;" d="M161 538L161 539L165 539L161 538z"/>
<path style="fill:#5d4d72; stroke:none;" d="M193 538L193 539L198 539L193 538z"/>
<path style="fill:#8a8393; stroke:none;" d="M92.6667 540.333L93.3333 540.667L92.6667 540.333z"/>
<path style="fill:#7f6e98; stroke:none;" d="M117 546L117 547C147.734 553.34 190.615 554.643 220 542L189 546.925L117 546z"/>
<path style="fill:#bfb3cb; stroke:none;" d="M110 546L110 547L120 548L110 546z"/>
<path style="fill:#a395b9; stroke:none;" d="M138 550L138 551L176 551C165.964 546.789 148.911 550 138 550z"/>
</svg>
