<?xml version="1.0" standalone="yes"?>
<svg width="564" height="564">
<path style="fill:#e1e6e9; stroke:none;" d="M0 0L0 224C6.47384 223.978 13.7638 221.79 16 215C24.7125 214.999 36.2412 212.239 38 202L40 204L41 204L43 202L42 198C46.1851 199.906 43.305 202.923 41.3889 206C36.8194 213.338 32.2257 220.792 29.5278 229C21.7413 252.688 15.5512 274.561 18.0833 300C19.1298 310.514 21.1966 321.033 24.6111 331C25.3545 333.17 29.7213 345.427 31 339L32 339L34 347L35 347L32 334L30 335C24.8929 312.658 19.1306 288.298 23.2593 265.09C24.8499 256.148 30.5867 248.101 32 239L35 240L32 247L32 248L40 256C39.7823 246.236 37.2255 232.315 39.1335 223C40.3393 217.113 45.2727 211.293 47.7415 205.83C50.5626 199.588 52.1245 193.132 59 190L59 186C64.9342 184.238 67.7695 177.516 72.2052 173.464C83.2522 163.372 94.9079 152.658 108.09 145.359C139.212 128.125 176.115 114.184 212.09 112.579C226.704 111.928 241.395 114.373 256 115L256 114L253 114L253 113C270.197 113.142 286.665 119.541 303 124C303 119.957 309.219 123.78 312 124L308 122L311 112L315 113L320 108C321.664 101.004 327.725 94.0632 335 93L335 89L344 89L344 88C337.313 84.8368 328.843 80.1353 326 73C340.991 65.9916 353.193 46.5721 364.961 35.0895C367.665 32.4506 374.83 22.1226 378.959 22.537C382.759 22.9185 387.123 29.0965 389.83 31.4861C398.263 38.9289 407.883 44.4537 417 51C431.407 31.4261 457.459 16.7298 476 1C465.02 -3.60742 445.944 0 434 0L337 0L0 0z"/>
<path style="fill:#e4c3b2; stroke:none;" d="M469 9L481 1C475.116 -1.22308 471.551 4.46265 469 9z"/>
<path style="fill:#bf9271; stroke:none;" d="M435 37L432 43L436 42L421 49L422 46L417 51L448 68L448 67L445 66L447 64L445 63L445 62L448 59L452 60L451 58L452 58L455 59L453 57L453 56L454 54L461 57L459 52L464 49L467 46L466 44L476 42L477 40L476 37L480 36L479 33L489 30L487 28L508 6.22992L518 1C504.374 -3.02783 496.081 1.5918 485 8L488 0C477.5 0.0949707 471.055 7.93439 463.665 14.5695C454.769 22.5568 444.751 30.1177 435 37z"/>
<path style="fill:#ac7557; stroke:none;" d="M485 8L494 0C488.148 0.190491 485.947 2.23865 485 8z"/>
<path style="fill:#dabea8; stroke:none;" d="M517 0C517 3.49109 512.543 3.26837 510 5.16669C505.06 8.85413 485.348 24.4426 489 30L479 33L480 36L476 37L477 40L476 42L466 44L467 46L464 49L459 52L461 57L455 54L468 65L468 66L470 66L470 67L468 69L472 70L471 67L481 73L480 76L484 77L484 78L453 62L453 65L467 73L467 74L463 73L463 75L453 70C458.361 78.7866 469.194 79.7176 478 83L476 87L483 88L481 85L513 104C510.735 105.704 515 108.076 515 105L528 111L528 110L519 105L519 104L536 114L537 114L542 114L540 116L563 129L560 131L564 133L564 91L559 88L560 86L564 87L564 0L517 0z"/>
<path style="fill:#9c7259; stroke:none;" d="M496 18L512 3C506.034 5.78204 498.846 12.0234 496 18z"/>
<path style="fill:#c7ada0; stroke:none;" d="M421 49C426.127 47.565 434.093 42.4972 435 37L469 11L471 6C457.557 11.6837 444.689 25.569 433.715 35.0386C428.719 39.3488 423.487 42.6799 421 49z"/>
<path style="fill:#edc9b3; stroke:none;" d="M457 19L468 10L457 19z"/>
<path style="fill:#9b6a4c; stroke:none;" d="M466 22L473 16L466 22z"/>
<path style="fill:#f0f4fd; stroke:none;" d="M326 73C329.23 85.8623 352.649 93.3242 363 99.6844C376.345 107.885 390.994 114.245 405 121.247C411.266 124.38 420.763 129.494 428 128.809C433.643 128.275 438.959 122.258 443 118.714C455.131 108.072 468.395 95.7589 477 82C449.477 74.2656 424.915 55.1518 400.985 39.7322C395.953 36.4896 383.93 20.9565 378.17 21.902C373.61 22.6504 367.23 31.9896 363.985 35.0895C351.227 47.2766 340.486 62.7772 326 73z"/>
<path style="fill:#ab7c60; stroke:none;" d="M453 39L461 34L453 39z"/>
<path style="fill:#9b6d55; stroke:none;" d="M426 48L436 42C431.357 42.6417 428.176 43.672 426 48z"/>
<path style="fill:#7b7e83; stroke:none;" d="M377 48L377 49L381 49L377 48z"/>
<path style="fill:#52575b; stroke:none;" d="M375 52C380.594 50.6725 383.296 53.3014 388 56L388 57L383 63C397.019 56.3834 380.069 44.1887 375 52z"/>
<path style="fill:#bec2c5; stroke:none;" d="M378 50L378 51L381 51L378 50z"/>
<path style="fill:#f4d4c5; stroke:none;" d="M540 50L553 57L553 56L540 50z"/>
<path style="fill:#535459; stroke:none;" d="M369 59C375.718 63.2132 396.95 82.8288 403 73C390.767 74.8497 382.757 63.0771 372 59L372 57L375 54L369 59z"/>
<path style="fill:#c5a691; stroke:none;" d="M454 54L455 59L451 58L452 60L451 60L449 59L448 59L445 62L445 66L448 67L446 69L454 72L453 70L454 70L463 75L463 73L467 74L467 73L453 65L453 62L484 78L484 77L480 76L481 73L471 67L472 70L468 69L470 66L468 66L468 65L470 64L454 54z"/>
<path style="fill:#c0a393; stroke:none;" d="M550 54L550 55L557 58L557 57L550 54z"/>
<path style="fill:#9a9ea1; stroke:none;" d="M372.333 57.6667L372.667 58.3333L372.333 57.6667z"/>
<path style="fill:#cccfd6; stroke:none;" d="M381 61L385 64L385 63L381 61z"/>
<path style="fill:#484850; stroke:none;" d="M364 69C372.305 73.7097 385.94 88.5723 394 78C386.764 73.2272 369.61 57.3696 364 69z"/>
<path style="fill:#9f9fa7; stroke:none;" d="M395 64L395 65L402 65L395 64z"/>
<path style="fill:#969b9f; stroke:none;" d="M369.667 65.3333L370.333 65.6667L369.667 65.3333z"/>
<path style="fill:#464950; stroke:none;" d="M390 69C397.734 66.7942 401.316 65.8697 409 69C405.475 63.2383 393.424 63.1382 390 69z"/>
<path style="fill:#f2f3f8; stroke:none;" d="M368 67C370.766 72.5531 384.42 83.1718 390 78C384.065 73.9959 375.421 65.7935 368 67z"/>
<path style="fill:#a9aaaf; stroke:none;" d="M396 66L396 67L404 67L396 66z"/>
<path style="fill:#8a8f92; stroke:none;" d="M367.333 67.6667L367.667 68.3333L367.333 67.6667z"/>
<path style="fill:#9a9da4; stroke:none;" d="M404.667 67.3333L405.333 67.6667L404.667 67.3333z"/>
<path style="fill:#4e5357; stroke:none;" d="M357 68C359.672 72.8839 365.669 76.6173 371 78L370 82L390 89C384.996 81.3611 365.613 71.3119 357 68z"/>
<path style="fill:#4e5158; stroke:none;" d="M400 88L414 95C408.229 100.055 400.165 91.9168 394 90C396.759 94.8624 403.676 97.7819 409 99L408 103L430 110C426.884 105.244 419.392 102.359 414 101L421 98L421 97L404 88L416 74L423 77C416.876 65.3313 404.225 82.0028 400 88z"/>
<path style="fill:#888b90; stroke:none;" d="M372.667 74.3333L373.333 74.6667L372.667 74.3333z"/>
<path style="fill:#a8a9ae; stroke:none;" d="M416 74L416 75L419 75L416 74z"/>
<path style="fill:#c6c7cb; stroke:none;" d="M422 74L423 77L424 77L424 74L422 74z"/>
<path style="fill:#957964; stroke:none;" d="M481.667 74.3333L482.333 74.6667L481.667 74.3333z"/>
<path style="fill:#af937e; stroke:none;" d="M483 75L483 76L490 79L483 75z"/>
<path style="fill:#9fa0a5; stroke:none;" d="M398.667 77.3333L399.333 77.6667L398.667 77.3333z"/>
<path style="fill:#c1a492; stroke:none;" d="M509 78L509 79L516 82L516 81L509 78z"/>
<path style="fill:#c3c4c8; stroke:none;" d="M415.667 79.3333L416.333 79.6667L415.667 79.3333z"/>
<path style="fill:#55565a; stroke:none;" d="M414 80L414 81L423 88L422 89L412 85L412 86L415 87L415 89L411 90L411 91C416.937 90.5485 421.875 89.8886 423 97L426 94L432 96L424 91L424 89L438 92L438 91L428 87L432 81L414 80z"/>
<path style="fill:#a0a1a6; stroke:none;" d="M409 81L410 82L409 81z"/>
<path style="fill:#c5aa97; stroke:none;" d="M516 82L521 85L521 84L516 82z"/>
<path style="fill:#ccab98; stroke:none;" d="M456 106L469 115L472 116L470 118L470 119C477.506 125.727 491.325 134.368 501 137L501 138L498 138L498 139L546 164.402L564 174L564 144C564 138.78 564.895 134.003 560 131L563 129C559.359 126.701 539.399 117.716 542 114L537 114L536 114L519 104L519 105L528 110L528 111L515 105C515 108.323 511.166 105.261 513 104C506.016 96.0055 491.035 88.1977 481 85L483 88L476 87L478 83L456 106z"/>
<path style="fill:#a2a3a8; stroke:none;" d="M411 86L414 85L411 86z"/>
<path style="fill:#f4dacb; stroke:none;" d="M522 84L522 85L542 95L522 84z"/>
<path style="fill:#949599; stroke:none;" d="M428.333 85.6667L428.667 86.3333L428.333 85.6667z"/>
<path style="fill:#c8ab9b; stroke:none;" d="M560 86L559 88L564 91L560 86z"/>
<path style="fill:#a5a6aa; stroke:none;" d="M445.667 87.3333L446.333 87.6667L445.667 87.3333z"/>
<path style="fill:#abacb0; stroke:none;" d="M420.667 88.3333L421.333 88.6667L420.667 88.3333z"/>
<path style="fill:#5f6064; stroke:none;" d="M421 98C431.076 109.238 441.263 97.9243 447 88L430 100.169L421 98z"/>
<path style="fill:#c0c0be; stroke:none;" d="M335 89L335 93C327.366 93.5548 321.001 100.518 320 108C316.639 108.716 315.172 109.483 315 113L311 112L308 122L312 124L302 122C308.194 128.728 320.043 130.643 328 135.04C348.263 146.237 369.483 159.736 383 179L400 176L400 173L408 176C412.328 175.331 414.419 175.712 416 180C423.336 180 438.436 178.421 440 188L459 198L457 200C458.806 203.272 460.382 203.81 464 203C464.79 206.705 476.087 211.723 480 212L480 218L487 219L488 216L489 216L497 225L501 224C505.411 233.477 514.11 236.599 523 240.746C528.064 243.109 532.904 242.123 535 248C540.237 248.388 543.194 250.724 544 256L551 256L551 263L554 262L564 264L564 232L536 222C534.634 218.116 531.816 218.093 528 218L528 214L512 209C511.008 202.252 498.236 198.2 492 198L488 188C474.737 187.999 458.016 177.605 450 167C442.027 168.475 430.455 165.278 426 158C420.793 157.977 410.693 156.609 408 152L397 152C396.292 142.908 379.319 143.721 373.17 137.829C362.594 127.697 368.22 119.142 369 107L374 108C366.389 97.172 347.681 89 335 89z"/>
<path style="fill:#898a8f; stroke:none;" d="M411.667 89.3333L412.333 89.6667L411.667 89.3333z"/>
<path style="fill:#898a8c; stroke:none;" d="M430 89L433 91L430 89z"/>
<path style="fill:#9fa2a9; stroke:none;" d="M393.333 90.6667L393.667 91.3333L393.333 90.6667z"/>
<path style="fill:#a0a1a3; stroke:none;" d="M436.667 92.3333L437.333 92.6667L436.667 92.3333z"/>
<path style="fill:#acadb1; stroke:none;" d="M426.667 94.3333L427.333 94.6667L426.667 94.3333z"/>
<path style="fill:#a9aaac; stroke:none;" d="M421 97L421 98L426 98L421 97z"/>
<path style="fill:#808185; stroke:none;" d="M419.667 98.3333L420.333 98.6667L419.667 98.3333z"/>
<path style="fill:#808487; stroke:none;" d="M408.667 103.333L409.333 103.667L408.667 103.333z"/>
<path style="fill:#a0a3a8; stroke:none;" d="M430.667 104.333L431.333 104.667L430.667 104.333z"/>
<path style="fill:#a99f9d; stroke:none;" d="M372 105L374 107L374 108L369 107C367.53 118.798 362.153 130.144 373.903 139.146C380.253 144.011 395.628 143.394 397 152L408 152C409.645 156.678 421.324 158.622 426 158C429.153 165.853 442.499 168.785 450 167C455.88 178.681 475.633 188 488 188L492 198C498.115 198.447 510.359 202.725 512 209L528 214L528 218L536 222L564 232C564 217.55 550.296 211.877 538 206.475C528.012 202.087 519.138 194.926 509.576 189.688C502.087 185.587 493.256 183.697 486.246 179.045C476.494 172.573 466.145 161.614 454 160L454 157L440 153C437.63 145.866 420.159 137.237 413 137L414 135L404 132L404 128C391.311 128.467 379.06 121.693 380 108L372 105z"/>
<path style="fill:#b59886; stroke:none;" d="M442 120L446 121L446 120L444 119L447 117C448.671 121.198 451.749 121.648 456 122L454 120L454 119L453 114C469.153 119.147 483.855 136.861 501 138L501 137C493.348 133.885 482.921 128.29 476.05 123.563C473.137 121.559 470.91 119.587 472 116L469 115C465.427 97.6757 446.944 112.981 442 120z"/>
<path style="fill:#978e89; stroke:none;" d="M379 109C382.036 121.715 389.479 129.201 404 128L404 132L414 135L413 137C420.497 137.573 436.308 146.304 440 153L454 157L454 156C442.03 145.873 432.069 134.317 416 131L418 129L389.019 114.827L379 109z"/>
<path style="fill:#9d6f57; stroke:none;" d="M384 111C388.545 118.284 409.515 127.079 418 128L418 129L416 131C424.903 133.509 437.316 138.46 442 147C454.244 148.077 465.624 159.273 476.039 165.2C492.887 174.787 510.156 182.837 527 192.659C539.191 199.768 550.771 209.993 564 215C564 208.835 566.317 196.832 562.972 191.515C557.756 183.221 541.273 177.157 533 172.089C516.992 162.282 500.076 153.59 484.285 143.497C472.921 136.233 458.306 123.844 444.981 120.923C436.576 119.08 433.139 130.628 425 128.748C410.278 125.348 398.318 115.125 384 111z"/>
<path style="fill:#dad8cb; stroke:none;" d="M198 114L198 115L211 115L211 117L204 118L204 119C208.578 118.131 211.906 118.015 213 113L198 114z"/>
<path style="fill:#f0e8d3; stroke:none;" d="M212 112C212.34 121.061 198.664 117.163 196 126L169 133C169 138.454 169.858 144.775 167.867 149.961C163.326 161.787 149.241 172.061 141.691 182.285C125.812 203.79 113.957 227.017 102.441 250.776C97.6631 260.633 89.0431 265.452 89 278L121 281L119 272C123.942 270.868 127.512 271.259 130 276L124 277L124 278C129.169 277.763 133.479 276.819 136 272L137 259L136 258L127 259L128 262L123 261L125 257L121 258L120 258L123 248C124.728 250.398 126.562 252.567 129 250L133 251L131 249L132 245L128 245L127 240C131.152 238.91 137.791 234.252 133 230L133 229L139 229L137 224L141 221L140 216L141 216L147 217L147 216L150 213L146 213L146 206L149 208L153 198C148.366 198 154.323 191.81 154 190L159 191L163 185L162 180L169 179L176 167C177.344 171.928 178.663 176.502 184 178L184 179C181.335 181.739 184.285 183.771 187 185L188 182L185 181L186 177C172.988 170.33 181.852 159.703 186.6 150.831C189.509 145.396 192.664 137.918 199 136L197 127L201 129C199.127 121.658 207.851 121.956 213 121L211 124L223 126L219 129L219 130C224.513 130.556 243.912 139.077 245 134L249 135L247 128C253.539 128.281 258.824 129.947 264 134L265 134L271 130L272 143L271 143L270 141L271 148L269 148L270 151L267 149L261 153L265 152L266 161L259 157L260 161L257 165L253 164L248 170L249 168L248 168L249 174L245 177L249 175L248 184L255 184L251 189L251 185L247 185L247 190C251.294 190 247.284 196.303 247 199L242 198L244 192L240 199L243 202C238.034 199.158 236.618 204.907 236 209L231 206C230.608 210.551 231.768 213.133 236 215C234.281 216.708 234.04 217.223 233 215L232 215L229 228L228 228L228 223L226 223C226.153 227.66 227.022 229.837 232 229L231 226L237 225L235 219L239 219L247 212L247 206L249 206L249 210L250 210C250.6 206.326 253.169 202.934 256 207L257 207L256 199L260 200L263 198L262 191L257 192L257 189L258 189L263 190L263 186L267 189L268 189L266 179L270 182C272.725 169.779 277.005 156.529 275 144L278 153L279 153L278 128L234 125C232.821 117.988 218.587 112.441 212 112z"/>
<path style="fill:#d0c6ba; stroke:none;" d="M220 113L234 125L278 128L282 161L288 160C289.456 164.387 292.85 163.985 297 164L296 157C307.505 155.41 311.556 162.512 322.09 167.153C325.952 168.855 329.959 168.208 334 169C336.044 163.293 337.196 157.087 344 156C342.963 149.86 336.18 142.691 330 142L331 140C321.072 137.437 311.352 128.815 301 125.363C274.886 116.655 247.471 113 220 113z"/>
<path style="fill:#f6f5f1; stroke:none;" d="M253 113L253 114C269.032 117.666 285.509 120.073 301 125.71C350.883 143.862 395.06 180.509 410.09 233C416.062 253.857 413 274.78 413 296L415 296C416.046 271.648 418.172 249.805 410.481 226C390.359 163.724 318.711 113.181 253 113z"/>
<path style="fill:#d3b3a8; stroke:none;" d="M453 114L454 119L454 120L456 122L447 117L444 120L527 168.923L564 191C561.879 183.836 551.992 180.548 545.911 177.044C531.071 168.493 514.04 160.114 501 149L506 147L489.039 135.67L457 118L458 115L453 114z"/>
<path style="fill:#c7bbab; stroke:none;" d="M94 162C91.7389 167.124 87.5639 172.563 82 174L84 178L74 186C76.9049 198.926 62.88 213.945 58.7238 226C56.1844 233.365 59.8286 243.557 61 251L59 255C79.6477 248.484 58.8236 231.939 66.1636 217.039C70.9569 207.309 81.4486 198.189 91 193.429C94.5513 191.659 102.636 192.186 104.968 189.262C107.348 186.276 103.666 179.73 104.214 176C105.158 169.563 110.288 164.38 112 158L113 160L114 160C116.138 144.562 135.369 139.087 149 141.214C153.656 141.94 157.363 145.106 162 146L165 126L169 123L189 122C190.243 125.538 192.431 125.803 196 126C198.812 120.272 204.788 117.412 211 117L211 115C177.311 115 146.922 125.723 117.015 140.392C107.436 145.09 103.653 161.266 94 162z"/>
<path style="fill:#fff1e8; stroke:none;" d="M457 116L482.83 132.142L533 160.035L564 176C557.747 167.091 541.479 161.904 532 156.895C507.818 144.117 483.038 124.24 457 116z"/>
<path style="fill:#f2cdba; stroke:none;" d="M201 129L197 127L199 136C195.17 136.658 194.113 138.37 193 142L206.015 133.442L223 131L223 130L219 130L219 129L223 126L211 124L213 121C207.611 121.681 198.457 121.429 201 129z"/>
<path style="fill:#cda873; stroke:none;" d="M168 124L168 125C174.636 125.023 186.93 131.488 189 122L168 124z"/>
<path style="fill:#debd87; stroke:none;" d="M165 128C173.292 126.781 186.725 136.052 192 126C188.502 125.34 185.804 127.048 182.285 127.102C176.425 127.192 169.644 121.899 165 128z"/>
<path style="fill:#f5d58a; stroke:none;" d="M166 127L163 144L165 142L166 142C167.828 144.438 168.892 150.973 165 150L166 154L167 154L169 133L183 131L166 127z"/>
<path style="fill:#c4c0bd; stroke:none;" d="M420.667 127.333L421.333 127.667L420.667 127.333z"/>
<path style="fill:#e5ddc6; stroke:none;" d="M247 128L249 135L245 134L242 139L246 138L243 147C254.111 154.176 239.675 173.764 238 183C238.862 184.014 239.065 185.893 238 184L232 189L230 192L231 197L221 199L219 206L215 204C217.66 208.585 220.12 210.586 218 216C215.101 214.497 213.734 215.75 212.128 218.592C207.465 226.842 201.265 233.216 193 238C192.639 240.781 180.396 252.712 193 250L193 253L194 253C197.966 251.824 201.563 251.231 204 255L198 254L198 258L195 256C192.214 260.981 190.047 264.254 184 263L185 267L170 272L176 274L176 281L169 283L166 280L166 290L175 291L179 284C179.689 287.197 181.054 286.746 184 286L183 292L182 292L182 289L178 288L177 288L177 293L173 308L176 309L173 312L176 311L176 317L177 317L178 310L180 313L191 302L196 298L194 296L194 295L197 293L199 296L200 279L206 278L206 277L203 276L210 265L216 264L215 256L218 257C216.377 242.473 224.668 236.763 238 237C237.956 232.882 238.016 230.751 242 229L242 219L249 221C252.758 215.538 256.438 210.939 256 204C251.751 204.489 250.343 205.703 250 210L249 210L249 206L247 206L247 212C242.873 212.665 240.264 215.014 239 219L235 219L237 225L231 226L232 229C227.466 229.147 226.334 227.368 226 223L228 223L228 228L229 228L232 215L233 215L233 218L236 215C232.4 212.667 230.838 210.359 231 206L236 209C236.958 205.027 238.176 200.549 243 202L240 199L244 192L242 198L247 199C247.805 196.381 250.768 190.629 247 190L247 185L251 185L251 189L255 184L248 184L249 175L244 177C243.044 171.263 248.849 166.605 248 170L253 164L257 165L260 161L259 157L266 161L265 152L261 153L267 149L270 151L269 148L271 148L271 143L272 143L271 130L265 134C259.522 129.711 253.904 128.143 247 128z"/>
<path style="fill:#d6c9c3; stroke:none;" d="M426 129L426 130L430 130L426 129z"/>
<path style="fill:#c16e6a; stroke:none;" d="M214 130L215 134L231 136L232 131L214 130z"/>
<path style="fill:#ad4641; stroke:none;" d="M180 173L185 162L182 163C186.161 158.455 188.499 152.691 193.12 148.459C197.561 144.391 204.021 143.662 205 137L210 137L214 131C198.637 133.079 175.074 156.328 180 173z"/>
<path style="fill:#ce816f; stroke:none;" d="M214 132L211 135L211 143L201 144L202 149L198 153L195 153L192 150C191.74 153.547 190.357 154.978 187 156L182 163L185 162L180 175L186 177L185 181L189 182L187 180L187 179L193 173L189 174L193 165L185 167L191 161L196 166C197.59 160.782 197.303 155.675 204 158L218 139C218.984 142.763 220.156 145.724 224 147L225 154L231 150L228 166L228 167L230 170L224 171L226 178L230 178C230.821 184.439 235.103 174.529 234 170L237 171L243 157L239 157L242 151L237 150L239 144L236 145L240 136L233 132L232 132L231 136L214 132z"/>
<path style="fill:#c5574a; stroke:none;" d="M210 134L205 137C202.326 147.234 186.95 147.387 186 160L187 160L187 156C190.798 155.347 191.995 153.831 192 150L195 153L198 153L202 149L201 144L211 143L213 135L210 134z"/>
<path style="fill:#d9d3c7; stroke:none;" d="M324 135L331 140L330 142C335.868 143.188 342.262 150.331 344 156C336.995 156.552 335.417 162.973 334 169C330.02 167.892 325.946 168.463 322.09 166.699C311.439 161.828 307.726 154.132 296 157L297 164C292.839 163.951 290.112 163.83 288 160L282 161L280 141L279 141L279 153L278 153C278 149.356 279.217 144.904 275 144L270 182L266 179L270 186L270 184L271 190L276 192L278 179C273.758 173.4 276 161.85 276 155L278 155L280 164C276.095 169.154 277.535 177.049 284 179L282 177L282 176L285 173L294 179L294 180L287 180L294 182L294 183L287 185L287 186L294 184L293 190L298 189C302.491 193.906 306.698 184.072 312 186L313 182C319.246 181.485 323.116 179.59 324 173C335.546 180.855 342.511 188.158 357 190L357 191L352 191L352 196L352 197L367 201L371 202L372 208L369 207L366 209L367 212L361 208L367 220L367 225L364 226L362 231L365 241L364 241L364 238L359 239L361 241L360 245L335 251L334 257L340 255L343 259L343 260L338 262L336 259L335 259L333 261L328 276L330 278L330 279C324.813 280.112 328.245 285.862 322 283L320 295L316 295L317 298L314 301L320 300L320 301C316.142 302.246 311.231 302.787 310 307L306 305L303 307L299 313L302 318L290 318L290 320L293 321L293 322L285 321L286 328L281 327C285.655 332.453 294.576 331.265 301 330L292 335C289.116 331.045 282.489 332.997 278 333L277 341C281.962 343.654 282.591 347.889 281 353L291 356L292 356L298 355L335.491 319.536L357 291L372 262L364 257L364 247L369 251L366 251L366 252L371 256L372 248L373 248L373 252L374 252L377 244L377 249C387.794 242.204 380.866 221.008 389 212L388 208L400 216C401.375 225.724 408.815 234.126 410.744 244.09C417.105 276.944 408.777 309.105 392.875 337.053C387.399 346.677 379.469 367.038 368 370L344.424 392.37L336 400L332 400L335 402L333 407C348.347 401.032 356.681 389.253 368.085 378.502C389.255 358.543 407.744 330.019 413.316 301C414.261 296.075 412.695 291.011 413.17 286C419.377 220.51 383.683 162.632 324 135z"/>
<path style="fill:#e5c26e; stroke:none;" d="M162 136L162 158L165 150C169.093 149.389 168.945 141.327 163 144L162 136z"/>
<path style="fill:#9e4d4c; stroke:none;" d="M238 137L238 142L241 141L244 158L246 158C246 154.116 247.581 147.982 243 147L245 140L241 137L238 137z"/>
<path style="fill:#ac7f79; stroke:none;" d="M241 137L246 141L241 137z"/>
<path style="fill:#ab8a79; stroke:none;" d="M514 137L519 141L514 137z"/>
<path style="fill:#d8a798; stroke:none;" d="M204 158C197.167 154.505 197.283 160.674 196 166L191 161L185 167L193 165L189 174L193 173L187 179L187 180L187 187L194 190L194 189L190 186L198 184L200 179L201 179L200 191L209 192C211.499 187.829 219.307 186.833 224 186L224 181L227 180L228 177L224 171L230 170L228 167L228 166C231.861 162.535 231.282 154.84 231 150L225 154L224 147L218 139C210.853 142.369 206.939 150.976 204 158z"/>
<path style="fill:#d8a89c; stroke:none;" d="M192 140L187 150L195 143L192 140z"/>
<path style="fill:#c25b56; stroke:none;" d="M237 140L236 145L239 144L237 150L242 151L239 157L243 157L237 171L234 170L234 178C243.795 174.577 246.994 162.288 247 153L246 153L246 158L244 158L241 141L237 140z"/>
<path style="fill:#a68457; stroke:none;" d="M119 152L123 151L123 150L120 149L135 145L136 145L147 145C147.838 148.91 156.104 151.722 160 152L160 160L161 160L162 146C152.041 142.849 121.919 134.066 119 152z"/>
<path style="fill:#e1c0ad; stroke:none;" d="M519 142L519 143L531 149L529 152L535 151L535 150L519 142z"/>
<path style="fill:#d4cbc2; stroke:none;" d="M59 186L59 190C51.4148 192.121 50.3061 199.749 47.2894 205.83C44.7076 211.034 39.7578 217.295 38.696 223C37.0137 232.038 39.3357 246.597 40 256L37 256L37 264L33 265L33 266L38 266L37 274C42.3697 272.839 42.982 268.913 44 264L47 266C49.4246 260.844 53.6169 257.719 59 256L61 251C60.4307 243.649 56.2855 234.166 58.7245 227C62.5881 215.648 78.4903 197.878 74 186L84 178L82 174C87.814 173.156 92.4808 167.53 94 162C104.527 161.655 103.252 148.975 112 145C106.247 143.421 98.1841 150.727 94.1011 154.414C86.7723 161.033 78.4931 166.61 71.375 173.464C67.1083 177.572 64.4074 183.353 59 186z"/>
<path style="fill:#e5dad8; stroke:none;" d="M504 144L506 147L501 149L535 168L564 181L564 176L504 144z"/>
<path style="fill:#c6a258; stroke:none;" d="M135 145L120 149L123 150L123 151C115.519 152.618 116.017 161.663 116 168L115 168L115 162L114 162C114.005 168.967 117.335 186.878 112.106 192.106C106.486 197.727 93.8551 191.964 87 195.164C78.3269 199.214 65.1011 212.464 66.5193 223C68.0995 234.74 78.8054 244.128 87 251L94 249L94 248C78.8889 239.894 77 228.682 77 213C81.6619 211.562 81.7573 207.515 85.4144 205.023C91.9768 200.552 103.539 200.635 111 202L109 196L120 196L126 207L127 207C128.044 202.252 135.048 196.457 134.187 192.05C131.754 179.601 116.825 173.056 124.468 157.973C126.279 154.4 131.217 149.453 135.17 148.514C139.86 147.399 143.732 149.589 147 145L135 145z"/>
<path style="fill:#dfc39b; stroke:none;" d="M142 183L138 180L137 160L141 160L143 153L150 155L155 152C151.87 146.637 146.393 147.736 141 148.124C125.901 149.212 118.504 162.866 124.51 176.961C126.133 180.768 129.387 189.02 134.075 189.708C137.79 190.254 140.169 185.467 142 183z"/>
<path style="fill:#88756e; stroke:none;" d="M445 147L445 148C466.815 165.622 492.518 176.522 515.896 192.17C530.525 201.962 546.877 215.925 564 221C562.492 212.226 543.14 205.1 536.015 200.75C516.1 188.591 496.061 176.661 476.039 164.64C466.34 158.816 456.098 149.674 445 147z"/>
<path style="fill:#b5a58b; stroke:none;" d="M118 148L114 160L113 160L112 158L104.105 176L104.378 189.262L91 193C94.0465 194.789 96.5503 194.452 100 194.166C103.526 193.873 109.182 195.111 112.106 192.682C117.538 188.17 114.018 168.514 114 162L115 162L115 168L116 168L118 148z"/>
<path style="fill:#c9a777; stroke:none;" d="M150 155L143 153L141 160L137 160L138 180L140 182L145 178L142 177C144.518 171.814 139.652 166.235 138 161C141.212 164.367 141.705 169.081 147 169L147 173L148 173L151 160L152 160L156 164L160 161L160 152C156.188 151.664 150.988 150.391 150 155z"/>
<path style="fill:#b86a5e; stroke:none;" d="M183 156L186 153L183 156z"/>
<path style="fill:#dec5be; stroke:none;" d="M508 154L508 155L564 188L564 181C555.023 177.409 544.976 167.505 535 168C531.66 161.63 515.174 154.334 508 154z"/>
<path style="fill:#dfd0b3; stroke:none;" d="M276 155C276 160.868 273.435 175.011 278 179L276 192L270 189L266 191L268 189L263 186L263 190L257 189L257 192L258 192L262 191L263 198L260 200L256 199L257 204L264 200C259.639 209.217 255.361 223.738 246 229C243.773 238.477 232.591 258.177 224 263C222.162 273.184 211.861 289.7 205.335 297.741C201.241 302.785 193.185 311.251 192.639 318.05C192.351 321.635 195.847 325.652 197 329C194.961 327.255 189.453 322.671 189.073 319.95C187.519 308.841 204.207 297.934 205 286C212.474 283.638 217.971 272.463 217 265L220 260L218 260L218 258C222.374 255.281 220.901 252.465 220 248L228 250L230 244L227 245L226 238C218.504 240.51 216.49 250.029 218 257L215 256L216 264L210 265L203 276L206 277L206 278L200 279L199 296L197 293L194 295L194 296L196 298L191 302C183.792 302.545 185.796 313.573 178 310L177 317L176 317L176 311L173 312L176 309L173 308L177 293L177 288L178 288L178 291L182 292L183 292L184 286L179 284L175 291L161 287L162 293L160 289C155.431 291.297 153.474 295.261 152 300L156 299L153 305L165 305C163.527 307.403 159.41 310.444 164 311L164 312L162 315L166 313L167 318L157 315L158 312L152 314L141 310L140 315C153.432 315.11 164.926 318.467 177 324L176 320L185 321L186 333L192 331L195 336L212 338C216.447 328.761 217.009 321.76 226 315L226 314L223 313C228.303 308.516 227.973 304.095 236 304L236 303L232 303L232 302L240 302L240 301L233 301L235 290L230 293L228 288C231.994 288 236.384 267.427 237.222 263C237.706 260.446 241.056 257.402 239 256L241 253L247 254L248 258C242.364 261.22 244.324 265.657 245.483 271C248.25 283.755 261.747 291.723 274 295L277 287L279 289L280 289C280.455 282.984 284.107 281.832 288 278L294 282L286 288C288.119 292.499 284.021 295.978 282 300L286 303L283 304L283 305C287.702 306.373 291.45 306.105 293 301L289 303L293 288L294 288L296 290C294.184 298.751 303.624 299.874 306 292L311 293C315.265 284.317 324.551 259.392 309 255L310 252L288 242L289 239L282 227L281 230L279 229C277.481 237.659 283.337 236.949 287 243C278.511 241.399 256.505 236.009 253 248L252 248L250 244L270.96 230.74L283 205L281 200C284.207 199.498 289.698 191.565 290 188L292 191L298 193L298 189L293 190L294 184L287 186L287 185L294 183L294 182L287 180L294 180L294 179L285 173L282 176L282 177L284 179C277.652 175.881 276.82 169.959 280 164L278 155L276 155z"/>
<path style="fill:#948a81; stroke:none;" d="M454 157L454 160C465.905 162.79 475.553 172.524 485.41 179.045C489.696 181.879 494.413 182.318 498.91 184.403C506.157 187.763 512.551 193.181 520 196L505.285 185.642L474.576 168.157L454 157z"/>
<path style="fill:#cd8d83; stroke:none;" d="M180 158L180 161L181 161L180 158z"/>
<path style="fill:#ba7967; stroke:none;" d="M213 159L216 166L218 159L213 159z"/>
<path style="fill:#ab8963; stroke:none;" d="M151 160L148 173L147 173L147 169L138 161L142 177L146 178L159 161L156 164L151 160z"/>
<path style="fill:#f5f1f0; stroke:none;" d="M175 167L165.606 185.852L159 191L154 190C154 191.664 147.899 198.945 153 198L149 208L146 206L146 213L150 213L147 216L147 217L149 218L146 219L141 216L140 216L141 221L137 224L139 229L133 229L133 230C136.284 234.811 131.263 238.179 127 240L128 245L132 245L133 251L129 250L123 248L120 258L121 258L125 257L123 261L128 262L127 259L136 258L137 259L133 272L153.871 262.341L165 277C159.911 278.09 156.923 290.15 162 293L161 287L166 290L166 280L169 283L176 281L176 274C170.597 274.246 167.891 271.304 168 266L163 258L152 254C155.832 247.108 163.83 247.02 171 247L157 235L164 228L161 223L151 224L151 219L156 216L157 209L154 209C160.64 197.104 176.957 189.829 190 189L190 188C187.029 185.615 182.312 183.173 184 179L184 178L175 167z"/>
<path style="fill:#cbb09d; stroke:none;" d="M246 168C243.681 171.262 242.672 173.51 245 177L249 174L246 168z"/>
<path style="fill:#f7f7f5; stroke:none;" d="M324 173C322.556 179.054 318.936 181.179 313 182L311 187C328.689 185.118 335.934 192.579 351 199L354 196L352 191L357 191L357 190L340.185 185.232L324 173z"/>
<path style="fill:#d6d6d8; stroke:none;" d="M400 173L400 176C396.941 176.002 384.413 174.71 385.368 180.095C386.345 185.609 393.649 192.123 396.501 197C404.04 209.894 410.033 223.465 413.559 238C418.453 258.178 418.613 280.932 413.112 301C410.385 310.948 404.565 320.962 403 331L407 331C407.064 333.993 406.946 335.346 410 336L406 339L408 344C404.921 346.691 405.959 352.14 404.907 356C402.378 365.274 397.644 386.852 389 392C390.427 396.08 389.903 398.009 386 400L388 404L384 406L385 409C376.927 412.451 379.713 418.681 376.111 424.847C374.471 427.656 371.01 428.839 369.218 431.606C367.779 433.828 368.015 436.677 366.37 438.801C364.202 441.602 361.05 441.407 360 445L355 445L357 447L357 448L339.167 465.917L334 472L334 473L323 475C322.369 479.631 312.247 482.76 308 484L308 488L295 493C287.265 500.976 278.736 500.013 268.83 502.39C259.017 504.745 250.521 507.913 240 508L240 512L198 512L179 512C176.694 505.024 167.811 506.028 162 504.505C145.07 500.065 129.861 494.014 112 494L112 493L118 492L111 482C106.221 482.023 102.458 482.648 100 478L104 480L105 480L107 477L104 477L104 476L107 474L101 473L101 472L103 471L83 466L85 462L64 459L60 451L48 448L46 442L40 444L40 440L37 442L34 428L28 426C27.5292 417.38 15.8621 411.913 11.3889 405.056C8.78685 401.067 8.87368 395.549 5 393L8 389C1.70125 388.288 1.66595 379.157 1 374L0 374L0 564L104 564L104 560L120 560L118 544L126 544L126 552L131 552L131 544L133 544L133 552L136 552L136 544L152 544L152 536C157.089 536 174.927 538.006 176 533L184 536L190 540C191.968 533.43 202.355 536 208 536L208 541C212.554 539.556 220.818 536.385 224 541L236.184 534.103L248 532L249 532L254 532C254.925 536.296 259.417 534.06 263 534L263 533L258 530L272 528L280 524L280 515C290.42 520.422 298.559 512.008 309 512C309.778 505.041 313.634 504.022 320 504L330 496L330 488L336 488L336 484L337 484L340 488L340 480L352 476L352 472L357 472L358 468L363 470L360 466C367.66 463.281 365.603 458.015 369.279 452.062C373.217 445.684 381.195 447.983 376 438C380.008 437.033 382.71 436.097 384 432L395 432L399.612 424.416L398 416L404 401L408 404L406 400C407.573 394.204 409.955 390.59 416 389L416 392C428.059 391.857 423 376.951 423 368L432 366C430.149 362.374 427.985 361.473 424 362L428 360L430 335L440 336L440 329L448 329L448 325L446 328L442 328L435 320C446 317.655 440 302.998 440 296L435 296L436 282L440 282L440 272L454 272L454 280L456 280L456 272L472 270L472 277C476.704 276.983 479.881 277.13 481 272L485 272C486.407 276.81 491.745 275.997 496 276L496 272L505 272L505 276L513 275L515 280L517 280L519 275C522.081 278.294 526.538 281.438 527.682 286C529.099 291.649 526.215 298.657 529.028 303.957C532.621 310.728 545.15 311.924 552 312L552 314L544 314L544 318L552 318L554 336L563 337L564 312L564 264L551 263L551 256L544 256C543.561 250.215 540.61 248.182 535 248C533.677 241.889 527.997 242.571 523 240.267C513.809 236.028 506.812 232.634 501 224L497 225L489 216L488 216L487 219C484.821 215.976 483.164 216.381 480 218L480 212L464 203L457 200L459 200L459 198L440 188C439.205 178.036 423.274 180 416 180C414.952 175.199 412.452 174.983 408 176L400 173z"/>
<path style="fill:#f9f1ee; stroke:none;" d="M211 188L212 191L208 197L219 206L221 199L231 197L230 192L232 189L238 184L240 185L238 183L241 175C230.606 179.026 223.024 188.289 211 188z"/>
<path style="fill:#74584c; stroke:none;" d="M496 175C500.665 182.322 512.505 186.768 519.961 190.806C534.431 198.642 548.012 212.381 564 217C560.609 211.411 553.653 209.357 548.424 205.806C533.213 195.472 513.735 179.941 496 175z"/>
<path style="fill:#c3ac8c; stroke:none;" d="M162 180L163 185L160 189C166.274 188.512 167.436 183.661 168 178L162 180z"/>
<path style="fill:#a97373; stroke:none;" d="M224 181L224 185L230 178L224 181z"/>
<path style="fill:#bd7171; stroke:none;" d="M200 179L198 184L190 186C192.945 189.546 195.38 190.86 200 191L200 190L197 188C203.323 188.243 202.993 183.232 200 179z"/>
<path style="fill:#d9b2b3; stroke:none;" d="M228 181L228 182L232 182L228 181z"/>
<path style="fill:#c6b599; stroke:none;" d="M270 184L268 185L266 191L269 192L273 188L270 184z"/>
<path style="fill:#db9687; stroke:none;" d="M307 190L299 202L294 205L296 204L296 205L293 209L288 209C286.626 213.163 281.997 217.991 288 220L292 210L293 210L297 215L293 215C291.931 218.251 290.344 225.121 286 224L285 224C285.307 226.218 286.004 232.987 289.776 231.654C292.384 230.733 293.023 226.14 294.238 224.001C298.903 215.794 303.607 212.961 301 203L304 206L308 204L307 210C316.173 205.364 325.644 203.438 336 203L334 207L337 206L335 208L336 212L327 222L328 225L328 226L332 226C330.893 229.907 328.907 231.893 325 233L325 237C320.864 237.473 313.815 239.315 313 233L312 233L313 244L326 241L329 243L327 237L333 239L333 231L339 229L336 224L340 220L344 220C341.65 215.138 339.538 212.239 344 208L344 207L341 208L344 197L338 198L338 194L317.17 188.719L308 191L308 190L313 188L311 184C307.69 185.015 305.622 186.509 307 190z"/>
<path style="fill:#c9a2a5; stroke:none;" d="M314 186L314 187L318 187L314 186z"/>
<path style="fill:#eec2c3; stroke:none;" d="M318 187L318 188L326 187L318 187z"/>
<path style="fill:#9d4f4f; stroke:none;" d="M308 190L308 191L318 188L308 190z"/>
<path style="fill:#a96864; stroke:none;" d="M318 188L318 189L338 194L338 198L349 199C341.37 189.374 329.745 186.548 318 188z"/>
<path style="fill:#d0a4a3; stroke:none;" d="M326 187L326 188L331 188L326 187z"/>
<path style="fill:#dfcd9f; stroke:none;" d="M168 208L168 209C170.153 211.349 170.126 212.633 168 215L168 220L171 223L172 223C175.418 218.686 180.593 216.689 186 216C186.515 211.904 187.669 208.656 184 206L184 205L198 205L190 216L194 216L194 217C192.014 217.377 188.304 220.025 192 220L189 223C188.835 227.715 185.676 230.343 182 233C182.553 228.045 180.919 226.375 176 226L177 236L178 236L179 231L181 234C189.819 233.901 193.162 228.405 194 220L208 216L207 213L212 212L210 219L218 216C221.452 209.39 214.866 198.95 208 197L212 190L209 189C205.72 193.504 194.767 191.276 191 188L173.88 192.603L168 208z"/>
<path style="fill:#5f2c29; stroke:none;" d="M197 188L200 190L197 188z"/>
<path style="fill:#baa18d; stroke:none;" d="M290 188L281 200L282 203L291 192L296 192L296 191L290 188z"/>
<path style="fill:#91403f; stroke:none;" d="M297 196C293.597 196.587 292.728 197.649 292 201L307 190C302.381 188.72 298.318 191.617 297 196z"/>
<path style="fill:#f0cbc2; stroke:none;" d="M291 192L281 205L286 207L297 192L291 192z"/>
<path style="fill:#e3d3b1; stroke:none;" d="M172 193C166.244 195.745 156.173 203.065 154 209L157 209L157 210L156 216L151 219L151 224L161 223C161.064 225.993 160.946 227.346 164 228L157 235L171 247C164.123 247.005 154.752 246.449 152 254C155.047 254.958 156.953 255.678 159 253L155 254L155 253L160 252L159 249L165 250L161 254L161 255L162 257C166.138 256.267 174.142 249.026 175 245C178.204 245.821 180.303 245.486 181 249L186 248L185 264C190.703 263.811 193.01 261.23 195 256L198 258L198 254L204 255C202.944 250.073 196.626 251.4 193 253L193 250C182.455 249.824 192.086 242.328 193 238C204.91 233.291 210.319 223.868 212 212L207 213L208 216L194 220C192.766 230.125 188.005 235.395 179 231L178 236L177 236L178 228C170.36 228.392 172.912 223.205 168 220L168 215C170.535 213.007 170.582 210.947 168 209L168 208L172 193z"/>
<path style="fill:#d58d8e; stroke:none;" d="M296 193L294 195L294 196C296.251 195.527 297.118 195.14 296 193z"/>
<path style="fill:#c1625e; stroke:none;" d="M297 202L299 202L302 195C298.353 196.495 296.601 197.958 297 202z"/>
<path style="fill:#a88146; stroke:none;" d="M109 196C111.471 202.687 118.679 207.179 126 208L120 196L109 196z"/>
<path style="fill:#b64642; stroke:none;" d="M344 197L348 201L347 205L350 204L350 209C354.997 207.929 350.953 203.663 351 200L344 197z"/>
<path style="fill:#e4afa1; stroke:none;" d="M351 197L350 200L351 197z"/>
<path style="fill:#b6685e; stroke:none;" d="M352 197L355 211L356 211L356 197L352 197z"/>
<path style="fill:#c4a495; stroke:none;" d="M356 197L359 219L354 220L354 225L358 228L354 230L357 230L352 241L351 241L350 241L348 239L348 247L360 245L359 239L364 241L365 241L362 231C365.197 230.311 364.746 228.946 364 226L367 225L367 220L361 208L367 212L366 209C368.396 209.575 368.487 209.475 369 207L372 208L371 202L367 201C362.539 202.854 359.612 199.418 356 197z"/>
<path style="fill:#d5dbdb; stroke:none;" d="M42 198L43 202L41 204L40 204L38 202C35.0412 211.489 24.9793 214.994 16 215C12.7534 220.935 6.56707 223.927 0 224L0 272L2 272C2.00371 266.396 1.74157 259.145 9 259L16 256L19 240L20 240L20 245L22 245L22 240L23 240L23 246L24 246L37.0278 214L45 198L42 198z"/>
<path style="fill:#cf695a; stroke:none;" d="M341 208L344 207L344 208C338.669 211.302 341.021 215.655 344 220L340 220L336 224L339 229L334 231L334 234L339 235L337 232L344 235L330 241L330 246L326 241L311 243C308.815 246.866 306.095 246.275 302 246L302 247L306 248L304 250L304 251C307.058 250.961 310.529 251.405 311 248L321 247L320 251L325 251L325 250L323 249L328 248L335 250L336 250L341 249L337 243L340 245L345 241L345 235L347 237L348 237C348.552 231.748 355.594 210.205 350 209L350 204L347 205L348 201C341.666 198.744 339.971 202.132 341 208z"/>
<path style="fill:#9e8768; stroke:none;" d="M257 212L258 212C258.653 210.04 259 209.446 259 212L260 212L264 200C259.829 202.275 257.654 207.368 257 212z"/>
<path style="fill:#cdb788; stroke:none;" d="M77 213C76.9991 221.468 75.2206 231.069 80.9383 238.367C85.5057 244.196 93.6443 247.175 99 252L102 253L103 253L102 244L102 243L103 238C96.8615 236.194 94.0867 229.655 92 224C94.7112 224.577 95.3946 224.767 96 222L104 225L101 215C108.45 217.541 113.75 220.59 114 229L115 229L125 208C111.871 203.49 99.4451 197.019 85.4144 204.584C81.8295 206.517 80.8941 211.004 77 213z"/>
<path style="fill:#a35950; stroke:none;" d="M291 206L287 208L288 205L285 214L288 209L293 209L296 204L294 205L294 204L296 201C292.018 201.13 289.237 201.588 291 206z"/>
<path style="fill:#893630; stroke:none;" d="M350 201L353 217L357 218C356.833 212.229 355.277 204.051 350 201z"/>
<path style="fill:#bba387; stroke:none;" d="M259 202L257 208L259 202z"/>
<path style="fill:#e3b09f; stroke:none;" d="M301 203C303.147 216.386 291.315 225.135 288 238L295 234C295.492 228.995 298.336 228.152 303 228L302 231L304 231L303 235L307 234C309.685 240.551 309.004 240.885 306 247C313.94 245.714 313.358 239.177 312 233L313 233L313 236L325 237L325 233C329.305 232.315 331.315 230.305 332 226L328 226L328 225L330 224L327 222L336 212L337 206L334 207L336 203C326.207 203.175 315.084 204.113 307 210L308 204L304 206L301 203z"/>
<path style="fill:#803b36; stroke:none;" d="M287 208L291 204L287 208z"/>
<path style="fill:#b69e78; stroke:none;" d="M184 205L184 206L186 216C182.332 216.244 165.837 220.975 171.694 227.339C175.429 231.397 181.708 222.683 182 233C186.198 230.936 189.719 227.883 189 223L192 220C188.091 220 192.346 217.492 194 217L194 216L190 216L198 205L184 205z"/>
<path style="fill:#f2ebe3; stroke:none;" d="M250 244L252 248L253 248C259.87 236.651 276.485 241.67 287 243L279 229L281 230L282 227L289 239L286 207C277.843 206.294 275.073 224.976 270.275 230.74C265.156 236.891 256.389 239.334 250 244z"/>
<path style="fill:#b59d81; stroke:none;" d="M256 208L251 221L252 221C254.316 217.068 257.741 212.611 256 208z"/>
<path style="fill:#c8bfae; stroke:none;" d="M388 208L389 212C383.785 215.891 384.47 225.039 384 231L390 230L391 230C393.858 233.27 401.92 232.69 406 232L407 236L408 236L400 216L388 208z"/>
<path style="fill:#826d4e; stroke:none;" d="M258 210L247 228C252.053 225.216 259.26 215.907 258 210z"/>
<path style="fill:#eba89f; stroke:none;" d="M292 210C291.328 214.528 289.035 217.833 285 220L286 226C290.592 223.733 291.891 219.775 293 215L297 215L292 210z"/>
<path style="fill:#b64740; stroke:none;" d="M353 211L349 230L352 227L353 227L353 231L354 231L354 220L359 219L358 215L357 215L357 218L353 217L353 211z"/>
<path style="fill:#a98f6c; stroke:none;" d="M68 213C58.8422 226.874 72.3674 238.638 68 252L80 252L67.1404 223.999L68 213z"/>
<path style="fill:#a88c5c; stroke:none;" d="M101 215L104 225L96 222L92 224C93.502 229.958 96.3984 236.932 103 238L102 243L102 244C107.039 242.359 108.329 238.602 106 234L99 234L99 230L110 231L111 227C107.422 225.123 106.443 222.968 106 219L111 225L114 224C111.751 218.567 106.55 216.201 101 215z"/>
<path style="fill:#ab5642; stroke:none;" d="M315 218L321 219L322 216C318.696 215.31 316.912 215.079 315 218z"/>
<path style="fill:#b35645; stroke:none;" d="M314 218L313 225L319 225L318 220L314 218z"/>
<path style="fill:#872313; stroke:none;" d="M315 218L318 220L318 224L319 224L320 218L315 218z"/>
<path style="fill:#786545; stroke:none;" d="M106 219C106.228 223.142 106.847 225.688 111 227L110 231L99 230L99 234L106 236C111.019 233.553 113.597 229.547 114 224L111 225L108 219L106 219z"/>
<path style="fill:#d5bfaa; stroke:none;" d="M242 219L242 229C246.605 227.672 249.04 224.251 251 220L242 219z"/>
<path style="fill:#e1a6a0; stroke:none;" d="M354 225L358 228L354 225z"/>
<path style="fill:#ae997a; stroke:none;" d="M242 239L249 229C243.021 225.965 237.722 234.385 242 239z"/>
<path style="fill:#892a30; stroke:none;" d="M352 227L347 240L348 240L351 237L351 240L354 239L350 231L353 231L352 227z"/>
<path style="fill:#d89081; stroke:none;" d="M295 234C290.704 235.875 288.326 238.17 289 243L290 243L290 239L295 238L297 242L306 245L307 245C311.433 240.887 309.783 238.717 307 234L303 235L304 231L302 231L303 228C298.207 228.057 294.517 228.418 295 234z"/>
<path style="fill:#d5bba0; stroke:none;" d="M238 237C231.478 236.724 223.437 235.919 227 245L230 244L228 250L220 248C220.483 252.387 221.369 254.718 218 258L220 260L217 265L215 271L215 272C220.658 270.146 221.666 262.66 224.304 257.83C230.081 247.255 239.749 241.38 242 229C237.674 230.343 237.806 232.838 238 237z"/>
<path style="fill:#a06966; stroke:none;" d="M350 231L350 236L351 236L351 232L354 233L352 235L352 236L354 238L355 238L357 230L350 231z"/>
<path style="fill:#b2aea2; stroke:none;" d="M390 230L383 234L402 234C408.588 250.703 411.248 266.646 408.701 284.91C407.744 291.775 403.31 297.976 402 305L399 304L397 311L395 306L394 306C391.512 310.056 388.487 309.984 384 310L384 304L390 304L390 303L384 302L384 298L366 296L366 302L357 304L354 309C354.586 313.458 353.06 318.647 348 315C344.934 315.816 340.933 318.909 346 320L346 321L335 325L330 352L323 352C322.798 358.195 315.974 366.232 310 368C309.444 375.344 302.838 378.509 296 379L296 384L287 381L284 381L272 390L211 397.961L176 388L177 384L173 385C171.158 380.565 168.725 379.298 164 380L164 374L156 368C146.045 365.528 132.186 351.663 129 342L131 333C127.731 330.883 127.887 327.198 125.786 324C120.993 316.701 116.667 309.554 109 305L108 296L104 296L105 293L100 292L114 319L112 317C105.68 318.192 100.145 321.625 94 322.736C79.3883 325.377 60.1064 319.803 48.3611 311.095C43.0447 307.153 42.1275 299.498 37 296L45 314L57.0386 322.066L80 325L79 328C88.1343 327.502 93.7695 331.784 101 336C99.0736 340.6 98.6462 345.446 105 344L110 360L107 360L104 371L111 376C117.662 372.302 120.577 376.454 124 382L128 380L128 384L138 384L138 387L152 387L152 392L164 390L164 394L168 395C168.771 399.765 171.557 401.576 176 403L184 400L184 403L192 405L192 402L196 402L196 406L202 406C204.881 415.483 217.255 405.94 224 405.721C248.842 404.912 271.931 399.042 296 396C298.639 391.213 306.772 389.72 312 389L320 384C321.722 373.081 336.17 377.144 338 365L345 366C351.855 354.146 369.284 365.987 379.541 358.121C386.359 352.893 389.319 343.053 393.972 336.129C413.295 307.375 418.868 264.607 406 232L390 230z"/>
<path style="fill:#df836e; stroke:none;" d="M333 231L333 239L327 237L326 243L326 244L330 246L330 241L344 235L337 232L339 235L333 231z"/>
<path style="fill:#e58a91; stroke:none;" d="M351 232L351 236L352 236L354 233L351 232z"/>
<path style="fill:#aea294; stroke:none;" d="M383 234L369.833 266.845L357 291L349.81 299.995L334.106 320.352L278.722 370.394L253 384L246 383L246 382L251 381L249 374L260 374L260 373L256 373L256 372L258 371L258 370L256 370L256 368L265 364L267 362L266 358L263 359L255 352L255 356L247 350L246 350C238.779 353.09 243.275 344.08 241.764 341.284C240.199 338.387 236.714 337.071 235 334C230.276 334.165 225.509 332.78 224 328L221 328L224 327L222 324L218 326C218.248 330.519 218.569 334.886 213 335L212 338L195 336L192 331L186 333C184.695 324.881 178.538 327.511 172 326L170 319C161.51 318.93 142.319 316.649 137 310L136 310L135 310L135 312L130 312L129 312L130 306L124 302L124 298L101 289L101 290L104 296L108 296L109 305L125.917 325L131 333L129 342C131.248 351.657 145.951 366.568 156 368C157.259 372.044 159.909 373.443 164 374L164 380C168.55 379.877 170.608 381.15 173 385L177 384L176 388L210 397.961L272 390L284 381L287 381L296 384L296 379C303.342 378.767 309.743 375.898 310 368C316.687 366.912 322.923 358.486 323 352L330 352L335 325C339.871 326.012 342.425 324.096 346 321L346 320C343.195 317.807 345.501 316.418 348 315C352.597 320.258 354.902 313.201 354 309L357 304L366 302L366 296L384 298L384 302L390 303L390 304L384 304L384 310C388.443 309.997 392.15 310.602 394 306L395 306L397 311L399 304L402 305C403.591 298.416 407.565 292.384 408.737 285.83C411.774 268.845 410.239 249.018 402 234L383 234z"/>
<path style="fill:#b14538; stroke:none;" d="M345 235L347 242L345 235z"/>
<path style="fill:#a47a30; stroke:none;" d="M72 236L80 253L96 257L95 252C83.4255 253.183 79.4117 242.929 72 236z"/>
<path style="fill:#c78f90; stroke:none;" d="M352 236L352 238L354 238L354 236L352 236z"/>
<path style="fill:#b76770; stroke:none;" d="M349 237L352 241L349 237z"/>
<path style="fill:#86694b; stroke:none;" d="M240 238L235 242L225 262C231.068 258.759 241.066 245.161 240 238z"/>
<path style="fill:#9a6b61; stroke:none;" d="M290 239L290 243L291 243L291 240L297 242L295 238L290 239z"/>
<path style="fill:#fdfdfd; stroke:none;" d="M32 239C29.8823 247.493 24.8252 255.631 23.2593 264.17C19.154 286.556 23.2322 313.658 30 335L31 335L30 328L46.7137 331.769L64 345L62 337L59 337L56 325C35.6147 322.241 30.4487 298.675 33.3048 281.001C34.213 275.381 37.9294 271.958 38 266L33 266L33 265L37 264C37 258.494 38.2884 250.189 32 248L32 247L35 247L34 239L32 239z"/>
<path style="fill:#c4c8c7; stroke:none;" d="M19 240L16 256L9 259C-0.118243 258.661 0.000443131 275.109 0 282L0 362C0 368.584 -0.78756 388.595 8 389L5 393L8 394C8.13654 409.076 25.3689 413.077 28 426L34 428C32.3187 433.231 34.5159 437.34 37 442L40 440L40 444L46 442L48 448L60 451L64 459L85 462L83 466L101 472L101 473L107 474L104 476L107 477L105 480L104 480L100 478C101.7 483.551 106.118 482.097 111 482L118 492L112 493L112 494C129.365 494.059 144.467 500.169 161 504.505C167.379 506.177 175.34 505.334 179 512L240 512L240 508C250.849 507.97 259.796 504.801 270 502.553C278.741 500.628 289.436 501.426 295 493L308 488L308 484C312.486 483.266 322.754 479.803 323 475L334 473L334 472L332 471C340.046 467.115 341.956 460.748 347.799 454.72C351.227 451.184 357.348 451.053 355 445L360 445L375.977 425.625L385 409L384 406L388 404L386 400C390.562 398.614 391.055 396.085 389 392L396.3 380.184L404.907 357L408 344L406 339L410 336L407 331L402 331L376 371L380 370L382 374L382 375L382 376L374 388L371 388C371.049 399.624 365.217 399.474 360.639 408.417C359.159 411.308 361.057 415.406 357 416L355 422L353 420L352 420L348 429C339.668 429.098 338.487 434.026 333 439L333 440L336 440L336 441L322 450L320 458L316 458C313.947 464.858 306.619 467.977 300 468C299.126 471.022 298.3 472.651 295 472L282 477C278.016 486.985 265.125 486.019 256 486L256 494L203 496.786L171 491C169.859 487.098 162.667 484.544 160 488L159 488L158 488L144 479C138.736 482.532 132.335 477.825 127 477L128 474L112 473L112 469L104 461L90 457C90.3579 454.351 88.4786 452.051 88 456L87 456C82.7446 448.062 64.8091 435.395 56 437C55.6264 432.024 53.3021 425.92 48 425C47.3738 419.461 44.6173 416.427 39 416L30 386L26 387L24 376L21 376L21 368L17 368C15.9412 352.236 13.1214 337.449 12.8472 322C12.7674 317.502 11.5547 308.391 17 307L16 288L17 288L17 299L18 299L18.1844 270L23 240L22 240L22 245L20 245L19 240z"/>
<path style="fill:#7f5040; stroke:none;" d="M291 240C291.787 243.691 295.577 244.18 299 245L291 240z"/>
<path style="fill:#a45954; stroke:none;" d="M297 242L298 246L306 250L302 247L302 246L306 246L306 243L297 242z"/>
<path style="fill:#863230; stroke:none;" d="M340 245L337 243C338.244 248.805 343.202 244.117 346 242L340 245z"/>
<path style="fill:#a55e62; stroke:none;" d="M344 242L347 248L345 244L347 242L344 242z"/>
<path style="fill:#9f8260; stroke:none;" d="M234 243L219 270L220 270L227 263L227 262L225 261L225 260L236 243L234 243z"/>
<path style="fill:#dfb7c2; stroke:none;" d="M343 244L341 249L329 253L335 256L335 251L345 248L343 244z"/>
<path style="fill:#692b2e; stroke:none;" d="M345 244L348 247L345 244z"/>
<path style="fill:#cdc1b3; stroke:none;" d="M376 244L373 262L374 262L376 244z"/>
<path style="fill:#b6b596; stroke:none;" d="M175 245L174 251L184 250L184 249L181 249L182 246L175 245z"/>
<path style="fill:#b64f52; stroke:none;" d="M323 250L331 249L331 251L335 248L328 248C325.761 245.676 324.397 247.7 323 250z"/>
<path style="fill:#a35f5e; stroke:none;" d="M315 251L320 251L321 247L315 251z"/>
<path style="fill:#f9f0e7; stroke:none;" d="M364 247L364 257L373 262L373 248L372 248L371 256L366 251L369 251L364 247z"/>
<path style="fill:#a1a16f; stroke:none;" d="M162 257L170 270L175 265C183.929 264.252 185.047 255.379 186 248L174 251L175 248L162 257z"/>
<path style="fill:#8e4d4b; stroke:none;" d="M311 248L312 250L313 250L314 248L311 248z"/>
<path style="fill:#ba923b; stroke:none;" d="M84 249C87.3028 252.74 90.2581 252.837 95 252L97 257L102 251L99 252C95.8772 247.899 91.2502 249.454 87 251L84 249z"/>
<path style="fill:#babbb3; stroke:none;" d="M159 249L160 252L155 253L155 254L159 253L157 257L162 257L161 254L165 250L159 249z"/>
<path style="fill:#cba49f; stroke:none;" d="M307 251L307 252C313.342 253.291 329.547 255.507 334 250L331 251L331 249L315 251L307 251z"/>
<path style="fill:#bd9359; stroke:none;" d="M72 299L72 298C67.0764 295.91 60.3625 294.643 59 289C52.4389 282.737 56.9658 270.947 59 263L71 259.589L96 258C82.506 250.431 60.6946 248.606 49.2785 261.185C42.5967 268.548 42.204 291.062 51.054 296.713C56.3892 300.119 65.7772 298.983 72 299z"/>
<path style="fill:#dec8a1; stroke:none;" d="M275 252L274 256L274 257L276 263L272 259L271 259L267 264L270 254C265.566 255.559 265.296 260.855 264 265L269 270L260 269L260 280L270 278L271 288L280 279L280 278L275 275L266 276L276 266C281.596 265.244 283.5 262.467 284 257L295 265L293 267L293 268L302 269L291 256C287.499 254.483 283.2 250.479 280 254L275 252z"/>
<path style="fill:#f6eeeb; stroke:none;" d="M309 253C313.59 261.006 319.574 269.715 317.407 280C316.429 284.647 312.406 288.439 311 293L306 292C302.65 298.819 295.056 298.488 296 290L294 288L293 288L289 303L293 301C290.944 305.076 288.436 305.856 284 306L286 308L286 309C275.82 309.438 272.405 312.561 263 307L267 312L267 313C262.227 314.812 259.668 314.839 256 311L255 311L258 327L255 327L254 334L258.167 338.5L264 337L259 341L261 346L265 343L266 349L262 353C263.821 353.513 265.029 353.951 266.6 355.059C279.951 364.479 260.169 363.319 256 370L280 370L284 359L289 362L291 355L281 353C283.511 348.137 282.659 342.816 277 341C279.194 337.89 279.669 336.462 278 333L294 332L281 327L286 328L285 321L287 323L293 322L293 321L290 320L290 318L302 318L299 313L303 307C305.396 307.575 305.487 307.475 306 305L310 307L320 301L320 300L314 301L317 298L316 295L320 295L322 283L324 286L330 279L330 278L328 276C331.155 275.324 333.979 264.117 333 261L335 259L336 259L338 262L343 260L343 259L340 259L340 255L336 257C326.177 252.442 319.422 253.236 309 253z"/>
<path style="fill:#baa68e; stroke:none;" d="M241 253L239 256L231 281L228 288L231 290L230 293L235 290L233 301L241 302L247 293L247 292L243 292L244 289C227.461 291.557 241.098 260.633 243 253L241 253z"/>
<path style="fill:#bcaf9c; stroke:none;" d="M352 255L355 253L352 255z"/>
<path style="fill:#f4efe9; stroke:none;" d="M237 275L263.557 294.104L272 302L271 298C276.793 299.195 292.648 297.83 286 288L294 282L288 278C283.191 281.342 280.204 282.742 280 289L279 289L277 287L274 295C262.885 290.848 247.984 283.524 245.679 271C244.619 265.242 243 262.218 248 258L247 254C239.075 255.307 238.44 268.291 237 275z"/>
<path style="fill:#7b786f; stroke:none;" d="M158 256L162 259L158 256z"/>
<path style="fill:#bab99d; stroke:none;" d="M184 256C183.008 260.813 179.914 264.089 175 265L172 270L185 267L186 263L184 256z"/>
<path style="fill:#d1b77e; stroke:none;" d="M284 257L283 263L285 268L295 267L295 265L287 257L284 257z"/>
<path style="fill:#c3a873; stroke:none;" d="M76 260L77 262L72 262L73 264L68 263C69.5505 268.863 70.9186 273.455 66 278C68.4654 288.136 82.0051 288.614 91 289L91 294L83 296L83 297L86 297L86 298L80 298L80 299L99 296L99 294L94 288L104 292L104 291C93.5578 284.925 85.9342 284 74 284L74 282C77.5788 282 83.4613 283.287 84 279L91 277L76 272L76 270L88 275L89 275L96 258L76 260z"/>
<path style="fill:#ccb581; stroke:none;" d="M59 263C56.6639 269.914 51.6857 284.247 59 289C58.832 299.657 79.0838 298.297 86 298L86 297L83 297L83 296L91 294L91 289C81.8181 288.274 69.4524 287.764 66 278C71.5371 274.613 69.9078 268.235 68 263L73 264L72 262L77 262C71.1499 256.033 65.7203 263.059 59 263z"/>
<path style="fill:#7c7257; stroke:none;" d="M163 260L171 269C169.29 264.668 167.904 260.815 163 260z"/>
<path style="fill:#f1c8b2; stroke:none;" d="M151 262L156 265L155 269L158 268L160 283L161 283L165 277C162.986 271.622 157.251 260.811 151 262z"/>
<path style="fill:#bb8873; stroke:none;" d="M150 263L136 272L139 276L142 273L142 278L145 276L145 275L147 269L147 271L154 266L154 265L152 263L150 263z"/>
<path style="fill:#785e43; stroke:none;" d="M223 263L215 279C219.521 276.237 224.862 268.385 223 263z"/>
<path style="fill:#b9a077; stroke:none;" d="M276 277L283 276L283 275C281.45 272.142 282.308 270.658 285 269L285 263L276 277z"/>
<path style="fill:#d3b792; stroke:none;" d="M336 264L332 273C336.599 271.929 339.166 271.816 340 277L341 277L347 275L347 271L343 270L344 266L342 263L336 264z"/>
<path style="fill:#bfbbb0; stroke:none;" d="M44 264C41.9879 271.066 36.3909 271.711 34.0324 277.147C26.5773 294.332 36.0944 323.372 56 325L75 358C67.6386 349.574 57.069 336.012 46.7137 331.344C41.4349 328.965 35.4408 330.305 30 328C34.1868 355.933 57.7248 382.662 79.2901 398.289C87.0617 403.921 94.0397 411.574 104 413L104 416L121.001 423.235L156 433.826L192 432L191 429L212 428L212 424C226.189 423.843 242.387 421.317 256 417L256 419L296 410L296 409L288 409L288 408L336 400C342.656 388.553 363.33 383.566 368 370C374.434 369.066 377.975 363.309 381 358C375.915 359.587 369.376 361.894 364 361.721C357.607 361.516 348.176 356.908 345 366L338 365C335.293 376.251 320.818 373.388 320 384C316.092 384.404 313.336 385.101 312 389C306.966 389.416 297.716 390.828 296 396C271.858 397.905 248.902 404.99 224 405.428C216.63 405.558 206.405 414.656 202 406L196 406L196 402L192 402L192 405L184 403L184 400C180.489 400 176.854 399.013 176 403L168 395L164 394L164 390L152 392L152 387L138 387L138 384L128 384L128 380L124 382C121.437 376.082 117.308 371.582 111 376L104 371L107 360L110 360L105 344C99.0774 344.514 99.6048 340.568 101 336C94.9903 330.756 87.3892 326.708 79 328L80 325L58.0108 322.066L45 314C45.2037 308.374 40.6496 308.074 38.1798 303.79C35.7559 299.586 35.5085 288.823 36.1335 284.001C37.0968 276.568 48.8613 271.827 44 264z"/>
<path style="fill:#c56638; stroke:none;" d="M142 278L142 273L139 276L137 274L129 277L127 283L140 288L141 291L144 289L146 300L151 301C155.584 289.255 159.007 280.76 158 268L155 269L156 265L142 278z"/>
<path style="fill:#cfb288; stroke:none;" d="M280 265L272 274L272 275L275 278L284 278C283.987 274.806 284.403 272.729 281 272L283 275L283 276L276 277C278.563 273.232 281.81 269.696 280 265z"/>
<path style="fill:#b3956f; stroke:none;" d="M276 266L266 276C272.909 275.796 277.258 273.173 278 266L276 266z"/>
<path style="fill:#ac9b7f; stroke:none;" d="M45 268C43.0949 274.712 36.3064 277.424 36.0185 285C34.9106 314.158 69.359 324.607 93 322.946C100.898 322.391 105.688 316.622 114 319L107.985 313.457L94.9853 315.946L64 315L56.9352 308.921L43.787 292.995L45 268z"/>
<path style="fill:#c9bcab; stroke:none;" d="M108 268L108 270L110 270L110 268L108 268z"/>
<path style="fill:#d7cdb4; stroke:none;" d="M168 268C168.27 273.146 173.111 271.72 177 271L177 270L168 268z"/>
<path style="fill:#f9ad8b; stroke:none;" d="M146 269L143 275L146 269z"/>
<path style="fill:#947040; stroke:none;" d="M76 270L76 272L89 277C86.8377 271.217 81.6542 270.451 76 270z"/>
<path style="fill:#dadedf; stroke:none;" d="M456 272L456 280L454 280L454 272L440 272L440 282L436 282L435 296L440 296C440.031 304.99 444.855 314.145 435 320L442 328L448 325L448 329L440 329L440 336L430 335L428 360L424 362L432 366L423 368C423 376.562 427.613 391.622 416 392L416 389C409.471 389.977 407.205 393.916 406 400L408 404L404 401L398 416L399.443 424.111L395 432L384 432L376 438C380.005 448.455 373.52 444.69 369.278 451.149C365.302 457.201 367.334 462.227 360 466L363 470L358 468L357 472L352 472L352 476L340 480L340 488L337 484L336 484L336 488L330 488L330 496L320 504C313.299 504.005 309.413 504.482 309 512C298.096 512.001 290.934 519.189 280 515L280 524C276.304 524.118 273.136 524.118 272 528L258 530L263 533L263 534L254 532L249 532L248 532L236.184 533.653L224 541C222.864 535.7 211.764 539.229 208 541L208 536C202.497 536 191.198 533.165 190 540L184 536L176 533C172.834 537.88 157.826 535.999 152 536L152 544L136 544L136 552L133 552L133 544L131 544L131 552L126 552L126 544L118 544L120 560L104 560L104 564L200 564C201.044 550.451 215.494 557.977 224 558L224 553L240 550C241.993 543.131 247.953 544 254 544L255 540C262.754 545.43 268.856 534.666 275 538L276 538L277 538L293 535.722L304 530L312 532L312 528L320 528L320 524L328 524L328 528L332 528L332 512L336 511L336 520L344 520L344 504L360 500L360 488L368 488L368 484L376 488L376 504L392 504L392 496L384 496C384 492.489 384.987 488.854 381 488L381 487L384 486L382 481L390 480L392 459L400 459L403 456L403 448L408 448L408 440L416 443C423.956 439.518 422 431.428 422 424L424 424L424 430L432 430L432 405L440 405L440 395L448 395C449.653 404.905 463.231 394.68 465 406L492.853 405.682L499.98 399.754L538 400L539 432L553 432L553 424L550 424L550 416L564 416L564 336L554 336L552 318L544 318L544 314L552 314L552 312C544.699 311.789 532.747 310.202 529.028 302.985C523.302 291.874 531.248 284.293 519 275L517 280L515 280L513 275L505 276L505 272L496 272L496 276C491.546 275.963 487.495 276.079 485 272L481 272C479.31 276.596 476.605 276.945 472 277L472 270L456 272z"/>
<path style="fill:#c6aea4; stroke:none;" d="M120 275L124 271C120.966 271.496 119.929 271.874 120 275z"/>
<path style="fill:#af8a70; stroke:none;" d="M122 287L112 287L112 288C119.291 288.239 119.617 291.673 118 298L124 298L124 302L126 302C125.859 295.13 122.272 277.243 130 276C128.79 272.173 124.206 269.54 121.897 274.484C120.435 277.615 121.285 283.742 122 287z"/>
<path style="fill:#bba283; stroke:none;" d="M214 272C213.851 278.948 211.215 282.871 205 286C203.153 300.503 177.937 318.106 197 329C196.25 325.564 193.39 322.342 193.103 318.95C192.667 313.786 200.819 302.408 205 300L218 273L214 272z"/>
<path style="fill:#e0daca; stroke:none;" d="M236 273C235.691 276.953 233.547 287.255 238.434 289.353C242.136 290.943 250.444 287.679 255 288L255 287L236 273z"/>
<path style="fill:#9f876f; stroke:none;" d="M44 277C40.8477 290.79 45.7462 298.529 55.6211 308.239C58.3685 310.941 61.9684 311.645 64 315L110 314L107 307C95.2102 313.567 73.9595 312.338 63.5448 304.904C60.6622 302.847 57.245 302.593 56 299C44.6188 292.905 48.1198 286.818 44 277z"/>
<path style="fill:#be7e50; stroke:none;" d="M159 277L155 293L156 293C159.052 288.135 161.363 282.633 159 277z"/>
<path style="fill:#c4b193; stroke:none;" d="M91 278L91 279L114 284L112 286L112 287L116 287C114.137 275.931 99.2638 278.184 91 278z"/>
<path style="fill:#d5c1b6; stroke:none;" d="M121 278L120 281L111 280L111 281L116 287L122 287L121 278z"/>
<path style="fill:#c49a84; stroke:none;" d="M124 278L132 303L133 303L133 298L145 309L144 301L141 303L143 300L143 299C139.346 298.024 127.899 293.492 134 289L134 288L132 287L134 285L127 283L129 278L124 278z"/>
<path style="fill:#9c774b; stroke:none;" d="M84 279C83.4374 283.305 77.4688 282 74 282L74 284C78.6872 284 93.0012 286.661 94 282L110 286C104.171 280.908 91.6386 279.184 84 279z"/>
<path style="fill:#ae8e79; stroke:none;" d="M92 279L92 280L110 287L114 284L92 279z"/>
<path style="fill:#7b4e39; stroke:none;" d="M94 282C96.3374 290.08 109.711 290.443 117 292C113.139 285.284 101.048 283.554 94 282z"/>
<path style="fill:#c88461; stroke:none;" d="M132 287L134 288L134 289C125.416 290.849 139.459 298.747 143 299L143 300L141 303L144 301L149 311L156 306L153 305L156 304L156 299L152 300L153 298L151 301L149 299L146 300C145.205 296.393 144.643 294.196 141 293L141 296L135 289L137 290L135 286L132 287z"/>
<path style="fill:#9a9670; stroke:none;" d="M243 292L247 292L247 293L240 303L248 302L248 303L246 306L242 305L242 306C252.86 308.419 251.738 293.802 251 287C246.938 287.372 244.544 288.064 243 292z"/>
<path style="fill:#bdb9b6; stroke:none;" d="M16 288L17 307C11.6516 308.144 12.4281 317.406 12.5941 322C13.145 337.243 15.0588 352.64 17 368L21 368L21 376L24 376L26 387L30 386L39 416C44.1962 416.793 46.9672 419.918 48 425C52.8057 426.516 55.2875 432.218 56 437C65.4252 435.919 81.0646 448.671 87 456L88 456L88 453L90 457L104 461C105.235 465.088 107.923 467.728 112 469L112 473L128 474L127 477C131.737 478.277 139.558 482.88 144 479L158 488L159 488L160 488C163.898 485.762 168.69 487.223 171 491L203 496.895L256 494L256 486C264.635 486.066 279.41 487.577 282 477C287.147 476.593 291.543 476.085 295 472C298.533 473.838 299.469 471.386 300 468C306.676 467.995 314.743 465.592 316 458L320 458L322 450L336 441L336 440L333 440L333 439C339.018 435.379 339.808 429.263 348 429L352 420L353 420L355 422L357 416C361.034 415.493 359.306 411.473 361.213 408.472C366.737 399.78 371.349 399.446 371 388L374 388L382 376L382 375L382 374L380 370C376.014 371.022 357.267 384.129 366 386L363 390C364.272 395.209 359.579 398.711 355 400L350 414C345.552 414.654 344.308 416.624 344 421L331 434C325.429 434.433 317.846 443.526 317 449L312 449L312 452C309.197 452.074 298.829 456.621 302 458L302 459L289 464L289 467L282 468L282 472L240 478L240 485C227.961 485 216.057 484 204 484C198.895 484 193.749 484.986 191 480L176 480C174.779 474.275 165.754 473.417 161 471.722C152.239 468.599 144.768 469.437 136.028 466.667C125.409 463.301 122.222 456 110 456C109.54 450.226 105.956 450.226 101 449L104 448L95.2739 443.231L80 432C79.4485 424.897 70.8143 420.37 66.2446 415.286C56.7501 404.725 49.3909 394.343 41.8025 382.625C38.3623 377.313 39.994 369.303 34 366L34 364L39 363L38 366L44 369L21.0432 318L16 288z"/>
<path style="fill:#d2bf9f; stroke:none;" d="M94 288C96.706 294.074 101.092 303.739 107 307C104.503 299.653 101.611 291.314 94 288z"/>
<path style="fill:#896e5d; stroke:none;" d="M114 288L117 292L106 289L106 290L119 296C120.053 291.094 119.315 288.424 114 288z"/>
<path style="fill:#9f725b; stroke:none;" d="M127 288C125.134 292.238 123.776 305.154 130 306L129 312L130 312C133.203 304.442 132.599 294.351 127 288z"/>
<path style="fill:#eab394; stroke:none;" d="M139 288L135 289L141 296L144 289L139 288z"/>
<path style="fill:#b9b5a9; stroke:none;" d="M251 288L257 307L243 307L243 308L259 308L257 302C262.826 300.775 257.219 288.34 251 288z"/>
<path style="fill:#947a55; stroke:none;" d="M207 290L204 298L209 290L207 290z"/>
<path style="fill:#bcaa9e; stroke:none;" d="M164 291L163 295L166 291L164 291z"/>
<path style="fill:#d4d0cf; stroke:none;" d="M258 291L262 305L252 308L252 309L261 315L267 313L267 312L263 307C271.575 313.855 276.253 309.777 286 309L286 308C284.279 305.865 283.784 304.784 286 303L271 298L272 302L258 291z"/>
<path style="fill:#b48d42; stroke:none;" d="M56 299L56 300C65.5136 304.116 96.9955 313.733 102 300L99 296L56 299z"/>
<path style="fill:#a19e95; stroke:none;" d="M252 297L247 307L256 305L252 297z"/>
<path style="fill:#bcafa9; stroke:none;" d="M133 298L131 312L135 310L136 310L137 310L140 313L141 310L143 312L152 312L149 311L145 303L144 303L145 309L133 298z"/>
<path style="fill:#d0d0d0; stroke:none;" d="M26 300C26.2626 303.41 26.6787 304.901 30 306L31 301L26 300z"/>
<path style="fill:#826033; stroke:none;" d="M55 300L55 301C70.3364 309.643 87.3426 310.409 104 306L101 302C90.4061 313.464 67.2618 302.525 55 300z"/>
<path style="fill:#aeb393; stroke:none;" d="M232 302L232 303L246 306L248 303L232 302z"/>
<path style="fill:#97948d; stroke:none;" d="M257 302L262 305L257 302z"/>
<path style="fill:#fdeddd; stroke:none;" d="M223 314L246 309C235.678 300.596 228.901 304.04 223 314z"/>
<path style="fill:#f1ebd3; stroke:none;" d="M152 314L153 314L158 312L157 315L167 318L166 313L162 315L164 312L164 311L161 310L165 305C159.092 306.005 153.754 307.824 152 314z"/>
<path style="fill:#5e585c; stroke:none;" d="M252 306L252 307L257 305L252 306z"/>
<path style="fill:#8f714d; stroke:none;" d="M65 306C71.1069 315.982 96.2586 309.201 106 309C103.269 304.84 99.1835 307.279 95 308.066C84.4897 310.042 75.3156 306.9 65 306z"/>
<path style="fill:#f5d8b6; stroke:none;" d="M235 309L235 310L254 311C250.417 305.929 240.594 308.999 235 309z"/>
<path style="fill:#c3ad88; stroke:none;" d="M309 308L309 312L314 314L316 309L309 308z"/>
<path style="fill:#bbb5b5; stroke:none;" d="M254 309L261 315L254 309z"/>
<path style="fill:#e6b282; stroke:none;" d="M231 312L237 311L231 312z"/>
<path style="fill:#e1815b; stroke:none;" d="M224 315L224 316L231 316L230 314L238 313L235 320L237 320L232 325L232 323L223 325L221 328L224 328C224.859 332.947 229.539 333.948 234 335L234 334L232 332L241 337L241 333L249 326L254 327L256 321L251 320L253 317L250 316L255 312C245.932 307.642 232.3 309.87 224 315z"/>
<path style="fill:#bb5c2c; stroke:none;" d="M250 316L251 317L253 317L255 312L250 316z"/>
<path style="fill:#e17b30; stroke:none;" d="M230 314L231 316C218.41 316.114 220.068 328.055 232 323L232 325L237 320L235 320L238 313L230 314z"/>
<path style="fill:#ffd8b8; stroke:none;" d="M254 313L255 319L256 319L254 313z"/>
<path style="fill:#d3b59d; stroke:none;" d="M253 316L251 320L256 321L254 326C259.876 324.741 256.024 318.487 253 316z"/>
<path style="fill:#ffa57e; stroke:none;" d="M243 317L240 322L240 323L244 325L243 322C246.197 321.311 245.746 319.946 245 317L243 317z"/>
<path style="fill:#cdbe9f; stroke:none;" d="M176 320L177 324L170 321L170 322L172 326L185 327L185 321L176 320z"/>
<path style="fill:#d7b087; stroke:none;" d="M220 320L213 335C219.094 335.234 218.57 330.859 218 326L221 326L220 320z"/>
<path style="fill:#f4dbd7; stroke:none;" d="M257 320L257 326L251 333C247.505 332.354 240.917 334.69 247 336L247 337L245 337L245 338L249 335L255 335L258 341L251 345L251 347L257 348L259 341L264 337L254 334L255 327L258 327L257 320z"/>
<path style="fill:#fcb7a7; stroke:none;" d="M249 326L244 333L251 333L253 327L249 326z"/>
<path style="fill:#c3af97; stroke:none;" d="M292 335L301 330L292 335z"/>
<path style="fill:#9a866d; stroke:none;" d="M184 331L182 348L183 348C185.484 342.439 186.479 336.894 184 331z"/>
<path style="fill:#d7aa95; stroke:none;" d="M232 332L242 342L252 340L255 335L249 335L245 338L245 337L247 337L247 336L241 333L241 337L232 332z"/>
<path style="fill:#deddd9; stroke:none;" d="M59 334L62 337C62.8798 345.827 68.2448 352.553 75 358C73.3207 351.777 64.7655 336.909 59 334z"/>
<path style="fill:#d5cfc3; stroke:none;" d="M270 338L275 335L270 338z"/>
<path style="fill:#928171; stroke:none;" d="M168 336L168 339L155 339L152 342L154 344L154 345L148 344C152.865 351.547 166.552 347.238 173 344L173 337L168 336z"/>
<path style="fill:#e0d3c0; stroke:none;" d="M252 340C247.388 339.549 243.873 339.955 243 345L249 345L248 349L262 352L266 349L265 343L264 346L261 346L261 343L257 348L251 347L251 345L258 341L256 337L252 340z"/>
<path style="fill:#d5d1c8; stroke:none;" d="M31 339L29 342C43.9073 383.66 80.491 409.375 119 425.843C135.777 433.017 154.638 439.992 173 441.829C188.684 443.399 206.267 444.328 222 442.83C238.897 441.221 255.11 436.333 272 435L272 434C249.123 434.063 227.12 441 204 441C196.592 441 184.726 443.366 179 438L235 436.7L287 423.154L321.09 408.093L332 402L313 403.375L288 408L288 409L296 409L296 410C282.02 410.04 269.149 414.95 256 419L256 417L212 424L212 428L191 429L192 432C174.506 432.048 161.343 435.007 144 430.45C136.902 428.585 127.758 425.713 121.001 422.853C114.443 420.077 111.617 416.158 104 416L104 413C94.5333 410.624 87.6207 403.937 79.9992 398.289C60.3476 383.727 46.6614 366.411 36 344L35 344L34 347L31 339z"/>
<path style="fill:#725744; stroke:none;" d="M183 345L176 355L187 357L187 349L185 345L183 345z"/>
<path style="fill:#9c725a; stroke:none;" d="M249 345C234.462 345.132 245.874 356.794 249 345z"/>
<path style="fill:#c3b39a; stroke:none;" d="M247 350L255 356L255 352L263 359L266 358L265 364L261 366C263.765 365.223 270.25 364.929 271.914 362.405C273.897 359.396 269.399 356.49 267.42 355.04C261.404 350.633 254.16 346.574 247 350z"/>
<path style="fill:#806f5d; stroke:none;" d="M168 350L168 351L174 353L174 354L164 350L162 354C169.709 356.968 176.243 363.515 185 361L190 363L190 361L186 361L187 357L176 355L177 350L176 349L168 350z"/>
<path style="fill:#d2c3ac; stroke:none;" d="M272 349L272 353L274 350L280 351L272 349z"/>
<path style="fill:#c6bdae; stroke:none;" d="M289 362L297 355C291.985 354.289 289.736 357.245 289 362z"/>
<path style="fill:#a48269; stroke:none;" d="M200 359L197 358L197 363L192 362L190 366L196 371L200 371L201 360L202 360L202 363C212.743 363.822 212.26 377.11 221 379L219 374C222.054 373.346 221.936 371.993 222 369C228.58 371.858 230.334 377.661 238 375L232 362L221 366L221 370L213 368L208 358C204.539 357.763 200.931 354.574 200 359z"/>
<path style="fill:#cdc3b7; stroke:none;" d="M284 359L282 366L288 361L284 359z"/>
<path style="fill:#9d7245; stroke:none;" d="M201 360L200 371L193 368C193.836 372.987 197.142 375.263 202 376L202 375L200 374L203 372L200 367L203 368L203 364L205 364C205.834 370.184 209.949 372.091 215 375C213.602 366.386 206.426 365.193 201 360z"/>
<path style="fill:#b0afab; stroke:none;" d="M34 364L34 366L47.9938 395.811L57.4715 402.862L65.598 415.286L80 432L95.1111 444.25L101.778 445.5L101 449C105.62 450.478 109.123 450.625 110 456C121.346 456.008 125.24 463.131 135.171 466.458C146.712 470.326 168.634 468.112 176 480L191 480C192.74 485.241 198.3 484 203 484C215.39 484 227.624 485 240 485L240 478L282 472L282 468L289 467L289 464L302 459L302 458L300 457L312 452L312 449L317 449L320 440C311.136 441.174 312.66 446.628 306.777 450.566C303.07 453.048 291.551 455.67 287 456L287 460L270.562 467.943L240 474L240 477L224 477L224 481C207.306 481.033 192.607 475.37 176.91 471.414C171.506 470.052 165.697 470.052 160.424 467.942L127.015 454.718C121.854 452.672 117.588 448.832 112 448L112 442L96 435C94.8523 426.509 84.8055 419.341 78 415L77 410L73 405C68.7404 403.808 66.082 400.194 65 396L61 395L61 394L65 394C59.9746 385.832 47.3108 368.547 38 366L39 363L34 364z"/>
<path style="fill:#7e5b47; stroke:none;" d="M203 364L203 368L200 367L203 372L200 374L202 378L209 380L211 379L210 374L214 375L205 364L203 364z"/>
<path style="fill:#c0b19a; stroke:none;" d="M258 370L256 372L256 373L260 373L260 374L249 374L251 381L246 382L246 383L253 384L280 371C276.203 365.732 264.354 371.46 258 370z"/>
<path style="fill:#785f4b; stroke:none;" d="M222 369L219 374L221 379L216 375L213 380L236 379L222 369z"/>
<path style="fill:#b89881; stroke:none;" d="M210 374L211 378L213 378L214 375L210 374z"/>
<path style="fill:#8f7262; stroke:none;" d="M211 378L211 383L223 384L233 380C235.946 380.746 237.311 381.197 238 378C231.498 379.207 218.236 382.887 213 378L211 378z"/>
<path style="fill:#a6a19d; stroke:none;" d="M290 430L290 431L293 432C287.876 433.486 283.024 434.655 281 440L275 438L276 441L272 441L272 446L259 447L259 448L261 449C256.647 449.957 249.379 450.285 248 455L180 454C178.524 445.812 168.045 453.181 167 446L164 446L165 448L163 444L152 443L155 441L155 440C132.389 432.645 111.021 425.052 90.1698 412.901C80.8106 407.447 72.3239 394.625 61 394L61 395L65 396C65.679 400.679 68.2678 404.188 73 405C73.48 408.083 73.8277 409.511 77 410L78 415C84.2784 420.764 93.8835 426.192 96 435L112 442L112 448C117.437 449.411 121.743 453.289 127.015 455.081C158.325 465.724 190.047 481.255 224 481L224 477L240 477L240 474L271.385 467.943L287 460L287 456L307.632 450.436L313.056 442.471L322.58 440.844L331 434L344 421C344.572 416.92 345.98 415.051 350 414L355 400C359.807 399.256 365.77 395.277 363 390L366 386C356.951 386.934 354.84 393.91 347.985 398.218C330.746 409.054 309.985 425.264 290 430z"/>
<path style="fill:#dfdfe1; stroke:none;" d="M440 395L440 405L432 405L432 430L424 430L424 424L422 424C422 431.875 423.309 438.275 416 443C415.146 439.013 411.511 440 408 440L408 448L403 448L403 456L400 459L392 459L390 480L382 481L384 486L381 487L381 488L384 488L384 496L392 496L392 504L376 504L376 488L368 484L368 488L360 488L360 500L344 504L344 520L336 520L336 511L332 512L332 528L328 528L328 524L320 524L320 528L312 528L312 532L304 530L292 535.722L277 538L276 538L275 538L255 540L254 544C247.997 544 241.177 542.619 240 550L224 553L224 558C215.25 557.927 200.483 549.439 200 564L564 564L564 416L550 416L550 424L553 424L553 432L539 432L538 400L499.313 399.475L491.941 405.682L465 406C464.096 394.365 450.86 404.393 448 395L440 395z"/>
<path style="fill:#e7e7df; stroke:none;" d="M179 438C181.584 441.657 185.852 440.998 190 441C199.538 441.004 209.523 441.833 219 440.715C239.918 438.246 262.678 437.172 282.985 430.891C290.929 428.434 299.309 422.533 307 418.942C315.529 414.96 330.863 410.891 335 402C325.458 404.448 317.698 410.51 309 414.83C299.063 419.766 287.546 423.177 277 426.535C244.849 436.775 212.909 438 179 438z"/>
<path style="fill:#dad3cd; stroke:none;" d="M293 425L293 426C307.513 423.503 320.63 415.661 333 408C326.65 406.505 321.709 411.764 316.576 414.672C309.222 418.838 300.529 420.99 293 425z"/>
<path style="fill:#b7b2ae; stroke:none;" d="M112 424L112 425C120.061 427.628 127.041 432.767 135.09 435.296C167.807 445.574 204.958 449.591 239 443.679C254.684 440.955 270.942 437.703 286 432.456C293.754 429.754 301.066 424.739 309 423C300.268 419.876 289.852 428.493 281.996 430.891C262.494 436.846 241.441 440.884 221 442.83C197.756 445.044 172.451 442.532 150 436.583C137.819 433.356 124.288 424.783 112 424z"/>
<path style="fill:#938c82; stroke:none;" d="M152 441L152 443L163 444C162.146 446.697 162.149 447.386 165 448L164 446L167 446L180 454L248 455L261 449L259 448L259 447L272 446L272 441L276 441L275 438L281 440L293 432C288.184 430.139 281.852 433.405 277 434.627C264.339 437.813 251.809 440.865 239 443.487C209.154 449.595 181.37 441.081 152 441z"/>
</svg>
