<?xml version="1.0" standalone="yes"?>
<svg width="500" height="667">
<path style="fill:#4f3325; stroke:none;" d="M0 0C0 7.12531 0.195393 24.6308 8 27L8 32L14 33L11 39L11 40L14 43C20.722 42.4624 19.0247 37.3936 19.0008 32C18.9531 21.2495 14.9245 13.36 13 3L21 3C14.6149 -1.02948 7.26682 0 0 0z"/>
<path style="fill:#816041; stroke:none;" d="M17 0L17 2L21 2L21 0L17 0z"/>
<path style="fill:#36180d; stroke:none;" d="M21 0L21 3L13 3C14.3161 13.4138 18.987 21.3444 19 32C19.0065 37.3256 20.3826 42.0895 14 43L11 40L11 39L14 33L8 32L8 27C1.81988 23.883 2.99825 16.9028 1 11L0 11L0 170L8 170L8 166L18 171C17.6963 163.154 24.9579 160.025 32 159L32 156C18.7334 156.842 11.467 154.007 3 143L16 143C19.9639 142.924 24.3257 140.332 27 144L32 143L32 141L29 139C33.0963 139.12 40.7382 143.888 42 138L48 141L48 136L54 134L50 135L50 131C54.265 131.139 56.6971 131.708 58 136L64 136L64 146C68.09 145.19 69.9641 145.019 72 149L90 147L90 144C100.259 142.819 93.3085 131.193 98 125L94.6821 109.893L83 104L87 99L94 100L93 96L122 92L122 96L101 104L100 112L110 114L109 111L114 104L118 108L136 96C136.092 87.8004 141.343 80.2817 150 80C151.08 76.9713 152.705 74.3712 150 72L154 48L158 48L161 40L157 30L160 24L155 23C155.579 19.6283 155.445 17.9683 152 17L152 11L135.325 10.6135L124 16L127 9C131.512 8.6402 135.75 8.29486 138 4L123.961 0.0540161L74 0C76.0827 8.0296 79.7681 15.9156 82.0988 24C82.8257 26.5216 83.688 31.3034 80.5856 32.7438C77.5774 34.1405 76.0009 30.0781 75.3125 27.9846C72.4411 19.252 71.3364 13.0047 64.402 6.40125C53.535 -3.9472 35.1038 0 21 0z"/>
<path style="fill:#654e3c; stroke:none;" d="M58 0C60.9938 6.02014 67.9886 9.07031 71.1944 15.1744C73.6307 19.8131 73.1149 29.6797 77.5478 32.8017C85.1232 38.1367 81.614 21.3207 81 19L80 19L80 32L79 32L72 8L69 8C68.5695 2.47491 66.0196 2.12427 61 3L61 0L58 0z"/>
<path style="fill:#92887f; stroke:none;" d="M61 3L65 0L61 3z"/>
<path style="fill:#7f6252; stroke:none;" d="M65 0L69 8L72 8L79 32L80 32C82.0758 20.6504 78.2115 10.2852 74 0L65 0z"/>
<path style="fill:#421c0f; stroke:none;" d="M128 0C130.242 3.88068 133.828 3.98297 138 4L127 9L124 16L136.184 10.8843L152 11L152 17L155 23L160 24L157 30L161 40L158 48L154 48L150 72L150 80C140.649 80.1108 136.03 87.2017 136 96L118 108L114 104L109 111L110 114L100 112L101 104L122 96L122 92L93 96L94 100L87 99L83 104L94.1065 109.893L98 125C91.8854 130.343 100.87 141.733 90 144L90 147L72 149C70.5726 144.269 68.1995 144.556 64 146L64 136L58 136C57.198 131.195 54.4341 131.053 50 131L50 135L54 134L48 136L48 141L42 138C38.8366 142.823 33.7067 138.614 29 139L32 141L32 143L27 144C25.8983 138.885 19.7691 142.87 16 143L15 146L3 143C9.26237 155.078 19.8848 157.476 32 156L32 159C24.6391 159.54 17.2276 162.869 18 171L8 166L8 170L0 170L0 189L14 182L12 179L22 173L22 177L16 181C21.6918 179.658 30.8536 178.05 33 172L30 172L34 169L32 166C37.403 162.065 45.8819 163.019 48 156L68 158L72 163L76 163L92 192L87 188L87 200L91 204L80 208L79 208L79 199L64 203C63.993 212.002 62.4179 213.087 54 212C50.6455 218.647 46.5592 213.169 42.6597 216.657C37.7866 221.016 41.8093 234.31 43 240L37 241L37 219C25.7699 221.629 27.1454 212.344 18 211L21 214L14 224L8 222C12.135 217.025 12.4415 205.168 5 203L8 220L0 222L0 236L4 236L2 239L2 240L6 250L0 252L0 289C0 292.985 -1.72719 299.987 3 301L2 297L12 293L9 291C11.9622 287.013 15.1422 285.67 20 285L19 273L24 274L30 274C25.5711 284.51 34.0477 281.608 41 280L40 284L52 284L50 291L58 290L56 279C59.8053 281.301 60.1535 283.708 60 288L71 284L71 282C64.9753 279.233 56.987 275.102 59.8549 267.093C60.8734 264.249 64.2683 262.165 64.4329 259.076C64.7684 252.778 57.5168 246.185 68 244L68 243L59 244L64 237L76 236L70 241L75 246L74 249L103 241.474L112.918 237.39L112 230C118.561 227.859 112.802 224.217 109 223L108 217L118 218L113 209L122 198L122 197L122 196L114 185L115 182C108.15 179.481 110.432 172.015 109 166L117 163L115 154L112 154L112 149C136.135 149 159.166 133.372 181.972 128.889C185.411 128.213 202.578 117.969 203 116L195 117C198.912 112.513 206.574 106.728 198 102C198.757 97.9065 199.671 94.6498 196 92L200 82L195 82C195.849 78.191 198.439 74.0056 195 71L195 70L197 68L194 65L185 70L180 71C179.975 62.3148 177.153 57.5983 168 61L165 57L168 56L168 55C163.233 48.3801 181.476 41.2524 187 40L187 35L178 38L177 26L185 28L184 33L195 31L194 27L197 30L198 30C196.36 18.8101 177.177 29.9576 183 15L182 7C171.145 5.01465 153.865 14.9628 150 0L128 0z"/>
<path style="fill:#553c1d; stroke:none;" d="M150 0C152.395 15.0172 171.704 5.784 182 7L183 15C175.198 28.0737 195.764 21.4233 198 30L197 30L194 27L195 31L184 33L185 28L183 26L177 26L178 38L187 35L187 40C182.074 40.6558 161.123 48.986 168 55L168 56L165 57L168 61C176.665 58.6436 179.922 62.4035 180 71L185 70L194 65L197 68L195 70L195 71L195 82L200 82L196 92L198 102C205.659 108.381 198.427 111.245 195 117L203 118L204 118C211.256 112.547 200.38 94.4599 201 85C210.265 84.9233 217.754 84.0283 216 73C221.782 69.6218 217.486 60.0317 224.039 58.1573C229.255 56.6656 229.414 64.787 234.09 65.5077C238.797 66.2329 256.604 61.1402 258.227 56.6821C259.677 52.7001 257.336 46.7394 256 43L261 43L261 39L281.996 29.4105L326 28L326 27C302.87 27 277.857 27.3925 255 23.6752C249.021 22.7029 243.852 19.299 237.999 18.2593C226.536 16.2228 205.532 11.3771 200 0C189.869 0 180.844 2.21466 171.001 4.36108C167.568 5.10962 163.537 8.0556 159.979 7.4375C156.137 6.76984 154.867 3.29187 154 0L150 0z"/>
<path style="fill:#534542; stroke:none;" d="M154 0C155.937 12.0868 178.462 6.02142 186 1L154 0z"/>
<path style="fill:#1e0f0a; stroke:none;" d="M200 0C202.159 7.22827 208.706 8.02136 214.729 10.8202C231.144 18.4485 246.339 14.9864 264.015 15.9498C269.97 16.2744 280.228 12.1819 284 18L287 16C304.348 20.3848 318.963 17.5837 336.039 13.4143C343.046 11.7036 350.729 12.0637 357.83 10.7415C375.073 7.53107 392.36 2.00201 410 2L393 0L354 0L200 0z"/>
<path style="fill:#411f15; stroke:none;" d="M409 0L410 2C368.083 2 328.555 22.6141 287 16L284 18C282.798 12.392 273.257 15.493 269 15.9167C256.961 17.115 242.294 16.9484 230 17L230 18C239.112 18.0071 246.141 22.7406 255 23.8156C280.278 26.883 310.795 30.1825 336 27L336 23C340.358 23.812 346.681 26.2227 351 25.3858C357.827 24.0632 364.255 17.8612 371 15.5054C382.861 11.3626 395.531 8.52863 408 7.17358C416.367 6.26428 429.757 7.74524 435 0L409 0z"/>
<path style="fill:#665448; stroke:none;" d="M424 5L424 6L464 9L464 8L456 6L458 4L458 3L456 0L437.039 0.313232L424 5z"/>
<path style="fill:#563a2c; stroke:none;" d="M456 0L456 6L482 12C475.653 1.31476 467.565 0 456 0z"/>
<path style="fill:#42211a; stroke:none;" d="M470 0L470 1C480.935 8.05652 486.455 14.2042 500 17L500 0L470 0z"/>
<path style="fill:#5a4b46; stroke:none;" d="M416 6L416 7L424 7L416 6z"/>
<path style="fill:#827771; stroke:none;" d="M424 6L424 7L456 8L424 6z"/>
<path style="fill:#725d5c; stroke:none;" d="M405 7L405 8L413 8L405 7z"/>
<path style="fill:#c4c1bc; stroke:none;" d="M413 7L413 8L446 8L413 7z"/>
<path style="fill:#928481; stroke:none;" d="M401 8L401 9L406 9L401 8z"/>
<path style="fill:#d1d2d4; stroke:none;" d="M376 16L394 12.618L427 9.01465L470 12.3712L500 20L500 17C485.908 15.093 472.25 10.1402 458 8.28937C444.715 6.56378 430.395 8 417 8C404.775 8 386.275 8.67804 376 16z"/>
<path style="fill:#776d6b; stroke:none;" d="M392 9L392 10L396 10L392 9z"/>
<path style="fill:#a7a29f; stroke:none;" d="M396 9L396 10L400 10L396 9z"/>
<path style="fill:#aaaeb1; stroke:none;" d="M421 9L421 10L443 10L421 9z"/>
<path style="fill:#827471; stroke:none;" d="M464 9L464 10L470 10L464 9z"/>
<path style="fill:#897d7d; stroke:none;" d="M388 10L388 11L392 11L388 10z"/>
<path style="fill:#7d7f7c; stroke:none;" d="M402 12L402 13C410.511 12.8243 425.288 9.71075 432 16C427.237 16.1155 422.014 17.6893 426 23C422.345 28.2463 425.155 31.8056 431 32C431.585 39.0773 436.565 46.1472 444 47L449 64L449 65L456 65L454 69L457 68L466 73.1443L496 88L482 73C486.247 70.2122 484.332 65.4849 480 64L480 56L474 56L472 44C465.204 42.1122 464.07 36.3978 464 30C469.893 29.5134 473.966 27.8468 476 22C473.102 21.3124 467.837 18.4822 472 16C455.838 4.89313 420.093 7.96753 402 12z"/>
<path style="fill:#a9a3a5; stroke:none;" d="M379 13L379 14L388 12L379 13z"/>
<path style="fill:#939c99; stroke:none;" d="M394 12L394 13L406 12L394 12z"/>
<path style="fill:#a8b0b2; stroke:none;" d="M460 11L460 12L484 17L483 21L486 21L485 25L500 25L500 20L460 11z"/>
<path style="fill:#635c54; stroke:none;" d="M366 56L368 56L370 48L387 48L387 45L400 44L400 40L404 43C409.687 42.8474 412.65 45.6572 416 50L420 49L424 58L426 56L431 56L432 56L432 61L436 61L436 64L432 64L432 65L469 75L469 74L457 68L454 69L456 65L449 65L449 64L451 63C446.074 58.1323 444.024 53.9522 444 47C437.126 45.5726 431.932 38.726 431 32C425.254 31.5562 423.19 28.1619 426 23C423.506 17.6894 427 16.2747 432 16C427.848 10.123 411.524 12.2094 405 12.8303C397.655 13.5293 389.244 12.9542 382.289 15.8835C368.65 21.6279 366.001 42.7057 366 56z"/>
<path style="fill:#6a5c5b; stroke:none;" d="M376 13L376 14L379 14L376 13z"/>
<path style="fill:#9aa4a3; stroke:none;" d="M387 14L387 15L394 14L387 14z"/>
<path style="fill:#7f7472; stroke:none;" d="M484 13L484 14L488 14L484 13z"/>
<path style="fill:#b0a7aa; stroke:none;" d="M373 15L373 16L378 15L373 15z"/>
<path style="fill:#756160; stroke:none;" d="M370 15L370 16L373 16L370 15z"/>
<path style="fill:#878c88; stroke:none;" d="M469 16C470.144 19.7898 472.107 21.3804 476 22C473.264 27.2375 469.767 29.2046 464 30C464.022 36.5607 464.432 42.837 472 44L474 56L480 56L480 64C483.949 66.2508 485.287 69.5305 482 73C485.979 79.7431 491.722 85.8245 500 87L500 25L485 25L486 21L483 21L484 17L469 16z"/>
<path style="fill:#9e9590; stroke:none;" d="M492.667 15.3333L493.333 15.6667L492.667 15.3333z"/>
<path style="fill:#7e787a; stroke:none;" d="M368.667 16.3333L369.333 16.6667L368.667 16.3333z"/>
<path style="fill:#dde5e7; stroke:none;" d="M392 85L392 84C374.391 78.2606 334.231 62.4052 348.674 37.0579C351.143 32.7237 357.355 28.7574 361.2 25.5201C366.005 21.4744 371.357 19.5137 377 17C371.492 14.7113 365.753 17.986 361 20.8225C349.548 27.6568 338.921 37.4302 341.214 52C344.175 70.8196 375.386 83.6429 392 85z"/>
<path style="fill:#8d7e79; stroke:none;" d="M496.667 16.3333L497.333 16.6667L496.667 16.3333z"/>
<path style="fill:#806d66; stroke:none;" d="M365 17L365 18L368 18L365 17z"/>
<path style="fill:#999e9a; stroke:none;" d="M364 24L381 18C375.72 15.944 367.033 19.3738 364 24z"/>
<path style="fill:#877976; stroke:none;" d="M360 20L360 21L365 19L360 20z"/>
<path style="fill:#8b8c86; stroke:none;" d="M360 69L355 57L355 56L361 46L358 39L360 37L360 36C354.436 27.8481 372.251 23.1476 377 20C372.832 18.7839 368.844 21.7135 365.015 23.3094C347.427 30.6388 340.051 59.6711 360 69z"/>
<path style="fill:#bab9a7; stroke:none;" d="M349 66C347.058 61.4062 343.13 57.7891 341.652 53C337.397 39.2155 350.077 28.7765 360 22C355.703 21.3773 352.145 25.1223 349.001 27.7546C337.79 37.1417 333.506 57.8719 349 66z"/>
<path style="fill:#694d38; stroke:none;" d="M336 23L336 27L288 27L288 28L312 37C312.583 32.0929 318.661 28.3607 321.583 34.1574C325.758 42.4382 329.37 52.3849 332.546 61.0555C333.815 64.5175 336.092 71.4242 340 72L340 99L341 99L341.106 69L338.498 43L351 26L336 23z"/>
<path style="fill:#76736c; stroke:none;" d="M371 23C361.125 28.3087 361.22 28.9397 358 39L361 46L355 56L355 57L360 68C362.679 54.5977 374.534 37.3291 371 23z"/>
<path style="fill:#7e6b4a; stroke:none;" d="M261 39L261 43L256 43C256.924 46.9338 259.724 52.674 257.687 56.6821C255.669 60.6505 238.593 66.163 234.09 65.0926C229.491 63.9994 229.542 56.2818 224.039 57.7114C218.131 59.2466 220.49 69.0379 216 73C216.62 83.5997 210.468 84.8046 201 85C199.856 92.1528 201.438 105.958 208 110C205.1 101.944 201.119 93.1404 213 93L212 97L219 96L222 84L219 84L219 76L224 67L221 60C231.683 60.8228 227.681 74.4587 237 76L235 80C238.967 79.3369 239.655 77.8929 239 74L256 78C258.379 69.1538 261.472 59.0065 266.164 51.1088C268.841 46.6044 273.539 46.8027 276 51C278.081 50.8847 280.489 50.9935 281.993 49.2577C283.99 46.953 284.218 43.6331 286.468 41.2994C291.89 35.6762 306.135 30.6587 307 42C312.408 41.7004 317.894 36.2985 312 32L312 37L294.96 28.0555L277.09 30.9591L261 39z"/>
<path style="fill:#887b6b; stroke:none;" d="M314 31L314 40L320 39L328 56C331.319 48.0294 322.28 31.2008 314 31z"/>
<path style="fill:#a5a5a5; stroke:none;" d="M350 33C346.396 40.6781 344.138 48.9743 348 57L349 57C347.246 47.5493 349.743 41.7149 353 33L350 33z"/>
<path style="fill:#a59f93; stroke:none;" d="M269 50L262 64L268 64L266 68L266 69C272.533 66.8246 266.628 59.3522 272.279 56.2686C275.388 54.5716 279.558 56.2885 282.946 54.9668C287.553 53.1694 290.107 48.3931 295 46.4475C300.206 44.3776 303.026 47.7446 308.039 47.9267C311.871 48.0659 315.3 44.8406 318.867 45.2515C323.303 45.7628 324.773 54.5146 325 58L329 58L320 39L307 42C306.619 30.3917 291.118 35.2687 285.72 41.2994C283.576 43.694 283.475 48.1027 280.683 49.7816C277.498 51.6968 272.569 49.4256 269 50z"/>
<path style="fill:#555146; stroke:none;" d="M400 40L400 44L387 45L387 48L370 48L368 56L364 56C363.462 59.5438 360.495 62.4252 360.372 65.9244C360.145 72.3511 372.047 76.6958 377 78C377 73.6977 391.073 71.6483 395 70.6667C419.557 64.5273 440.55 74 464 74L464 73L432 65L432 64L436 64L436 61L432 61L432 56L431 56L424 58L420 49L416 50C413.373 44.9688 409.771 42.1491 404 43L400 40z"/>
<path style="fill:#a1927b; stroke:none;" d="M338 41L340 58L341 58L338 41z"/>
<path style="fill:#b5b2ad; stroke:none;" d="M259 76L264 76L264 82L258 87L262 87L261 90L268 85L266 80C274.375 79.0359 270.095 72.1541 274 67L272 63C277.151 63.0427 283.675 65.7787 286 60L282 60L282 59L286 59C287.432 53.0487 290.715 52.6293 296 51C298.767 55.6312 308.489 69.5697 312 59C317.333 61.6212 322.782 59.2958 323 67C335.226 71.9438 333.348 85.6141 332 96C318.727 94.3318 320.437 111.026 324 121L327 116C324.196 114.182 322.927 110.48 325.028 107.318C327.689 103.314 334.168 105.83 336.396 100.695C340.293 91.7125 334.073 80.1392 332.249 71.9105C330.896 65.8063 332.737 58.8906 325 58C324.884 54.0866 323.5 44.1418 317.945 44.7377C314.02 45.1588 311.346 48.3918 307.09 47.7076C303.846 47.1862 301.47 44.9042 297.996 45.2677C290.627 46.0388 288.122 52.7618 281.981 54.9529C278.573 56.1691 273.576 53.9702 270.858 56.7462C267.894 59.7728 270.668 64.3853 268.307 67.5262C265.439 71.343 260.875 71.08 259 76z"/>
<path style="fill:#878175; stroke:none;" d="M256 78L239 74C239.12 77.6107 238.488 78.9203 235 80L237 76L232 75L238 87L235 90C241.997 90.0054 255.369 95.1448 260 88L252 89L264 82L264 76L259 76L268 64L262 64C265.418 59.284 270.462 56.3953 269 50L276 50C273.555 46.5424 268.66 46.354 266.164 50.2284C261.362 57.6825 257.336 69.1962 256 78z"/>
<path style="fill:#c4c4c6; stroke:none;" d="M286 59L282 59L282 60L286 60C282.856 65.0746 277.288 63.0146 272 63L274 67C269.151 71.2372 274.531 78.2211 266 80L268 85C260.568 94.4124 248.14 96.1991 237 96L237 93L227 93L213 111L218 124L218 125L216 128C207.736 128.378 203.688 131.651 203 140L214 146C215.057 142.911 222.029 131.934 221.458 141.916C221.265 145.293 217.49 147.319 217.778 150.894C218.21 156.271 223.332 153.838 224 150C233.421 152.934 232.037 148.011 239 144L237 151L240 153L251 152L251 153L248 156L281 160L280 168L294 166L290 173L302 170L304 178L324 179L324 176C327.194 175.987 329.271 176.403 330 173L334 179L335 179C335 169.359 333.698 155.53 322 153L324 147C317.741 142.582 314.752 131.255 323 127C323.463 116.038 316.709 94.8464 332 96C333.91 86.2914 335.714 70.4205 323 67C323.89 59.025 317.669 60.9554 312 59C307.114 68.0007 299.96 55.524 296 51C290.419 52.3521 286.867 52.5875 286 59z"/>
<path style="fill:#91806c; stroke:none;" d="M329 56L338.487 80.0038L339 108L340 108L340 72L329 56z"/>
<path style="fill:#7c551c; stroke:none;" d="M339 57L339 110C343.413 113.891 343.883 119.344 344 125L343 125L342 122L341 122L341 128L338 128L338 132C347.263 131.118 347.51 138.67 349.053 146C349.9 150.021 352.535 153.239 353.54 157.17C355.319 164.122 353.326 172.015 360 177L358 152L367 160L366 156L373 158L372 155L379 152C383.122 156.671 386.153 145.978 386.74 142.83C389.144 129.927 388.729 115.112 389 102L394 102L394 98L398 98L398 96L394 96L394 95L409 94L409 93C393.2 92.3096 368.588 83.1125 356.054 73.436C349.889 68.6766 345.561 61.2821 339 57z"/>
<path style="fill:#85827d; stroke:none;" d="M221 60C221 63.3627 220.284 66.2037 224 67L219 76L219 84L222 84L219 96L212 97L213 93C193.361 93.0695 213.499 108.559 210.404 116.025C208.35 120.981 201.142 118.671 199 124L202 127L203 127L210 125L215 120C214.412 113.51 208.998 109.821 207.952 103.98C207.105 99.2512 211.898 98.7914 214 102C226.062 98.7001 223.634 79.7983 226 70L228 70L232 75C230.943 67.8419 229.24 60.2733 221 60z"/>
<path style="fill:#b5bbad; stroke:none;" d="M352 68L361 74L361 73L352 68z"/>
<path style="fill:#231b0e; stroke:none;" d="M376 76C380.793 80.6971 396.952 71.9395 404 71.1736C418.974 69.5464 436.428 70.8285 451 74.5803C460.415 77.0042 470.542 83.2944 480 84C481.533 88.6655 485.619 89.1036 490 88C465.854 70.2751 428.566 64.1746 399 69.321C391.015 70.7109 383.791 74.1495 376 76z"/>
<path style="fill:#998f90; stroke:none;" d="M332 69C332.037 77.7792 341.58 91.7275 336.278 100.778C333.47 105.571 327.265 102.954 324.722 106.333C322.489 109.301 323.506 115.251 327 116L323 127C314.309 129.646 317.23 143.67 324 147L322 153C334.42 157.524 335 170.877 335 182L336 182L335 153L328 148L328 144C310.623 143.927 330.473 129.394 324 128L332 111L338 111L338.721 80.0038L334 69L332 69z"/>
<path style="fill:#83888c; stroke:none;" d="M360 69L363 71L360 69z"/>
<path style="fill:#9e9b92; stroke:none;" d="M226 70C222.891 80.1388 225.59 97.234 214 102C213.064 97.6328 207.167 98.3513 207.167 103C207.167 108.823 214.305 113.641 215 120L210 125L201 129L205 131L206 131L216 128L218 125L218 124C215.203 119.893 219.225 112.821 213 111L227 93L237 93L237 96C246.052 96.3826 257.964 96.9819 262 87C257.572 86.0135 254.105 83.7587 252 89L260 88C253.793 94.3394 242.881 90.0009 235 90L238 87L228 70L226 70z"/>
<path style="fill:#a6a495; stroke:none;" d="M352 70C361.75 82.5864 388.735 90 404 90L404 89L352 70z"/>
<path style="fill:#090909; stroke:none;" d="M381 80C413.701 88.7416 451.072 97.0773 485 89L485 88L480 84C470.726 82.6017 461.32 76.9799 452 74.5803C437.711 70.9014 422.639 70.9302 408 71.0008C400.181 71.0385 384.817 72.3914 381 80z"/>
<path style="fill:#8e929b; stroke:none;" d="M364.667 72.3333L365.333 72.6667L364.667 72.3333z"/>
<path style="fill:#a0a29f; stroke:none;" d="M368 74L368 75L372 76L372 75L368 74z"/>
<path style="fill:#4f4836; stroke:none;" d="M466 75L466 76L472 78L466 75z"/>
<path style="fill:#92918d; stroke:none;" d="M376.667 78.3333L377.333 78.6667L376.667 78.3333z"/>
<path style="fill:#7b797a; stroke:none;" d="M379.667 79.3333L380.333 79.6667L379.667 79.3333z"/>
<path style="fill:#696f7b; stroke:none;" d="M382.667 80.3333L383.333 80.6667L382.667 80.3333z"/>
<path style="fill:#8c9197; stroke:none;" d="M384.667 81.3333L385.333 81.6667L384.667 81.3333z"/>
<path style="fill:#8d9095; stroke:none;" d="M387 82L387 83L390 83L387 82z"/>
<path style="fill:#909398; stroke:none;" d="M390.667 83.3333L391.333 83.6667L390.667 83.3333z"/>
<path style="fill:#505358; stroke:none;" d="M392.667 83.3333L393.333 83.6667L392.667 83.3333z"/>
<path style="fill:#4e3c26; stroke:none;" d="M482 83L482 84L489 89L494 88L494 86L482 83z"/>
<path style="fill:#d2d4cf; stroke:none;" d="M389 85L389 86C416.71 91.2239 442.664 95.1658 471 93.0887C478.58 92.5331 495.261 93.7917 500 87L441 91.9105L389 85z"/>
<path style="fill:#767a85; stroke:none;" d="M394.667 84.3333L395.333 84.6667L394.667 84.3333z"/>
<path style="fill:#474552; stroke:none;" d="M398 85L398 86L402 86L398 85z"/>
<path style="fill:#40434a; stroke:none;" d="M402 86L402 87L406 87L402 86z"/>
<path style="fill:#8c9093; stroke:none;" d="M406 87L406 88L409 88L406 87z"/>
<path style="fill:#4b5054; stroke:none;" d="M419 89L419 90L424 90L419 89z"/>
<path style="fill:#80807e; stroke:none;" d="M483 89L483 90L488 90L483 89z"/>
<path style="fill:#94968b; stroke:none;" d="M494 90L494 91L500 89L494 90z"/>
<path style="fill:#8f867d; stroke:none;" d="M398 90L398 91C423.055 100.386 455.849 94.2164 482 94L452 94L398 90z"/>
<path style="fill:#5c6466; stroke:none;" d="M427 90L427 91L432 91L427 90z"/>
<path style="fill:#454344; stroke:none;" d="M472 90L472 91L477 91L472 90z"/>
<path style="fill:#949ba3; stroke:none;" d="M477 90L477 91L482 91L477 90z"/>
<path style="fill:#3e3f43; stroke:none;" d="M437 91L437 92L464 92L437 91z"/>
<path style="fill:#7c7a7b; stroke:none;" d="M464 91L464 92L472 92L464 91z"/>
<path style="fill:#908f8a; stroke:none;" d="M488 91L488 92L494 92L488 91z"/>
<path style="fill:#5a5247; stroke:none;" d="M467 95L467 96L500 92L467 95z"/>
<path style="fill:#b2b2b2; stroke:none;" d="M478 92L478 93L482 93L478 92z"/>
<path style="fill:#231306; stroke:none;" d="M448 104L452 108L446.174 124L442 158L442 159L458 156L453 176L457 175L450 188L453 191C447.768 193.069 443.396 197.058 437.83 198.53C432.784 199.865 426.209 197.05 423 202L454 202C453.989 205.76 454.46 210.675 450.772 212.973C448.342 214.487 444.386 213.545 442.913 216.533C441.41 219.581 445.762 225.449 446 229L438 243L437 240L420 256L420 257L428 255L429 250L432 252L439 248L438 245L444 244L444 240C448.428 240.449 448.867 238.003 449 234C453.261 232.796 453.902 230.014 455 226C462.151 228.812 472.024 223.011 478 219L475 218L475 214L480 214L481 206L496 208L496 212L500 212L500 92L448 104z"/>
<path style="fill:#5f3b17; stroke:none;" d="M394 95L394 96L398 96L398 98L394 98L394 102L389 102C388.444 114.955 389.051 129.141 386.74 141.911C386.07 145.611 383.678 154.729 379 152L372 155L373 158L368 156L376 166L377 166L377 162C386.133 166.891 387.553 183.204 398 184L386 158L390 158L389 147C397.833 149.763 410.834 151.093 415 160C426.927 156.483 416.32 174.718 416 179C425.199 177.963 428.007 162.852 437 158C437.96 162.458 441.134 159.613 444 158L445.856 145.911L446.301 124L452 108L448 104L481 97L451 96.9854L394 95z"/>
<path style="fill:#777163; stroke:none;" d="M414 94L414 95L467 96L448 95L414 94z"/>
<path style="fill:#654e3c; stroke:none;" d="M338 108C337.992 118.809 333.07 115.402 327.862 122.303C325.046 126.034 324.112 135.362 324 140L335 153L335 159L336 159L337 152L341 154L341 145L342 145L342 148L346 148L344 135L340 141L339 141L340 132L338 128L341 128L341 122L342 122L343 125L344 125C343.945 118.394 343.374 112.393 338 108z"/>
<path style="fill:#756a64; stroke:none;" d="M208 111C207.229 115.738 204.324 117.408 200 119L200 120C204.995 119.945 216.378 116.436 208 111z"/>
<path style="fill:#80736a; stroke:none;" d="M332 111L324 128C329.358 123.999 337.918 117.883 338 111L332 111z"/>
<path style="fill:#6c4c3f; stroke:none;" d="M189 131L192 131C190.177 142.275 172.062 137.076 173 148L168 149L168 145L163 145L169 153L173 151L173 156C165.183 155.67 161.986 155.587 160 164C165.368 165.886 166.216 170.017 168 175C161.685 175.218 158.228 175.173 154 170C157.403 169.271 156.987 167.194 157 164L149 166L149 168L152 169L150 192C146.668 192.059 137.183 190.219 135.028 192.758C132.72 195.477 134.268 200.987 134.985 204C136.559 210.607 132.798 225.714 139.576 230.297C145.192 234.094 156.706 228.497 163 228L163 227L159 227L159 226C163.147 225.325 165.09 224.207 166 220L164 211L151 202L150 195L155 201L174 199C174.183 205.176 177.525 210.957 184 212L179 197L194 213L206 199L205 198L193.133 203.057L184 197C183.825 191.721 181.178 187.603 176 186C176.362 203.619 169.96 191.001 158 191L155 188L155 184L151 184C151.579 176.405 155.371 178.587 161 178C162.848 188.882 172.591 178.869 174 173C168.481 170.422 167.93 166.187 174 164L172 169C176.263 168.388 182.97 165.535 186.815 165.827C189.702 166.047 190.877 169.392 193.379 170.407C200.679 173.368 202.887 165.275 203 160L200 160L202 143C197.239 138.337 200.102 130.723 202 125L199 124L200 119C192.966 119.728 189.741 124.133 189 131z"/>
<path style="fill:#4e2e17; stroke:none;" d="M112 149L112 154L115 154L117 163L109 166C110.081 171.824 107.977 180.467 115 182L114 185L122 196L122 197L122 198L113 209L118 218L108 217L110 219L109 223C112.597 224.621 117.114 227.077 112 230L114 238L142 232L142 231C133.482 227.038 136.593 213.436 135.701 206C135.249 202.228 132.347 197.077 135.028 193.477C137.059 190.75 146.611 192.143 150 192L152 169L149 168L149 166L157 164L154 170C157.383 176.084 161.782 175.474 168 175C166.778 169.802 165.684 165.185 160 164C162.763 156.357 165.193 155.861 173 156L173 151L169 153L163 145L168 145L168 149L173 148C174.106 136.643 191.038 143.18 192 131L189 131L192 123L141 141.301L112 149z"/>
<path style="fill:#928370; stroke:none;" d="M200 127C200.342 132.336 196.696 139.561 202 143L200 160L203 160L202 169L203 169L206 158C202.518 156.394 205.169 152.532 204.972 149C204.483 140.213 200.904 137.391 205 129L200 127z"/>
<path style="fill:#bab4b4; stroke:none;" d="M202 131L206 158C203.659 168.631 205.588 172.619 216 175L216 176C212.706 176.153 202.803 178.412 208 183L208 184L206 186L213 194C226.879 191.65 242.069 189.363 255.985 193.415C263.203 195.517 269.571 201.085 277 203.316C285.652 205.913 293.273 202.449 300.29 210.04C308.847 219.297 313.67 230.16 319.142 241.285C321.608 246.298 323.018 252.899 328 256L328 250L334 250L334 243L341 245L341 244L331 234C335.964 232.936 334 224.189 334 220C334 208.653 335 197.405 335 186C335 181.026 335.276 175.105 330 173L324 176L324 179L304 178L302 170L290 173L294 166L280 168L281 160L248 156L251 153L251 152L240 153L237 151L239 144C231.607 146.564 233.485 151.915 224 150C223.125 152.702 218.892 155.762 218.314 150.88C217.875 147.169 222.123 144.839 221.713 140.98C220.621 130.695 214.863 142.674 214 146L203 140L205 131L202 131z"/>
<path style="fill:#302917; stroke:none;" d="M340 131L339 141L340 141L344 135L348 149C350.835 142.181 347.581 132.234 340 131z"/>
<path style="fill:#7c7266; stroke:none;" d="M328 144L328 148L331 148C330.337 143.479 328.643 140.781 324 140L325 133C316.654 136.193 320.32 143.908 328 144z"/>
<path style="fill:#16162e; stroke:none;" d="M341 145L341 154L337 152L340 186L336 184C336.559 187.486 344.305 197.93 337 199L337 203C341.401 205.69 341.789 211.162 342 216C338.424 213.202 338.049 210.395 338 206L337 206C337.001 212.23 336.23 221.663 344 223L344 216L349 216L350 209C353.171 211.236 360.879 216.466 356 220C358.599 231.358 367.377 241.992 379 242L379 246L392 245L395 248L394 244L380 245L380 241C375.682 240.961 372.318 240.968 370 237C373.375 237.293 377.514 235.244 374 232L374 231L379 231L379 230L369 227L383 224L383 222L379 222C381.569 219.739 382.431 219.739 385 222L387 222L388 217C382.842 215.372 378.164 212.021 372.985 210.823C365.591 209.113 358.331 214.344 355 205C364.574 202.911 357.463 189.708 358 183C364.571 186.539 360.024 191.326 362.277 196.91C364.349 202.045 371.168 205.041 376 207L375 200L376 199L383 200L385 197L385 196L364 166L384 185L383 180L386 172L366 156L367 160L358 152L360 177L353.54 156.285L348 145L346 148L341 145z"/>
<path style="fill:#0d0805; stroke:none;" d="M389 147L390 158L386 158L398 184C386.968 182.279 387.773 165.472 377 162C377.787 166.886 381.316 170.51 386 172L383 180L384 185L378 182C385.129 200.803 400.883 206 419 206C407.541 215.965 393.68 201.576 384 197L383 200L376 199L375 200L376 207L367 202C370.298 210.848 380.341 208.578 388 210C385.617 214.28 382.404 213.332 378 213L378 214L388 217L387 222L385 222C382.878 219.054 381.122 219.054 379 222L383 222L383 224L372 226L372 227C386.541 230.997 394.876 215.021 407 211C397.863 219.29 386.679 229.35 374 231L374 232C375.926 235.472 373.376 236.67 370 237C371.594 241.533 375.762 240.988 380 241L380 245C384.523 244.997 391.261 242.897 394 247C398.874 245.642 402.9 243.463 403.772 237.999C404.72 232.05 400.286 224.437 408 222C408 226.712 402.878 238.688 409 240C406.863 249.711 395.891 251.97 387 252C392.098 259.722 407.886 263.821 415.871 268.616C433.338 279.104 459.454 297.594 469 316C482.954 312.9 488.324 334.221 500 338L499.106 312.17L489.923 302.625L486.372 287.263L480.735 279.906L485.397 263.015L485.14 255.08L489 241L500 241L500 212L496 212L496 208L481 206L480 214L475 214L478 219C471.262 222.182 462.651 228.422 455 226L449 234C448.703 237.845 447.979 239.562 444 240L444 244L438 245L439 247L439 248C435.055 247.484 433.605 248.375 432 252L429 250L428 255L420 257L420 256L438 243L446 229L443.136 217.255L451.566 212.973L454 202L423 202C427.237 196.5 440.033 199.027 446.778 195.111C449.432 193.57 455.695 189.197 450 188L457 175L453 176L458 156L437 158C426.125 162.022 426.057 176.947 416 179C416.505 175.666 427.001 154.149 415 160C412.364 150.635 397.6 148.766 389 147z"/>
<path style="fill:#705925; stroke:none;" d="M351 166C350.995 164.002 351.048 161.985 350.826 159.995C348.982 143.452 337.286 163.814 351 166z"/>
<path style="fill:#4c2d18; stroke:none;" d="M48 156L32 166L34 169L30 172L33 172C29.5921 177.782 21.9384 178.86 16 181L22 177L22 173L12 179L14 182L0 189L0 222L8 220L5 203C11.6264 207.01 11.5626 215.965 8 222L14 224C17.587 217.759 21.7291 218.595 18 211C27.0069 213.354 25.6345 223.058 37 219L37 241L43 240L41 220L28 219L28 217L36 215L36 214L26 215L24 207C14.3578 201.668 33.8838 190.103 34 206L41 206C40.1286 202.559 39.5606 200.718 43 199L43 196L40 196L41 186C36.3037 183.228 34.9764 170.39 40.2284 167.179C54.5268 158.436 70.4057 176.019 70 189L65 192L69 192L64 195L66 203L79 199L79 208L80 208L91 204L87 200L87 188L92 192C91.3413 182.209 80.7553 171.245 76 163L72 163L68 158L48 156z"/>
<path style="fill:#5a593b; stroke:none;" d="M338 159L341 167L340 159L338 159z"/>
<path style="fill:#695a33; stroke:none;" d="M336 160C336 166.968 332.909 182.282 340 186C341.445 178.189 339.031 167.223 336 160z"/>
<path style="fill:#a39f9e; stroke:none;" d="M204 161C203.448 171.057 194.324 171.746 187 176L187 177L191 177L182 183C182.96 189.071 185.612 196.43 192 198C196.937 192.113 207.578 184.089 208 197L226 193L226 192L213 194L206 186L208 184L208 183C204.93 177.949 212.115 176.351 216 176L216 175C204.972 171.496 208.884 169.316 204 161z"/>
<path style="fill:#251e25; stroke:none;" d="M401 163C402.811 173.2 401.205 194.797 409 202C408.188 192.686 409.968 167.928 401 163z"/>
<path style="fill:#776652; stroke:none;" d="M174 173C171.95 178.294 164.04 187.754 161 178L158 179C153.846 174.27 151.136 179.867 151 184L155 184L155 188L158 191C170.106 191.009 176.81 204.87 176 186L180 190L181 190L178 178C182.307 176.974 186.188 175.682 187 171L192 171C188.842 162.007 179.123 167.426 172 169L174 164C167.248 165.441 167.647 171.183 174 173z"/>
<path style="fill:#69574b; stroke:none;" d="M41 186C40.8096 189.777 38.228 194.977 43 196L43 199C39.1238 200.14 39.7529 202.641 41 206L34 206C34.8657 198.722 30.5283 197.14 24 197L24 198L31 203L22 205L22 200L20 200C20.1204 203.692 20.3133 205.777 24 207L26 215L36 214L36 215L28 217L28 219L41 220L54 212C62.9094 213.979 63.999 212.127 64 203L46 203L46 201L52 197L45 197L42 194C43.6432 187.017 38.01 167.649 51.8295 171.475C56.5108 172.772 58.8631 176.609 64 177C64.0642 179.993 63.9461 181.346 67 182L65 190L62 193L66 195L67 195L69 192L65 192L70 189C70.9999 175.745 53.7826 157.303 39.4336 167.179C34.8469 170.336 35.9675 184.229 41 186z"/>
<path style="fill:#504c4d; stroke:none;" d="M364 166C366.74 174.075 376.243 189.218 384 193L367 166L364 166z"/>
<path style="fill:#1e2128; stroke:none;" d="M414 200L415 200C416.677 184.894 440.339 180.508 447 167C442.388 169.14 439.645 172.923 435.741 176.024C428.292 181.94 410.641 188.201 414 200z"/>
<path style="fill:#6c5b23; stroke:none;" d="M348 181L347 168C340.748 170.075 342.318 179.159 348 181z"/>
<path style="fill:#807b77; stroke:none;" d="M42 194L45 197L51 197L51 195L46 195L43 175C52.3355 172.182 53.1134 176.696 58 183C55.6334 185.516 50.3107 192.124 57 192L59 200L52 197L46 201L46 203L66 203L66 193L62 193L65 190L67 182L64 177C59.4238 176.295 56.9823 172.729 52.7106 171.475C37.7717 167.087 43.4325 185.924 42 194z"/>
<path style="fill:#877e75; stroke:none;" d="M187 171C185.641 175.316 182.037 176.516 178 178L184 197L189 198L189 197L182 183C186.503 182.666 189 181.071 191 177L187 177L187 176L199 172L187 171z"/>
<path style="fill:#6a5f49; stroke:none;" d="M351 172L352 183C357.419 181.201 355.824 176.305 354 172L351 172z"/>
<path style="fill:#98959c; stroke:none;" d="M43 175L46 195L59 200L57 192L54 193L58 183C54.2102 176.077 51.8008 171.291 43 175z"/>
<path style="fill:#806a52; stroke:none;" d="M335 182L334 237L344 240C346.368 247.87 362.74 251.156 369 257L359 258L359 259L365 269L359 271L360 276L357 276L347 288C334.5 285.282 332.082 289.941 329 275L328 275L327 320L328 320L328 312L338 315C340.178 321.378 349.562 322.768 354.715 326.39C369.237 336.598 379.207 350.423 393 361L394 354L399 357L402 353C407.675 356.573 410.172 355.474 416 353L416 356C419.06 355.041 419.862 354.203 420 351L426 348L428 330L432 329L426 319L418 319L420 329C411.275 327.406 404.296 331.68 404 341L399 342C397.752 334.644 392.126 337.925 387.299 334.977C384.492 333.263 381.618 328.802 380 326L386 326L377 322L371 332L372 328L368 321L364 313L366 311L366 310C356.903 302.81 370.314 291.234 377 288L379 283L376 281L386 280L378 267L384 267C382.918 257.569 368.012 251.694 360 249L360 248L365 248L365 247C356.118 241.325 346.505 235.82 336 234L336 199L335 182z"/>
<path style="fill:#78623b; stroke:none;" d="M358 183L357 208L372 209C368.888 204.85 364.012 201.008 362.326 195.975C360.592 190.797 365.084 185.295 358 183z"/>
<path style="fill:#6f6333; stroke:none;" d="M342 184L342 192L346 196C352.962 193.688 347.731 187.873 345 184L342 184z"/>
<path style="fill:#57492e; stroke:none;" d="M336 187L338 224C344.689 223.921 344.408 221.616 348 217L348 216L344 216L344 223C336.819 220.753 337.004 212.355 337 206L338 206C338.015 210.35 337.815 213.806 342 216C341.944 211.447 342.058 204.48 337 203L337 199C343.13 198.23 339.149 189.503 336 187z"/>
<path style="fill:#877166; stroke:none;" d="M189 198C191.601 207.64 199.256 201.529 205 198C207.376 201.263 209.747 200.798 211 197C208.035 195.083 208.603 191.054 205.682 189.376C200.801 186.572 193.249 195.981 189 198z"/>
<path style="fill:#63593e; stroke:none;" d="M351 188L352 201C358.266 199.167 356.857 189.491 351 188z"/>
<path style="fill:#cca36d; stroke:none;" d="M234 191L234 192L268 200C258.505 192.039 246.021 191.001 234 191z"/>
<path style="fill:#f3aa44; stroke:none;" d="M216 195L216 196L233 198L234 192L216 195z"/>
<path style="fill:#e37d0f; stroke:none;" d="M234 192L233 198C222.11 194.781 215.653 198.205 206 201L208 204C203.937 206.026 194.802 213.386 200 218L199 221L208 222C208.308 212.547 216.449 213.545 224 212L224 208L239 210L237 215L242 211L247 212L248 219L252 217L251 226L254 223L256 226L260 220L260 225C275.874 222.105 286.514 235.469 299 242L297 232L299 232L308.544 247.001L312 271L265 269L265 270L268 271L266 273L272 275C275.759 272.781 280.086 276.656 282 280L277 280L277 281L288 283L288 287L306 286L322 288L320 278C325.987 276.71 318.705 268.745 318.083 265C316.771 257.088 317.653 248.957 314.361 241.389C311.157 234.022 304.453 230.183 306 222L303 222C301.667 214.986 298.384 207.771 291 206L291 207C294.244 211.281 295.824 219.901 292 224L289 218L290 224L289 224L284 212L283 215C278.539 210.999 275.234 205.227 270.625 201.599C263.076 195.656 243.392 192.033 234 192z"/>
<path style="fill:#362d24; stroke:none;" d="M382 193C387.538 200.868 409.898 217.956 419 206L398 203.355L382 193z"/>
<path style="fill:#562612; stroke:none;" d="M150 195L151 202L164 211C163.311 214.781 162.505 217.726 166 220L159 226L159 227C167.106 226.647 184.048 224.54 190.362 219.146C198.077 212.554 185.773 198.826 179 197L182 200L184 212C178.09 210.298 174.395 205.016 174 199L155 201C154.696 197.171 153.795 195.827 150 195z"/>
<path style="fill:#5e4c36; stroke:none;" d="M341 197L344 210C351.705 207.443 346.789 198.641 341 197z"/>
<path style="fill:#847264; stroke:none;" d="M22 205L31 203C28.907 195.595 22.2247 198.243 22 205z"/>
<path style="fill:#d7680c; stroke:none;" d="M205 201L188.787 219.697L163 227L163 228L190 222L192 257L176 256C177.099 259.774 180.342 260.449 184 261L184 262L155 266.352L136 265L137 263C119.945 263.352 104.118 271.694 88 270.17C83.8119 269.774 72.6044 269.159 72 274L64 274L64 275L68 275L67 278L79 282.721L90.0008 281.005L132 282C138.29 278.388 151.932 281.626 159.004 282.697C174.846 285.095 189.614 280.194 205 285L204 280C209.302 281.91 217.599 285.114 222 280L223 280L224 280L250 286C250 283.146 251.686 284.33 254 285C258.836 277.54 280.096 284.978 288 285L288 283L277 281L277 280L282 280C280.803 276.539 275.192 271.405 272 275C269.524 274.218 266.059 273.772 268 271L265 270L265 269L299 270L299 269L210 260L210 259L252 259.188L289 264L297 248L301 249C300.219 234.866 272.449 222.044 260 225L260 220L256 226L254 223L251 226L252 217L248 219L247 212L242 211L237 215L239 210L224 208L224 212C215.887 212.966 208.116 212.237 208 222L199 221L200 218C196.297 212.583 203.906 207.045 208 204L205 201z"/>
<path style="fill:#ee972e; stroke:none;" d="M271 201C272.16 203.936 282.412 219.22 284 212L289 224L290 224L289 218L292 224C296.007 221.169 294.882 209.453 291.106 206.318C288.01 203.747 275.391 202.282 271 201z"/>
<path style="fill:#f29744; stroke:none;" d="M259 202L268 206C266.769 201.791 262.898 202.048 259 202z"/>
<path style="fill:#c5904e; stroke:none;" d="M275 203L275 204L301 211C295.881 201.756 283.812 204.636 275 203z"/>
<path style="fill:#8d7970; stroke:none;" d="M146 208L153 212C153.113 217.27 158.48 229.473 164 221L161 213C155.833 210.511 151.374 198.801 146 208z"/>
<path style="fill:#422e2f; stroke:none;" d="M355 205C356.959 214.257 364.205 210.432 371 210L371 209C366.007 209.041 359.145 211.442 358 205L355 205z"/>
<path style="fill:#302013; stroke:none;" d="M441 210L441 208C437.989 206.729 425.261 203.154 424.832 209.285C424.323 216.556 438.278 211.364 441 210z"/>
<path style="fill:#9c8d88; stroke:none;" d="M334 208L334 233L335 233L334 208z"/>
<path style="fill:#544822; stroke:none;" d="M371 211C376.377 211.536 385.63 217.135 388 210C383.457 208.918 374.008 206.87 371 211z"/>
<path style="fill:#c47d21; stroke:none;" d="M298 209L303 222L306 222C304.009 230.483 311.268 234.689 314.204 242.285C317.073 249.706 316.657 257.314 318.019 264.985C318.752 269.117 324.008 274.868 320 278L322 288L306 286C293.689 289.311 279.329 284.444 267 282.389C263.038 281.728 255.022 280.233 254 285C251.763 284.209 250 283.374 250 286L247 283C240.774 282.983 228.565 284.144 224 280L223 280L222 280C216.277 284.402 210.189 281.459 204 280L205 285L202 282L164 282.985L149 280.899L132 282L90.0008 281.001L79 282.453L67 278L68 275C55.6243 271.243 73.4372 255.063 77 250L65 256C63.9822 262.826 57.5728 267.058 60.5887 274.826C62.6324 280.089 70.4831 282.551 75.0394 285.085C81.1234 288.469 88.1879 295.215 90 302L86 302L86 303L100 304L99 309L97 306L96 306L96 317L106 317L115 316L115 315L112 315L114 306L123 305L123 308L127 306C136.851 308.993 155.262 302.109 162 310C167.61 307.807 172.465 308.336 178 306.817C199.931 300.797 216.041 295.863 237.995 306.189C242.377 308.25 244.091 312.576 248 315L247 312L302.999 314.005L319 316L319 320L320 320L320 312C324.716 308.41 324.899 297.095 326.155 291.424C330.744 270.705 318.978 249.555 311.499 231.001C308.251 222.94 305.679 213.963 298 209z"/>
<path style="fill:#6c5833; stroke:none;" d="M350 209C349.075 214.836 345.004 218.214 348 224L354 222C354.349 227.028 356.715 231.3 361 234L356 220C363.495 218.394 353.329 210.217 350 209z"/>
<path style="fill:#866c51; stroke:none;" d="M142 224L144 210C136.846 211.141 135.679 220.686 142 224z"/>
<path style="fill:#242834; stroke:none;" d="M369 227C376.788 239.013 401.76 217.72 407 211C391.862 214.013 386.48 228.331 369 227z"/>
<path style="fill:#b36f26; stroke:none;" d="M304 215L324 264L325 264C324.96 249.538 315.795 223.874 304 215z"/>
<path style="fill:#6a4c18; stroke:none;" d="M336 220L336 234L364 240L354 222L348 224L348 222L338 224L338 220L336 220z"/>
<path style="fill:#cc5209; stroke:none;" d="M216 221L211 224L211 229L218 229L214 234L213 231L198 240L198 241L200 242L200 243L197 255C204.012 256.603 222.684 262.462 226 253C240.821 252.99 256.14 260.224 271 257.629C276.856 256.606 284.989 257.76 285 250L280 252L280 248C277.771 247.466 275.054 246.899 273.25 245.361C270.833 243.301 272.489 240.873 271.333 238.417C269.863 235.291 258.09 226.815 257 232L255 230L251 232L249 227L248 227L245 230L246 226C240.722 227.711 241.786 232.31 241 237L240 237L237 233L241 224L216 221z"/>
<path style="fill:#f9a25b; stroke:none;" d="M156 229L156 230L160 230L156 235L156 236L160 241L156 242L157.028 254.397L166 256L192 257L190 222L156 229z"/>
<path style="fill:#3d280d; stroke:none;" d="M393 246L392 246C386.083 249.311 382.326 247.93 376 247C382.06 257.998 407.375 251.653 409 240C403.752 236.595 407.984 227.504 408 222C397.943 223.746 409.291 250.055 393 246z"/>
<path style="fill:#ee8a12; stroke:none;" d="M74 249L74 250L77 250C70.2482 256.771 63.1118 263.97 63 274L72 274C71.8692 270.337 83.2091 269.631 87 270C104.465 271.698 118.673 263 137 263L136 265L155 266.607L184 262L184 261L176 256C171.409 256 159.904 258.091 157.032 253.682C155.084 250.692 156.679 245.481 156 242L160 241L156 236L156 235L160 230C148.459 228.575 137.825 233.235 126.996 236.402C109.533 241.509 91.5105 244.542 74 249z"/>
<path style="fill:#443a21; stroke:none;" d="M361 230L364 240L339 233C341.845 237.279 346.449 237.536 351.001 239.089C360.074 242.185 384.681 256.034 392 245L379 246L379 242C368.568 241.97 367.857 236.438 361 230z"/>
<path style="fill:#eb9250; stroke:none;" d="M297 232L299 249L299 250C301.032 250.556 302.5 251.195 304.25 252.424C321.105 264.262 292.017 268.332 291 255L289 255L289 264L253 259.188L210 259L210 260L312 271C312.253 261.436 312.843 253.92 308.067 245.015C305.504 240.235 300.509 237.239 299 232L297 232z"/>
<path style="fill:#907e72; stroke:none;" d="M331 234C333.098 240.979 339.611 243.473 346 246L345 249C350.79 252.233 344.75 263.578 346 270L339 273L342 274L336 278L336 282L333 280C328.06 291.722 339.754 286.967 347 288L357 276L360 276L359 271L365 269C364.074 264.17 363.551 261.461 359 259L359 258L369 257L344 240L334 234L331 234z"/>
<path style="fill:#ad6825; stroke:none;" d="M122 236L122 237L130 236L122 236z"/>
<path style="fill:#5b433f; stroke:none;" d="M0 236L0 252L6 250L2 240L2 239L4 236L0 236z"/>
<path style="fill:#63473b; stroke:none;" d="M64 237L59 244L68 243L68 244C60.2201 244.895 61.1283 250.948 63 257C69.1008 255.423 73.0547 252.042 75 246L70 241L76 236L64 237z"/>
<path style="fill:#94531b; stroke:none;" d="M112 238L112 239L122 238L112 238z"/>
<path style="fill:#bc7227; stroke:none;" d="M99 242L99 243L114 240L99 242z"/>
<path style="fill:#4c4741; stroke:none;" d="M355 241L355 242L365 247L365 248L360 248L360 249C372.889 255.165 386.892 260.807 398.711 268.843C405.894 273.728 414.122 282.188 423 283L424 279L430 280C418.542 264.569 394.848 257.128 378 249.678C370.801 246.495 362.938 241.57 355 241z"/>
<path style="fill:#4e433d; stroke:none;" d="M489 241L486 261L487 261L491 242L498 242L489 241z"/>
<path style="fill:#abadb9; stroke:none;" d="M498 241L492 243L482.319 280.945L486.859 287.375L486.999 296.914L499 313L500 313L500 241L498 241z"/>
<path style="fill:#968e8b; stroke:none;" d="M491 242L488 256L489 256L492 243L498 243L491 242z"/>
<path style="fill:#9e9689; stroke:none;" d="M334 243L334 250L328 250L328 256L325 251L324 251L331 283L332 283L333 280L336 282L336 278L342 274L339 274L339 273L346 270C345.414 263.869 351.197 251.058 345 249L346 246L340 243C340 246.564 336.376 243.625 334 243z"/>
<path style="fill:#f5a46c; stroke:none;" d="M297 248C295.806 251.982 290.179 254.324 291.337 258.867C292.959 265.227 318.392 267.046 308.11 254.975C307.044 253.723 305.596 252.754 304.245 251.84C301.96 250.294 299.494 249.16 297 248z"/>
<path style="fill:#765b46; stroke:none;" d="M378 258L384 267L378 267L386 280L376 281L379 283L377 288C369.297 290.292 362.292 297.51 362.539 305.985C362.623 308.861 364.844 309.996 364 313L368 321L372 328L371 332C375.169 329.745 376.366 326.555 377 322L386 326L380 326L399 342L404 341C404.653 332.006 411.673 328.038 420 329L418 319L425 321L416 308C420.052 308.537 422.246 308.331 423 304L436 299L432 288L451 296L451 295C441.766 287.696 435.615 281.774 424 279L423 283L378 258z"/>
<path style="fill:#a55a17; stroke:none;" d="M325 264C325 278.14 330.452 299.981 320 312L320 320L319 320L319 316L304 314L318.397 326.001L320 340L321 368L322 368C324.824 355.683 323.681 344.372 325.13 332C326.663 318.902 328.999 305.494 329 292C329.001 283.733 329.833 271.034 325 264z"/>
<path style="fill:#4a4947; stroke:none;" d="M485 264C481.254 269.148 479.287 276.771 481 283L482 283L485 264z"/>
<path style="fill:#5f493e; stroke:none;" d="M17 266L17 271L21 266L17 266z"/>
<path style="fill:#9a6521; stroke:none;" d="M59 267L59 275L60 275L59 267z"/>
<path style="fill:#503428; stroke:none;" d="M24 274L19 273L20 285L16 285L16 286L28 286L28 290L45 285L48 293L43 296L64 289L64 288L60 288C60.6157 283.589 60.4291 280.739 56 279L58 290L50 291L52 284L40 284L41 280C33.8894 281.049 26.9483 284.135 30 274L24 274z"/>
<path style="fill:#7d6f6e; stroke:none;" d="M34 300L40 296L40 295L18 292L18 293C24.3303 293 28.782 292.727 33 298C29.9461 298.654 30.0642 300.007 30 303L37 303L37 309C49.6169 305.967 60.8756 291.866 72 285L57 293.121L34 300z"/>
<path style="fill:#abbbbb; stroke:none;" d="M0 370L14.3611 348L35.8349 319.745L60.1844 296.576L75 284C66.7923 285.633 60.7513 292.774 54.0401 297.352C38.7247 307.799 28.2719 322.893 16.8295 337C8.29008 347.528 0 355.923 0 370z"/>
<path style="fill:#5c443a; stroke:none;" d="M28 290L28 286C23.1895 286 5.06224 284.2 12 293L2 297L3 301C8.91672 299.504 12.4995 294.967 18 292.893C24.6775 290.374 33.5134 292.849 40 295L40 296L34 300L56 295L56 294L43 296L48 293L45 285L28 290z"/>
<path style="fill:#b89656; stroke:none;" d="M75 285L90 299C87.1317 293.565 80.669 287.407 75 285z"/>
<path style="fill:#d1d6d0; stroke:none;" d="M32 326L56 322L56 321L50 321L50 320L78 296C78.1494 302.563 72.5388 306.564 67 309L67 310L80 308C80 302.381 82.8588 290.761 76.8704 287.492C72.8109 285.275 67.2146 290.938 64.0039 293.079C53.6008 300.015 36.1707 314.055 32 326z"/>
<path style="fill:#797e7a; stroke:none;" d="M487 286L487 291L488 291L487 286z"/>
<path style="fill:#8d7f74; stroke:none;" d="M432 288L436 299L423 304C421.778 307.781 419.794 308.058 416 308L432 329L428 330L426 348L420 351L416 356L416 353C409.734 354.689 408.221 355.783 402 353L399 357C398.346 353.946 396.993 354.064 394 354L393 361L390 359C395.357 369.806 401.208 373.222 411 379L410 374C415.757 372.766 411.225 365.125 411 361L412 361C413.278 364.539 414.176 366.339 418 367L418 363L422 363L433 345L436 345L440 349L436 338L444 337L444 341L446 341L444 330C449.273 332.677 457.593 342.242 458 330L467 341L472 339L476 344L476 338L480 338C480.815 343.984 483.371 345.942 489 344L496 357C493.274 345.521 485.794 336.504 479.41 326.925C477.128 323.501 471.202 319.238 476 316L476 315L469 316C464.367 302.373 445.24 291.354 432 288z"/>
<path style="fill:#918c92; stroke:none;" d="M6 302L11 302L4 310L0 309L0 332L17 332L8 347L27 323L23 323L20 320C22.7136 314.591 29.1073 311.535 35 311L28 316L31 320L42 309L42 308L37 309L37 303L30 303L33 298C26.9847 286.892 11.6001 294.678 6 302z"/>
<path style="fill:#cbbda0; stroke:none;" d="M81 293L80 303C84.8816 299.949 85.5031 296.815 81 293z"/>
<path style="fill:#e9eae5; stroke:none;" d="M50 320L50 321C52.6268 320.991 55.4857 321.211 57.956 320.142C61.8553 318.454 62.3879 314.523 65.1327 311.753C69.9849 306.856 79.5856 304.581 78 296L50 320z"/>
<path style="fill:#de9e3c; stroke:none;" d="M85 296L80 308L81 308L81 304L90 302L85 296z"/>
<path style="fill:#ec9939; stroke:none;" d="M203 299L203 301C207.246 301.308 220.17 312.538 222 304L223 304L223 306L224 306L227 302L203 299z"/>
<path style="fill:#82777b; stroke:none;" d="M0 301C0.0149704 305.226 -0.284403 308.278 4 310L11 302L7 300L0 301z"/>
<path style="fill:#f08e1f; stroke:none;" d="M105 315L106 318L96 318L96 320L100 320L100 321L95 321L80 326L71 325L70 329L64 328L64 331L48 331L48 332C54.9797 333.595 63.3426 333.359 64 342C73.6205 344.173 82.1619 350.354 91.3248 353.492C108.352 359.322 126.105 364.22 144 366L144 365L120 352C134.785 351.959 141.967 340.383 156 349L155 339L158 340L162 328L163 328L163 336L170 329L172 329L174 332L176 315L177 326L178 326C178.653 324.04 179 323.446 179 326L180 326L178 317L185 310L185 314L190 314L191 331L192 331L193 320L196 322L200 320L200 324L202 324L202 315L203 315C207.78 323.732 207 331.046 207 341L208 341L211 312L215 317L214 308L217 312L219 311L221 318L224 318L224 311L226 310L245 314C242.412 304.296 234.744 308.272 229 303L228 303L228 307L223 304L222 304L222 307C212.985 306.9 207.06 299.388 198.004 300.189C185.958 301.254 175.459 309.967 164 312.762C146.744 316.97 122.625 316.379 105 315z"/>
<path style="fill:#423d41; stroke:none;" d="M489 300L492 305L489 300z"/>
<path style="fill:#e28a0f; stroke:none;" d="M81 304C79.5271 309.633 74.2201 310.836 69 312C64.6108 328.51 44.0805 320.641 33.6034 329.027C30.542 331.477 33.0452 335.481 34.125 338.17C38.6979 349.557 45.1273 348.546 56 349L56 341L68 343L68 342L64 342C63.7111 333.178 55.3551 333.081 48 332L48 331L64 331L64 328L70 329L71 325L80 326C84.547 322.697 93.0686 327.603 95 321L100 321L100 320L96 320L96 318L106 318L106 317L96 317L96 306L97 306L99 309L100 304L81 304z"/>
<path style="fill:#ffc06b; stroke:none;" d="M224 302L224 307L228 307L228 302L224 302z"/>
<path style="fill:#ffa946; stroke:none;" d="M230 304L230 306L235 306L230 304z"/>
<path style="fill:#c55a08; stroke:none;" d="M114 306L112 315C133.813 315 154.136 313.887 175 309L175 307L162 310C157.739 302.297 135.454 308.036 127 306L123 308L123 305L114 306z"/>
<path style="fill:#e5bc6c; stroke:none;" d="M64 320L65 320L69 312L79 310L79 308C69.9236 308.193 65.2008 310.775 64 320z"/>
<path style="fill:#e78311; stroke:none;" d="M214 308L215 320L212 320L208 341L207 341C207 331.478 209.101 322.71 203 315L202 315L202 324L200 324L200 320L196 322L193 320L198 352L199 352L198 332L199 332L203 349L205 349L205 344L207 346L208 346C208.746 340.46 209.68 334.799 214 331L212 335L220 339L225 335L217 353L222 351L219 357L225 358L226 354L227 354L230 357L229 353L232 356L233 356L233 353L234 353L236 360L241 360L242 360L242 356L249 360C251.938 366.486 264.405 367.237 267 360L268 360L266 382L262 382L262 383C270.357 382.413 273.192 373.573 272.856 366C272.158 350.27 264.663 333.854 256 321L255 321L258 327L259 332L244 318L246 313L226 310L224 311L224 318L221 318L219 311L217 312L214 308z"/>
<path style="fill:#da6e0c; stroke:none;" d="M183 310L182 326L178 326L177 326L176 315C171.251 319.8 174.621 325.992 174 332L172 329L170 329L163 336L163 328L162 328L158 340L155 339C155.277 352.432 162.715 353.641 173.826 357.508C177.895 358.925 180.798 362.565 185.004 364.049C191.145 366.214 197.897 366.056 204 368.105C211.937 370.77 218.503 374.751 227 376L227 381L240 382L240 388L266 382L268 360L267 360C263.054 366.624 253.079 366.113 249 360L242 356L242 360L241 360L240 358L236 360L234 353L233 353L233 356L232 356L229 353L230 357L227 354L226 354L225 358L219 357L222 351L217 353L225 335L220 339L219 336L217 338L216 338L212 335L214 331C209.084 333.862 208.434 340.682 208 346L207 346L205 344L205 349L203 349L199 332L198 332L199 352L198 352C197.982 345.418 197.858 329.692 192 326L192 331L191 331L190 314L185 314L185 310L183 310z"/>
<path style="fill:#837779; stroke:none;" d="M20 320L23 323C26.956 322.695 28.6157 321.768 30 318L28 318L28 316L35 311C29.1032 311.275 21.8305 313.945 20 320z"/>
<path style="fill:#ddceaf; stroke:none;" d="M58 320L58 321C64.225 319.981 63.6349 316.266 67 312L58 320z"/>
<path style="fill:#ffab3a; stroke:none;" d="M211 312L215 320L211 312z"/>
<path style="fill:#ef9932; stroke:none;" d="M247 312L248 315L244 318L259 332L258 327L250 314L288 314C277.511 309.599 258.495 312 247 312z"/>
<path style="fill:#beb6ab; stroke:none;" d="M328 312L328 320L343 321L343 320L338 315L328 312z"/>
<path style="fill:#fdb481; stroke:none;" d="M250 314C262.594 335.24 283.506 361.504 264.064 384.759C260.718 388.762 259.075 392.023 254 394L256 398L242 397C249.228 409.366 266.373 417 280 417C280.258 412.043 281.443 408.37 286 406L286 405L278 406C284.014 399.851 297.526 401.905 300 394C283.07 386.117 306.517 373.82 310.84 366.544C314.611 360.195 311.316 351.563 304 351L302 315L250 314z"/>
<path style="fill:#df9540; stroke:none;" d="M288 314L288 315C292.745 315 299.147 313.6 302 318L303 318L304 314L288 314z"/>
<path style="fill:#524c4e; stroke:none;" d="M472 314L472 315L476 315L472 314z"/>
<path style="fill:#e58612; stroke:none;" d="M303 316C303.749 325.473 308.572 331.664 310.686 340.104C311.671 344.035 309.879 347.975 310.168 351.91C310.821 360.796 313.632 366.694 304 372C303.302 376.154 290.261 391.913 300 394C297.306 399.185 292.682 398.809 288.584 402.132C284.293 405.612 284.134 413.919 278.857 416.258C273.019 418.844 266.856 415.284 261.83 412.705C251.022 407.16 242.518 400.001 230 400L230 401C235.831 403.635 239.023 406.513 240 413L244 413L236 418L236 419L254 423L255 426C259.328 425.675 261.278 426.587 262 431L289 439L288 430L298 413L301 413C301.546 409.404 304.39 406.628 304.644 403.075C304.877 399.803 302.743 397.354 304.336 394.05C309.156 384.052 314 380.297 314 368L315 368L315 371C321.147 360.937 318.298 345.871 317.13 335C316.714 331.136 318.553 326.529 316.357 323.054C313.62 318.722 307.831 316.522 303 316z"/>
<path style="fill:#9498a3; stroke:none;" d="M473 316L487.961 339.884L499 368C506.505 350.115 493.399 319.099 473 316z"/>
<path style="fill:#ffa745; stroke:none;" d="M178 317L180 326L182 326C181.901 321.9 181.558 319.312 178 317z"/>
<path style="fill:#9a8c7f; stroke:none;" d="M328 320L326 354L342 362L349 360L348 363C352.383 364.511 358.939 365.424 363 363C366.018 368.476 379.831 384.859 385 372L388 373L382 357L381 357L378 363L379 360L376 361L379 368L370 364C361.486 364.108 357.428 350.023 352.528 344.389C350.097 341.594 347.008 339.552 345.528 336C344.067 332.493 346.869 327.029 343 325L343 324C356.047 327.767 368.831 340.53 378.541 349.545C383.05 353.731 384.289 360.87 391 362C383.966 340.809 350.557 315.875 328 320z"/>
<path style="fill:#d9962b; stroke:none;" d="M45 357L56 357L56 355L48 355C46.8199 347.58 40.3903 348.89 36.6026 343.853C35.3292 342.159 35.1673 340.101 34.4745 338.17C28.1484 320.537 56.2687 328.996 64 320C49.6281 321.856 21.5601 322.157 31.8573 343.571C34.6745 349.43 42.0267 351.146 45 357z"/>
<path style="fill:#877e75; stroke:none;" d="M343 324L343 325C345.293 328.657 343.772 332.191 345.198 336.015C346.631 339.857 349.844 342.254 352.392 345.285C357.098 350.885 361.514 364.738 370 364L379 368C377.714 364.611 376.556 362.953 379 360L378 363C385.865 360.79 378.062 351.696 375.324 347.981C368.433 338.632 354.911 325.826 343 324z"/>
<path style="fill:#c97924; stroke:none;" d="M318 325L317.913 360L311 400L313 400L321.168 361L320 345L318 325z"/>
<path style="fill:#e8d3a8; stroke:none;" d="M27 339L29 338L29 344L30 344L32 326C25.5298 327.999 26.8887 333.397 27 339z"/>
<path style="fill:#9c8f87; stroke:none;" d="M444 330L446 341L444 341L444 337L436 338L440 349L436 345L433 345L430.157 354.787L422 363L418 363L418 367L412 361L411 361C411.234 365.576 414.467 371.068 410 374L411 379L400 374L404 383L404 381L412 386L417 380L415 372L416 372L419 376L424 374C418.461 359.395 431.772 361.284 441 360L440 356L451 358L450 338L464 349L462 332L458 330C457.084 341.855 449.334 331.636 444 330z"/>
<path style="fill:#6d6364; stroke:none;" d="M0 332L0 341L11 343L17 332L0 332z"/>
<path style="fill:#eca243; stroke:none;" d="M306 331L304 351L310 352C311.156 342.855 310.306 338.921 306 331z"/>
<path style="fill:#c6cbc5; stroke:none;" d="M25 332C16.5664 342.932 4.78985 357.78 0.563272 371C-1.23772 376.633 0 384.124 0 390C5.81923 386.635 3.81691 380.537 6.26312 375.17C12.2908 361.944 26.87 346.54 27 332L25 332z"/>
<path style="fill:#beb5ae; stroke:none;" d="M460 333L464 349L450 338L457.047 362L458 375L461 373L462 382L459 382L459 387L451 388C451.007 397.859 455.708 419.196 441.714 422.892C436.18 424.354 429.946 421.584 424 423L420 427L421 423L418 422C422.405 413.757 423.122 405.81 422 397L417 402L414 400C410.047 406.281 413.636 409.278 414 416L410 416C410 435.344 403.768 449.246 395.537 466.421C392.487 472.784 391.037 480.206 384 483C379.777 473.84 371.859 467.905 364.615 461.259C354.51 451.989 345.944 440.165 331 440C331.924 446.014 336.481 450.003 340.749 454.039C349.489 462.304 360.445 474.996 372 479C368.617 486.531 358.06 490.172 356 480L355 480C353.149 483.015 350.582 484.06 347.09 482.542C337.369 478.318 333.461 470.923 322 470L318 491L318 500L312 498C312.108 503.237 314.553 509.911 313.089 514.985C311.263 521.31 303.92 526.082 301.16 532.174C297.743 539.714 297.364 546.648 290 552L290 553C313.723 549.999 333.395 542.141 352.999 527.848C365.662 518.615 375.128 504.389 387.594 495.708C390.858 493.434 397.031 496.397 400.95 495.828C408.868 494.677 415.784 488.266 424 488L424 485L440 477L440 472L446 472L446 469L450 469L457 442L462 444C462 431.539 467.816 418.689 468.972 405.972C469.931 395.421 466.025 384.807 466 374C465.99 369.518 459.433 352.816 465 352L472 349L463 333L460 333z"/>
<path style="fill:#ccb27f; stroke:none;" d="M30 336L30 344L31 344L30 336z"/>
<path style="fill:#eaeae8; stroke:none;" d="M28 338C15.9648 350.391 9.15776 368.094 4.19676 383.996C3.19253 387.215 0.656798 389.719 0.14429 393.09C-2.03005 407.388 0 423.526 0 438C4.87378 434.557 4.25162 420.891 5 415L8 416L8 412L11 412L9 419L10 425L11 425C13.654 419.701 13.2008 412.671 19 410L22 402L26 403L36 398C39.1843 391.623 69.8513 367.252 47 366L32 344L29 344L28 338z"/>
<path style="fill:#a3a5a0; stroke:none;" d="M476 338L476 344L472 339L467 342L473 344C475.328 348.598 477.871 356.298 483 358L487 370L488 370L482 351C485.784 355.202 488.056 360.074 494 361L489 344C483.57 345.079 481.31 343.551 480 338L476 338z"/>
<path style="fill:#4d4c54; stroke:none;" d="M499 338L499 342L500 342L499 338z"/>
<path style="fill:#997843; stroke:none;" d="M325 339L324 361L328 361L329 354L325 339z"/>
<path style="fill:#55392e; stroke:none;" d="M0 348L7 346L9 342C2.64493 338.997 0.0785066 341.413 0 348z"/>
<path style="fill:#654c47; stroke:none;" d="M8 341L7 346L0 350L7 350L8 341z"/>
<path style="fill:#dd7208; stroke:none;" d="M56 341L56 349L46 350L46 351C52.6645 354.469 64.7322 357.128 72 355C75.3509 360.829 82.2401 359.938 88 361.389C99.6154 364.315 110.582 371.225 122 374L139 374L138 370C146.838 371.123 157.63 378.718 166 373C156.996 366.645 142.078 359.507 131 359L131 360L144 365C113.96 368.793 85.0096 345.265 56 341z"/>
<path style="fill:#997a4b; stroke:none;" d="M32 344L47 366L62 373L56 387L64 400C78.3349 405.675 65.1001 420.23 74 426C72.0318 419.163 75.1013 414.369 82.9105 416.313C100.256 420.631 116.247 431.245 133.17 437.162C143.818 440.885 160.144 442.402 168 451L169 451L169 448C172.956 448.305 174.616 449.232 176 453L203 461L203 466C213.669 461.912 214.877 467.468 223.465 471.468C227.061 473.142 229.73 471.19 232 475C238.11 475.267 251.874 478.793 256 483L259 482L270 487L287 492L285 482L288 482L288 481L280 479L280 474C270.488 472.669 265.737 461.681 255 464C250.06 455.889 233.705 454.18 225 454L227 450L211 443.821L198 436L198 432C191.05 432.913 189.123 428.487 186 423L184 423L185 430C177.787 431.14 169.669 427.545 165 422C156.483 425.293 147.481 419.137 139.715 416.549C135.955 415.296 131.84 416.278 128 415.049C116.404 411.34 102.246 404.167 90 405C86.3177 397.236 70.0344 394.563 62 393L60 384L82 384L82 387C97.0639 389.551 115.745 399.051 131 397L135 402L134 396L146 407L155 406C154.936 403.007 155.054 401.654 152 401L157 396L157 407L159 405L160 405L166 407L169 410L170 417C177.135 416.686 185.935 419.878 191 425C195.621 424.749 205.865 426.249 209.612 428.947C211.589 430.371 211.615 433.235 214.183 433.972C221.443 436.057 228.567 429.712 231 440L252 446L251 449C256.694 449.165 262.233 450.706 265 456C269.394 455.349 273.482 454.878 276 459L280 458L287 459L283 453L287 454C288.397 440.699 281.641 440.626 271.083 437.694C268.999 437.116 264.619 434.77 266 433L266 432L239 426L239 422C234.888 421.869 231.807 419.512 227.914 419.188C223.981 418.859 220.981 421.801 217.043 420.083C213.906 418.713 213.127 415.66 210.701 413.559C204.381 408.083 195.195 405.023 187 405C184.994 392.657 162.727 391.297 152.999 388.353C145.102 385.962 135.569 385.433 128.09 382.402C118.825 378.648 110.378 372.397 100.714 369.495C97.3138 368.475 93.5292 369.713 90.2091 368.412C81.1977 364.882 69.7126 357.613 59.9606 356.267C55.2746 355.62 49.8042 356.999 45 357L32 344z"/>
<path style="fill:#e89352; stroke:none;" d="M120 352C125.331 359.501 149.101 366.244 158 368L148 361L148 360C158.93 359.607 170.977 358.792 180 366L176 365C176.832 375.181 187.103 368.94 195 369L167.054 357.66L147.961 344.355L120 352z"/>
<path style="fill:#aba49c; stroke:none;" d="M450 344L451 358L440 356L441 360C432.141 360.146 416.752 360.056 424 374C421.087 373.5 419.683 372.877 419 376L416 372L415 372L417 380L412 386L404 381L402 382L408 409C400.267 405.663 389.792 399.778 386 392C391.826 388.436 390.717 377.809 389 372L385 372C377.857 383.643 367.026 368.566 363 363L348 363L349 361L349 360L344 361L379 392C359.048 389.536 348.311 372.323 331 365C333.068 372.603 342.004 377.938 347.961 382.545C365.917 396.43 387.812 407.465 409 415L409 411L414 414L414 400L417 402L422 397C422.594 405.959 421.66 413.364 418 422L421 423L420 427C422.974 426.494 423.856 426.039 424 423C429.905 421.904 437.281 424.903 442.571 423.092C456.004 418.494 451.028 398.054 451 388L459 387L459 382L462 382L461 373L458 375C455.678 364.32 457.052 353.622 450 344z"/>
<path style="fill:#e4e9ec; stroke:none;" d="M472 344L472 349L465 352C459.967 352.633 463.726 364.658 465 368.412C466.814 373.758 465.591 379.459 466.134 385C467.722 401.199 467 415.615 467 432L470 432L466.304 459L456 491C450.919 492.645 449.877 498.561 447.576 502.985C442.131 513.452 428.315 523.143 427 535C422.823 536.352 419.322 539.469 420 544C414.922 544.692 411.887 547.263 410 552C400.922 552.124 391.963 562.493 384.83 567.41C369.17 578.205 351.301 586.016 335.042 595.799C329.345 599.228 327.431 605.453 321 608L321 609L349 603L333 612L333 613C353.92 610.917 373.09 596.991 390.001 586.133C405.226 576.356 423.075 564.582 435.935 551.812C479.314 508.737 497.725 449.864 493 390L494 390L499 407L500 407C500 392.517 504.13 371.228 495 359L494 359C489.032 361.686 485.577 353.798 482 351L488 370L487 370L483 358L472 344z"/>
<path style="fill:#c4c3c1; stroke:none;" d="M376 348C379.426 360.166 400.074 378.994 386 392C388.322 399.912 400.457 406.78 408 409C407.987 389.615 400.135 372.698 386.904 359.857C382.924 355.994 381.564 349.78 376 348z"/>
<path style="fill:#473022; stroke:none;" d="M0 350L0 357L1 357L5 349L0 350z"/>
<path style="fill:#817d7c; stroke:none;" d="M5 350L0 359C2.88557 356.641 5.82994 353.908 5 350z"/>
<path style="fill:#c0c8ca; stroke:none;" d="M491 352L493 360L496 360L491 352z"/>
<path style="fill:#bc7324; stroke:none;" d="M48 353L48 355C62.2462 355.118 76.6764 363.147 89.375 368.412C92.6345 369.764 96.4557 368.511 99.8302 369.495C109.79 372.4 118.427 379.323 128.09 382.755C135.008 385.212 142.831 384.743 150 387C146.489 381.522 134.101 379.661 128.039 377.671C115.608 373.59 103.715 366.342 91 362.053C84.1066 359.728 77.3617 360.69 72 355L48 353z"/>
<path style="fill:#e0712a; stroke:none;" d="M163 354C166.347 359.632 171.979 359.983 178 360L178 359L163 354z"/>
<path style="fill:#7b8354; stroke:none;" d="M328 355L328 361L324 361L324 362C344.625 367.121 356.209 390.32 379 392C377.246 387.115 370.745 383.78 366.729 380.645C355.771 372.09 342.701 355.683 328 355z"/>
<path style="fill:#e19267; stroke:none;" d="M148 360L148 361L216 389.297L256 409L242 397L256 398L254 394L261 391L261 390C253.326 390.97 244.426 391.595 237.075 388.419C232.655 386.51 229.293 381.895 225.251 379.22C218.561 374.794 207.853 371.286 200 369.804C191.437 368.188 177.721 374.085 176 365L180 366C172.871 357.914 157.8 358.964 148 360z"/>
<path style="fill:#e0dfdd; stroke:none;" d="M323 362C323 368.618 319.722 381.782 322.603 387.57C325.558 393.506 342.167 396.613 348 396L357 408C343.493 411.086 336.185 403.033 324 399L323 416C331.083 419.941 332.995 427.715 333 436L329 440C349.653 440.071 373.294 466.942 384 483C391.442 481.187 392.973 472.715 395.949 466.421C404.361 448.632 410 434.964 410 415C389.137 407.581 367.588 396.795 349.83 383.254C342.515 377.675 331.888 362.624 323 362z"/>
<path style="fill:#c78555; stroke:none;" d="M320 363C315.835 374.118 316.45 386.528 312.634 397.83C307.863 411.961 296.657 426.971 296 442L297 442L304 429L305 433L307 432C310.756 448.343 299 463.791 299 480L304 480L308.896 460L312 432L308 427L305 430L312 404L313 404C313 407.501 311.308 419.385 315 420L313 448L314 448C320.753 433.754 319 421.564 319 406L318 406L314 416L318 376L319 376L319 383L320 383L323 365L322 365L322 368L321 368L320 363z"/>
<path style="fill:#db7b3f; stroke:none;" d="M189 365L204.91 371.093L227 380L227 376L189 365z"/>
<path style="fill:#c76208; stroke:none;" d="M157 368L157 369L166 373C156.3 377.668 147.909 370.783 138 370L139 374C136.188 374 124.382 371.018 123.161 372.568C119.953 376.643 136.453 380.479 138.576 381.64C147.897 386.739 158.578 390.52 169 393.265C176.244 395.174 184.576 396.786 187 405C202.576 405.139 208.821 419.246 222 422L220 416L240 420L240 419L236 419L236 418C239.964 417.699 242.091 416.526 244 413L240 413C239.421 406.425 236.391 402.823 230 401L230 400L237 400L237 399C209.905 391.198 185.669 371.861 157 368z"/>
<path style="fill:#d0750a; stroke:none;" d="M314 368C313.999 380.32 307.868 383.998 303.898 394.05C302.583 397.382 304.636 399.855 304.312 403.075C303.953 406.633 301.285 409.24 301 413L298 413L288 430L289 440C295.32 438.906 296.791 430.103 299.525 425.015C302.948 418.645 307.93 413.079 310.061 405.961C311.626 400.734 310.506 395.248 312.015 390C313.932 383.332 317.854 374.444 314 368z"/>
<path style="fill:#b5ab9f; stroke:none;" d="M56 369C55.8135 380.914 41.659 387.137 36.1574 396.079C30.102 405.921 35.4978 413.633 32.5417 423C31.6331 425.879 27.6073 433.358 25 429L24 429C23.0692 440.794 22.1305 453.57 26 465L27 465L30 452C47.5406 451.792 31.132 425.113 38 416C35.5574 405.366 43.3713 391.729 55 392C51.8092 383.595 62.274 375.732 56 369z"/>
<path style="fill:#cca971; stroke:none;" d="M58 371C58.614 377.431 47.7327 388.695 58 391L56 387L62 373L58 371z"/>
<path style="fill:#f2993d; stroke:none;" d="M303 373C296.887 379.318 291.265 383.899 296 393L297 393L303 373z"/>
<path style="fill:#b78e70; stroke:none;" d="M318 376L316 396L319 395L319 406L320 406L320 396L323 397L324 389L322 380L321 380L320 383L319 383L318 376z"/>
<path style="fill:#e08451; stroke:none;" d="M227 381L227 382C237.66 386.741 257.137 400.384 265 383L240 388L240 382L227 381z"/>
<path style="fill:#c27115; stroke:none;" d="M64 382L64 390L88 393C81.1025 385.298 73.4752 384.507 64 382z"/>
<path style="fill:#b98232; stroke:none;" d="M63 383L60 384L62 393L76 396L75 392L64 390L63 383z"/>
<path style="fill:#994f10; stroke:none;" d="M73 383L73 384L88 392L88 393L84 394L84 395C90.4919 395.53 94.2119 398.867 100.039 400.78C119.988 407.33 142.81 419.986 164 420L164 416L154.957 409.89L127.039 402.447L109 397C106.568 389.673 88.9337 387.69 82 387L82 384L73 383z"/>
<path style="fill:#ae9e8e; stroke:none;" d="M56 390C45.4052 394.564 33.896 401.985 38 416C29.1482 423.737 48.6691 451.392 30 452C26.9822 464.157 26.0711 487.051 38 496L36 472C42.0126 470.98 46.4748 458.782 47 453L54 452C57.4683 437.332 75.1935 445.179 85 447C82.6416 438.017 74.4516 431.351 71.6026 422.91C68.7443 414.443 77.3956 403.342 64 400L56 390z"/>
<path style="fill:#b7a58f; stroke:none;" d="M323 397L320 396C319.993 406.224 320.259 416.842 319.942 427C319.754 433.017 316.892 436.342 322 441L324 399L334 403L334 402L329 398L327 399L325 392L335 395C330.043 389.994 323.286 388.279 323 397z"/>
<path style="fill:#d3cac5; stroke:none;" d="M493 390C493.889 410.709 495.54 432.62 490.391 453C468.837 538.315 389.594 606.391 304 623L318 617L318 616L314 616L314 612L307 612L307 609L318 604L324 603L324 601L317 599L320 594L314 592L320 584L316 584L316 576L320 576C320.155 571.263 321.183 569.005 326 568L326 560L336 552L338 544L337 541C342.118 541 350.242 542.037 352 536L368 532L366 529L366 524C369.987 524.003 373.668 523.402 376 527L408 523L408 526C411.935 525.953 414.657 526.046 416 522L424 522L432 511L449 502L456 491L466.304 459.999L470 432L467 432L468 409L467 409L462 444L457 442L450 469L446 469L446 472L440 472L440 477L424 485L424 488C415.604 488.099 408.863 494.051 400.91 495.611C396.822 496.413 391.215 492.984 387.594 495.071C378.489 500.319 371.485 512.645 363.09 519.391C341.662 536.611 311.22 555.676 283 558C282.829 563.256 281.428 565.586 276 566L278 568C268.948 578.258 266.908 588.499 252 592C248.601 601.458 227.23 605.401 218 606C215.125 615.314 194.276 612.15 187 612L187 613L282 616L282 618L243 624.961L191 623.83L160 619L160 621L190 626.572L204 630L197 630L197 631C243.697 631.129 289.681 635.44 334.83 619.179C348.499 614.256 360.226 606.294 373.17 600.096C380.39 596.638 387.753 594.888 394.576 590.367C408.13 581.383 419.875 569.51 433 560L432 557C437.938 557.144 441.655 550.225 443 545C451.348 544.338 455.698 532.861 462 528L443.459 553.739L432 570C421.568 570.803 412.982 582.276 404.91 587.995C400.321 591.247 395.485 591.774 395 598C390.572 599.216 384.819 602.275 384 607C376.162 607.786 356.327 616.456 353 624L351 623L344 630C360.423 626.628 374.525 616.854 389 608.877C394.755 605.705 402.239 604.272 407.545 600.722C417.128 594.312 426.64 579.957 438 577C438 574.524 444.879 566.215 447 564C453.696 557.009 462.276 549.375 466.833 541C469.605 535.906 473.379 524.766 479 523C480.365 509.394 491.205 496.888 495.356 483.961C501.136 465.959 500 447.835 500 429C500 415.374 500.599 402.023 493 390z"/>
<path style="fill:#b6bfae; stroke:none;" d="M325 392L327 399L329 398L332 404C340.668 407.531 347.788 410.92 357 408L348 396L334 393L325 392z"/>
<path style="fill:#a06e2f; stroke:none;" d="M75 393L74 397C80.366 399.159 85.9328 399.065 90 405C102.216 404.782 115.444 411.348 127 415.049C130.881 416.292 135.018 415.31 138.83 416.549C146.068 418.9 157.431 426.511 165 422L171 427L172 417L169 410L166 407L160 405L159 405L157 407L157 396L152 401L155 406L146 407C144.465 401.181 139.272 398.264 134 396L135 402L131 397L106 393L106 394L109 397L126.09 402.447L153.985 409.89L164 416L164 420L138 413.09L100.039 400.455L75 393z"/>
<path style="fill:#b87026; stroke:none;" d="M314 416C319.568 412.07 319 401.194 319 395C311.66 397.922 314 409.474 314 416z"/>
<path style="fill:#d4dcdf; stroke:none;" d="M26 403L22 402L19 410C13.1273 411.66 12.8745 419.792 11 425L10 425L9 419L11 412L8 412L8 416L5 415C1.69462 432.544 -4.23388 454.547 2 472L11 458L14 461L14 456L18 456L21 452C21 444.99 18.5859 427.663 29 428L33 425L35 398L26 403z"/>
<path style="fill:#f3a054; stroke:none;" d="M278 406L286 405L286 406C281.158 407.515 280.247 411.257 280 416L282 416C283.284 410.087 286.697 402.314 293 401C288.183 397.663 280.943 401.535 278 406z"/>
<path style="fill:#c69374; stroke:none;" d="M312 404L305 430L308 427L309 432L313 432L315 420L312 404z"/>
<path style="fill:#bbbab6; stroke:none;" d="M373 409L374 413L371 413L371 414C377.914 419.628 386.819 428.384 396 429C392.145 421.105 380.947 412.583 373 409z"/>
<path style="fill:#828375; stroke:none;" d="M409 411C409.577 414.474 410.526 415.423 414 416L411 411L409 411z"/>
<path style="fill:#b97720; stroke:none;" d="M105 438L102 435L103 431L112 433L112 432L95 427L96 422C91.3746 420.996 88.2151 417.447 83.8302 416.313C78.8405 415.024 66.69 419.068 74.5733 424.988C83.3075 431.546 94.5529 435.545 105 438z"/>
<path style="fill:#924d16; stroke:none;" d="M171 428L185 430L184 423L186 423L197 431L201 430C198.502 437.041 206.606 435.722 210.871 438.012C222.021 443.998 236.599 450.108 250 451C246.623 443.243 238.847 440.956 231 440C229.374 428.092 220.818 436.912 213.661 433.637C211.472 432.636 211.822 429.573 209.672 428.342C205.461 425.93 195.777 424.514 191 425C188.755 421.666 176.438 414.288 172.603 417.694C170.119 419.899 171 425.039 171 428z"/>
<path style="fill:#ba6f1e; stroke:none;" d="M220 416C222.45 420.334 233.916 421.94 239 422L239 426C249.263 428.737 254.243 433.948 266 432L266 433L264 434C274.088 440.909 288.133 437.359 287 454L283 453L287 459L283 461L286 460C287.122 470.186 283.406 468.024 275 467L275 468L290 473L289 475C294.037 482.548 281.552 495.75 296 500L295.772 481.015L304 444L302 444L302 448L295 449L295 453L293 453L303 420C297.939 424.416 297.169 435.813 291.581 438.802C286.007 441.785 279.247 435.013 274.715 432.922C271.061 431.237 265.976 431.171 262 431C261.616 426.189 259.646 425.138 255 426L254 423L220 416z"/>
<path style="fill:#bac0be; stroke:none;" d="M324 416L328 457L336 465C333.596 459.329 326.786 439.541 333 436C332.999 427.881 332.017 420.072 324 416z"/>
<path style="fill:#a35f14; stroke:none;" d="M96 422L95 427L112 432L112 433L103 431L102 435L104 437C109.529 440.143 115.292 440.234 121 442.594C133.799 447.887 147.943 457.952 162 458L162 456L144 451C142.634 447.116 139.816 447.093 136 447L136 444L119 439L119 438L128 437L139 445L152 447C151.698 440.233 143.486 439.223 137.911 438.035C123.081 434.874 111.192 424.359 96 422z"/>
<path style="fill:#c4cccf; stroke:none;" d="M30 425L29 428C18.3496 426.209 21 445.313 21 452L18 456L14 456L14 461L11 458C5.36 461.954 5.90455 471.706 0 469C0 494.427 13.5994 518.816 27.9969 539.089C65.8253 592.355 138.432 630 204 630C201.322 625.869 196.429 627.258 192 626.714C181.301 625.4 170.746 621.491 160 621L160 619L190 623.83L248 625L248 624L236 624L238 619L255 618L255 617C186.466 617 122.11 602.842 69.4892 556.275C52.8852 541.582 30.9979 519.018 28 496L32 496L32 499L38 501C37.3117 490.746 30.3291 479.825 27.4406 469.83C23.4317 455.959 23.3894 443.221 24 429L25 429L25 432L32 425L30 425z"/>
<path style="fill:#9e804c; stroke:none;" d="M74 426C77.0606 433.094 82.0382 446.093 88.6335 450.566C92.0659 452.894 96.1851 451.066 99.787 452.603C103.668 454.258 107.782 460.54 110 464L111 464L112 458L109 451L116 449L116 448L96 436L74 426z"/>
<path style="fill:#9d601f; stroke:none;" d="M198 432L198 436C202.983 437.399 205.509 441.57 210 443.821C218.758 448.21 238.619 454.735 248 453C248.601 457.669 263.101 464.088 264 460L265 460C267.265 464.099 270.551 465.823 275 464C275.756 467.546 284.658 471.822 287.25 467.667C288.425 465.783 286.317 462.042 286 460L280 458L276 459C274.284 454.105 269.306 455.008 265 456C263.105 449.978 256.647 449.062 251 449L252 446L248 446L250 451C236.816 449.312 222.737 444.278 211.741 438.012C207.704 435.711 199.038 436.943 201 430L197 431C192.891 423.191 186.632 434.44 198 432z"/>
<path style="fill:#b57039; stroke:none;" d="M303 429L297 442L296 442L296 438L295 438L293 453L295 453L295 449L302 448L302 444L304 444L301 464L302 464C304.477 454.023 310.063 442.46 307 432L305 433L303 429z"/>
<path style="fill:#c68335; stroke:none;" d="M312 432C307.184 440.403 309.755 449.758 308.896 459C308.228 466.178 305.06 472.926 304 480L299 480L299 475C291.702 480.243 296.335 492.519 296 500L288 494C289.504 498.82 291.304 503.639 288 508L288 528C295.366 527.975 308.798 520.845 310.643 512.826C311.566 508.812 309.218 504.077 309.039 500C308.728 492.89 309.955 485.057 310.563 478.004C310.91 473.987 314.196 470.981 315 467L316 467L316 472L317 472L319 464L322 464L325 438L323 438L322 441L320 438L314 448L313 448L314 432L312 432z"/>
<path style="fill:#908282; stroke:none;" d="M323 432C323.128 436.218 323.69 438.782 328 440L323 432z"/>
<path style="fill:#a57c3a; stroke:none;" d="M96 436L116 448L116 449L109 451L110 454C107.728 456.147 109.555 457.212 112 458L111 464C117.248 461.936 117.996 453.712 118 448C123.963 448.128 131.035 449.693 133 456C148.92 454.922 163.192 465.151 177.09 470.401C183.476 472.814 191.169 472.36 198 474.791C204.845 477.227 213.84 482.707 221 482C224.249 486.505 233.696 485.772 239 486L238 490C243.016 491.423 248.878 491.072 253.588 493.023C258.313 494.981 262.018 500.271 267.019 501.171C275.514 502.7 280.888 496.784 288 504L289 475L290 473L275 468L275 464L273 466L265 460L264 460L264 463C258.878 460.066 250.053 458.585 248 453L224 448L224 449L227 450L225 454C234.657 454.415 248.193 456.601 255 464L280 474L280 479L288 481L285 482L287 492L272 484L273 491L260.999 492.667L240 485L240 482L216 477L218 472C194.761 472 169.086 463.88 148.17 454.559C132.237 447.459 113.877 436.528 96 436z"/>
<path style="fill:#95460d; stroke:none;" d="M119 438L119 439L136 444L136 447L144 451C154.672 451.097 159.007 459.399 168.015 462.467C180.324 466.659 194.063 470.267 207 471.816C216.338 472.934 231.461 473.822 239 480L240 480C239.191 475.343 236.31 475.105 232 475C230.422 470.303 227.247 472.656 223.465 470.907C215.553 467.249 212.871 460.864 203 466L203 461L176 453C175.444 448.68 170.209 445.357 169 451L168 451C162.926 442.71 147.437 445.071 139 445L128 437L119 438z"/>
<path style="fill:#9c958d; stroke:none;" d="M54 452L51 452C49.0287 459.577 47.3316 472.128 40 476L40 492L42.8573 503.561L54 527C62.8603 527.105 62.7004 532.519 68.591 537.544C74.8082 542.848 80.0609 544 88 544L88 552C93.9098 553.426 96.5604 557.345 101.429 560.545C108.229 565.014 123.59 567.116 125 576C144.001 582.786 163.892 589.494 184 592C186.342 600.007 205.831 595.423 212 594.417C222.614 592.685 233.292 593.398 242.995 588.273C249.403 584.889 253.216 577.568 260.005 574.755C268.435 571.261 282.957 568.482 283 558L305 552L305 551L290 553L290 552C297.644 548.32 298.6 540.148 301.29 533.09C303.741 526.659 311.01 522.305 313.219 515.961C315.014 510.806 312.231 503.377 312 498L318 500L318 491L322 470C334.195 471.967 342.904 485.138 355 483C352.11 468.499 335.068 462.196 322 459L322 464L319 464C319 471.458 316.701 479.518 314 486C312.399 489.842 316.033 497.258 311 496L310.062 514.995L295.513 532.59L291.91 543.826L279 555L282 556L278 559L281 565C266.552 559.47 263.884 568.196 252.715 575.401C245.949 579.765 234.927 583.742 226.985 585.37C207.039 589.459 188.991 576.793 170 579C165.99 569.431 142.159 568.201 133.039 564.578C125.26 561.487 117.287 560.185 110.025 555.806C103.689 551.985 98.2786 545.523 91.956 542.343C76.7064 534.675 64.6887 530.873 55.1836 514.911C48.2486 503.265 48.2456 497.304 47.9066 484.039C47.739 477.478 45.3667 470.257 54 468L53 456L56 456C57.3764 450.165 65.8027 442.443 70 450L80 451L80 447L85 448C77.1368 442.628 55.8831 438.21 54 452z"/>
<path style="fill:#b7ae9f; stroke:none;" d="M326 443L321 459L332 463L328 457L328 443L326 443z"/>
<path style="fill:#dee0d5; stroke:none;" d="M330 444C331.073 449.026 332.765 461.956 336.573 465.258C339.822 468.075 344.405 466.747 347.62 470.148C351.813 474.584 353.723 482.624 358.39 486.343C362.937 489.968 370.835 483.227 372 479L330 444z"/>
<path style="fill:#887c6e; stroke:none;" d="M56 456L53 456L54 468C44.8396 469.347 47.4899 477.669 47.7816 484.039C48.4028 497.603 47.832 503.813 55.1836 515.83C61.3248 525.869 70.4303 534.849 81.2855 539.657C84.7548 541.193 88.588 540.936 91.956 542.863C97.9786 546.307 102.935 552.048 109.086 555.806C116.469 560.316 125.004 561.988 133.039 564.95C143.121 568.666 164.068 569.511 170 579C189.748 579.39 207.72 589.603 227.961 585.37C236.053 583.678 247.758 579.621 254.424 574.811C260.461 570.456 264.498 564.045 272 562L272 561C250.788 561.059 231.159 563.604 209.996 560.719C204.577 559.98 194.147 557.53 192 564L175 564L175 560L172 563C165.647 554.505 152.236 556.18 143 554.787C137.726 553.992 133.495 552.016 128 552L128 548L109 543L112 541C97.4283 535.935 80.8343 526.56 70.8272 514.576C67.8229 510.978 63.3766 507.766 62.2994 502.961C60.5019 494.942 70.1564 484.623 67 479L72 477C72.4946 470.527 77.5415 465.488 84 465L84 468L88 468L86 472L91 473L86 448L80 447L80 451L70 450C67.1033 441.26 56.8045 450.095 56 456z"/>
<path style="fill:#978054; stroke:none;" d="M118 448C117.979 453.977 116.411 459.766 112 464L112 465L133 471L134 466L136 466L136 470L149 472L155 474L155 478C160.781 477.387 177.393 480.913 175 489C179.403 490.103 182.326 490.447 184 495L192 492L193 495C200.293 494.202 207.032 494.379 208 503L212 499L216 504L222 500L225 510L242 509L238 509L238 508L245 508C246.386 520.145 260.336 512.56 264 523L273 524L266.693 512.91L266 505L266 504L273 508L277 504L276 509L280 502L285 504C281.474 495.585 274.248 502.287 267.439 500.927C262.902 500.02 259.497 495.351 255.285 493.438C250.211 491.132 243.499 491.134 238 490L239 486C233.135 485.537 225.4 486.154 221 482C214.107 482.349 205.579 477.132 199 474.791C192.113 472.34 184.513 472.784 178.039 470.401C164.018 465.241 149.092 454.204 133 456C131.807 449.071 123.964 448.05 118 448z"/>
<path style="fill:#827360; stroke:none;" d="M86 449L91 473L86 472L88 468L84 468L84 465C77.0024 465.228 72.2325 469.98 72 477L67 479C69.1539 486.202 60.2101 494.845 62.2994 503.91C63.3826 508.611 67.8633 511.839 70.8272 515.349C80.5226 526.831 97.5458 537.219 112 541L109 543C114.162 547.135 121.575 547.982 128 548L128 552C133.109 552.046 137.089 554.046 142 554.787C152.199 556.326 163.984 555.022 172 563L175 560L175 564L192 564C195.573 557.52 205.758 560.077 211.961 561.089C232.29 564.407 251.599 561.169 272 561L272 560L226 559C228.658 552.082 221.738 550.06 220 544C206.013 543.873 187.366 527.039 176.435 518.581C170.85 514.259 165.776 507.402 158 509C160.331 514.346 165.114 516.348 168.91 520.496C180.469 533.125 193.571 550.315 210 556L210 557C200.044 556.918 190.363 553.182 181 550.089C150.843 540.13 120.948 520.835 104.482 492.91C96.2659 478.976 94.9967 462.941 88 449L86 449z"/>
<path style="fill:#888075; stroke:none;" d="M90 452C93.6816 498.584 136.424 536.742 179 549.77C189.22 552.898 199.179 556.97 210 557L210 556C196.324 549.351 187.77 538.497 176.959 528.054C170.81 522.114 162.576 516.104 158 509C166.074 508.338 170.462 514.945 176.435 519.201C188.308 527.659 205.116 543.957 220 544L226 559L266 559C262.343 552.239 253.278 549.151 246 549L229.362 532.29L192 492L184 495C181.417 483.164 163.507 493.282 156 490.281C147.763 486.988 146.361 480.331 139.74 474.988C131.504 468.343 120.875 468.66 112.174 463.822C102.164 458.256 102.828 452 90 452z"/>
<path style="fill:#a5a49f; stroke:none;" d="M47 453C46.1015 458.709 41.6439 470.258 36 472L38 501L32 499L32 496L28 496C29.05 511.829 41.8595 526.676 51.4861 538.271C78.4689 570.771 114.833 590.65 154.001 604.589C168.96 609.913 186.095 614.164 202 612.286C207.057 611.688 216.767 612.119 218 606C226.808 605.74 249.93 601.705 252 592C266.548 590.021 270.746 578.91 278 568C273.061 567.059 271.207 570.54 266.981 572.518C257.977 576.733 252.336 582.037 243.957 587.157C233.497 593.547 221.679 592.566 210 594.615C202.961 595.85 188.443 599.263 184 592L125 576C124.3 566.99 109.023 564.853 102.286 560.545C97.0677 557.208 94.4553 552.975 88 552L88 544C80.4174 543.999 75.3423 542.53 69.4144 537.544C63.0508 532.191 63.3157 527.033 54 527L42.8573 502.711L40 492L40 476C47.9593 473.432 49.0736 460.126 51 453L47 453z"/>
<path style="fill:#8e6217; stroke:none;" d="M134 466L132 472C141.717 474.51 142.552 482.691 149.546 487.992C158.312 494.636 167.734 490.239 177 488C174.266 480.536 162.365 476.563 155 478L155 474L149 472L136 470L136 466L134 466z"/>
<path style="fill:#d3a488; stroke:none;" d="M315 467L312 484L313 484L315 467z"/>
<path style="fill:#bd9268; stroke:none;" d="M317 469L313 484L312 484L312 474L311 474C308.169 484.297 308.653 498.339 310 509L311 509L311 496C315.808 495.335 317.376 474.084 319 469L317 469z"/>
<path style="fill:#a3a7a8; stroke:none;" d="M499 470C496.458 474.791 496.779 480.078 494.601 484.91C489.48 496.276 479.642 510.482 479 523L469.639 534.778L443.778 568L438 577C426.318 578.711 416.362 594.67 406.741 600.722C401.211 604.201 393.88 605.636 388 608.877C373.492 616.872 359.876 625.045 344 630L351 623L353 624C357.759 616.647 375.594 608.453 384 607L395 598C395.928 592.178 400.516 591.681 404.91 588.651C413.316 582.854 421.461 571.643 432 570C436.404 553.791 457.029 544.583 462 528L443 545C440.861 550.151 437.739 555.751 432 557L433 560L394.576 589.79L372.286 600.096L334 619L334 620L353 614L350 619C339.127 619.262 329.555 627.284 319 629.518C285.306 636.648 251.865 645.487 217 643.961C197.618 643.112 179.83 638.685 161 634.669C145.53 631.369 128.77 628.639 114.209 622.404C102.908 617.565 92.1658 605.072 80 602L80 598L72 593C89.3068 598.477 103.908 610.694 121 616.867C141.822 624.388 166.958 631.436 189 633.812C193.046 634.248 196.985 632.706 201 633.158C205.208 633.632 208.721 636.34 213 636.826C230.689 638.833 250.409 637.445 268 635.285C282.733 633.475 297.568 631.134 312 627.526C317.255 626.213 324.624 625.588 328 621C305.238 621.533 283.194 632.417 260 632.985C179.282 634.963 91.7648 615.32 37.652 550.424C22.5989 532.372 3.93659 507.301 2 483L0 483L0 514L11 515C13.8904 534.298 29.0728 552.147 42.446 565.489C48.7745 571.803 63.111 579.712 64 589C47.7207 584.545 32.3893 566.114 22.7461 552.911C18.8106 547.522 16.8379 539.568 11 536L17 550L11 542L7 543L1 534L0 534C0.235199 541.787 7.29399 553.107 14 557L14 552L52.439 591.407L78 611L120 629L120 632C140.508 634.501 160.277 645.504 181 648.704C222.86 655.166 262.781 650.705 304 643.17C321.661 639.941 338.437 639.027 355.015 632.335C371.363 625.736 385.847 618.481 400.985 609.348C406.385 606.091 414.857 602.784 416 596C427.74 594.175 446.41 577.876 448 566C464.271 565.468 473.875 538.766 480.681 527.039C484.262 520.869 487.839 517.537 488 510C491.987 508.603 492.66 504.646 494.339 501.001C498.556 491.844 503.243 480.112 499 470z"/>
<path style="fill:#a16616; stroke:none;" d="M216 477L240 482L240 485L260 492.671L273 491L270 484C267.155 487.645 261.798 484.655 259 482L256 483L240 476L240 480C235.224 476.381 219.35 470.895 216 477z"/>
<path style="fill:#e2ddd9; stroke:none;" d="M329 525C347.669 522.641 359.03 514.468 371.572 500.551C374.548 497.249 384.822 490.523 380.392 485.515C376.595 481.222 372.017 485.182 369.424 488.429C361.816 497.958 353.116 505.55 343.486 512.961C338.298 516.953 332.696 519.394 329 525z"/>
<path style="fill:#979677; stroke:none;" d="M385 485C386.008 491.327 392.255 493.108 398 494C395.497 489.143 390.234 486.254 385 485z"/>
<path style="fill:#d5cec8; stroke:none;" d="M382 487C380.503 492.285 375.786 494.903 372.279 498.921C359.508 513.549 347.903 521.491 329 525L332 521L325 524L328 529L310 533L310 545L310 546C318.104 545.359 323.84 541.593 330.999 538.08C350.201 528.66 378.145 510.488 387 490L382 487z"/>
<path style="fill:#859094; stroke:none;" d="M499 490L488 510C487.656 517.43 483.434 520.867 480.138 527.039C473.941 538.644 463.435 564.827 448 566C445.135 578.052 427.78 592.789 416 596L404.715 606.579L376 624L376 625C389.112 621.919 396.683 614.547 408 608.082C423.794 599.058 435.437 587.604 448.586 575.054C452.45 571.366 457.553 569.227 461.406 565.545C471.342 556.048 477.964 543.944 484.17 531.884C490.835 518.932 505.887 506.413 499 490z"/>
<path style="fill:#5f6130; stroke:none;" d="M195 494L212.481 513.38L234.749 538.765L246 549L281 565L265.458 551.336L229.551 514.166L222 500L216 504L212 499L208 503C207.528 494.449 202.178 494.605 195 494z"/>
<path style="fill:#cdaa70; stroke:none;" d="M293 510L294 513L299 512L299 508C303.635 506.689 303.661 504.124 302 500L293 510z"/>
<path style="fill:#ab9061; stroke:none;" d="M284 501L285 504L280 502L276 509L277 504L273 508L266 504L266 505C267.372 507.943 265.575 510.73 266.583 513.826C268.543 519.851 275.272 522.932 281 523L280 526L288 528L288 508L290 501L289 501L288 504L287 501L284 501z"/>
<path style="fill:#d9d8d4; stroke:none;" d="M432 511L424 522L416 522C414.072 525.498 411.878 525.875 408 526L408 523C396.508 522.905 387.027 522.753 376 527C375.054 522.587 369.767 524 366 524L366 529L368 532L352 536C348.809 541.273 342.574 540.996 337 541L338 544C334.75 546.19 334.851 548.431 336 552L326 560L326 568C320.687 568.612 320.06 570.999 320 576L316 576L316 584L320 584L317 586L314 592L320 594L317 599L324 601L324 603L318 604L307 609L307 612L314 612L314 616L318 616L318 617L304 623L336 614L336 613L333 613L333 612L349 603L321 609L321 608C328.082 606.131 329.963 599.364 336.012 595.799C352.271 586.216 370.299 578.351 385.714 567.41C392.603 562.52 401.22 552.712 410 552C412.474 547.824 415.211 545.13 420 544C420.179 539.655 423.259 536.954 427 535L448 502L432 511z"/>
<path style="fill:#767a85; stroke:none;" d="M499 507L476 546C484.471 540.956 489.784 528.606 494 520L495 520L478.19 558.715L472 575L486 564L484 561L489 559L488 557L492 556C490.421 558.877 487.556 562.066 492 563L500 551L488 554L500 549C500 537.043 503.611 517.988 499 507z"/>
<path style="fill:#908372; stroke:none;" d="M226 508L226 512L243.114 529.289L277 560L278 560L282 556L279 556L279 555L292.427 543.826L295.513 533.428L311 515L293.985 527.486L280 526L281 523L274 521L273 521L272 524L264 523C261.701 511.966 247.428 519.753 245 508L238 508L238 509L242 509C237.507 512.502 230.975 509.553 226 508z"/>
<path style="fill:#b7c0c5; stroke:none;" d="M7 543L11 542L17 550L11 536C16.0524 540.664 18.1732 547.358 22.0795 552.911C31.1059 565.741 47.7711 586.205 64 589C64.7278 580.384 49.8426 571.85 44.0448 566.251C29.6128 552.313 15.7009 534.837 11 515C8.49904 514.633 4.77495 512.971 2.3179 513.788C-0.697702 514.791 0.00500617 519.568 0 522C-0.0202346 531.83 2.7692 534.711 7 543z"/>
<path style="fill:#47484c; stroke:none;" d="M494 520C489.354 526.654 482.3 535.532 483 544L484 544L494 520z"/>
<path style="fill:#899299; stroke:none;" d="M0 540C1.78032 552.527 19.8571 573.833 30 581L29 578L61 605.406L86 622C92.5519 622.874 96.0682 628.24 102.004 630.62C119.101 637.477 137.075 644.974 155 649.533C172.051 653.87 189.584 654.484 207 656.17C263.569 661.644 326.445 655.654 376 626L376 625C364.422 625.778 354.101 634.953 342.999 637.54C330.001 640.569 316.163 640.764 303 643.17C286.285 646.225 267.909 651.214 251 651.961C225.536 653.086 197.901 653.144 173.09 646.831C156.376 642.579 137.025 633.082 120 632L120 629L78 611C75.5278 603.547 61.3997 597.018 55.0895 592.694C39.6701 582.13 30.466 560.27 14 552L14 557L0 540z"/>
<path style="fill:#615f60; stroke:none;" d="M479 542L460 569C467.699 564.373 478.719 550.687 481 542L479 542z"/>
<path style="fill:#080403; stroke:none;" d="M481 542C477.316 550.79 469.651 557.86 463.745 565.174C443.54 590.198 417.84 613.559 389 628.205C379.459 633.051 368.704 640.468 358 642C353.524 649.344 340.846 651.178 333.09 652.96C313.834 657.382 295.217 665.833 275 666L275 667L421 667L421 664L430 659L433 662L446 646C441.469 646.041 437.879 645.936 437 651L433 648L433 647L447 640L444 643L444 644L448 642L453 643L444 639L445 636L440 633L448 633L448 630L462 630L462 629L456 628L461 616L461 615L456 612L460 612L460 611L457 610L457 609L464 610L464 609L461 602L462 606L460 603L454 606L461 601L461 600L456 599L456 597L465 590L464 587L467 586L465 584L469 582L483 542L481 542z"/>
<path style="fill:#9faaac; stroke:none;" d="M0 544C1.27325 550.603 5.80478 555.553 9.48148 561C18.9402 575.014 33.0439 596.708 50 602L37.9853 589.076L13.8241 562.255L0 544z"/>
<path style="fill:#67686a; stroke:none;" d="M0 547C0.0967994 555.611 6.14883 562.323 11.1273 569C23.0001 584.923 36.8781 599.31 52.9105 611.036C77.2408 628.829 103.768 644.332 133 653.099C173.663 665.294 215.889 665 258 665C282.699 665 307.923 658.605 330.925 650.353C337.951 647.833 351.284 647.005 354 639C366.995 637.698 381.196 627.836 392 621L392 620C376.787 623.791 364.255 632.46 349.961 638.164C328.581 646.695 305.551 652.362 283 657.041C248.811 664.135 211.022 661.593 177 656.329C170.051 655.254 163.107 657.766 156 656.335C115.956 648.27 76.8167 626.198 45.6296 600.33C26.8416 584.747 16.2849 564.322 0 547z"/>
<path style="fill:#4d4d4f; stroke:none;" d="M481 548L481 552L482 552L481 548z"/>
<path style="fill:#565962; stroke:none;" d="M488 554L500 549C495.39 549.136 490.819 550.122 488 554z"/>
<path style="fill:#2c2626; stroke:none;" d="M0 554L3 588L4 588L20 583L20 582L10 581C23.8522 579.439 6.06666 557.862 0 554z"/>
<path style="fill:#535561; stroke:none;" d="M499 554L492 563C488.902 561.187 490.914 558.919 492 556L488 557L489 559L484 561L484 563L488 564L488 565L485 566L489 568L488 571L497 566L497 565L493 566L500 560L499 554z"/>
<path style="fill:#59545a; stroke:none;" d="M478 556L478 560L479 560L478 556z"/>
<path style="fill:#23110d; stroke:none;" d="M497 560L493 566L497 565L497 566L488 571L489 568L485 566L488 565L488 564L470 575L469 575L469 582C466.637 583.262 465.732 583.582 467 586L464 589L469 588L463 590L456 597L456 599L461 600L461 601L454 606L460 603L460 606L462 606L461 602L464 609L464 610L457 609L457 610L460 611L460 612L456 612L461 615L461 616C456.343 617.363 457.233 623.823 456 628L462 629L462 630L448 630L448 633L440 633L445 636L444 639L453 643L448 642L444 644L444 643L447 640C441.384 641.32 436.629 642.312 433 647L433 648L437 651C438.435 646.457 441.583 646.107 446 646C444.062 649.717 432.266 662.78 430 659L421 664L421 667L500 667L500 560L497 560z"/>
<path style="fill:#6f7477; stroke:none;" d="M392 620C410.559 613.308 425.841 600.718 440.134 587.724C447.268 581.238 456.37 576.43 460 567C443.025 573.654 430.445 593.277 415.485 603.921C408.017 609.234 397.514 612.111 392 620z"/>
<path style="fill:#373133; stroke:none;" d="M459 569L455 576L461 569L459 569z"/>
<path style="fill:#434144; stroke:none;" d="M470 574L470 577L474 576L470 574z"/>
<path style="fill:#464040; stroke:none;" d="M437 593L438 593L455 576C448.839 578.63 438.408 586.222 437 593z"/>
<path style="fill:#3d3739; stroke:none;" d="M17 577L10 581C12.8424 585.027 17.0928 582.432 21 581L17 577z"/>
<path style="fill:#7a8388; stroke:none;" d="M29 578L50 602L46 601L46 602C54.9548 607.13 62.3558 614.407 71.0394 619.964C90.4011 632.354 112.316 643.482 134.17 651.012C148.715 656.024 161.444 654.577 176 656.365C203.905 659.792 230.733 661.997 259 659.169C268.541 658.214 278.814 658.905 288 656L288 655C278.585 655.026 269.332 657.71 260 657.825C225.587 658.247 189.518 658.059 156 649.533C138.063 644.97 120.139 637.451 103.001 630.62C96.687 628.104 93.061 622.474 86 622L72.598 612.711L47.8657 593.536L29 578z"/>
<path style="fill:#443a39; stroke:none;" d="M469 583L474 585L477 579L469 583z"/>
<path style="fill:#170e09; stroke:none;" d="M20 581L4 588L3 588L1 582L0 582L0 667L184 667L184 666C140.57 657.932 102.425 644.775 65.5756 619.84C49.9863 609.291 32.9533 596.549 22 581L20 581z"/>
<path style="fill:#483f42; stroke:none;" d="M465 591L469 588L465 591z"/>
<path style="fill:#94958f; stroke:none;" d="M72 593C73.3469 596.757 76.2201 597.524 80 598L80 602C91.7972 606.765 101.979 617.24 113.375 622.404C127.659 628.878 144.701 631.406 160 634.669C188.372 640.72 216.62 646.767 246 643.829C270.793 641.351 297.078 635.703 321 629.281C330.628 626.696 340.027 619.538 350 619L353 614C335.852 617.874 320.324 625.913 303 629.487C274.614 635.342 243.12 640.13 214 636.826C209.712 636.339 206.209 633.701 202 633.144C192.697 631.913 183.478 633.492 174 631.319C157.106 627.448 135.603 623.257 120 616.018C104.741 608.94 88.475 596.177 72 593z"/>
<path style="fill:#454346; stroke:none;" d="M434 593L418 607L437 594L434 593z"/>
<path style="fill:#3b302c; stroke:none;" d="M466 601L472 597L466 601z"/>
<path style="fill:#231f1e; stroke:none;" d="M365 638L365 639C385.443 635.525 409.4 618.945 424 605C416.477 603.879 409.151 613.358 403.83 617.572C392.791 626.314 377.558 631.817 365 638z"/>
<path style="fill:#4b4a46; stroke:none;" d="M354 639C348.128 649.417 332.761 644.628 326 653C357.918 646.416 388.096 629.252 414 610C409.184 608.875 404.391 614.632 400 616.481C384.618 622.957 370.844 636.102 354 639z"/>
<path style="fill:#434142; stroke:none;" d="M53 611L56 613L53 611z"/>
<path style="fill:#dadedd; stroke:none;" d="M238 619L236 624L282 618L282 616L238 619z"/>
<path style="fill:#2d2c2a; stroke:none;" d="M91 636L91 637L98 639L98 638L91 636z"/>
<path style="fill:#3f3d3e; stroke:none;" d="M98 639L98 640L132 653C123.004 647.311 108.689 639.97 98 639z"/>
<path style="fill:#1c1817; stroke:none;" d="M296 661L296 662C317.891 661.94 337.36 649.96 358 645C351.909 642.522 345.741 648.002 340 649.78C326.722 653.893 309.731 659.803 296 661z"/>
<path style="fill:#3c3e3b; stroke:none;" d="M132 653L132 654C155.451 664.09 182.808 667 208 667L208 666C182.34 665.47 157.031 657.65 132 653z"/>
<path style="fill:#373334; stroke:none;" d="M254 665L254 667L308 659C299.499 655.433 290.256 661.434 282 663.402C273.297 665.477 262.935 665 254 665z"/>
<path style="fill:#4e4c4f; stroke:none;" d="M184 663L184 664L254 667L254 665L184 663z"/>
</svg>
