<?xml version="1.0" standalone="yes"?>
<svg width="564" height="846">
<path style="fill:#eff4f7; stroke:none;" d="M0 0L0 60L8 60L8 64L12 64L12 72L20 72L20 64L16 64L16 56L34 56L34 60L38 60L38 56L56 56L56 60L72 60L72 52L80 52L80 48L88 48L90 64L94 64L94 56L96 56L96 60L104 60L102 48L108 48L108 56L120 56L120 48L128 48L128 56L136 56L136 64L140 64L140 56L160 56L160 48L168 48L168 40L176 40L176 48L196 48L196 56L200 56L200 48L208 48L208 56L240 56L240 64L256 64L256 56L264 56L264 48L280 48L280 52L288 52L288 48L292 48L292 40L300 40L300 48L304 48L304 40L312 40L312 48L324 48L324 56L328 56L328 48L360 48L360 56L368 56L368 72L360 72L360 88L356 88L356 120L372 120L390 67C401.478 67 412.733 71.1113 423 76.2485C426.407 77.9532 431.359 80.0241 432.593 84.0154C434.858 91.3409 424.334 108.825 421.681 116C416.201 130.824 412.337 146.381 406.416 161C400.992 174.391 392.19 189.448 391 204C396.197 200.639 398.845 198.374 399 192L413 192L413 184L416 184L416 176L424 176L424 160L437 160L437 152L440 152L440 144L448 144L450 120L456 120L456 112L459 112L459 120L461 120L461 112L472 112L472 104L477 104L477 96L480 96L480 88L488 88L488 80L512 80L512 72L528 72L528 61L536 61L536 72L544 72L544 56L555 56L555 64L560 64L560 56L564 56L564 0L0 0z"/>
<path style="fill:#f0f5f8; stroke:none;" d="M168 40L168 48L160 48L160 56L140 56L140 64L136 64L136 56L128 56L128 48L120 48L120 56L108 56L108 48L102 48L104 60L96 60L96 56L94 56L94 64L90 64L88 48L80 48L80 52L72 52L72 60L56 60L56 56L38 56L38 60L34 60L34 56L16 56L16 64L20 64L20 72L12 72L12 64L8 64L8 60L0 60L0 128L8 128L8 125L16 125L16 128L21 128L21 120L27 120L27 128L32 128L32 136L40 136L40 125L48 125L48 128L64 128L64 120L67 120L67 128L77 128L77 120L90 120L90 128L94 128L94 120L96 120L96 128L112 128L112 120L120 120L120 128L136 128L136 136L144 136L144 128L147 128L147 136L160 136L160 120L168 120L168 128L176 128L176 125L184 125L184 120L192 120L195 131L189 131L189 128L179 128L179 136C181.993 135.936 183.346 136.054 184 133L187 133L187 136L197 136L200 133L200 128L214 128L214 136L224 136L224 144L226 144L226 136L230 136L232 152L192 152L192 160L232 160L232 168L240 168L240 165L248 165L248 168L264 168L264 176L273 176L273 168L279 168L279 176L280 176L280 160L283 160L283 168L296 170L296 176L304 176L304 184L306 184L306 176L309 176L309 168L312 168L312 160L304 160L304 152L280 150L280 144L290 144L290 136L294 136L294 144L298 144L298 128L304 128L304 136L307 136L307 144L312 144L312 152L320 152L320 165L328 165L328 176L320 176L320 184L315 184L315 192L318 192L320 208L326 208L326 212L334 217C340.964 210.839 342.797 198.461 345.912 190C354.16 167.596 367.512 142.616 371 119L356 120L356 88L360 88L360 72L368 72L368 56L360 56L360 48L328 48L328 56L324 56L324 48L312 48L312 40L304 40L304 48L300 48L300 40L292 40L292 48L288 48L288 52L280 52L280 48L264 48L264 56L256 56L256 64L240 64L240 56L208 56L208 48L200 48L200 56L196 56L196 48L176 48L176 40L168 40z"/>
<path style="fill:#f1f6f9; stroke:none;" d="M544 56L544 72L536 72L536 61L528 61L528 72L512 72L512 80L488 80L488 88L480 88L480 96L477 96L477 104L472 104L472 112L461 112L461 120L459 120L459 112L456 112L456 120L450 120L448 144L440 144L440 152L437 152L437 160L424 160L424 176L416 176L416 184L413 184L413 192L399 192L390.564 205.018L383.017 223L352 311L358 312L366 280L367 280C368.722 284.284 371.774 283.985 376 284L376 280L384 280L384 272L392 272L392 256L400 256L400 248L408 248L408 240L432 240L432 220L440 220L440 216L456 216L456 208L488 208L488 200L480 200L480 196L496 196L496 192L504 192L504 184L512 184L512 192L528 192L528 200L536 200L536 176L520 176L520 168L528 168L528 164L544 164L544 168L540 168L538 184L542 184L542 176L548 176L548 184L544 184L544 192L552 192L552 184L564 184L564 56L560 56L560 64L555 64L555 56L544 56z"/>
<path style="fill:#a68363; stroke:none;" d="M390 67C382.99 99.6511 365.164 129.868 356.059 161.985C354.678 166.855 356.196 171.919 354.563 177C348.047 197.276 339.256 216.821 332.104 237C328.678 246.668 327.558 256.856 322.731 265.996C315.755 279.206 310.871 294.567 306.921 309C305.337 314.785 300.552 323.347 309 324C311.36 306.824 321.279 289.299 326.91 272.83C338.867 237.865 350.253 202.588 363.128 168.039C369.962 149.701 381.985 127.777 382 108L383 108L383 112L384 112L388 96L391 96L392 86L397 86L397 82L400 82L400 78L412 79L412 77L414 77L415 82L424 86L430 85L415 133C421.824 122.722 424.691 108.482 429.203 97C430.682 93.2357 434.626 87.1319 432.868 83.0432C428.018 71.7639 400.553 67 390 67z"/>
<path style="fill:#9d7b56; stroke:none;" d="M412 77L412 79L400 78L400 82L397 82L397 86L392 86L391 96L388 96L384 112L383 112L383 108L382 108C381.934 127.194 369.922 149.331 363.128 167.089C349.837 201.833 339.632 237.917 326.599 272.83C323.406 281.383 321.372 290.603 318.101 298.999C314.806 307.457 309.777 314.559 309 324C298.468 322.331 312.82 295.637 313 288L312 288L298 325L318 327L318 326L315 326C318.451 318.951 318.516 311.192 321.032 304C326.08 289.57 332.83 275.968 338.976 261.961C342.017 255.031 342.991 244.271 350 240C350.002 217.65 360.652 196.427 368.573 176C375.668 157.7 380.43 138.704 387.071 120.286C391.045 109.264 397.964 100.399 398 88L413 80L417 83C417.654 86.0538 419.007 85.9358 422 86L422 90L425 89L426 92L429 91L430 85L428 87L424 86L415 82L414 77L412 77z"/>
<path style="fill:#856445; stroke:none;" d="M412 80L398 88C397.892 100.09 390.77 109.228 386.814 120C380.161 138.117 375.572 156.948 368.573 175C361.154 194.133 350.173 215.05 350 236L352 236C358.563 209.244 371.01 184.421 379.509 158.004C381.493 151.838 384.409 145.355 385.561 139C386.704 132.691 386.168 124.678 391 120L396 103C400.657 101.535 403.272 96.6872 404 92L407 92L407 96L408 96L408 92C423.018 96.1956 413.028 109.675 412 120L408 120L408 121C411.023 125.416 407.183 131.244 405.05 135.576C399.443 146.964 394.832 158.977 390.731 171C387.039 181.823 382.204 192.325 378.464 203.089C376.339 209.204 375.919 216.307 372.941 222.062C371.373 225.093 368.097 226.218 366.414 229.132C361.361 237.88 357.606 249.217 355.482 259.015C353.519 268.073 356.741 277.902 355.546 287C354.25 296.865 346.086 310.685 348 320C353.855 312.173 353.967 300.078 357.545 291C365.374 271.138 374.197 251.304 380.91 231C383.002 224.675 384.319 202.881 390 201L392 184C397.648 179.758 400.438 164.75 402.952 158.004C411.1 136.145 424.837 113.372 428 90L427 90L426 92L425 89L422 90L422 86L417 83L414 84L412 80z"/>
<path style="fill:#705132; stroke:none;" d="M404 92L396 103L391 120C386.064 123.164 386.581 131.634 385.725 137C384.077 147.325 378.646 157.12 375.502 167C366.235 196.115 356.046 224.514 345.025 253C339.021 268.517 329.249 287.364 328 304L325 304L315 326C321.394 327.24 340.91 331.965 345.91 326.397C348.659 323.336 347.179 318.615 348.299 315C351.197 305.639 355.065 295.935 355.815 286C356.433 277.81 354.07 269.046 355.306 261.001C356.819 251.144 361.356 237.508 366.933 229.132C368.793 226.339 371.852 225.215 373.307 222.062C379.105 209.493 381.241 194.855 386.63 182C392.969 166.878 397.8 151.129 405.05 136.424C407.037 132.395 412.13 124.671 408 121L408 120L412 120C413.592 110.598 423.39 94.4292 408 92L408 96L407 96L407 92L404 92z"/>
<path style="fill:#f1f6f9; stroke:none;" d="M21 120L21 128L16 128L16 125L8 125L8 128L0 128L0 224L3 224L3 216L8 216L8 219L16 219L16 224L46 224L48 208L56 208L56 219L64 219L64 216L91 216L91 208L104 208L104 216L112 216L112 224L109 224L109 232L112 232L112 227L120 227L120 224L128 224L128 216L136 216L136 227L144 227L144 224L160 224L160 227L176 227L176 224L184 224L184 235L192 235L192 232L208 232L208 240L211 240L211 232L218 232L218 240L222 240L222 232L226 232L226 240L230 240L230 232L234 232L234 240L238 240L238 232L240 232L240 248L248 248L248 240L256 240L256 232L261 232L261 240L272 240L272 232L274 232L274 240L278 240L278 232L280 232L280 240L293 240L293 248L304 248L304 256C308.208 256.05 310.71 256.266 313 260L320 259L321 255C318.95 250.526 323.131 246.079 325 242L326 242L325 248L326 248L337 215L334 217L326 212L326 208L320 208L318 192L315 192L315 184L320 184L320 176L328 176L328 165L320 165L320 152L312 152L312 144L307 144L307 136L304 136L304 128L298 128L298 144L294 144L294 136L290 136L290 144L280 144L280 150L304 152L304 160L312 160L312 168L309 168L309 176L306 176L306 184L304 184L304 176L296 176L296 170L283 168L283 160L280 160L280 176L279 176L279 168L273 168L273 176L264 176L264 168L248 168L248 165L240 165L240 168L232 168L232 160L192 160L192 152L232 152L230 136L226 136L226 144L224 144L224 136L214 136L214 128L200 128L200 133L197 136C193.013 135.997 189.332 136.598 187 133L184 133L184 136L179 136L179 128L189 128L189 131L195 131L192 128L192 120L184 120L184 125L176 125L176 128L168 128L168 120L160 120L160 136L147 136L147 128L144 128L144 136L136 136L136 128L120 128L120 120L112 120L112 128L96 128L96 120L94 120L94 128L90 128L90 120L77 120L77 128L67 128L67 120L64 120L64 128L48 128L48 125L40 125L40 136L32 136L32 128L27 128L27 120L21 120z"/>
<path style="fill:#8f6f58; stroke:none;" d="M414 128L398.503 168L392 184L390 201C383.992 202.201 385.412 209.24 386 214L387 214L397.294 185L416 128L414 128z"/>
<path style="fill:#a99b92; stroke:none;" d="M414 136L413 140L414 140L414 136z"/>
<path style="fill:#b0a69d; stroke:none;" d="M410 146L410 149L411 149L410 146z"/>
<path style="fill:#d1c6c0; stroke:none;" d="M407 154L405 164L406 164L409 154L407 154z"/>
<path style="fill:#cebcb0; stroke:none;" d="M356.333 160.667L356.667 161.333L356.333 160.667z"/>
<path style="fill:#f7fbfc; stroke:none;" d="M528 164L528 168L520 168L520 176L536 176L536 200L528 200L528 192L512 192L512 184L504 184L504 192L496 192L496 196L480 196L480 200L488 200L488 208L456 208L456 216L440 216L440 220L432 220L432 240L408 240L408 248L400 248L400 256L392 256L392 272L384 272L384 280L376 280L376 284C371.792 283.95 369.29 283.734 367 280L366 280C362.984 289.788 355.771 301.586 358 312C349.873 309.903 348.856 318.65 348 325C360.601 328.932 373.991 328.34 387 328.34C409.475 328.34 432.517 328.009 455 329.039C458.717 329.21 478.16 337.883 469.667 342.651C464.395 345.61 451.129 343 445 343L443 358L447 358L448 371C441.451 373.744 441.034 384.527 441.001 391C440.894 411.453 439 431.57 439 452L440 452L442 448C438.02 461.59 447.415 477.549 435 489L434 496L440 496L440 512L445 512L445 528L440 528L440 544L445 544L445 552L448 552L448 528L464 528L464 507L472 507L472 510L480 510L480 504L496 504L496 496L512 496L512 488L520 488L520 491L536 491L536 488L542 488L542 480L560 480L560 483L564 483L564 184L552 184L552 192L544 192L544 184L548 184L548 176L542 176L542 184L538 184L540 168L544 168L544 164L528 164z"/>
<path style="fill:#cfc3b7; stroke:none;" d="M354 166L353 170L354 170L354 166z"/>
<path style="fill:#92765e; stroke:none;" d="M355 167C346.989 181.034 344.193 198.952 338.816 214C330.224 238.042 315.56 262.288 313 288L314 288C320.638 271.141 325.83 253.807 332.478 237C341.368 214.521 353.427 190.927 357 167L355 167z"/>
<path style="fill:#a69488; stroke:none;" d="M349 179L345 194L346 194C348.053 189.408 351.016 183.955 349 179z"/>
<path style="fill:#f2f7fa; stroke:none;" d="M48 208L46 224L16 224L16 219L8 219L8 216L3 216L3 224L0 224L0 280L8 280L8 272L20 272L20 256L24 256L24 272L32 272L32 252L40 252L40 256L36 256L36 264L44 264L44 272L48 272L48 264L60 264L60 272L72 272L72 264L88 264L88 280L96 280L96 272L112 272L112 280L120 280L120 260L128 260L128 256L132 256L132 264L128 264L128 288L144 288L144 272L154 272L154 264L158 264L156 280L152 280L152 288L168 288L168 280L176 280L176 288L184 288L184 280L192 280L192 288L208 288L208 296L216 296L216 292L224 292L224 288L228 288L228 280L244 280L244 288L240 288L240 296L248 296L248 292L256 292L256 296L264 296L264 288L268 288L268 280L272 280L272 284L280 284L280 280L282 280L282 288L272 288L272 304L288 304L288 296L296 296L296 304L302 304L298 322L299 322L326 242L325 242C322.9 245.271 317.624 251.533 321 255L320 259L313 260C311.278 255.716 308.226 256.015 304 256L304 248L293 248L293 240L280 240L280 232L278 232L278 240L274 240L274 232L272 232L272 240L261 240L261 232L256 232L256 240L248 240L248 248L240 248L240 232L238 232L238 240L234 240L234 232L230 232L230 240L226 240L226 232L222 232L222 240L218 240L218 232L211 232L211 240L208 240L208 232L192 232L192 235L184 235L184 224L176 224L176 227L160 227L160 224L144 224L144 227L136 227L136 216L128 216L128 224L120 224L120 227L112 227L112 232L109 232L109 224L112 224L112 216L104 216L104 208L91 208L91 216L64 216L64 219L56 219L56 208L48 208z"/>
<path style="fill:#a09289; stroke:none;" d="M339 208L329 238C333.623 234.484 341.138 213.492 339 208z"/>
<path style="fill:#ab9d90; stroke:none;" d="M388 208L387 214L388 214L388 208z"/>
<path style="fill:#886545; stroke:none;" d="M347 240C340.251 268.075 319.439 292.46 317 322L319 322L325 304L328 304L349 240L347 240z"/>
<path style="fill:#d4c8bc; stroke:none;" d="M375 242L373 252L374 252L377 242L375 242z"/>
<path style="fill:#a7968c; stroke:none;" d="M324 249L322 258L323 258L324 249z"/>
<path style="fill:#f3f8fb; stroke:none;" d="M32 252L32 272L24 272L24 256L20 256L20 272L8 272L8 280L0 280L0 520L16 520L16 525L24 525L25 512L31 512L31 520L48 520L48 528L56 528L56 522L64 522L64 525L72 525L72 528L86 528L86 536L96 536L96 525L104 525L104 536L127 536L129 560L130 560L130 544L131 544L138 624L139 624L134.09 572L123.91 414L118 341L98 339L99 336C93.9982 330.604 101.333 327.606 106.17 326.455C116.096 324.093 129.825 325.393 140 326.089C179.29 328.78 220.683 329.682 260 327.961C272.46 327.415 284.604 325 297 325L302 304L296 304L296 296L288 296L288 304L272 304L272 288L282 288L282 280L280 280L280 284L272 284L272 280L268 280L268 288L264 288L264 296L256 296L256 292L248 292L248 296L240 296L240 288L244 288L244 280L228 280L228 288L224 288L224 292L216 292L216 296L208 296L208 288L192 288L192 280L184 280L184 288L176 288L176 280L168 280L168 288L152 288L152 280L156 280L158 264L154 264L154 272L144 272L144 288L128 288L128 264L132 264L132 256L128 256L128 260L120 260L120 280L112 280L112 272L96 272L96 280L88 280L88 264L72 264L72 272L60 272L60 264L48 264L48 272L44 272L44 264L36 264L36 256L40 256L40 252L32 252z"/>
<path style="fill:#dcd3cc; stroke:none;" d="M371 254L370 261L371 261L371 254z"/>
<path style="fill:#ae9f98; stroke:none;" d="M365 272L362 281L363 281L365 272z"/>
<path style="fill:#a89688; stroke:none;" d="M314 278L299 322L300 322L310.908 292L314 278z"/>
<path style="fill:#9c8e85; stroke:none;" d="M361 283L353 306L354 306L361 283z"/>
<path style="fill:#b7b7b5; stroke:none;" d="M348.333 320.667L348.667 321.333L348.333 320.667z"/>
<path style="fill:#e9edee; stroke:none;" d="M297 322C294.408 325.998 290.346 324.616 286.09 325.129C276.789 326.25 267.513 327.752 258 327.985C218.437 328.954 178.541 326.983 139 326.015C128.624 325.76 115.373 323.989 105.285 326.455C100.937 327.518 92.3867 331.646 99 336L98 339L118 341L118.028 367.219L135 368.91L176 363.694L194 361L195 361L196 363L197 363C201.927 358.383 208.794 360.558 215 359.816C227.864 358.276 241.947 356.267 255 358.144C262.576 359.234 273.743 371.176 282.348 364.972C285.508 362.694 286.103 357.233 288.609 354.209C290.787 351.581 292.962 350.336 294 347L289 346L291 340L312.999 337.46L336 340.985L359 341L346 345L346 346L350 348L347 349L349 351L349 352L340 363L355 363L355 359L382 358L380 362L388 361L388 358C397.731 358 410.027 359.453 417 367L421 365L420 368L446 368L444 373L448 371L447 358L443 358L445 343C450.501 343 466.159 345.899 470.393 342.782C477.852 337.289 460.801 329.376 457 329.09C420.55 326.345 383.797 332.349 348 325L350 328C337.835 330.896 325.144 327.719 313 326.286C306.872 325.562 301.724 326.679 297 322z"/>
<path style="fill:#b0a498; stroke:none;" d="M347 323L347 329L350 328L347 323z"/>
<path style="fill:#ceb9a8; stroke:none;" d="M301 325L301 326L307 326L301 325z"/>
<path style="fill:#8d796e; stroke:none;" d="M346 326L328 328L328 329C331.337 329 347.788 330.742 346 326z"/>
<path style="fill:#e7ab91; stroke:none;" d="M294 340L294 341L333 343L333 344L289 344L290 347C294.426 344.538 299.06 345 304 345C315.05 345 335.432 341.027 344 349L319 349L319 350L342 351C337.663 355.443 336.482 359.903 336 366L355 366L355 368L268 370L268 369C279.372 369 284.427 369.31 287 357L286 357C280.638 370.44 270.852 364.263 259 365.09C252.514 365.542 246.553 367.945 240 368C242.194 374.12 252.241 375.273 258 375.83C264.833 376.492 270.453 374.513 277.015 374.054C289.221 373.2 301.763 374 314 374C319.527 374 332.204 376.344 336 372L370 372L370 370L338 365C340.332 358.5 343.748 356.079 349 352L349 351L347 349L350 349L350 348L346 346L346 345L352 344L333 341.791L312.999 337.26L294 340z"/>
<path style="fill:#f6ccb4; stroke:none;" d="M291 340L291 344L297 344L291 340z"/>
<path style="fill:#e8bfad; stroke:none;" d="M328 340L328 341C335.244 342.725 353.584 346.509 359 341L328 340z"/>
<path style="fill:#fca967; stroke:none;" d="M296 341C301.016 347.955 324.763 344 333 344C322.144 339.317 307.583 341 296 341z"/>
<path style="fill:#9c6f58; stroke:none;" d="M291 345L296 350C289.694 351.374 285.645 361.024 285 367C291.7 367.469 295.391 367.206 297 360L301 362L303 357L297 352L301 353C305.658 350.019 312.698 349.752 318 351C321.55 345.523 334.042 348 340 348C335.86 344.121 330.365 345 325 345L291 345z"/>
<path style="fill:#b98a84; stroke:none;" d="M337 345L337 346L340 347L340 348C336.708 348 314.777 348.067 320 351L344 349L337 345z"/>
<path style="fill:#c6a4a5; stroke:none;" d="M294 348L294 350L296 350L296 348L294 348z"/>
<path style="fill:#8d5f45; stroke:none;" d="M301 353L297 352L303 357L301 362L297 360L294 368C303.97 367.089 323.689 374.335 332.277 367.976C337.176 364.348 337.333 356.266 342 352C334.943 348.592 317.882 349.183 310 350.264C307.027 350.672 302.717 350.544 301 353z"/>
<path style="fill:#a3857b; stroke:none;" d="M325 350L325 351L341 351L325 350z"/>
<path style="fill:#ae9994; stroke:none;" d="M289 352L286 361L287 361L291 352L289 352z"/>
<path style="fill:#e5ddda; stroke:none;" d="M339 364L356 362C371.762 367.745 390.431 366.794 407 368L408 365L409 365L407 372C414.846 372.997 439.478 371.015 442 379L443 379L446 368L420 368L421 365L417 367C411.849 358.579 396.797 358 388 358L388 361L380 362L382 358L355 359L355 363L340 363L346 355C341.081 356.063 339.816 359.293 339 364z"/>
<path style="fill:#e1dcd9; stroke:none;" d="M195 361L194 361C188.651 363.643 180.029 362.681 174 363.505C161.947 365.153 150.066 366.845 138 368.424C131.398 369.289 120.705 364.944 120 374L121 374L121 371C140.738 371 162.788 373.008 182 369C183.497 375.985 197.763 367 203 367C226.991 367 250.391 365.901 274 366C257.481 358.059 241.655 356.594 223 358.093C215.18 358.722 202.27 363.247 195 361z"/>
<path style="fill:#e8c4ac; stroke:none;" d="M338 362C338.797 365.72 341.61 365 345 365C354.148 365 361.275 369.382 370 370L370 372L336 372C341.437 378.351 352.068 375.394 359 374.259C372.164 372.105 384.635 374.458 398 371C405.561 385.477 433.1 366.999 441 384C443.046 380.87 443.214 375.826 438.856 374.434C430.151 371.653 416.319 372.736 407 372L409 365L408 365L407 368L356 362C351.418 365.472 342.888 364.718 338 362z"/>
<path style="fill:#bd785b; stroke:none;" d="M334 363C332.359 370.869 324.457 369 318 369L318 370L342 369L342 368L336 368L336 363L334 363z"/>
<path style="fill:#c48d78; stroke:none;" d="M284 365C280.902 370.619 273.645 369 268 369L268 370L314 370L314 369C305.702 368.823 291.199 369.056 284 365z"/>
<path style="fill:#cc8e75; stroke:none;" d="M336 368L341 367L341 370L355 368L355 366C349.909 366 339.514 363.978 336 368z"/>
<path style="fill:#e7c2af; stroke:none;" d="M191 372C202.71 375.492 209.948 368.129 221 368C214.331 365.201 193.802 364.38 191 372z"/>
<path style="fill:#de9e6e; stroke:none;" d="M221 367L221 368L240 370C236.131 365.504 226.473 367 221 367z"/>
<path style="fill:#eccaae; stroke:none;" d="M121 371L122 404L123 404C123 397.511 119.982 380.466 124.742 375.603C127.653 372.63 136.05 373.751 140 373.285C156.519 371.336 173.476 373 190 373L190 372L182 369L121 371z"/>
<path style="fill:#de833c; stroke:none;" d="M166 373L166 375L173 375L173 377L163 379L163 388L157 392L157 396L176 394C172.097 398.6 165.059 402.279 159 403C155.938 407.735 150.64 405.669 152 413L147 425L147 433L149 442L152 445L148 444L146 447L146 448L149 448L146 455L146 456L150 456L152 459L145 474C148.374 475.75 149.67 477.796 146 480C146.02 487.208 148.244 501.181 154 506L154 507L154 508L154 522L158 526C153.35 537.533 170.515 543.525 169 556L172 557L170 560L170 561L170 562L179 572L184 572L184 576L189 576L189 584L192 584L192 590L201 588C202.038 591.841 203.474 598.241 206.048 601.302C210.092 606.111 214.974 605.327 216 613L240 616L240 609L254 608L254 607L244 603C238.827 604.351 234.936 605.292 232 600L228 600L214.06 578.847L208 568L209 560C205.132 552.881 195.937 543.441 187 545L187 536L179 531L179 530L184 531L182 527C186.137 525.344 186.137 522.656 182 521L184 517L193 518C192.096 513.783 187.644 515 184 515L184 512L176 512C176 504.571 179.45 487.507 170 486L171 480L168 471L176 469C175.659 464.63 174.422 463.256 170 464L172 461L172 460L168 460L168 459C169.806 458.805 172.929 458.273 170 457L175 448C167.497 446.948 169.467 438.793 166 433L173 431L170 430L170 429L176 429L176 428L171 425L171 424C175.434 423.947 178.198 423.806 179 419L174 418L174 417L177 412L182 412L182 408L178 408L178 407L185 406L183 401L189 401L189 400L187 400L187 399C193.648 398.553 196.634 394.942 199 389C192.183 389.192 188.887 390.642 185 384C190.169 382.024 193.776 382.069 198 386L211 382L211 378L215 378C212.993 383.713 214.68 386.404 220 389L220 390L216 389C218.089 392.147 220.37 392.702 224 392L223 395C236.04 394.999 240.833 389.06 251 382L248 381L248 379L256 378L256 375L228 368.039L202.155 373.062L166 373z"/>
<path style="fill:#eeab74; stroke:none;" d="M337 374L336 376L336 377L400 374L400 373L398 371C377.65 374.946 357.257 375.288 337 374z"/>
<path style="fill:#e9ab7c; stroke:none;" d="M166 372L166 373L178 373L166 372z"/>
<path style="fill:#feb566; stroke:none;" d="M124 400L125 400C125.045 383.637 125.24 377.371 143 379C147.58 374.323 159.53 374.054 166 374C157.164 370.292 143.358 373.269 134 373.91C131.16 374.105 126.207 373.043 124.179 375.603C120.587 380.139 124 394.259 124 400z"/>
<path style="fill:#eba067; stroke:none;" d="M143 379C138.809 378.268 130.212 376.258 126.858 379.742C123.911 382.804 125.328 389.145 125.13 393C124.432 406.596 126.903 423.479 132 436L129 435C128.1 452.847 130.148 470.229 131.917 488C134.726 516.227 135.845 543.768 141.222 572C143.34 583.12 145.408 594.173 150.583 604.611C151.762 606.988 157.777 618.147 159 612L160 612L184 629L192 630L192 634L212 636L212 649L217 646L215 638C222.22 641.072 238.524 650.101 240 637C248.383 638.989 262.101 640.013 267 648L277 644.426L288 651L288 643L299 640L299 639L296 639C293.641 624.079 265.018 636.227 256 627L215 626L214 618L210 618L210 622C202.724 618.021 185.868 615.044 182 608L176 608L174 604L175 601C169.972 598.883 165.909 597.453 164 592L160 593C159.767 587.886 150.587 569.336 146 568L142 512L138 512L138 496L135 496L139 459C134.54 456.075 136.999 447.899 137 443L139 445L140 445L142 436L145 436L145 432L144 432L141 434L144 428L139 430L144 421C143.084 416.838 142.125 414.512 138 413L142 409L142 408L139 407L140 397L136 397L141 382C148.192 382.878 154.654 378.974 161 376C157.092 373.492 145.578 375.024 143 379z"/>
<path style="fill:#e58c48; stroke:none;" d="M160 374C159.284 379.512 145.813 382.182 141 382L136 397L140 397C139.721 400.537 137.852 407.497 142 408L142 409L138 413L144 421L139 430L144 428L141 434L144 432L145 432L145 436L142 436C142.133 441.05 142.857 444.883 137 443C137 447.437 133.818 457.89 139 459C134.396 469.865 135 484.271 135 496L138 496L138 512L142 512L146 568C150.733 570.864 159.213 587.336 160 593L164 592C165.232 597.929 169.63 599.376 175 601L174 604L176 608L182 608C184.179 614.593 203.395 619.17 210 622C208.87 614.704 202.71 614.388 198 610L213 616L215.833 609L206.167 601.667L201 588L192 590L192 584L189 584L189 576L184 576L184 572L179 572L170 562L170 561L170 560L172 557L169 556C172.102 543.202 154.892 538.252 158 526L154 522L154 508L154 507L154 506C149.042 499.73 146.067 487.929 146 480C150.773 478.398 149.011 475.219 145 474L152 459L150 456L146 456L146 455L149 455C149 451.637 149.716 448.796 146 448L146 447L149 447L148 444L152 445L149 442C149.905 438.155 150.401 435.455 147 433L147 425L152 413L159 403C165.071 402.799 172.866 399.249 176 394C170.181 392.249 162.499 393.273 157 396L157 392L163 388L163 379L173 377L173 375L160 374z"/>
<path style="fill:#e6975c; stroke:none;" d="M272 374L256 376L256 378L360 378L360 377C339.308 377 318.723 376 298 376C291.172 376 279.591 378.236 274 374L272 374z"/>
<path style="fill:#cb8966; stroke:none;" d="M274 374L274 375L338 376L319 374L274 374z"/>
<path style="fill:#ba6725; stroke:none;" d="M360 384L362 388L362 389L362 390C359.771 391.948 359.139 396.781 363.148 397.423C365.963 397.873 368.357 395.645 371 395.119C376.719 393.98 384.765 397.236 389 392L393 392L401 399L399 403L395 401L390 405C387.702 399.145 382.32 400.016 377 401L377 402L379 402L379 403L376 406L364 405L368 411C371.896 410.998 373.092 412.756 375 416L363 416L363 421L350 423L351 426L342 425L344 432L341 433L341 439L344 438L353 449L365 448L369 457L363 455C361.684 460.433 364.211 465.538 370 466L370 467L369 472L360 476L363 476L363 477L361 488L368 488L368 489L355 490L358 495L354 496L353 496L353 489C348.539 490.466 344.651 493.324 348 498L348 499L346 505L342 502L346 498L335 501L332 520L328 520L328 524L334 524L334 526L328 526L328 536C315.487 528.64 317.928 545.514 318 552L313 556L308 553L304 565C298.941 565.123 297.32 566.459 294 570L294 564L288 565L289 560L288 556L291 555L288 554L285 537L284 537L284 552L280 545L272 545L273 543L268 543L268 540L272 540L272 538L268 538C268 531.285 270.003 522.289 262 520L262 512L256 512C256 502.974 258.903 489.155 253 482L256 481L256 480L246 480L246 464L252 464L248 457L252 457L252 456C248.68 452.459 247.108 450.609 242 452C239.877 449.596 232.104 450.782 230 453L229 453L227 449L218 450C213.773 446.917 207.318 450.163 203.603 445.686C190.617 430.034 219.297 428.486 227 429C234.355 423.342 249.032 425.133 258 424L258 423L255 423L256 416L240 416L240 413L228 410L232 410L234 407L234 406L214 409L214 413C210.136 413.3 208.652 414.089 208 418C201.871 419.965 199.073 424.839 199 431L198 431L196 429L198 432L198 433L192 437L192 448L188 448L188 449L192 449L189 455L192 457L192 469L196 469L196 482L194 485L200 486L200 489L190 490L192 493C191.569 497.167 192.282 506.645 197.959 507.31C201.406 507.714 205.448 504.455 209 504L213.871 522.039L213 544C217.849 543.996 222.064 544.61 223 539L224 539L224 566L230 576L236 574L236 584L240 584L240 579L241 579L243 581L243 582L240 592C243.619 591.939 245.017 592.408 246 596L258 598L258 600L250 600L250 601C258.376 603.132 264.757 608.23 273.957 605.196C278.445 603.716 282.505 599.963 287 598C290.412 603.562 299.944 602.74 306 603L306 600C310.681 600 316.013 601.141 319 597L320 600C326.119 599.797 334.077 595.065 336 589L348 586L348 581L352 581C351.911 589.015 347.705 589.992 344 596C351.342 594.463 355.431 590.794 363 594L364 593C362.881 588.985 363.925 587.656 368 587C367.728 582.328 366.619 576.83 371 574L370 570L374 564L376 566L377 566L374 562L374 561L384 558L382 556L382 555C385.56 552.195 383.889 548.482 382 545L385 550L387 547L388 547L390 549L392 546L392 545L392 544L390 542L394 543L396 539L392 540L394 537L393 535L403 533L403 532L400 532L397 518L402 518L402 516L397 516L397 515L404 515L404 513L397 513L399 510L396 505L400 505L400 504C398.499 502.188 398.842 501.978 401 501L400 495L400 494L403 493L401 490L404 487L411 489L410 486L406 483L412 484L412 483L409 482L409 481L412 480L410 466L406 466L406 461L411 465L415 463L415 462L412 461L415 459L412 458L412 457L415 457L418 449L418 448L415 445L419 445C417.788 439.242 412.199 422.265 422 421L424 403L423 403L423 405L422 405C424.057 399.665 425.163 392.136 432 392L430 387L431 387L431 389C433.226 381.467 418.519 378.354 413 378.035C406.914 377.684 401.901 374.486 396 374.055C382.276 373.051 372.208 379.556 360 384z"/>
<path style="fill:#e4a27f; stroke:none;" d="M274 375L274 376L291 376L274 375z"/>
<path style="fill:#e19257; stroke:none;" d="M401 375L401 376C410.404 378.981 428.81 377.144 432 389L431 389L431 387L430 387L432 392C424.712 391.733 423.363 399.031 422 405L423 405L423 403L424 403C422.03 408.514 419.366 415.541 422 421L419 422C415.842 430.273 415.276 436.55 419 445L415 445L418 448L418 449L415 451L421 451L421 452L416 457L419 463L416 463L416 464L416 469L416 470L418 470L418 471C412.019 476.581 415.176 487.843 414 495C419.146 498.386 409.703 506.633 406 509L408 511L408 512L406 528L408 535L400 540L403 545L403 546L394 548L398 547L398 553L388 553L390 557L385 559L388 561C383.808 562.784 383.321 564.616 384 569C379.323 569.998 377.874 572.366 379 577L376 580L384 577L376 583L376 584L381 588C372.551 587.057 367.133 605.341 358 609L360 616L360 617L362 620C358.204 620.131 348.566 620.904 348 625L339 624L340 630C347.186 629.512 369.337 632.944 372 625C385.525 623.894 388.725 608.962 395.027 599.414C397.628 595.473 401.177 595.271 402 590L397 586L402 586L406 573L408 574L408 567C413.885 565.739 411.966 551.095 413.306 546.083C414.765 540.623 418.852 539.057 423 536L423 535L419 535L420 529L422 520L425 520L426 510C423.845 506.504 425.94 502.057 425.996 498C426.181 484.658 432.364 468.997 428 456C431.008 453.371 430.803 442.66 428 440L429 430L425 431L430 426L433 408L432 408L432 412L431 412L431 399L432 399L432 402L433 402L433 397L434 397L434 401L435 401L435 394L436 394L436 397L437 397L437 382C426.604 376.327 412.536 376.458 401 375z"/>
<path style="fill:#ef9535; stroke:none;" d="M262 380L262 381C299.317 383.945 338.864 380.411 376 378L345 378L293 378L262 380z"/>
<path style="fill:#e79e7b; stroke:none;" d="M417 376L417 377L437 382L437 397L436 397L436 394L435 394L435 401L434 401L434 397L433 397L433 402L432 402L432 399L431 399L431 412L432 412L432 408L433 408L428 440C430.276 443.931 430.788 452.301 428 456L425.996 497L426 510L425 520L422 520L420 529L419 535C424.497 534.083 424.987 528.947 425.7 524C427.278 513.053 427.533 501.957 428.845 491C431.63 467.735 434.731 444.402 436.043 421C436.398 414.669 439.041 409.542 438.63 403.015C438.185 395.955 444.537 386.081 439.062 379.564C434.715 374.389 422.953 376 417 376z"/>
<path style="fill:#e17e21; stroke:none;" d="M211 378L211 382L198 386C194.743 381.422 189.622 381.596 185 384C188.093 391.79 192.099 389.438 199 389C196.031 394.316 193.372 398.165 187 399L187 400L189 400L189 401L183 401L185 406L182 405L178 407L178 408L182 408L182 412L177 412L174 417L174 418L179 419L179 422L196 422C197.859 416.062 202.684 416.628 208 417L214 413L214 409L227.039 406.304L238 408L240 404L240 403L234 404L238 399L253 400L252 392L272 387L272 386L267 386L267 385C283.266 385 299.855 383.039 315.961 383.299C332.193 383.561 352.578 387.838 368 381L368 380L262 381L262 380L267 379L267 378L248 379L248 381L251 382C239.995 387.386 236.303 394.991 223 395L224 392L216 389L220 390L220 389C215.222 385.66 213.439 383.812 215 378L211 378z"/>
<path style="fill:#d66e00; stroke:none;" d="M267 385L267 386L272 386L272 387L252 392L253 400L238 399L234 404L240 403L240 404L238 408L232 407L228 410C231.867 415.965 242.432 412.767 247 409L244 407L272 400C271.16 390.524 289.767 394 296 394L296 393L288 393L288 392C293.522 391.981 298.511 389.809 304 390.041C312.731 390.41 321.026 393.422 329.96 392.61C339.462 391.745 347.129 383.406 357 392L353 391L357 396L356 399L364 403L364 404L361 405L376 406L379 403L379 402L377 402L377 401C382.549 400.314 386.82 399.689 390 405L395 401L399 403L401 399L393 392L389 392C383.29 396.674 377.354 393.488 370.961 394.682C368.399 395.161 365.843 397.5 363.148 396.958C359.262 396.177 360.425 392.117 362 390L362 389L362 388L360 384L267 385z"/>
<path style="fill:#ebb790; stroke:none;" d="M123 385L136 587L137 587L137 584L138 584C138.011 600.764 141.399 624.9 156.412 635.25C163.876 640.396 172.714 643.487 181 646.889C183.243 647.81 188.4 651.387 189 648L206 650L207 645L212 646L212 636L192 634L192 630L184 629L160 612L159 612L159 615C144.824 602.157 143.059 580.644 140.079 563C133.026 521.229 127.526 477.528 129 435L132 436L124.594 399.996L123 385z"/>
<path style="fill:#c6600c; stroke:none;" d="M288 392L288 393L296 393L296 394C290.005 394 269.741 390.304 272 400L244 407L247 409L240 416L248 416L248 411C257.97 408.319 268.059 407.821 278 405.75C297.996 401.584 317.97 395.444 339 399.778C342.843 400.57 343.515 404.257 347 405L347 404L345 403L352 407L357 407C357.277 416.733 367.451 415.995 375 416C373.494 412.317 372.152 410.261 368 411L361 405L364 404L364 403L356 399L357 396L353 391L357 392C349.791 382.52 337.801 391.197 329.96 392.296C321.424 393.493 313.34 390.442 305 390.04C299.068 389.754 293.86 391.935 288 392z"/>
<path style="fill:#facab3; stroke:none;" d="M440 392L438 403L441 403L440 392z"/>
<path style="fill:#ad5d1e; stroke:none;" d="M248 411L249 417L256 416L255 423C261.666 424.237 271.311 420.914 276.96 424.558C283.75 428.937 290.598 444.163 280 447L280 451C273.702 451.004 269.23 451.986 264 448L264 447L266 445C259.02 444.995 242.335 441.32 238 448L236 448C232.333 442.365 225.409 447.405 229 453L230 453L242 452C247.141 451.054 248.243 453.273 252 456L252 457L248 457L252 464L246 464L246 480L256 480L256 481L253 482C258.059 490.633 256 502.232 256 512L262 512L262 520C269.476 523.481 268 530.894 268 538L272 538L272 540L268 540L268 543L273 543L272 545L280 545L284 552L284 537L285 537L291 555L288 556L289 560L288 565L294 564L294 570L304 565L308 553L313 556L318 552C317.976 545.048 315.936 530.359 328 536L328 526L334 526L334 524L328 524L328 520L332 520L335 501L346 498L342 502L346 505L348 499L348 498C346.025 493.08 348.62 491.067 353 489L353 496L354 496L358 495C357.863 492.084 357.983 490.37 355 490L368 489L368 488L361 488L363 476L360 476L360 475L369 472L370 467L370 466C364.476 465.099 362.363 460.277 363 455L369 457L365 448L353 449L344 438L341 439L344 432L342 425L351 426L350 423L363 421L366 416L366 415C360.548 414.7 357.633 412.603 357 407L352 407L347 404C343.736 404.017 342.852 400.13 339 399.444C331.764 398.156 321.507 398.462 314 398.028C302.28 397.35 288.887 402.252 278 405.528C268.335 408.436 257.69 407.417 248 411z"/>
<path style="fill:#f9fdfe; stroke:none;" d="M439 403C439 457.348 429.579 512.905 424.171 567C421.787 590.835 418.678 615.219 417.054 639C416.054 653.639 417.198 669.724 413.522 684C412.303 688.731 409.302 691.933 407.584 696.286C402.649 708.79 400.9 720.742 393.958 733C389.479 740.908 380.138 747.088 378 756L379 756L382 753L381 756C385.61 755.688 389.597 755.64 392 760L396 760L392 784L395 784L397 800L400 800L404.61 816L406 840L412 840L412 846L564 846L564 483L560 483L560 480L542 480L542 488L536 488L536 491L520 491L520 488L512 488L512 496L496 496L496 504L480 504L480 510L472 510L472 507L464 507L464 528L448 528L448 552L445 552L445 544L440 544L440 528L445 528L445 512L440 512L440 496L434 496L435 489C447.94 481.093 439.293 459.781 442 448L440 452L439 452L441 403L439 403z"/>
<path style="fill:#e9b794; stroke:none;" d="M438 411C434.849 422.911 435.252 435.747 433.871 448C430.301 479.691 429.309 512.823 419 543C421.682 544.772 421.682 546.228 419 548L419 561C414.478 559.894 410.942 565.893 416 567L407 596L408 600L405 606L395 608L395 609L398 610L398 612L395 613L396 616C391.237 617.462 389.639 619.384 392 624L386 625L385 630C379.357 629.334 371.765 632.281 370 638L364 638C360.891 647.875 343.776 653.236 336 646L335 646L334 646L331 647L332 652L335 651C343.506 662.796 364.974 650.319 374 645L372 650L384 652L394.006 641.541L410 616L408 613L415 612C412.29 607.664 415.603 605.219 416.833 601C418.074 596.746 417.276 591.016 419.5 587C421.585 583.235 423.535 581.779 424 577C428.08 535.038 430.92 492.964 435 451C435.817 442.597 435.726 433.267 437.333 425C438.123 420.941 440.445 414.362 438 411z"/>
<path style="fill:#f0d1bd; stroke:none;" d="M124 416L124 426L125 426L124 416z"/>
<path style="fill:#d2762b; stroke:none;" d="M196 422L171 424L171 425L176 428L176 429L170 429L170 430L173 431L166 433C168.616 439.25 167.163 447.448 175 448L170 457L168 459L168 460L172 460L172 461L170 464C174.049 463.868 175.359 465.009 176 469L168 471L171 480L170 486C178.949 488.596 176 504.302 176 512L184 512L184 515L193 518L184 517L182 521C185.423 523.145 185.423 524.855 182 527L184 531L179 530L179 531L187 536L187 545C197.183 544.034 202.99 554.233 209 560L208 568L214.16 579.621L228 600L232 600C233.634 604.896 237.434 605.036 242 604L240 600C244.35 599.985 247.806 600.185 250 596L246 596C245.325 592.146 243.752 591.711 240 592L243 582L243 581L241 579L240 579L240 584L236 584L236 574L230 576C228.244 571.727 229.23 566.908 224 566L224 539L223 539C221.453 544.098 217.783 543.983 213 544C213.123 529.147 213.421 518.377 209 504C198.806 504.678 191.034 508.428 192 493L190 490L200 489L200 486L194 485L196 482L196 469L192 469L192 457L189 455C192.403 454.271 191.987 452.194 192 449L188 449L188 448L192 448L192 437L198 433L198 432L196 429L198 431L199 431C199.198 424.951 202.72 420.802 208 418C203.084 415.391 197.071 415.773 196 422z"/>
<path style="fill:#944a27; stroke:none;" d="M227 429C217.466 427.254 202.538 426.245 202.04 439C201.945 441.427 201.784 444.522 203.603 446.411C207.069 450.011 213.743 448.061 218 450L228 449C230.215 445.224 232.919 444.957 236 448L238 448C243.86 442.085 258.188 444.999 266 445L264 447L264 448C268.741 452.907 273.702 451.017 280 451L280 447C290.938 445.22 284.63 430.094 278.526 425.113C271.216 419.146 248.065 424.541 239 425.718C235.029 426.234 229.734 425.822 227 429z"/>
<path style="fill:#ab5f3f; stroke:none;" d="M427 426L425 431L430 426L427 426z"/>
<path style="fill:#742a07; stroke:none;" d="M255 433L260 434L258 439C264.204 439.49 274.007 442.23 278 436C271.339 433.985 262.447 422.058 255 433z"/>
<path style="fill:#f5dac9; stroke:none;" d="M435 448L435 456L436 456L435 448z"/>
<path style="fill:#cf874c; stroke:none;" d="M415 451L412 457L412 458L415 459L412 461L415 462L415 463L411 465L406 461L406 466L410 466L412 480L409 481L409 482L412 483L412 484L406 483L410 486L411 489L404 487L401 490L400 494L400 495L402 496L401 501C398.542 501.517 397.477 502.583 400 504L400 505L396 505C396.064 507.993 395.946 509.346 399 510L397 513L404 513L404 515L397 515L397 516L402 516L402 518L397 518C397.43 522.372 398.097 530.955 403 532L403 533L393 535L394 537L392 540L396 539L394 543L390 542L392 544L392 545L392 546L390 549L388 547L387 547L385 550L382 545C383.505 548.845 385.062 551.634 382 555L382 556L384 558L374 561L374 562L377 566L376 566L374 564L370 570L371 574C365.738 575.127 367.566 582.872 368 587C363.521 587.349 361.975 588.725 364 593L363 594L357 592L357 597L352 598L352 600L352 601L356 604L348 606L344 604L343 607L337 608L336 608C332.793 604.33 328.03 607.102 324 608L324 611L309 614L310 620L272 619L272 613L254 612C251.675 606.221 245.151 608.957 240 609L240 616L214 612L213 616L198 610C201.077 614.33 208.782 617.611 214 618L215 626C227.228 628.502 243.677 629.671 256 627C264.091 639.497 291.164 622.187 296 639L305.093 634.367L329 634.424L340.84 632.486L339 624L348 625C348 621.434 358.605 620.089 362 620L360 617L360 616L362 615L362 614L358 609C368.803 606.121 371.435 588.27 381 588L376 584L376 583L384 577L376 580L379 577C378.429 572.537 379.786 570.517 384 569C383.785 564.847 384.468 563.251 388 561L385 559L390 557L388 553L398 553L398 547L394 548L403 546L403 545L400 540L408 535L406 528C412.323 523.532 405.538 516.989 408 512L408 511L406 509C408.742 508.413 421.817 496.675 414 495L418 470L416 470L416 469L418 469L416 463L419 463L419 462L416 457L421 452L415 451z"/>
<path style="fill:#c66f2c; stroke:none;" d="M328 457L325 460C327.092 466.475 330.684 467.5 337 466L336 458L328 457z"/>
<path style="fill:#fedbc8; stroke:none;" d="M431 491L431 499L432 499L431 491z"/>
<path style="fill:#edd1bc; stroke:none;" d="M130 504L130 512L131 512L130 504z"/>
<path style="fill:#f9fdfe; stroke:none;" d="M25 512L24 525L16 525L16 520L0 520L0 717C20.4362 710.125 41.9944 710 64 710L64 707L88 707L88 704L143 704L144 710L145 710L146 706L149 709L143.171 677L140.871 635.089L131 544L130 544L130 560L129 560L127 536L104 536L104 525L96 525L96 536L86 536L86 528L72 528L72 525L64 525L64 522L56 522L56 528L48 528L48 520L31 520L31 512L25 512z"/>
<path style="fill:#dda276; stroke:none;" d="M420 537C416.909 539.798 414.143 541.78 413.256 546.17C412.047 552.153 413.542 563.41 408 567L408 574L406 573L402 586L397 586L402 590C400.668 594.691 396.574 595.511 394.599 599.414C389.715 609.065 384.139 623.356 372 625C368.019 631.853 349.018 630.671 342 629C339.305 637.879 316.864 635 309 635L309 636C318.707 636.027 323.673 638.468 330.012 645.549C331.54 647.257 332.512 647.421 334 646L335 646L336 646C342.333 654.903 362.403 647.226 364 638L370 638C372.78 632.578 379.109 630.278 385 630L386 625L392 624C390.425 619.463 391.717 617.951 396 616L395 613L398 612L398 610L395 609L395 608L405 606L408 600L407 596L416 567C412.431 564.154 415.374 561.398 419 561L419 548C422.712 547.205 422.712 543.795 419 543L420 537z"/>
<path style="fill:#f4dfce; stroke:none;" d="M133 552L134 576L135 576L133 552z"/>
<path style="fill:#c4793f; stroke:none;" d="M348 581L348 586L336 589C333.22 594.48 324.487 602.21 319 597L306 600L306 603C299.405 602.479 291.642 603.153 287 598L270 605.815L250 601L250 600L258 600L258 598L240 600L240 603L254 607L254 612L272 613L272 619L310 620L309 614L324 611L324 608L336 608L337 608L343 607L344 604L348 606L356 604L352 601L352 600C354.837 599.433 354.074 599.659 352 598L357 597L357 592L344 596C349.043 590.54 351.973 588.995 352 581L348 581z"/>
<path style="fill:#e2bda2; stroke:none;" d="M137 584C135.102 594.377 138.081 604.726 138.907 615C139.976 628.31 139.714 641.723 141.285 655C142.136 662.186 142.208 673.176 148 678L148 672L149 672L149 679L161 675C159.419 667.784 155.815 661.611 164 657C164.879 650.16 176.776 655.649 179.306 659.028C183.915 665.185 180.267 671.302 179 678L181 678L180 681L183 680C188.311 686.575 190.107 689.972 191.406 699C192.071 703.625 189.62 709.15 194 712L193 717L199 716L199 722L216 719C217.926 713.146 221.829 706.174 225.702 701.326C228.021 698.423 232.711 696.927 233.382 692.907C234.02 689.084 231.549 680.282 227.775 678.603C224.787 677.274 221.244 678.723 218.569 676.397C215.811 673.998 212.573 667.3 210.835 663.946C207.15 656.834 212.534 651.113 210 644L207 645L206 650L189 648C189 651.061 168.77 641.302 165.167 639.5C150.87 632.352 144.261 620.785 140.167 606C138.44 599.764 140.634 588.996 137 584z"/>
<path style="fill:#ebc6ab; stroke:none;" d="M422 584C417.708 588.494 412.054 606.479 415 612L408 613L410 616C403.611 622.001 398.935 632.327 394.552 639.875C392.248 643.841 387.288 645.409 385.025 649.325C379.281 659.263 391.453 665.429 399 667L399 666C395.48 659.804 407.047 650.419 409.258 644.911C410.784 641.111 408.526 636.956 410.027 633.289C415.464 620.009 428.488 599.496 422 584z"/>
<path style="fill:#efd4c3; stroke:none;" d="M419 611L409.603 633.289L408.825 644.911L397.601 663.92L400 672C396.092 672.404 393.336 673.101 392 677L402 680L395 708L393 715L390 714L390 728L389 728L388 726C382.771 733.392 374.188 741.883 373 751L379 752L380 752L396 730L392 731C393.163 726.143 401.122 707.37 405 711C406.817 706.65 406.095 702.467 407.303 698.075C408.859 692.417 412.971 688.144 414.192 682C416.974 668.002 415.543 653.125 417.129 639C418.098 630.367 422.568 619.503 419 611z"/>
<path style="fill:#c39c7b; stroke:none;" d="M299 640L288 643L286 652C291.134 658.25 298.929 661.807 307 663L307 662C301.44 656.917 293.375 640.964 306.04 637.792C309.13 637.019 311.616 639.516 314.17 640.752C324.222 645.613 326.952 644.943 326 657C337.247 641.808 318.891 634.733 305.951 634.184C302.193 634.024 299.384 636.469 299 640z"/>
<path style="fill:#d8b08c; stroke:none;" d="M240 637C237.384 649.813 222.798 640.478 215 638L217 646L213 650L224 648.643L233 651L233 662L246 672C248.336 666.929 252.797 666.623 258 667.104C264.201 667.678 269.797 670.84 275.754 671.718C283.923 672.921 291.793 670.476 300 672L292 670L292 669L302 669L301 666L304 675L305 675C307.698 665.868 302.74 662.556 294 662C293.011 656.81 282.706 644.729 277 644.192C273.196 643.834 270.259 646.544 267 648L259.143 643.401L253.701 638.738L240 637z"/>
<path style="fill:#9a846f; stroke:none;" d="M304 661L323 662L323 661C318.189 660.463 308.692 656.675 305.6 652.826C300.861 646.928 305.359 640.505 312 640C306.984 633.412 300.869 640.237 299.471 646C297.945 652.289 301.681 655.722 304 661z"/>
<path style="fill:#656259; stroke:none;" d="M324 661L324 660C320.053 659.07 309.237 654.847 307.028 651.57C304.426 647.712 307.141 640.924 312 643L316 642C309.581 638.155 300.668 642.002 303.779 650.536C306.043 656.742 318.017 660.855 324 661z"/>
<path style="fill:#080d13; stroke:none;" d="M325 660C325.084 649.907 326.599 638.725 312 643C307.635 638.6 305.253 647.257 306.318 650.772C307.595 654.989 320.75 659.714 325 660z"/>
<path style="fill:#4e474e; stroke:none;" d="M326 645L325 659L326 659L326 645z"/>
<path style="fill:#d6bca5; stroke:none;" d="M373 645C362.634 651.142 345.692 661.097 335 651L332 650L331 650L333 665C338.087 664.636 343.782 660.34 347.463 666.176C349.126 668.814 346.581 671.352 346.157 674.019C345.32 679.294 348.824 692.257 342 694C332.249 705.706 320.036 690.453 320 680L318 680L323 698C317.872 699.099 315.177 707.224 316 712C327.178 710.555 343.553 713.869 340 729L349 729C346.319 721.654 344.579 707.674 350.313 701.224C357.402 693.251 372.222 694.955 373.918 707.089C374.495 711.214 370.994 716.021 370 720L375 712L378 713L374.526 691.075L379 681C370.213 684.252 361.389 671.422 365.212 663.265C367.507 658.368 372.06 660.651 374 664C382.573 663.355 382.261 670.411 382 677L384 677C384.639 668.905 386.139 657.879 375 657L375 656L384 655C382.325 649.953 376.595 650.853 372 650L373 645z"/>
<path style="fill:#c6aa94; stroke:none;" d="M330 647C329.125 652.395 325.72 660.529 320 662.347C316.343 663.51 307.876 657.139 307 663L293 658L294 662C302.523 663.039 307.125 666.047 305 675L304 675L301 666L302 669L292 669L292 670L300 672C292.514 670.218 285.477 672.555 278.004 671.688C271.237 670.902 264.951 667.43 258 667.043C252.872 666.758 247.607 666.314 246 672L233 662L233 651L229 650C229 655.09 231.046 665.396 228.242 669.701C222.674 678.246 213.998 665.407 212.371 660.011C211.406 656.811 214.721 653.698 216 651L213 649C205.515 655.651 211.182 671.881 218.569 676.972C221.883 679.256 226.317 676.952 229.297 680.318C231.473 682.775 232.835 687.75 233.022 690.985C233.309 695.918 228.409 697.311 225.702 700.518C221.598 705.38 217.536 712.872 216 719L199 722L199 716L193 717L194 712L191 693L188 693L188 689L187 689C187.206 693.805 191.046 715.991 179.171 709.231C176.911 707.944 175.079 705.581 173 704C174.599 708.125 176.228 710.424 173 714L175 716L175 717L168 717L166 728L165 728L162 726C165.063 736.234 168.944 744.604 178 751L178 749L181 751L182 748L180 748L181 745L177 743C177.604 737.122 168.99 730.504 171.393 725.207C173.102 721.437 176.767 725.19 178.289 726.92C182.498 731.701 189.526 737.78 191 744L200 745C200.805 740.123 199.268 734.058 203.279 730.322C211.414 722.743 224.036 740.276 226 747C235.161 749.132 243.596 755.522 253.83 752.682C261.159 750.648 263.302 740.674 269.329 737.028C276.783 732.517 283.792 738.341 291 739L291 735C296.574 734.95 311.886 725.021 302.482 719.373C298.619 717.052 293.899 722.141 290 722.44C273.321 723.717 267.002 714.483 267 699L247 702L242 676C253.971 674.808 262.256 669.821 268 683L276 682L292 675L298 677L308.607 690.059L311 715L331 712L316 712C315.811 706.713 318.448 700.882 323 698L318 680L320 680C320.007 689.559 334.2 708.146 342 694C348.509 692.608 345.565 681.124 346.108 676.004C346.397 673.281 348.593 670.549 348.409 667.884C347.816 659.321 337.289 664.328 333 665L330 647z"/>
<path style="fill:#a59385; stroke:none;" d="M212 662L213 662C215.29 653.507 220.574 650.029 229 650C221.155 644.733 210.186 653.219 212 662z"/>
<path style="fill:#877e79; stroke:none;" d="M220 652L225 651C227.045 655.813 230.517 663.485 227.278 668.889C225.783 671.383 223.651 670.945 223 674L224 674C231.43 667.465 229 659.58 229 650L220 652z"/>
<path style="fill:#6c6761; stroke:none;" d="M217 652L216 656L227 654L227 653L225 651L217 652z"/>
<path style="fill:#c2b5a4; stroke:none;" d="M164 657C158.512 658.89 158.018 663.819 158 669L160 669L164 659C175.016 659.001 179.453 661.535 179 673L164 676L160 671L161 675C158.195 676.223 151.828 677.311 150.028 679.603C145.584 685.26 150.295 702.02 150 709L151 709L152 707L165 728L166 728L168 717L175 717L175 716L173 714C175.318 712.32 176.084 710.93 175.086 707.985C172.508 700.375 171.146 693.607 175.988 686.148C180.969 678.476 187.177 687.82 188 693L190 693C189.851 685.998 188.004 684.163 183 680L180 681L181 678L179 678C180.681 671.449 184.221 664.178 179.255 658.157C176.357 654.645 164.761 650.438 164 657z"/>
<path style="fill:#111518; stroke:none;" d="M221 672L225 669L224 664C228.413 663.054 227 657.767 227 654C213.629 655.8 211.699 661.872 221 672z"/>
<path style="fill:#575954; stroke:none;" d="M227 654C226.997 657.987 227.598 661.668 224 664L225 669L220 674L223 671C229.838 669.859 229.204 659.253 227 654z"/>
<path style="fill:#d4c2b8; stroke:none;" d="M375 656L375 657C385.7 658.723 384.348 668.892 384 677C370.865 681.368 375.093 703.166 378 713L375 712C373.763 718.829 368.104 725.937 361 727L355 736L355 737L361 739C364.295 731.768 376.72 723.681 384 721L376 743L377 743L389 728L390 728L390 714L393 715L395 708L395 707L394 705C377.651 707.662 391.463 686.346 393 680L401 684L401 694L402 694L402 680L400 682L392 677L400 672L400 667C388.739 664.656 385.853 654.443 375 656z"/>
<path style="fill:#493c33; stroke:none;" d="M213 658L214 664L215 664L213 658z"/>
<path style="fill:#9e9898; stroke:none;" d="M164 659C161.325 663.899 159.264 666.111 161 672L162 672C160.239 661.878 169.82 660.488 178 662L164 659z"/>
<path style="fill:#303942; stroke:none;" d="M365 666C379.487 665.949 368.271 654.46 365 666z"/>
<path style="fill:#707176; stroke:none;" d="M163 673L165 665L168 667C170.488 662.944 173.513 663.016 178 663C170.797 658.079 157.11 663.165 163 673z"/>
<path style="fill:#908a8a; stroke:none;" d="M364 666L365 666L368 662C364.954 661.312 364.451 663.242 364 666z"/>
<path style="fill:#3e454d; stroke:none;" d="M168 667L165 665L164 674L168 674L168 669L169 669C173.836 676.458 178.549 668.464 179 663C174.36 663 169.965 662.111 168 667z"/>
<path style="fill:#1a191f; stroke:none;" d="M376 663L371 676L377 680C379.272 674.692 384.054 665.664 376 663z"/>
<path style="fill:#d9dbda; stroke:none;" d="M142 664L149 706L150 706L149 672L148 672L148 678L142 664z"/>
<path style="fill:#969291; stroke:none;" d="M179 664C177.748 669.719 174.231 674.317 169 669L168 669L168 674L164 674L164 676L179 673L179 664z"/>
<path style="fill:#626367; stroke:none;" d="M370 666L372 674L376 664L370 666z"/>
<path style="fill:#a7a09a; stroke:none;" d="M380 664L377 680C371.72 676.995 370.046 672.902 371 667L365 666C365.442 669.495 365.353 674.23 367.303 677.251C375.815 690.434 386.266 673.932 380 664z"/>
<path style="fill:#615650; stroke:none;" d="M219.333 670.667L219.667 671.333L219.333 670.667z"/>
<path style="fill:#918e89; stroke:none;" d="M326 690C325.189 683.161 335.205 664.42 341 677L344 676C337.529 658.928 313.668 681.974 326 690z"/>
<path style="fill:#847c6f; stroke:none;" d="M331 675L342 678C339.99 673.084 334.841 669.563 331 675z"/>
<path style="fill:#b2a69a; stroke:none;" d="M242 676C241.915 686.211 242.85 692.481 247 702L267 699C267 715.392 272.751 723.231 290 722.698C293.793 722.58 298.019 718.19 301.707 719.593C309.581 722.587 298.835 733.637 295 735L295 736C302.624 737.907 307.395 742.721 308 751L311 750L312 755L319 755L319 759C329.025 758.909 338.265 747.899 339 738L350 736C350.033 740.004 348.331 751.286 350.532 754.081C356.064 761.105 376.569 757.836 379 750L373 751L374 746L362 749L359 746L365 734L361 739L355 737L355 736L361 727L373 720L373 719L370 720L371 715L370 715C367.9 719.401 356.885 732.647 352.603 722.852C349.781 716.394 352.665 708.55 353 702L348 702C347.606 711.165 344.803 720.329 349 729L340 729C345.813 709.296 321.929 715 311 715L309 688L304 689L307 687L307 686C301.686 685.257 299.04 682.182 298 677L292 675L276 682L268 683C263.724 669.461 253.343 674.079 242 676z"/>
<path style="fill:#635e58; stroke:none;" d="M330 680L340 678C336.225 674.031 331.252 674.262 330 680z"/>
<path style="fill:#8d867c; stroke:none;" d="M244 681C253.324 678.021 256.328 679.602 264 684L264 677C257.927 675.554 246.455 673.644 244 681z"/>
<path style="fill:#222325; stroke:none;" d="M343 678C340.372 678 337.6 677.783 335.004 678.264C317.868 681.441 334.608 700.225 340.976 692.397C343.602 689.168 342.989 681.93 343 678z"/>
<path style="fill:#7b7b7d; stroke:none;" d="M343 678L343 686L344 686L343 678z"/>
<path style="fill:#606467; stroke:none;" d="M248 679L248 680L262 683C259.24 677.736 253.196 679 248 679z"/>
<path style="fill:#666467; stroke:none;" d="M150 680L152 698L160 697L160 696L152 695L153 685L159 684L159 682L150 680z"/>
<path style="fill:#525053; stroke:none;" d="M242 688L243 688L247 680C243.064 681.544 242.372 683.938 242 688z"/>
<path style="fill:#15181d; stroke:none;" d="M268 694C267.077 691.002 265.096 689.448 263.451 686.834C250.822 666.777 232.499 697.291 257.035 696.852C260.884 696.783 264.207 694.494 268 694z"/>
<path style="fill:#a4a2a5; stroke:none;" d="M393 680L392 687L401 685L401 684L395 680L393 680z"/>
<path style="fill:#505559; stroke:none;" d="M327 681C325.507 684.599 324.503 687.516 328 690L329 681L327 681z"/>
<path style="fill:#615c59; stroke:none;" d="M283 682L283 683L290 684L283 682z"/>
<path style="fill:#857c75; stroke:none;" d="M177 683L177 684L184 684L177 683z"/>
<path style="fill:#1a1f25; stroke:none;" d="M279 694L285 696L291 694L292 697L301 696C299.227 682.287 278.752 677.103 279 694z"/>
<path style="fill:#21262c; stroke:none;" d="M157 696L162 697L160 684C155.366 686.619 156.961 691.285 157 696z"/>
<path style="fill:#101012; stroke:none;" d="M176 684C175.834 689.663 167.701 710.615 180.868 710.137C182.82 710.067 185.091 708.513 187 708L187 694C182.873 691.578 184.598 688.189 185 684L176 684z"/>
<path style="fill:#3f4448; stroke:none;" d="M263 684L267 690L263 684z"/>
<path style="fill:#65696c; stroke:none;" d="M290 684L290 685L299 686L290 684z"/>
<path style="fill:#504f54; stroke:none;" d="M153 685L152 695L157 695L157 685L153 685z"/>
<path style="fill:#807b78; stroke:none;" d="M175 685L174 691L175 685z"/>
<path style="fill:#383c3f; stroke:none;" d="M185 685C184.046 688.652 182.48 691.641 186 694L185 685z"/>
<path style="fill:#6b6a6f; stroke:none;" d="M393 686L393 687L400 687L394 701L395 701C399.405 695.343 400.995 692.285 401 685L393 686z"/>
<path style="fill:#7f7e7c; stroke:none;" d="M186 686L186 694L187 694L186 686z"/>
<path style="fill:#505962; stroke:none;" d="M299 686L301 696L292 697L292 698L304 699L299 686z"/>
<path style="fill:#505050; stroke:none;" d="M342 686L342 693L343 693L342 686z"/>
<path style="fill:#8b9298; stroke:none;" d="M272 689L272 702L291 705L290 698C283.939 698 270.975 697.323 278 688L272 689z"/>
<path style="fill:#7c695b; stroke:none;" d="M304 687L304 689L308 689L308 687L304 687z"/>
<path style="fill:#474955; stroke:none;" d="M400 687C397.285 687.251 393.795 686.772 391.39 688.23C387.431 690.63 383.073 701.807 388.275 704.914C393.356 707.948 399.484 690.723 400 687z"/>
<path style="fill:#2d343a; stroke:none;" d="M276 688C276.028 695.973 278.343 696.994 286 697L279 694L278 688L276 688z"/>
<path style="fill:#6e7376; stroke:none;" d="M327 690C329.728 694.03 334.352 694.865 339 695L339 694L327 690z"/>
<path style="fill:#a19d9e; stroke:none;" d="M387 691L386 696L387 696L389 691L387 691z"/>
<path style="fill:#797b7a; stroke:none;" d="M268 692L251 698L251 699C254.546 698.988 270.004 697.322 268 692z"/>
<path style="fill:#71787e; stroke:none;" d="M302 692L304 699L292 698L291 694L277 697L277 698L290 698L291 705L282 705C284.376 708.107 287.384 707.594 291 707L291 710L294 710C294.232 705.78 297.174 699.16 301 705L302 705L308 702L308 701L305 701L306 696L302 692z"/>
<path style="fill:#7b6c65; stroke:none;" d="M172 694L172 703L173 703L172 694z"/>
<path style="fill:#7d746d; stroke:none;" d="M187 694L187 708L183 708L183 710C189.688 708.884 189.171 699.173 187 694z"/>
<path style="fill:#434449; stroke:none;" d="M248 695L248 696L256 698L248 695z"/>
<path style="fill:#ada9a8; stroke:none;" d="M351 699L351 700C354.688 700.768 356.735 700.801 358 697L375 709C372.171 695.001 361.488 694.965 351 699z"/>
<path style="fill:#8b898a; stroke:none;" d="M358 697L358 699L372 707C368.034 701.522 365.202 697.392 358 697z"/>
<path style="fill:#747273; stroke:none;" d="M385 698L385 703L386 703L385 698z"/>
<path style="fill:#65666b; stroke:none;" d="M357 702L363 700C360.12 698.902 358.65 699.445 357 702z"/>
<path style="fill:#a2a6a9; stroke:none;" d="M395 699L392 706L393 706L395 699z"/>
<path style="fill:#6c7779; stroke:none;" d="M274 702L282 705C280.836 701.165 277.187 698.376 274 702z"/>
<path style="fill:#88837f; stroke:none;" d="M349 703L353 702L353 704L357 702C353.811 700.319 351.12 699.824 349 703z"/>
<path style="fill:#25282d; stroke:none;" d="M373 709C369.135 706.72 366.678 701.458 362.004 700.647C349.999 698.566 348.904 736.214 365.239 722.852C366.855 721.53 368.064 719.732 369.127 717.96C370.834 715.117 372.087 712.171 373 709z"/>
<path style="fill:#3d4248; stroke:none;" d="M284 720L284 719C275.666 718.544 268.942 707.995 278 703C279.312 710.631 289.465 708.473 289 717L295 715L295 710L291 707C286.191 707.385 278.178 700.787 275.303 702.175C271.456 704.034 272.121 715.636 274.742 718.258C277.01 720.526 281.084 719.992 284 720z"/>
<path style="fill:#636468; stroke:none;" d="M272 702L272 714L273 714L274 702L272 702z"/>
<path style="fill:#8e9295; stroke:none;" d="M295 715L284 719L284 720C290.503 720.274 293.6 720.883 296 714L301 715L301 702C292.423 702.285 294.48 708.405 295 715z"/>
<path style="fill:#222222; stroke:none;" d="M308 715L309 702C298.881 702.559 296.634 714.865 308 715z"/>
<path style="fill:#7e7065; stroke:none;" d="M309 702L309 706L310 706L309 702z"/>
<path style="fill:#1f1d1e; stroke:none;" d="M278 703C270.192 705.592 273.53 719.169 281.999 718.851C284.993 718.739 290.739 716.611 289.033 712.553C287.018 707.762 279.827 708.843 278 703z"/>
<path style="fill:#5c5f64; stroke:none;" d="M354 703L353 715L354 715L356 703L354 703z"/>
<path style="fill:#f1f6f9; stroke:none;" d="M88 704L88 707L64 707L64 710C50.8679 710 37.8257 711.78 24.9992 711.995C17.2209 712.126 8.4972 710.324 2.3179 716.158C-3.60403 721.749 0 742.206 0 750L0 846L412 846L412 840L406 840L404.61 815.001L400 800L397 800L395 784L392 784L396 760L392 760C390.391 755.152 385.481 755.5 381 756L382 753L379 756L377 754C373.208 759.82 381.765 764.602 373.895 771.66C360.063 784.064 333.23 781.826 316.039 783.054C266.75 786.574 217.491 786.021 168 785C167.725 776.703 161.756 776.418 155 774.285C151.323 773.124 145.728 772.95 147 768L137 768C150.068 756.269 163.404 757.713 179 754L165.91 737L150 706L149 706L148 709L146 706L145 710L144 710L143 704L88 704z"/>
<path style="fill:#7f756c; stroke:none;" d="M308 706L308 714L309 714L308 706z"/>
<path style="fill:#8b8f92; stroke:none;" d="M151 707C152.371 714.965 157.885 729.602 165 734C163.194 726.04 156.888 712.587 151 707z"/>
<path style="fill:#6e6d72; stroke:none;" d="M226 707L226 708L244 709L226 707z"/>
<path style="fill:#212429; stroke:none;" d="M225 708L220 712C220 720.983 221.654 725.247 226 733L230 732L229 734L230 734L238 732L238 736L243 734C244.08 739.038 250.25 735.725 254 735L247 707L225 708z"/>
<path style="fill:#5c5b61; stroke:none;" d="M369 707L369 708L373 711L374 711L369 707z"/>
<path style="fill:#c4c4c4; stroke:none;" d="M402 708L392 731C400.653 727.731 403.34 716.292 404 708L402 708z"/>
<path style="fill:#7b7c80; stroke:none;" d="M351 709L352 718L353 718L351 709z"/>
<path style="fill:#8f8b8c; stroke:none;" d="M372 711L371 715L372 715L372 711z"/>
<path style="fill:#6c635c; stroke:none;" d="M302 715L302 716L307 716L302 715z"/>
<path style="fill:#1e1e26; stroke:none;" d="M320 733L320 737C322.659 738.377 325.462 741.62 328.776 740.353C334.136 738.302 335.022 718.088 328.811 716.917C319.507 715.161 308.365 734.958 320 733z"/>
<path style="fill:#c7cbce; stroke:none;" d="M154 717L156 723L157 723L154 717z"/>
<path style="fill:#808080; stroke:none;" d="M307 739L312 742L319 742L319 741C317.208 740.211 315.291 739.517 313.664 738.406C299.035 728.417 322.296 722.741 326 717C310.955 719.547 307 723.487 307 739z"/>
<path style="fill:#53565b; stroke:none;" d="M352 718C352.089 725.523 355.08 725.995 362 726L362 725C355.726 724.926 354.506 723.353 352 718z"/>
<path style="fill:#565b5e; stroke:none;" d="M332 720L332 725L333 725L332 720z"/>
<path style="fill:#4e5158; stroke:none;" d="M383 721C378.766 722.559 361.864 732.447 367 738L367 739L367 740L364 748C374.15 747.887 387.013 731.39 383 721z"/>
<path style="fill:#3a383b; stroke:none;" d="M186 744L185 736L184 736L183 740C178.094 736.469 175.64 731.736 174 726L179 728C177.589 725.073 171.519 719.336 170.647 726.059C169.676 733.553 179.312 742.986 186 744z"/>
<path style="fill:#807a7e; stroke:none;" d="M252 723L254 735L255 735C255 730.614 256.033 725.615 252 723z"/>
<path style="fill:#2c3039; stroke:none;" d="M325 741L325 740L320 737L320 733C312.942 733.234 315.853 727.994 316 723C300.362 730.359 313.826 740.907 325 741z"/>
<path style="fill:#22252c; stroke:none;" d="M174 726C175.034 731.817 177.488 737.341 183 740C184.382 733.51 180.319 727.79 174 726z"/>
<path style="fill:#616266; stroke:none;" d="M333 726L333 732L334 732L333 726z"/>
<path style="fill:#5a554f; stroke:none;" d="M223.333 727.667L223.667 728.333L223.333 727.667z"/>
<path style="fill:#453b39; stroke:none;" d="M202 733L203 733L210 729C205.937 727.361 203.235 728.932 202 733z"/>
<path style="fill:#171918; stroke:none;" d="M205.318 730.042C197.399 735.08 212.43 753.305 220.396 746.972C227.449 741.366 213.151 725.059 205.318 730.042z"/>
<path style="fill:#4a4542; stroke:none;" d="M210 729L210 730L214 730L210 729z"/>
<path style="fill:#a18b74; stroke:none;" d="M181 730L186 744L178 740L177 743L181 745L180 748L182 748L181 751L178 749C179.648 754.872 184.703 760.002 191 760L199 765L194 753L218 756C221.132 765.466 241.301 758.393 248 756C250.433 759.753 254.02 758.945 258 758L265 760L267 739L266 739C259.631 750.942 250.218 755.38 237.17 751.505C233.156 750.313 230.273 747.579 226 747L223 742C218.133 759.133 204.332 738.642 202 731L201 731L200 745L191 744C191.074 739.552 184.82 732.417 181 730z"/>
<path style="fill:#403531; stroke:none;" d="M227 733L227 734C233.23 736.633 245.695 743.017 250 736L243 734L238 736L238 732L229 734L230 732L227 733z"/>
<path style="fill:#7d7c81; stroke:none;" d="M365 733L359 746L362 749L370 749L370 748L364 748L367 740L367 739L367 738L365 738L367 733L365 733z"/>
<path style="fill:#847c71; stroke:none;" d="M265 760L258 758C253.816 758.762 251.108 759.162 248 756L237 758L237 759L262.039 764.941L283 760L283 759C277.063 758.984 265.143 758.637 265.474 749.961C265.638 745.636 268.919 742.395 269 738L290 746L291 746L294 741C287.327 741.091 284.05 736.32 278 735.6C264.238 733.96 262.538 749.661 265 760z"/>
<path style="fill:#949293; stroke:none;" d="M280 735C283.868 739.939 287.876 741.302 294 741L291 748L302 747C301.293 740.737 297.404 735.721 291 735L291 739L280 735z"/>
<path style="fill:#7d7d7d; stroke:none;" d="M339 738L339 742L349 742L350 742L350 736L339 738z"/>
<path style="fill:#262930; stroke:none;" d="M298 737L303 748L298 749C295.277 746.131 293.515 749.024 293 752L290 752C289.449 747.217 287.683 746.156 283 746L283 747C294.678 752.578 279.766 756.925 274 758L274 759L295 756L296 756L297 751C309.567 755.478 307.58 737.746 298 737z"/>
<path style="fill:#44494c; stroke:none;" d="M269 738L265 754L266 754L270 742C272.993 741.936 274.346 742.054 275 739L280 742C277.545 737.548 273.661 738.004 269 738z"/>
<path style="fill:#676161; stroke:none;" d="M331 738L319 741L319 742C322.5 742 332.251 743.57 331 738z"/>
<path style="fill:#2a3139; stroke:none;" d="M275 739L270 742C269.514 748.381 262.338 756.275 273 758L277 752L276 749C278.523 747.583 277.458 746.517 275 746L279 743L280 747L283 746L283 745L275 739z"/>
<path style="fill:#20232a; stroke:none;" d="M342 759L349 740C344.142 740.141 338.309 741.47 335.318 745.764C331.058 751.878 335.401 758.781 342 759z"/>
<path style="fill:#504b47; stroke:none;" d="M222 741L222 746L223 746L222 741z"/>
<path style="fill:#61696c; stroke:none;" d="M280 742L290 752L293 752L290 744L280 742z"/>
<path style="fill:#5e5453; stroke:none;" d="M349 742L348 749C351.997 748.143 351.481 744.481 349 742z"/>
<path style="fill:#131315; stroke:none;" d="M275 746C277.158 746.978 277.501 747.188 276 749L277 752L272 757C276.584 758.158 283.192 757.686 286.756 754.081C291.534 749.248 283.831 746.667 280 747L279 743L275 746z"/>
<path style="fill:#514946; stroke:none;" d="M306 744L306 751L307 751L306 744z"/>
<path style="fill:#58595e; stroke:none;" d="M302 745L294 748L298 749C300.522 748.376 303.066 747.889 302 745z"/>
<path style="fill:#5d524e; stroke:none;" d="M210 746L213 748L210 746z"/>
<path style="fill:#6e7377; stroke:none;" d="M307 747L307 751L297 751L291 757L291 761L318 756C317.193 759.549 316.777 761.904 320 764L319 767C325.226 768.521 335.586 764.484 339 759L331 759L331 754L319 759L319 755L312 755C311.504 751.966 311.126 750.929 308 751L307 747z"/>
<path style="fill:#554842; stroke:none;" d="M214 748L214 749L220 749L214 748z"/>
<path style="fill:#616163; stroke:none;" d="M333 749L331 759L336 759L333 749z"/>
<path style="fill:#807674; stroke:none;" d="M343 759L360 762L360 761L356 761L356 758L346 757L350 749C345.173 750.489 343.741 754.252 343 759z"/>
<path style="fill:#d9dee1; stroke:none;" d="M137 768L147 768L145 770C151.666 777.039 167.06 772.783 168 785C224.181 787.412 280.072 786.011 336 781.911C347.666 781.056 361.736 780.064 371.985 773.775C378.763 769.616 382.009 760.164 373 757L376 761C371.651 778.996 344.033 778.241 328 780.424C290.186 785.571 252.895 783.685 215 781.089C205.67 780.451 197.007 780.94 187.83 779.259C184.826 778.709 180.893 779.559 178.836 776.682C174.436 770.53 185.435 764.071 187 759C174.075 750.085 147.115 755.109 137 768z"/>
<path style="fill:#1e252b; stroke:none;" d="M194 753C195.752 764.329 210.798 771.999 221 772L221 771L219 771L219 770C222.054 769.346 221.936 767.993 222 765L221 765L214 769C211.069 763.122 207.366 758.987 201 757L203 756L194 753z"/>
<path style="fill:#080d10; stroke:none;" d="M280 760C278.102 765.116 274.793 764.189 270 764L290 772L290 773C282.687 773.896 275.663 777.711 268.054 775.57C262.394 773.977 261.836 767.084 257.401 764.013C250.863 759.485 241.849 763.128 235 764L235 768L243 772C245.861 780.704 267.476 777 275 777C289.778 777 304.315 776.179 319 776.004C336.457 775.796 358.53 776.381 368 759L348 770L350 764L344 765L345 762L314 773L317 765L312 767L312 766L315 758L289 764L295 753L280 760z"/>
<path style="fill:#9d948f; stroke:none;" d="M348 753L346 757L356 758L356 761L363 758L348 753z"/>
<path style="fill:#4f4a44; stroke:none;" d="M203 755L203 756L214 759C210.71 755.968 207.498 754.193 203 755z"/>
<path style="fill:#6d5c52; stroke:none;" d="M208 754C212.834 761.214 225.838 773.652 235 771L235 764L251 761L251 760C242.38 758.4 222.625 764.413 218 756L208 754z"/>
<path style="fill:#8a8b8f; stroke:none;" d="M369 755L369 756L376 754L369 755z"/>
<path style="fill:#0b0d0c; stroke:none;" d="M201 756L201 757L214 769C229.761 767.712 207.481 756.565 201 756z"/>
<path style="fill:#232321; stroke:none;" d="M308 757L308 758L315 758L312 766L312 767L317 767L318 767L318 756L308 757z"/>
<path style="fill:#575a5f; stroke:none;" d="M342 756L338 762L353 760L353 759L342 756z"/>
<path style="fill:#565658; stroke:none;" d="M355 760L354 760L353 764L368 759L367 770L368 770L368 761L373 756L355 760z"/>
<path style="fill:#272c2f; stroke:none;" d="M290 758L289 764L302 762L302 761L290 758z"/>
<path style="fill:#454a4d; stroke:none;" d="M293 760L293 761L307 759L293 760z"/>
<path style="fill:#c0c1c5; stroke:none;" d="M372 758L368 761C369.486 768.515 369.245 767.877 365 774C373.365 772.694 374.59 768.565 376 761L372 758z"/>
<path style="fill:#a2a2a2; stroke:none;" d="M187 760C183.62 764.123 176.605 768.698 177.619 774.942C178.381 779.636 183.461 778.645 186.91 779.259C195.078 780.713 202.614 781 211 781L211 780C205.641 779.466 187.945 777.063 185.604 771.772C183.512 767.043 189.323 763.67 187 760z"/>
<path style="fill:#6b645e; stroke:none;" d="M189 760L188 766L207 770L206 773L231 776.379L245 780.815L308 781L308 780L236.996 775.286L213.019 771.576L198 761L199 765C194.414 765.235 192.741 764.276 191 760L189 760z"/>
<path style="fill:#3d342f; stroke:none;" d="M320 764L314 773L345 762L344 765L350 764L348 770C352.783 768.969 356.705 767.548 359 763L353 764L354 760C343.363 760.506 335.94 763.297 326.002 766.441C322.714 767.482 320.927 767.338 320 764z"/>
<path style="fill:#2c2b31; stroke:none;" d="M238 764L251 762C246.872 760.268 240.604 759.983 238 764z"/>
<path style="fill:#4c453d; stroke:none;" d="M260 765C266.275 772.755 273.994 772.138 283 771L283 770L270 764C274.427 764.346 278.067 765.793 280 761L260 765z"/>
<path style="fill:#45413e; stroke:none;" d="M191 762L196 766L191 762z"/>
<path style="fill:#7a7e81; stroke:none;" d="M187 763C188.016 769.088 194.91 768.412 200 770L200 771L197 771C203.131 781.704 219.858 778.268 230 779.087C261.765 781.653 293.917 784.055 326 780L326 779L247 780.907L231 776.21L206 773L207 770L188 766L189 764L187 763z"/>
<path style="fill:#2b2c2e; stroke:none;" d="M364 763C359.878 770.277 354.549 770.254 347.17 772.934C331.028 778.797 308.225 778 291 778L291 779C310.257 779 331.128 779.802 350 775.407C357.713 773.61 368.341 773.316 366 763L364 763z"/>
<path style="fill:#919193; stroke:none;" d="M185 764C185.001 777.722 199.021 778.497 211 780.564C239.192 785.428 269.449 783 298 783L298 782C280.192 782 261.742 783.407 244 781.935C235.007 781.189 227.318 778.415 218 778.94C214.857 779.117 194.821 774.756 200 771L200 770L185 764z"/>
<path style="fill:#373026; stroke:none;" d="M259 765C265.181 780.248 276.884 775.729 290 773L290 772L275 768L275 769L283 770L283 771C272.435 771.834 268.036 770.77 259 765z"/>
<path style="fill:#3f4247; stroke:none;" d="M222 766L219 770L219 771L221 771L221 772L216 772L216 773L250.001 778.829L317 780L317 779C298.489 779 280.519 777 262 777C255.523 777 246.578 778.553 243 772L234 768L235 771C229.012 771.941 226 770.507 222 766z"/>
<path style="fill:#8e9196; stroke:none;" d="M369 766C365.067 773.57 354.49 774.018 347 776L347 777C354.454 776.618 369.495 774.88 371 766L369 766z"/>
<path style="fill:#696d70; stroke:none;" d="M342 776L342 777L347 777L342 776z"/>
<path style="fill:#5e6265; stroke:none;" d="M333 777L333 778L341 778L333 777z"/>
<path style="fill:#adb1b4; stroke:none;" d="M322 780L322 781L352 778C343.521 774.442 330.804 778.863 322 780z"/>
<path style="fill:#4d5154; stroke:none;" d="M317 778L317 779L331 779L317 778z"/>
<path style="fill:#b6bbbf; stroke:none;" d="M240 783L240 784L309 783L289 783L240 783z"/>
</svg>
