<?xml version="1.0" standalone="yes"?>
<svg width="564" height="846">
<path style="fill:#ddd6cc; stroke:none;" d="M0 0L0 62C9.00139 65.1357 5.2535 71.6501 10.7276 77.1165C14.3399 80.7237 20.575 81.4413 23.0617 86.304C26.1385 92.3205 22.8685 100.658 32 102L32 112L34 112L34 104L37 104L38 96L48 107L46 112C50.4243 112 54.3579 113.014 57 109L64 112L64 123C68.7253 123.154 71.2149 124.077 72 129L64 128C65.9123 133.762 84.9197 136 91 136L91 140L80 144L80 145L88 148L80 152L78 160L96 160L96 150C105.121 152.584 108.239 153.225 112 163C100.765 166.871 109.635 173.759 104 180C103.431 172.864 98.2979 174.108 93 176L92 185C97.7342 186.746 103.145 187.134 107.999 191.105C111.871 194.272 116.408 202.433 121.128 203.677C126.603 205.121 134.487 198.352 132 193L140 192L140 193L136 193L136 195L149 192C149.576 184.387 153.937 184.687 160 187L167 184L167 180L189 176L190 171C195.933 172.831 201.201 170.539 205 176C202.128 176.628 201.747 179.171 205.083 179.889C210.351 181.023 214.296 176.265 219 181L220 181L221 176L229 186L230 186L232 183L226 181L227 174L224 174L224 172C227.337 172.706 228.942 172.826 231 170C225.881 168.345 224.264 155.32 223 150L242 147C244.001 151.978 249.291 151.126 254 152L255 136L250 136L248 125L247 125L240 128L240 117C232.814 115.666 230.129 116.799 224 120L224 132L216 132L216 129L200 129L200 128L208 128L208 127L195 126C191.274 115.776 193.951 104.397 185 97C179.076 98.2786 178.056 92.6985 178 88L176 88L176 93L171 88L171 87L164 88C163.999 81.0386 161.839 65.2502 154 64L155 58L144 58C139.921 69.0851 127.338 58.3611 120 61L125 58L125 57L123 57L123 56L126 55L128 52C125.221 47.5967 120.769 48.0037 116 48C114.728 38.1521 112.924 37.4158 105 33L105 32C108.855 28.319 97.0762 11.5944 94 8L92 8L89 16L94 25C88.1926 27.0574 85.5665 29.7628 85 36L86 36L87 34L88 41L80 43C71.958 40.5272 59.7339 36.1679 58 48C50.8127 47.9992 45.5443 47.6196 43 40C36.2665 39.9247 19.7361 28.214 26 22L21 8L16 8L16 0L0 0z"/>
<path style="fill:#e9e4d1; stroke:none;" d="M16 0L16 8L21 8C19.5165 13.9346 23.4438 16.9924 26 22C17.3929 27.4489 36.587 39.978 43 40C44.6742 48.2747 50.8642 48 58 48C61.0072 36.4767 71.4673 40.9337 80 43L88 41L86 36L85 36C85.941 30.0213 88.7512 27.6232 94 25L89 16L92 8L94 8C96.8345 12.9331 107.707 26.6029 105 32L105 33C112.247 38.1107 114.129 38.3506 116 48C120.923 48.0168 124.479 48.3065 128 52L123 56L123 57L125 57L125 58C122.007 58.0642 120.654 57.9462 120 61C126.759 59.7369 141.59 69.0444 144 58L155 58L154 64C161.263 66.1085 163.995 81.0218 164 88L171 87L171 88L169 89L176 93L176 88L178 88C178.016 92.4365 178.845 100.146 185 97L195 126L208 127L208 128L200 128L200 129L216 129L216 132L224 132L224 120L240 117L240 128L247 125L248 125L250 136L255 136C251.178 142.475 252.773 145.089 254 152C249.187 150.854 244.809 151.58 242 147L223 150C223.81 155.401 225.559 169.052 231 170L224 172L227 174L226 181L232 183L229 191C254.601 187.236 278.081 185.702 304 186.961C310.863 187.295 327.092 191.699 325 180C328.15 179.338 328.15 177.662 325 177L325 176L328 176L328 172L336 173C341.562 167.276 366.107 166.924 368 176C371.591 174.958 376.449 170.295 370.851 167.742C367.09 166.027 361.827 167.089 358 168L360 164L336 163C333.933 150.575 318.682 159.085 312 157L314 153L310 152C311.877 147.299 319.706 131.306 314.396 127.027C312.073 125.155 306.883 125.364 304 125L306 121C304.035 116.826 306.811 114.63 310 112C310.123 115.714 310.424 117.563 314 119L315 106L309 111C303.541 96.824 307.71 88.1034 289 88L288 96L287 96L286 99L275.647 81.0671L264 81L265 79L256 80L256 77L240.104 77.686L232 74C232.023 67.3393 233.8 59.5187 240 56L244 59L244 56C250.701 56.4786 250.276 59.3376 248 64L266 64C266 58.6456 268.301 46.5219 260 48C256.761 42.1645 254.2 46.8002 251 50L250 42L245 44L246 36C242.844 36.0369 239.035 36.6743 236.225 34.9012C233.166 32.9719 232.854 28.7679 228.896 28.1528C221.87 27.0609 207.809 40.0444 202 44L200 38L199 38L191 46L191 43L190 43L174 48L173 43L168 44L174 24L198 24L200 2L16 0z"/>
<path style="fill:#f1ead8; stroke:none;" d="M192 0L192 2L200 2L198 24L174 24L168 44L173 43L174 48L191 43L191 46L192 46L199 38L200 38L202 44L227.971 28.2068L235.418 34.9761L246 36L245 44L250 42L251 50C254.746 47.501 255.951 43.5009 260 48C268.062 47.9971 266 58.2733 266 64L248 64L251 62C250.291 57.5559 248.394 56.3351 244 56L244 59L240 56C232.979 58.3982 232.005 67.5868 232 74L256 77L256 80L265 79L264 81C266.926 81 272.377 79.5887 274.944 80.8055C279.37 82.903 278.386 92.1902 280.722 95.6945C282.568 98.4637 286.23 99.4999 287 96L288 96L289 98L289 88C308.206 88.3859 302.183 97.9955 309 111L315 106L314 119L310 112C306.186 114.118 303.223 116.894 306 121L304 125C306.982 125.554 312.174 125.301 314.382 127.603C319.317 132.751 311.359 146.588 310 152L314 153L312 157C318.864 160.368 332.207 150.469 336 163L360 164L358 168C364.368 166.818 380.828 169.796 368 176C367 167.313 340.178 166.482 336 173L328 172L325 176L325 177L328 177L328 180L325 180C325.233 184.283 323.859 186.197 320 188L320 189C368.86 191.098 414.871 215.939 453.961 242.63C460.27 246.938 468.663 248.973 474.405 253.385C480.055 257.726 481.587 264.857 486.75 269.961C496.809 279.905 503.709 290.429 512.41 301.486C518.294 308.964 525.953 316.449 528 326L531 326L547.407 361L563 410L564 410L564 177L560 177L560 173L552 168L548 172L548 157L541 165L518 161L511 168L511 158C507.578 155.812 507.796 152.811 508 149L501 161L502 150L496 153L496 150L495 150L492 152C488.654 148.379 483.833 153.962 480 155L480 144L476 144L476 143L479 142C478.345 134.613 486.508 134.626 492 135L492 128L496 128L496 127L488 126L484 112L480 114L479 114L477 113C484.584 102.185 476.007 87.0331 464 87C463.898 75.7601 458.754 71.428 448 72L448 85L440 88L437 86C433.211 88.1071 429.567 88.7016 426 86L425 86L424 86L422 88C421.978 80.0145 426.287 62.1411 418 59L419 55L414 50L419 49C412.237 35.5652 399.44 56.1148 391.603 46.517C389.752 44.2507 389.666 40.7534 389 38L392 35L384 28L378 28L378 32L374 24C377.41 23.7375 378.901 23.3213 380 20C375.531 20.2266 372.302 20.2109 370 16C363.184 16.9989 361.287 21.7603 360 28L364 28L364 29L347 28L346 21L352 24L355 24L357 16L348 17L352 10L342 5L344 1C329.575 -3.26379 310.049 0 295 0L192 0z"/>
<path style="fill:#dfd6cf; stroke:none;" d="M343 0L342 5L352 10L349 11L348 17L357 16L355 24L352 24L352 21L346 21L347 28L364 29L364 28L360 28C361.875 22.0626 363.541 17.6856 370 16C371.554 20.697 375.607 20.4656 380 20L374 24C374.116 27.807 374.487 30.1582 378 32L378 28L384 28C384.979 31.5648 393.313 35.4147 389 38C389.454 40.4344 389.529 43.4418 390.589 45.6952C396.173 57.5723 410.639 37.7576 419 49L414 50L419 55L418 59C425.493 63.3369 421.931 79.7183 422 88L424 86L425 86L426 86C428.809 89.2143 433.786 88.2514 437 86L440 88L448 85L448 72C458.135 71.848 463.743 76.3029 464 87C476.354 87.1036 483.046 102.131 477 113L480 114L484 112L488 126L496 127L496 128L492 128L492 135C486.604 134.335 477.192 134.237 479 142L476 143L476 144L480 144L480 155L492 152L496 150L496 153L497 153L502 150L501 161L508 149C507.493 152.655 506.74 157.087 511 158L511 168L518 161L541 165L548 157L548 172L552 168L560 173L560 177L564 177L564 0L343 0z"/>
<path style="fill:#d2cbc5; stroke:none;" d="M0 62L0 216L8 214L8 218L16 216L14 220L19 221L16 226L16 229L24 236L24 240L32 240L32 252L43 251L42 256C45.7948 257.376 46.9343 258.964 47 263L52 261L49 248L56 248L62 252L61 256L72 264L76 264L75 270C80.8739 266.915 88.0672 260.996 91 255C96.1636 256.852 99.0968 252.752 103.039 249.728C110.921 243.682 118.624 237.609 127.039 232.294C149.442 218.144 172.806 206.579 198 198.205C205.139 195.832 212.602 193.643 220 192.261C222.584 191.778 227.265 191.843 228.928 189.416C231.114 186.225 223.519 177.78 221 176L220 181L219 181L205 176C202.063 169.832 195.988 172.163 190 171L189 176L167 180L167 184C163.637 184 160.796 183.284 160 187C153.68 183.692 149.257 184.101 149 192L136 195L136 193L140 193L140 192L132 193L134 195L123 203.704L109.985 191.968L92 185L95 184L93 176C98.2547 174.769 102.872 173.092 104 180C110.405 175.455 102.3 168.061 112 163C109.465 152.667 105.141 151.809 96 150L96 160L78 160L80 152C83.9628 152.312 86.1454 151.623 88 148L80 145L80 144L91 140L91 136C84.6067 135.999 67.0489 133.529 64 128L72 129C71.5784 123.589 69.0168 123.059 64 123L64 112L57 109L56 112L46 112L48 107L38 96L37 104L34 104L34 112L32 112L32 102C22.9668 99.6396 26.4282 91.6849 23.0617 85.4792C20.5104 80.7761 14.1139 80.2124 10.7276 76.4545C5.58251 70.7446 9.39503 64.0626 0 62z"/>
<path style="fill:#ebe7e8; stroke:none;" d="M170 210L180 208L176 214L156 219L145.478 227.442L118 242L118 246C106.354 248.787 102.524 258.783 94.8002 266.4C92.1267 269.037 87.7988 273.818 84 272L83 272L74 291L75 291L80 288L80 284L94 274C96.1411 268.611 99.9252 264.095 106 264L111 255L119 254L119 250C126.435 249.477 142.7 237.618 144 230L158.039 224.303L208 214L208 210C216.312 209.828 224.961 206.363 233 206.534C238.715 206.655 245.51 210.462 248 203L256 208C261.31 198.544 265.686 205.65 272.999 204.458C277.156 203.78 279.136 199.375 283.09 198.318C292.788 195.725 307.18 196.177 317 198L317 199L312 199L312 200C335.15 199.936 356.129 206.22 377.014 214.857C383.98 217.738 395.983 220.25 400 227L417 226L418 230L422 230L421 233C427.603 232.641 437.954 238.434 440 245C447.337 245.397 466.771 256.269 468 264L478 267L478 274C492.362 279.568 496.919 291.358 505.559 302.407C516.999 317.037 526.618 329.402 535.228 345.95C537.519 350.352 540.898 352.943 542 358L544 358L531 326L528 326C526.826 316.585 519.34 309.399 513.656 302.255C503.515 289.51 494.827 277.659 483.468 265.884C479.953 262.24 479.721 257.473 475.842 254.019C470.357 249.136 461.258 247.085 454.91 242.63C398.147 202.79 337.365 186 268 186C242.99 186 214.138 190.959 191 200.576C184.844 203.135 174.108 204.529 170 210z"/>
<path style="fill:#ddd9da; stroke:none;" d="M256 208L248 203C243.937 210.328 238.461 205.914 232 206.302C224.053 206.781 216.163 209.65 208 210L208 214L157.09 224.303L144 230C141.748 237.297 126.462 248.955 119 250L119 254C112.653 256.062 111.115 260.806 107.826 265.698C106.181 268.143 102.828 268.156 101.18 270.513C99.233 273.298 96.5671 284.357 96 288L92 288L88 292L89 304C92.319 303.673 95.1778 304.837 96 301L101 302L99 306L112 305L109 307L109 308C115.985 310.78 113.428 313.854 113 320L114 320L117 316L100 351L101 351C115.895 327.395 128.157 304.407 148.296 284.296C183.711 248.933 236.248 232.174 285 230.039C319.378 228.534 353.332 238.057 384.004 252.977C390.566 256.169 409.549 272.892 415 265C418.946 267.073 421.121 265.044 422 261L443 259.339L456 262C459.059 272.204 475.008 272.001 479 282L484 287C491.97 291.67 494.783 304.741 504 306L504 312C510.668 313.908 512.795 320.72 516.652 325.896C520.235 330.705 525.92 334.387 528.945 339.478C532.698 345.794 533.916 356.729 536.259 363.961C539.427 373.735 546.289 382.79 548.946 393C557.844 427.185 558 460.864 558 496L555 496C555.021 503.778 555.269 512.655 550 519C549.26 529.091 551.272 554.61 541 560C540.992 570.119 535.436 571.454 529.569 578.661C526.207 582.792 525.986 587.044 520 588C518.738 597.687 511.493 602.699 502 603L502 597C497.987 596.476 498.771 591.305 499.222 588C500.085 581.685 501.078 565.448 493 564C496.765 577.518 496.947 587.713 494 602L493 602L493 598L486 600C486 608.755 486.384 627.72 476 631L476 643L475 643L475 640L474 640L478 668C499.274 656.193 515.829 630.27 528.261 610C544.018 584.308 560.071 552.123 563.87 521.911C566.423 501.614 564 479.47 564 459C564 443.972 566.308 426.844 563.776 412.039C560.635 393.671 553.49 371.676 545 355L542 358C541.297 352.412 537.664 349.775 535.228 344.996C526.77 328.399 516.6 316.377 505.559 301.629C497.726 291.166 492.388 277.428 478 274L478 267L468 264C467.351 255.642 447.719 245.186 440 245C438.8 238.03 427.558 231.99 421 233L422 230L418 230L417 226L400 227C397.556 220.176 384.259 217.431 378 214.857C356.712 206.104 335.499 199.805 312 200L312 199L317 199C310.616 194.638 288.401 195.671 281.285 198.603C278.209 199.87 276.384 203.349 272.999 204.029C266.391 205.356 259.728 196.968 256 208z"/>
<path style="fill:#f3f3fb; stroke:none;" d="M6 415L4.00386 446L8 496L11 496L11 445C16.0612 444.244 13.7776 425.595 13.9815 421C15.191 393.739 30.0406 371.607 36 346L42 346L50 327C53.9616 324.57 59.6211 311.818 60 307L64 307L63 304L69.1875 296.514L83 272L84 272C86.4399 275.334 91.319 270.369 93.5926 268.199C102.024 260.153 106.227 250.18 118 246L118 242C128.63 240.592 137.392 232.725 146.303 227.442C150.55 224.924 154.453 224.131 156 219L176 214L180 208C158.974 209.673 139.582 223.135 122.576 234.718C76.4384 266.144 44.7354 307.147 21.669 357.174C15.9739 369.525 13.2427 383.771 10.5147 397C9.29402 402.919 9.82004 410.036 6 415z"/>
<path style="fill:#beb8b8; stroke:none;" d="M0 216L0 368C6.17551 367.514 16.3681 352.919 18 347L25 347L24 352C29.448 347.364 30.9868 336.387 34.7207 330.17C45.7441 311.814 57.066 294.058 72.081 278.579C77.6047 272.885 92.1478 263.195 92 255L75 270L76 264L72 264L61 256L62 252L56 248L49 248C48.0238 253.341 48.2058 256.888 52 261L47 263C47.5643 258.654 46.2762 256.913 42 256L43 251L32 252L32 240L24 240L24 236L16 229L16 226L19 226L19 221L14 220L16 216L8 218L8 214L0 216z"/>
<path style="fill:#f4f7ff; stroke:none;" d="M152 570C153.104 577.53 165.699 586.932 173 588C175.015 594.227 186.544 600.955 193 600C198.07 606.234 205.15 606.529 211.83 609.109C222.78 613.337 232.211 617.832 244 620.039C288.165 628.305 334.478 629.908 376 609.51C388.609 603.316 416.81 592.761 421 578L416 579L416 576L410 576C405.266 584.654 397.389 587.123 388 589C388 592.13 370.026 598.894 366 599L366 600L368 602C345.389 602 323.632 609.403 301 611.826C285.01 613.538 266.606 610.56 251 607.625C234.587 604.538 215.545 597.199 201.09 588.894C193.282 584.409 184.677 575.998 176 574L169.039 563.456L155.036 553.616L136 535C136.215 530.218 132.824 527.966 130.665 523.96C126.177 515.632 121.956 507.155 117.711 498.715C105.544 474.527 97.7089 438.707 102.385 412C103.477 405.766 101.089 397.162 105 392C103.247 376.305 108.85 347.887 121 337C121.484 327.299 129.154 320.621 134.204 313.001C150.95 287.733 180.291 264.555 208.09 252.86C219.504 248.058 232.272 245.906 244 242.065C248.357 240.638 254.328 240.756 256 236C288.042 236 317.873 233.303 348.961 243.464C367.183 249.419 382.784 263.124 401 268L401 273L405 272C409.872 281.776 427.319 282.014 428 295L443 302L457 323L460 322L457 325L461 327L465 342L466 342L466 337L467 337L470 347L474 347L472 349C477.091 356.846 474.273 369.835 483 376L482 371L483 371L484 374C488.398 363.217 474.155 341.01 468.576 332C446.097 295.697 414.351 263.785 373.961 247.834C337.642 233.491 300.157 226.475 261 231.286C169.183 242.569 86 323.935 86 419C86 463.52 95.8771 500.156 119.226 538.003C125.06 547.46 139.013 570.88 152 570z"/>
<path style="fill:#ece9e4; stroke:none;" d="M256 236C253.479 240.315 248.506 240.356 244 241.758C234.064 244.849 223.886 247.311 214 250.623C192.706 257.758 177.409 270.41 160.831 284.819C151.49 292.938 141.794 300.466 134.845 311.015C129.919 318.492 119.862 327.301 121 337C114.747 340.859 114.242 346.501 112.166 352.91C108.17 365.247 102.129 378.751 105 392C101.058 395.445 103.349 404.085 102.711 409C100.168 428.574 103.556 444.805 106 464L108 464C107.253 451.725 103.921 440.147 103.09 428C101.553 405.562 106.864 373.31 116.981 353.961C121.214 345.866 122.115 332.428 131 328C131.873 320.168 138.433 313.049 143.542 307.439C154.298 295.628 164.951 285.087 177.785 275.379C183.1 271.359 187.117 267.088 194 266L194 262L222.039 250.014L270.09 238.263L328 240C308.253 228.091 277.825 235.997 256 236z"/>
<path style="fill:#dcd8cd; stroke:none;" d="M194 262L194 266C186.045 266.721 181.518 272.104 175.385 276.544C163.252 285.328 153.657 295.778 143.542 306.615C138.138 312.405 131.456 319.728 131 328C124.204 330.038 123.762 337.213 121.157 342.91C114.993 356.395 109.043 368.564 109 384L110 384C111.47 372.458 117.98 362.113 122.505 351.725C138.286 315.494 162.644 286.265 197.965 266.567C211.928 258.78 230.354 248.015 247 249C257.548 240.696 275.497 242.954 288 243.406C307.933 244.126 330.507 245.697 349.961 250.414C361.842 253.295 371.416 260.007 384 261L392.745 269.633L416 286L411 281L413 278L405 272L401 273L401 268L347.985 242.903L313 239.946L270.09 238.13L222.039 249.719L194 262z"/>
<path style="fill:#cbcaac; stroke:none;" d="M247 249L230.985 252.437L200.715 264.06L191 272C202.379 266.422 214.949 259.763 227.09 255.836C233.325 253.818 240.325 255.77 245 250C251.317 250.686 255.914 247.06 262 246.17C275.565 244.186 292.391 243.815 305.91 246.26C317.372 248.333 328.539 252.348 340 254.621C345.649 255.742 351.432 254.261 356.91 256.613C366.559 260.754 375.751 272.235 386 273C387.812 279.434 396.937 281.821 403 282C404.909 289.017 411.326 291.578 416.101 296.354C424.631 304.886 437.891 317.157 443.201 327.975C446.407 334.508 450.748 348.609 458 351C458.06 356.448 459.289 364.713 464 368C460.149 381.027 471.178 395.477 473.726 408.09C477.43 426.42 474.672 451.711 471.675 470C470.774 475.5 467.474 479.1 465.616 484.093C457.856 504.939 448.808 522.007 435.629 540.015C430.571 546.926 423.007 552.447 419 560C432.395 552.259 438.12 539.509 447.284 528.039C493.135 470.654 486.261 379.943 445.085 322.255C437.037 310.98 428.649 296.676 417.942 287.746C408.045 279.492 389.798 272.81 384 261C371.935 259.475 362.417 253.278 350.91 250.414C346.416 249.296 341.573 250.344 337 249.536C318.615 246.288 301.714 243.247 283 243.011C273.444 242.89 253.873 240.829 247 249z"/>
<path style="fill:#bfb995; stroke:none;" d="M245 250C239.258 254.747 233.76 253.795 227.09 255.553C214.783 258.797 189.078 268.237 185 281L207 269.934L246.039 254.839L259 253.624L313 249L293 245.961L260.001 246.322L245 250z"/>
<path style="fill:#afb381; stroke:none;" d="M288 249L288 250C322.18 250 355.656 258.32 383 279L386 273C375.448 271.408 367.276 260.056 356.91 256.249C351.725 254.344 346.287 255.67 341 254.621C322.59 250.969 306.9 248.61 288 249z"/>
<path style="fill:#a2a369; stroke:none;" d="M268 250L268 251L288 251L268 250z"/>
<path style="fill:#7a8237; stroke:none;" d="M245 257C242.325 254.153 224.072 263.058 220.259 265.056C205.295 272.895 190.233 278.163 175.94 287.532C169.07 292.036 159.695 297.473 158 306L161 305L157 309L157 316L162 315C163.057 311.508 164.418 310.568 168 310C168.892 304.516 176.854 297.801 182 296L182 292L183 292L193 292L192 287L208 285L208 282L211 283L210 280L219 283L220 283C222.894 277.469 232.94 266.205 239 272L234 272L234 273C238.326 272.874 242.406 272.447 244 268L271 268L270 271C273.321 269.901 273.737 268.41 274 265L277 267L286 264L285 260L290 259L290 263L294 259C295.106 264.159 303.71 262.639 308 263L306 260C312.887 262.606 315.546 264.241 323 263L322 260L326 264L331 261L330 265L339 263L338 265L342 271L347 270L347 274L351 272L352 275L355 274L365 277L364 280L369 281L368 286L369 286L371 282L373 284L387 288L388 294L389 294L391 292L393 293L403 302L402 299C404.596 301.566 406.223 304.67 410 303L411 309L418 316C421.801 317.172 423.084 319.189 424 323C426.853 324.573 430.056 331.086 433 328L436 329C437.35 322.573 431.53 319.054 427.583 314.778C417.782 304.16 408.299 295.313 397.611 285.972C395.05 283.734 384.826 270.478 383 279C377.438 273.159 371.888 272.039 365.09 268.401C339.014 254.45 312.791 249.656 283 250.961C271.075 251.483 255.67 251.448 245 257z"/>
<path style="fill:#969b58; stroke:none;" d="M245 254L245 255L262 254L245 254z"/>
<path style="fill:#dbe0f4; stroke:none;" d="M111 255L106 264C99.7315 263.198 95.4504 268.216 94 274L80 284L80 288C70.2184 289.494 70.1722 300.085 63 304L64 307L60 307L50 327L42 346L36 346C34.8977 352.614 29.6483 362.528 26 368C23.3894 371.916 24.1569 378.372 23 383C22.1371 386.451 19.3145 389.634 18 392C17.0024 393.796 18.9217 397.157 18 399C15.3608 404.278 14 412.753 14 420C14 425.179 14.8364 445.959 11 445L11 496L8 496L4.17361 477L4.00386 447L6 415L5 415C1.76965 440.561 1.67081 464.642 4.71451 490C5.59249 497.315 4.88657 504.866 7 512C9.41899 509.121 14.1259 498.554 18 504L28.0401 496.804L64 485L68 488C65.083 474.992 79.0673 476.018 89 473C79.7757 447.691 81.7178 412.786 87.8989 387C90.7034 375.3 96.2588 363.835 98 352L101 354L102 350C98.1077 350 103.352 343.279 104.333 341C108.104 332.242 114.359 325.122 117 316L114 320L113 320C113.835 314.021 116.576 309.903 109 308L109 307L112 305L99 306L101 302L96 301L89 304L88 292L92 288L96 288L101.194 271.279L107.259 267.066L116 255L111 255z"/>
<path style="fill:#4e5311; stroke:none;" d="M245 255L245 257L247 257L247 255L245 255z"/>
<path style="fill:#3e4800; stroke:none;" d="M288 259L288 261L290 261L290 259L288 259z"/>
<path style="fill:#a2aa57; stroke:none;" d="M292 259L291 263L285 260L286 264L277 267L274 265L270 271L271 268L244 268L240 272L240 273C245.371 273.639 247.662 274.718 252 271C252.659 275.417 264.058 274.256 268 275C270.2 272.899 274.651 270.112 277.871 270.165C280.875 270.215 282.66 273.588 285.929 273.682C294.625 273.932 307.029 270.854 315 276L316 276L317 276L321 274L320 276L329 275L332 280L333 280L334 278L335 278L340 279L341 284C346.347 282.292 350.169 284.702 355 287L355 288L353 291C361.473 290.293 364.196 293.19 371 297L369 299L369 300L374 298C377.806 304.649 387.682 306.558 387 315L391 315L389 319L393 319L395 325L398 325L398 318L399 318L400 324L403 324L403 320L407 320L408 320L410 326L417 329L416 337L412 336L412 340L413 340L415 338L417 345L422 344C424.334 347.74 427.751 348.617 432 349L432 350L429 350L429 353L432 354L425 354L425 356L435 356L436 356L437 364L433 362L440 366C439.232 369.688 439.199 371.735 443 373L445 385L452 388L447 387L451 390L449 396L453 395L452 399L454 406L457 405C459.281 409.033 465.03 412.278 459 416C461.911 422.196 456.96 432.082 465 435L464 448L461 447L458 450L461 463L461 469L456 481L461 481L458 483C457.109 489.308 454.935 496.824 449 500L446 523C459.79 516.132 464.204 488.511 467.295 475.039C475.319 440.065 473.134 404.126 462.049 370C458.221 358.216 446.753 346.983 445 335L433 328L424 323C423.439 318.85 422.254 316.722 418 316C417.1 311.749 415.196 310.022 411 309L410 303L408 305L402 299L403 302L393 293L388 294L387 288C383.07 288.187 380.111 288.144 379 284L373 284L373 282L371 282L369 286L368 286L369 281L364 280L365 277L351 272L347 274L347 270L342 271C342.137 267.44 341.427 266.089 338 265L339 263L330 265L331 261L326 264L322 260L323 263L306 260L308 263C303.148 262.188 296.958 263.58 294 259L292 259z"/>
<path style="fill:#c4c4d0; stroke:none;" d="M422 261C421.197 264.816 418.611 267.708 415 265L411 268L421 277L422 277L424 271C429.904 270.343 433.457 265.828 439.005 265.204C451.786 263.766 460.101 274.609 470 280L482 299L486 299C486.371 306.239 489.885 322.948 496 327C493.684 336.19 500.183 348.62 501.571 358C503.601 371.717 501.344 384.076 498 397L496 395L495 395C495.105 399.002 493.156 402.192 493.144 406.04C493.059 432.941 493.927 458.875 485.402 485C482.016 495.377 479.237 507.197 474.779 517C471.476 524.26 464.553 532.186 463.225 540C461.571 549.733 463.792 561.268 464.834 571C467.364 594.626 472.804 619.274 473 643L474 643L474 640L475 640L475 643L476 643L476 631C486.873 629.112 486 608.261 486 600L493 598L493 602L494 602C497.602 589.183 498.352 575.976 493 564C500.565 567.103 499.868 580.023 499.241 587C498.922 590.547 497.701 596.46 502 597L502 603C511.783 602.886 519.317 598.297 520 588C526.146 587.516 526.211 583.646 529.569 579.449C535.731 571.749 540.999 570.646 541 560C546.109 558.387 546.289 553.785 547.08 549C548.696 539.229 550.914 528.827 550 519C556.26 514.009 555.058 503.063 555 496L558 496C558 471.382 559.319 446.48 555.79 422C552.363 398.228 542.605 375.878 533.155 354.17C531.09 349.425 531.793 343.954 529.402 339.478C526.314 333.697 519.768 329.464 515.964 323.985C512.54 319.052 510.472 313.024 504 312L504 306L484 287C483.423 283.526 482.474 282.577 479 282C476.439 271.548 460.667 271.372 456 262L443 259.158L422 261z"/>
<path style="fill:#9f9795; stroke:none;" d="M433 269L453 269C448.418 265.764 435.243 261.332 433 269z"/>
<path style="fill:#c0bbb8; stroke:none;" d="M437 267L437 268L445 268L437 267z"/>
<path style="fill:#b2aaa8; stroke:none;" d="M450 269L450 270C464.644 275.5 469.642 288.121 477 301L478 301L477 296L478 296L482 316L483 316L482 309C487.86 312.756 489.945 327.365 490 334L492 333C492 340.798 494.998 348.392 494.625 356C493.833 372.138 489.011 385.817 493 402L495 402L495 395L496 395L498 397C503.201 384.224 503.884 367.707 501.041 354C499.312 345.667 494.681 335.43 496 327C490.199 321.355 486.803 307.056 486 299L482 299L470 280C463.669 275.05 458.73 268.166 450 269z"/>
<path style="fill:#9da751; stroke:none;" d="M224 278C229.154 277.778 236.856 277.506 240 273L234 273L234 272L239 272C235.287 266.338 225.659 273.258 224 278z"/>
<path style="fill:#bfcc7d; stroke:none;" d="M268 277L266 274C261.279 274 251.011 274.955 252 271L224.054 278.613L205 289L205 297L200 299L198 294L202 296L201 292L197 292C193.413 295.318 187.051 294.371 183 292L182 292L182 296C176.347 297.174 168.468 304.117 168 310L153 319L144 337L137 337L138 345L135 345L135 341L132 341L132 335C124.978 338.985 119.192 355.248 116.639 362.834C108.416 387.27 94.7096 419.468 107 445L110 444L111 448L108 447C108.149 453.33 109.794 458.333 117 457L116 453C119.444 450.975 118.054 438.798 114 438L113 432L116 433C115.311 429.219 114.505 426.274 118 424L115 414L118 410L115 411L119 399L117 399L118 395L119 395L119 398L120 398L120 390C126.753 389.685 129.733 386.637 131 380L121 389L124 376L128 377L128 371L125 372L128 364L140 357C138.814 350.204 144.153 348.848 147.251 343.776C153.057 334.27 166.163 308.207 179 308C179 304.828 181.375 305.447 184 306L184 302L189 304L192 302L189 308L193 308L193 309L190 311L199 312L200 312L199 308L205 312L205 307L211 308L209 304L211 303C216.107 302.912 224.118 301.513 227 297L229 299C243.099 293.726 258.094 286.179 274 289C282.306 284.173 305.404 289.154 313.718 293.299C319.297 296.081 327.081 303.944 333 301L333 305C338.128 305.018 342.316 305.159 345 310C353.827 312.086 361.299 325.963 370 324L369 328L380 339L377 342L385 343L384 346L388 347L388 352L391 351L395 362L401 360L403 373C414.928 379.421 410.082 404.957 422 410L420 422L424 422L424 427L432 432L428 431C428.733 444.151 432.2 471.157 420 479L423 482L429 484L426 483L423 495L427 495L427 496L420 496L422 501L416 501L418 510C417.018 514.029 422.823 526.266 426 529L426 530C419.82 532.206 412.522 527.941 408 534L407 534C402.76 529.651 393.101 536.445 388 537L387 547L393 545L400 548L404 545L401 560L394 561L394 563C398.016 563.651 398.984 565.065 398 569L401 572L384 575C380.824 578.763 378.479 578.345 374 577L377 586C397.579 582.121 413.738 565.175 427.332 550.258C434.615 542.266 443.462 532.91 448 523L446 523L450 505L440 507C443.099 502.91 445.737 501.561 445 496L449 496L453 491L452 481C456.102 478.126 458.416 471.125 452 470L453 453L456 454L457 450C453.039 450 455.45 445.825 458 445L452 443L454 440L450 439L451 444L449 440L444 432L453 432L452 437L456 437L454 431L457 432L451 422L444 429C443.186 422.844 441.365 410.092 435 408L440 403C441.635 408.368 443.43 413.004 449 415C450.831 411.408 451.248 408.491 447 407L448 412L447 412L445 405C447.742 403.428 446.841 401.609 444 401L446 391L441 392L443 386L440 386L440 382L445 382L443 373C439.799 371.194 439.597 369.58 440 366L433 362L437 364L436 356L435 356L425 356L425 354L432 354L429 353L429 350L432 350L432 349L422 344L417 345L415 338L413 340L412 340L412 336L416 337L417 329L410 326L408 320L407 320L406 322L405 322L405 320L403 320L403 324L400 324L399 318L398 318L398 325L395 325L393 319L388 316L391 317L387 315C388.656 307.008 378.537 303.491 374 298L369 300C368.173 290.962 360.93 289.692 353 291L355 288L355 287C350.468 284.117 346.167 281.461 341 284L340 279L333 280L332 280L329 275L320 276L321 274L317 276L316 276C307.986 270.604 294.839 273.788 285.929 273.397C282.641 273.252 280.988 269.67 277.875 269.623C273.5 269.556 268.672 272.908 268 277z"/>
<path style="fill:#555056; stroke:none;" d="M422 278L431 284C430.21 277.744 429.794 274.29 435 270C436.513 276.355 434.37 284.048 436.938 290C441.062 299.556 451.703 307.352 457.653 316C471.037 335.455 480.693 355.581 488 378C490.591 371.826 489.031 362.666 488.999 356C488.881 331.485 481.302 300.376 465.764 281.04C456.773 269.852 429.618 260.43 422 278z"/>
<path style="fill:#ebe7e8; stroke:none;" d="M424 273L428 271L424 273z"/>
<path style="fill:#262427; stroke:none;" d="M436 289L435 270C427.557 274.176 429.066 284.955 436 289z"/>
<path style="fill:#ccc7a9; stroke:none;" d="M161 294C173.899 292.938 184.007 282.799 190 272C180.315 274.61 165.584 285.016 161 294z"/>
<path style="fill:#e0dadc; stroke:none;" d="M456 272L463 277L456 272z"/>
<path style="fill:#3a4200; stroke:none;" d="M353 274L353 276L355 276L355 274L353 274z"/>
<path style="fill:#838931; stroke:none;" d="M266 275L266 277L268 277L268 275L266 275z"/>
<path style="fill:#adb262; stroke:none;" d="M210 280L211 283L208 282L208 285L207 285L192 287L193 292L188 292L188 293C191.519 294.819 194.509 295.527 197 292L205 293L206 292L205 289L219 283C216.799 279.116 214.08 279.94 210 280z"/>
<path style="fill:#adb27c; stroke:none;" d="M391 279C394.518 285.307 401.54 290.063 408 293C404.865 286.628 397.923 280.541 391 279z"/>
<path style="fill:#ecedf2; stroke:none;" d="M411 281L443.211 314.79L456 334L459 334C459.253 344.767 468.334 354.65 471.62 365C474.805 375.033 472.852 383.745 474.13 393.91C475.095 401.589 478.515 409.075 478.957 417C483.364 496.135 429.974 580.31 352 601L352 602L368 602L366 600L366 599C370.994 598.669 386.916 593.816 388 589C396.898 588.049 406.897 585.166 410 576L416 576L416 579L421 578L421 581L422 581C470.675 535.623 495.623 480.847 493.985 414C493.614 398.847 486.759 384.79 486 370L485 370L485 374L484 374L483 371L482 371L483 376C477.167 369.982 471.796 355.193 474 347L470 347L467 337L466 337L466 342L465 342L461 327L457 325L460 322L457 323L443 302L428 295C428.691 288.439 417.49 276.713 411 281z"/>
<path style="fill:#babd8e; stroke:none;" d="M398 282L398 283L432.829 320.714L445 335L462 371L463 371L464 369L464 368C460.014 363.8 458.166 356.722 458 351C449.705 346.472 447.041 332.782 442.165 325.174C435.72 315.116 424.63 303.966 416.101 295.594C411.384 290.964 405.818 288.365 403 282L398 282z"/>
<path style="fill:#91953e; stroke:none;" d="M237 284L237 286L239 286L239 284L237 284z"/>
<path style="fill:#919297; stroke:none;" d="M430 284L431 285L430 284z"/>
<path style="fill:#3e4803; stroke:none;" d="M378 285L381 288L378 285z"/>
<path style="fill:#87888d; stroke:none;" d="M431 285L432 286L431 285z"/>
<path style="fill:#d9e4a2; stroke:none;" d="M274 289C260.061 285.72 243.305 292.43 230.985 297.791C225.578 300.144 217.709 299.37 218 307C211.146 311.004 213.681 327.516 220 331C216.817 323.471 217.222 313.303 222.023 306.316C223.84 303.673 227.2 303.79 229 301L232 302C237.578 294.673 247.577 293.916 256 295C259.116 290.192 268.67 290.002 274 290C285.293 289.995 295.958 290.44 306.985 293.135C313.351 294.691 316.902 299.532 324 298C312.259 291.028 301.184 289.905 288 288.131C284.032 287.597 276.919 285.911 274 289z"/>
<path style="fill:#8f8e94; stroke:none;" d="M434 288L435 289L434 288z"/>
<path style="fill:#9b9aa0; stroke:none;" d="M435 289L436 290L435 289z"/>
<path style="fill:#e4e7bc; stroke:none;" d="M256 292L256 294C274.978 293.948 290.243 292.253 309 297.635C313.878 299.035 322.675 304.622 325 298L293 290.209L256 292z"/>
<path style="fill:#dde598; stroke:none;" d="M201 292L202 296L198 294L200 299L205 297L201 292z"/>
<path style="fill:#f2f4e9; stroke:none;" d="M244 297L244 300C234.964 300.65 222.736 308.917 225 319L221 319L225.893 333.686L245.845 337.549L284 347L280 344C284.504 335.832 294.9 342.704 299 348L288 352L288 353L294 357L310 371L310 375C317.742 377.239 319.047 387.388 322.29 393.896C326.963 403.275 331.07 411.539 331.91 423C332.723 434.089 330.192 446.184 333 457L330 458L324.83 417L320 400L317 400C316.192 391.949 310.732 379.431 303 376L304 373L299 368L295 368C292.247 359.421 281.038 360.424 274.286 357.321C269.285 355.022 266.832 351.322 261 351L278 393L283 393C278.95 414.816 295.947 428.132 304 446L301 445C297.381 450.013 279.324 445.76 273 446.039C261.312 446.556 250.351 450.599 239 452.558C224.66 455.033 210.394 454.799 196 456L197 449C191.554 446.798 187.217 441.011 181.958 439.588C167.704 435.73 173.761 455.759 177.844 461.367C186.334 473.026 204.625 480.778 218.039 485.076C249.348 495.108 279.129 479.363 310 480L310 482C303.881 482 290.116 481.759 288 489L276 492C269.536 503.218 250.667 494.472 240 499L240 495L193 484L195 490C205.492 493.451 211.525 503.81 221.04 508.83C226.206 511.555 232.786 510.977 235 517L237 515C251.373 519.031 266.819 517.006 281.039 515.874C286.208 515.463 291.601 516.792 296.715 515.545C308.879 512.577 329.258 502.586 341 506L340 510C330.667 508.861 321.207 515.164 312.91 518.741C307.439 521.1 298.798 522.537 292.91 523.726C274.203 527.504 253.114 520.646 235 526C237.454 530.924 242.262 532.423 246.715 535.29C262.107 545.202 282.358 544.702 300 545.911C306.636 546.365 319.394 547.702 324 542C336.54 547.305 348.627 533.519 362 536L370 529L369 532L371 530L390 526.147L416 524C415.909 516.323 403.432 502.203 413 496L411 486L414 486L415 472C422.719 469.744 424.964 454.099 415 453L416 443L408 440L408 439L413 439L413 433L422 432L422 429L421 419L417 419L417 412C419.324 409.694 417.461 406.999 416.951 404C415.57 395.883 412.492 385.506 405 381C404.808 376.774 403.185 372.499 399 371L399 363L393 361L390 365C393.971 353.863 383.536 349.152 376 343L374 344C367.701 332.17 348.419 325.708 345 313C338.425 312.639 337.822 308.56 332.791 305.634C327.275 302.427 320.993 300.805 314.961 298.934C289.635 291.08 269.644 293.23 244 297z"/>
<path style="fill:#455002; stroke:none;" d="M389 292L389 294L391 294L391 292L389 292z"/>
<path style="fill:#afb076; stroke:none;" d="M157 304L169 294C161.642 291.369 158.283 297.885 157 304z"/>
<path style="fill:#eaf0ce; stroke:none;" d="M232 302L229 301C227.024 303.03 223.699 303.496 222.023 305.599C213.877 315.821 219.217 327.021 223 337L229 336L232 341C239.827 342.965 242.251 345.9 249 340L226.573 333.686L221 319L225 319C224.28 309.102 234.778 301.32 244 300L244 297L253 295C246.873 292.151 234.994 296.06 232 302z"/>
<path style="fill:#dadbd5; stroke:none;" d="M422 293C427.043 303.538 438.345 313.24 445.085 323.114C457.064 340.663 465.927 360.074 473 380L474 380C477.857 363.014 459.812 349.613 459 334L456 334C455.625 329.243 452.451 326.968 450.085 323.024C444.069 312.994 432.54 298.284 422 293z"/>
<path style="fill:#ccc7aa; stroke:none;" d="M159 294C152.305 303.962 137.324 313.975 136 326L140 325L161 294L159 294z"/>
<path style="fill:#8c8281; stroke:none;" d="M477 296L479 307L480 307C480.942 302.496 480.147 299.382 477 296z"/>
<path style="fill:#88934f; stroke:none;" d="M227 297L227 299L229 299L229 297L227 297z"/>
<path style="fill:#8a8e41; stroke:none;" d="M369 297L369 299L371 299L371 297L369 297z"/>
<path style="fill:#f1f1a9; stroke:none;" d="M188 301L192 300L194 304L197 299C193.14 297.903 190.845 298.096 188 301z"/>
<path style="fill:#dbe4a3; stroke:none;" d="M325 301L325 302L333 305L333 301L325 301z"/>
<path style="fill:#eff0ac; stroke:none;" d="M184 302L184 306L178 306L179 309L176 310L176 311L182 307L187 308L188 302L184 302z"/>
<path style="fill:#f2f3af; stroke:none;" d="M188 306L192 302L188 306z"/>
<path style="fill:#ccd88c; stroke:none;" d="M211 303L211 305L209 304L211 308L205 307L205 312L199 308L200 312L199 312C196.573 308.247 193.754 310.166 190 311L193 309L193 308L188 304L187 304L187 308L182 307L176 311L176 310L179 309L179 308L174 308C175.777 313.342 181.394 311.752 186 311L186 312L184 314L198.339 316.333L203 324L209.451 339.001L217.853 366L227 384L230 383L229 379L232 379L227 347L238 346C236.943 342.508 235.582 341.568 232 341L229 336L223 337C220.753 327.822 207.094 316.624 218 307L218 302L211 303z"/>
<path style="fill:#9daa52; stroke:none;" d="M140 325C132.577 327.269 132.004 334.268 132 341L135 341L135 345L138 345L137 337L144 337L153 319L161 316L161 315L157 316L157 309L161 305L158 306C153.605 301.481 140.376 320.222 140 325z"/>
<path style="fill:#e6ecc8; stroke:none;" d="M333 305L333 306C337.242 310.126 338.618 312.845 345 313L353.312 323.055L374 344L376 343C382.488 350.933 392.795 352.912 390 365L393 361L395 362L391 351L388 352L388 347L384 346L385 343L377 342L380 339L369 328L370 324L345 310C343.167 304.506 338.012 305.004 333 305z"/>
<path style="fill:#a7aa95; stroke:none;" d="M255 306L255 307L258 307L255 306z"/>
<path style="fill:#6b6e5b; stroke:none;" d="M255 307L255 310L258 310L258 307L255 307z"/>
<path style="fill:#9d9191; stroke:none;" d="M482 309L483 322L484 322L484 320L485 320L489.385 344L491 375L490 375L490 371L489 371L490 387L491 387L494.821 355L492 333L490 334L485 309L482 309z"/>
<path style="fill:#d7dc8a; stroke:none;" d="M171 311C165.599 316.647 165.675 319.417 166 327L171 328L173 326L172 323C174.851 322.386 174.854 321.697 174 319L169 318L169 317L174 316L173 311L171 311z"/>
<path style="fill:#e8eba4; stroke:none;" d="M172 312L174 316L169 317L169 318L174 319L175 323L176 323C177.487 317.426 181.361 315.033 186 312L172 312z"/>
<path style="fill:#7d8941; stroke:none;" d="M195 311L195 313L197 313L197 311L195 311z"/>
<path style="fill:#d2d3d7; stroke:none;" d="M44 313L40 322L44 313z"/>
<path style="fill:#818473; stroke:none;" d="M334 313L334 315L336 315L336 313L334 313z"/>
<path style="fill:#ecf3d4; stroke:none;" d="M174 331L163 320L152 336L161 328C164.005 332.42 174.683 340.401 180 341L177 328L180 328C180.548 324.654 185.678 319.931 181 319L181 318C189.595 318 197.778 318.711 201 328L202 328L203 324C200.809 321.543 200.615 316.716 197.642 315.131C184.999 308.393 174.287 318.744 174 331z"/>
<path style="fill:#787e28; stroke:none;" d="M388 316L388 318L390 318L390 316L388 316z"/>
<path style="fill:#9ba662; stroke:none;" d="M202 317L205 320L204 317L202 317z"/>
<path style="fill:#849046; stroke:none;" d="M210 317L210 319L212 319L212 317L210 317z"/>
<path style="fill:#f9f9f7; stroke:none;" d="M181 318L181 319L184 319L180 328L177 328L180 341L161 328C147.411 339.158 148 350.718 148 367L160 378C167.292 378.535 173.835 383.135 181.015 384.405C200.113 387.784 219.181 385.587 234 401C218.368 396.692 201.249 388.134 185.019 397.34C165.824 408.229 192.096 437.334 204 442.726C222.201 450.971 248.633 438.675 267 436.289C276.541 435.05 284.667 438.923 294 439C293.336 429.508 283.839 421.126 279.785 412.871C274.931 402.986 273.196 391.281 268.656 381.289C262.536 367.822 247.109 355.632 233 353L239 387L237 384C231.354 387.985 238.93 397.265 241 402C232.82 397.589 229.748 387.856 226.199 380C223.838 374.774 220.046 370.209 217.853 365C209.544 345.259 207.008 318 181 318z"/>
<path style="fill:#a8b46a; stroke:none;" d="M208 320L208 322L212 322L212 320L208 320z"/>
<path style="fill:#e6dbd9; stroke:none;" d="M484 320L484 324L485 324L484 320z"/>
<path style="fill:#dde5b4; stroke:none;" d="M172 323L173 326L171 328L166 327L166 328L174 331L175 323L172 323z"/>
<path style="fill:#b9bab4; stroke:none;" d="M267 324L267 326L269 326L269 324L267 324z"/>
<path style="fill:#cbcca0; stroke:none;" d="M126 342L127 342L134 329C128.958 331.519 126.955 336.625 126 342z"/>
<path style="fill:#e0d2cf; stroke:none;" d="M486 330L486 334L487 334L486 330z"/>
<path style="fill:#e6ecc6; stroke:none;" d="M206 332L210 347L211 347L206 332z"/>
<path style="fill:#808c42; stroke:none;" d="M213 333L213 335L215 333L213 333z"/>
<path style="fill:#9da186; stroke:none;" d="M290 333L290 336L293 336L293 333L290 333z"/>
<path style="fill:#a99e9a; stroke:none;" d="M486.333 334.667L486.667 335.333L486.333 334.667z"/>
<path style="fill:#e0d5d1; stroke:none;" d="M487 334L487 339L488 339L487 334z"/>
<path style="fill:#737f33; stroke:none;" d="M385 336L384 337L384 338L384 339L387 336L385 336z"/>
<path style="fill:#eaf2c3; stroke:none;" d="M150 337C146.041 347.371 144.573 353.708 146 365L148 365L152 337L150 337z"/>
<path style="fill:#a9ac9b; stroke:none;" d="M344 338L343 342L346 338L344 338z"/>
<path style="fill:#d8e2a3; stroke:none;" d="M227 347L228 358L229 358L229 349C257.567 349.003 266.247 379.135 279 399L280 399C279.638 386.754 271.043 360.283 258 356L258 349L283 350L277 344C269.402 345.169 263.543 342.775 257 339L256 342C250.584 339.068 233 343.883 227 347z"/>
<path style="fill:#abb674; stroke:none;" d="M254 342L257 339L254 342z"/>
<path style="fill:#b3a7a7; stroke:none;" d="M487 339L490 375L491 375C490.639 366.59 493.849 344.762 487 339z"/>
<path style="fill:#e1e9ba; stroke:none;" d="M280 344L284 347L277 345L277 346L283 350L258 349L258 356L263 359L261 351C266.289 351.593 268.833 355.158 273.428 357.321C280.769 360.776 290.607 359.76 295 368L299 368L304 373L303 376C310.256 380.694 315.552 391.624 317 400L320 400C320.411 405.915 323.968 410.948 324.714 417C325.834 426.097 324.634 434.946 326.487 444C327.458 448.744 326.562 457.108 333 457C331.595 446.38 332.124 435.685 331.996 425C331.94 420.345 331.943 414.732 327 413L328 400C322.605 399.752 323.226 395.475 321.545 391.285C318.515 383.733 316.069 378.332 310 373L307 374C306.55 367.872 300.258 358.297 294 357L288 353L288 352L299 348C296.139 342.417 282.95 335.113 280 344z"/>
<path style="fill:#bcc39a; stroke:none;" d="M374 340L374 342L376 342L376 340L374 340z"/>
<path style="fill:#9b9798; stroke:none;" d="M474.333 342.667L474.667 343.333L474.333 342.667z"/>
<path style="fill:#acb485; stroke:none;" d="M273 343L273 345L276 345L276 343L273 343z"/>
<path style="fill:#d2d5c2; stroke:none;" d="M345 343L349 346L345 343z"/>
<path style="fill:#c4d48b; stroke:none;" d="M144 346C140.35 350.72 138.889 352.923 140 359L128 364L125 372L128 371L128 377L124 376L121 389L131 380C129.11 386.072 126.512 389.407 120 390L120 398L119 398L119 395L118 395L117 399L119 399L115 411L118 410L115 414L118 424C113.557 424.952 115.049 429.465 116 433L113 432L114 438C117.478 440.633 118.164 449.344 116 453L117 457C113.62 458.045 112.244 457.798 110 455L109 455L121 501L122 501L124 499C125.912 501.921 127.696 501.69 131 501L130 507L131 511L132 511L135 509L133 512L141 516C139.697 522.111 142.876 524.855 146.252 529.441C150.278 534.91 152.604 540.758 157.591 545.588C161.771 549.637 169.018 553.595 171 559L165 558C167.985 562.525 176.242 561.073 181 560L180 563C192.671 575.703 206.413 581.824 223.001 588.514C230.401 591.499 238.91 595.759 247 594L251 600L262 602C264.594 600.225 265.772 600.903 268 603L269 600L272 601C270.382 613.36 292.781 610.047 300 610.001C322.846 609.854 346.974 604.521 367 593.644C372.501 590.657 380.229 590.532 384 585L377 586L374 577C378.312 578.812 381.519 579.495 384 575L401 572L398 569L400 567L394 563L394 561L401 560C405.191 553.737 404.464 552.158 404 545L400 548L393 545L387 547L390 544L388 537L407 534L408 534L426 530L426 529L418 515L417 515C417.453 518.002 421.63 523.984 420.759 526.516C419.638 529.776 408.785 528.545 406.004 528.864C398.769 529.695 376.275 536.729 373 543L372 543L371 543L369 541L356 548L354 544L354 549C350.406 548.275 340.776 548.397 340 552L327 551L324 557L321 557L321 554L320 554C314.718 557.57 307.686 551.119 307 560L293 558L294 554L291 557C284.02 557.299 272.975 560.348 269 553L257 552L256 547L259 544L236 540L236 537L224 535L225 529C220.026 529.017 216.006 525.414 214 521L198 519L197 519L187 502L190 499L208 508L208 507L203 506L205 504L205 503L200 501L192 493L185 492C184.187 487.168 180.712 484.716 176 484L176 483L178 480C173.265 477.59 166.815 471.549 167 466L164 462L175 462C172.608 455.518 167.291 458.587 162 460L162 453L165 453L165 456L166 456L168 449L168 448C164.501 444.174 163.134 427.037 169 432L174 430C175.742 434.734 178.371 434.807 183 434L174 407L180.148 395.514L217 392L217 391C209.588 386.476 201.383 388.218 193 387.985C180.364 387.635 161.07 383.967 152.708 373.639C145.213 364.38 148.05 355.652 144 346z"/>
<path style="fill:#a6a6a8; stroke:none;" d="M18 347C15.4523 352.727 6.17067 367.014 0 368L0 436L1 436L1 429L2 429L2 440L3 440C3 421.439 6.72818 400.806 12.7492 383.285C16.7902 371.527 23.3914 359.359 25 347L18 347z"/>
<path style="fill:#788631; stroke:none;" d="M130 347L130 349L132 349L132 347L130 347z"/>
<path style="fill:#ecf3c7; stroke:none;" d="M229 349L232 379L229 379C228.856 387.507 231.468 398.838 241 402L235 384L232 381L236 381L239 387L233 353C246.835 356.343 262.694 368.599 268.656 382.171C273.039 392.147 274.732 404.046 279.785 413.741C283.915 421.663 292.745 429.958 294 439L268 436.09L208 444L208 445C232.113 449.476 255.955 439 280 439C276.692 444.999 261.608 444.774 255 445.729C241.092 447.739 228.485 452.429 214 451.624C204.264 451.083 196.212 446.082 187 444L187 445L197 449L196 456C210.71 455.497 225.44 455.173 240 452.611C251.623 450.566 262.971 446.111 275 446C280.283 445.951 299.896 450.124 301 445L304 446C302.429 440.376 297.71 436.045 294.594 431.17C287.184 419.574 281.243 406.905 283 393C279.597 393.729 280.013 395.806 280 399C265.088 379.282 259.285 349 229 349z"/>
<path style="fill:#cbcdc2; stroke:none;" d="M330 349L330 351L332 351L332 349L330 349z"/>
<path style="fill:#c3c2c0; stroke:none;" d="M98 352C94.4408 367.526 88.2128 382.229 85.2446 398C82.915 410.378 84 423.462 84 436C84 447.867 83.7568 462.107 89 473C82.1738 474.644 74.4732 475.248 68.233 478.803C64.7699 480.776 66.022 484.818 69.8503 485.307C73.7213 485.802 78.8625 484 83 484L83 489L87 489C84.6047 493.881 85.6981 497.876 89 502L85 501L86 508C89.83 505.888 89.9508 503.16 90 499L91 499L94 502L92 496L97 497C95.9705 485.193 90.6814 473.629 88.2855 462C84.77 444.936 84.8941 425.358 86.0895 408C87.4389 388.406 97.5329 370.954 100 352L98 352z"/>
<path style="fill:#5e6d18; stroke:none;" d="M138 357L138 359L140 359L140 357L138 357z"/>
<path style="fill:#929a67; stroke:none;" d="M290 357L290 360L293 360L293 357L290 357z"/>
<path style="fill:#87924e; stroke:none;" d="M119 358L119 360L121 360L121 358L119 358z"/>
<path style="fill:#d9e3a6; stroke:none;" d="M395 362L395 363L399 363L399 371L405 381L409 386L410 386C408.996 381.124 408.172 374.676 403 373L401 360L395 362z"/>
<path style="fill:#65711d; stroke:none;" d="M438 361L438 364L440 364L440 361L438 361z"/>
<path style="fill:#b3b2b7; stroke:none;" d="M482.333 361.667L482.667 362.333L482.333 361.667z"/>
<path style="fill:#ebddda; stroke:none;" d="M490 361L490 370L491 370L490 361z"/>
<path style="fill:#a7aa99; stroke:none;" d="M340 364L340 366L342 366L342 364L340 364z"/>
<path style="fill:#b0b39e; stroke:none;" d="M344 366L344 369L347 369L347 366L344 366z"/>
<path style="fill:#dce5ac; stroke:none;" d="M148 367L148 368C160.355 380.614 171.543 386.422 190 387.907C194.73 388.287 203.187 390.288 206 386L179.09 383.791L160 378C158.484 373.742 152.29 368.316 148 367z"/>
<path style="fill:#adb586; stroke:none;" d="M307 374L310 371L307 374z"/>
<path style="fill:#91957c; stroke:none;" d="M384 371L383 375L387 374L387 372L386 371L384 371z"/>
<path style="fill:#9da76b; stroke:none;" d="M270 373L270 375L272 375L272 373L270 373z"/>
<path style="fill:#ada7a9; stroke:none;" d="M486 373L486 376L487 376L486 373z"/>
<path style="fill:#a29c9e; stroke:none;" d="M487.333 376.667L487.667 377.333L487.333 376.667z"/>
<path style="fill:#a8ac93; stroke:none;" d="M346 379L346 381L348 381L348 379L346 379z"/>
<path style="fill:#bbc77d; stroke:none;" d="M232 381L232 384L236 384L236 381L232 381z"/>
<path style="fill:#c9c8ce; stroke:none;" d="M12 382L12 390L13 390L12 382z"/>
<path style="fill:#aab966; stroke:none;" d="M440 382L440 386L443 386L441 392L446 391L444 401L445 405L447 412L448 412L447 407C450.621 409.133 450.312 411.292 449 415L440 403L435 408C441.054 411.243 442.562 422.55 444 429C447.904 427.885 449.926 425.931 451 422L457 432L454 431L456 437L452 437L453 432L444 432L449 440L451 444L450 439L454 440L452 443L458 445C455.03 445.636 453.5 450 457 450L456 454L453 453L452 470C458.148 471.843 455.439 477.465 452 481L453 491C449.859 491.946 448.931 492.708 449 496L445 496L440 507L450 505L448 501C454.401 498.198 458.48 489.821 458 483L461 483L461 481L456 481L461 469L461 463L458 450L461 447L464 448L465 435C457.227 430.312 463.381 422.519 459 416C466.641 413.765 459.538 408.202 457 405L454 406L452 399L453 395L449 396L451 390L447 387L452 388L445 382L440 382z"/>
<path style="fill:#cfc6c9; stroke:none;" d="M489 384L489 388L490 388L489 384z"/>
<path style="fill:#e3eac0; stroke:none;" d="M341 385C341.595 390.214 348.71 409.278 354 410L353 423L353 424L356 425L356 426C348.135 427.311 354.247 431.567 359 432C356.883 446.832 358.262 462.622 359.994 477.424C360.754 483.922 361.69 492.607 369 495L368 477C365.556 475.392 365.338 474.413 367 472L367 471C364.545 466.95 363.768 460.247 366 456L365 452L370 451L370 450L366 450L362 424L355.235 404.443L347 388L341 385z"/>
<path style="fill:#bcbea6; stroke:none;" d="M391 387L391 390L395 390L395 387L391 387z"/>
<path style="fill:#dee8ac; stroke:none;" d="M214 389L214 390L217 391L217 392C206.584 394.48 187.201 388.582 178.603 395.988C175.673 398.513 176.93 403.873 174 407L183 434C178.496 434.424 176.311 434.083 174 430L169 432C165.193 426.246 161.49 443.208 168 448L168 449L166 456L165 456L165 453L162 453L162 460C167.321 458.954 171.814 456.498 175 462L164 462L167 466C166.536 471.687 172.65 478.298 178 480L176 483L176 484C180.356 485.171 183.672 487.61 185 492L192 493L200 501L205 503L205 504L203 506L208 507L208 508L190 499L187 502L197 519L198 519L214 521C215.341 525.809 219.914 529.898 225 529L224 535L236 537L236 540L259 544L259 547L256 547L257 552L269 553C271.641 560.951 284.584 557.506 291 557L291 555L287 555L289 551L289 550C283.341 543.756 278.623 545.676 271.001 543.627C257.167 539.906 243.716 536.144 231.871 528.464C227.64 525.72 221.664 524.374 219 520L215 520L217 515L220 514C225.782 519.667 229.258 519.086 237 520C233.994 511.09 228.269 512.567 221.04 508.401C215.438 505.173 211.13 499.29 205.559 496.034C203.01 494.544 199.806 495.39 197.15 493.935C192.46 491.366 191.846 487.072 186 486L183 474L190 476C189.634 464.722 165.798 457.314 173.769 443.329C179.03 434.1 193.104 446.893 200 449.04C220.437 455.404 238.995 448.186 259 445.271C264.589 444.457 278.107 444.704 280 439C258.108 439 228.956 452.648 208 444.236C194.558 438.84 163.947 408.182 187.001 396.848C204 388.491 217.907 398.22 234 401C230.208 395.043 220.883 390.088 214 389z"/>
<path style="fill:#dcdcde; stroke:none;" d="M11 390L6 415L8 415L11 390z"/>
<path style="fill:#899647; stroke:none;" d="M426 390L426 393L429 392L429 391L426 390z"/>
<path style="fill:#566311; stroke:none;" d="M435 395L435 397L437 397L437 395L435 395z"/>
<path style="fill:#98a16c; stroke:none;" d="M323 397C324 400.036 324.863 400.494 328 400L328 398L323 397z"/>
<path style="fill:#b9c293; stroke:none;" d="M470 398L471.91 449L467 481L468 481C472.014 473.655 471.307 466.975 472.286 459C474.535 440.685 478.447 414.956 470 398z"/>
<path style="fill:#a3b068; stroke:none;" d="M131 399L131 401L133 401L133 399L131 399z"/>
<path style="fill:#7c8742; stroke:none;" d="M425 402L424 403L424 405L428 406L427 402L425 402z"/>
<path style="fill:#adbb6c; stroke:none;" d="M146 406L149 409L148 406L146 406z"/>
<path style="fill:#8a964a; stroke:none;" d="M421 407L421 409L423 409L423 407L421 407z"/>
<path style="fill:#dee8ab; stroke:none;" d="M419 409L417 412L417 419L422 420L421 409L419 409z"/>
<path style="fill:#b2bb86; stroke:none;" d="M327 410L327 413L330 413L330 410L327 410z"/>
<path style="fill:#d7e1a4; stroke:none;" d="M421 422L422 449C426.722 455.233 423.932 468.625 423 476C429.779 472.153 426.918 466.32 426.944 460C426.987 449.997 429.752 441.331 428 431L432 432L424 427L424 422L421 422z"/>
<path style="fill:#d2d3ce; stroke:none;" d="M278 424L281 427L281 426L278 424z"/>
<path style="fill:#a5a6a0; stroke:none;" d="M279 424L279 426L281 426L281 424L279 424z"/>
<path style="fill:#222f00; stroke:none;" d="M169 425L172 428L169 425z"/>
<path style="fill:#5c6923; stroke:none;" d="M172.333 426.667L172.667 427.333L172.333 426.667z"/>
<path style="fill:#95a25c; stroke:none;" d="M169 427L169 428L173 429L173 428L169 427z"/>
<path style="fill:#b7bba0; stroke:none;" d="M360 427L360 429L362 429L362 427L360 427z"/>
<path style="fill:#95847a; stroke:none;" d="M1 429L0 581L12 585L9 589L10 592L2 592L2 600L5 596L6 596L10 597L12 616L16 616C15.0703 623.348 15.171 627.041 24 628L24 632L32 638C30.4144 642.564 27.8849 649.483 35 651L34 647L36 654L42 653L44 657L35 656C38.0834 661.068 43.1482 663.931 49 664L53 670C51.194 678.413 56.4345 682.848 63 687L51 704C59.9247 720.224 40.052 720.851 40 736L44 736L42 741L38 740L38 751L28 749L28 751L32 751L31 758L17 758L17 759L24 759L24 760L19 762L19 784L12 785L14 795L10 792L12 799L12 800L0 800L0 846L252 846L255 832L256 832C257.984 828.183 257.984 825.817 256 822C259.459 820.515 257.906 819.407 256 817L260 817L254 811L254 810C264.443 810.418 266.82 805.691 270 796L264 795L264 793L273 793L273 789L274 789L274 792L275 792C274.691 776.931 274.257 761.942 294 766L293 762L302 762C304.129 758.203 306.186 759.154 310 760L311 757L313 763L316 763L323 755L321 763L321 764L328 764L328 760L325 761L326 748L341 747L340 743C345.883 745.163 346.151 751.351 346 757L352 752L351 745L357 740C345.177 736.603 327.195 742.459 315 744L315 745L318 746C307.487 748.51 296.66 747.533 288 755L289 759C286.563 758.972 286.697 759.556 287 762C281.668 762 275.332 757.938 272 763L271 760L269 760L266 763L264 758L269 757L269 756L259 756L253 763C252.531 754.458 247.202 754.621 240 754L240 758L230 758L231 761L214 760L214 763L205 761L206 765L196 765C196.201 760.233 197.807 755.972 192 755L194 759L191 758C188.884 761.526 178.856 763.577 180 759L168 761L170 757L166 757L166 760L162 760L162 756C157.111 756 152.61 756.686 149 753C154.605 751.799 151.113 744.784 150 741L146 741L145 745L140 744L132 736L134 733L130 733L130 731L134 731L134 730C129.734 730.14 124.9 732.286 130 736L130 737L122 736L122 732C119.15 732.146 113.418 731.907 114 728L112 725L120 725L113 718L110 720L112 714C107.788 711.72 108.581 708.343 108 704C102.711 702.895 98.3577 701.064 96 696L92 696C91.418 690.756 89.3124 688.374 84 688L85 684L79 684L77 676L72 676L76 672C73.7854 667.504 72.3022 664.419 67 664C65.4949 658.612 61.4485 653.543 56 652C54.8348 641.537 41.8582 631.611 36 622.911C18.3543 596.706 1.60302 568.188 9 536C2.50872 528.544 5.19705 515.997 4.86728 507C4.24569 490.04 0.917329 473.303 1.00077 456C1.04119 447.62 4.34031 436.96 1 429z"/>
<path style="fill:#e7edcb; stroke:none;" d="M416 433L416 437L408 439L408 440L411 443L412 443L416 440C416.001 450.597 427.34 464.481 415 472L413 496C402.729 498.201 415.979 519.065 416 524C401.215 524 382.284 525.451 369 532L370 529C365.953 530.053 362.791 531.75 362 536C348.243 532.725 337.248 546.096 324 542C314.41 549.859 297.332 545 286 545L289 550L289 551L287 555L294 554L293 558L307 560C308.302 551.782 315.384 558.114 320 554L321 554L324 557L327 551L340 552L354 544L356 548C360.594 545.958 366.995 545.991 369 541L371 543L372 543L373 543C377.674 537.003 397.288 530.356 405.015 529.119C408.691 528.53 418.397 530.419 420.914 527.187C422.538 525.103 416.988 514.405 418 510C415.806 506.999 416.098 504.144 418 501L421 485C420.597 481.42 420.799 479.806 424 478C423.25 470.969 427.529 453.831 422 449L422 432L416 433z"/>
<path style="fill:#55661f; stroke:none;" d="M110 433L110 435L112 435L112 433L110 433z"/>
<path style="fill:#4f610f; stroke:none;" d="M156 433L156 435L158 435L158 433L156 433z"/>
<path style="fill:#92a452; stroke:none;" d="M158.333 433.667L158.667 434.333L158.333 433.667z"/>
<path style="fill:#a3a78c; stroke:none;" d="M413 433L413 437L416 437L416 433L413 433z"/>
<path style="fill:#ccccca; stroke:none;" d="M376 443L380 438L376 443z"/>
<path style="fill:#314000; stroke:none;" d="M155 439L159 444L159 439L155 439z"/>
<path style="fill:#b0b78e; stroke:none;" d="M412 440L412 443L416 443L416 440L412 440z"/>
<path style="fill:#727e3c; stroke:none;" d="M113 441L113 443L115 443L115 441L113 441z"/>
<path style="fill:#819244; stroke:none;" d="M155 441L155 445L159 445L159 444L155 441z"/>
<path style="fill:#cccccc; stroke:none;" d="M314 441L314 445L317 441L314 441z"/>
<path style="fill:#a0a09e; stroke:none;" d="M400 443L400 445L403 445L403 443L400 443z"/>
<path style="fill:#8da15c; stroke:none;" d="M108 444L108 446L110 446L110 444L108 444z"/>
<path style="fill:#d5e6af; stroke:none;" d="M106 445L112 484L113 484L108 447L111 448L106 445z"/>
<path style="fill:#85944f; stroke:none;" d="M114 447L114 449L116 449L116 447L114 447z"/>
<path style="fill:#c5c3c4; stroke:none;" d="M1 448L1 480L2 480L1 448z"/>
<path style="fill:#919e4e; stroke:none;" d="M437 448L437 450L439 450L439 448L437 448z"/>
<path style="fill:#bcc0a5; stroke:none;" d="M415 450L415 453L417 453L417 450L415 450z"/>
<path style="fill:#b2b69b; stroke:none;" d="M365 452L369 456L369 451L365 452z"/>
<path style="fill:#ced2bb; stroke:none;" d="M369 451L366 456L366 457C370.319 456.663 372.005 455.415 371 451L369 451z"/>
<path style="fill:#70813b; stroke:none;" d="M112 458L112 459L115 459L112 458z"/>
<path style="fill:#a5b368; stroke:none;" d="M142 465L145 468L144 465L142 465z"/>
<path style="fill:#e8efc6; stroke:none;" d="M190 471L190 476L183 474L186 486C194.101 488.434 195.306 496.007 205 495L205 494L195 490L193 484L240 495L240 499C243.876 497.956 246.817 496.009 251.001 496.009C258.49 496.009 272.206 502.939 276 492L288 489C292.038 482.376 303.037 482 310 482L310 480C283.286 478.853 257.854 491.769 230.424 487.988C215.495 485.931 202.697 477.844 190 471z"/>
<path style="fill:#93a35c; stroke:none;" d="M120 473L120 475L122 475L122 473L120 473z"/>
<path style="fill:#727f2d; stroke:none;" d="M430 475L430 478L432 478L432 475L430 475z"/>
<path style="fill:#93a45d; stroke:none;" d="M119 477L121 480L119 477z"/>
<path style="fill:#909d55; stroke:none;" d="M133 477L136 480L136 479L133 477z"/>
<path style="fill:#67742c; stroke:none;" d="M134 477L134 479L136 479L136 477L134 477z"/>
<path style="fill:#bfc2ad; stroke:none;" d="M334 478L335 482L337 482L338 478L334 478z"/>
<path style="fill:#d0d1cc; stroke:none;" d="M346 479L346 482L350 482L350 479L346 479z"/>
<path style="fill:#869254; stroke:none;" d="M420 480L420 483L423 483L423 480L420 480z"/>
<path style="fill:#d3cfce; stroke:none;" d="M2 481L6 514L7 514L4 481L2 481z"/>
<path style="fill:#9eac5d; stroke:none;" d="M424 484L429 484C427.073 481.495 424.831 480.142 424 484z"/>
<path style="fill:#d2dca0; stroke:none;" d="M423 482C418.809 485.874 414.258 499.703 422 501L420 496L427 496L427 495L423 495L423 482z"/>
<path style="fill:#465119; stroke:none;" d="M446 482L448 485L449 482L446 482z"/>
<path style="fill:#c0c897; stroke:none;" d="M205 483L205 484L214 487L205 483z"/>
<path style="fill:#838d58; stroke:none;" d="M443 483L446 487L446 486L443 483z"/>
<path style="fill:#192200; stroke:none;" d="M444 486L447 483L444 486z"/>
<path style="fill:#dcdbd7; stroke:none;" d="M69 486L69 487L74 495L78 495L78 498C82.6917 499.436 82.477 502.592 83 507C69.5462 508.99 44.336 527.599 33 515L27 516L26 507L18 501C13.6712 501.701 11.9985 503.605 12 508L15 506C16.6056 513.783 15.8503 529.198 26 530L26 531L23 534C41.0003 528.222 59.1479 521.03 76.8958 514.468C82.5004 512.395 86.9183 506.697 85 501L89 502L86 500L87 489L83 489L83 484L69 486z"/>
<path style="fill:#cee0ae; stroke:none;" d="M113 484C113.388 497.355 123.433 509.793 130.664 520.25C138.78 531.988 146.698 554.62 162.081 559.151C164.692 559.92 168.219 558.821 171 559C169.881 553.864 163.084 549.782 159.169 546.306C152.358 540.258 140.07 525.301 141 516C133.601 513.536 129.445 508.709 131 501L124 499L122 501L121 501C120.061 494.641 117.881 488.368 113 484z"/>
<path style="fill:#f4f3f8; stroke:none;" d="M32 495C31.2127 497.921 28.9518 500.801 29.206 503.925C30.1628 515.684 49.4502 512.157 57 513L73 506L73 504L67 504C69.0395 497.1 68.0958 490.844 64 485L32 495z"/>
<path style="fill:#ece7e4; stroke:none;" d="M68 485L67 504L73 504L73 506L57 513C49.6055 511.398 30.9034 515.905 29.4606 503.925C29.1399 501.262 31.2908 498.496 32 496C26.2461 496.387 15.9229 505.245 26 507L27 516L33 515C36.5397 520.943 43.1389 520.214 49 518.385C60.2701 514.867 71.5797 509.651 83 507C82.7581 502.382 83.3107 498.883 78 498L78 495L74 495C73.6799 490.243 71.8298 487.725 68 485z"/>
<path style="fill:#b3b79c; stroke:none;" d="M411 486L411 488L413 488L413 486L411 486z"/>
<path style="fill:#94a253; stroke:none;" d="M429 486L429 488L431 488L431 486L429 486z"/>
<path style="fill:#a2a496; stroke:none;" d="M402 489L402 491L404 489L402 489z"/>
<path style="fill:#6d7b30; stroke:none;" d="M158 493L158 495L160 495L160 493L158 493z"/>
<path style="fill:#9aa65c; stroke:none;" d="M176 493L176 495L178 495L178 493L176 493z"/>
<path style="fill:#94a86b; stroke:none;" d="M125 495L125 497L127 497L127 495L125 495z"/>
<path style="fill:#8a984d; stroke:none;" d="M428 495L428 498L431 497L431 496L428 495z"/>
<path style="fill:#beb2a6; stroke:none;" d="M92 496L94 502L91 499L90 499C89.7777 505.845 83.5212 510.412 77.7909 513.687C68.0845 519.234 54.5795 521.338 44 525.169C35.7571 528.154 27.904 533.433 19 534L19 538L10 534C15.3721 547.703 23.1594 533.891 32 534C40.5744 526.02 57.6091 522.747 69 523L68 519C76.543 518.059 89.9106 512.553 91 503C95.7921 503.671 98.8512 506.768 101 511L102 511L98 497L92 496z"/>
<path style="fill:#b8bf95; stroke:none;" d="M203 496L203 498L205 498L205 496L203 496z"/>
<path style="fill:#79873a; stroke:none;" d="M163 499L165 502L165 499L163 499z"/>
<path style="fill:#99a75a; stroke:none;" d="M160 501L160 503L162 503L162 501L160 501z"/>
<path style="fill:#596a24; stroke:none;" d="M448 501L448 503L450 503L450 501L448 501z"/>
<path style="fill:#a1a09c; stroke:none;" d="M91 503C89.0839 512.279 76.4373 517.363 68 519L69 523C59.138 522.303 38.147 525.358 32 534L15 541C24.8262 556.563 53.5973 546.119 68 546C66.6272 555.832 61.9585 573.653 75.3395 578.487C81.744 580.8 89.2816 578.366 96 580.63C108.561 584.862 114.577 588.992 128 586L128 590L152 592L152 588L158 592L163 589L164 589C169.029 594.376 176.764 600.203 184 602L167.576 589.305L138 564L137 564L141 573L134 571L137 576L99 577C91.8959 565.548 76.9246 560.753 77 545C73.6729 545 62.3217 546.154 64 540C65.1037 535.953 70.633 539.759 72 536C73.7123 531.291 71.3691 524.701 76 522C78.2472 520.689 84.4416 520.078 86 518C86.8073 516.924 85.3471 514.197 86 513C87.6772 509.925 98.4352 507.109 98 507L91 503z"/>
<path style="fill:#9caa5d; stroke:none;" d="M177 503L181 505L177 503z"/>
<path style="fill:#9fa380; stroke:none;" d="M366 509L371 507C369.187 501.544 366.322 504.863 366 509z"/>
<path style="fill:#74864a; stroke:none;" d="M129 504L132 507L131 504L129 504z"/>
<path style="fill:#e8edc4; stroke:none;" d="M237 515L237 520L220 514L217 515L215 520L219 520C221.052 527.02 240.829 535.771 248 536L248 535L235 526L293.83 523.726L340 510L341 506C334.127 503.145 330.527 506.523 324 508.482C314.767 511.254 305.199 513.317 295.83 515.545C290.581 516.793 285.308 515.083 280.09 515.584C265.847 516.952 251.682 517.988 237 515z"/>
<path style="fill:#ced1b6; stroke:none;" d="M371 505L369 506L366 509L366 510C369.09 509.546 371.932 508.534 371 505z"/>
<path style="fill:#c1beb9; stroke:none;" d="M10 506L7 514L6 512L5 512L10 534L19 538L19 534L26 531L26 530C15.9418 528.373 17.1814 513.763 15 506L13 508L12 508L12 506L10 506z"/>
<path style="fill:#8f908b; stroke:none;" d="M96 506C93.8998 509.289 90.2394 509.083 87.5988 511.768C85.8024 513.594 85.7236 516.309 83.6829 518.009C80.7678 520.438 76.1932 520.807 74.0772 524.225C72.1888 527.275 72.9517 531.604 71.2978 534.853C69.9143 537.57 66.5007 537.268 65.1605 539.594C61.6628 545.666 74.4504 545 77 545C76.7402 560.184 89.7375 567.113 99 577L137 576L134 571L141 573C140.426 565.696 133.187 559.218 128.427 554.076C119.763 544.715 113.845 533.034 107.621 522C104.169 515.88 102.494 509.464 96 506z"/>
<path style="fill:#bdc1aa; stroke:none;" d="M386 506L386 510L389 506L386 506z"/>
<path style="fill:#d7d6d4; stroke:none;" d="M102 508C102.733 515.312 107.746 527.872 114 532C113.735 523.819 106.874 514.396 102 508z"/>
<path style="fill:#405512; stroke:none;" d="M132 509L132 511L134 511L134 509L132 509z"/>
<path style="fill:#788c47; stroke:none;" d="M134.333 509.667L134.667 510.333L134.333 509.667z"/>
<path style="fill:#8a984b; stroke:none;" d="M423 510L423 512L425 512L425 510L423 510z"/>
<path style="fill:#8b7a73; stroke:none;" d="M4 511C4.0545 517.584 3.40083 531.742 9 536C-0.159032 567.266 18.6735 598.76 36 623.83C41.9057 632.375 53.9558 641.868 56 652L67 664C71.9176 664.796 73.3825 668.091 76 672L72 676L77 676L79 684L85 684L84 688C88.9307 688.691 91.0479 691.185 92 696L96 696C97.591 701.564 102.605 703.338 108 704C108.037 708.651 106.794 712.402 112 714L110 720L113 718L120 725L112 725L114 728C111.632 732.254 119.38 732.401 122 732L122 736L130 737L130 736C126.514 731.94 129.634 730.333 134 730L134 731L130 731L130 733L134 733L132 736L140 744L145 745L146 741L150 741C150.913 745.445 153.548 750.048 149 753C151.739 757.224 157.43 756 162 756L162 760L166 760L166 757L170 757L168 761L180 759C180.777 764.205 188.993 761.127 191 758L194 759L192 755C197.073 756.575 196.079 760.409 196 765L206 765L205 761L214 763L214 760L231 761L230 758L240 758L240 754C246.765 755.173 252.095 754.899 253 763L259 756L269 756L269 757L264 758L266 763L269 760L271 760L272 763L273 760L287 762C286.47 759.351 286.572 758.393 289 759L288 755L318 746L318 745L249 743.561L206 735.946L174 727L174 726L176 726L176 725L171 723L158 719C151.071 719.693 143.787 715.024 137.83 711.753C124.99 704.704 112.557 694.102 99 689L101 685L97 685L97 684C99.5302 681.556 97.5883 679.507 95 678C93.6701 670.213 82.658 663.446 77.2994 657.834C66.1315 646.139 58.1274 632.369 49.2052 619C34.1567 596.451 22.6045 571.6 13.7963 546C9.94643 534.811 9.81254 521.362 4 511z"/>
<path style="fill:#606e23; stroke:none;" d="M167 511L170 514L167 511z"/>
<path style="fill:#a7a6ac; stroke:none;" d="M475 512C466.995 528.827 456.315 544.583 444 558.572C437.756 565.664 429.556 571.451 424 579L429 577L416 590L417 597C414.432 596.985 414.449 598.142 416 600L416 601L412 605L418 602C411.459 610.966 414.541 615.762 416.217 626C418.434 639.54 421.507 653.602 428.791 665.129C431.976 670.17 431.694 677.86 438 680L441 695L442 695C441.572 685.027 438.254 678.977 435.72 669.985C434.177 664.509 434.759 658.533 433.287 653C431.582 646.59 428.994 638.079 436 634L434 628L434 627L442 622L442 626L445 626L445 632L446 632C446.066 612.413 447 592.678 447 573C447 570.068 446.472 554.789 452 557L453 557L453 553L454 553C457.918 566.736 459.092 581.663 458 596L459 596L461 541L462 541L462 548L463 548L477 512L475 512z"/>
<path style="fill:#a2b065; stroke:none;" d="M176 514L177 520L181 519L180 513L176 514z"/>
<path style="fill:#627023; stroke:none;" d="M185 513L185 515L188 515L188 513L185 513z"/>
<path style="fill:#e5f2d8; stroke:none;" d="M125 514L136 535L140 536C137.92 528.78 131.479 517.985 125 514z"/>
<path style="fill:#576321; stroke:none;" d="M175 514C173.4 517.183 173.323 518.966 177 520L175 514z"/>
<path style="fill:#9db27a; stroke:none;" d="M131 516L131 518L134 518L134 516L131 516z"/>
<path style="fill:#e5e9c6; stroke:none;" d="M322 526L356 520C350.478 511.348 324.978 515.97 322 526z"/>
<path style="fill:#7e923d; stroke:none;" d="M440 516L440 518L443 518L443 516L440 516z"/>
<path style="fill:#b7c08b; stroke:none;" d="M211 517L211 519L213 519L213 517L211 517z"/>
<path style="fill:#8da460; stroke:none;" d="M142 520L142 523L145 523L145 520L142 520z"/>
<path style="fill:#c2c8a2; stroke:none;" d="M328 520L328 523L330 523L330 520L328 520z"/>
<path style="fill:#6c782c; stroke:none;" d="M196 523L196 525L198 525L198 523L196 523z"/>
<path style="fill:#d2bfbb; stroke:none;" d="M562 525C552.322 567.32 533.431 600.124 509.772 635.961C503.694 645.166 494.982 653.517 487.215 661.214C483.52 664.878 478.134 666.003 479 672C489.397 667.869 497.976 654.6 505.196 646.425C523.927 625.218 537.738 600.495 549.388 575.001C554.973 562.778 560.886 549.738 561 536L564 536L564 525L562 525z"/>
<path style="fill:#9ba863; stroke:none;" d="M410 530L410 532L412 532L412 530L410 530z"/>
<path style="fill:#cecac9; stroke:none;" d="M114 532L121 542L114 532z"/>
<path style="fill:#849245; stroke:none;" d="M196 532L196 533L200 536L196 532z"/>
<path style="fill:#5f6d22; stroke:none;" d="M196 533L196 536L198 536L198 533L196 533z"/>
<path style="fill:#8ea26f; stroke:none;" d="M143 534L143 536L145 536L145 534L143 534z"/>
<path style="fill:#bec59b; stroke:none;" d="M375 535L375 537L377 537L377 535L375 535z"/>
<path style="fill:#efd4bf; stroke:none;" d="M561 536C560.723 549.342 554.84 562.155 549.388 574.004C538.017 598.718 524.752 621.752 507.431 643C501.824 649.877 495.746 656.685 489.522 662.996C486.628 665.932 481.151 669.467 479.614 673.326C476.808 680.373 482.659 692.54 483 700L488 699L491 705L490 701L499 704L501 697L494 697L496 693L497 693L506 696L506 700L509 700L512 696L510 688L508 688L509 694L499 692L499 689C510.706 686.477 507.667 681.304 507 672L517 660C516.448 665.078 513.178 673.862 518 677L524.102 664L529 645L527 665L531 664L531 663L528 663L531 660L528 657L535 656L533 650L553 651C550.433 647.627 547.586 648.754 544 650L544 646L548 646L547 643L551 643L550 646L551 647L560 644L562 647L562 648L562 649L559 655L564 656L564 536L561 536z"/>
<path style="fill:#717f32; stroke:none;" d="M410 538L410 540L412 540L412 538L410 538z"/>
<path style="fill:#ddd3d1; stroke:none;" d="M12 539C15.5843 565.596 32.9413 593.527 46.7029 616C52.7441 625.865 59.7359 637.91 69 645C67.9252 641.125 66.9882 638.288 63 637L64 634L52 618L55 619L55 617L62 627L80 644L78 648C85.153 650.797 88.5415 656.995 94.054 661.921C104.444 671.204 115.332 680.637 127.285 687.88C134.267 692.111 147.975 697.93 152 705L158 705L158 708L165 711C174.887 711.174 188.012 719.906 197.285 723.75C210.592 729.266 226.747 732.645 241 734.795C266.355 738.62 292.462 739.261 318 736.83C329.489 735.737 340.492 731.977 352 732L352 725C344.308 724.936 339.188 726.926 331.961 727.867C317.162 729.795 300.946 729.231 286 729.61C279.906 729.765 268.758 723.555 264 729L263 729C257.742 723.448 248.059 724.27 241 723.961C229.307 723.448 219.885 719.498 208 721L208 718L212 718L211 715L192 710L192 707L168 699C167.191 694.343 164.31 694.105 160 694L160 691L135.104 682.02L124 673C123.258 665.899 118.047 663.947 114 659L112 661L96 656L96 649L80 641C79.5694 637.172 78.7712 635.19 75 634L77 630L72 629L72 624C64.1353 622.946 58.0002 613.254 53.7106 607.05C43.0082 591.572 22.2679 567.829 30 548L12 539z"/>
<path style="fill:#bbbab8; stroke:none;" d="M118 540C120.712 547.88 132.787 563.709 141 566C137.129 557.87 125.681 544.769 118 540z"/>
<path style="fill:#635d5d; stroke:none;" d="M461 541C456.952 558.001 464.647 576.881 465 594L466 594L463.17 559L461 541z"/>
<path style="fill:#f0ece3; stroke:none;" d="M458 545C458.035 598.282 476.283 650.697 474 704L467 704L463 709L464 713C459.475 715.933 461.364 721.332 461.831 726C462.636 734.055 464.26 741.436 467.58 748.871C469.308 752.741 472.702 754.678 474 759L475 759L480 747L478 748L482 714C478.597 709.513 479.292 702.45 478.91 697C478.133 685.913 477.006 675.009 475.826 664C471.573 624.314 460 585.298 460 545L458 545z"/>
<path style="fill:#b0aba8; stroke:none;" d="M54 547L54 548L56 550L54 552L52 557L48 558C48.2133 567.115 55.9455 579.115 64.429 583.142C69.274 585.442 73.7144 582.954 78 587L97.7909 584.843L122 594L122 597C128.054 597.68 129.049 602.34 134.055 604.732C144.415 609.681 155.445 614.295 166.09 618.434C189.765 627.64 215.589 630.79 241 631L240 629L253 631L253 630L250 628L250 627C219.846 624.6 187.654 606.811 164 589L163 589L158 592L152 588L152 592L128 590L128 586C123.191 586.636 119.02 588.692 114 587.725C106.297 586.242 99.8823 580.616 92 579.325C82.7528 577.81 74.8519 581.174 69.0671 571.74C63.9318 563.365 67.3787 554.932 68 546L54 547z"/>
<path style="fill:#8c955e; stroke:none;" d="M352 547L352 549L354 549L354 547L352 547z"/>
<path style="fill:#c3bab5; stroke:none;" d="M37 580L56 596L55 602L64 602L64 606C69.1728 607.488 70.7172 610.834 71 616C75.3485 616.655 78.6059 617.573 80 622C84.8293 623.004 87.7857 626.733 90 631C93.6107 630.88 94.9203 631.512 96 635L107.019 643.775L128 650L128 653C136.195 653.001 142.596 654.737 144 664C147.09 664 152.802 664.997 150 669L162 672L160 679C164.35 677.395 175.171 678.413 176 684L190.961 684.568L200.875 688.381L216 684L216 680L220 686L228 684L228 671C233.521 672.637 254.322 674.26 256 668C263.089 668 275.894 665.685 280.681 672.568C283.954 677.274 279.12 682.553 285 686C287.801 674.992 285.261 660.259 296 654L312 656L312 648L321 648L321 644L320 644L312 646L312 642L320 642L318 640L318 639L333 640L338 631L336 630L336 629C344.62 630.065 344.862 625.56 352 623L352 622L292 631.911L248 628L248 629L253 630L253 631L240 629L241 631C215.732 630.479 190.656 627.38 167.039 618.434C156.281 614.359 144.249 609.699 134.055 604.281C128.992 601.59 128.377 597.352 122 597L122 594L98.625 584.638L78 587C74.7027 582.428 69.8646 585.257 65.2863 583.142C57.0111 579.319 48.4554 566.873 48 558L52 557L56 548C44.129 548 30.0742 551.31 32.2099 566C32.932 570.967 36.0639 575.089 37 580z"/>
<path style="fill:#97a85a; stroke:none;" d="M212 548L212 550L214 550L214 548L212 548z"/>
<path style="fill:#364400; stroke:none;" d="M223 548L223 550L225 550L225 548L223 548z"/>
<path style="fill:#c8c3c0; stroke:none;" d="M72 624L72 629L77 630L75 634L80 641C86.8812 644.387 87.3289 648.975 96 649L96 656L114 659L124 673L134.209 682.02L160 691L160 694C164.142 694.228 166.688 694.847 168 699L192 707L192 710L202.259 715.397L212 718L208 718L208 721C218.845 720.144 227.33 722.815 238 723.83C246.597 724.648 255.68 723.514 263 729L264 729C270.089 724.393 278.238 729.641 285 729.806C301.119 730.201 324.094 731.128 339.09 725.553C342.4 724.322 348.589 726.422 351.133 723.972C352.877 722.293 351.85 717.28 352 715L371 714L376 712C378.749 701.747 385.409 692.48 388.09 682.004C389.021 678.364 393.598 675.154 390 672L390 671L390 670L392 664L400 661C400.127 657.098 400.599 655.085 404 653C406.703 657.451 412.065 658.946 417 660C417.797 666.922 422.39 664.695 426.721 668.514C429.873 671.292 430.471 676.075 431 680L434 680C434.268 685.754 440.107 692.288 436.821 697.775C432.829 704.443 417.039 710.689 410 713.583C386.468 723.26 360.189 737.459 334 738L334 739C363.067 739 388.163 727.635 413.285 714.576C420.084 711.043 435.218 706.615 438.941 699.87C442.72 693.024 438.878 686.895 438 680C432.279 676.775 432.364 670.387 429.316 665.129C419.703 648.544 409.237 619.757 418 602L412 605L416 601L416 600C413.945 597.432 414.553 596.388 417 597L418 590C410.717 591.119 404.485 597.774 398 601.218C384.645 608.312 370.797 613.42 357.17 619.665C349.193 623.321 344.933 629.624 336 629L336 630L338 631C334.223 633.075 332.808 635.705 333 640L318 639L318 640L320 642L312 642L312 646L320 644L321 644L321 648L312 648L312 656L296 654C285.579 658.131 286.573 676.078 285 686C280.3 681.742 283.806 677.401 281.142 672.568C277.011 665.075 262.901 668 256 668C253.038 674.115 234.267 671.992 228 671L228 684L220 686L216 680L216 684L199.961 687.967L190.961 684.343L176 684C175.699 678.266 164.356 676.751 160 679L162 672L150 669L152 667L144 664C143.255 654.026 136.417 653 128 653L128 650L108.005 643.775L96 635C95.3369 631.033 93.8929 630.345 90 631C88.4617 626.237 85.0302 622.577 80 622C79.1479 617.078 75.5509 616.401 71 616C70.8692 610.589 69.7973 606.917 64 606L64 602L55 602L56 596L37 580C35.8608 569.447 24.5544 552.065 44 551L44 549C40.009 549 31.9061 547.478 28.9414 550.742C24.8036 555.298 28.5801 563.418 30.5154 568C36.6617 582.551 44.7862 595.03 53.7106 607.95C58.024 614.194 63.9935 623.461 72 624z"/>
<path style="fill:#61763b; stroke:none;" d="M164 549L164 551L166 551L166 549L164 549z"/>
<path style="fill:#717f34; stroke:none;" d="M223.667 550.333L224.333 550.667L223.667 550.333z"/>
<path style="fill:#9fac66; stroke:none;" d="M343 553L343 555L345 555L345 553L343 553z"/>
<path style="fill:#878183; stroke:none;" d="M453 553L451.961 612L450 656L451 656L451 647L452 647L453 657C462.132 650.698 457.735 643.648 458 635L454 635C456.912 625.552 457.21 616.909 456 607L460 603C456.374 602.396 455.999 599.25 459 600L456 598L456 597C459.793 593.809 458.586 588.444 458.17 584C457.258 574.252 459.577 560.976 453 553z"/>
<path style="fill:#b8aead; stroke:none;" d="M460 553L460 558L461 558L460 553z"/>
<path style="fill:#969495; stroke:none;" d="M463 554L463 562L464 562L463 554z"/>
<path style="fill:#3f393d; stroke:none;" d="M451 555C443.413 565.267 447 583.689 447 596C447 628.752 445 661.318 445 694L446 694C446 660.301 451.189 626.688 452.015 593C452.281 582.149 456.844 564.755 451 555z"/>
<path style="fill:#98a65b; stroke:none;" d="M385 556L385 558L387 558L387 556L385 556z"/>
<path style="fill:#606e33; stroke:none;" d="M234 558L238 563L238 557L234 558z"/>
<path style="fill:#839144; stroke:none;" d="M340 557L340 560L342 560L342 557L340 557z"/>
<path style="fill:#94a264; stroke:none;" d="M238 558L239 563L240 558L238 558z"/>
<path style="fill:#dbe7cf; stroke:none;" d="M308 609L308 610C338.904 610 378.379 597.672 402.08 577.401C408.287 572.093 421.655 566.22 423 558C408.51 563.036 395.128 578.818 381.83 586.969C360.518 600.033 332.914 607.93 308 609z"/>
<path style="fill:#d0e0af; stroke:none;" d="M166 561L166 562L176 573C187.623 574.057 199.72 589.025 211 593.946C240.959 607.017 275.175 615.148 308 611L308 610C296.899 610 282.831 613.396 273.278 606.278C271.438 604.907 272.484 601.992 270.75 600.833C269.419 599.944 268.459 602.315 268 603L267 600L262 602L251 600L247 594L236 592L235 592L234 592C229.504 598.131 206.872 586.085 201 582.333C199.133 581.141 188.881 575.682 194 575L194 574C187.599 571.506 182.192 567.017 181 560L166 561z"/>
<path style="fill:#686264; stroke:none;" d="M453 560L453 576L454 576L453 560z"/>
<path style="fill:#556316; stroke:none;" d="M296 561L296 564L299 564L299 561L296 561z"/>
<path style="fill:#768435; stroke:none;" d="M286 562L289 565L288 562L286 562z"/>
<path style="fill:#889649; stroke:none;" d="M349 562L349 564L351 564L351 562L349 562z"/>
<path style="fill:#717e36; stroke:none;" d="M357 568L359 568L360 563C356.964 564 356.506 564.863 357 568z"/>
<path style="fill:#b8b6c4; stroke:none;" d="M434 576L438 576L437 588L440 587L438 593L440 600L443 600L443 605L445 604L445 620L446 620L446 563C439.861 565.143 436.756 570.4 434 576z"/>
<path style="fill:#e8e7e3; stroke:none;" d="M141 564C144.9 576.799 165.929 589.374 176.91 596.269C203.057 612.687 237.162 624.746 268 627.829C283.245 629.354 298.801 627.314 314 627L314 626C277.876 626 246.042 623.482 212.715 609.073C205.6 605.998 199.455 605.317 193 600C186.129 600.046 176.246 594.045 173 588C165.808 586.13 153.921 577.368 152 570L149 571L141 564z"/>
<path style="fill:#c2b9b4; stroke:none;" d="M461 564L461 571L462 571L461 564z"/>
<path style="fill:#6c7931; stroke:none;" d="M317 567L317 569L319 569L319 567L317 567z"/>
<path style="fill:#65722d; stroke:none;" d="M337 567L337 571L340 567L337 567z"/>
<path style="fill:#8b888f; stroke:none;" d="M464 568L464 576L465 576L464 568z"/>
<path style="fill:#8f9f54; stroke:none;" d="M235 570L235 572L237 572L237 570L235 570z"/>
<path style="fill:#758336; stroke:none;" d="M346 570L346 572L348 572L348 570L346 570z"/>
<path style="fill:#deeed3; stroke:none;" d="M176 573L176 574L191 582C187.451 576.758 182.332 573.295 176 573z"/>
<path style="fill:#cfbdb9; stroke:none;" d="M462 574L462 579L463 579L462 574z"/>
<path style="fill:#f5fff2; stroke:none;" d="M191 575C197.699 583.345 211.658 588.949 222 591C217.214 584.119 199.149 575.88 191 575z"/>
<path style="fill:#9ba95e; stroke:none;" d="M232 577L232 579L234 579L234 577L232 577z"/>
<path style="fill:#807573; stroke:none;" d="M184 601C187.214 606.173 194.548 608.942 200 611.272C213.101 616.87 226.028 622.444 240 625.575C290.085 636.798 341.201 630.446 387 607.399C400.346 600.683 422.115 591.028 429 577C419.521 580.45 414.074 587.988 405.999 593.481C393.168 602.209 377.478 609.827 363 615.388C320.855 631.577 273.087 633.277 230 620.012C214.127 615.125 199.792 605.549 184 601z"/>
<path style="fill:#948a92; stroke:none;" d="M465 577L465 584L466 584L465 577z"/>
<path style="fill:#4b5727; stroke:none;" d="M245 582L248 581L245 582z"/>
<path style="fill:#a1928f; stroke:none;" d="M0 581L0 800L12 800L12 799L10 792L14 795L12 785L19 784L19 762L24 760L24 759L17 759L17 758L31 758L32 751L28 751L28 749L38 751L38 740L42 741L44 736L40 736C40.1571 721.949 61.8592 719.097 51 704C55.7305 700.983 61.4948 692.503 63 687C57.2242 681.685 51.8125 678.841 53 670L49 664C43.1416 663.809 38.8396 660.238 35 656L44 657L42 653L36 654C36.6904 650.696 36.9208 648.912 34 647L35 651C29.3949 647.664 30.6699 643.357 32 638L24 632L24 628C15.942 626.441 15.5551 623.091 16 616L12 616L10 597L6 596L5 596L2 600L2 592L10 592L9 589L12 585L0 581z"/>
<path style="fill:#242f07; stroke:none;" d="M246 581L251 584L246 581z"/>
<path style="fill:#75824c; stroke:none;" d="M249 581L249 582L251 584L252 584L249 581z"/>
<path style="fill:#93a456; stroke:none;" d="M282 583L282 585L285 585L285 583L282 583z"/>
<path style="fill:#5c6a37; stroke:none;" d="M248.667 584.333L249.333 584.667L248.667 584.333z"/>
<path style="fill:#839947; stroke:none;" d="M364 589L368 586L364 589z"/>
<path style="fill:#dceed8; stroke:none;" d="M218 587L218 588L222 589L220 591L220 592C224.787 592.66 230.625 596.781 234 592L218 587z"/>
<path style="fill:#e7d8d1; stroke:none;" d="M460 587L462 602L463 602C463 596.727 464.109 590.909 460 587z"/>
<path style="fill:#a49598; stroke:none;" d="M464 587L464 592L465 592L464 587z"/>
<path style="fill:#b0aaaa; stroke:none;" d="M408 592L413 588L408 592z"/>
<path style="fill:#746b6e; stroke:none;" d="M466 588C464.968 612.411 470.081 637.154 475 661L476 661L470.17 621L466 588z"/>
<path style="fill:#91a659; stroke:none;" d="M248 590L248 592L250 592L250 590L248 590z"/>
<path style="fill:#b2a6aa; stroke:none;" d="M398 599L408 593C403.705 592.298 399.987 595.379 398 599z"/>
<path style="fill:#a19aa2; stroke:none;" d="M467 595L467 600L468 600L467 595z"/>
<path style="fill:#fff8f0; stroke:none;" d="M402 607L414 596C408.819 597.993 403.53 601.432 402 607z"/>
<path style="fill:#a29795; stroke:none;" d="M456 597L456 598L459 600C455.753 599.978 457.693 602.506 460 603L456 607L454 635L458 635L460 648C474.741 640.46 461.7 624.388 464 612L461 612L460 596L456 597z"/>
<path style="fill:#b6ada8; stroke:none;" d="M465 597L465 602L466 602L465 597z"/>
<path style="fill:#baafab; stroke:none;" d="M461 598L461 612L464 612C462.661 617.622 461.565 625.394 467 629C466.597 619.609 465.436 606.341 461 598z"/>
<path style="fill:#97af63; stroke:none;" d="M306 605L306 607L308 607L308 605L306 605z"/>
<path style="fill:#b3aaad; stroke:none;" d="M373 610L373 611L378 610L373 610z"/>
<path style="fill:#c8c7c5; stroke:none;" d="M211 612L223 617L223 616L211 612z"/>
<path style="fill:#fffcfd; stroke:none;" d="M391 616L397 612L391 616z"/>
<path style="fill:#aea5a6; stroke:none;" d="M363 614L363 615L368 614L363 614z"/>
<path style="fill:#b2a8a6; stroke:none;" d="M358 616L358 617L363 616L358 616z"/>
<path style="fill:#e8e0de; stroke:none;" d="M55 617L55 619L52 618C53.8609 622.207 59.6165 633.405 64 634L63 637C67.8339 639.594 68.3056 644.783 71.4035 648.999C76.4749 655.901 83.1563 661.936 89.1698 668C101.009 679.94 113.642 687.827 127.83 695.765C136.118 700.401 142.949 706.576 152 710L149 706C153.363 707.672 160.465 710.322 162 715C185.172 722.364 208.42 732.649 232 737.877C300.489 753.059 372.386 736.564 432 702L432 701L414 704C411.871 711.014 393.838 712.981 387 713L389 718L380 719L382 720L382 721L378 721L378 724C361.44 726.02 344.537 732.514 328 735.625C305.392 739.879 278.773 739.547 256 736.714C237.029 734.353 216.95 730.928 199.09 724.115C189.226 720.353 175.399 710.552 165 711L158 708L158 705L152 705C150.23 699.837 140.666 695.92 136.166 692.639C122.084 682.373 108.289 673.37 95.0185 661.921C89.4917 657.152 85.6295 649.281 78 648L80 644C72.9386 640.394 70.0082 626.703 62 627C61.2238 622.116 59.3789 619.341 55 617z"/>
<path style="fill:#cbc5c5; stroke:none;" d="M224 617L224 618L236 621L236 620L224 617z"/>
<path style="fill:#c9c0c1; stroke:none;" d="M347 619L347 620L354 619L347 619z"/>
<path style="fill:#9b98a1; stroke:none;" d="M470 620L470 624L471 624L470 620z"/>
<path style="fill:#b2afaa; stroke:none;" d="M331 623L331 624L340 623L331 623z"/>
<path style="fill:#8e8e98; stroke:none;" d="M434 627L434 628L436 634C431.809 635.469 431.023 639.788 431.129 644C431.353 652.953 433.858 666.611 437 675L438 675L437 641L443 640L444 646L445 646L445 626L442 626L442 622L434 627z"/>
<path style="fill:#cabfbd; stroke:none;" d="M317 625L317 626L328 626L328 624L317 625z"/>
<path style="fill:#605e63; stroke:none;" d="M446 624L446 647L447 647L446 624z"/>
<path style="fill:#c5bdbb; stroke:none;" d="M468 624L468 628L469 628L468 624z"/>
<path style="fill:#a59d9b; stroke:none;" d="M252 625L252 626L261 627L252 625z"/>
<path style="fill:#a9a4a1; stroke:none;" d="M307 627L307 628L320 627L307 627z"/>
<path style="fill:#b5a7a6; stroke:none;" d="M275 628L275 629L301 629L275 628z"/>
<path style="fill:#a09aa4; stroke:none;" d="M471 628L471 632L472 632L471 628z"/>
<path style="fill:#a19690; stroke:none;" d="M274 631L274 632L296 632L274 631z"/>
<path style="fill:#6b645e; stroke:none;" d="M59 635C64.3761 646.74 75.5495 656.708 84.4244 665.834C88.0789 669.592 93.4524 672.834 95 678C97.2602 680.033 98.3687 681.181 97 684L97 685L101 685L99 689L155 720L157 717L149 711C124.842 699.574 102.64 680.642 83.9498 661.834C75.962 653.796 68.7077 640.616 59 635z"/>
<path style="fill:#bcb1b9; stroke:none;" d="M470 635L470 640L471 640L470 635z"/>
<path style="fill:#a7a5a6; stroke:none;" d="M467 638C466.234 644.855 457.805 652.13 453 657L452 647L451 647L451 656L450 656L450 652L449 652L447 699L448 699L454 683C452.304 675.666 454.915 674.317 458 668L455 665C459.296 664.858 461.299 664.06 463 660L467 662L467 654L466 654L465 656L464 652L469 649L467 638z"/>
<path style="fill:#767273; stroke:none;" d="M437 641C433.251 653.683 437.359 667.774 440.505 680C441.869 685.297 441.2 690.683 443 696L444 696L446 641L445 641L445 646L444 646L443 640L437 641z"/>
<path style="fill:#c5bdbb; stroke:none;" d="M469 642L469 649L464 652L465 656L466 654L467 654L467 662L463 660L455 665L458 668C453.945 673.693 451.501 675.992 454 683C448.85 686.245 448.46 696.321 447.834 702C445.955 719.036 446.891 733.962 454 750L455 750L455 745L456 745L473 759L474 759C472.848 752.717 466.875 749.65 461 748C460.209 742.212 455.112 739.338 453.421 733.83C450.076 722.938 453.476 717.234 455 707C459.365 705.718 458.211 701.848 458 698L472 691C474.588 677.265 474.49 655.084 469 642z"/>
<path style="fill:#fde2c4; stroke:none;" d="M547 643L548 646L544 646L544 650L553 651L533 650L535 656L528 657L531 660C528.524 661.309 527.863 662.376 531 663L531 664L527 665L529 645L524.102 663L518 677C513.97 672.92 516.8 665.468 517 660L507 672C507.285 681.238 509.728 685.723 499 689L499 692L509 694L508 688L510 688L512 696L509 700L506 700L506 696L497 693L496 693L494 697L501 697L499 704L490 701L491 705L488 699C481.404 700.102 483.705 706.766 484.089 712C484.864 722.576 485.938 733.598 482.96 744C480.602 752.235 474.252 759.597 473 768L466 767L465 771L479 772L480 779L476 784L470 784L471 790L464 789L467 791L464 798L468 795L472 796L462 804L458 813L452 812L451 817L461 816L461 812C463.993 811.936 465.346 812.054 466 809L475 811L475 814L468 814L468 821L458 819C458.878 822.659 459.963 825.804 464 826L469 841L472 839C473.452 848.967 486.471 846 494 846L564 846L564 700L564 666C564 660.956 564.959 655.995 559 655L562 649L562 648L562 647L560 644L551 647L550 646L551 643L547 643z"/>
<path style="fill:#686463; stroke:none;" d="M448 648L448 658L449 658L448 648z"/>
<path style="fill:#d2d4e1; stroke:none;" d="M400 661L392 664L390 670L390 671L390 672L388.09 681.089L376 712L371 714L352 715L352 730L378 724L378 721L382 721L382 720L380 719L389 718L387 713C393.707 712.996 412.767 711.388 414 704C419.727 703.866 436.549 702.473 437.771 695.956C438.856 690.164 434.512 685.634 434 680L431 680C430.694 676.259 430.309 671.319 427.487 668.514C423.376 664.428 418.426 666.84 417 660L404 653C400.06 654.584 400.047 657.014 400 661z"/>
<path style="fill:#b9afb0; stroke:none;" d="M476 660L477 668L478 668L476 660z"/>
<path style="fill:#554643; stroke:none;" d="M476 665L480 692L481 692C480.83 683.757 480.457 672.094 476 665z"/>
<path style="fill:#c6b7b4; stroke:none;" d="M476 670L476 675L477 675L476 670z"/>
<path style="fill:#5d5e63; stroke:none;" d="M446 680L446 691L447 691L446 680z"/>
<path style="fill:#ccc4c2; stroke:none;" d="M478 683C478 690.133 476.467 709.171 482 714L478 748C482.412 743.728 482.925 735.944 482.996 730C483.167 715.607 484.381 696.279 478 683z"/>
<path style="fill:#ad9384; stroke:none;" d="M480 683L480 686L481 686L480 683z"/>
<path style="fill:#d9d2ca; stroke:none;" d="M472 688C469.824 691.399 461.908 698.338 458 698C458.076 701.943 458.91 705.055 455 707C452.297 717.419 449.638 724.615 453.715 735.571C455.494 740.352 459.805 742.949 461 748L469 752C465.236 743.133 455.792 721.04 464 713L463 709L467 704L474 704C474.471 698.037 475.494 693.295 472 688z"/>
<path style="fill:#958d8a; stroke:none;" d="M446 691L445 715L446 715C447.007 707.076 449.26 698.697 446 691z"/>
<path style="fill:#6a5b54; stroke:none;" d="M481 691L483 718L484 718L481 691z"/>
<path style="fill:#5d524e; stroke:none;" d="M444 692L444 696L441 695C434.833 706.988 421.704 713.192 410 719L412 728L415 726L416 730L421 728C423.301 732.03 425.69 733.099 424 738C431.426 741.226 431.672 744.784 431 752L432 752L434 751L446 731C449.081 742.784 453.681 761.909 468 764L468 763C450.51 752.238 446.911 731.178 445.171 712C444.568 705.355 448.042 697.916 444 692z"/>
<path style="fill:#d6cdc6; stroke:none;" d="M122 694L122 695C168.069 726.079 218.464 743 274 743L274 742C243.42 742 214.964 732.1 186.015 723.911C177.761 721.575 170.509 716.946 162 715C160.997 709.889 153.724 707.22 149 706L152 710C143.311 705.186 131.862 694.662 122 694z"/>
<path style="fill:#97827d; stroke:none;" d="M482 694L482 699L483 699L482 694z"/>
<path style="fill:#b9abab; stroke:none;" d="M408 717L408 718C417.201 716.805 425.684 711.524 433 706C425.97 704.051 414.206 713.569 408 717z"/>
<path style="fill:#5a4f49; stroke:none;" d="M148 712L148 713L157 717L155 720L158 719C160.806 722.703 166.579 723.402 171 723L176 725L176 726L174 726L174 727L211 737L175 723.548L148 712z"/>
<path style="fill:#847878; stroke:none;" d="M484 715L482 744L483 744C484.113 735.237 487.557 723.476 484 715z"/>
<path style="fill:#bfa493; stroke:none;" d="M338 740L338 741L357 740L351 745L352 752L346 757C346.743 751.477 346.216 744.356 340 743L341 747L326 748L325 761L328 760L328 764L321 764L321 763L323 755C319.155 756.273 317.767 759.155 317 763L320 762L316 778L312 778L314 773C305.252 773 299.848 774.252 293 780L296 781L296 783L292 787C284.032 786.064 283.006 788.352 283 796L288 795L288 801L293 801L293 802L290 806L295 805C293.339 815.172 285.9 805.911 280.318 809.117C277.421 810.781 278.01 815.194 278 818L282 818C282.174 822.834 281.217 830.119 288 827C288.841 830.925 291.708 829.885 295 829L294 837L298 837L298 838C294.533 841.932 300.151 845.811 304.005 845.981C317.281 846.566 330.709 846 344 846L346 837L336 840L330 839C329.995 832.078 328.729 828.201 324 823L331 824C328.22 819.89 321.596 815.612 318 821L314 820L323.188 814.974L328 809L334 822L336 822L342 816L340 809L330 810C329.419 803.161 334.713 803.91 340 804L339 798L344 800C345.493 797.339 347.941 794.867 344 794L348 785L353 785C353.497 773.901 368.177 766.772 378 768C377.245 764.474 368.79 760.416 365 760L365 759L375 759L375 755L372 755L372 751L368 751L368 749L382 751L384 730L390 730C391.461 734.409 394.322 733.9 398 732L396 729L398 725L413 718C406.246 716.404 394.4 724.216 388 726.911C372.057 733.623 355.146 737.831 338 740z"/>
<path style="fill:#d4b5a3; stroke:none;" d="M398 725L396 729L398 732C394.207 733.4 392.115 733.809 390 730L384 730L382 751L379 748L368 749L368 751L372 751L372 755L375 755L375 759L365 759L365 760L378 768C368.921 765.856 351.37 774.236 353 785L348 785L344 794L347 795L344 800L339 798L340 804C334.637 803.774 328.329 802.501 330 810L340 809L342 816C338.195 816.822 337.025 818.286 336 822L334 822L328 809L323.093 814.683L314 820L318 821C322.737 816.694 327.271 820.053 331 824L324 823C327.688 828.606 329.977 832.148 330 839L336 840L346 837L344 846L426 846L426 839L416 837L417 844L407 844L406 830L408 833L417 835L413 828C416.578 825.613 416.222 823.046 416 819L411 819L410 813L416 812L417 812L421 800L416 801L416 795L427 792L432 788L429 781L425 781L425 768L432 769L432 767L437 768L436 761L444 760L444 755L449 759L450 759C454.503 751.573 448.716 738.83 446 731C440.382 739.51 440.46 750.611 428.997 754.867C424.271 756.622 420.899 752.34 418.365 748.91C412.715 741.262 410.193 730.352 410 721L398 725z"/>
<path style="fill:#726461; stroke:none;" d="M410 722C410.33 737.967 418.423 764.062 437 750L437 749L432 752L431 752C432.132 744.964 431.962 740.144 424 738C426.465 733.147 424.144 731.718 421 728L416 730L415 726L412 728L410 722z"/>
<path style="fill:#7c736c; stroke:none;" d="M447.333 728.667L447.667 729.333L447.333 728.667z"/>
<path style="fill:#90867a; stroke:none;" d="M449.333 736.667L449.667 737.333L449.333 736.667z"/>
<path style="fill:#c0afa7; stroke:none;" d="M243 742L243 743C276.982 745.682 308.341 744.347 342 740C332.312 735.935 320.813 742.223 311 742.911C288.384 744.496 265.565 742 243 742z"/>
<path style="fill:#af9d91; stroke:none;" d="M483 740L483 743L484 743L483 740z"/>
<path style="fill:#ab9484; stroke:none;" d="M481 741L475 759C480.148 755.638 484.233 746.684 481 741z"/>
<path style="fill:#9f8471; stroke:none;" d="M441 742L440 746L441 746L441 742z"/>
<path style="fill:#edcfb7; stroke:none;" d="M449 745C450.595 750.552 452.276 753.409 450 759L449 759L444 755L444 760L441 759L436 761L437 768L432 767L432 769L425 768L425 781L429 781L432 788L427 792L416 795L416 801L421 800L417 812L416 812L415 810L410 813L411 819L416 819L413 828L417 835L406 830L407 844L417 844L416 837L426 839L426 846L475 846L472 839L469 841L464 826C460.238 825.498 459.227 822.305 458 819L468 821L468 814L475 814L475 811L466 809L461 812L461 816L451 817L452 812L458 813L462 804C466.456 803.056 469.921 800.008 472 796L468 795L464 798L467 791L464 791L464 789L471 790L470 784L476 784L480 779L479 772L465 771L466 767L473 768L476 759C472.717 759.705 470.134 763.347 466.946 763.383C458.006 763.484 454.355 749.878 449 745z"/>
<path style="fill:#a19ca0; stroke:none;" d="M455 745C452.842 754.878 463.616 764.875 473 760L455 745z"/>
<path style="fill:#b2968b; stroke:none;" d="M311 757L310 760C306.197 758.656 303.491 757.481 302 762L293 762L294 766C273.844 760.338 274.372 777.382 275 792L274 792L274 789L273 789L273 793L264 793L264 795L270 796C266.031 804.788 264.322 810.12 254 810L254 811L260 817L256 817L259 819L256 822L256 832L255 832L254 829L253 829L252 846L299 846L298 838L298 837L294 837L295 829L288 827L286 829C281.879 826.411 282.48 822.503 282 818L278 818C278.192 801.751 294.023 817.245 295 805L290 806L293 802L293 801L288 801L288 795L283 796C283.026 788.686 284.557 786.592 292 787L296 783L296 781L293 780C300.517 775.482 305.084 773 314 773L312 778L316 778L320 762L317 760L316 760L316 763L313 763L311 757z"/>
<path style="fill:#7b675e; stroke:none;" d="M467 762L467 763L471 763L467 762z"/>
</svg>
