<?xml version="1.0" standalone="no"?>
<!DOCTYPE svg PUBLIC "-//W3C//DTD SVG 20010904//EN"
 "http://www.w3.org/TR/2001/REC-SVG-20010904/DTD/svg10.dtd">
<svg version="1.0" xmlns="http://www.w3.org/2000/svg"
 width="2560.000000pt" height="2560.000000pt" viewBox="0 0 2560.000000 2560.000000"
 preserveAspectRatio="xMidYMid meet">

<g transform="translate(0.000000,2560.000000) scale(0.100000,-0.100000)"
fill="#000000" stroke="none">
<path d="M12504 21526 c-53 -17 -127 -68 -158 -109 -37 -50 -126 -241 -126
-271 0 -33 88 -142 123 -151 12 -3 43 -16 70 -27 44 -20 47 -24 47 -61 0 -26
4 -37 12 -35 14 5 48 -22 48 -38 0 -7 -7 -15 -16 -18 -8 -3 -12 -11 -9 -17 5
-7 11 -5 18 4 8 10 18 12 32 7 l20 -9 -20 -2 c-11 -1 0 -5 24 -8 25 -3 46 -12
49 -19 3 -9 -16 -11 -85 -6 -77 5 -99 12 -178 50 -49 24 -81 37 -70 29 37 -29
76 -67 71 -72 -10 -10 -175 98 -223 145 -27 28 -33 46 -7 24 5 -5 23 -14 39
-21 l30 -13 -25 27 c-13 14 -47 41 -75 60 -66 43 -127 111 -153 166 -60 131
-174 158 -267 62 -25 -25 -45 -55 -45 -67 0 -39 70 -151 148 -238 13 -14 21
-31 17 -37 -3 -6 0 -14 9 -17 9 -3 17 -26 21 -57 4 -29 11 -65 15 -82 5 -16
12 -43 15 -59 6 -26 7 -27 24 -12 16 15 19 15 37 -6 10 -12 14 -19 8 -15 -6 4
-19 -2 -29 -13 -18 -19 -17 -20 8 -20 35 0 35 -16 0 -24 -28 -8 -43 5 -43 37
0 27 -16 20 -30 -12 -13 -31 -6 -56 12 -45 6 4 9 1 6 -6 -7 -23 -149 -90 -193
-92 -73 -3 -292 63 -338 101 -9 8 -26 19 -36 25 -73 43 -211 185 -211 219 0
42 -117 83 -165 57 -12 -7 -32 -9 -42 -6 -61 19 -108 -48 -101 -144 3 -43 12
-68 41 -111 20 -31 37 -59 37 -63 0 -12 132 -180 156 -199 13 -10 33 -36 46
-58 12 -21 29 -39 38 -39 9 0 30 -16 47 -35 17 -19 39 -35 49 -35 10 0 25 -6
33 -14 43 -38 231 -54 231 -20 0 9 12 14 35 14 28 0 36 4 41 24 5 22 9 24 30
14 20 -9 24 -19 24 -52 0 -23 3 -51 6 -63 4 -14 -1 -28 -15 -42 -12 -12 -19
-26 -16 -31 4 -6 -2 -10 -12 -10 -23 0 -65 -29 -58 -40 3 -4 21 -11 40 -14 21
-4 35 -13 35 -21 0 -22 20 -18 42 7 12 14 32 22 57 24 21 1 43 4 49 8 17 10
22 -9 16 -58 -5 -34 -11 -46 -20 -42 -19 7 -18 -19 1 -34 9 -7 17 -11 18 -9
39 55 49 99 29 135 -6 12 -9 23 -7 26 2 2 5 57 6 121 0 66 5 117 11 117 5 0
16 17 24 38 47 123 102 182 231 247 65 32 243 54 295 36 18 -7 88 -16 156 -21
101 -8 130 -14 165 -34 23 -13 61 -29 84 -35 34 -9 51 -23 85 -68 24 -31 61
-74 83 -95 176 -166 195 -182 251 -205 133 -54 248 -64 343 -28 144 53 176 68
213 97 23 18 52 44 64 58 12 14 61 52 109 85 48 33 135 100 193 148 130 107
147 116 231 128 73 11 120 41 91 59 -8 5 -24 7 -35 5 -91 -18 -152 -13 -115
10 6 3 10 16 10 28 0 12 7 40 14 62 13 37 17 40 58 45 l43 5 -34 13 c-105 38
-231 -12 -381 -152 -89 -83 -96 -88 -255 -197 -198 -136 -234 -153 -311 -146
-54 4 -72 11 -148 62 -48 31 -102 73 -121 92 -19 20 -35 33 -35 29 0 -14 83
-119 121 -153 45 -40 49 -53 17 -53 -39 0 -110 57 -155 124 -15 23 -42 59 -59
81 -44 57 -48 66 -27 58 10 -3 24 -11 31 -16 7 -5 15 -7 19 -4 6 7 -36 46 -50
47 -5 0 -22 9 -38 21 -40 28 -126 59 -165 59 -57 0 -60 19 -14 107 57 110 87
144 129 145 43 1 74 -34 67 -77 -4 -31 16 -153 28 -174 10 -16 56 -35 76 -32
8 2 29 13 45 24 17 12 48 31 70 42 22 11 56 32 75 47 19 16 40 28 46 28 14 0
23 20 17 36 -3 9 -16 8 -48 -2 l-45 -13 0 30 c0 33 40 118 65 139 19 16 65
114 65 139 0 10 7 26 15 37 25 32 18 78 -18 125 -43 57 -75 66 -186 50 -92
-12 -177 -6 -199 16 -19 19 -32 16 -32 -6 0 -27 -18 -31 -129 -24 l-100 6 -53
-33 c-29 -18 -77 -56 -105 -84 -29 -27 -55 -48 -57 -45 -16 16 135 322 185
375 12 13 18 27 14 33 -9 15 -110 13 -161 -3z m121 -717 c-4 -5 -18 -9 -33 -9
l-27 0 25 14 c26 13 44 11 35 -5z m-655 -189 c0 -5 -7 -10 -16 -10 -8 0 -12 5
-9 10 3 6 10 10 16 10 5 0 9 -4 9 -10z m-262 -613 c7 -8 7 -18 2 -27 -6 -8
-10 -10 -10 -4 0 22 -34 25 -67 7 -18 -10 -33 -21 -33 -25 0 -5 -7 -8 -15 -8
-8 0 -15 5 -15 10 0 6 7 10 15 10 8 0 15 6 15 14 0 7 15 18 33 24 45 14 63 14
75 -1z"/>
<path d="M14085 21224 c4 -10 10 -32 13 -47 3 -19 14 -33 31 -40 14 -6 43 -24
65 -39 32 -23 45 -27 77 -22 26 4 39 3 39 -5 0 -6 7 -11 16 -11 22 0 9 38 -28
77 -37 39 -129 89 -182 99 -36 6 -39 5 -31 -12z"/>
<path d="M11161 21033 c-85 -52 -143 -105 -130 -118 7 -7 111 34 130 51 9 8
33 20 54 25 20 6 34 13 31 16 -3 3 1 18 9 34 17 31 19 49 7 49 -4 0 -50 -26
-101 -57z"/>
<path d="M14495 21056 c-17 -6 -41 -19 -54 -28 l-23 -16 21 -23 c24 -26 26
-54 6 -89 -8 -14 -14 -44 -15 -67 0 -23 -5 -54 -10 -69 -19 -48 34 -144 79
-144 5 0 16 12 24 28 8 15 28 52 45 82 17 30 40 93 52 140 12 47 29 93 37 102
34 38 -23 99 -91 97 -22 -1 -55 -6 -71 -13z m-9 -52 c-4 -9 -9 -15 -11 -12 -3
3 -3 13 1 22 4 9 9 15 11 12 3 -3 3 -13 -1 -22z"/>
<path d="M12986 20595 c4 -8 11 -15 16 -15 6 0 5 6 -2 15 -7 8 -14 15 -16 15
-2 0 -1 -7 2 -15z"/>
<path d="M14962 20281 c-10 -6 -7 -12 12 -24 14 -10 31 -17 39 -17 19 0 137
-60 137 -69 0 -4 31 -27 70 -52 93 -58 109 -81 113 -166 3 -51 10 -77 28 -104
13 -19 33 -61 44 -92 19 -56 19 -57 -2 -94 -21 -38 -21 -38 -2 -73 22 -41 24
-64 6 -82 -8 -7 -14 -21 -14 -30 0 -20 -62 -118 -74 -118 -5 0 -9 -5 -9 -12 0
-7 -14 -27 -32 -45 -28 -29 -32 -31 -43 -16 -11 15 -14 13 -29 -15 -9 -17 -16
-41 -16 -54 0 -13 -9 -47 -19 -76 -11 -28 -16 -52 -11 -52 4 0 10 7 14 15 3 8
10 15 16 15 20 0 9 -25 -26 -64 l-36 -40 22 -18 c33 -27 80 -14 80 23 0 23 67
121 170 249 43 52 103 135 135 183 l58 89 -6 123 c-5 107 -10 134 -37 202 -73
183 -143 245 -421 373 -108 49 -141 58 -167 41z m524 -665 c-8 -37 -41 -84
-52 -73 -5 4 0 23 10 41 10 18 18 55 19 82 l0 49 14 -34 c8 -20 12 -48 9 -65z"/>
<path d="M11528 20163 c7 -3 16 -2 19 1 4 3 -2 6 -13 5 -11 0 -14 -3 -6 -6z"/>
<path d="M10060 20100 c0 -14 9 -43 20 -65 34 -67 21 -120 -36 -151 -40 -22
-42 -30 -12 -54 l22 -18 -39 -21 c-22 -11 -51 -30 -64 -41 -20 -18 -22 -23
-12 -51 6 -18 11 -42 11 -54 0 -35 60 -60 111 -47 40 10 65 6 137 -24 18 -8
39 -14 48 -14 8 0 52 -18 98 -40 46 -22 94 -40 108 -40 15 0 65 -30 130 -78
58 -43 128 -88 156 -100 28 -12 54 -27 57 -32 3 -6 17 -10 31 -10 14 0 27 -7
30 -15 4 -8 12 -15 20 -15 8 0 14 -3 14 -7 0 -13 71 -66 78 -59 3 4 -5 17 -19
29 -13 12 -44 47 -69 77 -49 60 -68 77 -114 100 -16 8 -31 21 -34 28 -4 14 34
17 43 2 3 -5 17 -10 31 -10 14 0 42 -9 64 -20 22 -11 46 -20 54 -20 9 0 34
-10 56 -21 32 -17 62 -22 133 -24 60 -1 102 -7 122 -17 17 -9 55 -19 85 -23
103 -13 270 43 270 91 0 34 145 42 250 13 71 -19 79 -19 135 -4 76 19 81 19
138 -9 44 -22 51 -23 105 -11 31 7 72 18 91 25 32 12 35 12 65 -23 40 -47 87
-79 216 -144 109 -55 147 -63 190 -38 41 24 74 19 93 -14 9 -16 17 -41 17 -55
0 -22 10 -31 68 -60 128 -65 218 -121 262 -163 77 -73 260 -200 328 -228 95
-39 203 -44 307 -16 80 22 183 67 220 95 11 9 54 42 95 73 41 32 82 65 91 73
9 8 31 26 49 40 17 14 53 42 78 62 25 20 74 51 110 69 60 29 72 31 195 35 72
2 135 8 140 13 11 11 -36 59 -71 72 -57 22 -148 4 -245 -47 -27 -14 -50 -24
-53 -22 -3 4 36 47 85 92 12 11 20 29 20 40 -5 59 -5 59 77 54 83 -6 88 8 9
23 -110 21 -203 -21 -450 -200 -301 -219 -359 -246 -512 -246 -87 1 -92 0 -77
-16 43 -47 -33 -52 -102 -7 -53 35 -65 48 -58 60 3 4 -1 6 -8 3 -7 -3 -24 11
-38 32 -13 21 -41 59 -62 84 -43 52 -44 56 -23 61 22 5 7 20 -80 77 -99 65
-218 123 -333 161 -142 48 -272 96 -347 128 -89 38 -223 82 -251 82 -12 0 -50
9 -85 21 -59 19 -80 20 -279 16 -135 -4 -237 -11 -275 -20 -99 -23 -225 -40
-305 -41 -72 0 -77 1 -135 43 -70 49 -120 73 -194 91 -61 14 -80 5 -62 -29 8
-14 8 -21 1 -21 -22 0 -130 49 -162 73 -21 16 -58 30 -103 38 -39 7 -73 17
-76 21 -3 5 -15 10 -27 11 -11 0 -20 4 -19 7 5 19 -27 110 -39 110 -8 0 -14 6
-14 14 0 8 -7 22 -16 30 -20 20 -44 21 -44 1 0 -8 -9 -15 -20 -15 -18 0 -19
-2 -8 -22 7 -13 18 -27 23 -31 6 -5 -3 -6 -20 -2 -16 4 -37 13 -46 21 -11 10
-18 11 -26 3 -8 -8 -17 -7 -33 1 -25 13 -172 43 -206 41 -18 0 -21 5 -22 42 0
23 6 52 14 64 19 30 18 41 -8 91 -22 40 -48 56 -48 30 0 -9 -4 -8 -10 2 -8 12
-10 10 -10 -10z m55 -260 c-3 -5 -13 -10 -21 -10 -8 0 -12 5 -9 10 3 6 13 10
21 10 8 0 12 -4 9 -10z m4415 -635 c0 -8 -6 -15 -14 -15 -17 0 -28 14 -19 24
12 12 33 6 33 -9z"/>
<path d="M11360 19870 c0 -5 18 -10 40 -10 22 0 40 5 40 10 0 6 -18 10 -40 10
-22 0 -40 -4 -40 -10z"/>
<path d="M11360 19820 c0 -5 18 -10 40 -10 22 0 40 5 40 10 0 6 -18 10 -40 10
-22 0 -40 -4 -40 -10z"/>
<path d="M11280 19801 c0 -4 11 -6 25 -3 14 2 25 6 25 8 0 2 -11 4 -25 4 -14
0 -25 -4 -25 -9z"/>
<path d="M9970 19519 c0 -5 5 -7 10 -4 6 3 10 8 10 11 0 2 -4 4 -10 4 -5 0
-10 -5 -10 -11z"/>
<path d="M15640 19490 c0 -16 7 -20 30 -20 18 0 37 -8 47 -19 21 -25 33 -18
33 19 0 32 -14 40 -71 40 -32 0 -39 -3 -39 -20z"/>
<path d="M15293 19470 c-18 -16 -33 -31 -33 -33 0 -2 16 -4 35 -5 26 -1 39 5
54 24 40 50 -5 61 -56 14z"/>
<path d="M10096 19451 c-6 -9 25 -21 53 -21 11 0 9 4 -5 15 -22 17 -40 19 -48
6z"/>
<path d="M15830 19435 c0 -5 6 -27 14 -50 8 -22 17 -52 20 -66 3 -15 26 -48
50 -73 24 -26 48 -59 54 -74 5 -15 22 -59 36 -98 26 -70 27 -76 20 -214 l-7
-142 24 15 c45 30 64 -5 39 -71 -13 -35 -15 -54 -7 -92 13 -68 5 -89 -53 -135
-27 -22 -53 -49 -56 -60 -3 -11 -18 -36 -34 -55 -38 -50 -70 -118 -70 -153 0
-27 -2 -29 -32 -25 -18 3 -42 9 -52 13 -14 6 -17 5 -12 -3 15 -24 91 -55 135
-55 37 0 47 4 64 28 11 15 44 51 72 79 52 52 115 129 115 140 0 4 11 23 24 43
22 31 24 43 20 109 -3 41 -2 74 1 74 3 0 24 -10 45 -22 41 -23 80 -86 86 -137
1 -14 9 -28 18 -33 31 -17 46 -40 46 -71 1 -18 7 -43 14 -57 l14 -25 7 40 c3
22 10 47 15 56 14 26 -5 87 -44 143 -29 43 -50 58 -124 96 l-89 45 -23 63
c-12 34 -25 62 -29 62 -3 0 -6 78 -6 173 l0 173 -35 70 c-26 51 -63 98 -147
184 -62 63 -113 111 -113 105z"/>
<path d="M10000 19420 c0 -5 -32 -7 -72 -4 -78 5 -112 -1 -102 -18 5 -7 0 -9
-14 -5 -12 4 -30 9 -39 12 -28 8 -47 -9 -39 -38 4 -19 16 -27 52 -37 44 -13
45 -14 40 -44 -3 -17 -1 -47 3 -66 5 -19 9 -31 10 -25 1 5 8 0 16 -13 12 -16
13 -26 5 -42 -7 -12 -7 -20 -1 -20 16 0 62 -47 60 -62 -4 -29 2 -38 34 -46 27
-7 32 -13 31 -38 0 -16 3 -31 7 -34 4 -3 11 -20 16 -39 5 -19 16 -35 25 -37
31 -4 78 -47 73 -66 -4 -11 1 -22 14 -30 12 -7 21 -17 21 -23 1 -23 20 -37 56
-42 22 -3 41 -9 42 -14 5 -12 26 -11 57 3 21 9 25 18 25 53 0 23 -6 62 -13 86
-13 44 -11 79 11 214 14 86 30 136 59 194 25 49 23 61 -11 61 -14 0 -34 14
-52 35 -16 19 -36 35 -46 35 -27 0 -48 11 -48 26 0 7 -10 16 -22 19 -46 10
-198 14 -198 5z"/>
<path d="M10537 19214 c-11 -11 23 -78 51 -102 30 -25 87 -52 109 -52 38 0
-46 112 -102 136 -22 10 -43 19 -46 21 -3 2 -8 1 -12 -3z"/>
<path d="M14966 19132 c-3 -5 -26 -15 -51 -22 -33 -9 -45 -17 -43 -29 7 -38
82 -19 99 26 9 26 6 43 -5 25z"/>
<path d="M9387 19100 c-38 -12 -56 -37 -57 -80 0 -20 -5 -41 -12 -48 -7 -7 -8
-12 -2 -12 19 0 35 -56 24 -85 -6 -15 -8 -30 -6 -33 3 -2 0 -14 -6 -26 -6 -11
-10 -37 -10 -57 2 -32 -1 -36 -18 -32 -11 3 -20 0 -20 -6 0 -6 12 -11 26 -11
19 0 25 -4 20 -15 -3 -9 8 -29 29 -50 19 -19 35 -43 35 -54 0 -13 15 -28 43
-44 23 -13 41 -29 39 -36 -1 -7 7 -15 18 -18 13 -3 19 -11 16 -19 -3 -8 -1
-14 4 -14 6 0 10 9 10 21 0 11 4 18 9 15 5 -3 7 -14 4 -24 -2 -9 8 -39 22 -65
27 -48 45 -60 45 -31 0 9 11 25 25 36 l25 19 -40 42 c-22 22 -40 48 -40 57 0
16 -58 133 -98 200 -19 30 -31 110 -17 110 7 0 199 -199 203 -211 2 -5 10 -9
17 -9 7 0 15 -4 17 -8 6 -16 134 -100 170 -111 37 -12 123 -55 143 -71 12 -10
75 -29 130 -40 200 -39 285 -63 347 -95 26 -14 54 -25 63 -25 8 0 15 -6 15
-14 0 -8 9 -18 20 -21 11 -4 28 -17 36 -31 9 -13 21 -24 27 -24 5 0 30 -10 54
-22 43 -22 46 -22 58 -4 11 14 17 15 33 7 16 -8 24 -7 36 4 30 30 74 7 76 -40
1 -18 2 -17 11 4 7 17 6 27 -1 31 -7 4 0 12 17 19 36 15 59 49 44 64 -6 6 -11
18 -11 27 -1 8 -18 32 -39 54 -45 45 -61 97 -36 122 8 8 15 11 15 5 0 -6 5
-11 11 -11 5 0 7 5 4 10 -3 6 3 10 15 10 15 0 22 8 27 30 7 35 17 37 58 10 17
-11 38 -20 47 -20 10 0 30 -11 45 -25 34 -30 130 -89 170 -102 15 -6 54 -8 87
-5 32 2 89 -1 126 -7 56 -10 81 -10 150 3 69 13 109 14 249 6 152 -10 177 -14
294 -51 109 -35 143 -51 240 -116 61 -42 139 -96 172 -122 68 -53 179 -133
242 -173 52 -34 267 -138 283 -138 7 0 24 -7 38 -15 15 -8 83 -33 152 -55 263
-87 320 -98 520 -106 193 -8 246 2 458 85 70 27 161 59 202 71 222 63 352 120
490 213 96 65 134 91 140 97 3 3 29 27 57 53 45 43 53 47 70 36 17 -10 33 -9
86 4 114 29 165 24 257 -27 44 -25 99 -60 122 -79 66 -53 126 -81 152 -69 19
8 17 11 -21 22 -23 7 -52 22 -64 33 -118 110 -273 176 -424 179 -89 3 -131
-13 -250 -96 -74 -52 -173 -106 -194 -106 -9 0 -27 -12 -40 -26 -24 -25 -49
-27 -42 -3 6 26 9 44 10 60 2 35 107 115 276 210 35 20 44 29 29 29 -12 0 -32
-8 -45 -19 -33 -26 -156 -98 -239 -141 -42 -22 -170 -73 -260 -105 -37 -13
-112 -28 -175 -34 -85 -8 -112 -14 -120 -28 -47 -79 -225 -152 -374 -153 -173
0 -626 128 -919 262 -26 11 -132 78 -235 147 -259 174 -338 221 -440 265 -189
81 -256 91 -564 88 -224 -2 -264 0 -354 19 -56 11 -120 27 -143 35 -71 26
-246 71 -366 94 -75 15 -133 32 -165 51 -42 23 -56 27 -85 19 -64 -15 -100
-32 -93 -43 7 -12 -9 -3 -53 30 -17 12 -33 20 -36 17 -11 -11 -78 8 -78 22 0
8 -4 14 -9 14 -16 0 -24 -89 -12 -130 6 -21 9 -45 6 -53 -8 -20 -76 -28 -155
-17 -224 29 -354 105 -580 337 -162 167 -191 185 -263 163z m1493 -640 c0 -5
-11 -10 -25 -10 -14 0 -25 5 -25 10 0 6 11 10 25 10 14 0 25 -4 25 -10z"/>
<path d="M11248 18998 c9 -9 15 -9 24 0 9 9 7 12 -12 12 -19 0 -21 -3 -12 -12z"/>
<path d="M15962 18798 c-20 -39 -22 -50 -12 -69 12 -22 13 -22 27 12 8 18 13
49 11 69 l-3 35 -23 -47z"/>
<path d="M16011 18533 c-1 -17 4 -35 10 -38 19 -13 23 5 6 38 l-16 32 0 -32z"/>
<path d="M15232 18300 c-52 -12 -51 -22 2 -18 28 2 51 8 54 16 4 13 -7 14 -56
2z"/>
<path d="M15368 18303 c7 -3 16 -2 19 1 4 3 -2 6 -13 5 -11 0 -14 -3 -6 -6z"/>
<path d="M9816 18181 c8 -47 -4 -55 -104 -76 -53 -11 -73 -21 -99 -48 l-32
-34 48 -47 c40 -40 52 -46 87 -46 25 0 51 7 66 19 13 11 35 19 48 18 14 0 30
2 35 4 14 6 16 -9 9 -73 -4 -39 -11 -58 -20 -58 -8 0 -14 -9 -14 -20 0 -17 7
-20 44 -20 41 0 44 2 39 23 -3 16 -2 18 5 9 8 -12 13 -12 31 -1 22 15 28 29
11 29 -5 0 -10 7 -10 15 0 8 4 15 9 15 16 0 81 -69 81 -85 0 -16 -41 -61 -52
-58 -3 1 -27 -18 -53 -43 -65 -62 -98 -77 -156 -72 -49 5 -162 54 -260 113
-31 19 -62 35 -69 35 -7 0 -35 12 -63 26 -35 17 -61 24 -79 20 -22 -4 -31 0
-43 18 -9 13 -25 26 -36 29 -11 3 -23 15 -26 26 -3 14 -13 21 -29 21 -19 0
-26 8 -37 48 -8 26 -19 47 -25 47 -6 0 -14 3 -18 8 -4 4 -2 7 5 7 7 0 1 11
-13 24 -15 13 -27 35 -27 52 -1 22 -3 24 -6 7 -5 -24 -73 -73 -101 -73 -11 0
-31 -9 -46 -21 -21 -17 -26 -29 -26 -67 0 -40 10 -63 60 -147 33 -55 71 -113
85 -130 14 -16 25 -33 25 -37 0 -11 -39 -30 -50 -23 -13 8 -24 -15 -12 -27 6
-6 9 -16 6 -22 -2 -6 11 -18 29 -27 31 -15 32 -18 32 -80 0 -51 3 -64 17 -67
12 -2 15 2 12 15 -4 15 1 18 28 18 38 0 47 -26 12 -35 -18 -4 -20 -9 -13 -28
5 -12 15 -25 24 -28 8 -4 15 -12 15 -20 0 -27 -82 -17 -131 16 -24 16 -51 30
-59 30 -8 0 -27 6 -42 14 -23 12 -27 12 -32 -1 -10 -26 -7 -57 13 -109 18 -50
18 -114 -1 -114 -11 0 -6 -79 7 -100 6 -8 11 -103 12 -210 2 -107 6 -206 10
-220 14 -55 15 -69 14 -172 -1 -59 3 -167 9 -240 6 -73 13 -203 16 -288 3 -85
10 -191 15 -235 6 -44 12 -141 14 -215 18 -598 38 -890 69 -1016 32 -131 51
-310 76 -734 38 -652 73 -1196 91 -1420 25 -318 39 -508 49 -660 23 -373 51
-781 70 -1035 11 -148 27 -364 35 -480 8 -115 22 -295 30 -400 8 -104 19 -257
25 -340 6 -82 17 -235 25 -340 8 -104 24 -314 35 -465 11 -151 22 -302 25
-335 2 -33 7 -100 10 -150 3 -49 12 -173 20 -275 8 -102 19 -250 25 -330 6
-80 22 -300 35 -490 14 -190 37 -500 50 -690 13 -190 33 -464 44 -610 11 -146
27 -383 37 -528 16 -230 20 -262 33 -256 9 3 24 9 34 11 19 6 22 19 7 28 -5 3
-10 13 -10 22 0 14 2 14 24 0 27 -18 36 -14 29 14 -4 15 -11 19 -28 15 -15 -4
-25 -1 -29 10 -11 28 -6 47 21 82 l26 35 13 -26 c15 -27 46 -43 64 -32 6 4 8
10 5 15 -7 11 15 223 24 233 10 10 17 -38 31 -223 6 -80 20 -190 30 -245 11
-55 23 -163 26 -240 8 -171 11 -179 55 -182 19 -1 52 -5 74 -9 38 -6 39 -6 24
12 -9 11 -20 34 -24 52 -5 26 -3 33 12 39 10 3 25 12 33 19 23 19 101 44 139
44 32 0 121 -42 121 -58 0 -4 16 -25 34 -46 19 -21 32 -44 30 -50 -2 -6 10
-17 27 -23 27 -11 31 -16 27 -43 -4 -23 1 -33 19 -45 13 -9 23 -20 23 -26 0
-14 -32 -8 -139 25 -46 14 -86 24 -89 21 -2 -2 9 -7 24 -11 16 -4 60 -22 99
-40 38 -19 78 -34 87 -34 21 0 32 -16 17 -25 -7 -5 -3 -15 11 -30 22 -23 49
-117 50 -171 0 -24 10 -41 40 -68 22 -20 49 -36 60 -36 10 0 31 -5 46 -12 23
-11 25 -17 21 -49 -4 -30 -1 -38 13 -42 9 -2 20 -18 23 -36 4 -17 13 -31 20
-31 8 0 35 -11 62 -25 55 -27 69 -25 53 10 -9 20 -19 25 -50 25 -22 0 -38 5
-38 11 0 8 14 10 44 6 49 -7 81 9 71 34 -8 20 -110 73 -124 65 -5 -4 -15 3
-21 14 -9 18 -8 20 17 22 15 0 33 1 40 1 7 0 11 4 10 10 -1 6 14 14 33 17 l35
6 -30 8 c-16 4 -58 20 -92 37 -34 16 -66 29 -71 29 -5 0 -12 7 -16 15 -8 22
32 19 70 -4 18 -11 54 -23 80 -26 27 -4 91 -18 143 -31 51 -13 103 -24 115
-24 47 0 96 -21 96 -40 0 -15 7 -20 29 -20 70 0 231 -88 231 -127 0 -7 9 -22
20 -33 16 -16 18 -24 10 -41 -11 -20 -5 -94 11 -134 8 -19 8 -19 8 1 2 39 49
49 164 35 84 -10 102 -10 114 2 20 20 6 47 -26 47 -20 0 -23 2 -11 10 8 6 26
8 40 5 127 -24 776 -35 873 -16 53 11 273 22 281 14 8 -9 411 -2 481 7 38 6
84 12 100 14 45 6 86 21 125 45 44 27 52 26 48 -2 -2 -14 -11 -23 -25 -25 -12
-2 -24 -10 -27 -18 -7 -19 20 -74 38 -74 19 0 36 46 30 80 -5 22 -3 30 8 30
17 0 78 -61 78 -79 0 -7 9 -11 20 -9 10 2 19 -1 20 -7 0 -5 -8 -11 -19 -13
-34 -5 -43 -27 -21 -47 11 -10 20 -28 20 -39 1 -65 66 -200 102 -212 22 -7 48
16 48 43 0 7 5 13 10 13 6 0 27 35 47 77 41 84 70 119 108 129 28 7 28 7 16
51 -8 26 -6 37 11 58 10 14 24 25 30 25 6 0 29 9 52 19 23 10 60 27 83 36 23
10 44 24 47 31 6 15 34 18 53 6 17 -11 29 -72 14 -72 -6 0 -11 7 -11 15 0 18
-16 20 -26 4 -3 -6 -1 -15 7 -19 19 -12 19 -538 -1 -550 -7 -4 -110 -31 -229
-60 -233 -57 -349 -87 -451 -118 l-65 -20 45 -1 c25 0 61 4 80 9 428 111 480
123 488 115 3 -2 -1 -6 -9 -9 -81 -23 -246 -68 -291 -78 -32 -7 -58 -16 -58
-19 0 -4 -11 -10 -25 -13 -14 -4 -33 -14 -43 -24 -11 -11 -55 -25 -113 -35
-79 -15 -123 -17 -265 -12 -186 8 -548 -14 -664 -40 -148 -33 -178 -37 -242
-31 -37 3 -79 11 -93 16 -15 6 -63 15 -108 20 -200 24 -342 39 -477 51 -126
10 -151 10 -190 -4 -31 -10 -45 -21 -43 -32 1 -15 -7 -16 -60 -10 -34 4 -78
11 -97 16 -19 5 -46 9 -60 9 -21 -1 -22 -2 -8 -11 25 -14 196 -49 243 -49 22
0 81 -7 130 -15 204 -34 976 -49 1315 -25 183 12 450 39 461 46 5 3 17 0 26
-5 14 -8 6 -10 -34 -11 -28 0 -58 -6 -65 -13 -7 -7 -68 -19 -143 -26 -71 -8
-164 -17 -205 -22 -55 -5 -39 -6 60 -3 150 6 354 26 482 48 205 36 473 103
541 136 21 10 52 22 70 26 80 17 302 119 418 193 227 143 459 319 438 332 -9
5 -10 36 -1 136 7 70 12 153 12 183 1 30 7 66 16 80 13 23 14 11 9 -125 -4
-82 -8 -176 -10 -207 -3 -32 -2 -58 0 -58 3 0 15 9 27 19 187 157 222 197 224
251 2 56 33 212 45 226 6 8 15 93 20 201 4 103 11 211 14 240 4 30 2 60 -4 72
-6 11 -7 22 -3 25 9 5 28 167 37 322 8 119 -19 244 -51 244 -10 0 -14 13 -14
40 0 52 -20 52 -42 0 -18 -43 -38 -53 -38 -20 0 27 -11 25 -33 -6 -19 -25 -29
-74 -47 -234 -9 -76 -24 -182 -50 -350 -14 -92 -33 -133 -73 -159 l-37 -24 21
-23 c12 -13 18 -28 14 -34 -11 -18 -152 -80 -188 -83 -19 -1 -32 3 -32 10 0 6
-2 14 -5 16 -8 9 -100 -14 -100 -24 0 -5 -6 -9 -14 -9 -7 0 -31 -8 -52 -17
-22 -10 -44 -18 -50 -18 -6 0 -18 -8 -27 -17 -13 -12 -14 -18 -4 -22 8 -3 3
-13 -16 -30 -30 -28 -57 -83 -57 -117 0 -11 -8 -34 -17 -49 -14 -25 -15 -33
-4 -57 8 -15 15 -66 17 -112 2 -47 8 -87 12 -90 4 -4 12 -14 17 -24 14 -26 31
-21 27 8 -4 26 31 65 57 65 9 0 25 -7 35 -15 17 -13 18 -20 10 -52 -8 -32 -14
-39 -39 -41 -38 -5 -52 -25 -22 -32 32 -8 30 -45 -3 -45 -24 0 -28 -7 -46 -73
-7 -26 -23 -1 -22 33 1 24 7 36 20 41 10 3 18 14 18 25 0 20 -15 26 -25 9 -5
-8 -11 -8 -20 0 -11 9 -14 -8 -19 -92 -14 -239 -20 -278 -45 -278 -3 0 -5 127
-4 282 1 190 -3 287 -10 299 -8 13 -8 24 1 41 6 13 14 46 17 73 2 28 11 68 20
90 8 22 14 59 15 82 l0 42 -62 -32 c-73 -38 -117 -52 -210 -67 -38 -5 -96 -15
-130 -20 -77 -13 -166 -8 -196 11 l-21 13 21 23 21 23 -73 0 c-53 0 -76 -4
-84 -15 -17 -23 -123 -47 -206 -46 -49 1 -85 -4 -104 -14 -15 -8 -44 -15 -64
-15 -19 0 -43 -6 -51 -14 -9 -7 -37 -17 -63 -20 -61 -9 -66 7 -34 100 24 68
24 72 17 324 -3 140 -3 270 0 289 13 61 22 614 11 642 -6 16 -8 49 -3 81 4 29
3 69 -2 88 -5 21 -4 50 3 78 9 38 8 47 -6 63 -14 16 -15 23 -4 49 7 16 15 30
19 30 3 0 11 17 18 38 12 40 7 105 -8 96 -5 -3 -9 15 -9 40 0 25 5 46 10 46 6
0 10 31 10 74 0 45 5 78 11 82 9 5 10 35 4 108 -4 56 -8 112 -7 126 1 52 8
110 15 116 4 4 7 29 7 54 0 49 -19 78 -41 65 -6 -4 -15 -2 -19 5 -4 6 -20 10
-36 7 -27 -4 -28 -5 -7 -12 21 -7 22 -9 7 -36 -12 -25 -17 -27 -33 -17 -31 19
-48 4 -55 -53 -4 -29 -16 -64 -27 -78 -15 -18 -19 -34 -15 -57 7 -33 -7 -53
-41 -58 -19 -3 -20 -36 -1 -47 5 -4 -2 -9 -16 -13 -21 -5 -26 -12 -26 -36 0
-17 -4 -30 -10 -30 -5 0 -10 -9 -10 -20 0 -11 5 -20 10 -20 6 0 10 -33 10 -80
0 -79 0 -80 -25 -80 -22 0 -25 -4 -25 -40 0 -22 -4 -40 -10 -40 -16 0 -13
-160 3 -160 6 0 1 -9 -12 -19 -23 -17 -25 -25 -23 -96 1 -77 1 -77 -28 -88
-17 -6 -29 -16 -28 -22 1 -5 -6 -26 -16 -45 -11 -19 -19 -47 -18 -63 0 -17 -7
-32 -19 -40 -10 -6 -19 -18 -19 -25 0 -7 5 -10 10 -7 6 4 9 -37 8 -117 l-2
-123 -5 99 c-5 87 -8 97 -20 82 -11 -13 -13 -41 -8 -136 5 -77 3 -120 -3 -120
-6 0 -10 18 -10 40 0 29 -4 40 -15 40 -11 0 -15 -12 -17 -42 l-1 -43 -8 45
c-5 29 -6 2 -4 -74 3 -73 9 -122 16 -126 15 -10 -12 -52 -29 -45 -24 9 -25
-25 -2 -45 20 -17 21 -20 5 -20 -14 0 -17 -6 -13 -33 7 -40 1 -57 -19 -57 -11
0 -14 -9 -11 -35 3 -36 -15 -60 -35 -48 -5 3 -40 8 -79 10 -86 6 -109 24 -109
86 1 108 -12 342 -18 347 -8 5 -26 341 -24 457 0 35 -2 63 -6 63 -3 0 -7 186
-9 413 -1 226 -6 455 -10 507 -5 52 -5 111 -2 131 5 26 -10 201 -19 226 -5 13
-49 43 -63 43 -10 0 -18 4 -18 8 0 5 -12 14 -26 20 -24 11 -24 13 -8 29 11 11
13 18 5 21 -13 4 -15 42 -2 42 5 0 13 10 17 23 9 31 20 36 66 30 36 -5 39 -4
50 25 7 17 19 34 28 38 8 4 116 10 240 15 124 5 270 13 325 19 55 5 102 6 105
4 3 -3 5 -22 5 -42 0 -30 5 -38 25 -45 15 -5 36 -5 53 2 24 9 27 16 27 56 0
25 3 46 8 46 4 1 27 3 52 4 72 5 161 26 215 50 28 12 75 30 105 40 30 10 69
26 85 36 17 10 55 22 85 27 30 6 109 19 175 31 66 11 148 25 181 31 34 5 89
10 123 10 42 0 79 7 112 21 44 20 54 20 88 9 36 -12 41 -11 73 13 18 14 65 63
103 108 116 137 157 179 173 179 8 0 35 11 61 23 159 80 243 120 293 137 32
10 73 30 91 44 19 14 39 26 45 26 17 0 82 71 82 89 0 9 13 46 28 83 26 64 104
168 126 168 6 0 35 18 64 40 29 22 56 40 60 40 4 0 17 15 28 33 23 34 39 143
23 152 -5 4 -9 2 -9 -3 0 -5 -39 -49 -87 -99 -125 -129 -170 -188 -190 -245
-17 -47 -91 -138 -113 -138 -5 0 -24 -15 -43 -32 -20 -18 -44 -38 -54 -45 -46
-31 -184 -101 -238 -122 -33 -13 -69 -27 -80 -31 -11 -5 -45 -19 -75 -31 -30
-13 -74 -39 -97 -60 -56 -51 -100 -72 -222 -103 -57 -15 -118 -33 -135 -41
-113 -46 -231 -78 -434 -115 -89 -16 -191 -37 -225 -46 -34 -9 -77 -16 -94
-16 -36 0 -123 49 -123 70 0 6 -4 12 -9 12 -5 0 -18 18 -28 39 -44 88 -94 122
-129 87 -17 -18 -18 -27 -1 -24 16 4 10 -52 -8 -71 -7 -7 -25 -14 -39 -14 -19
0 -29 -8 -41 -34 -15 -30 -21 -34 -46 -31 -16 3 -29 1 -29 -4 0 -4 -9 -8 -20
-8 -11 0 -23 -7 -26 -15 -4 -8 -14 -15 -24 -15 -10 0 -25 -6 -33 -14 -8 -8
-36 -19 -63 -25 -27 -5 -71 -15 -99 -21 -27 -6 -93 -11 -145 -11 -52 0 -119
-4 -149 -10 -80 -16 -111 -6 -145 47 -24 38 -28 55 -27 108 0 42 -4 68 -13 75
-13 11 -9 61 9 104 4 10 3 17 -4 17 -6 0 -11 14 -11 30 0 17 5 30 10 30 6 0
10 18 10 40 0 22 -4 40 -10 40 -5 0 -10 18 -10 40 0 22 4 40 9 40 6 0 12 62
14 143 2 78 6 195 8 260 4 104 2 121 -14 138 -10 10 -13 19 -7 19 5 0 10 18
10 40 0 22 -4 40 -9 40 -5 0 -12 68 -16 150 -6 131 -5 155 10 186 15 31 16 56
10 186 -7 143 -9 150 -31 160 -12 6 -20 16 -18 22 3 7 -7 13 -23 14 -14 1 -35
9 -45 19 -16 14 -23 12 -19 -9 0 -5 -4 -8 -10 -8 -7 0 -17 -7 -24 -16 -6 -9
-34 -20 -63 -25 -29 -4 -59 -16 -71 -28 -11 -11 -39 -30 -63 -42 -24 -12 -50
-27 -58 -33 -8 -7 -35 -18 -59 -25 -24 -7 -51 -19 -58 -27 -13 -13 -76 -20
-133 -15 -13 1 -30 -5 -36 -14 -8 -11 -28 -17 -58 -17 -29 -1 -47 -6 -50 -15
-5 -11 -10 -11 -27 -2 -18 9 -27 7 -52 -12 -17 -12 -46 -23 -66 -24 -20 -2
-56 -6 -81 -11 -25 -4 -56 -7 -70 -6 -14 0 -33 -7 -42 -15 -16 -15 -20 -14
-40 12 -13 16 -26 40 -29 54 -10 40 -10 101 0 101 5 0 7 9 4 20 -4 13 1 26 12
34 23 17 14 59 -21 91 -24 22 -25 27 -19 105 5 86 10 104 26 94 5 -3 15 -2 22
3 7 5 26 9 42 8 141 -8 246 -17 278 -26 38 -10 51 -29 20 -29 -11 0 -14 -3 -7
-8 6 -4 14 -17 18 -29 9 -28 32 -30 39 -3 4 16 14 20 45 20 27 0 45 6 58 21
16 18 26 20 74 14 30 -4 59 -11 64 -16 6 -5 17 -2 28 8 27 25 247 29 264 5 10
-14 14 -12 38 11 27 27 50 34 60 19 5 -8 -21 -36 -37 -39 -33 -6 -33 -9 -4
-59 11 -19 16 -20 47 -9 23 8 36 19 38 33 2 14 11 22 22 22 26 0 34 17 14 28
-19 10 -11 32 12 32 8 0 14 3 14 8 0 10 50 32 72 32 10 0 18 4 18 9 0 15 178
68 205 60 29 -8 709 36 795 52 164 31 241 57 330 114 19 13 51 26 70 30 19 4
40 11 46 16 6 5 38 14 70 20 33 6 69 17 82 25 13 8 35 17 50 19 15 3 50 11 77
20 28 8 70 20 95 26 25 7 112 34 194 61 199 66 328 134 383 205 28 34 84 72
208 138 77 41 135 77 135 84 0 4 27 13 60 19 33 7 60 18 60 24 0 7 4 7 14 -1
32 -27 149 24 195 85 45 59 73 174 43 174 -12 0 -88 -66 -176 -152 -44 -43
-88 -78 -97 -78 -10 0 -20 -4 -23 -9 -5 -7 -35 -17 -86 -27 -29 -6 -145 -43
-200 -63 -31 -12 -68 -36 -87 -56 -17 -19 -44 -37 -60 -40 -15 -4 -37 -10 -48
-15 -26 -11 -76 -28 -150 -50 -33 -10 -98 -34 -145 -55 -116 -50 -319 -114
-495 -156 -44 -10 -118 -32 -165 -49 -47 -16 -94 -30 -105 -30 -21 1 -65 32
-65 47 0 4 -14 16 -30 25 -29 16 -30 20 -31 85 -1 128 -13 219 -32 237 -22 23
-37 12 -37 -27 0 -18 -7 -45 -15 -61 -10 -19 -15 -58 -15 -121 0 -98 -6 -110
-48 -98 -16 4 -19 1 -15 -20 3 -14 0 -28 -6 -31 -20 -13 -12 -26 16 -26 54 0
-1 -16 -74 -22 -24 -2 -33 -7 -33 -20 0 -17 -27 -28 -108 -44 -18 -4 -32 -10
-32 -14 0 -15 -55 -24 -160 -26 -58 -1 -163 -9 -234 -18 -132 -15 -191 -10
-281 24 -25 9 -35 40 -14 40 8 0 9 31 5 103 -4 56 -6 120 -6 142 0 22 0 75 -1
118 0 62 3 81 16 91 13 10 14 17 5 41 -9 25 -8 31 6 42 10 7 20 13 23 13 3 0
5 56 3 125 -2 77 -7 125 -13 125 -7 0 -10 43 -7 123 2 101 0 126 -13 139 -12
13 -15 44 -14 179 1 90 -3 169 -8 176 -5 6 -10 105 -12 218 -3 116 -9 212 -14
219 -6 7 -9 25 -7 41 2 17 0 35 -4 40 -5 6 -10 31 -12 55 l-3 45 -45 1 c-25 1
-55 -3 -67 -7 -12 -4 -52 -11 -89 -14 -37 -3 -72 -9 -78 -13 -6 -3 -94 -9
-196 -13 -102 -4 -201 -10 -220 -13 -19 -3 -56 -7 -81 -10 -25 -2 -54 -8 -65
-14 -10 -5 -23 -10 -29 -10 -41 -2 -121 -17 -176 -33 -36 -10 -81 -19 -98 -19
-18 0 -39 -7 -47 -15 -9 -8 -33 -15 -54 -15 -40 0 -62 20 -65 60 -3 36 -31 75
-52 74 -12 -1 -24 5 -27 12 -3 8 1 14 8 14 7 0 22 12 32 26 10 14 25 32 32 40
7 8 10 14 5 14 -4 0 0 5 10 11 13 8 22 7 31 -1 9 -6 35 -9 65 -6 28 3 64 0 79
-6 22 -9 342 -20 487 -17 17 0 118 2 225 3 152 2 205 7 239 19 24 10 55 17 68
17 14 0 37 6 51 14 56 30 171 55 417 92 151 22 267 50 328 78 29 13 87 40 131
61 104 48 237 82 367 94 58 6 118 15 133 21 15 5 94 10 176 10 149 0 214 9
370 50 41 10 122 31 180 46 122 30 270 79 320 105 19 9 50 24 68 33 17 8 32
21 32 29 0 8 10 17 22 20 12 4 19 9 16 13 -4 3 -14 2 -24 -4 -11 -6 -25 -5
-43 4 -35 19 -44 18 -152 -12 -290 -79 -606 -118 -921 -112 -114 2 -161 -1
-170 -10 -6 -6 -20 -12 -31 -12 -10 0 -69 -17 -130 -39 -130 -44 -291 -84
-432 -107 -249 -39 -365 -53 -428 -54 -38 0 -66 -4 -63 -9 6 -9 -35 -19 -111
-27 -45 -6 -62 13 -23 23 15 4 19 11 15 24 -4 11 -2 19 5 19 6 0 8 5 5 10 -3
6 0 13 8 16 8 3 17 18 21 35 4 23 11 29 33 30 16 0 22 3 16 6 -16 6 -18 103
-3 103 6 0 10 -5 10 -10 0 -6 14 -1 30 12 16 12 30 28 30 35 0 7 5 13 11 13 6
0 4 9 -5 21 -16 23 -12 44 16 73 22 24 20 70 -4 96 -25 27 -22 110 4 94 6 -4
8 2 3 15 -4 12 -2 21 4 21 6 0 11 9 11 20 0 11 4 20 8 20 12 0 33 50 26 61 -3
5 -9 7 -14 4 -8 -5 -20 17 -20 40 0 7 9 15 20 18 15 4 20 14 20 41 0 20 5 36
10 36 6 0 10 -21 10 -47 0 -25 3 -43 7 -40 4 4 7 30 7 59 1 45 -2 54 -26 71
-27 20 -28 24 -28 116 0 93 -1 96 -31 127 l-31 32 33 11 c17 6 39 11 48 11 9
0 31 14 49 30 30 27 32 32 18 46 -22 21 -10 37 21 29 14 -3 30 -2 36 4 7 5 23
11 37 13 20 2 26 -2 28 -20 5 -33 36 -24 40 11 2 15 9 27 17 27 8 0 25 4 39
10 l26 9 -25 27 c-14 15 -25 32 -25 38 0 7 -13 17 -30 23 -28 11 -42 33 -20
33 6 0 10 11 10 24 0 16 7 27 20 31 25 8 26 22 1 30 -27 8 -53 52 -46 75 4 12
2 20 -4 20 -6 0 -11 -5 -11 -11 0 -6 -17 -9 -42 -7 l-43 3 -3 59 c-3 50 0 61
17 73 15 10 21 25 21 53 0 59 -7 70 -41 63 l-29 -5 0 86 c0 79 -2 86 -20 86
-17 0 -20 7 -20 40 0 46 -18 60 -79 60 -40 0 -40 0 -37 35 1 20 -3 40 -11 46
-15 13 -17 41 -3 55 15 15 1 48 -30 69 -32 22 -30 37 8 54 l26 12 -43 20 c-31
14 -66 19 -125 19 -46 0 -85 -3 -89 -6 -7 -8 -522 -20 -939 -23 -169 -1 -198
-3 -198 -16 0 -11 -11 -15 -40 -15 -30 0 -40 -4 -40 -16 0 -9 -7 -14 -16 -12
-15 3 -24 14 -44 58 -5 10 -21 13 -58 11 -44 -2 -54 1 -73 23 -13 14 -29 26
-36 26 -16 0 -17 -12 -1 -28 9 -9 9 -12 0 -12 -7 0 -12 5 -12 10 0 6 -7 10
-16 10 -9 0 -22 8 -29 17 -9 13 -32 18 -84 21 -39 2 -72 8 -72 13 -1 5 -2 15
-3 22 -1 6 -9 11 -19 11 -9 -1 -17 1 -17 5 0 3 62 5 138 4 75 0 155 3 177 9
47 12 130 11 235 -2 79 -11 198 -13 240 -5 14 2 73 11 132 19 60 9 121 22 136
30 16 8 61 17 99 21 39 3 87 12 107 20 19 8 56 15 80 15 25 0 57 5 71 12 19 9
34 8 65 -2 29 -9 43 -10 53 -2 12 11 46 15 257 32 568 45 590 49 785 145 134
65 206 91 380 135 27 7 43 13 110 41 20 9 153 42 305 78 47 11 130 31 185 44
55 14 143 32 195 41 120 22 309 85 425 143 50 25 107 54 128 65 38 19 49 38
22 38 -8 0 -15 5 -15 10 0 6 6 10 14 10 15 0 16 35 2 58 -5 8 2 12 21 12 l28
1 -22 18 c-13 11 -23 24 -23 31 0 6 -3 10 -7 8 -10 -5 -112 -53 -155 -72 -18
-9 -58 -30 -88 -47 -30 -17 -113 -48 -185 -69 -71 -21 -168 -50 -215 -65 -47
-14 -134 -33 -195 -41 -60 -9 -162 -30 -225 -46 -63 -17 -131 -34 -150 -38
-47 -11 -183 -51 -305 -90 -138 -45 -325 -83 -610 -127 -158 -24 -718 -20
-796 6 -14 5 -38 7 -52 4 -14 -3 -55 0 -89 6 -35 6 -183 11 -330 11 -162 1
-268 5 -268 11 0 5 19 10 43 11 l42 1 -40 4 c-38 4 -76 23 -46 23 11 0 11 3 1
15 -20 24 -10 183 13 199 19 15 23 66 5 66 -7 0 -2 7 10 16 15 10 21 22 17 34
-3 10 -1 21 5 25 19 12 10 24 -22 33 -28 7 -33 13 -30 35 2 18 -2 26 -10 25
-7 -2 -13 3 -12 10 3 38 5 43 14 37 6 -4 7 -11 4 -17 -5 -7 6 -9 30 -6 33 4
39 1 52 -24 18 -35 29 -35 48 0 8 15 15 23 16 19 0 -5 10 -1 22 7 12 9 30 16
39 16 10 0 19 4 21 8 2 5 14 5 28 1 l25 -7 -27 -1 c-16 -1 -28 -6 -28 -12 0
-6 7 -8 16 -5 9 3 27 6 41 6 24 0 25 2 19 40 -3 22 -15 49 -26 60 -26 26 -25
42 1 66 32 29 22 106 -17 142 -36 32 -35 32 -79 32 -34 0 -35 1 -35 39 0 47 1
47 178 50 100 2 122 0 122 -12 0 -20 36 -49 56 -45 22 4 34 46 22 71 -7 14
-16 16 -44 11 -22 -4 -34 -2 -34 5 0 7 20 11 49 11 31 0 53 5 61 15 7 8 21 15
32 15 22 0 35 27 20 42 -8 8 -20 3 -42 -16 -33 -27 -100 -37 -100 -14 0 9 -3
9 -12 0 -16 -16 -38 -15 -38 2 0 18 -31 29 -54 20 -12 -5 -20 3 -31 30 -14 33
-18 36 -59 36 -55 0 -104 24 -112 56 -7 28 -44 33 -64 9 -7 -8 -23 -15 -37
-15 -21 0 -24 -4 -21 -37 2 -28 -1 -38 -13 -41 -18 -3 -18 -1 -24 81 -2 32 -6
62 -10 65 -4 4 -40 6 -80 5 -41 -1 -77 2 -80 7 -4 6 -13 10 -22 10 -8 0 -26 9
-39 19 -14 11 -42 22 -64 26 -25 4 -40 12 -40 21 0 8 -4 14 -10 14 -5 0 -10
-5 -10 -11 0 -6 -8 -9 -19 -6 -10 2 -26 0 -36 -6 -15 -8 -17 -7 -12 7 4 11 1
16 -10 16 -8 0 -24 10 -34 22 -21 24 -39 17 -19 -7 7 -9 10 -18 6 -22 -10 -10
-176 -11 -176 -1 0 4 -11 8 -24 8 -37 0 -41 17 -6 25 16 4 30 13 30 21 0 10
12 14 40 14 30 0 40 -4 40 -16 0 -8 6 -22 14 -30 17 -16 66 -19 66 -4 0 6 -13
10 -30 10 -23 0 -30 5 -30 19 0 11 6 21 13 24 23 8 -1 18 -57 24 -47 5 -56 9
-56 26 0 17 4 18 37 12 21 -4 40 -10 43 -14 9 -13 95 -31 98 -21 2 6 9 10 17
10 7 0 18 6 24 14 9 10 20 12 42 6 16 -5 30 -8 30 -7 1 1 3 30 4 65 1 56 -1
62 -19 62 -12 0 -41 10 -66 21 -25 11 -81 25 -125 30 -43 6 -85 14 -91 20 -6
5 -19 7 -28 3 -9 -3 -22 -1 -30 5 -7 6 -35 15 -62 20 -27 5 -62 15 -79 22 -47
19 -63 20 -79 4 -9 -9 -16 -11 -18 -4 -2 6 -35 12 -78 13 -108 3 -274 28 -283
43 -4 7 -35 18 -69 25 -35 7 -65 20 -71 29 -8 13 -16 15 -31 8 -14 -6 -36 -5
-66 4 -40 11 -44 16 -45 44 0 18 -4 35 -8 39 -4 4 -7 22 -7 41 0 29 -3 33 -25
33 -14 0 -24 5 -22 11 2 12 -55 37 -90 38 -15 1 -23 9 -28 31 -4 20 -17 36
-36 45 -16 9 -29 20 -29 25 0 6 -18 10 -41 10 -32 0 -42 4 -46 19 -3 11 -12
22 -22 24 -14 4 -14 5 2 6 24 1 21 15 -8 31 -14 7 -25 17 -25 22 0 4 -7 8 -15
8 -8 0 -15 4 -15 10 0 13 22 4 99 -42 36 -21 72 -38 79 -38 7 0 31 -10 54 -21
47 -24 122 -22 159 5 24 16 10 31 -20 21 -11 -3 -22 -2 -25 3 -3 6 7 12 22 15
37 7 95 30 107 43 6 6 26 22 45 35 19 13 44 31 54 41 22 20 31 21 61 8 l20 -8
-20 -7 c-11 -4 -26 -9 -32 -11 -7 -2 -13 -8 -13 -14 0 -11 23 -14 33 -3 4 3
19 8 34 9 15 2 29 8 31 14 2 5 19 10 39 10 60 0 32 -24 -43 -35 -38 -6 -75
-14 -81 -18 -8 -5 -13 -4 -13 2 0 6 -9 11 -21 11 -16 0 -19 -4 -14 -20 4 -13
2 -20 -7 -20 -9 -1 -7 -5 5 -14 24 -18 21 -31 -9 -51 -18 -12 -38 -15 -60 -12
-36 6 -56 -7 -24 -16 17 -4 20 -14 20 -69 0 -51 -4 -67 -20 -81 -14 -12 -18
-23 -13 -35 5 -9 8 -39 8 -67 -1 -36 3 -52 15 -57 25 -11 40 -9 40 7 0 9 -6
12 -15 9 -12 -5 -14 0 -9 27 4 19 12 40 18 48 8 11 8 13 -1 7 -9 -5 -11 -2 -7
8 9 25 37 23 64 -3 14 -14 24 -29 23 -33 -3 -9 37 -31 44 -24 3 3 18 -1 34 -9
19 -10 30 -12 34 -4 4 6 13 8 21 5 7 -3 17 2 22 11 6 11 11 12 16 4 12 -19 21
-13 44 28 24 42 46 50 120 43 36 -4 42 -7 42 -27 0 -13 -5 -25 -11 -27 -5 -2
-8 -10 -4 -18 4 -11 18 -15 46 -13 25 1 47 -4 56 -12 10 -11 19 -12 38 -3 14
6 35 7 52 3 15 -5 32 -7 37 -6 41 9 105 7 129 -6 17 -8 40 -12 53 -9 42 11
137 17 161 11 13 -3 23 -12 23 -20 0 -20 29 -19 36 0 6 15 16 15 69 -5 11 -4
23 -7 26 -6 4 0 15 -7 26 -16 10 -10 35 -24 56 -33 20 -8 37 -20 37 -25 0 -6
5 -10 11 -10 6 0 27 -7 46 -16 l34 -17 42 48 c23 27 52 57 63 68 20 17 21 19
5 50 -38 72 -43 77 -89 77 -24 0 -72 -7 -105 -16 -81 -21 -187 -8 -276 34 -31
14 -37 14 -86 -3 -59 -20 -85 -16 -85 14 0 11 -4 23 -10 26 -5 3 -10 15 -10
26 0 11 -7 31 -16 44 -13 19 -22 23 -44 18 -31 -6 -93 25 -103 51 -3 7 -34 19
-69 26 l-63 13 33 11 c18 6 30 15 26 19 -11 10 -74 9 -74 -2 0 -5 -10 -13 -21
-16 -17 -6 -27 0 -46 24 -13 17 -32 31 -42 31 -9 0 -39 11 -67 24 -46 23 -47
25 -19 25 17 0 59 -8 95 -18 49 -13 65 -21 64 -34 -1 -9 2 -17 7 -17 5 0 9 4
9 10 0 11 40 7 98 -11 24 -7 42 -18 42 -27 0 -9 6 -12 16 -8 10 4 24 -2 35
-15 12 -13 24 -19 37 -15 11 4 24 0 32 -9 7 -8 21 -15 31 -15 11 0 19 -4 19
-10 0 -5 25 -10 56 -10 47 0 54 -2 45 -14 -9 -11 -3 -14 31 -19 24 -3 69 -3
100 -1 32 2 76 0 98 -5 27 -6 40 -5 43 3 3 8 10 8 24 -1 16 -9 29 -9 59 2 29
10 98 12 269 10 248 -3 295 -11 362 -61 17 -13 36 -24 41 -24 5 0 15 -7 22
-15 7 -8 15 -13 19 -11 4 3 35 -16 68 -42 34 -26 87 -65 119 -87 31 -22 80
-59 108 -83 68 -57 136 -102 155 -102 9 0 44 -9 78 -20 83 -26 225 -50 295
-50 104 0 253 27 438 81 103 30 128 33 245 33 77 1 184 -7 263 -18 117 -17
151 -18 280 -9 81 6 163 9 182 7 83 -11 159 -26 215 -44 158 -51 353 -85 383
-66 4 2 57 12 117 20 169 24 239 39 253 53 8 7 21 17 30 22 24 12 180 33 192
26 6 -3 17 0 25 9 14 13 134 46 171 46 31 0 214 154 199 168 -3 3 -15 -7 -28
-21 -12 -15 -30 -27 -38 -27 -9 0 -24 -9 -34 -20 -10 -11 -24 -20 -32 -20 -7
0 -36 -12 -64 -26 -27 -15 -52 -25 -54 -22 -3 2 1 16 8 31 9 21 19 27 44 27
22 0 37 7 45 20 7 11 19 20 26 20 7 0 10 4 7 10 -3 5 7 12 22 16 15 4 43 23
62 43 92 98 107 112 128 117 12 3 33 25 47 48 26 45 67 79 175 148 35 22 66
48 68 58 3 10 15 21 26 24 26 7 69 72 103 157 18 43 27 88 30 153 3 50 8 107
10 126 12 87 11 95 -17 98 -14 2 -30 -3 -36 -10 -13 -15 -30 -130 -37 -238 -2
-41 -6 -87 -9 -101 -7 -37 -37 -99 -48 -99 -5 0 -9 -11 -9 -26 0 -19 -7 -28
-30 -35 -18 -7 -30 -18 -30 -29 0 -10 -10 -20 -23 -24 -13 -3 -36 -17 -51 -31
-36 -33 -60 -45 -91 -45 -17 0 -29 -8 -36 -24 -6 -13 -30 -34 -53 -47 -22 -13
-77 -58 -120 -102 -103 -103 -189 -174 -234 -193 -255 -110 -308 -122 -617
-133 -104 -4 -176 -8 -160 -10 17 -1 39 -4 50 -7 74 -15 263 -2 548 37 103 14
126 9 72 -18 -44 -21 -118 -36 -270 -53 -55 -6 -125 -15 -155 -20 -46 -7 -48
-8 -15 -8 60 1 75 -1 75 -11 0 -16 -181 -18 -290 -4 -58 8 -154 28 -215 45
-186 51 -258 68 -301 68 -28 0 -47 6 -59 20 -10 11 -16 22 -14 23 33 27 61 37
98 37 84 0 34 10 -98 19 -77 6 -138 15 -147 22 -12 10 -28 10 -78 0 -48 -10
-73 -10 -102 -2 -22 7 -93 14 -159 18 -69 3 -128 11 -140 19 -11 7 -38 15 -60
19 -22 3 -52 9 -67 11 -23 5 -28 2 -28 -15 0 -25 -23 -36 -125 -57 -38 -8 -95
-22 -125 -30 -109 -31 -126 -35 -205 -41 -321 -25 -499 47 -780 318 -92 88
-187 150 -293 191 l-87 33 -205 -4 c-566 -11 -596 -9 -770 45 -240 74 -418
126 -535 155 -22 6 -47 14 -55 18 -9 5 -36 12 -60 16 -25 4 -55 12 -67 19 -30
15 -78 78 -107 140 -32 67 -79 117 -108 113 -16 -1 -22 3 -20 13 2 8 5 32 7
54 2 31 -1 40 -16 43 -11 3 -19 9 -19 13 0 4 -7 10 -15 14 -13 4 -14 -1 -9
-33z m34 -67 c0 -8 -4 -12 -10 -9 -5 3 -10 10 -10 16 0 5 5 9 10 9 6 0 10 -7
10 -16z m-510 -564 c13 -8 13 -10 -2 -10 -9 0 -20 5 -23 10 -8 13 5 13 25 0z
m94 -29 c16 -18 16 -18 -9 -14 -14 3 -25 12 -25 19 0 19 14 17 34 -5z m803
-37 c-3 -3 -12 -4 -19 -1 -8 3 -5 6 6 6 11 1 17 -2 13 -5z m-197 -144 c0 -11
-4 -20 -10 -20 -5 0 -10 -9 -10 -20 0 -13 7 -20 20 -20 24 0 25 -6 6 -26 -25
-24 -31 -16 -34 46 -3 49 0 60 12 60 9 0 16 -9 16 -20z m-616 -315 c-4 -8 -8
-15 -10 -15 -2 0 -4 7 -4 15 0 8 4 15 10 15 5 0 7 -7 4 -15z m4696 -4 c0 -20
-13 -35 -23 -25 -7 8 4 44 14 44 5 0 9 -9 9 -19z m1415 -18 c-22 -15 -41 -17
-50 -4 -8 14 24 29 48 23 19 -5 19 -6 2 -19z m-6008 -91 l-4 -37 -1 43 c-1 23
-7 42 -13 42 -5 0 -7 5 -3 11 12 20 26 -18 21 -59z m-97 3 c0 -35 -3 -43 -15
-39 -10 4 -15 20 -15 45 0 28 4 39 15 39 11 0 15 -12 15 -45z m416 -111 c-6
-23 -36 -35 -36 -15 0 5 -8 12 -17 15 -10 3 -3 4 15 2 31 -2 32 -1 33 38 2 32
3 35 6 12 3 -15 2 -39 -1 -52z m154 -20 c0 -8 -4 -12 -10 -9 -5 3 -10 10 -10
16 0 5 5 9 10 9 6 0 10 -7 10 -16z m-162 -24 c46 -22 48 -26 27 -54 -8 -10
-12 -22 -10 -27 9 -13 -34 -21 -68 -13 -17 4 -36 8 -42 8 -31 2 3 106 34 106
10 0 36 -9 59 -20z m249 -27 c-3 -10 -5 -2 -5 17 0 19 2 27 5 18 2 -10 2 -26
0 -35z m-167 21 c0 -8 -4 -12 -10 -9 -5 3 -10 10 -10 16 0 5 5 9 10 9 6 0 10
-7 10 -16z m1106 -12 c-2 -9 2 -20 8 -24 7 -5 4 -8 -6 -8 -13 0 -18 8 -18 31
0 16 4 28 9 25 5 -4 8 -14 7 -24z m-191 -64 c21 -73 20 -88 -10 -88 -17 0 -25
6 -26 18 0 9 -3 30 -5 45 -3 16 0 35 6 42 7 8 9 19 5 25 -3 5 -2 10 4 10 6 0
17 -23 26 -52z m-897 0 c-3 -7 -20 -14 -39 -16 -32 -2 -33 -1 -15 13 24 18 59
20 54 3z m932 -14 c0 -8 -4 -12 -10 -9 -5 3 -10 10 -10 16 0 5 5 9 10 9 6 0
10 -7 10 -16z m787 -370 c-3 -3 -12 -4 -19 -1 -8 3 -5 6 6 6 11 1 17 -2 13 -5z
m-7 -73 c0 -5 3 -18 7 -28 6 -16 5 -16 -10 -4 -19 15 -23 41 -7 41 6 0 10 -4
10 -9z m-126 -137 c4 -15 5 -29 1 -32 -3 -3 -5 2 -5 11 0 13 -9 17 -40 17 -29
0 -40 4 -40 15 0 11 11 15 39 15 34 0 40 -4 45 -26z m-104 -155 c43 -9 49 -13
39 -25 -8 -10 -15 -12 -23 -4 -5 5 -25 10 -43 10 -23 0 -33 5 -33 15 0 18 -3
18 60 4z m29 -125 c-15 -18 -22 -13 -13 10 3 9 10 13 16 10 5 -3 4 -12 -3 -20z
m204 -51 c-7 -2 -19 -2 -25 0 -7 3 -2 5 12 5 14 0 19 -2 13 -5z m-918 -983
c-3 -5 -10 -10 -16 -10 -5 0 -9 5 -9 10 0 6 7 10 16 10 8 0 12 -4 9 -10z m118
-23 c-23 -10 -77 -2 -69 11 2 4 24 6 48 3 38 -3 40 -5 21 -14z m30 -24 c-7 -2
-19 -2 -25 0 -7 3 -2 5 12 5 14 0 19 -2 13 -5z m1847 -1317 c11 0 19 -5 18
-11 -5 -16 -70 -5 -84 13 -18 25 -6 34 22 16 14 -9 34 -17 44 -18z m85 -286
c3 -5 1 -10 -4 -10 -6 0 -11 5 -11 10 0 6 2 10 4 10 3 0 8 -4 11 -10z m58 -37
c-7 -2 -19 -2 -25 0 -7 3 -2 5 12 5 14 0 19 -2 13 -5z m-52 -310 c-2 -51 1
-65 18 -82 41 -41 -1 -68 -48 -32 -22 17 -23 20 -10 57 7 21 14 50 15 64 1 14
2 33 3 43 0 10 6 17 13 15 8 -3 11 -25 9 -65z m-3110 -853 c4 0 5 -9 2 -20
l-6 -21 -18 20 c-20 21 -24 42 -12 55 4 4 12 -2 17 -13 5 -12 12 -21 17 -21z
m1649 -100 c0 -5 -7 -10 -15 -10 -8 0 -15 5 -15 10 0 6 7 10 15 10 8 0 15 -4
15 -10z m-458 -115 c0 -5 -5 -11 -11 -13 -6 -2 -11 4 -11 13 0 9 5 15 11 13 6
-2 11 -8 11 -13z m-115 -1 c-3 -3 -12 -4 -19 -1 -8 3 -5 6 6 6 11 1 17 -2 13
-5z m-278 -45 c1 -30 -2 -40 -11 -36 -7 2 -12 12 -10 22 2 9 -1 14 -7 11 -5
-4 -12 -2 -16 4 -3 5 -1 10 4 10 6 0 11 7 11 15 0 8 6 15 13 15 8 0 14 -15 16
-41z m-1039 -645 c0 -8 -5 -12 -10 -9 -6 4 -8 11 -5 16 9 14 15 11 15 -7z m30
-125 c0 -11 5 -19 10 -19 6 0 10 -14 10 -31 0 -46 -29 -34 -47 19 -17 52 -11
81 12 62 8 -7 15 -21 15 -31z m50 -197 c0 -12 -3 -12 -15 -2 -8 7 -15 22 -15
34 1 21 1 21 15 2 8 -11 15 -26 15 -34z m-10 -176 c0 -3 -4 -8 -10 -11 -5 -3
-10 -1 -10 4 0 6 5 11 10 11 6 0 10 -2 10 -4z m20 -106 c0 -11 -4 -20 -10 -20
-5 0 -10 9 -10 20 0 11 5 20 10 20 6 0 10 -9 10 -20z m7 -177 c-3 -10 -5 -2
-5 17 0 19 2 27 5 18 2 -10 2 -26 0 -35z m63 -293 c0 -54 -2 -60 -20 -57 -28
4 -37 16 -43 60 -4 28 -2 37 9 37 8 0 17 -7 20 -15 9 -22 26 -7 19 16 -4 11
-2 19 4 19 7 0 11 -24 11 -60z m-71 -267 c13 -9 35 -16 49 -17 23 -1 27 -8 44
-76 10 -41 20 -97 22 -125 1 -27 6 -57 10 -66 4 -8 2 -27 -3 -41 -7 -18 -6
-39 3 -69 10 -34 13 -146 5 -179 0 -3 0 -26 1 -52 1 -27 -3 -48 -9 -48 -6 0
-7 14 -4 35 3 21 -1 50 -11 74 -8 22 -13 47 -10 55 3 8 0 17 -5 21 -6 3 -9 11
-6 16 4 5 1 9 -4 9 -6 0 -11 13 -11 29 0 16 -5 42 -11 58 -10 27 -11 27 -25 9
-8 -11 -14 -28 -14 -39 0 -10 -5 -17 -12 -15 -8 3 -16 35 -20 83 -4 43 -12 83
-18 89 -5 5 -10 31 -10 56 0 26 -5 71 -11 101 -7 38 -7 62 0 82 12 32 18 33
50 10z m444 -149 c14 -11 28 -32 31 -49 8 -42 5 -382 -3 -414 l-8 -26 -6 26
c-6 22 -11 25 -32 21 -17 -3 -25 0 -26 9 0 8 -2 23 -5 34 -20 99 -37 191 -45
245 -5 36 -14 75 -21 87 -12 25 -3 90 15 96 20 6 73 -9 100 -29z m1444 -396
c-3 -7 -5 -2 -5 12 0 14 2 19 5 13 2 -7 2 -19 0 -25z m-1770 -350 c-3 -7 -5
-2 -5 12 0 14 2 19 5 13 2 -7 2 -19 0 -25z m73 -378 c0 -10 -4 -22 -10 -25 -6
-4 -10 7 -10 25 0 18 4 29 10 25 6 -3 10 -15 10 -25z m37 -492 c1 -13 6 -50
12 -83 10 -67 14 -202 5 -192 -10 10 -47 200 -45 236 1 19 6 40 12 48 14 17
14 17 16 -9z m30 -310 c-3 -8 -6 -5 -6 6 -1 11 2 17 5 13 3 -3 4 -12 1 -19z
m1752 -40 c5 -13 6 -36 3 -53 -3 -16 -4 -49 -3 -73 1 -37 -1 -43 -16 -40 -15
3 -18 12 -15 58 2 30 -2 64 -9 77 -9 18 -9 26 1 38 17 21 29 19 39 -7z m-1740
-73 c0 -26 -2 -27 -9 -10 -5 11 -9 34 -9 50 0 26 2 27 9 10 5 -11 9 -33 9 -50z
m34 -287 c3 -13 2 -54 -3 -93 -4 -38 -8 -56 -9 -40 -1 24 -3 27 -12 15 -8 -12
-9 -10 -8 10 1 14 -1 37 -6 53 -9 34 1 77 19 77 8 0 16 -10 19 -22z m415 -65
c4 -6 15 -12 24 -14 15 -4 15 -6 2 -24 -13 -18 -26 -20 -105 -19 -67 2 -96 6
-116 20 -21 13 -24 19 -13 22 8 3 19 12 24 20 7 11 26 13 93 10 47 -3 88 -9
91 -15z m313 -98 c33 -18 30 -35 -5 -35 -17 0 -25 7 -28 25 -6 29 -6 30 33 10z
m1049 -35 c9 -12 91 -19 84 -8 -5 7 12 9 51 5 32 -3 61 -11 66 -18 4 -8 23
-12 43 -11 20 2 36 -1 36 -6 0 -5 16 -12 36 -15 20 -4 47 -16 59 -27 19 -18
27 -20 44 -11 12 7 21 9 21 6 0 -4 15 3 33 14 29 18 37 19 74 8 23 -7 45 -16
49 -20 4 -4 42 -7 85 -7 60 0 78 -3 83 -15 8 -21 -16 -29 -67 -21 -27 4 -61 1
-95 -9 -40 -12 -61 -14 -85 -6 -58 18 -260 44 -357 45 -52 1 -99 3 -105 5 -5
2 -21 3 -34 2 -21 -1 -22 -3 -10 -18 13 -15 11 -16 -20 -10 -25 5 -40 2 -61
-13 l-29 -20 -3 22 c-2 17 -9 22 -26 21 -17 -2 -22 2 -22 21 0 13 7 30 16 37
9 7 20 23 25 35 11 29 91 39 109 14z m-963 4 c-3 -3 -12 -4 -19 -1 -8 3 -5 6
6 6 11 1 17 -2 13 -5z m178 -35 c-16 -3 -25 -7 -20 -8 6 -1 2 -8 -8 -16 -16
-12 -22 -11 -44 8 l-25 22 22 5 c13 3 41 3 64 1 40 -5 40 -5 11 -12z m-988
-31 c-3 -7 -5 -2 -5 12 0 14 2 19 5 13 2 -7 2 -19 0 -25z m5789 -2384 c-3 -9
-6 -18 -6 -20 0 -2 -4 -4 -9 -4 -5 0 -7 9 -4 20 3 11 10 20 15 20 6 0 7 -7 4
-16z m-227 -444 c0 -19 -3 -42 -9 -50 -16 -25 -23 14 -15 78 7 47 9 53 16 32
4 -14 7 -41 8 -60z m-4651 -16 c24 -7 31 -24 9 -24 -15 0 -57 29 -42 30 6 0
20 -3 33 -6z m4601 -76 c0 -7 -4 -22 -9 -33 -7 -17 -9 -15 -9 13 -1 17 4 32 9
32 6 0 10 -6 9 -12z m49 -156 c-3 -147 -18 -205 -29 -117 -7 51 -2 191 7 255
5 29 7 32 16 16 6 -10 8 -74 6 -154z m-208 -44 c-6 -40 -13 -82 -15 -93 -2
-11 -6 -42 -10 -69 -11 -86 -34 -107 -49 -43 -5 20 -3 27 9 27 12 0 15 12 14
58 0 40 5 70 20 100 12 23 21 57 19 75 -1 18 2 39 8 47 15 24 17 -19 4 -102z
m-980 83 c0 -5 -10 -11 -22 -14 -13 -2 23 -2 79 1 69 3 113 0 133 -8 16 -7 59
-13 94 -14 35 0 62 -4 59 -9 -2 -4 -9 -5 -14 -2 -5 4 -9 1 -9 -4 0 -6 -14 -11
-32 -11 -75 0 -303 -34 -590 -87 -41 -8 -35 13 10 36 21 11 44 27 51 35 8 9
24 16 38 16 20 0 23 4 18 20 -5 15 -2 20 12 20 10 0 36 7 58 15 45 16 115 20
115 6z m1077 -48 c-3 -10 -5 -2 -5 17 0 19 2 27 5 18 2 -10 2 -26 0 -35z m197
20 c4 -9 2 -21 -3 -26 -15 -15 -41 0 -41 23 0 25 35 28 44 3z m-1527 -19 c-9
-9 -28 6 -21 18 4 6 10 6 17 -1 6 -6 8 -13 4 -17z m683 18 c0 -5 -3 -12 -7
-16 -4 -4 -9 -18 -10 -32 -3 -19 1 -27 16 -31 17 -4 18 -8 9 -29 -6 -13 -14
-24 -18 -24 -4 0 -10 -10 -14 -22 -10 -41 -26 -7 -16 37 10 48 6 91 -10 110
-10 13 -7 15 19 15 17 0 31 -4 31 -8z m-2870 -202 c0 -5 -10 -10 -22 -10 -19
0 -20 2 -8 10 19 13 30 13 30 0z m2463 -38 c15 -9 27 -22 27 -29 0 -16 -5 -16
-50 -2 -19 5 -74 10 -122 9 -85 -1 -104 5 -90 27 16 26 187 22 235 -5z m911
-97 c-4 -8 -10 -15 -15 -15 -5 0 -9 7 -9 15 0 8 7 15 15 15 9 0 12 -6 9 -15z
m-217 -51 c10 -29 -60 -27 -71 2 -5 12 1 15 31 12 20 -2 38 -8 40 -14z m189
-50 c-16 -30 -21 -17 -10 24 4 15 10 20 16 14 6 -6 4 -20 -6 -38z m-206 -10
c0 -8 -4 -12 -10 -9 -5 3 -10 13 -10 21 0 8 5 12 10 9 6 -3 10 -13 10 -21z
m-138 -245 c-34 -16 -90 -33 -125 -39 -34 -5 -89 -14 -122 -19 -94 -17 -118
-12 -50 10 51 16 104 25 250 43 11 2 34 10 50 19 17 9 37 16 45 16 8 -1 -13
-14 -48 -30z m-2702 -323 c-13 -14 -29 2 -23 24 5 19 6 19 19 3 7 -10 9 -22 4
-27z"/>
<path d="M9586 9488 c-7 -33 -4 -58 6 -58 4 0 8 18 8 40 0 44 -7 53 -14 18z"/>
<path d="M9600 9363 c0 -22 2 -25 10 -13 13 20 13 40 0 40 -5 0 -10 -12 -10
-27z"/>
<path d="M14170 3880 c-9 -6 -10 -10 -3 -10 6 0 15 5 18 10 8 12 4 12 -15 0z"/>
<path d="M10856 18144 c-10 -25 -7 -34 9 -34 9 0 15 9 15 25 0 28 -15 34 -24
9z"/>
<path d="M9480 17970 c-13 -9 -13 -11 0 -20 24 -16 40 -12 40 10 0 22 -16 26
-40 10z"/>
<path d="M9985 17831 c-6 -11 9 -23 19 -14 9 9 7 23 -3 23 -6 0 -12 -4 -16 -9z"/>
<path d="M16665 17576 c8 -62 -2 -87 -45 -113 -17 -10 -28 -23 -26 -30 3 -7 1
-13 -4 -13 -5 0 -16 -15 -24 -32 -17 -41 -77 -98 -186 -176 -47 -33 -92 -66
-100 -74 -8 -7 -26 -18 -40 -25 -24 -11 -24 -12 -3 -12 12 -1 34 4 50 10 15 6
53 17 83 25 30 8 71 25 90 37 19 13 47 28 63 35 15 6 27 16 27 22 0 5 5 10 11
10 5 0 30 17 54 37 94 78 141 181 115 252 -16 43 -52 101 -63 101 -5 0 -5 -24
-2 -54z"/>
<path d="M9974 17425 c-10 -8 -14 -15 -7 -15 19 0 43 11 43 21 0 13 -14 11
-36 -6z"/>
<path d="M12875 17430 c3 -5 8 -10 11 -10 2 0 4 5 4 10 0 6 -5 10 -11 10 -5 0
-7 -4 -4 -10z"/>
<path d="M12934 17395 c27 -21 53 -20 36 0 -7 8 -22 15 -34 15 -21 -1 -21 -1
-2 -15z"/>
<path d="M8871 17374 c0 -11 3 -14 6 -6 3 7 2 16 -1 19 -3 4 -6 -2 -5 -13z"/>
<path d="M9960 17305 c0 -8 2 -15 4 -15 2 0 6 7 10 15 3 8 1 15 -4 15 -6 0
-10 -7 -10 -15z"/>
<path d="M10880 17309 c0 -5 5 -7 10 -4 6 3 10 8 10 11 0 2 -4 4 -10 4 -5 0
-10 -5 -10 -11z"/>
<path d="M9906 17249 c-19 -19 -19 -19 5 -20 13 -1 29 0 34 1 6 2 18 2 28 2
14 -1 15 2 4 12 -23 24 -51 26 -71 5z"/>
<path d="M11700 16973 c1 -5 11 -21 24 -37 18 -21 29 -27 45 -21 25 8 19 25
-9 25 -11 0 -24 9 -30 20 -10 19 -30 28 -30 13z"/>
<path d="M11648 16963 c7 -3 16 -2 19 1 4 3 -2 6 -13 5 -11 0 -14 -3 -6 -6z"/>
<path d="M11805 16910 c3 -5 8 -10 11 -10 2 0 4 5 4 10 0 6 -5 10 -11 10 -5 0
-7 -4 -4 -10z"/>
<path d="M11735 16874 c-17 -13 -16 -14 18 -14 39 0 50 14 19 22 -10 3 -27 -1
-37 -8z"/>
<path d="M11830 16880 c0 -5 7 -10 16 -10 8 0 12 5 9 10 -3 6 -10 10 -16 10
-5 0 -9 -4 -9 -10z"/>
<path d="M11551 16826 c-10 -12 0 -21 60 -51 46 -23 83 -35 102 -33 53 5 41
25 -33 54 -39 15 -73 31 -76 36 -8 13 -40 9 -53 -6z"/>
<path d="M11293 16785 c-21 -24 -15 -40 7 -20 20 18 26 35 13 35 -5 -1 -14 -7
-20 -15z"/>
<path d="M12388 16269 c-23 -13 -23 -36 1 -48 24 -13 55 8 49 35 -4 22 -26 28
-50 13z"/>
<path d="M12266 16223 c-12 -12 -6 -43 9 -43 8 0 15 9 15 19 0 21 -13 34 -24
24z"/>
<path d="M12180 16165 c0 -17 2 -18 24 -9 18 7 12 24 -10 24 -8 0 -14 -7 -14
-15z"/>
<path d="M11863 16083 c-32 -6 -28 -26 8 -42 27 -12 33 -12 40 0 22 34 0 52
-48 42z"/>
<path d="M12017 16046 c-4 -9 3 -16 16 -20 37 -10 47 -7 47 14 0 15 -7 20 -29
20 -16 0 -31 -6 -34 -14z"/>
<path d="M15225 15780 c3 -5 17 -10 31 -10 13 0 24 5 24 10 0 6 -14 10 -31 10
-17 0 -28 -4 -24 -10z"/>
<path d="M11598 15263 c7 -3 16 -2 19 1 4 3 -2 6 -13 5 -11 0 -14 -3 -6 -6z"/>
<path d="M12965 14410 c-3 -5 -1 -10 4 -10 6 0 11 -18 11 -40 0 -29 4 -40 15
-40 10 0 15 10 15 31 0 50 -28 87 -45 59z"/>
<path d="M12923 14377 c5 -15 37 -22 37 -9 0 5 -9 12 -21 15 -13 3 -19 1 -16
-6z"/>
<path d="M13120 13874 c0 -8 5 -12 10 -9 6 4 8 11 5 16 -9 14 -15 11 -15 -7z"/>
<path d="M13200 13673 c0 -28 3 -34 10 -23 13 20 13 60 0 60 -5 0 -10 -17 -10
-37z"/>
<path d="M16337 13563 c-2 -5 -9 -28 -16 -53 -25 -84 -65 -195 -76 -206 -5 -6
-19 -27 -29 -47 -11 -19 -29 -41 -40 -47 -12 -6 -34 -31 -49 -56 -16 -24 -33
-44 -38 -44 -5 0 -9 -5 -9 -11 0 -6 6 -9 14 -6 7 3 19 0 25 -6 9 -9 13 -6 17
11 4 12 12 22 18 22 19 0 61 51 76 90 7 19 19 42 27 51 7 8 13 20 13 26 0 6 6
16 14 22 21 17 46 104 55 189 7 69 7 81 -2 65z"/>
<path d="M13280 13540 c0 -5 4 -10 9 -10 6 0 13 5 16 10 3 6 -1 10 -9 10 -9 0
-16 -4 -16 -10z"/>
<path d="M13708 13543 c-30 -7 -3 -43 32 -43 30 0 48 16 34 30 -13 11 -46 18
-66 13z"/>
<path d="M13465 13510 c3 -5 10 -10 16 -10 5 0 9 5 9 10 0 6 -7 10 -16 10 -8
0 -12 -4 -9 -10z"/>
<path d="M16008 13052 c-9 -9 -46 -46 -83 -81 -36 -35 -65 -73 -65 -83 0 -10
-5 -18 -12 -18 -16 0 23 -29 39 -30 7 0 31 16 52 36 32 28 42 47 52 91 7 31
21 64 31 72 18 16 24 32 11 30 -5 0 -16 -8 -25 -17z"/>
<path d="M15415 12706 c-63 -18 -112 -47 -123 -71 -19 -41 -15 -58 11 -52 89
22 112 30 147 52 22 14 44 25 50 25 5 0 10 7 10 15 0 8 5 15 10 15 6 0 10 7
10 15 0 12 -10 15 -43 13 -23 -2 -56 -7 -72 -12z"/>
<path d="M16138 10988 c-10 -15 -18 -31 -18 -36 0 -5 -19 -27 -41 -48 -23 -22
-49 -47 -57 -56 -9 -10 -21 -18 -27 -18 -20 0 -120 -116 -132 -152 -6 -20 -8
-39 -6 -42 3 -3 26 18 52 46 25 28 73 73 106 100 143 115 152 128 143 204 l-3
28 -17 -26z"/>
<path d="M13795 10281 c-7 -12 12 -24 25 -16 11 7 4 25 -10 25 -5 0 -11 -4
-15 -9z"/>
<path d="M11638 9363 c12 -2 30 -2 40 0 9 3 -1 5 -23 4 -22 0 -30 -2 -17 -4z"/>
<path d="M12015 9299 c-4 -10 -10 -19 -15 -19 -6 0 -5 -11 0 -25 8 -20 6 -27
-5 -30 -8 -3 -22 -7 -30 -10 -18 -5 -20 -25 -2 -25 7 0 23 7 35 16 14 10 36
14 54 12 24 -4 32 0 41 20 9 20 9 26 -1 30 -6 2 -12 12 -12 23 0 10 -6 19 -12
20 -7 0 -21 2 -30 4 -10 2 -20 -5 -23 -16z"/>
<path d="M12131 9284 c0 -11 3 -14 6 -6 3 7 2 16 -1 19 -3 4 -6 -2 -5 -13z"/>
<path d="M12166 9237 c3 -8 -2 -19 -10 -26 -23 -19 6 -65 51 -79 44 -14 48
-11 63 34 11 34 10 38 -13 60 -29 27 -101 35 -91 11z"/>
<path d="M11590 9181 c-16 -31 -12 -47 16 -66 29 -19 48 -15 63 13 8 16 6 25
-14 46 -29 31 -50 33 -65 7z"/>
<path d="M13600 6625 c0 -11 -11 -15 -40 -15 -29 0 -40 -4 -40 -15 0 -11 11
-15 39 -15 22 0 42 -5 44 -12 3 -7 6 6 6 30 1 23 -1 42 -4 42 -3 0 -5 -7 -5
-15z"/>
<path d="M9863 4698 c7 -47 32 -142 41 -156 4 -7 11 -10 16 -7 5 3 11 -8 15
-24 13 -59 60 -67 75 -12 13 46 13 68 0 76 -6 4 -8 10 -5 14 2 5 -5 19 -16 32
-12 13 -26 36 -31 52 -7 17 -19 29 -36 33 -15 3 -35 10 -46 15 -17 10 -18 7
-13 -23z"/>
<path d="M12880 4581 c0 -12 6 -21 16 -21 9 0 14 7 12 17 -5 25 -28 28 -28 4z"/>
<path d="M10215 4380 c-3 -5 3 -10 15 -10 12 0 18 5 15 10 -3 6 -10 10 -15 10
-5 0 -12 -4 -15 -10z"/>
<path d="M10270 4360 c0 -6 8 -10 18 -10 10 0 23 -5 29 -11 6 -6 19 -9 28 -7
10 2 -1 10 -29 20 -25 9 -46 13 -46 8z"/>
<path d="M15143 4356 c-13 -6 -23 -14 -23 -18 0 -5 -12 -8 -28 -8 -15 0 -38
-7 -50 -16 -22 -15 -47 -11 -37 7 9 13 -2 11 -35 -6 -41 -21 -38 -35 6 -28 36
6 37 5 30 -20 -5 -23 -3 -27 14 -27 11 0 20 4 20 10 0 12 75 51 83 44 3 -3 14
-1 24 5 12 7 14 10 4 11 -19 0 16 40 35 40 7 0 16 5 19 10 8 13 -34 11 -62 -4z"/>
<path d="M10282 4308 c3 -7 13 -15 24 -17 16 -3 17 -1 5 13 -16 19 -34 21 -29
4z"/>
<path d="M10388 4313 c7 -3 16 -2 19 1 4 3 -2 6 -13 5 -11 0 -14 -3 -6 -6z"/>
<path d="M10438 4293 c7 -3 16 -2 19 1 4 3 -2 6 -13 5 -11 0 -14 -3 -6 -6z"/>
<path d="M10645 4140 c3 -5 10 -10 16 -10 5 0 9 5 9 10 0 6 -7 10 -16 10 -8 0
-12 -4 -9 -10z"/>
<path d="M10187 3864 c-6 -7 0 -117 9 -154 4 -14 8 -34 9 -45 4 -51 18 -105
25 -105 16 0 20 18 10 45 -21 54 -30 156 -15 168 7 6 6 10 -3 14 -8 3 -10 9
-4 16 10 13 -20 72 -31 61z"/>
<path d="M10760 3834 c0 -22 -6 -46 -12 -52 -10 -10 -10 -17 0 -32 7 -12 8
-20 2 -20 -16 0 -12 -13 15 -44 24 -28 26 -29 40 -10 14 19 11 58 -8 82 -5 7
-11 31 -13 54 -5 57 -24 75 -24 22z"/>
<path d="M11106 3801 c-12 -18 24 -32 95 -36 87 -6 84 9 -7 30 -70 17 -81 18
-88 6z"/>
<path d="M10915 3707 c-11 -7 -23 -17 -28 -24 -4 -7 -14 -10 -21 -7 -16 6 -31
-12 -17 -20 5 -3 7 -15 4 -26 -3 -11 0 -20 6 -20 6 0 17 -15 25 -32 l13 -33 7
30 c4 17 11 39 16 51 4 11 4 28 -1 36 -12 22 7 34 26 18 13 -10 15 -8 15 14 0
28 -13 32 -45 13z"/>
<path d="M10998 3686 c-27 -20 -22 -26 18 -26 31 0 36 -3 31 -20 -5 -20 2 -24
37 -20 11 1 15 -3 12 -9 -4 -6 0 -11 9 -11 9 0 14 -4 11 -9 -8 -12 31 -26 144
-52 52 -12 97 -26 98 -31 5 -12 63 -10 115 6 26 8 47 12 47 11 0 -11 53 26 71
49 30 38 20 93 -19 102 -15 3 -32 7 -39 9 -7 2 -15 0 -18 -5 -13 -21 -66 -39
-90 -30 -13 5 -50 10 -82 11 -32 1 -70 8 -85 16 -24 11 -32 11 -55 0 -16 -7
-35 -12 -45 -10 -10 3 -19 -4 -23 -16 -13 -42 -70 -16 -58 27 5 19 1 22 -28
22 -19 0 -42 -7 -51 -14z"/>
<path d="M13216 3621 c-18 -7 -18 -8 -2 -14 37 -15 131 -3 120 14 -6 11 -91
11 -118 0z"/>
<path d="M10691 3534 c0 -11 3 -14 6 -6 3 7 2 16 -1 19 -3 4 -6 -2 -5 -13z"/>
<path d="M10691 3484 c0 -11 3 -14 6 -6 3 7 2 16 -1 19 -3 4 -6 -2 -5 -13z"/>
<path d="M10845 3492 c-9 -10 -5 -52 5 -52 6 0 10 -18 10 -39 0 -22 4 -42 8
-45 17 -10 33 40 30 89 -3 42 -6 49 -26 50 -12 1 -24 -1 -27 -3z"/>
<path d="M10230 3429 c0 -5 5 -7 10 -4 6 3 10 8 10 11 0 2 -4 4 -10 4 -5 0
-10 -5 -10 -11z"/>
<path d="M10335 3340 c3 -5 8 -10 11 -10 2 0 4 5 4 10 0 6 -5 10 -11 10 -5 0
-7 -4 -4 -10z"/>
<path d="M10371 3314 c13 -16 29 -19 29 -5 0 5 -9 11 -21 14 -16 4 -18 3 -8
-9z"/>
<path d="M10855 3141 c-3 -6 3 -15 14 -21 24 -12 42 7 20 21 -18 11 -26 11
-34 0z"/>
<path d="M14035 3100 c-3 -5 1 -10 9 -10 8 0 18 5 21 10 3 6 -1 10 -9 10 -8 0
-18 -4 -21 -10z"/>
<path d="M11012 3083 c2 -14 28 -24 101 -43 79 -21 95 -28 85 -38 -11 -11 -9
-11 11 -4 14 5 43 5 65 1 55 -11 102 -11 91 -1 -18 16 -120 52 -220 77 -120
30 -138 31 -133 8z"/>
<path d="M13945 3080 c-3 -5 -1 -10 4 -10 6 0 11 5 11 10 0 6 -2 10 -4 10 -3
0 -8 -4 -11 -10z"/>
<path d="M11620 2996 c0 -2 7 -7 16 -10 8 -3 12 -2 9 4 -6 10 -25 14 -25 6z"/>
<path d="M11733 2993 c9 -2 25 -2 35 0 9 3 1 5 -18 5 -19 0 -27 -2 -17 -5z"/>
<path d="M11245 2979 c-4 -6 -5 -12 -3 -15 8 -7 300 -66 305 -61 13 13 -11 25
-62 32 -30 3 -57 11 -61 16 -3 6 -25 9 -48 8 -23 -1 -55 5 -73 14 -37 20 -49
21 -58 6z"/>
<path d="M13553 2984 c-50 -23 67 -31 202 -14 58 7 58 7 15 9 -25 0 -81 3
-125 6 -44 3 -86 2 -92 -1z"/>
<path d="M12353 2943 c9 -2 25 -2 35 0 9 3 1 5 -18 5 -19 0 -27 -2 -17 -5z"/>
<path d="M12525 2920 c66 -10 136 -19 155 -18 49 0 -108 26 -200 33 -64 4 -57
2 45 -15z"/>
<path d="M13028 2933 c6 -2 18 -2 25 0 6 3 1 5 -13 5 -14 0 -19 -2 -12 -5z"/>
<path d="M12908 2923 c7 -3 16 -2 19 1 4 3 -2 6 -13 5 -11 0 -14 -3 -6 -6z"/>
<path d="M12798 2903 c6 -2 18 -2 25 0 6 3 1 5 -13 5 -14 0 -19 -2 -12 -5z"/>
</g>
</svg>
