<?xml version="1.0" ?><svg id="Layer_1" style="enable-background:new 0 0 62 62;" version="1.1" viewBox="0 0 62 62" xml:space="preserve" xmlns="http://www.w3.org/2000/svg" xmlns:xlink="http://www.w3.org/1999/xlink"><style type="text/css">
	.st0{fill:#5FD2FF;}
	.st1{fill:#FFFFFF;}
	.st2{fill:#0082ED;}
	.st3{fill:#2BA8FC;}
	.st4{fill:#CECECE;}
	.st5{fill:#F92B75;}
	.st6{fill:#3BB0FF;}
	.st7{fill:#CE004F;}
	.st8{fill:none;stroke:#ED0C68;stroke-width:5;stroke-linecap:round;stroke-linejoin:round;stroke-miterlimit:10;}
	.st9{fill:#ED0C68;}
	.st10{fill:#78DED4;}
	.st11{fill:#1E5363;}
	.st12{fill:#54C8E8;}
	.st13{fill:#F4F4F4;}
	.st14{fill:#0C82EB;}
	.st15{fill:#00B2E3;}
	.st16{fill:#68A2B9;}
	.st17{fill:#A2C5D3;}
	.st18{fill:#76777A;}
	.st19{fill:#A7A8A9;}
	.st20{fill:#D6D6D6;}
	.st21{fill:none;stroke:#F92B75;stroke-width:5;stroke-linecap:round;stroke-linejoin:round;stroke-miterlimit:10;}
	.st22{fill:#FD4A5C;}
	.st23{fill:#FF8E9F;}
	.st24{fill:none;stroke:#F458A3;stroke-width:5;stroke-linecap:round;stroke-linejoin:round;stroke-miterlimit:10;}
	.st25{fill:#FFB259;}
	.st26{fill:#F32735;}
	.st27{fill:#FF9E18;}
	.st28{fill:#FFC27A;}
	.st29{fill:#FFC56D;}
	.st30{fill:none;stroke:#FD4A5C;stroke-width:5;stroke-linecap:round;stroke-linejoin:round;stroke-miterlimit:10;}
	.st31{fill:#0069A7;}
	.st32{fill:#D8D8D8;}
	.st33{fill:#8CB7C9;}
	.st34{fill:#65BAAF;}
	.st35{fill:#00AF9A;}
	.st36{fill:#00C4B3;}
	.st37{fill:#19D3C5;}
	.st38{fill:none;stroke:#54C8E8;stroke-width:5;stroke-linecap:round;stroke-linejoin:round;stroke-miterlimit:10;}
	.st39{fill:#8331A7;}
	.st40{fill:#009383;}
	.st41{fill:#98989A;}
	.st42{fill:#636569;}
	.st43{fill:#898A8D;}
	.st44{fill:#FFB548;}
	.st45{fill:none;stroke:#FFB548;stroke-width:5;stroke-linecap:round;stroke-linejoin:round;stroke-miterlimit:10;}
	.st46{fill:#ED40A9;}
	.st47{fill:#CB007B;}
	.st48{fill:#E50695;}
	.st49{fill:#D7282F;}
	.st50{fill:#E5E5E5;}
	.st51{fill:#FFA4B4;}
	.st52{fill:#F6A7D7;}
	.st53{fill:#F478C4;}
	.st54{fill:#E0C7E6;}
	.st55{fill:#B980D0;}
	.st56{fill:#D9B7E2;}
	.st57{fill:#BADF93;}
	.st58{fill:#4C9C2E;}
	.st59{fill:#3DAE2B;}
	.st60{fill:#AADA91;}
	.st61{fill:#6ABF4B;}
	.st62{fill:#EFB8A9;}
	.st63{fill:#FECB8B;}
	.st64{fill:#BDE8EF;}
	.st65{fill:#CCA1DD;}
	.st66{fill:#B2B2B2;}
	.st67{fill:none;stroke:#FF8300;stroke-width:5;stroke-linecap:round;stroke-linejoin:round;stroke-miterlimit:10;}
	.st68{fill:none;stroke:#FF9E18;stroke-width:5;stroke-linecap:round;stroke-linejoin:round;stroke-miterlimit:10;}
	.st69{fill:#96DAEA;}
	.st70{fill:#FF8300;}
	.st71{fill:none;stroke:#6ABF4B;stroke-width:5;stroke-linecap:round;stroke-linejoin:round;stroke-miterlimit:10;}
	.st72{fill:none;}
	.st73{fill:#444444;}
	.st74{fill:#FDCF85;}
</style><g><g><path class="st63" d="M59.5,12.5v37c0,5.52-4.48,10-10,10h-37c-5.52,0-10-4.48-10-10v-37c0-5.52,4.48-10,10-10h37    C55.02,2.5,59.5,6.98,59.5,12.5z"/></g><path class="st60" d="M46.4,7.16c0-1.6,0.19-3.17,0.56-4.66H35.19c-0.23,1.52-0.35,3.08-0.35,4.66c0,14.97,10.58,27.52,24.66,30.57   v-12C51.87,23.02,46.4,15.72,46.4,7.16z"/><path class="st58" d="M59.5,39.99c-0.2,0-0.41-0.03-0.61-0.08C43.85,36.14,33.34,22.67,33.34,7.16c0-1.68,0.13-3.38,0.38-5.03   C33.9,0.9,34.95,0,36.19,0h11.77c0.77,0,1.5,0.35,1.97,0.96c0.47,0.61,0.64,1.4,0.46,2.14c-0.32,1.3-0.49,2.67-0.49,4.06   c0,6.96,4.15,13.19,10.56,15.87c1.27,0.53,1.87,2,1.34,3.27c-0.53,1.27-2,1.87-3.27,1.34C50.25,24.18,44.9,16.14,44.9,7.16   c0-0.73,0.03-1.45,0.1-2.16h-6.58c-0.05,0.72-0.08,1.44-0.08,2.16c0,13.21,8.95,24.69,21.77,27.9c1.34,0.34,2.15,1.69,1.82,3.03   C61.64,39.23,60.62,39.99,59.5,39.99z"/><g><rect class="st32" height="57" width="14" x="14.03" y="2.5"/><path class="st19" d="M28.03,62h-14c-1.38,0-2.5-1.12-2.5-2.5v-57c0-1.38,1.12-2.5,2.5-2.5s2.5,1.12,2.5,2.5V57h9V2.5    c0-1.38,1.12-2.5,2.5-2.5c1.38,0,2.5,1.12,2.5,2.5v57C30.53,60.88,29.41,62,28.03,62z"/></g><g><path class="st27" d="M49.5,62h-37C5.61,62,0,56.39,0,49.5v-37C0,5.61,5.61,0,12.5,0h37C56.39,0,62,5.61,62,12.5v37    C62,56.39,56.39,62,49.5,62z M12.5,5C8.36,5,5,8.36,5,12.5v37c0,4.14,3.36,7.5,7.5,7.5h37c4.14,0,7.5-3.36,7.5-7.5v-37    C57,8.36,53.64,5,49.5,5H12.5z"/></g><g><path class="st25" d="M2.5,35.93c-1.38,0-2.5-1.12-2.5-2.5V12.5C0,5.61,5.61,0,12.5,0H31c1.38,0,2.5,1.12,2.5,2.5S32.38,5,31,5    H12.5C8.36,5,5,8.36,5,12.5v20.93C5,34.81,3.88,35.93,2.5,35.93z"/></g><path class="st12" d="M18.73,27.76L8.54,45.41c-1.37,2.38,1.22,5.06,3.65,3.78l7.91-4.2c0.81-0.43,1.79-0.43,2.6,0.02l7.14,3.93   c2.42,1.33,5.06-1.36,3.68-3.76L23.46,27.76C22.41,25.94,19.78,25.94,18.73,27.76z"/><path class="st14" d="M10.89,52.01c-1.38,0-2.73-0.55-3.75-1.61c-1.64-1.7-1.95-4.21-0.77-6.25l10.19-17.65l0,0   c0.95-1.64,2.64-2.61,4.53-2.61c0,0,0,0,0,0c1.89,0,3.58,0.98,4.53,2.61l10.06,17.42c1.19,2.06,0.87,4.58-0.79,6.28   c-1.66,1.7-4.18,2.07-6.26,0.92l-7.14-3.94c-0.07-0.04-0.15-0.04-0.22,0l-7.91,4.21C12.57,51.81,11.73,52.01,10.89,52.01z    M20.9,29.01L10.71,46.66c-0.04,0.08-0.09,0.15,0.03,0.28c0.12,0.12,0.19,0.08,0.27,0.04l7.91-4.2c1.56-0.83,3.42-0.82,4.98,0.04   l7.15,3.94c0.08,0.04,0.15,0.08,0.27-0.04c0.12-0.12,0.08-0.2,0.04-0.28L21.3,29.01c-0.02-0.04-0.07-0.11-0.2-0.11l0,0   C20.96,28.89,20.92,28.97,20.9,29.01L20.9,29.01z"/><path class="st15" d="M10.89,52.01c-1.38,0-2.73-0.55-3.75-1.61c-1.64-1.7-1.95-4.21-0.77-6.25l10.19-17.65   c0.69-1.2,2.22-1.61,3.41-0.92c1.2,0.69,1.61,2.22,0.92,3.41L10.71,46.66c-0.04,0.08-0.09,0.15,0.03,0.28   c0.12,0.12,0.19,0.08,0.27,0.04c1.22-0.65,2.73-0.19,3.38,1.03c0.65,1.22,0.19,2.73-1.03,3.38C12.57,51.81,11.73,52.01,10.89,52.01   z"/></g></svg>