<?xml version="1.0" standalone="no"?>
<!DOCTYPE svg PUBLIC "-//W3C//DTD SVG 20010904//EN"
 "http://www.w3.org/TR/2001/REC-SVG-20010904/DTD/svg10.dtd">
<svg version="1.0" xmlns="http://www.w3.org/2000/svg"
 width="236.000000pt" height="236.000000pt" viewBox="0 0 236.000000 236.000000"
 preserveAspectRatio="xMidYMid meet">

<g transform="translate(0.000000,236.000000) scale(0.100000,-0.100000)"
fill="#000000" stroke="none">
<path d="M0 2181 l0 -179 32 -7 c18 -4 37 -10 42 -13 9 -5 -53 -36 -66 -34 -5
1 -8 -45 -8 -103 l0 -105 77 39 c43 21 104 51 136 65 31 15 55 32 52 37 -4 5
1 9 9 9 8 0 18 -5 21 -10 4 -6 11 -8 17 -4 5 3 22 -6 38 -21 33 -31 61 -28 86
11 15 22 64 32 64 12 0 -4 12 -8 26 -8 14 0 23 -4 19 -10 -3 -5 24 -18 61 -30
51 -15 70 -17 80 -9 13 10 18 6 15 -13 0 -4 21 -13 47 -20 45 -13 48 -13 65 9
10 13 25 23 33 23 8 0 14 6 14 14 0 22 27 27 69 12 34 -11 38 -11 34 2 -5 11
-1 13 18 7 45 -15 3 21 -56 46 -30 13 -55 27 -55 31 0 4 -9 5 -20 3 -19 -4
-20 2 -20 89 0 51 -3 148 -7 214 l-6 122 -53 0 -52 0 -8 -67 -7 -67 -25 30
-25 29 8 -30 c4 -17 8 -49 9 -72 0 -24 4 -43 8 -43 11 0 21 47 12 61 -4 8 -3
9 5 5 8 -6 12 -39 10 -108 -1 -76 2 -102 12 -109 9 -6 -20 -7 -71 -3 -47 3
-86 9 -88 15 -2 5 -19 9 -37 9 -28 0 -41 8 -72 45 -20 25 -39 41 -42 36 -4 -5
-7 20 -9 56 -2 76 22 123 64 123 13 0 24 5 24 11 0 6 -9 8 -20 5 -11 -3 -29
-9 -40 -12 -11 -3 -20 -1 -20 5 0 20 65 23 108 6 23 -10 42 -21 42 -26 0 -13
-9 -11 -26 6 -9 8 -20 15 -26 15 -6 0 -1 -9 12 -20 14 -12 32 -18 46 -16 13 3
24 0 24 -5 0 -5 9 -20 21 -32 l21 -22 -8 40 c-5 22 -7 59 -6 82 2 40 1 42 -30
48 -18 3 -77 5 -132 3 l-98 -3 -30 -55 -30 -55 4 40 c3 22 8 48 12 58 7 15 0
17 -78 17 l-87 0 2 -131 c0 -72 -2 -133 -5 -136 -3 -4 -6 55 -6 130 l0 137
-65 0 -65 0 0 -179z m375 160 c3 -5 1 -12 -5 -16 -5 -3 -10 1 -10 9 0 18 6 21
15 7z m206 -64 c-10 -9 -11 -8 -5 6 3 10 9 15 12 12 3 -3 0 -11 -7 -18z m-341
-36 c0 -4 -7 -8 -15 -8 -8 0 -15 6 -15 13 0 8 6 11 15 8 8 -4 15 -9 15 -13z
m137 -93 c-3 -8 -6 -5 -6 6 -1 11 2 17 5 13 3 -3 4 -12 1 -19z m-142 -28 c3
-5 1 -10 -4 -10 -6 0 -11 5 -11 10 0 6 2 10 4 10 3 0 8 -4 11 -10z m176 -57
c0 -5 2 -18 5 -30 3 -19 -1 -23 -21 -23 -14 0 -25 -5 -25 -11 0 -5 -4 -7 -10
-4 -5 3 -10 15 -10 25 0 26 58 66 61 43z m48 -102 c-6 -2 -15 3 -20 10 -15 24
-10 29 11 11 12 -10 16 -18 9 -21z m-44 -79 c-3 -3 -11 0 -18 7 -9 10 -8 11 6
5 10 -3 15 -9 12 -12z m225 -38 c37 -15 15 -13 -50 4 -28 8 -30 10 -10 10 14
0 41 -6 60 -14z"/>
<path d="M658 2353 c6 -2 12 -11 12 -18 0 -7 7 -15 15 -19 18 -7 20 15 3 32
-7 7 -19 12 -27 11 -11 0 -12 -2 -3 -6z"/>
<path d="M433 2153 c9 -9 20 -13 24 -9 4 4 1 11 -7 16 -25 16 -35 11 -17 -7z"/>
<path d="M584 2122 c0 -26 1 -37 3 -24 3 12 9 22 14 22 6 0 7 -15 3 -37 -9
-50 -16 -61 -24 -38 -6 17 -8 16 -12 -8 -6 -30 0 -33 25 -14 24 17 28 110 7
131 -13 14 -15 10 -16 -32z"/>
<path d="M498 2083 c6 -2 18 -2 25 0 6 3 1 5 -13 5 -14 0 -19 -2 -12 -5z"/>
<path d="M841 1964 c0 -11 3 -14 6 -6 3 7 2 16 -1 19 -3 4 -6 -2 -5 -13z"/>
<path d="M1031 1836 c3 -3 18 -12 34 -21 l30 -17 -30 6 c-50 10 -3 -13 58 -28
147 -37 158 -22 22 30 -80 30 -126 42 -114 30z"/>
<path d="M1280 1737 c0 -3 20 -12 45 -20 45 -16 65 -14 23 2 -43 16 -68 22
-68 18z"/>
<path d="M1478 1665 c-8 -9 3 -55 16 -63 6 -4 27 -13 46 -19 32 -11 32 -12 5
-8 -24 4 -27 3 -12 -5 22 -14 67 -59 67 -68 0 -9 49 -32 67 -32 7 0 13 -7 13
-15 0 -8 8 -15 18 -15 9 0 26 -7 37 -16 11 -8 38 -19 60 -25 22 -6 43 -15 46
-20 3 -6 23 -12 45 -15 21 -3 49 -10 60 -16 22 -10 147 -6 194 6 17 5 14 2 -7
-8 -18 -8 -33 -16 -33 -18 0 -6 129 -2 135 4 4 3 -4 9 -17 13 -13 5 -75 34
-139 65 -63 31 -138 65 -166 74 -54 18 -79 38 -68 56 3 5 2 10 -3 10 -5 0 -21
27 -36 60 -25 53 -44 75 -47 53 0 -5 -2 -17 -5 -28 -2 -11 -5 -31 -6 -44 -1
-13 -9 -26 -16 -29 -17 -6 -60 38 -54 56 2 6 -3 12 -11 12 -9 0 -17 -5 -19
-11 -3 -8 -10 -5 -22 6 -14 15 -19 16 -26 5 -6 -10 -16 -10 -52 4 -23 10 -48
22 -54 27 -6 5 -13 7 -16 4z m632 -285 c8 -5 11 -10 5 -10 -5 0 -17 5 -25 10
-8 5 -10 10 -5 10 6 0 17 -5 25 -10z m75 -40 c-3 -5 -14 -10 -23 -10 -15 0
-15 2 -2 10 20 13 33 13 25 0z"/>
<path d="M0 1542 l0 -119 58 4 c77 6 84 9 37 17 -65 12 -73 18 -37 26 34 8 55
20 34 20 -7 0 -12 15 -12 34 0 19 -6 36 -13 39 -8 3 -24 26 -36 51 -11 25 -23
46 -26 46 -3 0 -5 -53 -5 -118z"/>
<path d="M138 1473 c7 -3 16 -2 19 1 4 3 -2 6 -13 5 -11 0 -14 -3 -6 -6z"/>
<path d="M1166 1372 c-4 -7 22 -13 71 -17 43 -4 96 -16 118 -26 l40 -18 -30
-2 c-20 -1 -23 -3 -10 -6 34 -7 128 -76 152 -111 16 -24 22 -47 21 -82 -1 -27
-5 -47 -10 -44 -4 3 -5 -2 -2 -10 5 -13 10 -13 27 -4 12 7 25 12 28 11 3 -1 6
3 7 10 10 68 16 94 24 104 30 38 -87 136 -207 174 -78 25 -218 38 -229 21z
m325 -119 c13 -17 13 -17 -6 -3 -11 8 -22 16 -24 17 -2 2 0 3 6 3 6 0 17 -8
24 -17z m56 -145 c-2 -13 -4 -5 -4 17 -1 22 1 32 4 23 2 -10 2 -28 0 -40z"/>
<path d="M0 1331 l0 -41 44 0 c24 0 65 -2 92 -4 36 -4 31 -2 -21 8 l-70 14 57
1 c31 0 59 5 62 9 3 5 -8 6 -25 4 -17 -3 -29 0 -29 7 0 6 12 11 28 12 l27 1
-25 7 c-14 5 -52 11 -83 15 l-57 7 0 -40z"/>
<path d="M1450 1356 c0 -2 7 -7 16 -10 8 -3 12 -2 9 4 -6 10 -25 14 -25 6z"/>
<path d="M1195 1340 c-3 -6 1 -7 9 -4 18 7 21 14 7 14 -6 0 -13 -4 -16 -10z"/>
<path d="M505 1319 c17 -8 16 -9 -7 -6 -15 2 -25 1 -23 -4 3 -4 2 -9 -2 -12
-5 -2 -1 -2 7 1 8 3 58 7 110 10 88 6 92 6 45 13 -76 11 -155 10 -130 -2z"/>
<path d="M967 1306 c-67 -28 -89 -44 -80 -59 3 -5 2 -8 -3 -4 -13 8 -40 -15
-46 -40 -4 -16 -2 -20 8 -16 8 3 14 11 14 18 0 8 5 17 12 21 8 5 9 2 4 -12
-17 -41 -19 -57 -7 -50 10 6 10 4 0 -12 -9 -15 -10 -28 -2 -53 l11 -34 1 35
c1 20 8 45 16 57 8 12 12 28 9 36 -3 8 -1 18 5 22 7 4 8 0 4 -11 -5 -13 -3
-15 13 -6 11 6 28 20 38 31 11 12 25 21 31 21 7 0 15 7 19 15 9 25 25 17 23
-12 -2 -26 1 -28 43 -34 25 -3 54 -10 65 -14 11 -5 4 5 -15 21 -19 16 -39 34
-43 41 -13 21 -29 16 -18 -6 11 -20 5 -31 -15 -31 -7 0 -12 13 -11 34 1 31 3
34 29 30 32 -4 35 3 11 22 -25 19 -50 17 -116 -10z"/>
<path d="M2244 1318 c-4 -7 -3 -8 4 -4 6 4 22 2 34 -4 22 -11 22 -10 4 4 -24
19 -32 20 -42 4z"/>
<path d="M535 1290 l-30 -8 30 -2 c28 -3 27 -3 -10 -11 -29 -5 -17 -6 40 -4
56 3 70 1 45 -4 -33 -8 -33 -8 17 -10 98 -2 61 24 -42 31 -16 1 -3 4 30 8 l60
7 -55 0 c-30 0 -68 -3 -85 -7z"/>
<path d="M258 1273 c12 -2 32 -2 45 0 12 2 2 4 -23 4 -25 0 -35 -2 -22 -4z"/>
<path d="M769 1253 c-13 -17 -13 -17 6 -3 11 8 22 16 24 17 2 2 0 3 -6 3 -6 0
-17 -8 -24 -17z"/>
<path d="M2258 1203 c12 -2 32 -2 45 0 12 2 2 4 -23 4 -25 0 -35 -2 -22 -4z"/>
<path d="M1073 1186 c22 -17 117 -49 124 -42 3 3 -20 12 -51 21 -30 9 -58 21
-61 26 -4 5 -12 9 -18 9 -7 0 -4 -7 6 -14z"/>
<path d="M2328 1183 c6 -2 18 -2 25 0 6 3 1 5 -13 5 -14 0 -19 -2 -12 -5z"/>
<path d="M766 1125 c5 -59 5 -60 -25 -73 -17 -8 -31 -18 -31 -24 0 -11 -26
-39 -35 -38 -12 2 -44 -47 -37 -55 4 -5 2 -5 -4 -2 -23 13 -37 -37 -25 -94 12
-52 40 -117 41 -91 0 6 8 12 18 11 10 0 12 -3 5 -6 -21 -8 -15 -50 13 -82 14
-17 22 -31 17 -31 -17 0 -109 94 -120 124 l-13 31 6 -35 c3 -19 19 -57 36 -85
17 -27 32 -63 35 -78 2 -16 11 -47 19 -70 12 -34 13 -53 2 -114 -6 -40 -9 -76
-5 -79 13 -13 173 -3 272 17 54 11 107 18 117 16 10 -3 18 -1 18 4 0 5 5 9 11
9 5 0 7 -5 4 -10 -6 -9 9 -10 55 -1 3 1 -2 6 -10 11 -10 6 -3 8 23 3 30 -4 41
-2 51 13 9 12 28 19 57 20 59 3 59 3 59 12 0 4 -53 13 -119 20 -121 13 -263
47 -349 83 -59 25 -152 81 -152 91 0 14 35 8 68 -12 18 -11 38 -17 44 -14 6 4
8 3 4 -4 -10 -17 121 -74 187 -80 48 -4 63 -1 85 15 15 11 38 26 52 33 21 10
23 10 13 -1 -21 -22 -16 -24 54 -21 63 3 67 2 48 -12 -11 -8 -26 -16 -32 -16
-7 0 -13 -4 -13 -10 0 -5 -6 -7 -14 -4 -8 3 -17 1 -20 -4 -3 -5 27 -10 72 -11
77 -1 188 20 207 41 7 7 2 8 -15 3 l-25 -8 20 23 c11 13 15 20 9 17 -7 -4 -24
3 -39 15 -19 14 -40 21 -64 20 -28 -1 -31 1 -16 7 11 5 86 10 166 13 123 3
146 2 142 -10 -4 -10 6 -8 35 7 23 12 73 25 112 31 65 9 117 26 108 35 -2 2
-69 -7 -148 -21 -119 -20 -172 -24 -292 -22 -146 3 -172 8 -150 30 8 8 5 16
-13 30 -28 22 -55 102 -55 164 0 49 14 42 -155 79 -99 22 -189 61 -238 105
-43 38 -58 61 -68 110 -5 24 -6 16 -3 -25z m-53 -150 c-3 -9 -8 -14 -10 -11
-3 3 -2 9 2 15 9 16 15 13 8 -4z m-4 -48 c12 -15 12 -17 -3 -11 -9 3 -16 13
-16 22 0 8 1 13 3 11 1 -2 9 -12 16 -22z m474 -534 c-7 -2 -19 -2 -25 0 -7 3
-2 5 12 5 14 0 19 -2 13 -5z"/>
<path d="M2233 1153 c15 -2 39 -2 55 0 15 2 2 4 -28 4 -30 0 -43 -2 -27 -4z"/>
<path d="M2328 1143 c6 -2 18 -2 25 0 6 3 1 5 -13 5 -14 0 -19 -2 -12 -5z"/>
<path d="M891 1084 c0 -11 3 -14 6 -6 3 7 2 16 -1 19 -3 4 -6 -2 -5 -13z"/>
<path d="M919 1041 c13 -12 28 -21 34 -21 12 0 11 0 -28 24 l-30 17 24 -20z"/>
<path d="M583 1021 l59 -6 -37 -11 c-19 -6 -38 -7 -41 -3 -7 12 -24 11 -24 -1
0 -5 5 -9 11 -7 6 1 13 -7 14 -18 1 -11 6 -29 10 -39 5 -12 5 -17 -1 -13 -5 3
-10 -3 -10 -14 0 -10 3 -15 6 -11 106 133 106 132 22 130 l-67 -1 58 -6z m42
-37 c-9 -7 -24 -10 -33 -6 -15 5 -15 4 -3 -11 8 -10 12 -20 9 -22 -3 -3 -11 2
-19 11 -11 14 -11 18 3 28 9 6 26 12 38 12 19 0 20 -2 5 -12z"/>
<path d="M355 1000 c-14 -7 -8 -8 20 -3 22 3 42 7 44 9 9 8 -45 2 -64 -6z"/>
<path d="M219 979 c26 -5 58 -5 75 0 25 7 16 9 -44 9 -70 0 -72 -1 -31 -9z"/>
<path d="M12 969 c10 -7 10 -9 1 -9 -10 0 -13 -52 -13 -225 l0 -225 36 0 c26
0 51 -11 88 -37 29 -21 62 -36 79 -36 15 0 23 -3 16 -7 -17 -11 183 -78 236
-80 5 0 4 5 -3 12 -7 7 -12 20 -12 30 0 17 -14 22 -50 19 -8 -1 -4 5 10 13
l25 15 -23 1 c-13 0 -21 4 -17 10 3 5 13 6 23 3 15 -6 15 -5 3 11 -13 15 -13
19 0 27 13 8 6 13 -13 10 -4 0 -15 10 -24 24 -9 14 -25 25 -35 25 -24 0 -25
26 -2 34 13 6 10 11 -19 31 -31 21 -41 23 -67 14 -17 -6 -31 -15 -31 -20 0 -5
-11 -9 -25 -9 -25 0 -25 0 -39 -90 -3 -14 -5 -29 -5 -33 -1 -5 -6 -5 -12 -1
-8 4 -7 9 2 15 11 7 11 9 -1 9 -13 0 -13 1 0 11 13 9 13 10 0 6 -8 -2 -14 -10
-12 -17 1 -6 -3 -10 -10 -8 -7 3 -14 24 -16 49 -1 24 -6 51 -9 59 -4 8 -8 38
-9 65 -2 28 -6 71 -10 98 -4 31 -2 47 5 47 6 0 21 11 33 25 16 19 29 24 48 20
70 -14 149 3 226 49 28 16 30 21 20 42 -6 13 -17 24 -24 24 -10 0 -10 -5 -2
-20 12 -22 4 -25 -38 -13 -18 4 -20 8 -10 14 8 5 -9 8 -42 8 -43 -1 -48 -3
-25 -8 17 -4 -11 -6 -65 -6 l-95 0 60 11 c65 13 62 13 -83 18 -48 2 -78 -1
-70 -5z m145 -5 c-3 -3 -12 -4 -19 -1 -8 3 -5 6 6 6 11 1 17 -2 13 -5z m160
-40 c-3 -3 -12 -4 -19 -1 -8 3 -5 6 6 6 11 1 17 -2 13 -5z m58 -14 c-3 -5 -13
-10 -21 -10 -8 0 -14 5 -14 10 0 6 9 10 21 10 11 0 17 -4 14 -10z"/>
<path d="M1130 970 c8 -5 49 -10 90 -10 41 0 82 5 90 10 10 7 -19 10 -90 10
-71 0 -100 -3 -90 -10z"/>
<path d="M601 744 c0 -11 3 -14 6 -6 3 7 2 16 -1 19 -3 4 -6 -2 -5 -13z"/>
<path d="M1390 650 c0 -5 5 -10 10 -10 6 0 10 5 10 10 0 6 -4 10 -10 10 -5 0
-10 -4 -10 -10z"/>
<path d="M1475 530 c-3 -6 1 -7 9 -4 18 7 21 14 7 14 -6 0 -13 -4 -16 -10z"/>
<path d="M1223 393 c9 -2 23 -2 30 0 6 3 -1 5 -18 5 -16 0 -22 -2 -12 -5z"/>
<path d="M1018 353 c7 -3 16 -2 19 1 4 3 -2 6 -13 5 -11 0 -14 -3 -6 -6z"/>
<path d="M1193 322 c-29 -10 -58 -23 -65 -30 -6 -6 -18 -12 -25 -12 -18 0 -16
-29 2 -36 8 -4 15 -15 15 -25 0 -12 7 -19 20 -19 12 0 32 -7 46 -16 32 -21
107 -14 137 13 12 11 50 28 85 38 65 19 92 39 76 55 -13 13 -161 33 -199 27
-16 -3 -24 -3 -17 0 18 7 15 23 -5 22 -10 0 -42 -8 -70 -17z"/>
<path d="M0 85 l0 -85 265 0 c146 0 265 4 265 8 0 5 -9 17 -20 27 -15 14 -52
20 -178 29 l-158 12 -87 47 -87 47 0 -85z"/>
<path d="M875 52 c-35 -4 -55 -19 -55 -38 0 -12 46 -14 263 -13 281 1 286 6
37 35 -153 18 -202 21 -245 16z"/>
</g>
</svg>
