<?xml version="1.0" standalone="no"?>
<!DOCTYPE svg PUBLIC "-//W3C//DTD SVG 20010904//EN"
 "http://www.w3.org/TR/2001/REC-SVG-20010904/DTD/svg10.dtd">
<svg version="1.0" xmlns="http://www.w3.org/2000/svg"
 width="564.000000pt" height="376.000000pt" viewBox="0 0 564.000000 376.000000"
 preserveAspectRatio="xMidYMid meet">

<g transform="translate(0.000000,376.000000) scale(0.100000,-0.100000)"
fill="#000000" stroke="none">
<path d="M0 1880 l0 -1880 573 1 c533 1 569 2 532 17 -94 37 -312 155 -402
218 -127 87 -321 281 -395 394 -55 83 -128 216 -128 233 0 5 -6 23 -14 40 -21
45 -51 149 -48 167 1 8 -1 22 -5 30 -28 72 -12 384 28 525 6 22 12 51 14 65 1
14 11 40 23 59 11 19 18 39 15 43 -3 5 3 16 13 23 11 8 16 15 12 15 -4 0 6 25
22 55 17 31 30 59 30 64 0 7 -25 19 -52 25 -18 3 -17 15 1 21 42 13 22 26
-102 66 -37 12 -66 27 -66 33 1 6 -1 19 -5 28 -8 17 19 68 35 68 5 0 9 8 9 18
0 10 4 22 10 28 6 6 5 19 -5 37 -15 29 -15 28 40 58 38 21 39 43 1 47 -18 2
-30 11 -33 23 -3 10 -9 19 -14 19 -16 0 -9 20 9 27 20 7 61 53 62 69 0 7 8 14
18 16 22 7 61 100 44 106 -14 4 -16 38 -2 47 5 3 65 13 132 21 68 8 144 21
170 29 25 7 49 11 52 8 6 -7 36 65 35 86 0 10 -2 11 -6 4 -6 -17 -30 -16 -36
1 -3 7 -25 23 -49 35 -23 11 -35 21 -25 21 10 0 16 4 12 9 -3 5 5 11 17 13 13
2 24 9 24 16 3 24 4 27 12 16 12 -19 57 -25 77 -10 18 13 18 15 2 30 -11 11
-17 33 -17 61 0 39 3 44 33 55 54 20 77 33 72 40 -2 3 9 14 26 24 16 9 29 23
29 30 0 19 93 80 104 69 3 -3 12 -1 20 6 9 8 21 8 39 2 20 -8 30 -6 48 10 12
10 17 19 11 19 -6 0 -18 3 -26 6 -12 5 -15 2 -10 -12 6 -16 4 -16 -9 2 -9 11
-34 26 -56 33 -30 8 -41 17 -41 31 0 13 7 20 20 20 18 0 19 3 9 23 -7 12 -16
25 -21 28 -6 4 6 16 26 28 20 13 36 27 36 33 0 6 7 7 16 4 17 -7 54 10 54 24
0 6 -13 10 -30 10 -16 0 -30 4 -30 9 0 5 10 9 23 8 35 -1 137 12 149 19 6 4
36 8 67 10 31 2 91 9 134 15 68 10 79 15 90 38 9 20 20 26 45 27 18 1 35 -4
39 -10 3 -6 3 -8 -2 -4 -4 4 -14 0 -22 -10 -14 -16 -14 -16 -9 1 3 9 1 17 -4
17 -6 0 -10 -10 -10 -21 0 -19 4 -21 31 -15 17 3 35 6 40 6 5 0 9 12 9 26 0
22 3 25 23 20 12 -3 30 -6 40 -6 10 0 16 -4 12 -9 -3 -5 -1 -12 4 -15 5 -4 12
-2 16 4 3 5 19 10 35 10 15 0 30 5 32 11 2 6 28 13 58 15 30 2 78 6 106 9 37
4 54 2 62 -8 10 -11 9 -17 -3 -27 -24 -20 -18 -28 31 -51 40 -19 68 -53 59
-69 -4 -7 -2 -7 140 -20 101 -9 189 -20 290 -36 38 -6 39 -6 20 9 -20 16 -20
16 3 10 18 -4 21 -2 16 11 -3 9 -2 16 3 16 6 0 8 21 5 49 -4 47 -3 52 34 86
32 29 89 56 127 59 4 1 11 7 15 13 10 17 89 20 104 5 7 -7 19 -12 27 -12 8 0
42 -13 77 -30 34 -16 73 -31 86 -32 31 -5 78 -37 78 -53 0 -8 -9 -16 -19 -20
-14 -4 -18 -11 -14 -23 11 -27 45 -60 74 -71 20 -7 28 -19 33 -46 4 -20 16
-52 27 -71 20 -36 25 -64 11 -64 -4 0 -9 -12 -10 -26 -2 -27 33 -74 56 -74 6
0 12 -6 12 -12 0 -10 2 -10 8 0 7 9 17 6 41 -16 37 -32 79 -42 281 -68 133
-18 157 -18 208 -8 33 6 41 18 20 28 -7 3 -1 3 15 -1 24 -4 29 -1 38 25 6 17
17 33 25 36 18 7 18 26 0 26 -8 0 -17 11 -20 24 -3 14 -28 51 -56 82 -27 31
-47 61 -44 65 3 5 -2 9 -10 9 -12 0 -16 11 -16 50 0 28 -4 50 -10 50 -12 0
-61 49 -78 79 -22 37 -2 46 111 48 56 1 120 4 143 8 27 5 80 -1 165 -19 68
-13 148 -28 177 -31 28 -4 52 -11 52 -16 0 -5 11 -9 24 -9 25 0 140 -33 189
-53 23 -10 40 -49 20 -46 -53 9 -88 -21 -59 -49 12 -13 18 -13 31 -2 13 11 17
8 26 -18 7 -20 15 -29 25 -25 7 3 16 -2 20 -10 3 -9 19 -15 42 -15 20 -1 53
-8 73 -16 32 -13 35 -18 31 -46 -5 -33 -47 -64 -81 -58 -10 2 -26 -4 -36 -12
-17 -14 -18 -13 -12 3 5 12 1 17 -13 17 -14 0 -18 -5 -13 -16 4 -12 2 -15 -8
-12 -8 3 -20 -1 -27 -8 -9 -10 -20 -10 -45 -3 -17 6 -39 13 -47 15 -13 5 -13
6 0 15 12 8 10 9 -6 4 -13 -3 -26 1 -34 10 -16 19 -60 20 -60 1 0 -8 -9 -18
-20 -21 -26 -8 -26 -25 0 -25 11 0 19 -6 17 -12 -1 -7 8 -14 20 -16 25 -4 54
-32 33 -32 -9 0 -8 -5 3 -18 13 -15 14 -21 4 -31 -10 -10 -1 -12 46 -9 31 1
57 0 57 -4 0 -5 -4 -8 -10 -8 -5 0 -7 -7 -4 -15 5 -11 -1 -15 -19 -15 -34 0
-43 -37 -15 -62 12 -10 31 -18 44 -18 13 0 26 -5 29 -10 3 -6 15 -10 26 -10
11 0 22 -7 25 -15 4 -8 12 -15 20 -15 8 0 14 -6 14 -14 0 -7 9 -16 20 -19 11
-3 20 -13 20 -24 0 -10 -9 -24 -20 -31 -12 -7 -20 -8 -20 -2 0 16 -18 11 -22
-6 -3 -15 -98 -54 -148 -60 -49 -5 -165 -37 -152 -41 6 -3 10 -8 7 -13 -10
-16 96 -32 197 -29 112 3 178 -3 308 -25 47 -8 144 -20 215 -27 72 -6 139 -13
150 -14 11 -2 33 -4 48 -4 18 -1 27 -6 24 -13 -2 -8 -15 -12 -30 -10 -41 5
-32 -15 10 -23 21 -4 43 -15 50 -24 7 -11 38 -22 82 -30 50 -9 71 -17 71 -27
0 -11 -12 -15 -47 -14 -81 0 -87 0 -103 -15 -15 -13 -58 -19 -110 -16 -16 0
-29 10 -35 24 -6 12 -16 21 -23 20 -7 -2 -12 3 -12 11 0 8 -15 25 -32 37 -18
13 -36 27 -39 31 -3 4 -27 8 -55 7 -27 0 -75 2 -106 6 -46 6 -58 5 -58 -6 0
-22 50 -58 89 -65 40 -6 78 -19 131 -42 31 -13 32 -16 15 -23 -16 -6 -14 -8
12 -8 17 -1 35 -6 39 -12 5 -8 -4 -10 -30 -7 -20 2 -36 0 -36 -4 0 -4 7 -8 15
-8 7 0 18 -6 22 -13 4 -8 21 -17 36 -21 19 -4 26 -3 22 4 -3 6 3 10 14 10 12
0 21 -4 21 -10 0 -5 6 -10 14 -10 7 0 19 -7 26 -15 11 -13 10 -18 -8 -31 -33
-23 -27 -34 17 -34 25 0 41 -5 45 -15 3 -8 14 -15 25 -15 11 0 26 -7 35 -15 8
-8 19 -15 24 -15 5 0 14 -10 21 -23 11 -21 38 -37 89 -52 16 -5 22 -14 22 -34
0 -24 -5 -29 -52 -41 -64 -16 -195 -19 -223 -5 -27 14 -79 48 -85 56 -3 3 -35
10 -72 13 -46 5 -68 12 -68 21 0 14 -22 25 -51 25 -27 0 -14 -20 14 -21 20 -1
20 -2 2 -6 -70 -14 -69 -14 -54 -24 10 -7 4 -9 -21 -7 -70 4 -90 -1 -101 -26
-8 -17 -8 -29 0 -44 9 -17 7 -23 -10 -36 -24 -16 -20 -46 6 -46 9 0 13 -5 10
-10 -3 -6 1 -13 9 -16 9 -3 16 -13 16 -21 0 -8 14 -28 30 -45 17 -17 30 -32
28 -33 -5 -5 -240 -20 -313 -20 -170 1 -207 6 -268 42 -82 46 -93 43 -60 -16
17 -29 17 -30 -6 -55 -27 -28 -68 -34 -77 -11 -3 8 4 28 16 45 12 17 20 33 18
36 -8 7 -77 -25 -97 -45 -26 -26 -103 -61 -134 -61 -24 0 -27 -4 -27 -33 0
-44 -11 -53 -205 -175 -304 -191 -375 -237 -375 -244 0 -5 21 -8 48 -8 55 0
77 -11 69 -34 -5 -13 -21 -16 -76 -16 l-70 0 -12 -43 c-14 -49 -33 -67 -70
-67 -17 0 -32 -9 -43 -25 -11 -17 -26 -25 -45 -25 -34 0 -85 -42 -69 -58 14
-14 0 -52 -20 -52 -22 0 -36 10 -50 35 -6 11 -12 14 -12 8 0 -7 -9 -13 -20
-13 -11 0 -20 -4 -20 -9 0 -8 -37 -24 -52 -22 -5 1 -8 -4 -8 -11 0 -6 -3 -9
-6 -6 -3 3 -30 -9 -60 -27 -65 -39 -139 -58 -195 -49 -39 7 -40 6 -34 -19 7
-27 -10 -46 -27 -29 -7 7 -6 17 1 31 16 29 -9 39 -94 36 -87 -3 -123 -9 -137
-23 -6 -6 -16 -8 -23 -6 -6 3 -17 -2 -24 -10 -10 -12 -8 -16 8 -21 19 -6 26
-17 22 -39 -1 -4 5 -19 14 -32 8 -13 14 -33 12 -46 -1 -17 5 -25 28 -33 17 -5
30 -16 29 -22 -1 -7 -2 -20 -3 -27 0 -8 -16 -29 -33 -45 -31 -29 -37 -30 -97
-27 -72 5 -97 20 -68 41 14 10 18 23 15 52 -3 35 -1 38 21 35 24 -2 24 -2 7
17 -10 11 -31 23 -46 26 -20 4 -27 11 -23 21 3 8 2 21 -1 30 -10 26 -39 -4
-31 -33 6 -26 -6 -30 -25 -9 -17 21 -41 9 -35 -18 5 -21 -34 -76 -53 -76 -17
0 -21 28 -6 41 8 6 12 14 10 17 -5 5 -89 -57 -94 -71 -2 -4 -9 -13 -16 -20
-25 -25 -37 -59 -38 -107 -1 -51 21 -100 46 -100 7 0 21 -10 32 -21 20 -23
101 -63 149 -75 48 -11 52 -18 17 -25 -44 -9 -117 14 -164 52 -21 16 -38 27
-38 23 0 -8 73 -73 83 -74 5 0 5 -5 1 -11 -4 -8 1 -9 16 -4 14 5 20 3 16 -3
-22 -36 216 -41 339 -8 75 20 185 66 185 76 0 5 9 12 21 15 11 4 19 8 17 10
-4 4 -92 -19 -131 -34 -43 -17 -55 -13 -28 10 13 11 30 18 38 15 7 -3 20 6 29
19 9 13 25 27 37 31 24 8 80 45 85 56 2 5 14 5 26 2 59 -15 140 121 111 188
-5 12 -2 20 9 24 9 3 16 15 16 27 0 11 8 29 17 39 16 18 15 19 -5 34 -31 21
-29 62 4 74 35 14 44 13 44 -5 0 -8 2 -15 5 -15 5 0 145 92 170 112 6 4 25 19
43 34 17 14 32 23 32 20 0 -3 8 2 18 11 11 10 32 26 48 35 16 10 36 22 44 27
8 5 40 22 70 37 160 81 175 91 178 113 4 25 43 47 67 37 12 -4 14 -14 9 -41
-5 -28 -3 -35 10 -35 9 0 16 5 16 10 0 6 6 10 14 10 7 0 16 9 19 20 3 11 12
20 21 20 10 0 13 6 10 15 -4 10 0 15 11 15 9 0 13 -5 10 -11 -14 -22 42 18
102 72 90 83 123 105 178 121 62 18 155 23 155 8 0 -5 12 -10 28 -10 15 0 54
-7 87 -15 33 -9 69 -17 79 -20 23 -5 35 -22 31 -44 -2 -13 -13 -15 -58 -13
-31 2 -58 -2 -62 -8 -3 -5 -17 -10 -31 -10 -13 0 -24 -5 -24 -10 0 -13 -52
-72 -58 -65 -2 2 -21 -4 -42 -15 -21 -11 -41 -16 -45 -12 -5 4 -5 1 -1 -6 6
-10 2 -13 -15 -10 -19 2 -25 -2 -27 -22 -3 -20 -1 -22 10 -12 8 6 44 12 80 13
95 3 113 -14 55 -50 -18 -11 -53 -23 -77 -27 -52 -8 -100 -33 -100 -51 0 -7 5
-13 11 -13 5 0 7 5 3 12 -5 8 0 9 17 3 41 -13 98 -6 119 15 11 11 33 20 50 20
17 0 33 1 38 2 4 1 34 7 67 14 108 23 120 27 128 40 4 8 19 14 32 14 14 0 25
5 25 10 0 6 -13 10 -28 10 -36 0 -63 40 -42 65 9 11 9 15 1 15 -22 0 -6 35 18
40 13 3 25 13 27 23 2 19 -21 73 -37 82 -5 4 -9 14 -9 25 0 10 -10 20 -22 24
-26 7 -73 44 -66 51 9 9 171 9 213 1 33 -7 44 -5 55 9 13 15 12 17 -10 14 -35
-3 -59 10 -57 31 2 24 50 30 226 30 173 0 210 6 221 35 10 27 53 40 81 25 15
-9 20 -20 19 -48 -1 -20 -1 -41 0 -47 1 -5 2 -13 1 -17 -1 -11 6 -10 28 3 22
14 92 3 88 -14 -1 -7 6 -11 16 -9 21 4 46 -24 47 -52 0 -15 5 -17 28 -12 19 5
23 4 12 -3 -12 -8 -11 -13 6 -28 27 -24 20 -48 -18 -59 -29 -9 -30 -10 -15
-26 15 -15 14 -18 -20 -35 -43 -22 -54 -43 -24 -43 58 0 0 -33 -124 -71 -267
-81 -319 -108 -209 -108 63 0 78 -6 43 -19 -22 -9 -21 -10 16 -23 51 -17 194
-16 205 1 8 13 36 11 155 -12 70 -13 254 -19 385 -11 l110 6 0 1374 0 1373
-2820 0 -2820 0 0 -1880z m4605 1300 c3 -5 1 -10 -4 -10 -6 0 -11 5 -11 10 0
6 2 10 4 10 3 0 8 -4 11 -10z m-118 -50 c19 -15 21 -20 9 -20 -9 0 -16 -4 -16
-9 0 -5 -18 -4 -41 1 l-40 11 28 18 c34 23 30 23 60 -1z m33 -63 c0 -7 -5 -18
-12 -25 -7 -7 -8 -12 -3 -12 5 0 -1 -7 -13 -16 -16 -11 -27 -12 -39 -5 -16 9
-16 10 5 11 26 0 30 20 5 21 -15 0 -15 2 2 9 11 5 16 9 12 9 -5 1 -5 6 -2 11
9 15 45 12 45 -3z m-3920 -42 c0 -8 -4 -15 -10 -15 -5 0 -10 7 -10 15 0 8 5
15 10 15 6 0 10 -7 10 -15z m4250 -1216 c0 -5 -7 -9 -15 -9 -15 0 -20 12 -9
23 8 8 24 -1 24 -14z m-556 -96 c8 -21 -8 -38 -29 -29 -13 4 -14 10 -5 26 13
24 26 26 34 3z m-4164 -2 c0 -17 -18 -21 -24 -6 -3 9 0 15 9 15 8 0 15 -4 15
-9z m4430 -61 c-37 -12 -140 -12 -140 0 0 6 34 10 83 9 56 -1 74 -4 57 -9z
m-217 -111 c7 0 -1 -5 -17 -10 -33 -9 -42 -6 -31 11 4 6 14 9 22 6 8 -3 20 -6
26 -7z m707 -435 c0 -3 -6 -12 -14 -20 -17 -16 -76 -19 -76 -3 0 6 9 8 20 4
13 -4 22 -1 26 9 6 15 44 23 44 10z m-130 -34 c0 -5 -4 -10 -10 -10 -5 0 -10
5 -10 10 0 6 5 10 10 10 6 0 10 -4 10 -10z m-2422 -314 c3 -13 -1 -17 -14 -14
-11 2 -20 11 -22 22 -3 13 1 17 14 14 11 -2 20 -11 22 -22z"/>
<path d="M1746 3615 c-3 -8 -1 -15 4 -15 6 0 10 7 10 15 0 8 -2 15 -4 15 -2 0
-6 -7 -10 -15z"/>
<path d="M4380 3430 c0 -5 5 -10 10 -10 6 0 10 5 10 10 0 6 -4 10 -10 10 -5 0
-10 -4 -10 -10z"/>
<path d="M1919 3406 c-2 -2 -50 -7 -107 -10 -56 -3 -110 -10 -120 -14 -9 -5
-34 -12 -54 -16 -21 -4 -38 -11 -38 -16 0 -5 -8 -11 -18 -15 -11 -3 -24 -17
-30 -31 -7 -14 -18 -24 -25 -22 -6 2 -27 -8 -45 -21 -18 -12 -45 -26 -60 -31
-15 -4 -26 -13 -24 -20 2 -11 0 -11 -12 -1 -10 8 -16 9 -21 1 -3 -5 -15 -10
-25 -10 -13 0 -17 -5 -14 -15 4 -8 1 -15 -5 -15 -6 0 -11 5 -11 11 0 5 -5 7
-10 4 -6 -4 -7 -11 -4 -17 5 -7 1 -9 -9 -5 -10 3 -17 3 -17 -1 0 -7 -23 -10
-77 -13 -13 -1 -23 -7 -23 -14 0 -12 -29 -25 -58 -25 -6 0 0 14 15 30 14 17
32 30 40 30 7 0 13 4 13 10 0 5 17 17 38 26 21 10 31 18 24 21 -8 3 -19 0 -25
-6 -6 -6 -21 -11 -34 -11 -13 0 -23 -4 -23 -8 0 -4 -16 -14 -37 -21 -140 -51
-390 -311 -368 -382 4 -13 2 -19 -5 -17 -7 2 -15 -3 -17 -9 -3 -7 2 -13 11
-13 18 0 21 -16 5 -26 -6 -3 -15 0 -20 7 -6 10 -9 11 -9 2 0 -22 -2 -27 -12
-47 -7 -12 -7 -16 0 -12 5 3 13 -1 16 -10 9 -22 -3 -32 -14 -14 -7 10 -10 -16
-10 -77 0 -52 4 -95 10 -98 7 -4 8 21 4 77 -6 74 -5 81 8 64 8 -10 20 -16 26
-12 7 4 12 2 12 -3 0 -6 -6 -11 -13 -11 -9 0 -13 -16 -12 -52 0 -46 3 -53 18
-50 14 3 17 -1 13 -16 -4 -12 3 -33 19 -56 14 -21 22 -35 17 -32 -5 3 -9 -8
-9 -24 0 -23 3 -27 13 -19 16 13 28 -4 20 -29 -3 -9 -2 -23 3 -31 12 -18 41
-7 40 16 0 11 -3 13 -6 6 -5 -15 -23 -17 -23 -4 0 15 33 22 42 9 12 -19 10 -3
-4 27 -9 19 -9 28 0 37 9 9 12 9 12 0 0 -7 5 -12 10 -12 6 0 10 7 10 15 0 8 5
15 10 15 22 0 6 -65 -31 -120 -26 -40 -21 -56 18 -52 24 3 33 0 33 -10 0 -21
-20 -37 -38 -31 -10 4 -13 2 -8 -5 4 -7 16 -12 26 -12 20 0 36 -17 25 -28 -3
-3 -10 0 -15 8 -5 8 -11 12 -15 9 -3 -3 4 -14 15 -24 11 -10 20 -13 20 -7 0 7
5 12 11 12 6 0 9 -6 6 -12 -3 -9 6 -13 24 -14 16 -1 29 3 29 7 0 5 -4 9 -9 9
-5 0 -8 8 -7 18 1 12 -5 16 -21 14 -24 -3 -38 24 -27 52 3 9 1 16 -4 16 -12 0
-45 61 -37 68 3 3 19 -10 35 -29 16 -19 29 -29 29 -24 1 13 -19 43 -19 30 0
-5 -5 -2 -11 8 -14 23 -2 39 24 32 16 -5 18 -4 8 3 -10 7 -10 11 -1 17 7 4 16
1 21 -6 11 -18 11 -26 -1 -34 -13 -8 -13 -25 0 -25 6 0 10 6 10 14 0 8 6 16
13 19 9 3 8 13 -5 41 -10 20 -18 46 -18 57 0 11 -7 22 -15 25 -10 4 -13 13
-10 25 7 21 -11 27 -18 7 -2 -7 -8 -9 -13 -5 -5 4 -2 12 5 16 21 13 22 69 2
81 -14 8 -14 9 3 10 12 0 16 5 12 16 -3 9 -3 21 1 27 4 6 8 22 9 36 2 14 10
29 19 33 8 5 15 18 15 29 0 29 25 71 60 99 17 14 40 35 52 48 12 12 26 22 30
22 17 0 80 69 73 79 -3 6 1 11 9 11 9 0 16 -4 16 -10 0 -17 18 -11 24 8 4 11
17 17 39 18 19 0 48 10 64 22 32 23 59 29 48 12 -3 -5 -1 -10 5 -10 6 0 16 13
21 29 7 20 21 32 49 41 22 7 40 17 40 22 0 4 9 8 20 8 11 0 20 -4 20 -10 0 -5
5 -10 10 -10 14 0 12 27 -2 33 -7 3 -2 6 13 6 14 1 30 -4 37 -11 9 -9 20 -8
50 1 21 7 47 11 58 10 10 -2 30 4 43 13 23 17 26 16 56 -2 33 -20 62 -28 35
-9 -13 9 -13 12 4 22 10 7 31 22 46 35 22 17 41 22 91 23 35 0 58 3 52 6 -25
9 -14 33 15 32 15 -1 33 -1 40 0 17 2 15 21 -2 21 -8 0 -18 5 -22 11 -4 7 6
10 32 7 31 -2 39 1 42 15 2 9 -1 17 -7 17 -6 0 -11 -6 -11 -12 0 -9 -2 -10 -8
-2 -4 7 -40 12 -90 12 -128 0 -132 30 -7 48 82 11 177 5 323 -21 135 -25 208
-44 267 -70 17 -7 40 -16 53 -20 12 -3 27 -15 32 -26 6 -10 17 -19 25 -19 7 0
17 -9 20 -21 4 -11 12 -18 18 -16 11 3 21 -2 57 -35 10 -9 35 -20 54 -24 20
-3 34 -10 31 -14 -9 -15 14 -21 36 -10 16 9 24 8 38 -4 18 -17 41 -21 41 -8 0
10 -67 64 -130 104 -224 141 -579 238 -876 238 -66 0 -123 -2 -125 -4z m-589
-266 c0 -5 -7 -10 -16 -10 -8 0 -12 5 -9 10 3 6 10 10 16 10 5 0 9 -4 9 -10z
m190 -30 c0 -12 -27 -12 -55 0 -16 7 -13 9 18 9 20 1 37 -3 37 -9z m-80 -57
c0 -14 -46 -30 -66 -22 -16 6 -15 8 8 8 15 1 30 6 33 11 7 12 25 13 25 3z
m-483 -529 c-3 -3 -12 -4 -19 -1 -8 3 -5 6 6 6 11 1 17 -2 13 -5z m-67 -110
c0 -8 -5 -12 -10 -9 -6 4 -8 11 -5 16 9 14 15 11 15 -7z m73 -64 c-3 -11 -7
-20 -9 -20 -2 0 -4 9 -4 20 0 11 4 20 9 20 5 0 7 -9 4 -20z"/>
<path d="M2207 3294 c-3 -4 1 -13 9 -21 18 -18 27 -13 18 11 -6 17 -16 20 -27
10z"/>
<path d="M2398 3273 c7 -3 16 -2 19 1 4 3 -2 6 -13 5 -11 0 -14 -3 -6 -6z"/>
<path d="M2444 3258 c-3 -4 4 -8 15 -8 12 0 21 4 21 8 0 5 -7 9 -15 9 -9 0
-18 -4 -21 -9z"/>
<path d="M2375 3240 c3 -5 10 -10 16 -10 5 0 9 5 9 10 0 6 -7 10 -16 10 -8 0
-12 -4 -9 -10z"/>
<path d="M2360 3200 l-45 -7 40 -1 c22 -1 47 3 55 8 8 5 11 9 5 8 -5 0 -30 -4
-55 -8z"/>
<path d="M2633 3203 c9 -2 23 -2 30 0 6 3 -1 5 -18 5 -16 0 -22 -2 -12 -5z"/>
<path d="M2448 3193 c7 -3 16 -2 19 1 4 3 -2 6 -13 5 -11 0 -14 -3 -6 -6z"/>
<path d="M4144 3189 c-9 -15 20 -42 41 -37 14 2 13 6 -9 25 -16 14 -28 18 -32
12z"/>
<path d="M4105 3170 c-3 -5 -1 -10 4 -10 6 0 11 5 11 10 0 6 -2 10 -4 10 -3 0
-8 -4 -11 -10z"/>
<path d="M2720 3130 c0 -5 11 -10 25 -10 14 0 25 5 25 10 0 6 -11 10 -25 10
-14 0 -25 -4 -25 -10z"/>
<path d="M1730 3100 c0 -5 7 -10 15 -10 8 0 15 5 15 10 0 6 -7 10 -15 10 -8 0
-15 -4 -15 -10z"/>
<path d="M2975 3060 c-3 -6 4 -10 17 -10 19 0 20 -2 8 -11 -12 -9 -12 -10 3
-5 10 3 21 6 25 6 8 0 -31 29 -40 30 -4 0 -10 -4 -13 -10z"/>
<path d="M4064 3048 c-6 -9 2 -11 30 -8 10 1 15 -3 12 -8 -8 -14 28 -25 53
-17 11 3 22 1 25 -4 4 -6 13 -8 20 -5 8 3 17 1 21 -5 9 -16 35 -13 35 3 0 13
-23 25 -65 32 -96 16 -127 19 -131 12z"/>
<path d="M4280 3000 c-12 -7 -12 -12 -2 -22 9 -9 15 -8 27 8 8 10 15 14 15 7
0 -7 8 -13 18 -13 15 1 15 2 -2 15 -23 17 -35 18 -56 5z"/>
<path d="M3932 2909 c-11 -18 -11 -23 5 -35 10 -7 26 -14 36 -14 39 0 64 -55
41 -88 -12 -18 -10 -19 34 -19 37 0 51 5 65 24 10 13 25 23 33 23 8 0 14 5 14
10 0 6 8 10 19 10 10 0 24 6 30 13 18 22 -19 47 -85 57 -107 16 -134 23 -140
31 -10 16 -39 9 -52 -12z"/>
<path d="M3803 2903 c9 -9 20 -13 24 -9 4 4 1 11 -7 16 -25 16 -35 11 -17 -7z"/>
<path d="M4277 2833 c-49 -5 -44 -27 6 -31 32 -3 37 0 37 17 0 12 -1 20 -2 19
-2 -1 -20 -3 -41 -5z"/>
<path d="M730 2468 c0 -8 5 -19 12 -26 6 -6 9 -14 6 -18 -4 -3 -13 7 -22 23
-21 38 -20 15 1 -33 15 -34 18 -36 21 -16 2 12 7 22 12 22 12 0 0 37 -16 51
-11 9 -14 8 -14 -3z"/>
<path d="M769 2403 c-1 -5 0 -16 1 -27 1 -11 -3 -15 -9 -12 -6 4 -11 5 -11 2
0 -8 42 -80 58 -98 16 -19 58 -25 47 -8 -3 6 -15 10 -26 10 -10 0 -19 7 -19
15 0 8 -3 15 -7 15 -5 0 -14 12 -20 27 -10 21 -10 29 -1 34 9 6 9 11 0 22 -7
7 -9 17 -5 20 3 4 3 7 0 7 -4 0 -8 -3 -8 -7z"/>
<path d="M1040 2285 c0 -9 6 -12 15 -9 8 4 15 10 15 15 0 5 -7 9 -15 9 -8 0
-15 -7 -15 -15z"/>
<path d="M1080 2252 c0 -10 7 -27 15 -38 16 -21 20 -8 9 34 -8 26 -24 29 -24
4z"/>
<path d="M1006 2226 c-20 -31 -20 -36 -2 -36 8 0 17 12 20 26 9 36 2 40 -18
10z"/>
<path d="M840 2230 c0 -5 5 -10 11 -10 5 0 7 5 4 10 -3 6 -8 10 -11 10 -2 0
-4 -4 -4 -10z"/>
<path d="M898 2213 c7 -3 16 -2 19 1 4 3 -2 6 -13 5 -11 0 -14 -3 -6 -6z"/>
<path d="M1045 2210 c-3 -5 1 -10 10 -10 9 0 13 5 10 10 -3 6 -8 10 -10 10 -2
0 -7 -4 -10 -10z"/>
<path d="M1065 2180 c-3 -6 -12 -7 -18 -3 -7 4 -6 0 2 -10 15 -19 36 -24 25
-6 -4 8 1 9 17 4 13 -4 22 -6 19 -3 -31 25 -39 28 -45 18z"/>
<path d="M751 2087 c29 -28 35 -27 17 2 -7 12 -19 21 -27 21 -9 0 -6 -8 10
-23z"/>
<path d="M1025 2100 c-4 -6 9 -10 32 -9 30 0 34 2 18 9 -27 12 -43 12 -50 0z"/>
<path d="M1099 2067 c7 -7 14 -8 21 -1 6 6 2 10 -12 11 -16 2 -18 -1 -9 -10z"/>
<path d="M1230 1986 c0 -2 7 -7 16 -10 8 -3 12 -2 9 4 -6 10 -25 14 -25 6z"/>
<path d="M856 1961 c-3 -5 1 -11 9 -15 9 -3 15 0 15 9 0 16 -16 20 -24 6z"/>
<path d="M865 1920 c3 -5 8 -10 11 -10 2 0 4 5 4 10 0 6 -5 10 -11 10 -5 0 -7
-4 -4 -10z"/>
<path d="M931 1914 c0 -11 3 -14 6 -6 3 7 2 16 -1 19 -3 4 -6 -2 -5 -13z"/>
<path d="M962 1888 c-21 -39 -21 -42 -6 -60 16 -17 16 -18 0 -18 -16 0 -15 -3
3 -27 12 -14 40 -40 64 -57 23 -17 44 -34 45 -38 2 -5 8 -8 13 -8 10 0 12 -1
69 -48 19 -16 42 -32 50 -36 8 -3 2 -4 -13 -1 -33 7 -67 -2 -67 -16 0 -5 7 -9
15 -9 8 0 15 -9 15 -20 0 -11 7 -20 16 -20 8 0 13 -4 10 -9 -3 -5 1 -11 9 -15
8 -3 15 -12 15 -21 0 -8 4 -15 8 -15 5 0 30 -21 58 -46 99 -93 178 -138 277
-158 42 -9 88 -21 104 -27 15 -7 39 -12 52 -13 26 -1 43 -26 17 -26 -19 0 -31
-19 -19 -31 9 -9 137 -22 196 -21 23 1 28 -2 23 -16 -5 -13 -3 -12 9 3 9 11
21 20 28 21 7 0 20 4 30 9 10 4 24 2 34 -6 15 -12 16 -12 10 4 -4 10 -7 23 -7
28 0 6 -4 7 -10 4 -5 -3 -10 0 -10 7 0 8 -9 14 -20 15 -11 1 -20 -2 -20 -6 0
-5 -17 -11 -37 -14 -27 -5 -42 -2 -56 10 -14 14 -20 14 -26 4 -9 -14 -81 -5
-81 10 0 11 2 11 60 14 36 1 44 5 42 18 -3 19 14 24 20 6 6 -17 65 -19 65 -2
0 7 -4 13 -9 13 -5 0 -6 5 -3 10 3 6 15 10 26 10 11 0 24 10 29 23 5 12 9 16
9 10 2 -26 19 -12 23 18 5 32 -12 59 -38 59 -17 0 -18 24 -1 38 13 11 16 12
52 12 31 0 33 23 5 47 -11 10 -20 23 -20 30 0 7 -5 13 -11 13 -20 0 -63 54
-61 76 3 22 6 21 -128 54 -61 15 -183 39 -233 45 -27 4 -56 8 -65 10 -73 17
-338 107 -383 131 -47 24 -111 43 -126 37 -10 -4 -13 0 -11 12 6 34 -17 24
-40 -17z m370 -344 c38 -20 45 -35 11 -24 -42 13 -83 34 -83 43 0 10 33 1 72
-19z m588 -284 c0 -5 -2 -10 -4 -10 -3 0 -8 5 -11 10 -3 6 -1 10 4 10 6 0 11
-4 11 -10z"/>
<path d="M4607 1521 c-57 -12 -66 -27 -26 -44 19 -8 46 -30 61 -49 15 -19 40
-38 55 -42 71 -15 77 -54 12 -86 -45 -23 -57 -39 -38 -51 34 -21 234 -1 255
26 6 8 30 24 54 37 48 25 63 48 32 48 -25 0 -49 26 -30 33 7 3 3 6 -10 6 -18
1 -23 6 -21 24 1 12 -1 30 -5 39 -4 9 -5 21 -2 26 5 9 -110 29 -174 31 -14 1
-47 3 -75 5 -27 3 -67 1 -88 -3z"/>
<path d="M1270 1251 c0 -4 10 -23 23 -42 12 -19 28 -46 36 -60 19 -39 130 -99
206 -113 114 -21 275 -41 275 -34 0 3 -21 13 -47 23 -27 10 -95 40 -153 67
-58 27 -121 57 -140 66 -19 9 -69 35 -111 59 -79 45 -89 49 -89 34z"/>
<path d="M2023 1235 c-11 -8 -13 -14 -5 -19 17 -10 82 4 82 18 0 16 -56 16
-77 1z"/>
<path d="M4575 1240 c-11 -5 -41 -9 -66 -9 -42 -1 -79 -22 -79 -44 0 -10 58
-9 64 1 3 5 26 9 53 11 50 2 73 14 73 37 0 16 -15 17 -45 4z"/>
<path d="M1597 1196 c28 -6 55 -14 59 -18 10 -11 24 -10 24 1 0 10 -88 32
-118 30 -9 -1 6 -6 35 -13z"/>
<path d="M2280 1130 c0 -6 7 -10 15 -10 8 0 15 2 15 4 0 2 -7 6 -15 10 -8 3
-15 1 -15 -4z"/>
<path d="M4520 1050 l-45 -7 53 -1 c29 -1 52 2 52 8 0 6 -3 9 -7 8 -5 0 -28
-4 -53 -8z"/>
<path d="M5375 980 c-3 -5 -1 -10 4 -10 6 0 11 5 11 10 0 6 -2 10 -4 10 -3 0
-8 -4 -11 -10z"/>
<path d="M5590 820 c20 -13 50 -13 50 0 0 6 -15 10 -32 10 -25 0 -29 -3 -18
-10z"/>
<path d="M5546 719 c-28 -10 -79 -20 -114 -21 -35 -1 -66 -6 -68 -10 -3 -4
-22 -9 -42 -9 l-37 -1 35 -7 c45 -9 61 -19 58 -36 -2 -8 2 -13 7 -12 6 1 9 8
9 14 -2 13 9 9 34 -10 18 -14 -14 -47 -47 -47 -14 0 -41 -4 -60 -10 -31 -9
-319 -25 -386 -21 -16 1 -42 -1 -58 -5 -39 -8 -22 -24 33 -29 108 -11 106 -37
-3 -46 -49 -4 -87 -13 -104 -25 -25 -17 -26 -19 -8 -22 10 -2 21 1 23 7 4 12
104 15 116 4 11 -12 106 -13 106 -2 0 5 15 2 33 -8 26 -14 29 -18 13 -21 -15
-3 -16 -6 -5 -12 7 -5 21 -4 32 2 14 7 18 7 12 -1 -4 -7 -2 -18 5 -26 8 -10 8
-15 -1 -21 -23 -14 -135 -34 -249 -45 -63 -6 -133 -12 -155 -15 -22 -2 -83 -6
-135 -8 -52 -2 -148 -6 -212 -9 -92 -5 -124 -3 -145 8 -31 17 -69 19 -77 6 -3
-5 8 -11 24 -15 35 -6 39 -21 9 -29 -14 -4 -20 -11 -16 -20 7 -18 -33 -31 -47
-17 -7 7 -2 10 12 10 39 0 23 19 -20 25 -35 4 -66 3 -107 -4 -2 -1 2 -8 9 -16
7 -9 11 -17 9 -19 -7 -7 -104 -23 -116 -19 -20 7 -2 33 22 33 13 0 26 4 29 9
4 5 -50 10 -126 10 -73 1 -142 3 -153 6 -11 2 -30 4 -42 4 -26 1 -31 28 -8 37
8 4 15 13 15 21 0 9 8 21 17 28 13 10 15 16 6 26 -11 13 -13 20 -13 35 0 4 -6
1 -14 -5 -7 -6 -24 -11 -37 -10 -13 0 -49 -3 -80 -6 -36 -5 -63 -3 -77 4 -22
12 -28 10 -87 -22 -16 -9 -46 -24 -65 -33 -19 -9 -68 -38 -110 -64 -151 -96
-272 -157 -465 -233 -37 -15 79 -16 1438 -16 l1477 -1 0 370 0 370 -22 -1
c-13 0 -45 -9 -72 -20z m-421 -198 c39 -8 22 -19 -35 -21 -72 -3 -80 -1 -74
15 6 16 53 18 109 6z m-1240 -331 c4 -6 -6 -10 -22 -9 -25 0 -26 1 -8 9 11 5
21 9 22 9 1 1 5 -3 8 -9z"/>
<path d="M3615 570 c-11 -4 -26 -5 -33 -2 -10 3 -13 -2 -10 -19 2 -19 -2 -24
-20 -25 -13 -1 -35 -13 -49 -27 l-26 -25 24 -12 c13 -7 37 -13 53 -12 17 0 35
-3 41 -7 10 -8 137 18 150 31 4 4 -10 10 -30 14 -20 3 -39 13 -42 20 -4 10
-15 13 -38 8 -18 -3 -35 -1 -39 4 -9 15 4 42 21 42 8 0 11 -4 8 -10 -11 -18
45 -24 63 -6 14 13 14 16 2 17 -8 1 -19 1 -24 0 -4 -1 -13 2 -20 7 -6 5 -20 6
-31 2z"/>
<path d="M4645 471 c-7 -12 31 -25 45 -16 6 4 8 11 5 16 -8 12 -42 12 -50 0z"/>
<path d="M4785 470 c3 -5 8 -10 11 -10 2 0 4 5 4 10 0 6 -5 10 -11 10 -5 0 -7
-4 -4 -10z"/>
</g>
</svg>
