<?xml version="1.0" standalone="no"?>
<!DOCTYPE svg PUBLIC "-//W3C//DTD SVG 20010904//EN"
 "http://www.w3.org/TR/2001/REC-SVG-20010904/DTD/svg10.dtd">
<svg version="1.0" xmlns="http://www.w3.org/2000/svg"
 width="400.000000pt" height="400.000000pt" viewBox="0 0 400.000000 400.000000"
 preserveAspectRatio="xMidYMid meet">

<g transform="translate(0.000000,400.000000) scale(0.100000,-0.100000)"
fill="#000000" stroke="none">
<path d="M0 2900 c0 -727 3 -1100 10 -1100 6 0 10 -9 10 -20 0 -11 -4 -20 -10
-20 -7 0 -10 -300 -10 -880 l0 -880 2000 0 2000 0 0 2000 0 2000 -2000 0
-2000 0 0 -1100z m2174 330 c33 -5 62 -13 65 -18 3 -5 48 -21 99 -35 99 -29
156 -54 212 -96 l35 -26 -16 25 c-9 14 -37 40 -63 58 -51 34 -54 42 -7 18 48
-25 89 -81 96 -131 9 -55 -15 -96 -81 -141 -23 -16 -41 -30 -39 -32 9 -9 75
36 112 76 42 43 43 44 32 13 -6 -17 -23 -40 -39 -51 -34 -24 -77 -80 -82 -106
-1 -10 -9 -25 -15 -32 -7 -7 -13 -23 -13 -36 0 -12 -5 -27 -10 -32 -6 -6 -12
-53 -13 -105 -2 -52 -6 -100 -10 -106 -3 -5 -17 -52 -30 -102 -19 -74 -26 -88
-32 -69 -4 12 -7 28 -6 34 1 6 -10 12 -24 12 -13 0 -22 -4 -20 -9 6 -9 16 -81
17 -116 0 -13 4 -23 8 -23 5 0 2 -12 -6 -27 -7 -16 -14 -55 -15 -88 l0 -60
-24 53 c-23 50 -25 52 -64 52 -26 0 -41 5 -41 13 -1 18 -50 -41 -50 -61 -1
-16 -1 -16 -11 1 -5 9 -17 17 -25 17 -12 0 -14 -11 -10 -56 2 -30 6 -58 10
-61 3 -4 6 -18 6 -31 l0 -25 -22 20 c-13 11 -34 26 -48 32 -24 11 -24 11 -6
-3 11 -9 14 -16 8 -16 -7 0 -20 9 -29 20 -10 11 -21 20 -26 20 -14 0 -37 -27
-37 -44 0 -9 -7 -16 -15 -16 -8 0 -14 3 -13 8 1 4 -2 18 -6 31 -5 15 -11 20
-16 12 -4 -7 -19 -13 -33 -15 -15 -1 -36 -11 -46 -20 -18 -17 -22 -17 -36 -3
-8 9 -15 20 -15 25 0 5 -9 12 -20 15 -15 4 -20 0 -20 -16 0 -40 -13 -48 -71
-45 -30 1 -59 -1 -65 -4 -6 -4 -16 3 -22 17 -7 15 -20 25 -32 25 -11 0 -20 5
-20 11 0 5 -4 7 -10 4 -5 -3 -10 -21 -10 -38 0 -43 -14 -22 -40 60 -10 34 -25
75 -33 90 -19 38 -35 224 -47 558 -6 154 -13 294 -16 310 l-5 30 21 -28 c12
-15 31 -32 43 -38 20 -11 20 -11 -1 16 -33 41 -28 75 16 117 20 19 57 47 82
61 94 54 302 97 468 97 41 0 72 4 72 10 0 13 29 13 104 0z m266 -52 c10 -6 7
-7 -10 -2 -14 3 -32 11 -40 16 -10 6 -7 7 10 2 14 -3 32 -11 40 -16z m-1504
-1186 c1 -7 0 -8 -3 -2 -2 5 -9 8 -14 4 -5 -3 -9 0 -9 6 0 15 23 7 26 -8z
m924 -67 c0 -8 -2 -15 -4 -15 -2 0 -6 7 -10 15 -3 8 -1 15 4 15 6 0 10 -7 10
-15z m-30 -13 c0 -5 -7 -17 -15 -28 -14 -19 -14 -19 -15 2 0 11 3 24 7 27 9
10 23 9 23 -1z m-323 -54 c-3 -8 -6 -5 -6 6 -1 11 2 17 5 13 3 -3 4 -12 1 -19z
m148 -133 c3 -25 10 -47 16 -50 5 -4 9 -11 9 -18 0 -8 -3 -8 -11 0 -15 15 -39
5 -40 -16 -1 -9 -5 6 -8 33 -4 26 -5 61 -3 76 6 42 29 26 37 -25z m-1510 -73
c12 12 64 -14 71 -35 10 -31 -28 -57 -81 -57 -45 0 -55 10 -55 55 0 15 7 26
20 30 11 3 20 12 20 18 0 7 4 6 10 -3 5 -8 12 -12 15 -8z m1799 2 c3 -8 2 -12
-4 -9 -6 3 -10 10 -10 16 0 14 7 11 14 -7z m-938 -76 c-13 -21 -30 -18 -34 5
-3 13 3 16 21 15 21 -2 23 -5 13 -20z m564 -85 c-20 -25 -21 -35 -15 -98 12
-107 12 -138 4 -167 -4 -16 -4 -28 1 -28 12 0 20 27 20 65 0 18 6 36 13 38 9
4 8 8 -3 16 -13 9 -13 12 3 23 10 8 20 25 21 38 7 52 19 100 26 105 10 6 33
-22 27 -32 -7 -12 12 -55 21 -49 18 11 80 -14 85 -35 3 -12 10 -18 16 -15 9 6
24 -6 59 -49 11 -13 11 -19 0 -33 -11 -15 -11 -15 2 -6 19 15 40 -3 40 -36 0
-16 49 -23 65 -10 12 10 15 9 15 -9 0 -11 5 -21 11 -21 6 0 9 -9 6 -20 -3 -11
-1 -20 5 -20 5 0 7 -4 4 -9 -3 -5 1 -14 10 -21 8 -7 13 -18 11 -24 -5 -12 48
-68 56 -60 3 3 8 0 13 -7 4 -8 3 -10 -4 -5 -7 4 -12 2 -12 -3 0 -6 7 -11 15
-11 8 0 15 -6 15 -12 1 -7 17 5 37 27 19 22 30 30 24 18 -6 -12 -11 -29 -11
-38 0 -14 3 -14 31 0 17 9 33 14 36 11 7 -7 6 -48 -2 -73 -6 -18 -3 -23 9 -23
10 0 14 -4 11 -10 -3 -5 -1 -10 4 -10 6 0 11 -6 11 -14 0 -8 8 -21 18 -28 18
-14 23 -72 8 -96 -4 -7 -3 -19 4 -27 8 -9 8 -20 2 -32 -6 -10 -11 -34 -13 -53
-4 -50 -33 -87 -90 -116 -64 -32 -132 -45 -245 -45 -162 -1 -317 54 -398 141
-37 39 -46 57 -61 124 -9 44 -21 136 -26 205 -8 124 -10 492 -2 438 6 -39 39
-34 35 6 -2 15 1 27 7 27 6 0 11 6 11 14 0 8 19 28 43 44 53 38 53 38 27 5z
m25 -42 c3 -5 1 -12 -5 -16 -5 -3 -10 1 -10 9 0 18 6 21 15 7z m15 -916 c0 -8
-4 -15 -10 -15 -18 0 -60 23 -60 33 0 6 -8 19 -17 30 -15 16 -10 15 35 -7 28
-14 52 -33 52 -41z m537 -110 c0 -8 -6 -15 -14 -15 -14 0 -17 12 -6 23 11 11
20 8 20 -8z"/>
<path d="M2143 3021 c0 -11 5 -18 9 -15 4 3 5 11 1 19 -7 21 -12 19 -10 -4z"/>
<path d="M1620 3020 c0 -5 5 -10 11 -10 5 0 7 5 4 10 -3 6 -8 10 -11 10 -2 0
-4 -4 -4 -10z"/>
<path d="M1977 3023 c-10 -3 -16 -11 -14 -18 3 -7 1 -17 -5 -23 -17 -17 11
-25 43 -12 22 9 29 19 27 34 -3 21 -19 28 -51 19z"/>
<path d="M2175 3022 c6 -5 44 -13 85 -17 58 -5 72 -4 63 6 -6 6 -45 14 -85 16
-49 4 -70 2 -63 -5z"/>
<path d="M2072 2997 c4 -20 0 -27 -16 -32 -17 -6 -14 -9 19 -15 73 -16 95 -13
92 13 -2 19 -20 34 -52 43 -5 1 -19 5 -29 10 -16 6 -18 4 -14 -19z"/>
<path d="M1880 2960 c0 -13 11 -13 30 0 12 8 11 10 -7 10 -13 0 -23 -4 -23
-10z"/>
<path d="M1997 2954 c-8 -8 1 -24 12 -24 4 0 8 7 8 15 0 16 -9 20 -20 9z"/>
<path d="M1930 2940 c0 -5 -12 -10 -27 -11 l-28 -1 25 -8 c22 -7 21 -8 -13 -9
-23 -1 -36 -5 -32 -11 8 -13 57 -13 92 1 26 10 27 12 8 19 -11 5 -14 9 -7 9
15 1 6 21 -9 21 -5 0 -9 -4 -9 -10z"/>
<path d="M2028 2906 c-10 -7 -15 -16 -11 -19 10 -11 43 -8 43 3 0 6 -5 10 -11
10 -5 0 -7 5 -4 10 8 13 4 12 -17 -4z"/>
<path d="M1948 2873 c7 -3 16 -2 19 1 4 3 -2 6 -13 5 -11 0 -14 -3 -6 -6z"/>
<path d="M2000 2834 c0 -8 5 -12 10 -9 6 4 8 11 5 16 -9 14 -15 11 -15 -7z"/>
<path d="M2400 2495 c-10 -12 -10 -15 3 -15 19 0 31 16 18 24 -5 3 -14 -1 -21
-9z"/>
<path d="M2108 2253 c7 -3 16 -2 19 1 4 3 -2 6 -13 5 -11 0 -14 -3 -6 -6z"/>
<path d="M1684 2186 c-3 -7 -1 -29 4 -47 11 -44 41 -46 61 -5 13 27 12 31 -9
48 -26 21 -49 23 -56 4z m51 -36 c3 -6 -1 -13 -10 -16 -19 -8 -30 0 -20 15 8
14 22 14 30 1z"/>
</g>
</svg>
