<?xml version="1.0" ?><svg fill="none" height="1080" viewBox="0 0 1080 1080" width="1080" xmlns="http://www.w3.org/2000/svg"><path d="M774.428 515.381H721.354V462.308C721.354 432.996 745.116 409.234 774.428 409.234C803.739 409.234 827.501 432.996 827.501 462.308C827.501 491.619 803.739 515.381 774.428 515.381Z" stroke="url(#paint0_linear)" stroke-width="25"/><path d="M671.76 318.867V462.309C671.76 491.62 647.998 515.382 618.687 515.382C589.375 515.382 565.613 491.62 565.613 462.309V318.867C565.613 289.556 589.375 265.794 618.687 265.794C647.998 265.794 671.76 289.556 671.76 318.867Z" stroke="url(#paint1_linear)" stroke-width="25"/><path d="M564.793 773.782V720.709H617.866C647.178 720.709 670.939 744.471 670.939 773.782C670.939 803.094 647.178 826.855 617.866 826.855C588.555 826.855 564.793 803.094 564.793 773.782Z" stroke="url(#paint2_linear)" stroke-width="25"/><path d="M761.308 671.118H617.866C588.555 671.118 564.793 647.356 564.793 618.045C564.793 588.733 588.555 564.972 617.866 564.972H761.308C790.619 564.972 814.381 588.733 814.381 618.045C814.381 647.356 790.619 671.118 761.308 671.118Z" stroke="url(#paint3_linear)" stroke-width="25"/><path d="M305.573 564.969H358.646V618.042C358.646 647.354 334.885 671.116 305.573 671.116C276.262 671.116 252.5 647.354 252.5 618.042C252.5 588.731 276.262 564.969 305.573 564.969Z" stroke="url(#paint4_linear)" stroke-width="25"/><path d="M408.237 761.485V618.044C408.237 588.732 431.999 564.971 461.311 564.971C490.622 564.971 514.384 588.732 514.384 618.044V761.485C514.384 790.797 490.622 814.559 461.311 814.559C431.999 814.559 408.237 790.797 408.237 761.485Z" stroke="url(#paint5_linear)" stroke-width="25"/><path d="M514.379 306.573V359.646H461.306C431.994 359.646 408.232 335.885 408.232 306.573C408.232 277.262 431.994 253.5 461.306 253.5C490.617 253.5 514.379 277.262 514.379 306.573Z" stroke="url(#paint6_linear)" stroke-width="25"/><path d="M317.867 409.236H461.309C490.62 409.236 514.382 432.998 514.382 462.309C514.382 491.621 490.62 515.382 461.309 515.382H317.867C288.556 515.382 264.794 491.621 264.794 462.309C264.794 432.998 288.556 409.236 317.867 409.236Z" stroke="url(#paint7_linear)" stroke-width="25"/><rect height="760" rx="380" stroke="url(#paint8_linear)" stroke-width="27" width="760" x="159.5" y="159.5"/><defs><linearGradient gradientUnits="userSpaceOnUse" id="paint0_linear" x1="774.428" x2="781.395" y1="396.734" y2="656.978"><stop stop-color="#35B680"/><stop offset="1" stop-color="#EBB23A"/></linearGradient><linearGradient gradientUnits="userSpaceOnUse" id="paint1_linear" x1="618.687" x2="618.687" y1="253.294" y2="743.044"><stop stop-color="#35B680"/><stop offset="1" stop-color="#EBB23A"/></linearGradient><linearGradient gradientUnits="userSpaceOnUse" id="paint2_linear" x1="683.439" x2="333.032" y1="773.782" y2="781.979"><stop stop-color="#EBB23A"/><stop offset="1" stop-color="#DE1E59"/></linearGradient><linearGradient gradientUnits="userSpaceOnUse" id="paint3_linear" x1="826.881" x2="100.657" y1="618.045" y2="618.045"><stop stop-color="#EBB23A"/><stop offset="1" stop-color="#DE1E59"/></linearGradient><linearGradient gradientUnits="userSpaceOnUse" id="paint4_linear" x1="305.573" x2="305.573" y1="683.616" y2="472.962"><stop stop-color="#DE1E59"/><stop offset="1" stop-color="#3CC5EF"/></linearGradient><linearGradient gradientUnits="userSpaceOnUse" id="paint5_linear" x1="461.311" x2="461.311" y1="827.059" y2="423.373"><stop stop-color="#DE1E59"/><stop offset="1" stop-color="#3CC5EF"/></linearGradient><linearGradient gradientUnits="userSpaceOnUse" id="paint6_linear" x1="395.732" x2="602.698" y1="306.573" y2="306.573"><stop stop-color="#3CC5EF"/><stop offset="1" stop-color="#35B680"/></linearGradient><linearGradient gradientUnits="userSpaceOnUse" id="paint7_linear" x1="252.294" x2="591.226" y1="462.309" y2="462.309"><stop stop-color="#3CC5EF"/><stop offset="1" stop-color="#35B680"/></linearGradient><linearGradient gradientUnits="userSpaceOnUse" id="paint8_linear" x1="348" x2="702.902" y1="191" y2="900.799"><stop stop-color="#3CC4E6"/><stop offset="0.361596" stop-color="#38B680"/><stop offset="0.629893" stop-color="#D12B65"/><stop offset="1" stop-color="#EBAF3B"/></linearGradient></defs></svg>